M48
;DRILL file {PCBnew (20100406 SVN-R2509)-final} date Thu 17 Jun 2010 02:36:31 PM PDT
;FORMAT={2:4/ absolute / inch / suppress trailing zeros}
R,T
VER,1
FMAT,2
INCH,LZ
TCST,OFF
ICI,OFF
ATC,ON
T1C0.029
T2C0.032
T3C0.035
T4C0.039
T5C0.079
T6C0.120
%
M47
G05
M72
T1
X06025Y-036
X06125Y-036
T2
X0515Y-0405
X0515Y-0435
X0525Y-0405
X0525Y-0435
X0535Y-0405
X0535Y-0435
X0545Y-0405
X0545Y-0435
X0555Y-0405
X0555Y-0435
X0565Y-0405
X0565Y-0435
X0575Y-0405
X0575Y-0435
T3
X05475Y-026
X05475Y-027
X05475Y-036
X05475Y-037
X05475Y-046
X05475Y-047
X05475Y-056
X05475Y-057
T4
X06025Y-04
X06025Y-041
X06025Y-042
X06025Y-043
X06025Y-044
X06125Y-04
X06125Y-041
X06125Y-042
X06125Y-043
X06125Y-044
T5
X05275Y-025
X05275Y-029
X05275Y-035
X05275Y-039
X05275Y-045
X05275Y-049
X05275Y-055
X05275Y-059
X05675Y-025
X05675Y-035
X05675Y-045
X05675Y-055
T6
X0515Y-032
X0515Y-052
X0615Y-032
X0615Y-052
T0
M30
