G04 (created by PCBNEW-RS274X (20100406 SVN-R2509)-final) date Thu 17 Jun 2010 11:12:04 AM PDT*
G01*
G70*
G90*
%MOIN*%
G04 Gerber Fmt 3.4, Leading zero omitted, Abs format*
%FSLAX34Y34*%
G04 APERTURE LIST*
%ADD10C,0.001000*%
%ADD11C,0.009000*%
%ADD12C,0.120000*%
%ADD13R,0.065000X0.065000*%
%ADD14C,0.065000*%
%ADD15C,0.069000*%
%ADD16R,0.069000X0.069000*%
%ADD17C,0.130000*%
%ADD18R,0.070000X0.070000*%
%ADD19C,0.070000*%
%ADD20C,0.035000*%
%ADD21C,0.032000*%
%ADD22C,0.010000*%
G04 APERTURE END LIST*
G54D10*
G54D11*
X59000Y-30750D02*
X29000Y-30750D01*
X59000Y-53250D02*
X59000Y-30750D01*
X29000Y-53250D02*
X59000Y-53250D01*
X29000Y-30750D02*
X29000Y-53250D01*
G54D12*
X33500Y-49000D03*
X33500Y-45000D03*
G54D13*
X35500Y-47000D03*
G54D14*
X35500Y-48000D03*
G54D12*
X37500Y-49000D03*
G54D15*
X29750Y-34000D03*
X30750Y-34000D03*
X31750Y-34000D03*
X32750Y-34000D03*
X33750Y-34000D03*
X34750Y-34000D03*
X35750Y-34000D03*
X36750Y-34000D03*
X37750Y-34000D03*
X38750Y-34000D03*
X39750Y-34000D03*
X40750Y-34000D03*
X41750Y-34000D03*
X42750Y-34000D03*
X48750Y-34000D03*
X47750Y-34000D03*
X46750Y-34000D03*
X45750Y-34000D03*
X44750Y-34000D03*
X43750Y-34000D03*
G54D16*
X29750Y-40000D03*
G54D15*
X30750Y-40000D03*
X31750Y-40000D03*
X32750Y-40000D03*
X33750Y-40000D03*
X34750Y-40000D03*
X35750Y-40000D03*
X36750Y-40000D03*
X37750Y-40000D03*
X38750Y-40000D03*
X39750Y-40000D03*
X40750Y-40000D03*
X41750Y-40000D03*
X42750Y-40000D03*
X43750Y-40000D03*
X44750Y-40000D03*
X45750Y-40000D03*
X46750Y-40000D03*
X47750Y-40000D03*
X48750Y-40000D03*
G54D17*
X30250Y-32000D03*
X30250Y-52000D03*
X39000Y-52000D03*
X39000Y-32000D03*
X49000Y-32000D03*
X49000Y-52000D03*
X57750Y-32000D03*
X57750Y-52000D03*
G54D18*
X43500Y-45000D03*
G54D19*
X44500Y-45000D03*
X43500Y-46000D03*
X44500Y-46000D03*
X43500Y-47000D03*
X44500Y-47000D03*
X43500Y-48000D03*
X44500Y-48000D03*
X43500Y-49000D03*
X44500Y-49000D03*
G54D18*
X53500Y-45000D03*
G54D19*
X54500Y-45000D03*
X53500Y-46000D03*
X54500Y-46000D03*
X53500Y-47000D03*
X54500Y-47000D03*
X53500Y-48000D03*
X54500Y-48000D03*
X53500Y-49000D03*
X54500Y-49000D03*
G54D18*
X53500Y-35000D03*
G54D19*
X54500Y-35000D03*
X53500Y-36000D03*
X54500Y-36000D03*
X53500Y-37000D03*
X54500Y-37000D03*
X53500Y-38000D03*
X54500Y-38000D03*
X53500Y-39000D03*
X54500Y-39000D03*
G54D20*
X46005Y-41485D03*
G54D21*
X42705Y-33045D02*
X41750Y-34000D01*
X50470Y-33045D02*
X42705Y-33045D01*
X53425Y-36000D02*
X50470Y-33045D01*
X53500Y-36000D02*
X53425Y-36000D01*
X47750Y-38000D02*
X43750Y-34000D01*
X53500Y-38000D02*
X47750Y-38000D01*
X43500Y-49000D02*
X43500Y-48000D01*
X43500Y-48000D02*
X43500Y-47000D01*
X43500Y-47000D02*
X43500Y-46000D01*
X35500Y-47000D02*
X36088Y-47000D01*
X37566Y-45522D02*
X36088Y-47000D01*
X42861Y-45522D02*
X37566Y-45522D01*
X42861Y-44543D02*
X42861Y-45522D01*
X45919Y-41485D02*
X42861Y-44543D01*
X46005Y-41485D02*
X45919Y-41485D01*
X43339Y-46000D02*
X43500Y-46000D01*
X42861Y-45522D02*
X43339Y-46000D01*
X43634Y-39116D02*
X42750Y-40000D01*
X48726Y-39116D02*
X43634Y-39116D01*
X49358Y-39748D02*
X48726Y-39116D01*
X49358Y-42858D02*
X49358Y-39748D01*
X53500Y-47000D02*
X49358Y-42858D01*
X45637Y-40887D02*
X44750Y-40000D01*
X46027Y-40887D02*
X45637Y-40887D01*
X46443Y-41303D02*
X46027Y-40887D01*
X46443Y-41943D02*
X46443Y-41303D01*
X53500Y-49000D02*
X46443Y-41943D01*
G54D22*
X29245Y-30995D02*
X58755Y-30995D01*
X29245Y-31075D02*
X58755Y-31075D01*
X29245Y-31155D02*
X29940Y-31155D01*
X30562Y-31155D02*
X38690Y-31155D01*
X39312Y-31155D02*
X48690Y-31155D01*
X49312Y-31155D02*
X57440Y-31155D01*
X58062Y-31155D02*
X58755Y-31155D01*
X29245Y-31235D02*
X29746Y-31235D01*
X30754Y-31235D02*
X38496Y-31235D01*
X39504Y-31235D02*
X48496Y-31235D01*
X49504Y-31235D02*
X57246Y-31235D01*
X58254Y-31235D02*
X58755Y-31235D01*
X29245Y-31315D02*
X29663Y-31315D01*
X30838Y-31315D02*
X38413Y-31315D01*
X39588Y-31315D02*
X48413Y-31315D01*
X49588Y-31315D02*
X57163Y-31315D01*
X58338Y-31315D02*
X58755Y-31315D01*
X29245Y-31395D02*
X29583Y-31395D01*
X30918Y-31395D02*
X38333Y-31395D01*
X39668Y-31395D02*
X48333Y-31395D01*
X49668Y-31395D02*
X57083Y-31395D01*
X58418Y-31395D02*
X58755Y-31395D01*
X29245Y-31475D02*
X29503Y-31475D01*
X30998Y-31475D02*
X38253Y-31475D01*
X39748Y-31475D02*
X48253Y-31475D01*
X49748Y-31475D02*
X57003Y-31475D01*
X58498Y-31475D02*
X58755Y-31475D01*
X29245Y-31555D02*
X29461Y-31555D01*
X31040Y-31555D02*
X38211Y-31555D01*
X39790Y-31555D02*
X48211Y-31555D01*
X49790Y-31555D02*
X56961Y-31555D01*
X58540Y-31555D02*
X58755Y-31555D01*
X29245Y-31635D02*
X29428Y-31635D01*
X31073Y-31635D02*
X38178Y-31635D01*
X39823Y-31635D02*
X48178Y-31635D01*
X49823Y-31635D02*
X56928Y-31635D01*
X58573Y-31635D02*
X58755Y-31635D01*
X29245Y-31715D02*
X29394Y-31715D01*
X31106Y-31715D02*
X38144Y-31715D01*
X39856Y-31715D02*
X48144Y-31715D01*
X49856Y-31715D02*
X56894Y-31715D01*
X58606Y-31715D02*
X58755Y-31715D01*
X29245Y-31795D02*
X29361Y-31795D01*
X31139Y-31795D02*
X38111Y-31795D01*
X39889Y-31795D02*
X48111Y-31795D01*
X49889Y-31795D02*
X56861Y-31795D01*
X58639Y-31795D02*
X58755Y-31795D01*
X29245Y-31875D02*
X29350Y-31875D01*
X31150Y-31875D02*
X38100Y-31875D01*
X39900Y-31875D02*
X48100Y-31875D01*
X49900Y-31875D02*
X56850Y-31875D01*
X58650Y-31875D02*
X58755Y-31875D01*
X29245Y-31955D02*
X29350Y-31955D01*
X31150Y-31955D02*
X38100Y-31955D01*
X39900Y-31955D02*
X48100Y-31955D01*
X49900Y-31955D02*
X56850Y-31955D01*
X58650Y-31955D02*
X58755Y-31955D01*
X29245Y-32035D02*
X29350Y-32035D01*
X31150Y-32035D02*
X38100Y-32035D01*
X39900Y-32035D02*
X48100Y-32035D01*
X49900Y-32035D02*
X56850Y-32035D01*
X58650Y-32035D02*
X58755Y-32035D01*
X29245Y-32115D02*
X29350Y-32115D01*
X31150Y-32115D02*
X38100Y-32115D01*
X39900Y-32115D02*
X48100Y-32115D01*
X49900Y-32115D02*
X56850Y-32115D01*
X58650Y-32115D02*
X58755Y-32115D01*
X29245Y-32195D02*
X29357Y-32195D01*
X31143Y-32195D02*
X38107Y-32195D01*
X39893Y-32195D02*
X48107Y-32195D01*
X49893Y-32195D02*
X56857Y-32195D01*
X58643Y-32195D02*
X58755Y-32195D01*
X29245Y-32275D02*
X29390Y-32275D01*
X31110Y-32275D02*
X38140Y-32275D01*
X39860Y-32275D02*
X48140Y-32275D01*
X49860Y-32275D02*
X56890Y-32275D01*
X58610Y-32275D02*
X58755Y-32275D01*
X29245Y-32355D02*
X29423Y-32355D01*
X31077Y-32355D02*
X38173Y-32355D01*
X39827Y-32355D02*
X48173Y-32355D01*
X49827Y-32355D02*
X56923Y-32355D01*
X58577Y-32355D02*
X58755Y-32355D01*
X29245Y-32435D02*
X29456Y-32435D01*
X31043Y-32435D02*
X38206Y-32435D01*
X39793Y-32435D02*
X48206Y-32435D01*
X49793Y-32435D02*
X56956Y-32435D01*
X58543Y-32435D02*
X58755Y-32435D01*
X29245Y-32515D02*
X29492Y-32515D01*
X31007Y-32515D02*
X38242Y-32515D01*
X39757Y-32515D02*
X48242Y-32515D01*
X49757Y-32515D02*
X56992Y-32515D01*
X58507Y-32515D02*
X58755Y-32515D01*
X29245Y-32595D02*
X29572Y-32595D01*
X30927Y-32595D02*
X38322Y-32595D01*
X39677Y-32595D02*
X48322Y-32595D01*
X49677Y-32595D02*
X57072Y-32595D01*
X58427Y-32595D02*
X58755Y-32595D01*
X29245Y-32675D02*
X29652Y-32675D01*
X30847Y-32675D02*
X38402Y-32675D01*
X39597Y-32675D02*
X42535Y-32675D01*
X50641Y-32675D02*
X57152Y-32675D01*
X58347Y-32675D02*
X58755Y-32675D01*
X29245Y-32755D02*
X29732Y-32755D01*
X30767Y-32755D02*
X38482Y-32755D01*
X39517Y-32755D02*
X42414Y-32755D01*
X50760Y-32755D02*
X57232Y-32755D01*
X58267Y-32755D02*
X58755Y-32755D01*
X29245Y-32835D02*
X29914Y-32835D01*
X30585Y-32835D02*
X38664Y-32835D01*
X39335Y-32835D02*
X42335Y-32835D01*
X50840Y-32835D02*
X57414Y-32835D01*
X58085Y-32835D02*
X58755Y-32835D01*
X29245Y-32915D02*
X42255Y-32915D01*
X50920Y-32915D02*
X58755Y-32915D01*
X29245Y-32995D02*
X42175Y-32995D01*
X51000Y-32995D02*
X58755Y-32995D01*
X29245Y-33075D02*
X42095Y-33075D01*
X51080Y-33075D02*
X58755Y-33075D01*
X29245Y-33155D02*
X42015Y-33155D01*
X51160Y-33155D02*
X58755Y-33155D01*
X29245Y-33235D02*
X41935Y-33235D01*
X51240Y-33235D02*
X58755Y-33235D01*
X29245Y-33315D02*
X41855Y-33315D01*
X51320Y-33315D02*
X58755Y-33315D01*
X29245Y-33395D02*
X41775Y-33395D01*
X51400Y-33395D02*
X58755Y-33395D01*
X29245Y-33475D02*
X29465Y-33475D01*
X30036Y-33475D02*
X30465Y-33475D01*
X31035Y-33475D02*
X31465Y-33475D01*
X32035Y-33475D02*
X32465Y-33475D01*
X33035Y-33475D02*
X33465Y-33475D01*
X34035Y-33475D02*
X34465Y-33475D01*
X35035Y-33475D02*
X35465Y-33475D01*
X36035Y-33475D02*
X36465Y-33475D01*
X37035Y-33475D02*
X37465Y-33475D01*
X38035Y-33475D02*
X38465Y-33475D01*
X39035Y-33475D02*
X39465Y-33475D01*
X40035Y-33475D02*
X40465Y-33475D01*
X41035Y-33475D02*
X41465Y-33475D01*
X51480Y-33475D02*
X58755Y-33475D01*
X29245Y-33555D02*
X29355Y-33555D01*
X30145Y-33555D02*
X30355Y-33555D01*
X31145Y-33555D02*
X31355Y-33555D01*
X32145Y-33555D02*
X32355Y-33555D01*
X33145Y-33555D02*
X33355Y-33555D01*
X34145Y-33555D02*
X34355Y-33555D01*
X35145Y-33555D02*
X35355Y-33555D01*
X36145Y-33555D02*
X36355Y-33555D01*
X37145Y-33555D02*
X37355Y-33555D01*
X38145Y-33555D02*
X38355Y-33555D01*
X39145Y-33555D02*
X39355Y-33555D01*
X40145Y-33555D02*
X40355Y-33555D01*
X41145Y-33555D02*
X41355Y-33555D01*
X51560Y-33555D02*
X58755Y-33555D01*
X29245Y-33635D02*
X29275Y-33635D01*
X30225Y-33635D02*
X30274Y-33635D01*
X31225Y-33635D02*
X31274Y-33635D01*
X32225Y-33635D02*
X32274Y-33635D01*
X33225Y-33635D02*
X33274Y-33635D01*
X34225Y-33635D02*
X34274Y-33635D01*
X35225Y-33635D02*
X35274Y-33635D01*
X36225Y-33635D02*
X36274Y-33635D01*
X37225Y-33635D02*
X37274Y-33635D01*
X38225Y-33635D02*
X38274Y-33635D01*
X39225Y-33635D02*
X39274Y-33635D01*
X40225Y-33635D02*
X40274Y-33635D01*
X41225Y-33635D02*
X41274Y-33635D01*
X51640Y-33635D02*
X58755Y-33635D01*
X51720Y-33715D02*
X58755Y-33715D01*
X51800Y-33795D02*
X58755Y-33795D01*
X51880Y-33875D02*
X58755Y-33875D01*
X51960Y-33955D02*
X58755Y-33955D01*
X52040Y-34035D02*
X58755Y-34035D01*
X52120Y-34115D02*
X58755Y-34115D01*
X52200Y-34195D02*
X58755Y-34195D01*
X52280Y-34275D02*
X58755Y-34275D01*
X29245Y-34355D02*
X29265Y-34355D01*
X30233Y-34355D02*
X30265Y-34355D01*
X31233Y-34355D02*
X31265Y-34355D01*
X32233Y-34355D02*
X32265Y-34355D01*
X33233Y-34355D02*
X33265Y-34355D01*
X34233Y-34355D02*
X34265Y-34355D01*
X35233Y-34355D02*
X35265Y-34355D01*
X36233Y-34355D02*
X36265Y-34355D01*
X37233Y-34355D02*
X37265Y-34355D01*
X38233Y-34355D02*
X38265Y-34355D01*
X39233Y-34355D02*
X39265Y-34355D01*
X40233Y-34355D02*
X40265Y-34355D01*
X41233Y-34355D02*
X41265Y-34355D01*
X42233Y-34355D02*
X42265Y-34355D01*
X43233Y-34355D02*
X43265Y-34355D01*
X52360Y-34355D02*
X58755Y-34355D01*
X29245Y-34435D02*
X29345Y-34435D01*
X30154Y-34435D02*
X30345Y-34435D01*
X31154Y-34435D02*
X31345Y-34435D01*
X32154Y-34435D02*
X32345Y-34435D01*
X33154Y-34435D02*
X33345Y-34435D01*
X34154Y-34435D02*
X34345Y-34435D01*
X35154Y-34435D02*
X35345Y-34435D01*
X36154Y-34435D02*
X36345Y-34435D01*
X37154Y-34435D02*
X37345Y-34435D01*
X38154Y-34435D02*
X38345Y-34435D01*
X39154Y-34435D02*
X39345Y-34435D01*
X40154Y-34435D02*
X40345Y-34435D01*
X41154Y-34435D02*
X41345Y-34435D01*
X42154Y-34435D02*
X42345Y-34435D01*
X43154Y-34435D02*
X43345Y-34435D01*
X52440Y-34435D02*
X53019Y-34435D01*
X53982Y-34435D02*
X54316Y-34435D01*
X54668Y-34435D02*
X58755Y-34435D01*
X29245Y-34515D02*
X29441Y-34515D01*
X30059Y-34515D02*
X30441Y-34515D01*
X31059Y-34515D02*
X31441Y-34515D01*
X32059Y-34515D02*
X32441Y-34515D01*
X33059Y-34515D02*
X33441Y-34515D01*
X34059Y-34515D02*
X34441Y-34515D01*
X35059Y-34515D02*
X35441Y-34515D01*
X36059Y-34515D02*
X36441Y-34515D01*
X37059Y-34515D02*
X37441Y-34515D01*
X38059Y-34515D02*
X38441Y-34515D01*
X39059Y-34515D02*
X39441Y-34515D01*
X40059Y-34515D02*
X40441Y-34515D01*
X41059Y-34515D02*
X41441Y-34515D01*
X42059Y-34515D02*
X42441Y-34515D01*
X43059Y-34515D02*
X43441Y-34515D01*
X52520Y-34515D02*
X52937Y-34515D01*
X54064Y-34515D02*
X54181Y-34515D01*
X54820Y-34515D02*
X58755Y-34515D01*
X29245Y-34595D02*
X43765Y-34595D01*
X52600Y-34595D02*
X52904Y-34595D01*
X54097Y-34595D02*
X54113Y-34595D01*
X54166Y-34595D02*
X54166Y-34595D01*
X54833Y-34595D02*
X58755Y-34595D01*
X29245Y-34675D02*
X43845Y-34675D01*
X52680Y-34675D02*
X52901Y-34675D01*
X54104Y-34675D02*
X54104Y-34675D01*
X54246Y-34675D02*
X54246Y-34675D01*
X54753Y-34675D02*
X54896Y-34675D01*
X54968Y-34675D02*
X58755Y-34675D01*
X29245Y-34755D02*
X43925Y-34755D01*
X52760Y-34755D02*
X52901Y-34755D01*
X54184Y-34755D02*
X54184Y-34755D01*
X54326Y-34755D02*
X54326Y-34755D01*
X54673Y-34755D02*
X54816Y-34755D01*
X55041Y-34755D02*
X58755Y-34755D01*
X29245Y-34835D02*
X44005Y-34835D01*
X52840Y-34835D02*
X52901Y-34835D01*
X54264Y-34835D02*
X54264Y-34835D01*
X54406Y-34835D02*
X54406Y-34835D01*
X54592Y-34835D02*
X54736Y-34835D01*
X55074Y-34835D02*
X58755Y-34835D01*
X29245Y-34915D02*
X44085Y-34915D01*
X54344Y-34915D02*
X54344Y-34915D01*
X54486Y-34915D02*
X54486Y-34915D01*
X54512Y-34915D02*
X54656Y-34915D01*
X55085Y-34915D02*
X58755Y-34915D01*
X29245Y-34995D02*
X44165Y-34995D01*
X54424Y-34995D02*
X54424Y-34995D01*
X54433Y-34995D02*
X54576Y-34995D01*
X55089Y-34995D02*
X58755Y-34995D01*
X29245Y-35075D02*
X44245Y-35075D01*
X54354Y-35075D02*
X54354Y-35075D01*
X54495Y-35075D02*
X54496Y-35075D01*
X54504Y-35075D02*
X54646Y-35075D01*
X55093Y-35075D02*
X58755Y-35075D01*
X29245Y-35155D02*
X44325Y-35155D01*
X54274Y-35155D02*
X54274Y-35155D01*
X54415Y-35155D02*
X54416Y-35155D01*
X54584Y-35155D02*
X54726Y-35155D01*
X55069Y-35155D02*
X58755Y-35155D01*
X29245Y-35235D02*
X44405Y-35235D01*
X54194Y-35235D02*
X54194Y-35235D01*
X54335Y-35235D02*
X54336Y-35235D01*
X54664Y-35235D02*
X54806Y-35235D01*
X55040Y-35235D02*
X58755Y-35235D01*
X29245Y-35315D02*
X44485Y-35315D01*
X54114Y-35315D02*
X54114Y-35315D01*
X54255Y-35315D02*
X54256Y-35315D01*
X54744Y-35315D02*
X54886Y-35315D01*
X54998Y-35315D02*
X58755Y-35315D01*
X29245Y-35395D02*
X44565Y-35395D01*
X54099Y-35395D02*
X54103Y-35395D01*
X54175Y-35395D02*
X54176Y-35395D01*
X54824Y-35395D02*
X58755Y-35395D01*
X29245Y-35475D02*
X44645Y-35475D01*
X54067Y-35475D02*
X54176Y-35475D01*
X54822Y-35475D02*
X58755Y-35475D01*
X29245Y-35555D02*
X44725Y-35555D01*
X53997Y-35555D02*
X54168Y-35555D01*
X54833Y-35555D02*
X58755Y-35555D01*
X29245Y-35635D02*
X44805Y-35635D01*
X53982Y-35635D02*
X54206Y-35635D01*
X54794Y-35635D02*
X58755Y-35635D01*
X29245Y-35715D02*
X44885Y-35715D01*
X54144Y-35715D02*
X54286Y-35715D01*
X54714Y-35715D02*
X54856Y-35715D01*
X55024Y-35715D02*
X58755Y-35715D01*
X29245Y-35795D02*
X44965Y-35795D01*
X54224Y-35795D02*
X54366Y-35795D01*
X54634Y-35795D02*
X54776Y-35795D01*
X55057Y-35795D02*
X58755Y-35795D01*
X29245Y-35875D02*
X45045Y-35875D01*
X54304Y-35875D02*
X54446Y-35875D01*
X54554Y-35875D02*
X54696Y-35875D01*
X55083Y-35875D02*
X58755Y-35875D01*
X29245Y-35955D02*
X45125Y-35955D01*
X54384Y-35955D02*
X54616Y-35955D01*
X55087Y-35955D02*
X58755Y-35955D01*
X29245Y-36035D02*
X45205Y-36035D01*
X54394Y-36035D02*
X54606Y-36035D01*
X55091Y-36035D02*
X58755Y-36035D01*
X29245Y-36115D02*
X45285Y-36115D01*
X54314Y-36115D02*
X54456Y-36115D01*
X54544Y-36115D02*
X54686Y-36115D01*
X55084Y-36115D02*
X58755Y-36115D01*
X29245Y-36195D02*
X45365Y-36195D01*
X54234Y-36195D02*
X54376Y-36195D01*
X54624Y-36195D02*
X54766Y-36195D01*
X55055Y-36195D02*
X58755Y-36195D01*
X29245Y-36275D02*
X45445Y-36275D01*
X54154Y-36275D02*
X54296Y-36275D01*
X54704Y-36275D02*
X54846Y-36275D01*
X55025Y-36275D02*
X58755Y-36275D01*
X29245Y-36355D02*
X45525Y-36355D01*
X53991Y-36355D02*
X54216Y-36355D01*
X54784Y-36355D02*
X58755Y-36355D01*
X29245Y-36435D02*
X45605Y-36435D01*
X53910Y-36435D02*
X54163Y-36435D01*
X54835Y-36435D02*
X58755Y-36435D01*
X29245Y-36515D02*
X45685Y-36515D01*
X53862Y-36515D02*
X54180Y-36515D01*
X54820Y-36515D02*
X58755Y-36515D01*
X29245Y-36595D02*
X45765Y-36595D01*
X53942Y-36595D02*
X54166Y-36595D01*
X54834Y-36595D02*
X58755Y-36595D01*
X29245Y-36675D02*
X45845Y-36675D01*
X54014Y-36675D02*
X54031Y-36675D01*
X54104Y-36675D02*
X54246Y-36675D01*
X54754Y-36675D02*
X54896Y-36675D01*
X54968Y-36675D02*
X58755Y-36675D01*
X29245Y-36755D02*
X45925Y-36755D01*
X54184Y-36755D02*
X54326Y-36755D01*
X54674Y-36755D02*
X54816Y-36755D01*
X55041Y-36755D02*
X58755Y-36755D01*
X29245Y-36835D02*
X46005Y-36835D01*
X54264Y-36835D02*
X54406Y-36835D01*
X54594Y-36835D02*
X54736Y-36835D01*
X55074Y-36835D02*
X58755Y-36835D01*
X29245Y-36915D02*
X46085Y-36915D01*
X54344Y-36915D02*
X54486Y-36915D01*
X54514Y-36915D02*
X54656Y-36915D01*
X55085Y-36915D02*
X58755Y-36915D01*
X29245Y-36995D02*
X46165Y-36995D01*
X54424Y-36995D02*
X54576Y-36995D01*
X55089Y-36995D02*
X58755Y-36995D01*
X29245Y-37075D02*
X46245Y-37075D01*
X54354Y-37075D02*
X54496Y-37075D01*
X54504Y-37075D02*
X54646Y-37075D01*
X55093Y-37075D02*
X58755Y-37075D01*
X29245Y-37155D02*
X46325Y-37155D01*
X54274Y-37155D02*
X54416Y-37155D01*
X54584Y-37155D02*
X54726Y-37155D01*
X55069Y-37155D02*
X58755Y-37155D01*
X29245Y-37235D02*
X46405Y-37235D01*
X54194Y-37235D02*
X54336Y-37235D01*
X54664Y-37235D02*
X54806Y-37235D01*
X55040Y-37235D02*
X58755Y-37235D01*
X29245Y-37315D02*
X46485Y-37315D01*
X54114Y-37315D02*
X54256Y-37315D01*
X54744Y-37315D02*
X54886Y-37315D01*
X54998Y-37315D02*
X58755Y-37315D01*
X29245Y-37395D02*
X46565Y-37395D01*
X53951Y-37395D02*
X54176Y-37395D01*
X54824Y-37395D02*
X58755Y-37395D01*
X29245Y-37475D02*
X46645Y-37475D01*
X53870Y-37475D02*
X54177Y-37475D01*
X54822Y-37475D02*
X58755Y-37475D01*
X29245Y-37555D02*
X46725Y-37555D01*
X53902Y-37555D02*
X54167Y-37555D01*
X54833Y-37555D02*
X58755Y-37555D01*
X29245Y-37635D02*
X46805Y-37635D01*
X53982Y-37635D02*
X54206Y-37635D01*
X54794Y-37635D02*
X58755Y-37635D01*
X29245Y-37715D02*
X46885Y-37715D01*
X54144Y-37715D02*
X54286Y-37715D01*
X54714Y-37715D02*
X54856Y-37715D01*
X55024Y-37715D02*
X58755Y-37715D01*
X29245Y-37795D02*
X46965Y-37795D01*
X54224Y-37795D02*
X54366Y-37795D01*
X54634Y-37795D02*
X54776Y-37795D01*
X55057Y-37795D02*
X58755Y-37795D01*
X29245Y-37875D02*
X47045Y-37875D01*
X54304Y-37875D02*
X54446Y-37875D01*
X54554Y-37875D02*
X54696Y-37875D01*
X55083Y-37875D02*
X58755Y-37875D01*
X29245Y-37955D02*
X47125Y-37955D01*
X54384Y-37955D02*
X54616Y-37955D01*
X55087Y-37955D02*
X58755Y-37955D01*
X29245Y-38035D02*
X47205Y-38035D01*
X54394Y-38035D02*
X54606Y-38035D01*
X55091Y-38035D02*
X58755Y-38035D01*
X29245Y-38115D02*
X47285Y-38115D01*
X54314Y-38115D02*
X54456Y-38115D01*
X54544Y-38115D02*
X54686Y-38115D01*
X55084Y-38115D02*
X58755Y-38115D01*
X29245Y-38195D02*
X47365Y-38195D01*
X54234Y-38195D02*
X54376Y-38195D01*
X54624Y-38195D02*
X54766Y-38195D01*
X55055Y-38195D02*
X58755Y-38195D01*
X29245Y-38275D02*
X47445Y-38275D01*
X54154Y-38275D02*
X54296Y-38275D01*
X54704Y-38275D02*
X54846Y-38275D01*
X55025Y-38275D02*
X58755Y-38275D01*
X29245Y-38355D02*
X47557Y-38355D01*
X53991Y-38355D02*
X54216Y-38355D01*
X54784Y-38355D02*
X58755Y-38355D01*
X29245Y-38435D02*
X53087Y-38435D01*
X53910Y-38435D02*
X54163Y-38435D01*
X54835Y-38435D02*
X58755Y-38435D01*
X29245Y-38515D02*
X53137Y-38515D01*
X53862Y-38515D02*
X54180Y-38515D01*
X54820Y-38515D02*
X58755Y-38515D01*
X29245Y-38595D02*
X53058Y-38595D01*
X53942Y-38595D02*
X54166Y-38595D01*
X54834Y-38595D02*
X58755Y-38595D01*
X29245Y-38675D02*
X52987Y-38675D01*
X54014Y-38675D02*
X54031Y-38675D01*
X54104Y-38675D02*
X54246Y-38675D01*
X54754Y-38675D02*
X54896Y-38675D01*
X54968Y-38675D02*
X58755Y-38675D01*
X29245Y-38755D02*
X43451Y-38755D01*
X48910Y-38755D02*
X52954Y-38755D01*
X54184Y-38755D02*
X54326Y-38755D01*
X54674Y-38755D02*
X54816Y-38755D01*
X55041Y-38755D02*
X58755Y-38755D01*
X29245Y-38835D02*
X43335Y-38835D01*
X49025Y-38835D02*
X52921Y-38835D01*
X54264Y-38835D02*
X54406Y-38835D01*
X54594Y-38835D02*
X54736Y-38835D01*
X55074Y-38835D02*
X58755Y-38835D01*
X29245Y-38915D02*
X43255Y-38915D01*
X49105Y-38915D02*
X52901Y-38915D01*
X54344Y-38915D02*
X54486Y-38915D01*
X54514Y-38915D02*
X54656Y-38915D01*
X55085Y-38915D02*
X58755Y-38915D01*
X29245Y-38995D02*
X43175Y-38995D01*
X49185Y-38995D02*
X52901Y-38995D01*
X54424Y-38995D02*
X54576Y-38995D01*
X55089Y-38995D02*
X58755Y-38995D01*
X29245Y-39075D02*
X43095Y-39075D01*
X49265Y-39075D02*
X52901Y-39075D01*
X54354Y-39075D02*
X54496Y-39075D01*
X54504Y-39075D02*
X54646Y-39075D01*
X55093Y-39075D02*
X58755Y-39075D01*
X29245Y-39155D02*
X43015Y-39155D01*
X49345Y-39155D02*
X52915Y-39155D01*
X54274Y-39155D02*
X54416Y-39155D01*
X54584Y-39155D02*
X54726Y-39155D01*
X55069Y-39155D02*
X58755Y-39155D01*
X29245Y-39235D02*
X42935Y-39235D01*
X49425Y-39235D02*
X52948Y-39235D01*
X54194Y-39235D02*
X54336Y-39235D01*
X54664Y-39235D02*
X54806Y-39235D01*
X55040Y-39235D02*
X58755Y-39235D01*
X29245Y-39315D02*
X42855Y-39315D01*
X49505Y-39315D02*
X52982Y-39315D01*
X54114Y-39315D02*
X54256Y-39315D01*
X54744Y-39315D02*
X54886Y-39315D01*
X54998Y-39315D02*
X58755Y-39315D01*
X29245Y-39395D02*
X42775Y-39395D01*
X49585Y-39395D02*
X53048Y-39395D01*
X53952Y-39395D02*
X54176Y-39395D01*
X54824Y-39395D02*
X58755Y-39395D01*
X29700Y-39475D02*
X29800Y-39475D01*
X30267Y-39475D02*
X30465Y-39475D01*
X31035Y-39475D02*
X31465Y-39475D01*
X32035Y-39475D02*
X32465Y-39475D01*
X33035Y-39475D02*
X33465Y-39475D01*
X34035Y-39475D02*
X34465Y-39475D01*
X35035Y-39475D02*
X35465Y-39475D01*
X36035Y-39475D02*
X36465Y-39475D01*
X37035Y-39475D02*
X37465Y-39475D01*
X38035Y-39475D02*
X38465Y-39475D01*
X39035Y-39475D02*
X39465Y-39475D01*
X40035Y-39475D02*
X40465Y-39475D01*
X41035Y-39475D02*
X41465Y-39475D01*
X42035Y-39475D02*
X42465Y-39475D01*
X49660Y-39475D02*
X53128Y-39475D01*
X53872Y-39475D02*
X54177Y-39475D01*
X54822Y-39475D02*
X58755Y-39475D01*
X29700Y-39555D02*
X29800Y-39555D01*
X30323Y-39555D02*
X30355Y-39555D01*
X31145Y-39555D02*
X31355Y-39555D01*
X32145Y-39555D02*
X32355Y-39555D01*
X33145Y-39555D02*
X33355Y-39555D01*
X34145Y-39555D02*
X34355Y-39555D01*
X35145Y-39555D02*
X35355Y-39555D01*
X36145Y-39555D02*
X36355Y-39555D01*
X37145Y-39555D02*
X37355Y-39555D01*
X38145Y-39555D02*
X38355Y-39555D01*
X39145Y-39555D02*
X39355Y-39555D01*
X40145Y-39555D02*
X40355Y-39555D01*
X41145Y-39555D02*
X41355Y-39555D01*
X42145Y-39555D02*
X42355Y-39555D01*
X49713Y-39555D02*
X53274Y-39555D01*
X53725Y-39555D02*
X54304Y-39555D01*
X54708Y-39555D02*
X58755Y-39555D01*
X29700Y-39635D02*
X29800Y-39635D01*
X31225Y-39635D02*
X31274Y-39635D01*
X32225Y-39635D02*
X32274Y-39635D01*
X33225Y-39635D02*
X33274Y-39635D01*
X34225Y-39635D02*
X34274Y-39635D01*
X35225Y-39635D02*
X35274Y-39635D01*
X36225Y-39635D02*
X36274Y-39635D01*
X37225Y-39635D02*
X37274Y-39635D01*
X38225Y-39635D02*
X38274Y-39635D01*
X39225Y-39635D02*
X39275Y-39635D01*
X40225Y-39635D02*
X40274Y-39635D01*
X41225Y-39635D02*
X41274Y-39635D01*
X42225Y-39635D02*
X42274Y-39635D01*
X49746Y-39635D02*
X58755Y-39635D01*
X29700Y-39715D02*
X29800Y-39715D01*
X49761Y-39715D02*
X58755Y-39715D01*
X29700Y-39795D02*
X29800Y-39795D01*
X49768Y-39795D02*
X58755Y-39795D01*
X29700Y-39875D02*
X29800Y-39875D01*
X49768Y-39875D02*
X58755Y-39875D01*
X29700Y-39955D02*
X29800Y-39955D01*
X49768Y-39955D02*
X58755Y-39955D01*
X29700Y-40035D02*
X29800Y-40035D01*
X49768Y-40035D02*
X58755Y-40035D01*
X29700Y-40115D02*
X29800Y-40115D01*
X49768Y-40115D02*
X58755Y-40115D01*
X29700Y-40195D02*
X29800Y-40195D01*
X49768Y-40195D02*
X58755Y-40195D01*
X29700Y-40275D02*
X29800Y-40275D01*
X49768Y-40275D02*
X58755Y-40275D01*
X29700Y-40355D02*
X29800Y-40355D01*
X31233Y-40355D02*
X31265Y-40355D01*
X32233Y-40355D02*
X32265Y-40355D01*
X33233Y-40355D02*
X33265Y-40355D01*
X34233Y-40355D02*
X34265Y-40355D01*
X35233Y-40355D02*
X35265Y-40355D01*
X36233Y-40355D02*
X36265Y-40355D01*
X37233Y-40355D02*
X37265Y-40355D01*
X38233Y-40355D02*
X38265Y-40355D01*
X39235Y-40355D02*
X39265Y-40355D01*
X40233Y-40355D02*
X40265Y-40355D01*
X41233Y-40355D02*
X41265Y-40355D01*
X42233Y-40355D02*
X42265Y-40355D01*
X43233Y-40355D02*
X43265Y-40355D01*
X44233Y-40355D02*
X44265Y-40355D01*
X49768Y-40355D02*
X58755Y-40355D01*
X29700Y-40435D02*
X29800Y-40435D01*
X30326Y-40435D02*
X30345Y-40435D01*
X31154Y-40435D02*
X31345Y-40435D01*
X32154Y-40435D02*
X32345Y-40435D01*
X33154Y-40435D02*
X33345Y-40435D01*
X34154Y-40435D02*
X34345Y-40435D01*
X35154Y-40435D02*
X35345Y-40435D01*
X36154Y-40435D02*
X36345Y-40435D01*
X37154Y-40435D02*
X37345Y-40435D01*
X38154Y-40435D02*
X38345Y-40435D01*
X39155Y-40435D02*
X39345Y-40435D01*
X40154Y-40435D02*
X40345Y-40435D01*
X41154Y-40435D02*
X41345Y-40435D01*
X42154Y-40435D02*
X42345Y-40435D01*
X43154Y-40435D02*
X43345Y-40435D01*
X44154Y-40435D02*
X44345Y-40435D01*
X49768Y-40435D02*
X58755Y-40435D01*
X29700Y-40515D02*
X29800Y-40515D01*
X30277Y-40515D02*
X30441Y-40515D01*
X31059Y-40515D02*
X31441Y-40515D01*
X32059Y-40515D02*
X32441Y-40515D01*
X33059Y-40515D02*
X33441Y-40515D01*
X34059Y-40515D02*
X34441Y-40515D01*
X35059Y-40515D02*
X35441Y-40515D01*
X36059Y-40515D02*
X36441Y-40515D01*
X37059Y-40515D02*
X37441Y-40515D01*
X38059Y-40515D02*
X38441Y-40515D01*
X39059Y-40515D02*
X39441Y-40515D01*
X40059Y-40515D02*
X40441Y-40515D01*
X41059Y-40515D02*
X41441Y-40515D01*
X42059Y-40515D02*
X42441Y-40515D01*
X43059Y-40515D02*
X43441Y-40515D01*
X44059Y-40515D02*
X44441Y-40515D01*
X49768Y-40515D02*
X58755Y-40515D01*
X29245Y-40595D02*
X44765Y-40595D01*
X49768Y-40595D02*
X58755Y-40595D01*
X29245Y-40675D02*
X44845Y-40675D01*
X49768Y-40675D02*
X58755Y-40675D01*
X29245Y-40755D02*
X44925Y-40755D01*
X49768Y-40755D02*
X58755Y-40755D01*
X29245Y-40835D02*
X45005Y-40835D01*
X49768Y-40835D02*
X58755Y-40835D01*
X29245Y-40915D02*
X45085Y-40915D01*
X49768Y-40915D02*
X58755Y-40915D01*
X29245Y-40995D02*
X45165Y-40995D01*
X49768Y-40995D02*
X58755Y-40995D01*
X29245Y-41075D02*
X45245Y-41075D01*
X49768Y-41075D02*
X58755Y-41075D01*
X29245Y-41155D02*
X45325Y-41155D01*
X49768Y-41155D02*
X58755Y-41155D01*
X29245Y-41235D02*
X45433Y-41235D01*
X49768Y-41235D02*
X58755Y-41235D01*
X29245Y-41315D02*
X45509Y-41315D01*
X49768Y-41315D02*
X58755Y-41315D01*
X29245Y-41395D02*
X45429Y-41395D01*
X49768Y-41395D02*
X58755Y-41395D01*
X29245Y-41475D02*
X45349Y-41475D01*
X49768Y-41475D02*
X58755Y-41475D01*
X29245Y-41555D02*
X45269Y-41555D01*
X49768Y-41555D02*
X58755Y-41555D01*
X29245Y-41635D02*
X45189Y-41635D01*
X49768Y-41635D02*
X58755Y-41635D01*
X29245Y-41715D02*
X45109Y-41715D01*
X49768Y-41715D02*
X58755Y-41715D01*
X29245Y-41795D02*
X45029Y-41795D01*
X49768Y-41795D02*
X58755Y-41795D01*
X29245Y-41875D02*
X44949Y-41875D01*
X49768Y-41875D02*
X58755Y-41875D01*
X29245Y-41955D02*
X44869Y-41955D01*
X46027Y-41955D02*
X46035Y-41955D01*
X49768Y-41955D02*
X58755Y-41955D01*
X29245Y-42035D02*
X44789Y-42035D01*
X45947Y-42035D02*
X46051Y-42035D01*
X49768Y-42035D02*
X58755Y-42035D01*
X29245Y-42115D02*
X44709Y-42115D01*
X45867Y-42115D02*
X46074Y-42115D01*
X49768Y-42115D02*
X58755Y-42115D01*
X29245Y-42195D02*
X44629Y-42195D01*
X45787Y-42195D02*
X46127Y-42195D01*
X49768Y-42195D02*
X58755Y-42195D01*
X29245Y-42275D02*
X44549Y-42275D01*
X45707Y-42275D02*
X46195Y-42275D01*
X49768Y-42275D02*
X58755Y-42275D01*
X29245Y-42355D02*
X44469Y-42355D01*
X45627Y-42355D02*
X46275Y-42355D01*
X49768Y-42355D02*
X58755Y-42355D01*
X29245Y-42435D02*
X44389Y-42435D01*
X45547Y-42435D02*
X46355Y-42435D01*
X49768Y-42435D02*
X58755Y-42435D01*
X29245Y-42515D02*
X44309Y-42515D01*
X45467Y-42515D02*
X46435Y-42515D01*
X49768Y-42515D02*
X58755Y-42515D01*
X29245Y-42595D02*
X44229Y-42595D01*
X45387Y-42595D02*
X46515Y-42595D01*
X49768Y-42595D02*
X58755Y-42595D01*
X29245Y-42675D02*
X44149Y-42675D01*
X45307Y-42675D02*
X46595Y-42675D01*
X49768Y-42675D02*
X58755Y-42675D01*
X29245Y-42755D02*
X44069Y-42755D01*
X45227Y-42755D02*
X46675Y-42755D01*
X49835Y-42755D02*
X58755Y-42755D01*
X29245Y-42835D02*
X43989Y-42835D01*
X45147Y-42835D02*
X46755Y-42835D01*
X49915Y-42835D02*
X58755Y-42835D01*
X29245Y-42915D02*
X43909Y-42915D01*
X45067Y-42915D02*
X46835Y-42915D01*
X49995Y-42915D02*
X58755Y-42915D01*
X29245Y-42995D02*
X43829Y-42995D01*
X44987Y-42995D02*
X46915Y-42995D01*
X50075Y-42995D02*
X58755Y-42995D01*
X29245Y-43075D02*
X43749Y-43075D01*
X44907Y-43075D02*
X46995Y-43075D01*
X50155Y-43075D02*
X58755Y-43075D01*
X29245Y-43155D02*
X43669Y-43155D01*
X44827Y-43155D02*
X47075Y-43155D01*
X50235Y-43155D02*
X58755Y-43155D01*
X29245Y-43235D02*
X43589Y-43235D01*
X44747Y-43235D02*
X47155Y-43235D01*
X50315Y-43235D02*
X58755Y-43235D01*
X29245Y-43315D02*
X43509Y-43315D01*
X44667Y-43315D02*
X47235Y-43315D01*
X50395Y-43315D02*
X58755Y-43315D01*
X29245Y-43395D02*
X43429Y-43395D01*
X44587Y-43395D02*
X47315Y-43395D01*
X50475Y-43395D02*
X58755Y-43395D01*
X29245Y-43475D02*
X43349Y-43475D01*
X44507Y-43475D02*
X47395Y-43475D01*
X50555Y-43475D02*
X58755Y-43475D01*
X29245Y-43555D02*
X43269Y-43555D01*
X44427Y-43555D02*
X47475Y-43555D01*
X50635Y-43555D02*
X58755Y-43555D01*
X29245Y-43635D02*
X43189Y-43635D01*
X44347Y-43635D02*
X47555Y-43635D01*
X50715Y-43635D02*
X58755Y-43635D01*
X29245Y-43715D02*
X43109Y-43715D01*
X44267Y-43715D02*
X47635Y-43715D01*
X50795Y-43715D02*
X58755Y-43715D01*
X29245Y-43795D02*
X43029Y-43795D01*
X44187Y-43795D02*
X47715Y-43795D01*
X50875Y-43795D02*
X58755Y-43795D01*
X29245Y-43875D02*
X42949Y-43875D01*
X44107Y-43875D02*
X47795Y-43875D01*
X50955Y-43875D02*
X58755Y-43875D01*
X29245Y-43955D02*
X42869Y-43955D01*
X44027Y-43955D02*
X47875Y-43955D01*
X51035Y-43955D02*
X58755Y-43955D01*
X29245Y-44035D02*
X42789Y-44035D01*
X43947Y-44035D02*
X47955Y-44035D01*
X51115Y-44035D02*
X58755Y-44035D01*
X29245Y-44115D02*
X42709Y-44115D01*
X43867Y-44115D02*
X48035Y-44115D01*
X51195Y-44115D02*
X58755Y-44115D01*
X29245Y-44195D02*
X33224Y-44195D01*
X33778Y-44195D02*
X42629Y-44195D01*
X43787Y-44195D02*
X48115Y-44195D01*
X51275Y-44195D02*
X58755Y-44195D01*
X29245Y-44275D02*
X33030Y-44275D01*
X33970Y-44275D02*
X42557Y-44275D01*
X43707Y-44275D02*
X48195Y-44275D01*
X51355Y-44275D02*
X58755Y-44275D01*
X29245Y-44355D02*
X32944Y-44355D01*
X34057Y-44355D02*
X42503Y-44355D01*
X43627Y-44355D02*
X48275Y-44355D01*
X51435Y-44355D02*
X58755Y-44355D01*
X29245Y-44435D02*
X32864Y-44435D01*
X34137Y-44435D02*
X42473Y-44435D01*
X43982Y-44435D02*
X44316Y-44435D01*
X44668Y-44435D02*
X48355Y-44435D01*
X51515Y-44435D02*
X53019Y-44435D01*
X53982Y-44435D02*
X54316Y-44435D01*
X54668Y-44435D02*
X58755Y-44435D01*
X29245Y-44515D02*
X32784Y-44515D01*
X34217Y-44515D02*
X42457Y-44515D01*
X44064Y-44515D02*
X44181Y-44515D01*
X44820Y-44515D02*
X48435Y-44515D01*
X51595Y-44515D02*
X52937Y-44515D01*
X54064Y-44515D02*
X54181Y-44515D01*
X54820Y-44515D02*
X58755Y-44515D01*
X29245Y-44595D02*
X32748Y-44595D01*
X34253Y-44595D02*
X42451Y-44595D01*
X44097Y-44595D02*
X44113Y-44595D01*
X44166Y-44595D02*
X44166Y-44595D01*
X44833Y-44595D02*
X48515Y-44595D01*
X51675Y-44595D02*
X52904Y-44595D01*
X54097Y-44595D02*
X54113Y-44595D01*
X54166Y-44595D02*
X54166Y-44595D01*
X54833Y-44595D02*
X58755Y-44595D01*
X29245Y-44675D02*
X32715Y-44675D01*
X34286Y-44675D02*
X42451Y-44675D01*
X44246Y-44675D02*
X44246Y-44675D01*
X44753Y-44675D02*
X44896Y-44675D01*
X44968Y-44675D02*
X48595Y-44675D01*
X51755Y-44675D02*
X52901Y-44675D01*
X54246Y-44675D02*
X54246Y-44675D01*
X54753Y-44675D02*
X54896Y-44675D01*
X54968Y-44675D02*
X58755Y-44675D01*
X29245Y-44755D02*
X32682Y-44755D01*
X34319Y-44755D02*
X42451Y-44755D01*
X44326Y-44755D02*
X44326Y-44755D01*
X44673Y-44755D02*
X44816Y-44755D01*
X45041Y-44755D02*
X48675Y-44755D01*
X51835Y-44755D02*
X52901Y-44755D01*
X54326Y-44755D02*
X54326Y-44755D01*
X54673Y-44755D02*
X54816Y-44755D01*
X55041Y-44755D02*
X58755Y-44755D01*
X29245Y-44835D02*
X32650Y-44835D01*
X34350Y-44835D02*
X42451Y-44835D01*
X44406Y-44835D02*
X44406Y-44835D01*
X44592Y-44835D02*
X44736Y-44835D01*
X45074Y-44835D02*
X48755Y-44835D01*
X51915Y-44835D02*
X52901Y-44835D01*
X54406Y-44835D02*
X54406Y-44835D01*
X54592Y-44835D02*
X54736Y-44835D01*
X55074Y-44835D02*
X58755Y-44835D01*
X29245Y-44915D02*
X32650Y-44915D01*
X34350Y-44915D02*
X42451Y-44915D01*
X44486Y-44915D02*
X44486Y-44915D01*
X44512Y-44915D02*
X44656Y-44915D01*
X45085Y-44915D02*
X48835Y-44915D01*
X51995Y-44915D02*
X52901Y-44915D01*
X54486Y-44915D02*
X54486Y-44915D01*
X54512Y-44915D02*
X54656Y-44915D01*
X55085Y-44915D02*
X58755Y-44915D01*
X29245Y-44995D02*
X32650Y-44995D01*
X34350Y-44995D02*
X42451Y-44995D01*
X44433Y-44995D02*
X44576Y-44995D01*
X45089Y-44995D02*
X48915Y-44995D01*
X52075Y-44995D02*
X52901Y-44995D01*
X54433Y-44995D02*
X54576Y-44995D01*
X55089Y-44995D02*
X58755Y-44995D01*
X29245Y-45075D02*
X32650Y-45075D01*
X34350Y-45075D02*
X42451Y-45075D01*
X44495Y-45075D02*
X44496Y-45075D01*
X44504Y-45075D02*
X44646Y-45075D01*
X45093Y-45075D02*
X48995Y-45075D01*
X52155Y-45075D02*
X52901Y-45075D01*
X54495Y-45075D02*
X54496Y-45075D01*
X54504Y-45075D02*
X54646Y-45075D01*
X55093Y-45075D02*
X58755Y-45075D01*
X29245Y-45155D02*
X32650Y-45155D01*
X34350Y-45155D02*
X37391Y-45155D01*
X44415Y-45155D02*
X44416Y-45155D01*
X44584Y-45155D02*
X44726Y-45155D01*
X45069Y-45155D02*
X49075Y-45155D01*
X52235Y-45155D02*
X52901Y-45155D01*
X54415Y-45155D02*
X54416Y-45155D01*
X54584Y-45155D02*
X54726Y-45155D01*
X55069Y-45155D02*
X58755Y-45155D01*
X29245Y-45235D02*
X32677Y-45235D01*
X34322Y-45235D02*
X37273Y-45235D01*
X44335Y-45235D02*
X44336Y-45235D01*
X44664Y-45235D02*
X44806Y-45235D01*
X45040Y-45235D02*
X49155Y-45235D01*
X52315Y-45235D02*
X52901Y-45235D01*
X54335Y-45235D02*
X54336Y-45235D01*
X54664Y-45235D02*
X54806Y-45235D01*
X55040Y-45235D02*
X58755Y-45235D01*
X29245Y-45315D02*
X32710Y-45315D01*
X34289Y-45315D02*
X37193Y-45315D01*
X44255Y-45315D02*
X44256Y-45315D01*
X44744Y-45315D02*
X44886Y-45315D01*
X44998Y-45315D02*
X49235Y-45315D01*
X52395Y-45315D02*
X52901Y-45315D01*
X54255Y-45315D02*
X54256Y-45315D01*
X54744Y-45315D02*
X54886Y-45315D01*
X54998Y-45315D02*
X58755Y-45315D01*
X29245Y-45395D02*
X32743Y-45395D01*
X34256Y-45395D02*
X37113Y-45395D01*
X44099Y-45395D02*
X44103Y-45395D01*
X44175Y-45395D02*
X44176Y-45395D01*
X44824Y-45395D02*
X49315Y-45395D01*
X52475Y-45395D02*
X52901Y-45395D01*
X54099Y-45395D02*
X54103Y-45395D01*
X54175Y-45395D02*
X54176Y-45395D01*
X54824Y-45395D02*
X58755Y-45395D01*
X29245Y-45475D02*
X32776Y-45475D01*
X34222Y-45475D02*
X37033Y-45475D01*
X44067Y-45475D02*
X44176Y-45475D01*
X44822Y-45475D02*
X49395Y-45475D01*
X52555Y-45475D02*
X52932Y-45475D01*
X54067Y-45475D02*
X54177Y-45475D01*
X54822Y-45475D02*
X58755Y-45475D01*
X29245Y-45555D02*
X32853Y-45555D01*
X34146Y-45555D02*
X36953Y-45555D01*
X43997Y-45555D02*
X44168Y-45555D01*
X44833Y-45555D02*
X49475Y-45555D01*
X52635Y-45555D02*
X53003Y-45555D01*
X53997Y-45555D02*
X54167Y-45555D01*
X54833Y-45555D02*
X58755Y-45555D01*
X29245Y-45635D02*
X32933Y-45635D01*
X34066Y-45635D02*
X36873Y-45635D01*
X43982Y-45635D02*
X44206Y-45635D01*
X44794Y-45635D02*
X49555Y-45635D01*
X52715Y-45635D02*
X53018Y-45635D01*
X53982Y-45635D02*
X54206Y-45635D01*
X54794Y-45635D02*
X58755Y-45635D01*
X29245Y-45715D02*
X33013Y-45715D01*
X33986Y-45715D02*
X36793Y-45715D01*
X44144Y-45715D02*
X44286Y-45715D01*
X44714Y-45715D02*
X44856Y-45715D01*
X45024Y-45715D02*
X49635Y-45715D01*
X52795Y-45715D02*
X52970Y-45715D01*
X54144Y-45715D02*
X54286Y-45715D01*
X54714Y-45715D02*
X54856Y-45715D01*
X55024Y-45715D02*
X58755Y-45715D01*
X29245Y-45795D02*
X33198Y-45795D01*
X33801Y-45795D02*
X36713Y-45795D01*
X44224Y-45795D02*
X44366Y-45795D01*
X44634Y-45795D02*
X44776Y-45795D01*
X45057Y-45795D02*
X49715Y-45795D01*
X52875Y-45795D02*
X52937Y-45795D01*
X54224Y-45795D02*
X54366Y-45795D01*
X54634Y-45795D02*
X54776Y-45795D01*
X55057Y-45795D02*
X58755Y-45795D01*
X29245Y-45875D02*
X36633Y-45875D01*
X44304Y-45875D02*
X44446Y-45875D01*
X44554Y-45875D02*
X44696Y-45875D01*
X45083Y-45875D02*
X49795Y-45875D01*
X54304Y-45875D02*
X54446Y-45875D01*
X54554Y-45875D02*
X54696Y-45875D01*
X55083Y-45875D02*
X58755Y-45875D01*
X29245Y-45955D02*
X36553Y-45955D01*
X37713Y-45955D02*
X42714Y-45955D01*
X44384Y-45955D02*
X44616Y-45955D01*
X45087Y-45955D02*
X49875Y-45955D01*
X54384Y-45955D02*
X54616Y-45955D01*
X55087Y-45955D02*
X58755Y-45955D01*
X29245Y-46035D02*
X36473Y-46035D01*
X37633Y-46035D02*
X42794Y-46035D01*
X44394Y-46035D02*
X44606Y-46035D01*
X45091Y-46035D02*
X49955Y-46035D01*
X54394Y-46035D02*
X54606Y-46035D01*
X55091Y-46035D02*
X58755Y-46035D01*
X29245Y-46115D02*
X36393Y-46115D01*
X37553Y-46115D02*
X42874Y-46115D01*
X44314Y-46115D02*
X44456Y-46115D01*
X44544Y-46115D02*
X44686Y-46115D01*
X45084Y-46115D02*
X50035Y-46115D01*
X54314Y-46115D02*
X54456Y-46115D01*
X54544Y-46115D02*
X54686Y-46115D01*
X55084Y-46115D02*
X58755Y-46115D01*
X29245Y-46195D02*
X36313Y-46195D01*
X37473Y-46195D02*
X42932Y-46195D01*
X44234Y-46195D02*
X44376Y-46195D01*
X44624Y-46195D02*
X44766Y-46195D01*
X45055Y-46195D02*
X50115Y-46195D01*
X54234Y-46195D02*
X54376Y-46195D01*
X54624Y-46195D02*
X54766Y-46195D01*
X55055Y-46195D02*
X58755Y-46195D01*
X29245Y-46275D02*
X36233Y-46275D01*
X37393Y-46275D02*
X42965Y-46275D01*
X44154Y-46275D02*
X44296Y-46275D01*
X44704Y-46275D02*
X44846Y-46275D01*
X45025Y-46275D02*
X50195Y-46275D01*
X54154Y-46275D02*
X54296Y-46275D01*
X54704Y-46275D02*
X54846Y-46275D01*
X55025Y-46275D02*
X58755Y-46275D01*
X29245Y-46355D02*
X36153Y-46355D01*
X37313Y-46355D02*
X43008Y-46355D01*
X43992Y-46355D02*
X44216Y-46355D01*
X44784Y-46355D02*
X50275Y-46355D01*
X53991Y-46355D02*
X54216Y-46355D01*
X54784Y-46355D02*
X58755Y-46355D01*
X29245Y-46435D02*
X35105Y-46435D01*
X35897Y-46435D02*
X36073Y-46435D01*
X37233Y-46435D02*
X43088Y-46435D01*
X43912Y-46435D02*
X44163Y-46435D01*
X44835Y-46435D02*
X50355Y-46435D01*
X53910Y-46435D02*
X54163Y-46435D01*
X54835Y-46435D02*
X58755Y-46435D01*
X29245Y-46515D02*
X34983Y-46515D01*
X37153Y-46515D02*
X43090Y-46515D01*
X43910Y-46515D02*
X44180Y-46515D01*
X44820Y-46515D02*
X50435Y-46515D01*
X53862Y-46515D02*
X54180Y-46515D01*
X54820Y-46515D02*
X58755Y-46515D01*
X29245Y-46595D02*
X34939Y-46595D01*
X37073Y-46595D02*
X43058Y-46595D01*
X43942Y-46595D02*
X44166Y-46595D01*
X44834Y-46595D02*
X50515Y-46595D01*
X53942Y-46595D02*
X54166Y-46595D01*
X54834Y-46595D02*
X58755Y-46595D01*
X29245Y-46675D02*
X34926Y-46675D01*
X36993Y-46675D02*
X42987Y-46675D01*
X44014Y-46675D02*
X44031Y-46675D01*
X44104Y-46675D02*
X44246Y-46675D01*
X44754Y-46675D02*
X44896Y-46675D01*
X44968Y-46675D02*
X50595Y-46675D01*
X54014Y-46675D02*
X54031Y-46675D01*
X54104Y-46675D02*
X54246Y-46675D01*
X54754Y-46675D02*
X54896Y-46675D01*
X54968Y-46675D02*
X58755Y-46675D01*
X29245Y-46755D02*
X34926Y-46755D01*
X36913Y-46755D02*
X42954Y-46755D01*
X44184Y-46755D02*
X44326Y-46755D01*
X44674Y-46755D02*
X44816Y-46755D01*
X45041Y-46755D02*
X50675Y-46755D01*
X54184Y-46755D02*
X54326Y-46755D01*
X54674Y-46755D02*
X54816Y-46755D01*
X55041Y-46755D02*
X58755Y-46755D01*
X29245Y-46835D02*
X34926Y-46835D01*
X36833Y-46835D02*
X42921Y-46835D01*
X44264Y-46835D02*
X44406Y-46835D01*
X44594Y-46835D02*
X44736Y-46835D01*
X45074Y-46835D02*
X50755Y-46835D01*
X54264Y-46835D02*
X54406Y-46835D01*
X54594Y-46835D02*
X54736Y-46835D01*
X55074Y-46835D02*
X58755Y-46835D01*
X29245Y-46915D02*
X34926Y-46915D01*
X36753Y-46915D02*
X42901Y-46915D01*
X44344Y-46915D02*
X44486Y-46915D01*
X44514Y-46915D02*
X44656Y-46915D01*
X45085Y-46915D02*
X50835Y-46915D01*
X54344Y-46915D02*
X54486Y-46915D01*
X54514Y-46915D02*
X54656Y-46915D01*
X55085Y-46915D02*
X58755Y-46915D01*
X29245Y-46995D02*
X34926Y-46995D01*
X36673Y-46995D02*
X42901Y-46995D01*
X44424Y-46995D02*
X44576Y-46995D01*
X45089Y-46995D02*
X50915Y-46995D01*
X54424Y-46995D02*
X54576Y-46995D01*
X55089Y-46995D02*
X58755Y-46995D01*
X29245Y-47075D02*
X34926Y-47075D01*
X36593Y-47075D02*
X42901Y-47075D01*
X44354Y-47075D02*
X44496Y-47075D01*
X44504Y-47075D02*
X44646Y-47075D01*
X45093Y-47075D02*
X50995Y-47075D01*
X54354Y-47075D02*
X54496Y-47075D01*
X54504Y-47075D02*
X54646Y-47075D01*
X55093Y-47075D02*
X58755Y-47075D01*
X29245Y-47155D02*
X34926Y-47155D01*
X36513Y-47155D02*
X42915Y-47155D01*
X44274Y-47155D02*
X44416Y-47155D01*
X44584Y-47155D02*
X44726Y-47155D01*
X45069Y-47155D02*
X51075Y-47155D01*
X54274Y-47155D02*
X54416Y-47155D01*
X54584Y-47155D02*
X54726Y-47155D01*
X55069Y-47155D02*
X58755Y-47155D01*
X29245Y-47235D02*
X34926Y-47235D01*
X36433Y-47235D02*
X42948Y-47235D01*
X44194Y-47235D02*
X44336Y-47235D01*
X44664Y-47235D02*
X44806Y-47235D01*
X45040Y-47235D02*
X51155Y-47235D01*
X54194Y-47235D02*
X54336Y-47235D01*
X54664Y-47235D02*
X54806Y-47235D01*
X55040Y-47235D02*
X58755Y-47235D01*
X29245Y-47315D02*
X34926Y-47315D01*
X36340Y-47315D02*
X42982Y-47315D01*
X44114Y-47315D02*
X44256Y-47315D01*
X44744Y-47315D02*
X44886Y-47315D01*
X44998Y-47315D02*
X51235Y-47315D01*
X54114Y-47315D02*
X54256Y-47315D01*
X54744Y-47315D02*
X54886Y-47315D01*
X54998Y-47315D02*
X58755Y-47315D01*
X29245Y-47395D02*
X34934Y-47395D01*
X36163Y-47395D02*
X43048Y-47395D01*
X43952Y-47395D02*
X44176Y-47395D01*
X44824Y-47395D02*
X51315Y-47395D01*
X53951Y-47395D02*
X54176Y-47395D01*
X54824Y-47395D02*
X58755Y-47395D01*
X29245Y-47475D02*
X34973Y-47475D01*
X36027Y-47475D02*
X43090Y-47475D01*
X43910Y-47475D02*
X44177Y-47475D01*
X44822Y-47475D02*
X51395Y-47475D01*
X53870Y-47475D02*
X54176Y-47475D01*
X54822Y-47475D02*
X58755Y-47475D01*
X29245Y-47555D02*
X35079Y-47555D01*
X35920Y-47555D02*
X43090Y-47555D01*
X43910Y-47555D02*
X44167Y-47555D01*
X44833Y-47555D02*
X51475Y-47555D01*
X53902Y-47555D02*
X54168Y-47555D01*
X54833Y-47555D02*
X58755Y-47555D01*
X29245Y-47635D02*
X35206Y-47635D01*
X35794Y-47635D02*
X43018Y-47635D01*
X43982Y-47635D02*
X44206Y-47635D01*
X44794Y-47635D02*
X51555Y-47635D01*
X53982Y-47635D02*
X54206Y-47635D01*
X54794Y-47635D02*
X58755Y-47635D01*
X29245Y-47715D02*
X35005Y-47715D01*
X35144Y-47715D02*
X35286Y-47715D01*
X35714Y-47715D02*
X35856Y-47715D01*
X35997Y-47715D02*
X42970Y-47715D01*
X44144Y-47715D02*
X44286Y-47715D01*
X44714Y-47715D02*
X44856Y-47715D01*
X45024Y-47715D02*
X51635Y-47715D01*
X54144Y-47715D02*
X54286Y-47715D01*
X54714Y-47715D02*
X54856Y-47715D01*
X55024Y-47715D02*
X58755Y-47715D01*
X29245Y-47795D02*
X34976Y-47795D01*
X35224Y-47795D02*
X35366Y-47795D01*
X35634Y-47795D02*
X35776Y-47795D01*
X36030Y-47795D02*
X42937Y-47795D01*
X44224Y-47795D02*
X44366Y-47795D01*
X44634Y-47795D02*
X44776Y-47795D01*
X45057Y-47795D02*
X51715Y-47795D01*
X54224Y-47795D02*
X54366Y-47795D01*
X54634Y-47795D02*
X54776Y-47795D01*
X55057Y-47795D02*
X58755Y-47795D01*
X29245Y-47875D02*
X34947Y-47875D01*
X35304Y-47875D02*
X35446Y-47875D01*
X35554Y-47875D02*
X35696Y-47875D01*
X36057Y-47875D02*
X42904Y-47875D01*
X44304Y-47875D02*
X44446Y-47875D01*
X44554Y-47875D02*
X44696Y-47875D01*
X45083Y-47875D02*
X51795Y-47875D01*
X54304Y-47875D02*
X54446Y-47875D01*
X54554Y-47875D02*
X54696Y-47875D01*
X55083Y-47875D02*
X58755Y-47875D01*
X29245Y-47955D02*
X34934Y-47955D01*
X35384Y-47955D02*
X35616Y-47955D01*
X36062Y-47955D02*
X42901Y-47955D01*
X44384Y-47955D02*
X44616Y-47955D01*
X45087Y-47955D02*
X51875Y-47955D01*
X54384Y-47955D02*
X54616Y-47955D01*
X55087Y-47955D02*
X58755Y-47955D01*
X29245Y-48035D02*
X34938Y-48035D01*
X35394Y-48035D02*
X35606Y-48035D01*
X36066Y-48035D02*
X42901Y-48035D01*
X44394Y-48035D02*
X44606Y-48035D01*
X45091Y-48035D02*
X51955Y-48035D01*
X54394Y-48035D02*
X54606Y-48035D01*
X55091Y-48035D02*
X58755Y-48035D01*
X29245Y-48115D02*
X34942Y-48115D01*
X35314Y-48115D02*
X35456Y-48115D01*
X35544Y-48115D02*
X35686Y-48115D01*
X36056Y-48115D02*
X42901Y-48115D01*
X44314Y-48115D02*
X44456Y-48115D01*
X44544Y-48115D02*
X44686Y-48115D01*
X45084Y-48115D02*
X52035Y-48115D01*
X54314Y-48115D02*
X54456Y-48115D01*
X54544Y-48115D02*
X54686Y-48115D01*
X55084Y-48115D02*
X58755Y-48115D01*
X29245Y-48195D02*
X33222Y-48195D01*
X33778Y-48195D02*
X34966Y-48195D01*
X35234Y-48195D02*
X35376Y-48195D01*
X35624Y-48195D02*
X35766Y-48195D01*
X36028Y-48195D02*
X37224Y-48195D01*
X37778Y-48195D02*
X42932Y-48195D01*
X44234Y-48195D02*
X44376Y-48195D01*
X44624Y-48195D02*
X44766Y-48195D01*
X45055Y-48195D02*
X52115Y-48195D01*
X54234Y-48195D02*
X54376Y-48195D01*
X54624Y-48195D02*
X54766Y-48195D01*
X55055Y-48195D02*
X58755Y-48195D01*
X29245Y-48275D02*
X33030Y-48275D01*
X33970Y-48275D02*
X34999Y-48275D01*
X35154Y-48275D02*
X35296Y-48275D01*
X35704Y-48275D02*
X35846Y-48275D01*
X35999Y-48275D02*
X37030Y-48275D01*
X37970Y-48275D02*
X42965Y-48275D01*
X44154Y-48275D02*
X44296Y-48275D01*
X44704Y-48275D02*
X44846Y-48275D01*
X45025Y-48275D02*
X52195Y-48275D01*
X54154Y-48275D02*
X54296Y-48275D01*
X54704Y-48275D02*
X54846Y-48275D01*
X55025Y-48275D02*
X58755Y-48275D01*
X29245Y-48355D02*
X32944Y-48355D01*
X34057Y-48355D02*
X35216Y-48355D01*
X35784Y-48355D02*
X36944Y-48355D01*
X38057Y-48355D02*
X43008Y-48355D01*
X43992Y-48355D02*
X44216Y-48355D01*
X44784Y-48355D02*
X52275Y-48355D01*
X53991Y-48355D02*
X54216Y-48355D01*
X54784Y-48355D02*
X58755Y-48355D01*
X29245Y-48435D02*
X32864Y-48435D01*
X34137Y-48435D02*
X35186Y-48435D01*
X35813Y-48435D02*
X36864Y-48435D01*
X38137Y-48435D02*
X43088Y-48435D01*
X43912Y-48435D02*
X44163Y-48435D01*
X44835Y-48435D02*
X52355Y-48435D01*
X53910Y-48435D02*
X54163Y-48435D01*
X54835Y-48435D02*
X58755Y-48435D01*
X29245Y-48515D02*
X32784Y-48515D01*
X34217Y-48515D02*
X35268Y-48515D01*
X35739Y-48515D02*
X36784Y-48515D01*
X38217Y-48515D02*
X43090Y-48515D01*
X43910Y-48515D02*
X44181Y-48515D01*
X44820Y-48515D02*
X52435Y-48515D01*
X53862Y-48515D02*
X54180Y-48515D01*
X54820Y-48515D02*
X58755Y-48515D01*
X29245Y-48595D02*
X32748Y-48595D01*
X34253Y-48595D02*
X36748Y-48595D01*
X38253Y-48595D02*
X43058Y-48595D01*
X43942Y-48595D02*
X44166Y-48595D01*
X44834Y-48595D02*
X52515Y-48595D01*
X53942Y-48595D02*
X54166Y-48595D01*
X54834Y-48595D02*
X58755Y-48595D01*
X29245Y-48675D02*
X32715Y-48675D01*
X34286Y-48675D02*
X36715Y-48675D01*
X38286Y-48675D02*
X42987Y-48675D01*
X44014Y-48675D02*
X44031Y-48675D01*
X44104Y-48675D02*
X44246Y-48675D01*
X44754Y-48675D02*
X44896Y-48675D01*
X44968Y-48675D02*
X52595Y-48675D01*
X54014Y-48675D02*
X54031Y-48675D01*
X54104Y-48675D02*
X54246Y-48675D01*
X54754Y-48675D02*
X54896Y-48675D01*
X54968Y-48675D02*
X58755Y-48675D01*
X29245Y-48755D02*
X32682Y-48755D01*
X34319Y-48755D02*
X36682Y-48755D01*
X38319Y-48755D02*
X42954Y-48755D01*
X44184Y-48755D02*
X44326Y-48755D01*
X44674Y-48755D02*
X44816Y-48755D01*
X45041Y-48755D02*
X52675Y-48755D01*
X54184Y-48755D02*
X54326Y-48755D01*
X54674Y-48755D02*
X54816Y-48755D01*
X55041Y-48755D02*
X58755Y-48755D01*
X29245Y-48835D02*
X32650Y-48835D01*
X34350Y-48835D02*
X36650Y-48835D01*
X38350Y-48835D02*
X42921Y-48835D01*
X44264Y-48835D02*
X44406Y-48835D01*
X44594Y-48835D02*
X44736Y-48835D01*
X45074Y-48835D02*
X52755Y-48835D01*
X54264Y-48835D02*
X54406Y-48835D01*
X54594Y-48835D02*
X54736Y-48835D01*
X55074Y-48835D02*
X58755Y-48835D01*
X29245Y-48915D02*
X32650Y-48915D01*
X34350Y-48915D02*
X36650Y-48915D01*
X38350Y-48915D02*
X42901Y-48915D01*
X44344Y-48915D02*
X44486Y-48915D01*
X44514Y-48915D02*
X44656Y-48915D01*
X45085Y-48915D02*
X52835Y-48915D01*
X54344Y-48915D02*
X54486Y-48915D01*
X54514Y-48915D02*
X54656Y-48915D01*
X55085Y-48915D02*
X58755Y-48915D01*
X29245Y-48995D02*
X32650Y-48995D01*
X34350Y-48995D02*
X36650Y-48995D01*
X38350Y-48995D02*
X42901Y-48995D01*
X44424Y-48995D02*
X44576Y-48995D01*
X45089Y-48995D02*
X52901Y-48995D01*
X54424Y-48995D02*
X54576Y-48995D01*
X55089Y-48995D02*
X58755Y-48995D01*
X29245Y-49075D02*
X32650Y-49075D01*
X34350Y-49075D02*
X36650Y-49075D01*
X38350Y-49075D02*
X42901Y-49075D01*
X44354Y-49075D02*
X44496Y-49075D01*
X44504Y-49075D02*
X44646Y-49075D01*
X45093Y-49075D02*
X52901Y-49075D01*
X54354Y-49075D02*
X54496Y-49075D01*
X54504Y-49075D02*
X54646Y-49075D01*
X55093Y-49075D02*
X58755Y-49075D01*
X29245Y-49155D02*
X32650Y-49155D01*
X34350Y-49155D02*
X36650Y-49155D01*
X38350Y-49155D02*
X42915Y-49155D01*
X44274Y-49155D02*
X44416Y-49155D01*
X44584Y-49155D02*
X44726Y-49155D01*
X45069Y-49155D02*
X52915Y-49155D01*
X54274Y-49155D02*
X54416Y-49155D01*
X54584Y-49155D02*
X54726Y-49155D01*
X55069Y-49155D02*
X58755Y-49155D01*
X29245Y-49235D02*
X32677Y-49235D01*
X34322Y-49235D02*
X36677Y-49235D01*
X38322Y-49235D02*
X42948Y-49235D01*
X44194Y-49235D02*
X44336Y-49235D01*
X44664Y-49235D02*
X44806Y-49235D01*
X45040Y-49235D02*
X52948Y-49235D01*
X54194Y-49235D02*
X54336Y-49235D01*
X54664Y-49235D02*
X54806Y-49235D01*
X55040Y-49235D02*
X58755Y-49235D01*
X29245Y-49315D02*
X32710Y-49315D01*
X34289Y-49315D02*
X36710Y-49315D01*
X38289Y-49315D02*
X42982Y-49315D01*
X44114Y-49315D02*
X44256Y-49315D01*
X44744Y-49315D02*
X44886Y-49315D01*
X44998Y-49315D02*
X52982Y-49315D01*
X54114Y-49315D02*
X54256Y-49315D01*
X54744Y-49315D02*
X54886Y-49315D01*
X54998Y-49315D02*
X58755Y-49315D01*
X29245Y-49395D02*
X32743Y-49395D01*
X34256Y-49395D02*
X36743Y-49395D01*
X38256Y-49395D02*
X43048Y-49395D01*
X43952Y-49395D02*
X44176Y-49395D01*
X44824Y-49395D02*
X53048Y-49395D01*
X53952Y-49395D02*
X54176Y-49395D01*
X54824Y-49395D02*
X58755Y-49395D01*
X29245Y-49475D02*
X32776Y-49475D01*
X34222Y-49475D02*
X36776Y-49475D01*
X38222Y-49475D02*
X43128Y-49475D01*
X43872Y-49475D02*
X44177Y-49475D01*
X44822Y-49475D02*
X53128Y-49475D01*
X53872Y-49475D02*
X54177Y-49475D01*
X54822Y-49475D02*
X58755Y-49475D01*
X29245Y-49555D02*
X32853Y-49555D01*
X34146Y-49555D02*
X36853Y-49555D01*
X38146Y-49555D02*
X43274Y-49555D01*
X43725Y-49555D02*
X44304Y-49555D01*
X44708Y-49555D02*
X53274Y-49555D01*
X53725Y-49555D02*
X54304Y-49555D01*
X54708Y-49555D02*
X58755Y-49555D01*
X29245Y-49635D02*
X32933Y-49635D01*
X34066Y-49635D02*
X36933Y-49635D01*
X38066Y-49635D02*
X58755Y-49635D01*
X29245Y-49715D02*
X33013Y-49715D01*
X33986Y-49715D02*
X37013Y-49715D01*
X37986Y-49715D02*
X58755Y-49715D01*
X29245Y-49795D02*
X33198Y-49795D01*
X33801Y-49795D02*
X37198Y-49795D01*
X37801Y-49795D02*
X58755Y-49795D01*
X29245Y-49875D02*
X58755Y-49875D01*
X29245Y-49955D02*
X58755Y-49955D01*
X29245Y-50035D02*
X58755Y-50035D01*
X29245Y-50115D02*
X58755Y-50115D01*
X29245Y-50195D02*
X58755Y-50195D01*
X29245Y-50275D02*
X58755Y-50275D01*
X29245Y-50355D02*
X58755Y-50355D01*
X29245Y-50435D02*
X58755Y-50435D01*
X29245Y-50515D02*
X58755Y-50515D01*
X29245Y-50595D02*
X58755Y-50595D01*
X29245Y-50675D02*
X58755Y-50675D01*
X29245Y-50755D02*
X58755Y-50755D01*
X29245Y-50835D02*
X58755Y-50835D01*
X29245Y-50915D02*
X58755Y-50915D01*
X29245Y-50995D02*
X58755Y-50995D01*
X29245Y-51075D02*
X58755Y-51075D01*
X29245Y-51155D02*
X29940Y-51155D01*
X30562Y-51155D02*
X38690Y-51155D01*
X39312Y-51155D02*
X48690Y-51155D01*
X49312Y-51155D02*
X57438Y-51155D01*
X58062Y-51155D02*
X58755Y-51155D01*
X29245Y-51235D02*
X29746Y-51235D01*
X30754Y-51235D02*
X38496Y-51235D01*
X39504Y-51235D02*
X48496Y-51235D01*
X49504Y-51235D02*
X57246Y-51235D01*
X58254Y-51235D02*
X58755Y-51235D01*
X29245Y-51315D02*
X29663Y-51315D01*
X30838Y-51315D02*
X38413Y-51315D01*
X39588Y-51315D02*
X48413Y-51315D01*
X49588Y-51315D02*
X57163Y-51315D01*
X58338Y-51315D02*
X58755Y-51315D01*
X29245Y-51395D02*
X29583Y-51395D01*
X30918Y-51395D02*
X38333Y-51395D01*
X39668Y-51395D02*
X48333Y-51395D01*
X49668Y-51395D02*
X57083Y-51395D01*
X58418Y-51395D02*
X58755Y-51395D01*
X29245Y-51475D02*
X29503Y-51475D01*
X30998Y-51475D02*
X38253Y-51475D01*
X39748Y-51475D02*
X48253Y-51475D01*
X49748Y-51475D02*
X57003Y-51475D01*
X58498Y-51475D02*
X58755Y-51475D01*
X29245Y-51555D02*
X29461Y-51555D01*
X31040Y-51555D02*
X38211Y-51555D01*
X39790Y-51555D02*
X48211Y-51555D01*
X49790Y-51555D02*
X56961Y-51555D01*
X58540Y-51555D02*
X58755Y-51555D01*
X29245Y-51635D02*
X29428Y-51635D01*
X31073Y-51635D02*
X38178Y-51635D01*
X39823Y-51635D02*
X48178Y-51635D01*
X49823Y-51635D02*
X56928Y-51635D01*
X58573Y-51635D02*
X58755Y-51635D01*
X29245Y-51715D02*
X29394Y-51715D01*
X31106Y-51715D02*
X38144Y-51715D01*
X39856Y-51715D02*
X48144Y-51715D01*
X49856Y-51715D02*
X56894Y-51715D01*
X58606Y-51715D02*
X58755Y-51715D01*
X29245Y-51795D02*
X29361Y-51795D01*
X31139Y-51795D02*
X38111Y-51795D01*
X39889Y-51795D02*
X48111Y-51795D01*
X49889Y-51795D02*
X56861Y-51795D01*
X58639Y-51795D02*
X58755Y-51795D01*
X29245Y-51875D02*
X29350Y-51875D01*
X31150Y-51875D02*
X38100Y-51875D01*
X39900Y-51875D02*
X48100Y-51875D01*
X49900Y-51875D02*
X56850Y-51875D01*
X58650Y-51875D02*
X58755Y-51875D01*
X29245Y-51955D02*
X29350Y-51955D01*
X31150Y-51955D02*
X38100Y-51955D01*
X39900Y-51955D02*
X48100Y-51955D01*
X49900Y-51955D02*
X56850Y-51955D01*
X58650Y-51955D02*
X58755Y-51955D01*
X29245Y-52035D02*
X29350Y-52035D01*
X31150Y-52035D02*
X38100Y-52035D01*
X39900Y-52035D02*
X48100Y-52035D01*
X49900Y-52035D02*
X56850Y-52035D01*
X58650Y-52035D02*
X58755Y-52035D01*
X29245Y-52115D02*
X29350Y-52115D01*
X31150Y-52115D02*
X38100Y-52115D01*
X39900Y-52115D02*
X48100Y-52115D01*
X49900Y-52115D02*
X56850Y-52115D01*
X58650Y-52115D02*
X58755Y-52115D01*
X29245Y-52195D02*
X29357Y-52195D01*
X31143Y-52195D02*
X38107Y-52195D01*
X39893Y-52195D02*
X48107Y-52195D01*
X49893Y-52195D02*
X56857Y-52195D01*
X58643Y-52195D02*
X58755Y-52195D01*
X29245Y-52275D02*
X29390Y-52275D01*
X31110Y-52275D02*
X38140Y-52275D01*
X39860Y-52275D02*
X48140Y-52275D01*
X49860Y-52275D02*
X56890Y-52275D01*
X58610Y-52275D02*
X58755Y-52275D01*
X29245Y-52355D02*
X29423Y-52355D01*
X31077Y-52355D02*
X38173Y-52355D01*
X39827Y-52355D02*
X48173Y-52355D01*
X49827Y-52355D02*
X56923Y-52355D01*
X58577Y-52355D02*
X58755Y-52355D01*
X29245Y-52435D02*
X29456Y-52435D01*
X31043Y-52435D02*
X38206Y-52435D01*
X39793Y-52435D02*
X48206Y-52435D01*
X49793Y-52435D02*
X56956Y-52435D01*
X58543Y-52435D02*
X58755Y-52435D01*
X29245Y-52515D02*
X29492Y-52515D01*
X31007Y-52515D02*
X38242Y-52515D01*
X39757Y-52515D02*
X48242Y-52515D01*
X49757Y-52515D02*
X56992Y-52515D01*
X58507Y-52515D02*
X58755Y-52515D01*
X29245Y-52595D02*
X29572Y-52595D01*
X30927Y-52595D02*
X38322Y-52595D01*
X39677Y-52595D02*
X48322Y-52595D01*
X49677Y-52595D02*
X57072Y-52595D01*
X58427Y-52595D02*
X58755Y-52595D01*
X29245Y-52675D02*
X29652Y-52675D01*
X30847Y-52675D02*
X38402Y-52675D01*
X39597Y-52675D02*
X48402Y-52675D01*
X49597Y-52675D02*
X57152Y-52675D01*
X58347Y-52675D02*
X58755Y-52675D01*
X29245Y-52755D02*
X29732Y-52755D01*
X30767Y-52755D02*
X38482Y-52755D01*
X39517Y-52755D02*
X48482Y-52755D01*
X49517Y-52755D02*
X57232Y-52755D01*
X58267Y-52755D02*
X58755Y-52755D01*
X29245Y-52835D02*
X29914Y-52835D01*
X30585Y-52835D02*
X38664Y-52835D01*
X39335Y-52835D02*
X48664Y-52835D01*
X49335Y-52835D02*
X57414Y-52835D01*
X58085Y-52835D02*
X58755Y-52835D01*
X29245Y-52915D02*
X58755Y-52915D01*
X29245Y-52995D02*
X58755Y-52995D01*
X58755Y-53005D02*
X58755Y-30995D01*
X29245Y-30995D01*
X29245Y-33667D01*
X29247Y-33663D01*
X29414Y-33496D01*
X29632Y-33406D01*
X29868Y-33406D01*
X30070Y-33489D01*
X30070Y-32900D01*
X29739Y-32762D01*
X29487Y-32509D01*
X29350Y-32178D01*
X29350Y-31820D01*
X29488Y-31489D01*
X29741Y-31237D01*
X30072Y-31100D01*
X30430Y-31100D01*
X30761Y-31238D01*
X31013Y-31491D01*
X31150Y-31822D01*
X31150Y-32180D01*
X31012Y-32511D01*
X30759Y-32763D01*
X30428Y-32900D01*
X30070Y-32900D01*
X30070Y-33489D01*
X30087Y-33497D01*
X30249Y-33659D01*
X30414Y-33496D01*
X30632Y-33406D01*
X30868Y-33406D01*
X31087Y-33497D01*
X31249Y-33659D01*
X31414Y-33496D01*
X31632Y-33406D01*
X31868Y-33406D01*
X32087Y-33497D01*
X32249Y-33659D01*
X32414Y-33496D01*
X32632Y-33406D01*
X32868Y-33406D01*
X33087Y-33497D01*
X33249Y-33659D01*
X33414Y-33496D01*
X33632Y-33406D01*
X33868Y-33406D01*
X34087Y-33497D01*
X34249Y-33659D01*
X34414Y-33496D01*
X34632Y-33406D01*
X34868Y-33406D01*
X35087Y-33497D01*
X35249Y-33659D01*
X35414Y-33496D01*
X35632Y-33406D01*
X35868Y-33406D01*
X36087Y-33497D01*
X36249Y-33659D01*
X36414Y-33496D01*
X36632Y-33406D01*
X36868Y-33406D01*
X37087Y-33497D01*
X37249Y-33659D01*
X37414Y-33496D01*
X37632Y-33406D01*
X37868Y-33406D01*
X38087Y-33497D01*
X38249Y-33659D01*
X38414Y-33496D01*
X38632Y-33406D01*
X38820Y-33406D01*
X38820Y-32900D01*
X38489Y-32762D01*
X38237Y-32509D01*
X38100Y-32178D01*
X38100Y-31820D01*
X38238Y-31489D01*
X38491Y-31237D01*
X38822Y-31100D01*
X39180Y-31100D01*
X39511Y-31238D01*
X39763Y-31491D01*
X39900Y-31822D01*
X39900Y-32180D01*
X39762Y-32511D01*
X39509Y-32763D01*
X39178Y-32900D01*
X38820Y-32900D01*
X38820Y-33406D01*
X38868Y-33406D01*
X39087Y-33497D01*
X39249Y-33659D01*
X39414Y-33496D01*
X39632Y-33406D01*
X39868Y-33406D01*
X40087Y-33497D01*
X40249Y-33659D01*
X40414Y-33496D01*
X40632Y-33406D01*
X40868Y-33406D01*
X41087Y-33497D01*
X41249Y-33659D01*
X41414Y-33496D01*
X41632Y-33406D01*
X41764Y-33406D01*
X42414Y-32755D01*
X42548Y-32666D01*
X42705Y-32635D01*
X48362Y-32635D01*
X48237Y-32509D01*
X48100Y-32178D01*
X48100Y-31820D01*
X48238Y-31489D01*
X48491Y-31237D01*
X48822Y-31100D01*
X49180Y-31100D01*
X49511Y-31238D01*
X49763Y-31491D01*
X49900Y-31822D01*
X49900Y-32180D01*
X49762Y-32511D01*
X49637Y-32635D01*
X50470Y-32635D01*
X50627Y-32666D01*
X50760Y-32755D01*
X52901Y-34896D01*
X52901Y-34600D01*
X52939Y-34509D01*
X53009Y-34439D01*
X53101Y-34401D01*
X53900Y-34401D01*
X53991Y-34439D01*
X54061Y-34509D01*
X54099Y-34601D01*
X54099Y-34609D01*
X54139Y-34569D01*
X54499Y-34928D01*
X54499Y-35070D01*
X54499Y-34928D01*
X54157Y-34586D01*
X54190Y-34487D01*
X54356Y-34418D01*
X54591Y-34407D01*
X54810Y-34487D01*
X54843Y-34586D01*
X54499Y-34928D01*
X54429Y-35000D01*
X54099Y-34669D01*
X54099Y-34670D01*
X54429Y-35000D01*
X54099Y-35330D01*
X54099Y-35330D01*
X54429Y-35000D01*
X54499Y-35070D01*
X54500Y-35071D01*
X54843Y-35414D01*
X54814Y-35500D01*
X54843Y-35586D01*
X54500Y-35929D01*
X54500Y-36071D01*
X54843Y-36414D01*
X54814Y-36500D01*
X54843Y-36586D01*
X54500Y-36929D01*
X54500Y-37071D01*
X54843Y-37414D01*
X54814Y-37499D01*
X54843Y-37586D01*
X54500Y-37929D01*
X54500Y-38071D01*
X54843Y-38414D01*
X54814Y-38499D01*
X54843Y-38586D01*
X54500Y-38929D01*
X54500Y-39071D01*
X54843Y-39414D01*
X54810Y-39513D01*
X54644Y-39582D01*
X54409Y-39593D01*
X54409Y-44415D01*
X54591Y-44407D01*
X54810Y-44487D01*
X54843Y-44586D01*
X54499Y-44928D01*
X54429Y-45000D01*
X54500Y-45071D01*
X54843Y-45414D01*
X54814Y-45499D01*
X54843Y-45586D01*
X54500Y-45929D01*
X54157Y-45586D01*
X54185Y-45499D01*
X54157Y-45414D01*
X54500Y-45071D01*
X54139Y-45431D01*
X54099Y-45391D01*
X54099Y-45400D01*
X54061Y-45491D01*
X53991Y-45561D01*
X53932Y-45585D01*
X54008Y-45661D01*
X54015Y-45680D01*
X54086Y-45657D01*
X54429Y-46000D01*
X54086Y-46343D01*
X54015Y-46319D01*
X54008Y-46339D01*
X53846Y-46499D01*
X54008Y-46661D01*
X54015Y-46680D01*
X54086Y-46657D01*
X54429Y-47000D01*
X54086Y-47343D01*
X54015Y-47319D01*
X54008Y-47339D01*
X53846Y-47499D01*
X54008Y-47661D01*
X54015Y-47680D01*
X54086Y-47657D01*
X54429Y-48000D01*
X54086Y-48343D01*
X54015Y-48319D01*
X54008Y-48339D01*
X53846Y-48499D01*
X54008Y-48661D01*
X54015Y-48680D01*
X54086Y-48657D01*
X54429Y-49000D01*
X54086Y-49343D01*
X54015Y-49319D01*
X54008Y-49339D01*
X53839Y-49508D01*
X53619Y-49599D01*
X53381Y-49599D01*
X53161Y-49508D01*
X52992Y-49339D01*
X52901Y-49119D01*
X52901Y-48981D01*
X46153Y-42233D01*
X46064Y-42100D01*
X46034Y-41948D01*
X43582Y-44401D01*
X43900Y-44401D01*
X43991Y-44439D01*
X44061Y-44509D01*
X44099Y-44601D01*
X44099Y-44609D01*
X44139Y-44569D01*
X44499Y-44928D01*
X44157Y-44586D01*
X44190Y-44487D01*
X44356Y-44418D01*
X44591Y-44407D01*
X44810Y-44487D01*
X44843Y-44586D01*
X44499Y-44928D01*
X44429Y-45000D01*
X44500Y-45071D01*
X44843Y-45414D01*
X44814Y-45499D01*
X44843Y-45586D01*
X44500Y-45929D01*
X44157Y-45586D01*
X44185Y-45500D01*
X44157Y-45414D01*
X44500Y-45071D01*
X44139Y-45431D01*
X44099Y-45391D01*
X44099Y-45400D01*
X44061Y-45491D01*
X43991Y-45561D01*
X43932Y-45585D01*
X44008Y-45661D01*
X44015Y-45680D01*
X44086Y-45657D01*
X44429Y-46000D01*
X44086Y-46343D01*
X44015Y-46319D01*
X44008Y-46339D01*
X43910Y-46437D01*
X43910Y-46563D01*
X44008Y-46661D01*
X44015Y-46680D01*
X44086Y-46657D01*
X44429Y-47000D01*
X44086Y-47343D01*
X44015Y-47319D01*
X44008Y-47339D01*
X43910Y-47437D01*
X43910Y-47563D01*
X44008Y-47661D01*
X44015Y-47680D01*
X44086Y-47657D01*
X44429Y-48000D01*
X44086Y-48343D01*
X44015Y-48319D01*
X44008Y-48339D01*
X43910Y-48437D01*
X43910Y-48563D01*
X44008Y-48661D01*
X44015Y-48680D01*
X44086Y-48657D01*
X44429Y-49000D01*
X44086Y-49343D01*
X44015Y-49319D01*
X44008Y-49339D01*
X43839Y-49508D01*
X43619Y-49599D01*
X43381Y-49599D01*
X43161Y-49508D01*
X42992Y-49339D01*
X42901Y-49119D01*
X42901Y-48881D01*
X42992Y-48661D01*
X43090Y-48563D01*
X43090Y-48437D01*
X42992Y-48339D01*
X42901Y-48119D01*
X42901Y-47881D01*
X42992Y-47661D01*
X43090Y-47563D01*
X43090Y-47437D01*
X42992Y-47339D01*
X42901Y-47119D01*
X42901Y-46881D01*
X42992Y-46661D01*
X43090Y-46563D01*
X43090Y-46437D01*
X42992Y-46339D01*
X42917Y-46158D01*
X42691Y-45932D01*
X37736Y-45932D01*
X36378Y-47290D01*
X36245Y-47379D01*
X36088Y-47410D01*
X36059Y-47410D01*
X36036Y-47466D01*
X35966Y-47536D01*
X35874Y-47574D01*
X35815Y-47574D01*
X35825Y-47604D01*
X35500Y-47929D01*
X35175Y-47604D01*
X35184Y-47574D01*
X35125Y-47574D01*
X35034Y-47536D01*
X34964Y-47466D01*
X34926Y-47374D01*
X34926Y-46625D01*
X34964Y-46534D01*
X35034Y-46464D01*
X35126Y-46426D01*
X35875Y-46426D01*
X35966Y-46464D01*
X36005Y-46503D01*
X37275Y-45232D01*
X37409Y-45143D01*
X37566Y-45112D01*
X42451Y-45112D01*
X42451Y-44543D01*
X42482Y-44386D01*
X42571Y-44253D01*
X45545Y-41279D01*
X45480Y-41266D01*
X45346Y-41176D01*
X44763Y-40593D01*
X44632Y-40594D01*
X44413Y-40503D01*
X44249Y-40339D01*
X44086Y-40504D01*
X43868Y-40594D01*
X43632Y-40594D01*
X43413Y-40503D01*
X43249Y-40339D01*
X43086Y-40504D01*
X42868Y-40594D01*
X42632Y-40594D01*
X42413Y-40503D01*
X42249Y-40339D01*
X42086Y-40504D01*
X41868Y-40594D01*
X41632Y-40594D01*
X41413Y-40503D01*
X41249Y-40339D01*
X41086Y-40504D01*
X40868Y-40594D01*
X40632Y-40594D01*
X40413Y-40503D01*
X40249Y-40339D01*
X40086Y-40504D01*
X39868Y-40594D01*
X39632Y-40594D01*
X39413Y-40503D01*
X39250Y-40340D01*
X39086Y-40504D01*
X38868Y-40594D01*
X38632Y-40594D01*
X38413Y-40503D01*
X38249Y-40339D01*
X38086Y-40504D01*
X37868Y-40594D01*
X37632Y-40594D01*
X37413Y-40503D01*
X37249Y-40339D01*
X37086Y-40504D01*
X36868Y-40594D01*
X36632Y-40594D01*
X36413Y-40503D01*
X36249Y-40339D01*
X36086Y-40504D01*
X35868Y-40594D01*
X35632Y-40594D01*
X35413Y-40503D01*
X35249Y-40339D01*
X35086Y-40504D01*
X34868Y-40594D01*
X34632Y-40594D01*
X34413Y-40503D01*
X34249Y-40339D01*
X34086Y-40504D01*
X33868Y-40594D01*
X33632Y-40594D01*
X33413Y-40503D01*
X33249Y-40339D01*
X33086Y-40504D01*
X32868Y-40594D01*
X32632Y-40594D01*
X32413Y-40503D01*
X32249Y-40339D01*
X32086Y-40504D01*
X31868Y-40594D01*
X31632Y-40594D01*
X31413Y-40503D01*
X31249Y-40339D01*
X31086Y-40504D01*
X30868Y-40594D01*
X30632Y-40594D01*
X30413Y-40503D01*
X30332Y-40422D01*
X30306Y-40486D01*
X30236Y-40556D01*
X30144Y-40594D01*
X29862Y-40595D01*
X29800Y-40533D01*
X29800Y-40050D01*
X29800Y-39950D01*
X29800Y-39467D01*
X29862Y-39405D01*
X30144Y-39406D01*
X30236Y-39444D01*
X30306Y-39514D01*
X30332Y-39577D01*
X30414Y-39496D01*
X30632Y-39406D01*
X30868Y-39406D01*
X31087Y-39497D01*
X31249Y-39659D01*
X31414Y-39496D01*
X31632Y-39406D01*
X31868Y-39406D01*
X32087Y-39497D01*
X32249Y-39659D01*
X32414Y-39496D01*
X32632Y-39406D01*
X32868Y-39406D01*
X33087Y-39497D01*
X33249Y-39659D01*
X33414Y-39496D01*
X33632Y-39406D01*
X33868Y-39406D01*
X34087Y-39497D01*
X34249Y-39659D01*
X34414Y-39496D01*
X34632Y-39406D01*
X34868Y-39406D01*
X35087Y-39497D01*
X35249Y-39659D01*
X35414Y-39496D01*
X35632Y-39406D01*
X35868Y-39406D01*
X36087Y-39497D01*
X36249Y-39659D01*
X36414Y-39496D01*
X36632Y-39406D01*
X36868Y-39406D01*
X37087Y-39497D01*
X37249Y-39659D01*
X37414Y-39496D01*
X37632Y-39406D01*
X37868Y-39406D01*
X38087Y-39497D01*
X38249Y-39659D01*
X38414Y-39496D01*
X38632Y-39406D01*
X38868Y-39406D01*
X39087Y-39497D01*
X39250Y-39660D01*
X39414Y-39496D01*
X39632Y-39406D01*
X39868Y-39406D01*
X40087Y-39497D01*
X40249Y-39659D01*
X40414Y-39496D01*
X40632Y-39406D01*
X40868Y-39406D01*
X41087Y-39497D01*
X41249Y-39659D01*
X41414Y-39496D01*
X41632Y-39406D01*
X41868Y-39406D01*
X42087Y-39497D01*
X42249Y-39659D01*
X42414Y-39496D01*
X42632Y-39406D01*
X42763Y-39406D01*
X43344Y-38826D01*
X43477Y-38737D01*
X43634Y-38706D01*
X48726Y-38706D01*
X48883Y-38737D01*
X49016Y-38826D01*
X49644Y-39455D01*
X49648Y-39458D01*
X49737Y-39591D01*
X49761Y-39715D01*
X49768Y-39747D01*
X49767Y-39747D01*
X49768Y-39748D01*
X49768Y-42688D01*
X52918Y-45839D01*
X52992Y-45661D01*
X53067Y-45585D01*
X53009Y-45561D01*
X52939Y-45491D01*
X52901Y-45399D01*
X52901Y-44600D01*
X52939Y-44509D01*
X53009Y-44439D01*
X53101Y-44401D01*
X53900Y-44401D01*
X53991Y-44439D01*
X54061Y-44509D01*
X54099Y-44601D01*
X54099Y-44609D01*
X54139Y-44569D01*
X54499Y-44928D01*
X54157Y-44586D01*
X54190Y-44487D01*
X54356Y-44418D01*
X54409Y-44415D01*
X54409Y-39593D01*
X54190Y-39513D01*
X54157Y-39414D01*
X54500Y-39071D01*
X54500Y-38929D01*
X54157Y-38586D01*
X54185Y-38499D01*
X54157Y-38414D01*
X54500Y-38071D01*
X54500Y-37929D01*
X54157Y-37586D01*
X54185Y-37499D01*
X54157Y-37414D01*
X54500Y-37071D01*
X54500Y-36929D01*
X54157Y-36586D01*
X54185Y-36499D01*
X54157Y-36414D01*
X54500Y-36071D01*
X54500Y-35929D01*
X54157Y-35586D01*
X54185Y-35500D01*
X54157Y-35414D01*
X54500Y-35071D01*
X54139Y-35431D01*
X54099Y-35391D01*
X54099Y-35400D01*
X54061Y-35491D01*
X53991Y-35561D01*
X53932Y-35585D01*
X54008Y-35661D01*
X54015Y-35680D01*
X54086Y-35657D01*
X54429Y-36000D01*
X54086Y-36343D01*
X54015Y-36319D01*
X54008Y-36339D01*
X53846Y-36499D01*
X54008Y-36661D01*
X54015Y-36680D01*
X54086Y-36657D01*
X54429Y-37000D01*
X54086Y-37343D01*
X54015Y-37319D01*
X54008Y-37339D01*
X53846Y-37499D01*
X54008Y-37661D01*
X54015Y-37680D01*
X54086Y-37657D01*
X54429Y-38000D01*
X54086Y-38343D01*
X54015Y-38319D01*
X54008Y-38339D01*
X53846Y-38499D01*
X54008Y-38661D01*
X54015Y-38680D01*
X54086Y-38657D01*
X54429Y-39000D01*
X54086Y-39343D01*
X54015Y-39319D01*
X54008Y-39339D01*
X53839Y-39508D01*
X53619Y-39599D01*
X53381Y-39599D01*
X53161Y-39508D01*
X52992Y-39339D01*
X52901Y-39119D01*
X52901Y-38881D01*
X52992Y-38661D01*
X53152Y-38499D01*
X53062Y-38410D01*
X47750Y-38410D01*
X47749Y-38409D01*
X47749Y-38410D01*
X47718Y-38403D01*
X47593Y-38379D01*
X47460Y-38290D01*
X43764Y-34594D01*
X43632Y-34594D01*
X43413Y-34503D01*
X43249Y-34339D01*
X43086Y-34504D01*
X42868Y-34594D01*
X42632Y-34594D01*
X42413Y-34503D01*
X42249Y-34339D01*
X42086Y-34504D01*
X41868Y-34594D01*
X41632Y-34594D01*
X41413Y-34503D01*
X41249Y-34339D01*
X41086Y-34504D01*
X40868Y-34594D01*
X40632Y-34594D01*
X40413Y-34503D01*
X40249Y-34339D01*
X40086Y-34504D01*
X39868Y-34594D01*
X39632Y-34594D01*
X39413Y-34503D01*
X39249Y-34339D01*
X39086Y-34504D01*
X38868Y-34594D01*
X38632Y-34594D01*
X38413Y-34503D01*
X38249Y-34339D01*
X38086Y-34504D01*
X37868Y-34594D01*
X37632Y-34594D01*
X37413Y-34503D01*
X37249Y-34339D01*
X37086Y-34504D01*
X36868Y-34594D01*
X36632Y-34594D01*
X36413Y-34503D01*
X36249Y-34339D01*
X36086Y-34504D01*
X35868Y-34594D01*
X35632Y-34594D01*
X35413Y-34503D01*
X35249Y-34339D01*
X35086Y-34504D01*
X34868Y-34594D01*
X34632Y-34594D01*
X34413Y-34503D01*
X34249Y-34339D01*
X34086Y-34504D01*
X33868Y-34594D01*
X33632Y-34594D01*
X33413Y-34503D01*
X33249Y-34339D01*
X33086Y-34504D01*
X32868Y-34594D01*
X32632Y-34594D01*
X32413Y-34503D01*
X32249Y-34339D01*
X32086Y-34504D01*
X31868Y-34594D01*
X31632Y-34594D01*
X31413Y-34503D01*
X31249Y-34339D01*
X31086Y-34504D01*
X30868Y-34594D01*
X30632Y-34594D01*
X30413Y-34503D01*
X30249Y-34339D01*
X30086Y-34504D01*
X29868Y-34594D01*
X29632Y-34594D01*
X29413Y-34503D01*
X29246Y-34336D01*
X29245Y-34333D01*
X29245Y-39463D01*
X29264Y-39444D01*
X29356Y-39406D01*
X29638Y-39405D01*
X29700Y-39467D01*
X29700Y-39950D01*
X29700Y-40050D01*
X29700Y-40533D01*
X29638Y-40595D01*
X29356Y-40594D01*
X29264Y-40556D01*
X29245Y-40537D01*
X29245Y-53005D01*
X30070Y-53005D01*
X30070Y-52900D01*
X29739Y-52762D01*
X29487Y-52509D01*
X29350Y-52178D01*
X29350Y-51820D01*
X29488Y-51489D01*
X29741Y-51237D01*
X30072Y-51100D01*
X30430Y-51100D01*
X30761Y-51238D01*
X31013Y-51491D01*
X31150Y-51822D01*
X31150Y-52180D01*
X31012Y-52511D01*
X30759Y-52763D01*
X30428Y-52900D01*
X30070Y-52900D01*
X30070Y-53005D01*
X33330Y-53005D01*
X33330Y-49850D01*
X33018Y-49720D01*
X32779Y-49480D01*
X32650Y-49168D01*
X32650Y-48830D01*
X32780Y-48518D01*
X33020Y-48279D01*
X33330Y-48150D01*
X33330Y-45850D01*
X33018Y-45720D01*
X32779Y-45480D01*
X32650Y-45168D01*
X32650Y-44830D01*
X32780Y-44518D01*
X33020Y-44279D01*
X33332Y-44150D01*
X33670Y-44150D01*
X33982Y-44280D01*
X34221Y-44520D01*
X34350Y-44832D01*
X34350Y-45170D01*
X34220Y-45482D01*
X33980Y-45721D01*
X33668Y-45850D01*
X33330Y-45850D01*
X33330Y-48150D01*
X33670Y-48150D01*
X33982Y-48280D01*
X34221Y-48520D01*
X34350Y-48832D01*
X34350Y-49170D01*
X34220Y-49482D01*
X33980Y-49721D01*
X33668Y-49850D01*
X33330Y-49850D01*
X33330Y-53005D01*
X35104Y-53005D01*
X35104Y-48325D01*
X35008Y-48296D01*
X34944Y-48139D01*
X34932Y-47916D01*
X35008Y-47704D01*
X35104Y-47675D01*
X35429Y-48000D01*
X35104Y-48325D01*
X35104Y-53005D01*
X35416Y-53005D01*
X35416Y-48568D01*
X35204Y-48492D01*
X35175Y-48396D01*
X35500Y-48071D01*
X35825Y-48396D01*
X35796Y-48492D01*
X35639Y-48556D01*
X35416Y-48568D01*
X35416Y-53005D01*
X35896Y-53005D01*
X35896Y-48325D01*
X35571Y-48000D01*
X35896Y-47675D01*
X35992Y-47704D01*
X36056Y-47861D01*
X36068Y-48084D01*
X35992Y-48296D01*
X35896Y-48325D01*
X35896Y-53005D01*
X37330Y-53005D01*
X37330Y-49850D01*
X37018Y-49720D01*
X36779Y-49480D01*
X36650Y-49168D01*
X36650Y-48830D01*
X36780Y-48518D01*
X37020Y-48279D01*
X37332Y-48150D01*
X37670Y-48150D01*
X37982Y-48280D01*
X38221Y-48520D01*
X38350Y-48832D01*
X38350Y-49170D01*
X38220Y-49482D01*
X37980Y-49721D01*
X37668Y-49850D01*
X37330Y-49850D01*
X37330Y-53005D01*
X38820Y-53005D01*
X38820Y-52900D01*
X38489Y-52762D01*
X38237Y-52509D01*
X38100Y-52178D01*
X38100Y-51820D01*
X38238Y-51489D01*
X38491Y-51237D01*
X38822Y-51100D01*
X39180Y-51100D01*
X39511Y-51238D01*
X39763Y-51491D01*
X39900Y-51822D01*
X39900Y-52180D01*
X39762Y-52511D01*
X39509Y-52763D01*
X39178Y-52900D01*
X38820Y-52900D01*
X38820Y-53005D01*
X44409Y-53005D01*
X44409Y-49593D01*
X44190Y-49513D01*
X44157Y-49414D01*
X44500Y-49071D01*
X44500Y-48929D01*
X44157Y-48586D01*
X44185Y-48500D01*
X44157Y-48414D01*
X44500Y-48071D01*
X44500Y-47929D01*
X44157Y-47586D01*
X44185Y-47499D01*
X44157Y-47414D01*
X44500Y-47071D01*
X44500Y-46929D01*
X44157Y-46586D01*
X44185Y-46499D01*
X44157Y-46414D01*
X44500Y-46071D01*
X44843Y-46414D01*
X44814Y-46500D01*
X44843Y-46586D01*
X44500Y-46929D01*
X44500Y-47071D01*
X44843Y-47414D01*
X44814Y-47499D01*
X44843Y-47586D01*
X44500Y-47929D01*
X44500Y-48071D01*
X44843Y-48414D01*
X44814Y-48499D01*
X44843Y-48586D01*
X44500Y-48929D01*
X44500Y-49071D01*
X44843Y-49414D01*
X44810Y-49513D01*
X44644Y-49582D01*
X44409Y-49593D01*
X44409Y-53005D01*
X44914Y-53005D01*
X44914Y-49343D01*
X44571Y-49000D01*
X44914Y-48657D01*
X44914Y-48343D01*
X44571Y-48000D01*
X44914Y-47657D01*
X44914Y-47343D01*
X44571Y-47000D01*
X44914Y-46657D01*
X44914Y-46343D01*
X44571Y-46000D01*
X44914Y-45657D01*
X44914Y-45343D01*
X44571Y-45000D01*
X44914Y-44657D01*
X45013Y-44690D01*
X45082Y-44856D01*
X45093Y-45091D01*
X45013Y-45310D01*
X44914Y-45343D01*
X44914Y-45657D01*
X45013Y-45690D01*
X45082Y-45856D01*
X45093Y-46091D01*
X45013Y-46310D01*
X44914Y-46343D01*
X44914Y-46657D01*
X45013Y-46690D01*
X45082Y-46856D01*
X45093Y-47091D01*
X45013Y-47310D01*
X44914Y-47343D01*
X44914Y-47657D01*
X45013Y-47690D01*
X45082Y-47856D01*
X45093Y-48091D01*
X45013Y-48310D01*
X44914Y-48343D01*
X44914Y-48657D01*
X45013Y-48690D01*
X45082Y-48856D01*
X45093Y-49091D01*
X45013Y-49310D01*
X44914Y-49343D01*
X44914Y-53005D01*
X48820Y-53005D01*
X48820Y-52900D01*
X48489Y-52762D01*
X48237Y-52509D01*
X48100Y-52178D01*
X48100Y-51820D01*
X48238Y-51489D01*
X48491Y-51237D01*
X48822Y-51100D01*
X49180Y-51100D01*
X49511Y-51238D01*
X49763Y-51491D01*
X49900Y-51822D01*
X49900Y-52180D01*
X49762Y-52511D01*
X49509Y-52763D01*
X49178Y-52900D01*
X48820Y-52900D01*
X48820Y-53005D01*
X53381Y-53005D01*
X53381Y-49599D01*
X53381Y-53005D01*
X54409Y-53005D01*
X54409Y-49593D01*
X54190Y-49513D01*
X54157Y-49414D01*
X54500Y-49071D01*
X54500Y-48929D01*
X54157Y-48586D01*
X54185Y-48499D01*
X54157Y-48414D01*
X54500Y-48071D01*
X54500Y-47929D01*
X54157Y-47586D01*
X54185Y-47500D01*
X54157Y-47414D01*
X54500Y-47071D01*
X54500Y-46929D01*
X54157Y-46586D01*
X54185Y-46499D01*
X54157Y-46414D01*
X54500Y-46071D01*
X54843Y-46414D01*
X54814Y-46499D01*
X54843Y-46586D01*
X54500Y-46929D01*
X54500Y-47071D01*
X54843Y-47414D01*
X54814Y-47500D01*
X54843Y-47586D01*
X54500Y-47929D01*
X54500Y-48071D01*
X54843Y-48414D01*
X54814Y-48500D01*
X54843Y-48586D01*
X54500Y-48929D01*
X54500Y-49071D01*
X54843Y-49414D01*
X54810Y-49513D01*
X54644Y-49582D01*
X54409Y-49593D01*
X54409Y-53005D01*
X54914Y-53005D01*
X54914Y-49343D01*
X54571Y-49000D01*
X54914Y-48657D01*
X54914Y-48343D01*
X54571Y-48000D01*
X54914Y-47657D01*
X54914Y-47343D01*
X54571Y-47000D01*
X54914Y-46657D01*
X54914Y-46343D01*
X54571Y-46000D01*
X54914Y-45657D01*
X54914Y-45343D01*
X54571Y-45000D01*
X54914Y-44657D01*
X54914Y-39343D01*
X54571Y-39000D01*
X54914Y-38657D01*
X54914Y-38343D01*
X54571Y-38000D01*
X54914Y-37657D01*
X54914Y-37343D01*
X54571Y-37000D01*
X54914Y-36657D01*
X54914Y-36343D01*
X54571Y-36000D01*
X54914Y-35657D01*
X54914Y-35343D01*
X54571Y-35000D01*
X54914Y-34657D01*
X55013Y-34690D01*
X55082Y-34856D01*
X55093Y-35091D01*
X55013Y-35310D01*
X54914Y-35343D01*
X54914Y-35657D01*
X55013Y-35690D01*
X55082Y-35856D01*
X55093Y-36091D01*
X55013Y-36310D01*
X54914Y-36343D01*
X54914Y-36657D01*
X55013Y-36690D01*
X55082Y-36856D01*
X55093Y-37091D01*
X55013Y-37310D01*
X54914Y-37343D01*
X54914Y-37657D01*
X55013Y-37690D01*
X55082Y-37856D01*
X55093Y-38091D01*
X55013Y-38310D01*
X54914Y-38343D01*
X54914Y-38657D01*
X55013Y-38690D01*
X55082Y-38856D01*
X55093Y-39091D01*
X55013Y-39310D01*
X54914Y-39343D01*
X54914Y-44657D01*
X55013Y-44690D01*
X55082Y-44856D01*
X55093Y-45091D01*
X55013Y-45310D01*
X54914Y-45343D01*
X54914Y-45657D01*
X55013Y-45690D01*
X55082Y-45856D01*
X55093Y-46091D01*
X55013Y-46310D01*
X54914Y-46343D01*
X54914Y-46657D01*
X55013Y-46690D01*
X55082Y-46856D01*
X55093Y-47091D01*
X55013Y-47310D01*
X54914Y-47343D01*
X54914Y-47657D01*
X55013Y-47690D01*
X55082Y-47856D01*
X55093Y-48091D01*
X55013Y-48310D01*
X54914Y-48343D01*
X54914Y-48657D01*
X55013Y-48690D01*
X55082Y-48856D01*
X55093Y-49091D01*
X55013Y-49310D01*
X54914Y-49343D01*
X54914Y-53005D01*
X57570Y-53005D01*
X57570Y-52900D01*
X57239Y-52762D01*
X56987Y-52509D01*
X56850Y-52178D01*
X56850Y-51820D01*
X56988Y-51489D01*
X57241Y-51237D01*
X57570Y-51100D01*
X57570Y-32900D01*
X57239Y-32762D01*
X56987Y-32509D01*
X56850Y-32178D01*
X56850Y-31820D01*
X56988Y-31489D01*
X57241Y-31237D01*
X57572Y-31100D01*
X57930Y-31100D01*
X58261Y-31238D01*
X58513Y-31491D01*
X58650Y-31822D01*
X58650Y-32180D01*
X58512Y-32511D01*
X58259Y-32763D01*
X57928Y-32900D01*
X57570Y-32900D01*
X57570Y-51100D01*
X57930Y-51100D01*
X58261Y-51238D01*
X58513Y-51491D01*
X58650Y-51822D01*
X58650Y-52180D01*
X58512Y-52511D01*
X58259Y-52763D01*
X57928Y-52900D01*
X57570Y-52900D01*
X57570Y-53005D01*
X58755Y-53005D01*
M02*
