G04 (created by PCBnew (20090216-final)) date Thu 28 Oct 2010 04:01:24 PM PDT*
G01*
G70*
G90*
%MOIN*%
G04 Gerber Fmt 3.4, Leading zero omitted, Abs format*
%FSLAX34Y34*%
G04 APERTURE LIST*
%ADD10C,0.009000*%
%ADD11C,0.120000*%
%ADD12R,0.065000X0.065000*%
%ADD13C,0.065000*%
%ADD14R,0.055000X0.055000*%
%ADD15C,0.055000*%
%ADD16C,0.049000*%
%ADD17R,0.070000X0.070000*%
%ADD18C,0.070000*%
%ADD19C,0.130000*%
%ADD20C,0.015000*%
%ADD21C,0.010000*%
%ADD22C,0.005000*%
%ADD23C,0.009000*%
%ADD24C,0.012000*%
%ADD25C,0.011300*%
%ADD26C,0.126000*%
%ADD27R,0.071000X0.071000*%
%ADD28C,0.071000*%
%ADD29R,0.061000X0.061000*%
%ADD30C,0.061000*%
%ADD31R,0.076000X0.076000*%
%ADD32C,0.076000*%
%ADD33C,0.136000*%
G04 APERTURE END LIST*
G54D10*
X38200Y-35550D02*
X38200Y-48050D01*
X78200Y-35550D02*
X38200Y-35550D01*
X78200Y-48050D02*
X78200Y-35550D01*
X38200Y-48050D02*
X78200Y-48050D01*
G54D26*
X75200Y-45550D03*
X71200Y-45550D03*
G54D27*
X73200Y-43550D03*
G54D28*
X74200Y-43550D03*
G54D26*
X75200Y-41550D03*
X65200Y-45550D03*
X61200Y-45550D03*
G54D27*
X63200Y-43550D03*
G54D28*
X64200Y-43550D03*
G54D26*
X65200Y-41550D03*
X55200Y-45550D03*
X51200Y-45550D03*
G54D27*
X53200Y-43550D03*
G54D28*
X54200Y-43550D03*
G54D26*
X55200Y-41550D03*
X45200Y-45550D03*
X41200Y-45550D03*
G54D27*
X43200Y-43550D03*
G54D28*
X44200Y-43550D03*
G54D26*
X45200Y-41550D03*
G54D29*
X56700Y-40800D03*
G54D30*
X56700Y-41800D03*
X56700Y-42800D03*
X56700Y-43800D03*
X56700Y-44800D03*
X56700Y-45800D03*
X56700Y-46800D03*
X59700Y-46800D03*
X59700Y-45800D03*
X59700Y-44800D03*
X59700Y-43800D03*
X59700Y-42800D03*
X59700Y-41800D03*
X59700Y-40800D03*
G54D15*
X52200Y-37050D03*
X52200Y-38050D03*
G54D31*
X56200Y-38050D03*
G54D32*
X56200Y-37050D03*
X57200Y-38050D03*
X57200Y-37050D03*
X58200Y-38050D03*
X58200Y-37050D03*
X59200Y-38050D03*
X59200Y-37050D03*
X60200Y-38050D03*
X60200Y-37050D03*
G54D33*
X48200Y-46800D03*
X48200Y-36800D03*
X68200Y-46800D03*
X68200Y-36800D03*
M02*
