G04 (created by PCBnew (20090216-final)) date Thu 28 Oct 2010 04:01:24 PM PDT*
G01*
G70*
G90*
%MOIN*%
G04 Gerber Fmt 3.4, Leading zero omitted, Abs format*
%FSLAX34Y34*%
G04 APERTURE LIST*
%ADD10C,0.009000*%
%ADD11C,0.120000*%
%ADD12R,0.065000X0.065000*%
%ADD13C,0.065000*%
%ADD14R,0.055000X0.055000*%
%ADD15C,0.055000*%
%ADD16C,0.049000*%
%ADD17R,0.070000X0.070000*%
%ADD18C,0.070000*%
%ADD19C,0.130000*%
%ADD20C,0.015000*%
%ADD21C,0.010000*%
%ADD22C,0.005000*%
G04 APERTURE END LIST*
G54D10*
X38200Y-35550D02*
X38200Y-48050D01*
X78200Y-35550D02*
X38200Y-35550D01*
X78200Y-48050D02*
X78200Y-35550D01*
X38200Y-48050D02*
X78200Y-48050D01*
G54D22*
X55850Y-38400D02*
X55850Y-37700D01*
X55850Y-37700D02*
X56550Y-37700D01*
X56550Y-37700D02*
X56550Y-38400D01*
X56550Y-38400D02*
X55850Y-38400D01*
X56550Y-37050D02*
X56543Y-37117D01*
X56543Y-37117D02*
X56523Y-37183D01*
X56523Y-37183D02*
X56491Y-37243D01*
X56491Y-37243D02*
X56448Y-37296D01*
X56448Y-37296D02*
X56395Y-37340D01*
X56395Y-37340D02*
X56335Y-37372D01*
X56335Y-37372D02*
X56270Y-37392D01*
X56270Y-37392D02*
X56202Y-37399D01*
X56202Y-37399D02*
X56135Y-37393D01*
X56135Y-37393D02*
X56069Y-37374D01*
X56069Y-37374D02*
X56009Y-37342D01*
X56009Y-37342D02*
X55956Y-37300D01*
X55956Y-37300D02*
X55912Y-37247D01*
X55912Y-37247D02*
X55879Y-37187D01*
X55879Y-37187D02*
X55858Y-37122D01*
X55858Y-37122D02*
X55851Y-37054D01*
X55851Y-37054D02*
X55856Y-36987D01*
X55856Y-36987D02*
X55875Y-36922D01*
X55875Y-36922D02*
X55906Y-36861D01*
X55906Y-36861D02*
X55949Y-36807D01*
X55949Y-36807D02*
X56001Y-36763D01*
X56001Y-36763D02*
X56060Y-36730D01*
X56060Y-36730D02*
X56125Y-36709D01*
X56125Y-36709D02*
X56193Y-36701D01*
X56193Y-36701D02*
X56260Y-36706D01*
X56260Y-36706D02*
X56326Y-36724D01*
X56326Y-36724D02*
X56387Y-36755D01*
X56387Y-36755D02*
X56441Y-36797D01*
X56441Y-36797D02*
X56486Y-36849D01*
X56486Y-36849D02*
X56519Y-36908D01*
X56519Y-36908D02*
X56541Y-36973D01*
X56541Y-36973D02*
X56549Y-37041D01*
X56549Y-37041D02*
X56550Y-37050D01*
X57550Y-38050D02*
X57543Y-38117D01*
X57543Y-38117D02*
X57523Y-38183D01*
X57523Y-38183D02*
X57491Y-38243D01*
X57491Y-38243D02*
X57448Y-38296D01*
X57448Y-38296D02*
X57395Y-38340D01*
X57395Y-38340D02*
X57335Y-38372D01*
X57335Y-38372D02*
X57270Y-38392D01*
X57270Y-38392D02*
X57202Y-38399D01*
X57202Y-38399D02*
X57135Y-38393D01*
X57135Y-38393D02*
X57069Y-38374D01*
X57069Y-38374D02*
X57009Y-38342D01*
X57009Y-38342D02*
X56956Y-38300D01*
X56956Y-38300D02*
X56912Y-38247D01*
X56912Y-38247D02*
X56879Y-38187D01*
X56879Y-38187D02*
X56858Y-38122D01*
X56858Y-38122D02*
X56851Y-38054D01*
X56851Y-38054D02*
X56856Y-37987D01*
X56856Y-37987D02*
X56875Y-37922D01*
X56875Y-37922D02*
X56906Y-37861D01*
X56906Y-37861D02*
X56949Y-37807D01*
X56949Y-37807D02*
X57001Y-37763D01*
X57001Y-37763D02*
X57060Y-37730D01*
X57060Y-37730D02*
X57125Y-37709D01*
X57125Y-37709D02*
X57193Y-37701D01*
X57193Y-37701D02*
X57260Y-37706D01*
X57260Y-37706D02*
X57326Y-37724D01*
X57326Y-37724D02*
X57387Y-37755D01*
X57387Y-37755D02*
X57441Y-37797D01*
X57441Y-37797D02*
X57486Y-37849D01*
X57486Y-37849D02*
X57519Y-37908D01*
X57519Y-37908D02*
X57541Y-37973D01*
X57541Y-37973D02*
X57549Y-38041D01*
X57549Y-38041D02*
X57550Y-38050D01*
X57550Y-37050D02*
X57543Y-37117D01*
X57543Y-37117D02*
X57523Y-37183D01*
X57523Y-37183D02*
X57491Y-37243D01*
X57491Y-37243D02*
X57448Y-37296D01*
X57448Y-37296D02*
X57395Y-37340D01*
X57395Y-37340D02*
X57335Y-37372D01*
X57335Y-37372D02*
X57270Y-37392D01*
X57270Y-37392D02*
X57202Y-37399D01*
X57202Y-37399D02*
X57135Y-37393D01*
X57135Y-37393D02*
X57069Y-37374D01*
X57069Y-37374D02*
X57009Y-37342D01*
X57009Y-37342D02*
X56956Y-37300D01*
X56956Y-37300D02*
X56912Y-37247D01*
X56912Y-37247D02*
X56879Y-37187D01*
X56879Y-37187D02*
X56858Y-37122D01*
X56858Y-37122D02*
X56851Y-37054D01*
X56851Y-37054D02*
X56856Y-36987D01*
X56856Y-36987D02*
X56875Y-36922D01*
X56875Y-36922D02*
X56906Y-36861D01*
X56906Y-36861D02*
X56949Y-36807D01*
X56949Y-36807D02*
X57001Y-36763D01*
X57001Y-36763D02*
X57060Y-36730D01*
X57060Y-36730D02*
X57125Y-36709D01*
X57125Y-36709D02*
X57193Y-36701D01*
X57193Y-36701D02*
X57260Y-36706D01*
X57260Y-36706D02*
X57326Y-36724D01*
X57326Y-36724D02*
X57387Y-36755D01*
X57387Y-36755D02*
X57441Y-36797D01*
X57441Y-36797D02*
X57486Y-36849D01*
X57486Y-36849D02*
X57519Y-36908D01*
X57519Y-36908D02*
X57541Y-36973D01*
X57541Y-36973D02*
X57549Y-37041D01*
X57549Y-37041D02*
X57550Y-37050D01*
X58550Y-38050D02*
X58543Y-38117D01*
X58543Y-38117D02*
X58523Y-38183D01*
X58523Y-38183D02*
X58491Y-38243D01*
X58491Y-38243D02*
X58448Y-38296D01*
X58448Y-38296D02*
X58395Y-38340D01*
X58395Y-38340D02*
X58335Y-38372D01*
X58335Y-38372D02*
X58270Y-38392D01*
X58270Y-38392D02*
X58202Y-38399D01*
X58202Y-38399D02*
X58135Y-38393D01*
X58135Y-38393D02*
X58069Y-38374D01*
X58069Y-38374D02*
X58009Y-38342D01*
X58009Y-38342D02*
X57956Y-38300D01*
X57956Y-38300D02*
X57912Y-38247D01*
X57912Y-38247D02*
X57879Y-38187D01*
X57879Y-38187D02*
X57858Y-38122D01*
X57858Y-38122D02*
X57851Y-38054D01*
X57851Y-38054D02*
X57856Y-37987D01*
X57856Y-37987D02*
X57875Y-37922D01*
X57875Y-37922D02*
X57906Y-37861D01*
X57906Y-37861D02*
X57949Y-37807D01*
X57949Y-37807D02*
X58001Y-37763D01*
X58001Y-37763D02*
X58060Y-37730D01*
X58060Y-37730D02*
X58125Y-37709D01*
X58125Y-37709D02*
X58193Y-37701D01*
X58193Y-37701D02*
X58260Y-37706D01*
X58260Y-37706D02*
X58326Y-37724D01*
X58326Y-37724D02*
X58387Y-37755D01*
X58387Y-37755D02*
X58441Y-37797D01*
X58441Y-37797D02*
X58486Y-37849D01*
X58486Y-37849D02*
X58519Y-37908D01*
X58519Y-37908D02*
X58541Y-37973D01*
X58541Y-37973D02*
X58549Y-38041D01*
X58549Y-38041D02*
X58550Y-38050D01*
X58550Y-37050D02*
X58543Y-37117D01*
X58543Y-37117D02*
X58523Y-37183D01*
X58523Y-37183D02*
X58491Y-37243D01*
X58491Y-37243D02*
X58448Y-37296D01*
X58448Y-37296D02*
X58395Y-37340D01*
X58395Y-37340D02*
X58335Y-37372D01*
X58335Y-37372D02*
X58270Y-37392D01*
X58270Y-37392D02*
X58202Y-37399D01*
X58202Y-37399D02*
X58135Y-37393D01*
X58135Y-37393D02*
X58069Y-37374D01*
X58069Y-37374D02*
X58009Y-37342D01*
X58009Y-37342D02*
X57956Y-37300D01*
X57956Y-37300D02*
X57912Y-37247D01*
X57912Y-37247D02*
X57879Y-37187D01*
X57879Y-37187D02*
X57858Y-37122D01*
X57858Y-37122D02*
X57851Y-37054D01*
X57851Y-37054D02*
X57856Y-36987D01*
X57856Y-36987D02*
X57875Y-36922D01*
X57875Y-36922D02*
X57906Y-36861D01*
X57906Y-36861D02*
X57949Y-36807D01*
X57949Y-36807D02*
X58001Y-36763D01*
X58001Y-36763D02*
X58060Y-36730D01*
X58060Y-36730D02*
X58125Y-36709D01*
X58125Y-36709D02*
X58193Y-36701D01*
X58193Y-36701D02*
X58260Y-36706D01*
X58260Y-36706D02*
X58326Y-36724D01*
X58326Y-36724D02*
X58387Y-36755D01*
X58387Y-36755D02*
X58441Y-36797D01*
X58441Y-36797D02*
X58486Y-36849D01*
X58486Y-36849D02*
X58519Y-36908D01*
X58519Y-36908D02*
X58541Y-36973D01*
X58541Y-36973D02*
X58549Y-37041D01*
X58549Y-37041D02*
X58550Y-37050D01*
X59550Y-38050D02*
X59543Y-38117D01*
X59543Y-38117D02*
X59523Y-38183D01*
X59523Y-38183D02*
X59491Y-38243D01*
X59491Y-38243D02*
X59448Y-38296D01*
X59448Y-38296D02*
X59395Y-38340D01*
X59395Y-38340D02*
X59335Y-38372D01*
X59335Y-38372D02*
X59270Y-38392D01*
X59270Y-38392D02*
X59202Y-38399D01*
X59202Y-38399D02*
X59135Y-38393D01*
X59135Y-38393D02*
X59069Y-38374D01*
X59069Y-38374D02*
X59009Y-38342D01*
X59009Y-38342D02*
X58956Y-38300D01*
X58956Y-38300D02*
X58912Y-38247D01*
X58912Y-38247D02*
X58879Y-38187D01*
X58879Y-38187D02*
X58858Y-38122D01*
X58858Y-38122D02*
X58851Y-38054D01*
X58851Y-38054D02*
X58856Y-37987D01*
X58856Y-37987D02*
X58875Y-37922D01*
X58875Y-37922D02*
X58906Y-37861D01*
X58906Y-37861D02*
X58949Y-37807D01*
X58949Y-37807D02*
X59001Y-37763D01*
X59001Y-37763D02*
X59060Y-37730D01*
X59060Y-37730D02*
X59125Y-37709D01*
X59125Y-37709D02*
X59193Y-37701D01*
X59193Y-37701D02*
X59260Y-37706D01*
X59260Y-37706D02*
X59326Y-37724D01*
X59326Y-37724D02*
X59387Y-37755D01*
X59387Y-37755D02*
X59441Y-37797D01*
X59441Y-37797D02*
X59486Y-37849D01*
X59486Y-37849D02*
X59519Y-37908D01*
X59519Y-37908D02*
X59541Y-37973D01*
X59541Y-37973D02*
X59549Y-38041D01*
X59549Y-38041D02*
X59550Y-38050D01*
X59550Y-37050D02*
X59543Y-37117D01*
X59543Y-37117D02*
X59523Y-37183D01*
X59523Y-37183D02*
X59491Y-37243D01*
X59491Y-37243D02*
X59448Y-37296D01*
X59448Y-37296D02*
X59395Y-37340D01*
X59395Y-37340D02*
X59335Y-37372D01*
X59335Y-37372D02*
X59270Y-37392D01*
X59270Y-37392D02*
X59202Y-37399D01*
X59202Y-37399D02*
X59135Y-37393D01*
X59135Y-37393D02*
X59069Y-37374D01*
X59069Y-37374D02*
X59009Y-37342D01*
X59009Y-37342D02*
X58956Y-37300D01*
X58956Y-37300D02*
X58912Y-37247D01*
X58912Y-37247D02*
X58879Y-37187D01*
X58879Y-37187D02*
X58858Y-37122D01*
X58858Y-37122D02*
X58851Y-37054D01*
X58851Y-37054D02*
X58856Y-36987D01*
X58856Y-36987D02*
X58875Y-36922D01*
X58875Y-36922D02*
X58906Y-36861D01*
X58906Y-36861D02*
X58949Y-36807D01*
X58949Y-36807D02*
X59001Y-36763D01*
X59001Y-36763D02*
X59060Y-36730D01*
X59060Y-36730D02*
X59125Y-36709D01*
X59125Y-36709D02*
X59193Y-36701D01*
X59193Y-36701D02*
X59260Y-36706D01*
X59260Y-36706D02*
X59326Y-36724D01*
X59326Y-36724D02*
X59387Y-36755D01*
X59387Y-36755D02*
X59441Y-36797D01*
X59441Y-36797D02*
X59486Y-36849D01*
X59486Y-36849D02*
X59519Y-36908D01*
X59519Y-36908D02*
X59541Y-36973D01*
X59541Y-36973D02*
X59549Y-37041D01*
X59549Y-37041D02*
X59550Y-37050D01*
X60550Y-38050D02*
X60543Y-38117D01*
X60543Y-38117D02*
X60523Y-38183D01*
X60523Y-38183D02*
X60491Y-38243D01*
X60491Y-38243D02*
X60448Y-38296D01*
X60448Y-38296D02*
X60395Y-38340D01*
X60395Y-38340D02*
X60335Y-38372D01*
X60335Y-38372D02*
X60270Y-38392D01*
X60270Y-38392D02*
X60202Y-38399D01*
X60202Y-38399D02*
X60135Y-38393D01*
X60135Y-38393D02*
X60069Y-38374D01*
X60069Y-38374D02*
X60009Y-38342D01*
X60009Y-38342D02*
X59956Y-38300D01*
X59956Y-38300D02*
X59912Y-38247D01*
X59912Y-38247D02*
X59879Y-38187D01*
X59879Y-38187D02*
X59858Y-38122D01*
X59858Y-38122D02*
X59851Y-38054D01*
X59851Y-38054D02*
X59856Y-37987D01*
X59856Y-37987D02*
X59875Y-37922D01*
X59875Y-37922D02*
X59906Y-37861D01*
X59906Y-37861D02*
X59949Y-37807D01*
X59949Y-37807D02*
X60001Y-37763D01*
X60001Y-37763D02*
X60060Y-37730D01*
X60060Y-37730D02*
X60125Y-37709D01*
X60125Y-37709D02*
X60193Y-37701D01*
X60193Y-37701D02*
X60260Y-37706D01*
X60260Y-37706D02*
X60326Y-37724D01*
X60326Y-37724D02*
X60387Y-37755D01*
X60387Y-37755D02*
X60441Y-37797D01*
X60441Y-37797D02*
X60486Y-37849D01*
X60486Y-37849D02*
X60519Y-37908D01*
X60519Y-37908D02*
X60541Y-37973D01*
X60541Y-37973D02*
X60549Y-38041D01*
X60549Y-38041D02*
X60550Y-38050D01*
X60550Y-37050D02*
X60543Y-37117D01*
X60543Y-37117D02*
X60523Y-37183D01*
X60523Y-37183D02*
X60491Y-37243D01*
X60491Y-37243D02*
X60448Y-37296D01*
X60448Y-37296D02*
X60395Y-37340D01*
X60395Y-37340D02*
X60335Y-37372D01*
X60335Y-37372D02*
X60270Y-37392D01*
X60270Y-37392D02*
X60202Y-37399D01*
X60202Y-37399D02*
X60135Y-37393D01*
X60135Y-37393D02*
X60069Y-37374D01*
X60069Y-37374D02*
X60009Y-37342D01*
X60009Y-37342D02*
X59956Y-37300D01*
X59956Y-37300D02*
X59912Y-37247D01*
X59912Y-37247D02*
X59879Y-37187D01*
X59879Y-37187D02*
X59858Y-37122D01*
X59858Y-37122D02*
X59851Y-37054D01*
X59851Y-37054D02*
X59856Y-36987D01*
X59856Y-36987D02*
X59875Y-36922D01*
X59875Y-36922D02*
X59906Y-36861D01*
X59906Y-36861D02*
X59949Y-36807D01*
X59949Y-36807D02*
X60001Y-36763D01*
X60001Y-36763D02*
X60060Y-36730D01*
X60060Y-36730D02*
X60125Y-36709D01*
X60125Y-36709D02*
X60193Y-36701D01*
X60193Y-36701D02*
X60260Y-36706D01*
X60260Y-36706D02*
X60326Y-36724D01*
X60326Y-36724D02*
X60387Y-36755D01*
X60387Y-36755D02*
X60441Y-36797D01*
X60441Y-36797D02*
X60486Y-36849D01*
X60486Y-36849D02*
X60519Y-36908D01*
X60519Y-36908D02*
X60541Y-36973D01*
X60541Y-36973D02*
X60549Y-37041D01*
X60549Y-37041D02*
X60550Y-37050D01*
X48850Y-46800D02*
X48837Y-46926D01*
X48837Y-46926D02*
X48800Y-47047D01*
X48800Y-47047D02*
X48741Y-47159D01*
X48741Y-47159D02*
X48661Y-47258D01*
X48661Y-47258D02*
X48563Y-47338D01*
X48563Y-47338D02*
X48451Y-47399D01*
X48451Y-47399D02*
X48330Y-47436D01*
X48330Y-47436D02*
X48204Y-47449D01*
X48204Y-47449D02*
X48079Y-47438D01*
X48079Y-47438D02*
X47957Y-47402D01*
X47957Y-47402D02*
X47845Y-47343D01*
X47845Y-47343D02*
X47746Y-47264D01*
X47746Y-47264D02*
X47664Y-47167D01*
X47664Y-47167D02*
X47603Y-47056D01*
X47603Y-47056D02*
X47565Y-46935D01*
X47565Y-46935D02*
X47551Y-46809D01*
X47551Y-46809D02*
X47561Y-46683D01*
X47561Y-46683D02*
X47596Y-46561D01*
X47596Y-46561D02*
X47654Y-46448D01*
X47654Y-46448D02*
X47733Y-46349D01*
X47733Y-46349D02*
X47830Y-46267D01*
X47830Y-46267D02*
X47940Y-46205D01*
X47940Y-46205D02*
X48061Y-46166D01*
X48061Y-46166D02*
X48187Y-46151D01*
X48187Y-46151D02*
X48312Y-46160D01*
X48312Y-46160D02*
X48435Y-46194D01*
X48435Y-46194D02*
X48548Y-46252D01*
X48548Y-46252D02*
X48648Y-46330D01*
X48648Y-46330D02*
X48731Y-46426D01*
X48731Y-46426D02*
X48793Y-46536D01*
X48793Y-46536D02*
X48833Y-46656D01*
X48833Y-46656D02*
X48849Y-46782D01*
X48849Y-46782D02*
X48850Y-46800D01*
X48850Y-36800D02*
X48837Y-36926D01*
X48837Y-36926D02*
X48800Y-37047D01*
X48800Y-37047D02*
X48741Y-37159D01*
X48741Y-37159D02*
X48661Y-37258D01*
X48661Y-37258D02*
X48563Y-37338D01*
X48563Y-37338D02*
X48451Y-37399D01*
X48451Y-37399D02*
X48330Y-37436D01*
X48330Y-37436D02*
X48204Y-37449D01*
X48204Y-37449D02*
X48079Y-37438D01*
X48079Y-37438D02*
X47957Y-37402D01*
X47957Y-37402D02*
X47845Y-37343D01*
X47845Y-37343D02*
X47746Y-37264D01*
X47746Y-37264D02*
X47664Y-37167D01*
X47664Y-37167D02*
X47603Y-37056D01*
X47603Y-37056D02*
X47565Y-36935D01*
X47565Y-36935D02*
X47551Y-36809D01*
X47551Y-36809D02*
X47561Y-36683D01*
X47561Y-36683D02*
X47596Y-36561D01*
X47596Y-36561D02*
X47654Y-36448D01*
X47654Y-36448D02*
X47733Y-36349D01*
X47733Y-36349D02*
X47830Y-36267D01*
X47830Y-36267D02*
X47940Y-36205D01*
X47940Y-36205D02*
X48061Y-36166D01*
X48061Y-36166D02*
X48187Y-36151D01*
X48187Y-36151D02*
X48312Y-36160D01*
X48312Y-36160D02*
X48435Y-36194D01*
X48435Y-36194D02*
X48548Y-36252D01*
X48548Y-36252D02*
X48648Y-36330D01*
X48648Y-36330D02*
X48731Y-36426D01*
X48731Y-36426D02*
X48793Y-36536D01*
X48793Y-36536D02*
X48833Y-36656D01*
X48833Y-36656D02*
X48849Y-36782D01*
X48849Y-36782D02*
X48850Y-36800D01*
X68850Y-46800D02*
X68837Y-46926D01*
X68837Y-46926D02*
X68800Y-47047D01*
X68800Y-47047D02*
X68741Y-47159D01*
X68741Y-47159D02*
X68661Y-47258D01*
X68661Y-47258D02*
X68563Y-47338D01*
X68563Y-47338D02*
X68451Y-47399D01*
X68451Y-47399D02*
X68330Y-47436D01*
X68330Y-47436D02*
X68204Y-47449D01*
X68204Y-47449D02*
X68079Y-47438D01*
X68079Y-47438D02*
X67957Y-47402D01*
X67957Y-47402D02*
X67845Y-47343D01*
X67845Y-47343D02*
X67746Y-47264D01*
X67746Y-47264D02*
X67664Y-47167D01*
X67664Y-47167D02*
X67603Y-47056D01*
X67603Y-47056D02*
X67565Y-46935D01*
X67565Y-46935D02*
X67551Y-46809D01*
X67551Y-46809D02*
X67561Y-46683D01*
X67561Y-46683D02*
X67596Y-46561D01*
X67596Y-46561D02*
X67654Y-46448D01*
X67654Y-46448D02*
X67733Y-46349D01*
X67733Y-46349D02*
X67830Y-46267D01*
X67830Y-46267D02*
X67940Y-46205D01*
X67940Y-46205D02*
X68061Y-46166D01*
X68061Y-46166D02*
X68187Y-46151D01*
X68187Y-46151D02*
X68312Y-46160D01*
X68312Y-46160D02*
X68435Y-46194D01*
X68435Y-46194D02*
X68548Y-46252D01*
X68548Y-46252D02*
X68648Y-46330D01*
X68648Y-46330D02*
X68731Y-46426D01*
X68731Y-46426D02*
X68793Y-46536D01*
X68793Y-46536D02*
X68833Y-46656D01*
X68833Y-46656D02*
X68849Y-46782D01*
X68849Y-46782D02*
X68850Y-46800D01*
X68850Y-36800D02*
X68837Y-36926D01*
X68837Y-36926D02*
X68800Y-37047D01*
X68800Y-37047D02*
X68741Y-37159D01*
X68741Y-37159D02*
X68661Y-37258D01*
X68661Y-37258D02*
X68563Y-37338D01*
X68563Y-37338D02*
X68451Y-37399D01*
X68451Y-37399D02*
X68330Y-37436D01*
X68330Y-37436D02*
X68204Y-37449D01*
X68204Y-37449D02*
X68079Y-37438D01*
X68079Y-37438D02*
X67957Y-37402D01*
X67957Y-37402D02*
X67845Y-37343D01*
X67845Y-37343D02*
X67746Y-37264D01*
X67746Y-37264D02*
X67664Y-37167D01*
X67664Y-37167D02*
X67603Y-37056D01*
X67603Y-37056D02*
X67565Y-36935D01*
X67565Y-36935D02*
X67551Y-36809D01*
X67551Y-36809D02*
X67561Y-36683D01*
X67561Y-36683D02*
X67596Y-36561D01*
X67596Y-36561D02*
X67654Y-36448D01*
X67654Y-36448D02*
X67733Y-36349D01*
X67733Y-36349D02*
X67830Y-36267D01*
X67830Y-36267D02*
X67940Y-36205D01*
X67940Y-36205D02*
X68061Y-36166D01*
X68061Y-36166D02*
X68187Y-36151D01*
X68187Y-36151D02*
X68312Y-36160D01*
X68312Y-36160D02*
X68435Y-36194D01*
X68435Y-36194D02*
X68548Y-36252D01*
X68548Y-36252D02*
X68648Y-36330D01*
X68648Y-36330D02*
X68731Y-36426D01*
X68731Y-36426D02*
X68793Y-36536D01*
X68793Y-36536D02*
X68833Y-36656D01*
X68833Y-36656D02*
X68849Y-36782D01*
X68849Y-36782D02*
X68850Y-36800D01*
M02*
