M48
;DRILL file {PCBnew (20090216-final)} date Thu 28 Oct 2010 04:01:29 PM PDT
;FORMAT={2:4/ absolute / inch / suppress trailing zeros}
R,T
VER,1
FMAT,2
INCH,LZ
TCST,OFF
ICI,OFF
ATC,ON
T1C0.029
T2C0.032
T3C0.035
T4C0.039
T5C0.079
T6C0.120
%
M47
G05
M72
T1
X0522Y-03705
X0522Y-03805
T2
X0567Y-0408
X0567Y-0418
X0567Y-0428
X0567Y-0438
X0567Y-0448
X0567Y-0458
X0567Y-0468
X0597Y-0408
X0597Y-0418
X0597Y-0428
X0597Y-0438
X0597Y-0448
X0597Y-0458
X0597Y-0468
T3
X0432Y-04355
X0442Y-04355
X0532Y-04355
X0542Y-04355
X0632Y-04355
X0642Y-04355
X0732Y-04355
X0742Y-04355
T4
X0562Y-03705
X0562Y-03805
X0572Y-03705
X0572Y-03805
X0582Y-03705
X0582Y-03805
X0592Y-03705
X0592Y-03805
X0602Y-03705
X0602Y-03805
T5
X0412Y-04555
X0452Y-04155
X0452Y-04555
X0512Y-04555
X0552Y-04155
X0552Y-04555
X0612Y-04555
X0652Y-04155
X0652Y-04555
X0712Y-04555
X0752Y-04155
X0752Y-04555
T6
X0482Y-0368
X0482Y-0468
X0682Y-0368
X0682Y-0468
T0
M30
