G04 (created by PCBnew (20090216-final)) date Thu 28 Oct 2010 04:01:24 PM PDT*
G01*
G70*
G90*
%MOIN*%
G04 Gerber Fmt 3.4, Leading zero omitted, Abs format*
%FSLAX34Y34*%
G04 APERTURE LIST*
%ADD10C,0.009000*%
%ADD11C,0.120000*%
%ADD12R,0.065000X0.065000*%
%ADD13C,0.065000*%
%ADD14R,0.055000X0.055000*%
%ADD15C,0.055000*%
%ADD16C,0.049000*%
%ADD17R,0.070000X0.070000*%
%ADD18C,0.070000*%
%ADD19C,0.130000*%
%ADD20C,0.015000*%
%ADD21C,0.010000*%
G04 APERTURE END LIST*
G54D10*
X38200Y-35550D02*
X38200Y-48050D01*
X78200Y-35550D02*
X38200Y-35550D01*
X78200Y-48050D02*
X78200Y-35550D01*
X38200Y-48050D02*
X78200Y-48050D01*
G54D11*
X75200Y-45550D03*
X71200Y-45550D03*
G54D12*
X73200Y-43550D03*
G54D13*
X74200Y-43550D03*
G54D11*
X75200Y-41550D03*
X65200Y-45550D03*
X61200Y-45550D03*
G54D12*
X63200Y-43550D03*
G54D13*
X64200Y-43550D03*
G54D11*
X65200Y-41550D03*
X55200Y-45550D03*
X51200Y-45550D03*
G54D12*
X53200Y-43550D03*
G54D13*
X54200Y-43550D03*
G54D11*
X55200Y-41550D03*
X45200Y-45550D03*
X41200Y-45550D03*
G54D12*
X43200Y-43550D03*
G54D13*
X44200Y-43550D03*
G54D11*
X45200Y-41550D03*
G54D14*
X56700Y-40800D03*
G54D15*
X56700Y-41800D03*
X56700Y-42800D03*
X56700Y-43800D03*
X56700Y-44800D03*
X56700Y-45800D03*
X56700Y-46800D03*
X59700Y-46800D03*
X59700Y-45800D03*
X59700Y-44800D03*
X59700Y-43800D03*
X59700Y-42800D03*
X59700Y-41800D03*
X59700Y-40800D03*
G54D16*
X52200Y-37050D03*
X52200Y-38050D03*
G54D17*
X56200Y-38050D03*
G54D18*
X56200Y-37050D03*
X57200Y-38050D03*
X57200Y-37050D03*
X58200Y-38050D03*
X58200Y-37050D03*
X59200Y-38050D03*
X59200Y-37050D03*
X60200Y-38050D03*
X60200Y-37050D03*
G54D19*
X48200Y-46800D03*
X48200Y-36800D03*
X68200Y-46800D03*
X68200Y-36800D03*
G54D20*
X73200Y-43550D02*
X65700Y-43550D01*
X61000Y-43800D02*
X59700Y-43800D01*
X62300Y-42500D02*
X61000Y-43800D01*
X64650Y-42500D02*
X62300Y-42500D01*
X65700Y-43550D02*
X64650Y-42500D01*
X63200Y-43550D02*
X63200Y-46100D01*
X62500Y-46800D02*
X59700Y-46800D01*
X63200Y-46100D02*
X62500Y-46800D01*
X53200Y-43550D02*
X53200Y-45400D01*
X56400Y-45800D02*
X56700Y-45800D01*
X55500Y-46700D02*
X56400Y-45800D01*
X54500Y-46700D02*
X55500Y-46700D01*
X53200Y-45400D02*
X54500Y-46700D01*
X56700Y-42800D02*
X54650Y-42800D01*
X43200Y-43000D02*
X43200Y-43550D01*
X43650Y-42550D02*
X43200Y-43000D01*
X54400Y-42550D02*
X43650Y-42550D01*
X54650Y-42800D02*
X54400Y-42550D01*
X59700Y-40800D02*
X59200Y-40800D01*
X56200Y-38800D02*
X56200Y-38050D01*
X56750Y-39350D02*
X56200Y-38800D01*
X57750Y-39350D02*
X56750Y-39350D01*
X59200Y-40800D02*
X57750Y-39350D01*
X56200Y-38050D02*
X54450Y-38050D01*
X53450Y-37050D02*
X52200Y-37050D01*
X54450Y-38050D02*
X53450Y-37050D01*
G54D21*
X38445Y-47795D02*
X77955Y-47795D01*
X38445Y-47715D02*
X77955Y-47715D01*
X68535Y-47635D02*
X77955Y-47635D01*
X48535Y-47635D02*
X67864Y-47635D01*
X38445Y-47635D02*
X47864Y-47635D01*
X68717Y-47555D02*
X77955Y-47555D01*
X48717Y-47555D02*
X67682Y-47555D01*
X38445Y-47555D02*
X47682Y-47555D01*
X68797Y-47475D02*
X77955Y-47475D01*
X48797Y-47475D02*
X67602Y-47475D01*
X38445Y-47475D02*
X47602Y-47475D01*
X68877Y-47395D02*
X77955Y-47395D01*
X48877Y-47395D02*
X67522Y-47395D01*
X38445Y-47395D02*
X47522Y-47395D01*
X68957Y-47315D02*
X77955Y-47315D01*
X59828Y-47315D02*
X67442Y-47315D01*
X56828Y-47315D02*
X59570Y-47315D01*
X48957Y-47315D02*
X56570Y-47315D01*
X38445Y-47315D02*
X47442Y-47315D01*
X68993Y-47235D02*
X77955Y-47235D01*
X60007Y-47235D02*
X67406Y-47235D01*
X57007Y-47235D02*
X59392Y-47235D01*
X48993Y-47235D02*
X56392Y-47235D01*
X38445Y-47235D02*
X47406Y-47235D01*
X69027Y-47155D02*
X77955Y-47155D01*
X60087Y-47155D02*
X67373Y-47155D01*
X57087Y-47155D02*
X59312Y-47155D01*
X49027Y-47155D02*
X56312Y-47155D01*
X38445Y-47155D02*
X47373Y-47155D01*
X69060Y-47075D02*
X77955Y-47075D01*
X62661Y-47075D02*
X67340Y-47075D01*
X57154Y-47075D02*
X59245Y-47075D01*
X49060Y-47075D02*
X56245Y-47075D01*
X38445Y-47075D02*
X47340Y-47075D01*
X69093Y-46995D02*
X77955Y-46995D01*
X62764Y-46995D02*
X67307Y-46995D01*
X57187Y-46995D02*
X59212Y-46995D01*
X55631Y-46995D02*
X56212Y-46995D01*
X49093Y-46995D02*
X54368Y-46995D01*
X38445Y-46995D02*
X47307Y-46995D01*
X69100Y-46915D02*
X77955Y-46915D01*
X62844Y-46915D02*
X67300Y-46915D01*
X57220Y-46915D02*
X59179Y-46915D01*
X55744Y-46915D02*
X56179Y-46915D01*
X49100Y-46915D02*
X54255Y-46915D01*
X38445Y-46915D02*
X47300Y-46915D01*
X69100Y-46835D02*
X77955Y-46835D01*
X62924Y-46835D02*
X67300Y-46835D01*
X57225Y-46835D02*
X59175Y-46835D01*
X55824Y-46835D02*
X56175Y-46835D01*
X49100Y-46835D02*
X54175Y-46835D01*
X38445Y-46835D02*
X47300Y-46835D01*
X69100Y-46755D02*
X77955Y-46755D01*
X63004Y-46755D02*
X67300Y-46755D01*
X57225Y-46755D02*
X59175Y-46755D01*
X55904Y-46755D02*
X56175Y-46755D01*
X49100Y-46755D02*
X54095Y-46755D01*
X38445Y-46755D02*
X47300Y-46755D01*
X69100Y-46675D02*
X77955Y-46675D01*
X63083Y-46675D02*
X67300Y-46675D01*
X57217Y-46675D02*
X59184Y-46675D01*
X55984Y-46675D02*
X56184Y-46675D01*
X49100Y-46675D02*
X54015Y-46675D01*
X38445Y-46675D02*
X47300Y-46675D01*
X69089Y-46595D02*
X77955Y-46595D01*
X63163Y-46595D02*
X67311Y-46595D01*
X57184Y-46595D02*
X59217Y-46595D01*
X56064Y-46595D02*
X56217Y-46595D01*
X49089Y-46595D02*
X53935Y-46595D01*
X38445Y-46595D02*
X47311Y-46595D01*
X69056Y-46515D02*
X77955Y-46515D01*
X63243Y-46515D02*
X67344Y-46515D01*
X57150Y-46515D02*
X59250Y-46515D01*
X56143Y-46515D02*
X56250Y-46515D01*
X49056Y-46515D02*
X53855Y-46515D01*
X38445Y-46515D02*
X47344Y-46515D01*
X69023Y-46435D02*
X77955Y-46435D01*
X63323Y-46435D02*
X67378Y-46435D01*
X60078Y-46435D02*
X62405Y-46435D01*
X57078Y-46435D02*
X59323Y-46435D01*
X56223Y-46435D02*
X56323Y-46435D01*
X49023Y-46435D02*
X53775Y-46435D01*
X38445Y-46435D02*
X47378Y-46435D01*
X75476Y-46355D02*
X77955Y-46355D01*
X71476Y-46355D02*
X74922Y-46355D01*
X68990Y-46355D02*
X70922Y-46355D01*
X65476Y-46355D02*
X67411Y-46355D01*
X63403Y-46355D02*
X64922Y-46355D01*
X61476Y-46355D02*
X62485Y-46355D01*
X59998Y-46355D02*
X60922Y-46355D01*
X56998Y-46355D02*
X59403Y-46355D01*
X56303Y-46355D02*
X56403Y-46355D01*
X51476Y-46355D02*
X53695Y-46355D01*
X48990Y-46355D02*
X50922Y-46355D01*
X45476Y-46355D02*
X47411Y-46355D01*
X41476Y-46355D02*
X44922Y-46355D01*
X38445Y-46355D02*
X40922Y-46355D01*
X75670Y-46275D02*
X77955Y-46275D01*
X71670Y-46275D02*
X74730Y-46275D01*
X68948Y-46275D02*
X70730Y-46275D01*
X65670Y-46275D02*
X67453Y-46275D01*
X63466Y-46275D02*
X64730Y-46275D01*
X61670Y-46275D02*
X62565Y-46275D01*
X59923Y-46275D02*
X60730Y-46275D01*
X56923Y-46275D02*
X59474Y-46275D01*
X56383Y-46275D02*
X56474Y-46275D01*
X51670Y-46275D02*
X53615Y-46275D01*
X48948Y-46275D02*
X50730Y-46275D01*
X45670Y-46275D02*
X47453Y-46275D01*
X41670Y-46275D02*
X44730Y-46275D01*
X38445Y-46275D02*
X40730Y-46275D01*
X75756Y-46195D02*
X77955Y-46195D01*
X71756Y-46195D02*
X74643Y-46195D01*
X68868Y-46195D02*
X70643Y-46195D01*
X65756Y-46195D02*
X67533Y-46195D01*
X63505Y-46195D02*
X64643Y-46195D01*
X61756Y-46195D02*
X62645Y-46195D01*
X60047Y-46195D02*
X60643Y-46195D01*
X57047Y-46195D02*
X59352Y-46195D01*
X51756Y-46195D02*
X53535Y-46195D01*
X48868Y-46195D02*
X50643Y-46195D01*
X45756Y-46195D02*
X47533Y-46195D01*
X41756Y-46195D02*
X44643Y-46195D01*
X38445Y-46195D02*
X40643Y-46195D01*
X75836Y-46115D02*
X77955Y-46115D01*
X71836Y-46115D02*
X74563Y-46115D01*
X68788Y-46115D02*
X70563Y-46115D01*
X65836Y-46115D02*
X67613Y-46115D01*
X63521Y-46115D02*
X64563Y-46115D01*
X61836Y-46115D02*
X62725Y-46115D01*
X60127Y-46115D02*
X60563Y-46115D01*
X57127Y-46115D02*
X59272Y-46115D01*
X51836Y-46115D02*
X53455Y-46115D01*
X48788Y-46115D02*
X50563Y-46115D01*
X45836Y-46115D02*
X47613Y-46115D01*
X41836Y-46115D02*
X44563Y-46115D01*
X38445Y-46115D02*
X40563Y-46115D01*
X75916Y-46035D02*
X77955Y-46035D01*
X71916Y-46035D02*
X74483Y-46035D01*
X68704Y-46035D02*
X70483Y-46035D01*
X65916Y-46035D02*
X67696Y-46035D01*
X63524Y-46035D02*
X64483Y-46035D01*
X61916Y-46035D02*
X62805Y-46035D01*
X60171Y-46035D02*
X60483Y-46035D01*
X57171Y-46035D02*
X59229Y-46035D01*
X51916Y-46035D02*
X53375Y-46035D01*
X48704Y-46035D02*
X50483Y-46035D01*
X45916Y-46035D02*
X47696Y-46035D01*
X41916Y-46035D02*
X44483Y-46035D01*
X38445Y-46035D02*
X40483Y-46035D01*
X75952Y-45955D02*
X77955Y-45955D01*
X71952Y-45955D02*
X74447Y-45955D01*
X68512Y-45955D02*
X70447Y-45955D01*
X65952Y-45955D02*
X67890Y-45955D01*
X63524Y-45955D02*
X64447Y-45955D01*
X61952Y-45955D02*
X62875Y-45955D01*
X60204Y-45955D02*
X60447Y-45955D01*
X57204Y-45955D02*
X59196Y-45955D01*
X51952Y-45955D02*
X53295Y-45955D01*
X48512Y-45955D02*
X50447Y-45955D01*
X45952Y-45955D02*
X47890Y-45955D01*
X41952Y-45955D02*
X44447Y-45955D01*
X38445Y-45955D02*
X40447Y-45955D01*
X75985Y-45875D02*
X77955Y-45875D01*
X71985Y-45875D02*
X74414Y-45875D01*
X65985Y-45875D02*
X70414Y-45875D01*
X63524Y-45875D02*
X64414Y-45875D01*
X61985Y-45875D02*
X62875Y-45875D01*
X60225Y-45875D02*
X60414Y-45875D01*
X57225Y-45875D02*
X59175Y-45875D01*
X51985Y-45875D02*
X53215Y-45875D01*
X45985Y-45875D02*
X50414Y-45875D01*
X41985Y-45875D02*
X44414Y-45875D01*
X38445Y-45875D02*
X40414Y-45875D01*
X76018Y-45795D02*
X77955Y-45795D01*
X72018Y-45795D02*
X74381Y-45795D01*
X66018Y-45795D02*
X70381Y-45795D01*
X63524Y-45795D02*
X64381Y-45795D01*
X62018Y-45795D02*
X62875Y-45795D01*
X60225Y-45795D02*
X60381Y-45795D01*
X57225Y-45795D02*
X59175Y-45795D01*
X52018Y-45795D02*
X53135Y-45795D01*
X46018Y-45795D02*
X50381Y-45795D01*
X42018Y-45795D02*
X44381Y-45795D01*
X38445Y-45795D02*
X40381Y-45795D01*
X76050Y-45715D02*
X77955Y-45715D01*
X72050Y-45715D02*
X74350Y-45715D01*
X66050Y-45715D02*
X70350Y-45715D01*
X63524Y-45715D02*
X64350Y-45715D01*
X62050Y-45715D02*
X62875Y-45715D01*
X60225Y-45715D02*
X60350Y-45715D01*
X57225Y-45715D02*
X59175Y-45715D01*
X52050Y-45715D02*
X53055Y-45715D01*
X46050Y-45715D02*
X50350Y-45715D01*
X42050Y-45715D02*
X44350Y-45715D01*
X38445Y-45715D02*
X40350Y-45715D01*
X76050Y-45635D02*
X77955Y-45635D01*
X72050Y-45635D02*
X74350Y-45635D01*
X66050Y-45635D02*
X70350Y-45635D01*
X63524Y-45635D02*
X64350Y-45635D01*
X62050Y-45635D02*
X62875Y-45635D01*
X60200Y-45635D02*
X60350Y-45635D01*
X57200Y-45635D02*
X59200Y-45635D01*
X52050Y-45635D02*
X52975Y-45635D01*
X46050Y-45635D02*
X50350Y-45635D01*
X42050Y-45635D02*
X44350Y-45635D01*
X38445Y-45635D02*
X40350Y-45635D01*
X76050Y-45555D02*
X77955Y-45555D01*
X72050Y-45555D02*
X74350Y-45555D01*
X66050Y-45555D02*
X70350Y-45555D01*
X63524Y-45555D02*
X64350Y-45555D01*
X62050Y-45555D02*
X62875Y-45555D01*
X60167Y-45555D02*
X60350Y-45555D01*
X57167Y-45555D02*
X59234Y-45555D01*
X52050Y-45555D02*
X52920Y-45555D01*
X46050Y-45555D02*
X50350Y-45555D01*
X42050Y-45555D02*
X44350Y-45555D01*
X38445Y-45555D02*
X40350Y-45555D01*
X76050Y-45475D02*
X77955Y-45475D01*
X72050Y-45475D02*
X74350Y-45475D01*
X66050Y-45475D02*
X70350Y-45475D01*
X63524Y-45475D02*
X64350Y-45475D01*
X62050Y-45475D02*
X62875Y-45475D01*
X60118Y-45475D02*
X60350Y-45475D01*
X57118Y-45475D02*
X59283Y-45475D01*
X52050Y-45475D02*
X52890Y-45475D01*
X46050Y-45475D02*
X50350Y-45475D01*
X42050Y-45475D02*
X44350Y-45475D01*
X38445Y-45475D02*
X40350Y-45475D01*
X76050Y-45395D02*
X77955Y-45395D01*
X72050Y-45395D02*
X74350Y-45395D01*
X66050Y-45395D02*
X70350Y-45395D01*
X63524Y-45395D02*
X64350Y-45395D01*
X62050Y-45395D02*
X62875Y-45395D01*
X60038Y-45395D02*
X60350Y-45395D01*
X57038Y-45395D02*
X59363Y-45395D01*
X52050Y-45395D02*
X52875Y-45395D01*
X46050Y-45395D02*
X50350Y-45395D01*
X42050Y-45395D02*
X44350Y-45395D01*
X38445Y-45395D02*
X40350Y-45395D01*
X76023Y-45315D02*
X77955Y-45315D01*
X72023Y-45315D02*
X74378Y-45315D01*
X66023Y-45315D02*
X70378Y-45315D01*
X63524Y-45315D02*
X64378Y-45315D01*
X62023Y-45315D02*
X62875Y-45315D01*
X59903Y-45315D02*
X60378Y-45315D01*
X56903Y-45315D02*
X59499Y-45315D01*
X52023Y-45315D02*
X52875Y-45315D01*
X46023Y-45315D02*
X50378Y-45315D01*
X42023Y-45315D02*
X44378Y-45315D01*
X38445Y-45315D02*
X40378Y-45315D01*
X75990Y-45235D02*
X77955Y-45235D01*
X71990Y-45235D02*
X74411Y-45235D01*
X65990Y-45235D02*
X70411Y-45235D01*
X63524Y-45235D02*
X64411Y-45235D01*
X61990Y-45235D02*
X62875Y-45235D01*
X60007Y-45235D02*
X60411Y-45235D01*
X57007Y-45235D02*
X59392Y-45235D01*
X51990Y-45235D02*
X52875Y-45235D01*
X45990Y-45235D02*
X50411Y-45235D01*
X41990Y-45235D02*
X44411Y-45235D01*
X38445Y-45235D02*
X40411Y-45235D01*
X75957Y-45155D02*
X77955Y-45155D01*
X71957Y-45155D02*
X74444Y-45155D01*
X65957Y-45155D02*
X70444Y-45155D01*
X63524Y-45155D02*
X64444Y-45155D01*
X61957Y-45155D02*
X62875Y-45155D01*
X60087Y-45155D02*
X60444Y-45155D01*
X57087Y-45155D02*
X59312Y-45155D01*
X51957Y-45155D02*
X52875Y-45155D01*
X45957Y-45155D02*
X50444Y-45155D01*
X41957Y-45155D02*
X44444Y-45155D01*
X38445Y-45155D02*
X40444Y-45155D01*
X75924Y-45075D02*
X77955Y-45075D01*
X71924Y-45075D02*
X74478Y-45075D01*
X65924Y-45075D02*
X70478Y-45075D01*
X63524Y-45075D02*
X64478Y-45075D01*
X61924Y-45075D02*
X62875Y-45075D01*
X60154Y-45075D02*
X60478Y-45075D01*
X57154Y-45075D02*
X59245Y-45075D01*
X51924Y-45075D02*
X52875Y-45075D01*
X45924Y-45075D02*
X50478Y-45075D01*
X41924Y-45075D02*
X44478Y-45075D01*
X38445Y-45075D02*
X40478Y-45075D01*
X75847Y-44995D02*
X77955Y-44995D01*
X71847Y-44995D02*
X74554Y-44995D01*
X65847Y-44995D02*
X70554Y-44995D01*
X63524Y-44995D02*
X64554Y-44995D01*
X61847Y-44995D02*
X62875Y-44995D01*
X60187Y-44995D02*
X60554Y-44995D01*
X57187Y-44995D02*
X59212Y-44995D01*
X51847Y-44995D02*
X52875Y-44995D01*
X45847Y-44995D02*
X50554Y-44995D01*
X41847Y-44995D02*
X44554Y-44995D01*
X38445Y-44995D02*
X40554Y-44995D01*
X75767Y-44915D02*
X77955Y-44915D01*
X71767Y-44915D02*
X74634Y-44915D01*
X65767Y-44915D02*
X70634Y-44915D01*
X63524Y-44915D02*
X64634Y-44915D01*
X61767Y-44915D02*
X62875Y-44915D01*
X60220Y-44915D02*
X60634Y-44915D01*
X57220Y-44915D02*
X59179Y-44915D01*
X51767Y-44915D02*
X52875Y-44915D01*
X45767Y-44915D02*
X50634Y-44915D01*
X41767Y-44915D02*
X44634Y-44915D01*
X38445Y-44915D02*
X40634Y-44915D01*
X75687Y-44835D02*
X77955Y-44835D01*
X71687Y-44835D02*
X74714Y-44835D01*
X65687Y-44835D02*
X70714Y-44835D01*
X63524Y-44835D02*
X64714Y-44835D01*
X61687Y-44835D02*
X62875Y-44835D01*
X60225Y-44835D02*
X60714Y-44835D01*
X57225Y-44835D02*
X59175Y-44835D01*
X51687Y-44835D02*
X52875Y-44835D01*
X45687Y-44835D02*
X50714Y-44835D01*
X41687Y-44835D02*
X44714Y-44835D01*
X38445Y-44835D02*
X40714Y-44835D01*
X75502Y-44755D02*
X77955Y-44755D01*
X71502Y-44755D02*
X74898Y-44755D01*
X65502Y-44755D02*
X70899Y-44755D01*
X63524Y-44755D02*
X64899Y-44755D01*
X61502Y-44755D02*
X62875Y-44755D01*
X60225Y-44755D02*
X60899Y-44755D01*
X57225Y-44755D02*
X59175Y-44755D01*
X51502Y-44755D02*
X52875Y-44755D01*
X45502Y-44755D02*
X50899Y-44755D01*
X41502Y-44755D02*
X44899Y-44755D01*
X38445Y-44755D02*
X40899Y-44755D01*
X63524Y-44675D02*
X77955Y-44675D01*
X60217Y-44675D02*
X62875Y-44675D01*
X57217Y-44675D02*
X59184Y-44675D01*
X38445Y-44675D02*
X52875Y-44675D01*
X63524Y-44595D02*
X77955Y-44595D01*
X60184Y-44595D02*
X62875Y-44595D01*
X57184Y-44595D02*
X59217Y-44595D01*
X38445Y-44595D02*
X52875Y-44595D01*
X63524Y-44515D02*
X77955Y-44515D01*
X60150Y-44515D02*
X62875Y-44515D01*
X57150Y-44515D02*
X59250Y-44515D01*
X38445Y-44515D02*
X52875Y-44515D01*
X63524Y-44435D02*
X77955Y-44435D01*
X60078Y-44435D02*
X62875Y-44435D01*
X57078Y-44435D02*
X59323Y-44435D01*
X38445Y-44435D02*
X52875Y-44435D01*
X63524Y-44355D02*
X77955Y-44355D01*
X59998Y-44355D02*
X62875Y-44355D01*
X56998Y-44355D02*
X59403Y-44355D01*
X38445Y-44355D02*
X52875Y-44355D01*
X63524Y-44275D02*
X77955Y-44275D01*
X59923Y-44275D02*
X62875Y-44275D01*
X56923Y-44275D02*
X59474Y-44275D01*
X38445Y-44275D02*
X52875Y-44275D01*
X63524Y-44195D02*
X77955Y-44195D01*
X60047Y-44195D02*
X62875Y-44195D01*
X57047Y-44195D02*
X59352Y-44195D01*
X38445Y-44195D02*
X52875Y-44195D01*
X74338Y-44115D02*
X77955Y-44115D01*
X73595Y-44115D02*
X74061Y-44115D01*
X64338Y-44115D02*
X72803Y-44115D01*
X63595Y-44115D02*
X64061Y-44115D01*
X61049Y-44115D02*
X62803Y-44115D01*
X57127Y-44115D02*
X59272Y-44115D01*
X44338Y-44115D02*
X52803Y-44115D01*
X43595Y-44115D02*
X44061Y-44115D01*
X38445Y-44115D02*
X42803Y-44115D01*
X74528Y-44035D02*
X77955Y-44035D01*
X73717Y-44035D02*
X73872Y-44035D01*
X64528Y-44035D02*
X72683Y-44035D01*
X63717Y-44035D02*
X63872Y-44035D01*
X61222Y-44035D02*
X62683Y-44035D01*
X57171Y-44035D02*
X59229Y-44035D01*
X44528Y-44035D02*
X52683Y-44035D01*
X43717Y-44035D02*
X43872Y-44035D01*
X38445Y-44035D02*
X42683Y-44035D01*
X74608Y-43955D02*
X77955Y-43955D01*
X73760Y-43955D02*
X73792Y-43955D01*
X64608Y-43955D02*
X72638Y-43955D01*
X63760Y-43955D02*
X63792Y-43955D01*
X61304Y-43955D02*
X62638Y-43955D01*
X57204Y-43955D02*
X59196Y-43955D01*
X44608Y-43955D02*
X52638Y-43955D01*
X43760Y-43955D02*
X43792Y-43955D01*
X38445Y-43955D02*
X42638Y-43955D01*
X74687Y-43875D02*
X77955Y-43875D01*
X64687Y-43875D02*
X72626Y-43875D01*
X61384Y-43875D02*
X62626Y-43875D01*
X57225Y-43875D02*
X59175Y-43875D01*
X44687Y-43875D02*
X52626Y-43875D01*
X38445Y-43875D02*
X42626Y-43875D01*
X74720Y-43795D02*
X77955Y-43795D01*
X64720Y-43795D02*
X65492Y-43795D01*
X61464Y-43795D02*
X62626Y-43795D01*
X57225Y-43795D02*
X59175Y-43795D01*
X44720Y-43795D02*
X52626Y-43795D01*
X38445Y-43795D02*
X42626Y-43795D01*
X74754Y-43715D02*
X77955Y-43715D01*
X64754Y-43715D02*
X65405Y-43715D01*
X61544Y-43715D02*
X62626Y-43715D01*
X57225Y-43715D02*
X59175Y-43715D01*
X44754Y-43715D02*
X52626Y-43715D01*
X38445Y-43715D02*
X42626Y-43715D01*
X74775Y-43635D02*
X77955Y-43635D01*
X64775Y-43635D02*
X65325Y-43635D01*
X61624Y-43635D02*
X62626Y-43635D01*
X57200Y-43635D02*
X59200Y-43635D01*
X44775Y-43635D02*
X52626Y-43635D01*
X38445Y-43635D02*
X42626Y-43635D01*
X74775Y-43555D02*
X77955Y-43555D01*
X64775Y-43555D02*
X65245Y-43555D01*
X61704Y-43555D02*
X62626Y-43555D01*
X57167Y-43555D02*
X59234Y-43555D01*
X44775Y-43555D02*
X52626Y-43555D01*
X38445Y-43555D02*
X42626Y-43555D01*
X74775Y-43475D02*
X77955Y-43475D01*
X64775Y-43475D02*
X65165Y-43475D01*
X61784Y-43475D02*
X62626Y-43475D01*
X57118Y-43475D02*
X59283Y-43475D01*
X44775Y-43475D02*
X52626Y-43475D01*
X38445Y-43475D02*
X42626Y-43475D01*
X74759Y-43395D02*
X77955Y-43395D01*
X64759Y-43395D02*
X65085Y-43395D01*
X61863Y-43395D02*
X62626Y-43395D01*
X60038Y-43395D02*
X60945Y-43395D01*
X57038Y-43395D02*
X59363Y-43395D01*
X44759Y-43395D02*
X52626Y-43395D01*
X38445Y-43395D02*
X42626Y-43395D01*
X74726Y-43315D02*
X77955Y-43315D01*
X64726Y-43315D02*
X65005Y-43315D01*
X61943Y-43315D02*
X62626Y-43315D01*
X59903Y-43315D02*
X61025Y-43315D01*
X56903Y-43315D02*
X59499Y-43315D01*
X44726Y-43315D02*
X52626Y-43315D01*
X38445Y-43315D02*
X42626Y-43315D01*
X74693Y-43235D02*
X77955Y-43235D01*
X64693Y-43235D02*
X64925Y-43235D01*
X62023Y-43235D02*
X62626Y-43235D01*
X60007Y-43235D02*
X61105Y-43235D01*
X57007Y-43235D02*
X59392Y-43235D01*
X44693Y-43235D02*
X52626Y-43235D01*
X38445Y-43235D02*
X42626Y-43235D01*
X74618Y-43155D02*
X77955Y-43155D01*
X73766Y-43155D02*
X73782Y-43155D01*
X65765Y-43155D02*
X72635Y-43155D01*
X64618Y-43155D02*
X64845Y-43155D01*
X63766Y-43155D02*
X63782Y-43155D01*
X62103Y-43155D02*
X62635Y-43155D01*
X60087Y-43155D02*
X61185Y-43155D01*
X57087Y-43155D02*
X59312Y-43155D01*
X53766Y-43155D02*
X53782Y-43155D01*
X44618Y-43155D02*
X52635Y-43155D01*
X43766Y-43155D02*
X43782Y-43155D01*
X38445Y-43155D02*
X42635Y-43155D01*
X74538Y-43075D02*
X77955Y-43075D01*
X73727Y-43075D02*
X73862Y-43075D01*
X65685Y-43075D02*
X72673Y-43075D01*
X64538Y-43075D02*
X64765Y-43075D01*
X63727Y-43075D02*
X63862Y-43075D01*
X62183Y-43075D02*
X62673Y-43075D01*
X60154Y-43075D02*
X61265Y-43075D01*
X57154Y-43075D02*
X59245Y-43075D01*
X53727Y-43075D02*
X53862Y-43075D01*
X44538Y-43075D02*
X52673Y-43075D01*
X43727Y-43075D02*
X43862Y-43075D01*
X38445Y-43075D02*
X42673Y-43075D01*
X74363Y-42995D02*
X77955Y-42995D01*
X73621Y-42995D02*
X74038Y-42995D01*
X65605Y-42995D02*
X72780Y-42995D01*
X64363Y-42995D02*
X64685Y-42995D01*
X63621Y-42995D02*
X64038Y-42995D01*
X62263Y-42995D02*
X62780Y-42995D01*
X60187Y-42995D02*
X61345Y-42995D01*
X57187Y-42995D02*
X59212Y-42995D01*
X54364Y-42995D02*
X54385Y-42995D01*
X53621Y-42995D02*
X54038Y-42995D01*
X44363Y-42995D02*
X52780Y-42995D01*
X43664Y-42995D02*
X44038Y-42995D01*
X38445Y-42995D02*
X42780Y-42995D01*
X65525Y-42915D02*
X77955Y-42915D01*
X62343Y-42915D02*
X64605Y-42915D01*
X60220Y-42915D02*
X61425Y-42915D01*
X57220Y-42915D02*
X59179Y-42915D01*
X43744Y-42915D02*
X54305Y-42915D01*
X38445Y-42915D02*
X42892Y-42915D01*
X65445Y-42835D02*
X77955Y-42835D01*
X62423Y-42835D02*
X64525Y-42835D01*
X60225Y-42835D02*
X61505Y-42835D01*
X57225Y-42835D02*
X59175Y-42835D01*
X38445Y-42835D02*
X42928Y-42835D01*
X65365Y-42755D02*
X77955Y-42755D01*
X60225Y-42755D02*
X61585Y-42755D01*
X57225Y-42755D02*
X59175Y-42755D01*
X38445Y-42755D02*
X42985Y-42755D01*
X65285Y-42675D02*
X77955Y-42675D01*
X60217Y-42675D02*
X61665Y-42675D01*
X57217Y-42675D02*
X59184Y-42675D01*
X38445Y-42675D02*
X43065Y-42675D01*
X65205Y-42595D02*
X77955Y-42595D01*
X60184Y-42595D02*
X61745Y-42595D01*
X57184Y-42595D02*
X59217Y-42595D01*
X38445Y-42595D02*
X43145Y-42595D01*
X65125Y-42515D02*
X77955Y-42515D01*
X60150Y-42515D02*
X61825Y-42515D01*
X57150Y-42515D02*
X59250Y-42515D01*
X38445Y-42515D02*
X43225Y-42515D01*
X65045Y-42435D02*
X77955Y-42435D01*
X60078Y-42435D02*
X61905Y-42435D01*
X57078Y-42435D02*
X59323Y-42435D01*
X54745Y-42435D02*
X56323Y-42435D01*
X38445Y-42435D02*
X43305Y-42435D01*
X75476Y-42355D02*
X77955Y-42355D01*
X65476Y-42355D02*
X74922Y-42355D01*
X59998Y-42355D02*
X61985Y-42355D01*
X56998Y-42355D02*
X59403Y-42355D01*
X55476Y-42355D02*
X56403Y-42355D01*
X54665Y-42355D02*
X54922Y-42355D01*
X38445Y-42355D02*
X43385Y-42355D01*
X75670Y-42275D02*
X77955Y-42275D01*
X65670Y-42275D02*
X74730Y-42275D01*
X59923Y-42275D02*
X62065Y-42275D01*
X56923Y-42275D02*
X59474Y-42275D01*
X55670Y-42275D02*
X56474Y-42275D01*
X54562Y-42275D02*
X54730Y-42275D01*
X38445Y-42275D02*
X43488Y-42275D01*
X75756Y-42195D02*
X77955Y-42195D01*
X65756Y-42195D02*
X74643Y-42195D01*
X60047Y-42195D02*
X62201Y-42195D01*
X57047Y-42195D02*
X59352Y-42195D01*
X55756Y-42195D02*
X56352Y-42195D01*
X45756Y-42195D02*
X54643Y-42195D01*
X38445Y-42195D02*
X44644Y-42195D01*
X75836Y-42115D02*
X77955Y-42115D01*
X65836Y-42115D02*
X74563Y-42115D01*
X60127Y-42115D02*
X64564Y-42115D01*
X57127Y-42115D02*
X59272Y-42115D01*
X55836Y-42115D02*
X56272Y-42115D01*
X45836Y-42115D02*
X54563Y-42115D01*
X38445Y-42115D02*
X44564Y-42115D01*
X75916Y-42035D02*
X77955Y-42035D01*
X65916Y-42035D02*
X74483Y-42035D01*
X60171Y-42035D02*
X64484Y-42035D01*
X57171Y-42035D02*
X59229Y-42035D01*
X55916Y-42035D02*
X56229Y-42035D01*
X45916Y-42035D02*
X54483Y-42035D01*
X38445Y-42035D02*
X44484Y-42035D01*
X75952Y-41955D02*
X77955Y-41955D01*
X65952Y-41955D02*
X74447Y-41955D01*
X60204Y-41955D02*
X64447Y-41955D01*
X57204Y-41955D02*
X59196Y-41955D01*
X55952Y-41955D02*
X56196Y-41955D01*
X45952Y-41955D02*
X54447Y-41955D01*
X38445Y-41955D02*
X44447Y-41955D01*
X75985Y-41875D02*
X77955Y-41875D01*
X65985Y-41875D02*
X74414Y-41875D01*
X60225Y-41875D02*
X64414Y-41875D01*
X57225Y-41875D02*
X59175Y-41875D01*
X55985Y-41875D02*
X56175Y-41875D01*
X45985Y-41875D02*
X54414Y-41875D01*
X38445Y-41875D02*
X44414Y-41875D01*
X76018Y-41795D02*
X77955Y-41795D01*
X66018Y-41795D02*
X74381Y-41795D01*
X60225Y-41795D02*
X64381Y-41795D01*
X57225Y-41795D02*
X59175Y-41795D01*
X56018Y-41795D02*
X56175Y-41795D01*
X46018Y-41795D02*
X54381Y-41795D01*
X38445Y-41795D02*
X44381Y-41795D01*
X76050Y-41715D02*
X77955Y-41715D01*
X66050Y-41715D02*
X74350Y-41715D01*
X60225Y-41715D02*
X64350Y-41715D01*
X57225Y-41715D02*
X59175Y-41715D01*
X56050Y-41715D02*
X56175Y-41715D01*
X46050Y-41715D02*
X54350Y-41715D01*
X38445Y-41715D02*
X44350Y-41715D01*
X76050Y-41635D02*
X77955Y-41635D01*
X66050Y-41635D02*
X74350Y-41635D01*
X60200Y-41635D02*
X64350Y-41635D01*
X57200Y-41635D02*
X59200Y-41635D01*
X56050Y-41635D02*
X56200Y-41635D01*
X46050Y-41635D02*
X54350Y-41635D01*
X38445Y-41635D02*
X44350Y-41635D01*
X76050Y-41555D02*
X77955Y-41555D01*
X66050Y-41555D02*
X74350Y-41555D01*
X60167Y-41555D02*
X64350Y-41555D01*
X57167Y-41555D02*
X59234Y-41555D01*
X56050Y-41555D02*
X56234Y-41555D01*
X46050Y-41555D02*
X54350Y-41555D01*
X38445Y-41555D02*
X44350Y-41555D01*
X76050Y-41475D02*
X77955Y-41475D01*
X66050Y-41475D02*
X74350Y-41475D01*
X60118Y-41475D02*
X64350Y-41475D01*
X57118Y-41475D02*
X59282Y-41475D01*
X56050Y-41475D02*
X56283Y-41475D01*
X46050Y-41475D02*
X54350Y-41475D01*
X38445Y-41475D02*
X44350Y-41475D01*
X76050Y-41395D02*
X77955Y-41395D01*
X66050Y-41395D02*
X74350Y-41395D01*
X60038Y-41395D02*
X64350Y-41395D01*
X57038Y-41395D02*
X59363Y-41395D01*
X56050Y-41395D02*
X56363Y-41395D01*
X46050Y-41395D02*
X54350Y-41395D01*
X38445Y-41395D02*
X44350Y-41395D01*
X76023Y-41315D02*
X77955Y-41315D01*
X66023Y-41315D02*
X74378Y-41315D01*
X59903Y-41315D02*
X64378Y-41315D01*
X57045Y-41315D02*
X59499Y-41315D01*
X56023Y-41315D02*
X56353Y-41315D01*
X46023Y-41315D02*
X54378Y-41315D01*
X38445Y-41315D02*
X44378Y-41315D01*
X75990Y-41235D02*
X77955Y-41235D01*
X65990Y-41235D02*
X74411Y-41235D01*
X59971Y-41235D02*
X64411Y-41235D01*
X57167Y-41235D02*
X59428Y-41235D01*
X55990Y-41235D02*
X56233Y-41235D01*
X45990Y-41235D02*
X54411Y-41235D01*
X38445Y-41235D02*
X44411Y-41235D01*
X75957Y-41155D02*
X77955Y-41155D01*
X65957Y-41155D02*
X74444Y-41155D01*
X59984Y-41155D02*
X64444Y-41155D01*
X57211Y-41155D02*
X59416Y-41155D01*
X55957Y-41155D02*
X56188Y-41155D01*
X45957Y-41155D02*
X54444Y-41155D01*
X38445Y-41155D02*
X44444Y-41155D01*
X75924Y-41075D02*
X77955Y-41075D01*
X65924Y-41075D02*
X74478Y-41075D01*
X60120Y-41075D02*
X64478Y-41075D01*
X59904Y-41075D02*
X60046Y-41075D01*
X59354Y-41075D02*
X59496Y-41075D01*
X57224Y-41075D02*
X59279Y-41075D01*
X55924Y-41075D02*
X56176Y-41075D01*
X45924Y-41075D02*
X54478Y-41075D01*
X38445Y-41075D02*
X44478Y-41075D01*
X75847Y-40995D02*
X77955Y-40995D01*
X65847Y-40995D02*
X74554Y-40995D01*
X60176Y-40995D02*
X64554Y-40995D01*
X59824Y-40995D02*
X59966Y-40995D01*
X59434Y-40995D02*
X59576Y-40995D01*
X57224Y-40995D02*
X59218Y-40995D01*
X55847Y-40995D02*
X56176Y-40995D01*
X45847Y-40995D02*
X54554Y-40995D01*
X38445Y-40995D02*
X44554Y-40995D01*
X75767Y-40915D02*
X77955Y-40915D01*
X65767Y-40915D02*
X74634Y-40915D01*
X60204Y-40915D02*
X64634Y-40915D01*
X59744Y-40915D02*
X59886Y-40915D01*
X59514Y-40915D02*
X59656Y-40915D01*
X57224Y-40915D02*
X59191Y-40915D01*
X55767Y-40915D02*
X56176Y-40915D01*
X45767Y-40915D02*
X54634Y-40915D01*
X38445Y-40915D02*
X44634Y-40915D01*
X75687Y-40835D02*
X77955Y-40835D01*
X65687Y-40835D02*
X74714Y-40835D01*
X60217Y-40835D02*
X64714Y-40835D01*
X59594Y-40835D02*
X59806Y-40835D01*
X57224Y-40835D02*
X59186Y-40835D01*
X55687Y-40835D02*
X56176Y-40835D01*
X45687Y-40835D02*
X54714Y-40835D01*
X38445Y-40835D02*
X44714Y-40835D01*
X75502Y-40755D02*
X77955Y-40755D01*
X65502Y-40755D02*
X74899Y-40755D01*
X60213Y-40755D02*
X64899Y-40755D01*
X59584Y-40755D02*
X59816Y-40755D01*
X57224Y-40755D02*
X59182Y-40755D01*
X55502Y-40755D02*
X56176Y-40755D01*
X45502Y-40755D02*
X54899Y-40755D01*
X38445Y-40755D02*
X44899Y-40755D01*
X60209Y-40675D02*
X77955Y-40675D01*
X59754Y-40675D02*
X59896Y-40675D01*
X59504Y-40675D02*
X59646Y-40675D01*
X57224Y-40675D02*
X59199Y-40675D01*
X38445Y-40675D02*
X56176Y-40675D01*
X60178Y-40595D02*
X77955Y-40595D01*
X59834Y-40595D02*
X59976Y-40595D01*
X59424Y-40595D02*
X59566Y-40595D01*
X57224Y-40595D02*
X59227Y-40595D01*
X38445Y-40595D02*
X56176Y-40595D01*
X60081Y-40515D02*
X77955Y-40515D01*
X59914Y-40515D02*
X60056Y-40515D01*
X59344Y-40515D02*
X59486Y-40515D01*
X57224Y-40515D02*
X59320Y-40515D01*
X38445Y-40515D02*
X56176Y-40515D01*
X59989Y-40435D02*
X77955Y-40435D01*
X57208Y-40435D02*
X59412Y-40435D01*
X38445Y-40435D02*
X56193Y-40435D01*
X59969Y-40355D02*
X77955Y-40355D01*
X57157Y-40355D02*
X59432Y-40355D01*
X38445Y-40355D02*
X56243Y-40355D01*
X38445Y-40275D02*
X77955Y-40275D01*
X38445Y-40195D02*
X77955Y-40195D01*
X38445Y-40115D02*
X77955Y-40115D01*
X38445Y-40035D02*
X77955Y-40035D01*
X38445Y-39955D02*
X77955Y-39955D01*
X38445Y-39875D02*
X77955Y-39875D01*
X38445Y-39795D02*
X77955Y-39795D01*
X38445Y-39715D02*
X77955Y-39715D01*
X38445Y-39635D02*
X77955Y-39635D01*
X38445Y-39555D02*
X77955Y-39555D01*
X38445Y-39475D02*
X77955Y-39475D01*
X38445Y-39395D02*
X77955Y-39395D01*
X38445Y-39315D02*
X77955Y-39315D01*
X38445Y-39235D02*
X77955Y-39235D01*
X38445Y-39155D02*
X77955Y-39155D01*
X38445Y-39075D02*
X77955Y-39075D01*
X38445Y-38995D02*
X77955Y-38995D01*
X38445Y-38915D02*
X77955Y-38915D01*
X38445Y-38835D02*
X77955Y-38835D01*
X38445Y-38755D02*
X77955Y-38755D01*
X38445Y-38675D02*
X77955Y-38675D01*
X60449Y-38595D02*
X77955Y-38595D01*
X59449Y-38595D02*
X59950Y-38595D01*
X58449Y-38595D02*
X58950Y-38595D01*
X57449Y-38595D02*
X57950Y-38595D01*
X56707Y-38595D02*
X56950Y-38595D01*
X56143Y-38595D02*
X56257Y-38595D01*
X38445Y-38595D02*
X55693Y-38595D01*
X60582Y-38515D02*
X77955Y-38515D01*
X59581Y-38515D02*
X59818Y-38515D01*
X58582Y-38515D02*
X58818Y-38515D01*
X57582Y-38515D02*
X57818Y-38515D01*
X56771Y-38515D02*
X56818Y-38515D01*
X56150Y-38515D02*
X56250Y-38515D01*
X52368Y-38515D02*
X55628Y-38515D01*
X38445Y-38515D02*
X52031Y-38515D01*
X60662Y-38435D02*
X77955Y-38435D01*
X59661Y-38435D02*
X59738Y-38435D01*
X58662Y-38435D02*
X58738Y-38435D01*
X57662Y-38435D02*
X57738Y-38435D01*
X56150Y-38435D02*
X56250Y-38435D01*
X52514Y-38435D02*
X55600Y-38435D01*
X38445Y-38435D02*
X51886Y-38435D01*
X60722Y-38355D02*
X77955Y-38355D01*
X56150Y-38355D02*
X56250Y-38355D01*
X52594Y-38355D02*
X55600Y-38355D01*
X38445Y-38355D02*
X51806Y-38355D01*
X60755Y-38275D02*
X77955Y-38275D01*
X56150Y-38275D02*
X56250Y-38275D01*
X52641Y-38275D02*
X55600Y-38275D01*
X38445Y-38275D02*
X51758Y-38275D01*
X60788Y-38195D02*
X77955Y-38195D01*
X56150Y-38195D02*
X56250Y-38195D01*
X52674Y-38195D02*
X55600Y-38195D01*
X38445Y-38195D02*
X51725Y-38195D01*
X60799Y-38115D02*
X77955Y-38115D01*
X56150Y-38115D02*
X56250Y-38115D01*
X52694Y-38115D02*
X55647Y-38115D01*
X38445Y-38115D02*
X51706Y-38115D01*
X60799Y-38035D02*
X77955Y-38035D01*
X52694Y-38035D02*
X56250Y-38035D01*
X38445Y-38035D02*
X51706Y-38035D01*
X60799Y-37955D02*
X77955Y-37955D01*
X52694Y-37955D02*
X55617Y-37955D01*
X38445Y-37955D02*
X51706Y-37955D01*
X60776Y-37875D02*
X77955Y-37875D01*
X52663Y-37875D02*
X55601Y-37875D01*
X38445Y-37875D02*
X51738Y-37875D01*
X60743Y-37795D02*
X77955Y-37795D01*
X52630Y-37795D02*
X55601Y-37795D01*
X38445Y-37795D02*
X51771Y-37795D01*
X60710Y-37715D02*
X77955Y-37715D01*
X52564Y-37715D02*
X55601Y-37715D01*
X38445Y-37715D02*
X51836Y-37715D01*
X68535Y-37635D02*
X77955Y-37635D01*
X60633Y-37635D02*
X67864Y-37635D01*
X52484Y-37635D02*
X55608Y-37635D01*
X48535Y-37635D02*
X51916Y-37635D01*
X38445Y-37635D02*
X47864Y-37635D01*
X68717Y-37555D02*
X77955Y-37555D01*
X60553Y-37555D02*
X67682Y-37555D01*
X48717Y-37555D02*
X55643Y-37555D01*
X38445Y-37555D02*
X47682Y-37555D01*
X68797Y-37475D02*
X77955Y-37475D01*
X60621Y-37475D02*
X67602Y-37475D01*
X52449Y-37475D02*
X55742Y-37475D01*
X48797Y-37475D02*
X51950Y-37475D01*
X38445Y-37475D02*
X47602Y-37475D01*
X68877Y-37395D02*
X77955Y-37395D01*
X60701Y-37395D02*
X67522Y-37395D01*
X52467Y-37395D02*
X55698Y-37395D01*
X48877Y-37395D02*
X51932Y-37395D01*
X38445Y-37395D02*
X47522Y-37395D01*
X68957Y-37315D02*
X77955Y-37315D01*
X60738Y-37315D02*
X67442Y-37315D01*
X52556Y-37315D02*
X55661Y-37315D01*
X52395Y-37315D02*
X52535Y-37315D01*
X51864Y-37315D02*
X52006Y-37315D01*
X48957Y-37315D02*
X51843Y-37315D01*
X38445Y-37315D02*
X47442Y-37315D01*
X68993Y-37235D02*
X77955Y-37235D01*
X60771Y-37235D02*
X67406Y-37235D01*
X52648Y-37235D02*
X55628Y-37235D01*
X52315Y-37235D02*
X52455Y-37235D01*
X51944Y-37235D02*
X52086Y-37235D01*
X48993Y-37235D02*
X51746Y-37235D01*
X38445Y-37235D02*
X47406Y-37235D01*
X69027Y-37155D02*
X77955Y-37155D01*
X60799Y-37155D02*
X67373Y-37155D01*
X52675Y-37155D02*
X55601Y-37155D01*
X52235Y-37155D02*
X52375Y-37155D01*
X52024Y-37155D02*
X52166Y-37155D01*
X49027Y-37155D02*
X51720Y-37155D01*
X38445Y-37155D02*
X47373Y-37155D01*
X69060Y-37075D02*
X77955Y-37075D01*
X60799Y-37075D02*
X67340Y-37075D01*
X52687Y-37075D02*
X55601Y-37075D01*
X52104Y-37075D02*
X52295Y-37075D01*
X49060Y-37075D02*
X51716Y-37075D01*
X38445Y-37075D02*
X47340Y-37075D01*
X69093Y-36995D02*
X77955Y-36995D01*
X60799Y-36995D02*
X67307Y-36995D01*
X52683Y-36995D02*
X55601Y-36995D01*
X52075Y-36995D02*
X52326Y-36995D01*
X49093Y-36995D02*
X51711Y-36995D01*
X38445Y-36995D02*
X47307Y-36995D01*
X69100Y-36915D02*
X77955Y-36915D01*
X60793Y-36915D02*
X67300Y-36915D01*
X52675Y-36915D02*
X55608Y-36915D01*
X52264Y-36915D02*
X52406Y-36915D01*
X51995Y-36915D02*
X52135Y-36915D01*
X49100Y-36915D02*
X51735Y-36915D01*
X38445Y-36915D02*
X47300Y-36915D01*
X69100Y-36835D02*
X77955Y-36835D01*
X60760Y-36835D02*
X67300Y-36835D01*
X52642Y-36835D02*
X55641Y-36835D01*
X52344Y-36835D02*
X52486Y-36835D01*
X51915Y-36835D02*
X52055Y-36835D01*
X49100Y-36835D02*
X51762Y-36835D01*
X38445Y-36835D02*
X47300Y-36835D01*
X69100Y-36755D02*
X77955Y-36755D01*
X60727Y-36755D02*
X67300Y-36755D01*
X52424Y-36755D02*
X55674Y-36755D01*
X49100Y-36755D02*
X51975Y-36755D01*
X38445Y-36755D02*
X47300Y-36755D01*
X69100Y-36675D02*
X77955Y-36675D01*
X60672Y-36675D02*
X67300Y-36675D01*
X59672Y-36675D02*
X59728Y-36675D01*
X58672Y-36675D02*
X58728Y-36675D01*
X57672Y-36675D02*
X57727Y-36675D01*
X56673Y-36675D02*
X56728Y-36675D01*
X52461Y-36675D02*
X55728Y-36675D01*
X49100Y-36675D02*
X51940Y-36675D01*
X38445Y-36675D02*
X47300Y-36675D01*
X69089Y-36595D02*
X77955Y-36595D01*
X60592Y-36595D02*
X67311Y-36595D01*
X59592Y-36595D02*
X59808Y-36595D01*
X58592Y-36595D02*
X58808Y-36595D01*
X57592Y-36595D02*
X57808Y-36595D01*
X56593Y-36595D02*
X56808Y-36595D01*
X52367Y-36595D02*
X55808Y-36595D01*
X49089Y-36595D02*
X52019Y-36595D01*
X38445Y-36595D02*
X47311Y-36595D01*
X69056Y-36515D02*
X77955Y-36515D01*
X60474Y-36515D02*
X67344Y-36515D01*
X59474Y-36515D02*
X59927Y-36515D01*
X58474Y-36515D02*
X58927Y-36515D01*
X57474Y-36515D02*
X57927Y-36515D01*
X56474Y-36515D02*
X56927Y-36515D01*
X49056Y-36515D02*
X55927Y-36515D01*
X38445Y-36515D02*
X47344Y-36515D01*
X69023Y-36435D02*
X77955Y-36435D01*
X49023Y-36435D02*
X67378Y-36435D01*
X38445Y-36435D02*
X47378Y-36435D01*
X68990Y-36355D02*
X77955Y-36355D01*
X48990Y-36355D02*
X67411Y-36355D01*
X38445Y-36355D02*
X47411Y-36355D01*
X68948Y-36275D02*
X77955Y-36275D01*
X48948Y-36275D02*
X67453Y-36275D01*
X38445Y-36275D02*
X47453Y-36275D01*
X68868Y-36195D02*
X77955Y-36195D01*
X48868Y-36195D02*
X67533Y-36195D01*
X38445Y-36195D02*
X47533Y-36195D01*
X68788Y-36115D02*
X77955Y-36115D01*
X48788Y-36115D02*
X67613Y-36115D01*
X38445Y-36115D02*
X47613Y-36115D01*
X68704Y-36035D02*
X77955Y-36035D01*
X48704Y-36035D02*
X67696Y-36035D01*
X38445Y-36035D02*
X47696Y-36035D01*
X68512Y-35955D02*
X77955Y-35955D01*
X48512Y-35955D02*
X67890Y-35955D01*
X38445Y-35955D02*
X47890Y-35955D01*
X38445Y-35875D02*
X77955Y-35875D01*
X38445Y-35795D02*
X77955Y-35795D01*
X77955Y-47805D02*
X77955Y-35795D01*
X77955Y-35795D02*
X38445Y-35795D01*
X38445Y-35795D02*
X38445Y-47805D01*
X38445Y-47805D02*
X41030Y-47805D01*
X41030Y-47805D02*
X41030Y-46400D01*
X41030Y-46400D02*
X40718Y-46270D01*
X40718Y-46270D02*
X40479Y-46030D01*
X40479Y-46030D02*
X40350Y-45718D01*
X40350Y-45718D02*
X40350Y-45380D01*
X40350Y-45380D02*
X40480Y-45068D01*
X40480Y-45068D02*
X40720Y-44829D01*
X40720Y-44829D02*
X41032Y-44700D01*
X41032Y-44700D02*
X41370Y-44700D01*
X41370Y-44700D02*
X41682Y-44830D01*
X41682Y-44830D02*
X41921Y-45070D01*
X41921Y-45070D02*
X42050Y-45382D01*
X42050Y-45382D02*
X42050Y-45720D01*
X42050Y-45720D02*
X41920Y-46032D01*
X41920Y-46032D02*
X41680Y-46271D01*
X41680Y-46271D02*
X41368Y-46400D01*
X41368Y-46400D02*
X41030Y-46400D01*
X41030Y-46400D02*
X41030Y-47805D01*
X41030Y-47805D02*
X45030Y-47805D01*
X45030Y-47805D02*
X45030Y-46400D01*
X45030Y-46400D02*
X44718Y-46270D01*
X44718Y-46270D02*
X44479Y-46030D01*
X44479Y-46030D02*
X44350Y-45718D01*
X44350Y-45718D02*
X44350Y-45380D01*
X44350Y-45380D02*
X44480Y-45068D01*
X44480Y-45068D02*
X44720Y-44829D01*
X44720Y-44829D02*
X45032Y-44700D01*
X45032Y-44700D02*
X45370Y-44700D01*
X45370Y-44700D02*
X45682Y-44830D01*
X45682Y-44830D02*
X45921Y-45070D01*
X45921Y-45070D02*
X46050Y-45382D01*
X46050Y-45382D02*
X46050Y-45720D01*
X46050Y-45720D02*
X45920Y-46032D01*
X45920Y-46032D02*
X45680Y-46271D01*
X45680Y-46271D02*
X45368Y-46400D01*
X45368Y-46400D02*
X45030Y-46400D01*
X45030Y-46400D02*
X45030Y-47805D01*
X45030Y-47805D02*
X48020Y-47805D01*
X48020Y-47805D02*
X48020Y-47700D01*
X48020Y-47700D02*
X47689Y-47562D01*
X47689Y-47562D02*
X47437Y-47309D01*
X47437Y-47309D02*
X47300Y-46978D01*
X47300Y-46978D02*
X47300Y-46620D01*
X47300Y-46620D02*
X47438Y-46289D01*
X47438Y-46289D02*
X47691Y-46037D01*
X47691Y-46037D02*
X48022Y-45900D01*
X48022Y-45900D02*
X48380Y-45900D01*
X48380Y-45900D02*
X48711Y-46038D01*
X48711Y-46038D02*
X48963Y-46291D01*
X48963Y-46291D02*
X49100Y-46622D01*
X49100Y-46622D02*
X49100Y-46980D01*
X49100Y-46980D02*
X48962Y-47311D01*
X48962Y-47311D02*
X48709Y-47563D01*
X48709Y-47563D02*
X48378Y-47700D01*
X48378Y-47700D02*
X48020Y-47700D01*
X48020Y-47700D02*
X48020Y-47805D01*
X48020Y-47805D02*
X51030Y-47805D01*
X51030Y-47805D02*
X51030Y-46400D01*
X51030Y-46400D02*
X50718Y-46270D01*
X50718Y-46270D02*
X50479Y-46030D01*
X50479Y-46030D02*
X50350Y-45718D01*
X50350Y-45718D02*
X50350Y-45380D01*
X50350Y-45380D02*
X50480Y-45068D01*
X50480Y-45068D02*
X50720Y-44829D01*
X50720Y-44829D02*
X51032Y-44700D01*
X51032Y-44700D02*
X51370Y-44700D01*
X51370Y-44700D02*
X51682Y-44830D01*
X51682Y-44830D02*
X51921Y-45070D01*
X51921Y-45070D02*
X52050Y-45382D01*
X52050Y-45382D02*
X52050Y-45720D01*
X52050Y-45720D02*
X51920Y-46032D01*
X51920Y-46032D02*
X51680Y-46271D01*
X51680Y-46271D02*
X51368Y-46400D01*
X51368Y-46400D02*
X51030Y-46400D01*
X51030Y-46400D02*
X51030Y-47805D01*
X51030Y-47805D02*
X56595Y-47805D01*
X56595Y-47805D02*
X56595Y-47325D01*
X56595Y-47325D02*
X56402Y-47245D01*
X56402Y-47245D02*
X56255Y-47097D01*
X56255Y-47097D02*
X56175Y-46904D01*
X56175Y-46904D02*
X56175Y-46695D01*
X56175Y-46695D02*
X56255Y-46502D01*
X56255Y-46502D02*
X56403Y-46355D01*
X56403Y-46355D02*
X56535Y-46300D01*
X56535Y-46300D02*
X56410Y-46248D01*
X56410Y-46248D02*
X55730Y-46930D01*
X55730Y-46930D02*
X55624Y-47000D01*
X55624Y-47000D02*
X55500Y-47025D01*
X55500Y-47025D02*
X54500Y-47025D01*
X54500Y-47025D02*
X54376Y-47000D01*
X54376Y-47000D02*
X54270Y-46930D01*
X54270Y-46930D02*
X52970Y-45630D01*
X52970Y-45630D02*
X52900Y-45524D01*
X52900Y-45524D02*
X52875Y-45400D01*
X52875Y-45400D02*
X52875Y-44124D01*
X52875Y-44124D02*
X52825Y-44124D01*
X52825Y-44124D02*
X52734Y-44086D01*
X52734Y-44086D02*
X52664Y-44016D01*
X52664Y-44016D02*
X52626Y-43924D01*
X52626Y-43924D02*
X52626Y-43175D01*
X52626Y-43175D02*
X52664Y-43084D01*
X52664Y-43084D02*
X52734Y-43014D01*
X52734Y-43014D02*
X52826Y-42976D01*
X52826Y-42976D02*
X53575Y-42976D01*
X53575Y-42976D02*
X53666Y-43014D01*
X53666Y-43014D02*
X53736Y-43084D01*
X53736Y-43084D02*
X53770Y-43166D01*
X53770Y-43166D02*
X53875Y-43062D01*
X53875Y-43062D02*
X54086Y-42975D01*
X54086Y-42975D02*
X54315Y-42975D01*
X54315Y-42975D02*
X54402Y-43011D01*
X54402Y-43011D02*
X54265Y-42875D01*
X54265Y-42875D02*
X43785Y-42875D01*
X43785Y-42875D02*
X43651Y-43008D01*
X43651Y-43008D02*
X43666Y-43014D01*
X43666Y-43014D02*
X43736Y-43084D01*
X43736Y-43084D02*
X43770Y-43166D01*
X43770Y-43166D02*
X43875Y-43062D01*
X43875Y-43062D02*
X44086Y-42975D01*
X44086Y-42975D02*
X44315Y-42975D01*
X44315Y-42975D02*
X44526Y-43063D01*
X44526Y-43063D02*
X44688Y-43225D01*
X44688Y-43225D02*
X44775Y-43436D01*
X44775Y-43436D02*
X44775Y-43665D01*
X44775Y-43665D02*
X44687Y-43876D01*
X44687Y-43876D02*
X44525Y-44038D01*
X44525Y-44038D02*
X44314Y-44125D01*
X44314Y-44125D02*
X44085Y-44125D01*
X44085Y-44125D02*
X43874Y-44037D01*
X43874Y-44037D02*
X43770Y-43933D01*
X43770Y-43933D02*
X43736Y-44016D01*
X43736Y-44016D02*
X43666Y-44086D01*
X43666Y-44086D02*
X43574Y-44124D01*
X43574Y-44124D02*
X42825Y-44124D01*
X42825Y-44124D02*
X42734Y-44086D01*
X42734Y-44086D02*
X42664Y-44016D01*
X42664Y-44016D02*
X42626Y-43924D01*
X42626Y-43924D02*
X42626Y-43175D01*
X42626Y-43175D02*
X42664Y-43084D01*
X42664Y-43084D02*
X42734Y-43014D01*
X42734Y-43014D02*
X42826Y-42976D01*
X42826Y-42976D02*
X42879Y-42976D01*
X42879Y-42976D02*
X42900Y-42876D01*
X42900Y-42876D02*
X42970Y-42770D01*
X42970Y-42770D02*
X43419Y-42320D01*
X43419Y-42320D02*
X43525Y-42250D01*
X43525Y-42250D02*
X43650Y-42225D01*
X43650Y-42225D02*
X44673Y-42224D01*
X44673Y-42224D02*
X44479Y-42030D01*
X44479Y-42030D02*
X44350Y-41718D01*
X44350Y-41718D02*
X44350Y-41380D01*
X44350Y-41380D02*
X44480Y-41068D01*
X44480Y-41068D02*
X44720Y-40829D01*
X44720Y-40829D02*
X45032Y-40700D01*
X45032Y-40700D02*
X45370Y-40700D01*
X45370Y-40700D02*
X45682Y-40830D01*
X45682Y-40830D02*
X45921Y-41070D01*
X45921Y-41070D02*
X46050Y-41382D01*
X46050Y-41382D02*
X46050Y-41720D01*
X46050Y-41720D02*
X45920Y-42032D01*
X45920Y-42032D02*
X45726Y-42225D01*
X45726Y-42225D02*
X48020Y-42225D01*
X48020Y-42225D02*
X48020Y-37700D01*
X48020Y-37700D02*
X47689Y-37562D01*
X47689Y-37562D02*
X47437Y-37309D01*
X47437Y-37309D02*
X47300Y-36978D01*
X47300Y-36978D02*
X47300Y-36620D01*
X47300Y-36620D02*
X47438Y-36289D01*
X47438Y-36289D02*
X47691Y-36037D01*
X47691Y-36037D02*
X48022Y-35900D01*
X48022Y-35900D02*
X48380Y-35900D01*
X48380Y-35900D02*
X48711Y-36038D01*
X48711Y-36038D02*
X48963Y-36291D01*
X48963Y-36291D02*
X49100Y-36622D01*
X49100Y-36622D02*
X49100Y-36980D01*
X49100Y-36980D02*
X48962Y-37311D01*
X48962Y-37311D02*
X48709Y-37563D01*
X48709Y-37563D02*
X48378Y-37700D01*
X48378Y-37700D02*
X48020Y-37700D01*
X48020Y-37700D02*
X48020Y-42225D01*
X48020Y-42225D02*
X52101Y-42225D01*
X52101Y-42225D02*
X52101Y-38544D01*
X52101Y-38544D02*
X51920Y-38469D01*
X51920Y-38469D02*
X51781Y-38330D01*
X51781Y-38330D02*
X51706Y-38148D01*
X51706Y-38148D02*
X51706Y-37951D01*
X51706Y-37951D02*
X51781Y-37770D01*
X51781Y-37770D02*
X51861Y-37689D01*
X51861Y-37689D02*
X51861Y-37319D01*
X51861Y-37319D02*
X51773Y-37299D01*
X51773Y-37299D02*
X51722Y-37176D01*
X51722Y-37176D02*
X51711Y-36984D01*
X51711Y-36984D02*
X51773Y-36801D01*
X51773Y-36801D02*
X51861Y-36781D01*
X51861Y-36781D02*
X52129Y-37050D01*
X52129Y-37050D02*
X51861Y-37319D01*
X51861Y-37319D02*
X51861Y-37689D01*
X51861Y-37689D02*
X51920Y-37631D01*
X51920Y-37631D02*
X52102Y-37556D01*
X52102Y-37556D02*
X52134Y-37556D01*
X52134Y-37556D02*
X52134Y-37539D01*
X52134Y-37539D02*
X51951Y-37477D01*
X51951Y-37477D02*
X51931Y-37389D01*
X51931Y-37389D02*
X52200Y-37121D01*
X52200Y-37121D02*
X52200Y-36979D01*
X52200Y-36979D02*
X51931Y-36711D01*
X51931Y-36711D02*
X51951Y-36623D01*
X51951Y-36623D02*
X52074Y-36572D01*
X52074Y-36572D02*
X52266Y-36561D01*
X52266Y-36561D02*
X52449Y-36623D01*
X52449Y-36623D02*
X52469Y-36711D01*
X52469Y-36711D02*
X52200Y-36979D01*
X52200Y-36979D02*
X52200Y-37121D01*
X52200Y-37121D02*
X52469Y-37389D01*
X52469Y-37389D02*
X52449Y-37477D01*
X52449Y-37477D02*
X52326Y-37528D01*
X52326Y-37528D02*
X52134Y-37539D01*
X52134Y-37539D02*
X52134Y-37556D01*
X52134Y-37556D02*
X52299Y-37556D01*
X52299Y-37556D02*
X52480Y-37631D01*
X52480Y-37631D02*
X52539Y-37690D01*
X52539Y-37690D02*
X52539Y-37319D01*
X52539Y-37319D02*
X52271Y-37050D01*
X52271Y-37050D02*
X52539Y-36781D01*
X52539Y-36781D02*
X52627Y-36801D01*
X52627Y-36801D02*
X52678Y-36924D01*
X52678Y-36924D02*
X52689Y-37116D01*
X52689Y-37116D02*
X52627Y-37299D01*
X52627Y-37299D02*
X52539Y-37319D01*
X52539Y-37319D02*
X52539Y-37690D01*
X52539Y-37690D02*
X52619Y-37770D01*
X52619Y-37770D02*
X52694Y-37952D01*
X52694Y-37952D02*
X52694Y-38149D01*
X52694Y-38149D02*
X52619Y-38330D01*
X52619Y-38330D02*
X52480Y-38469D01*
X52480Y-38469D02*
X52298Y-38544D01*
X52298Y-38544D02*
X52101Y-38544D01*
X52101Y-38544D02*
X52101Y-42225D01*
X52101Y-42225D02*
X54400Y-42225D01*
X54400Y-42225D02*
X54524Y-42250D01*
X54524Y-42250D02*
X54630Y-42320D01*
X54630Y-42320D02*
X54784Y-42475D01*
X54784Y-42475D02*
X55030Y-42475D01*
X55030Y-42475D02*
X55030Y-42400D01*
X55030Y-42400D02*
X54718Y-42270D01*
X54718Y-42270D02*
X54479Y-42030D01*
X54479Y-42030D02*
X54350Y-41718D01*
X54350Y-41718D02*
X54350Y-41380D01*
X54350Y-41380D02*
X54480Y-41068D01*
X54480Y-41068D02*
X54720Y-40829D01*
X54720Y-40829D02*
X55032Y-40700D01*
X55032Y-40700D02*
X55370Y-40700D01*
X55370Y-40700D02*
X55682Y-40830D01*
X55682Y-40830D02*
X55921Y-41070D01*
X55921Y-41070D02*
X56050Y-41382D01*
X56050Y-41382D02*
X56050Y-41720D01*
X56050Y-41720D02*
X55920Y-42032D01*
X55920Y-42032D02*
X55680Y-42271D01*
X55680Y-42271D02*
X55368Y-42400D01*
X55368Y-42400D02*
X55030Y-42400D01*
X55030Y-42400D02*
X55030Y-42475D01*
X55030Y-42475D02*
X56088Y-42475D01*
X56088Y-42475D02*
X56088Y-38650D01*
X56088Y-38650D02*
X55801Y-38649D01*
X55801Y-38649D02*
X55709Y-38611D01*
X55709Y-38611D02*
X55639Y-38541D01*
X55639Y-38541D02*
X55601Y-38450D01*
X55601Y-38450D02*
X55600Y-38162D01*
X55600Y-38162D02*
X55662Y-38100D01*
X55662Y-38100D02*
X56150Y-38100D01*
X56150Y-38100D02*
X56150Y-38588D01*
X56150Y-38588D02*
X56088Y-38650D01*
X56088Y-38650D02*
X56088Y-42475D01*
X56088Y-42475D02*
X56282Y-42475D01*
X56282Y-42475D02*
X56403Y-42355D01*
X56403Y-42355D02*
X56535Y-42300D01*
X56535Y-42300D02*
X56402Y-42245D01*
X56402Y-42245D02*
X56255Y-42097D01*
X56255Y-42097D02*
X56175Y-41904D01*
X56175Y-41904D02*
X56175Y-41695D01*
X56175Y-41695D02*
X56255Y-41502D01*
X56255Y-41502D02*
X56403Y-41355D01*
X56403Y-41355D02*
X56477Y-41323D01*
X56477Y-41323D02*
X56375Y-41324D01*
X56375Y-41324D02*
X56284Y-41286D01*
X56284Y-41286D02*
X56214Y-41216D01*
X56214Y-41216D02*
X56176Y-41124D01*
X56176Y-41124D02*
X56176Y-40475D01*
X56176Y-40475D02*
X56214Y-40384D01*
X56214Y-40384D02*
X56284Y-40314D01*
X56284Y-40314D02*
X56312Y-40302D01*
X56312Y-40302D02*
X56312Y-38650D01*
X56312Y-38650D02*
X56250Y-38588D01*
X56250Y-38588D02*
X56250Y-38100D01*
X56250Y-38100D02*
X56250Y-38000D01*
X56250Y-38000D02*
X56150Y-38000D01*
X56150Y-38000D02*
X55662Y-38000D01*
X55662Y-38000D02*
X55600Y-37938D01*
X55600Y-37938D02*
X55601Y-37650D01*
X55601Y-37650D02*
X55639Y-37559D01*
X55639Y-37559D02*
X55709Y-37489D01*
X55709Y-37489D02*
X55767Y-37464D01*
X55767Y-37464D02*
X55692Y-37389D01*
X55692Y-37389D02*
X55601Y-37169D01*
X55601Y-37169D02*
X55601Y-36931D01*
X55601Y-36931D02*
X55692Y-36711D01*
X55692Y-36711D02*
X55861Y-36542D01*
X55861Y-36542D02*
X56081Y-36451D01*
X56081Y-36451D02*
X56319Y-36451D01*
X56319Y-36451D02*
X56539Y-36542D01*
X56539Y-36542D02*
X56700Y-36702D01*
X56700Y-36702D02*
X56861Y-36542D01*
X56861Y-36542D02*
X57081Y-36451D01*
X57081Y-36451D02*
X57319Y-36451D01*
X57319Y-36451D02*
X57539Y-36542D01*
X57539Y-36542D02*
X57699Y-36702D01*
X57699Y-36702D02*
X57861Y-36542D01*
X57861Y-36542D02*
X58081Y-36451D01*
X58081Y-36451D02*
X58319Y-36451D01*
X58319Y-36451D02*
X58539Y-36542D01*
X58539Y-36542D02*
X58700Y-36703D01*
X58700Y-36703D02*
X58861Y-36542D01*
X58861Y-36542D02*
X59081Y-36451D01*
X59081Y-36451D02*
X59319Y-36451D01*
X59319Y-36451D02*
X59539Y-36542D01*
X59539Y-36542D02*
X59700Y-36703D01*
X59700Y-36703D02*
X59861Y-36542D01*
X59861Y-36542D02*
X60081Y-36451D01*
X60081Y-36451D02*
X60319Y-36451D01*
X60319Y-36451D02*
X60539Y-36542D01*
X60539Y-36542D02*
X60708Y-36711D01*
X60708Y-36711D02*
X60799Y-36931D01*
X60799Y-36931D02*
X60799Y-37169D01*
X60799Y-37169D02*
X60708Y-37389D01*
X60708Y-37389D02*
X60547Y-37549D01*
X60547Y-37549D02*
X60708Y-37711D01*
X60708Y-37711D02*
X60799Y-37931D01*
X60799Y-37931D02*
X60799Y-38169D01*
X60799Y-38169D02*
X60708Y-38389D01*
X60708Y-38389D02*
X60539Y-38558D01*
X60539Y-38558D02*
X60319Y-38649D01*
X60319Y-38649D02*
X60081Y-38649D01*
X60081Y-38649D02*
X59861Y-38558D01*
X59861Y-38558D02*
X59700Y-38396D01*
X59700Y-38396D02*
X59539Y-38558D01*
X59539Y-38558D02*
X59319Y-38649D01*
X59319Y-38649D02*
X59081Y-38649D01*
X59081Y-38649D02*
X58861Y-38558D01*
X58861Y-38558D02*
X58700Y-38397D01*
X58700Y-38397D02*
X58539Y-38558D01*
X58539Y-38558D02*
X58319Y-38649D01*
X58319Y-38649D02*
X58081Y-38649D01*
X58081Y-38649D02*
X57861Y-38558D01*
X57861Y-38558D02*
X57700Y-38397D01*
X57700Y-38397D02*
X57539Y-38558D01*
X57539Y-38558D02*
X57319Y-38649D01*
X57319Y-38649D02*
X57081Y-38649D01*
X57081Y-38649D02*
X56861Y-38558D01*
X56861Y-38558D02*
X56785Y-38482D01*
X56785Y-38482D02*
X56761Y-38541D01*
X56761Y-38541D02*
X56691Y-38611D01*
X56691Y-38611D02*
X56599Y-38649D01*
X56599Y-38649D02*
X56312Y-38650D01*
X56312Y-38650D02*
X56312Y-40302D01*
X56312Y-40302D02*
X56376Y-40276D01*
X56376Y-40276D02*
X57025Y-40276D01*
X57025Y-40276D02*
X57116Y-40314D01*
X57116Y-40314D02*
X57186Y-40384D01*
X57186Y-40384D02*
X57224Y-40476D01*
X57224Y-40476D02*
X57224Y-41125D01*
X57224Y-41125D02*
X57186Y-41216D01*
X57186Y-41216D02*
X57116Y-41286D01*
X57116Y-41286D02*
X57024Y-41324D01*
X57024Y-41324D02*
X56923Y-41323D01*
X56923Y-41323D02*
X56998Y-41355D01*
X56998Y-41355D02*
X57145Y-41503D01*
X57145Y-41503D02*
X57225Y-41696D01*
X57225Y-41696D02*
X57225Y-41905D01*
X57225Y-41905D02*
X57145Y-42098D01*
X57145Y-42098D02*
X56997Y-42245D01*
X56997Y-42245D02*
X56864Y-42299D01*
X56864Y-42299D02*
X56998Y-42355D01*
X56998Y-42355D02*
X57145Y-42503D01*
X57145Y-42503D02*
X57225Y-42696D01*
X57225Y-42696D02*
X57225Y-42905D01*
X57225Y-42905D02*
X57145Y-43098D01*
X57145Y-43098D02*
X56997Y-43245D01*
X56997Y-43245D02*
X56864Y-43299D01*
X56864Y-43299D02*
X56998Y-43355D01*
X56998Y-43355D02*
X57145Y-43503D01*
X57145Y-43503D02*
X57225Y-43696D01*
X57225Y-43696D02*
X57225Y-43905D01*
X57225Y-43905D02*
X57145Y-44098D01*
X57145Y-44098D02*
X56997Y-44245D01*
X56997Y-44245D02*
X56864Y-44299D01*
X56864Y-44299D02*
X56998Y-44355D01*
X56998Y-44355D02*
X57145Y-44503D01*
X57145Y-44503D02*
X57225Y-44696D01*
X57225Y-44696D02*
X57225Y-44905D01*
X57225Y-44905D02*
X57145Y-45098D01*
X57145Y-45098D02*
X56997Y-45245D01*
X56997Y-45245D02*
X56864Y-45299D01*
X56864Y-45299D02*
X56998Y-45355D01*
X56998Y-45355D02*
X57145Y-45503D01*
X57145Y-45503D02*
X57225Y-45696D01*
X57225Y-45696D02*
X57225Y-45905D01*
X57225Y-45905D02*
X57145Y-46098D01*
X57145Y-46098D02*
X56997Y-46245D01*
X56997Y-46245D02*
X56864Y-46299D01*
X56864Y-46299D02*
X56998Y-46355D01*
X56998Y-46355D02*
X57145Y-46503D01*
X57145Y-46503D02*
X57225Y-46696D01*
X57225Y-46696D02*
X57225Y-46905D01*
X57225Y-46905D02*
X57145Y-47098D01*
X57145Y-47098D02*
X56997Y-47245D01*
X56997Y-47245D02*
X56804Y-47325D01*
X56804Y-47325D02*
X56595Y-47325D01*
X56595Y-47325D02*
X56595Y-47805D01*
X56595Y-47805D02*
X59595Y-47805D01*
X59595Y-47805D02*
X59595Y-47325D01*
X59595Y-47325D02*
X59402Y-47245D01*
X59402Y-47245D02*
X59255Y-47097D01*
X59255Y-47097D02*
X59175Y-46904D01*
X59175Y-46904D02*
X59175Y-46695D01*
X59175Y-46695D02*
X59255Y-46502D01*
X59255Y-46502D02*
X59403Y-46355D01*
X59403Y-46355D02*
X59535Y-46300D01*
X59535Y-46300D02*
X59402Y-46245D01*
X59402Y-46245D02*
X59255Y-46097D01*
X59255Y-46097D02*
X59175Y-45904D01*
X59175Y-45904D02*
X59175Y-45695D01*
X59175Y-45695D02*
X59255Y-45502D01*
X59255Y-45502D02*
X59403Y-45355D01*
X59403Y-45355D02*
X59535Y-45300D01*
X59535Y-45300D02*
X59402Y-45245D01*
X59402Y-45245D02*
X59255Y-45097D01*
X59255Y-45097D02*
X59175Y-44904D01*
X59175Y-44904D02*
X59175Y-44695D01*
X59175Y-44695D02*
X59255Y-44502D01*
X59255Y-44502D02*
X59403Y-44355D01*
X59403Y-44355D02*
X59535Y-44300D01*
X59535Y-44300D02*
X59402Y-44245D01*
X59402Y-44245D02*
X59255Y-44097D01*
X59255Y-44097D02*
X59175Y-43904D01*
X59175Y-43904D02*
X59175Y-43695D01*
X59175Y-43695D02*
X59255Y-43502D01*
X59255Y-43502D02*
X59403Y-43355D01*
X59403Y-43355D02*
X59535Y-43300D01*
X59535Y-43300D02*
X59402Y-43245D01*
X59402Y-43245D02*
X59255Y-43097D01*
X59255Y-43097D02*
X59175Y-42904D01*
X59175Y-42904D02*
X59175Y-42695D01*
X59175Y-42695D02*
X59255Y-42502D01*
X59255Y-42502D02*
X59403Y-42355D01*
X59403Y-42355D02*
X59535Y-42300D01*
X59535Y-42300D02*
X59402Y-42245D01*
X59402Y-42245D02*
X59255Y-42097D01*
X59255Y-42097D02*
X59175Y-41904D01*
X59175Y-41904D02*
X59175Y-41695D01*
X59175Y-41695D02*
X59255Y-41502D01*
X59255Y-41502D02*
X59339Y-41418D01*
X59339Y-41418D02*
X59339Y-41090D01*
X59339Y-41090D02*
X59248Y-41067D01*
X59248Y-41067D02*
X59192Y-40930D01*
X59192Y-40930D02*
X59181Y-40726D01*
X59181Y-40726D02*
X59248Y-40533D01*
X59248Y-40533D02*
X59339Y-40510D01*
X59339Y-40510D02*
X59629Y-40800D01*
X59629Y-40800D02*
X59339Y-41090D01*
X59339Y-41090D02*
X59339Y-41418D01*
X59339Y-41418D02*
X59403Y-41355D01*
X59403Y-41355D02*
X59551Y-41293D01*
X59551Y-41293D02*
X59433Y-41252D01*
X59433Y-41252D02*
X59410Y-41161D01*
X59410Y-41161D02*
X59700Y-40871D01*
X59700Y-40871D02*
X59700Y-40729D01*
X59700Y-40729D02*
X59410Y-40439D01*
X59410Y-40439D02*
X59433Y-40348D01*
X59433Y-40348D02*
X59570Y-40292D01*
X59570Y-40292D02*
X59774Y-40281D01*
X59774Y-40281D02*
X59967Y-40348D01*
X59967Y-40348D02*
X59990Y-40439D01*
X59990Y-40439D02*
X59700Y-40729D01*
X59700Y-40729D02*
X59700Y-40871D01*
X59700Y-40871D02*
X59990Y-41161D01*
X59990Y-41161D02*
X59967Y-41252D01*
X59967Y-41252D02*
X59857Y-41296D01*
X59857Y-41296D02*
X59998Y-41355D01*
X59998Y-41355D02*
X60061Y-41418D01*
X60061Y-41418D02*
X60061Y-41090D01*
X60061Y-41090D02*
X59771Y-40800D01*
X59771Y-40800D02*
X60061Y-40510D01*
X60061Y-40510D02*
X60152Y-40533D01*
X60152Y-40533D02*
X60208Y-40670D01*
X60208Y-40670D02*
X60219Y-40874D01*
X60219Y-40874D02*
X60152Y-41067D01*
X60152Y-41067D02*
X60061Y-41090D01*
X60061Y-41090D02*
X60061Y-41418D01*
X60061Y-41418D02*
X60145Y-41503D01*
X60145Y-41503D02*
X60225Y-41696D01*
X60225Y-41696D02*
X60225Y-41905D01*
X60225Y-41905D02*
X60145Y-42098D01*
X60145Y-42098D02*
X59997Y-42245D01*
X59997Y-42245D02*
X59864Y-42299D01*
X59864Y-42299D02*
X59998Y-42355D01*
X59998Y-42355D02*
X60145Y-42503D01*
X60145Y-42503D02*
X60225Y-42696D01*
X60225Y-42696D02*
X60225Y-42905D01*
X60225Y-42905D02*
X60145Y-43098D01*
X60145Y-43098D02*
X59997Y-43245D01*
X59997Y-43245D02*
X59864Y-43299D01*
X59864Y-43299D02*
X59998Y-43355D01*
X59998Y-43355D02*
X60117Y-43475D01*
X60117Y-43475D02*
X60865Y-43475D01*
X60865Y-43475D02*
X62070Y-42270D01*
X62070Y-42270D02*
X62176Y-42200D01*
X62176Y-42200D02*
X62300Y-42175D01*
X62300Y-42175D02*
X64623Y-42174D01*
X64623Y-42174D02*
X64479Y-42030D01*
X64479Y-42030D02*
X64350Y-41718D01*
X64350Y-41718D02*
X64350Y-41380D01*
X64350Y-41380D02*
X64480Y-41068D01*
X64480Y-41068D02*
X64720Y-40829D01*
X64720Y-40829D02*
X65032Y-40700D01*
X65032Y-40700D02*
X65370Y-40700D01*
X65370Y-40700D02*
X65682Y-40830D01*
X65682Y-40830D02*
X65921Y-41070D01*
X65921Y-41070D02*
X66050Y-41382D01*
X66050Y-41382D02*
X66050Y-41720D01*
X66050Y-41720D02*
X65920Y-42032D01*
X65920Y-42032D02*
X65680Y-42271D01*
X65680Y-42271D02*
X65368Y-42400D01*
X65368Y-42400D02*
X65030Y-42400D01*
X65030Y-42400D02*
X64995Y-42385D01*
X64995Y-42385D02*
X65834Y-43225D01*
X65834Y-43225D02*
X68020Y-43225D01*
X68020Y-43225D02*
X68020Y-37700D01*
X68020Y-37700D02*
X67689Y-37562D01*
X67689Y-37562D02*
X67437Y-37309D01*
X67437Y-37309D02*
X67300Y-36978D01*
X67300Y-36978D02*
X67300Y-36620D01*
X67300Y-36620D02*
X67438Y-36289D01*
X67438Y-36289D02*
X67691Y-36037D01*
X67691Y-36037D02*
X68022Y-35900D01*
X68022Y-35900D02*
X68380Y-35900D01*
X68380Y-35900D02*
X68711Y-36038D01*
X68711Y-36038D02*
X68963Y-36291D01*
X68963Y-36291D02*
X69100Y-36622D01*
X69100Y-36622D02*
X69100Y-36980D01*
X69100Y-36980D02*
X68962Y-37311D01*
X68962Y-37311D02*
X68709Y-37563D01*
X68709Y-37563D02*
X68378Y-37700D01*
X68378Y-37700D02*
X68020Y-37700D01*
X68020Y-37700D02*
X68020Y-43225D01*
X68020Y-43225D02*
X72626Y-43225D01*
X72626Y-43225D02*
X72626Y-43175D01*
X72626Y-43175D02*
X72664Y-43084D01*
X72664Y-43084D02*
X72734Y-43014D01*
X72734Y-43014D02*
X72826Y-42976D01*
X72826Y-42976D02*
X73575Y-42976D01*
X73575Y-42976D02*
X73666Y-43014D01*
X73666Y-43014D02*
X73736Y-43084D01*
X73736Y-43084D02*
X73770Y-43166D01*
X73770Y-43166D02*
X73875Y-43062D01*
X73875Y-43062D02*
X74086Y-42975D01*
X74086Y-42975D02*
X74315Y-42975D01*
X74315Y-42975D02*
X74526Y-43063D01*
X74526Y-43063D02*
X74688Y-43225D01*
X74688Y-43225D02*
X74775Y-43436D01*
X74775Y-43436D02*
X74775Y-43665D01*
X74775Y-43665D02*
X74687Y-43876D01*
X74687Y-43876D02*
X74525Y-44038D01*
X74525Y-44038D02*
X74314Y-44125D01*
X74314Y-44125D02*
X74085Y-44125D01*
X74085Y-44125D02*
X73874Y-44037D01*
X73874Y-44037D02*
X73770Y-43933D01*
X73770Y-43933D02*
X73736Y-44016D01*
X73736Y-44016D02*
X73666Y-44086D01*
X73666Y-44086D02*
X73574Y-44124D01*
X73574Y-44124D02*
X72825Y-44124D01*
X72825Y-44124D02*
X72734Y-44086D01*
X72734Y-44086D02*
X72664Y-44016D01*
X72664Y-44016D02*
X72626Y-43924D01*
X72626Y-43924D02*
X72626Y-43875D01*
X72626Y-43875D02*
X65699Y-43875D01*
X65699Y-43875D02*
X65576Y-43850D01*
X65576Y-43850D02*
X65470Y-43780D01*
X65470Y-43780D02*
X64515Y-42824D01*
X64515Y-42824D02*
X62434Y-42824D01*
X62434Y-42824D02*
X61230Y-44030D01*
X61230Y-44030D02*
X61124Y-44100D01*
X61124Y-44100D02*
X61000Y-44125D01*
X61000Y-44125D02*
X60117Y-44125D01*
X60117Y-44125D02*
X59997Y-44245D01*
X59997Y-44245D02*
X59864Y-44299D01*
X59864Y-44299D02*
X59998Y-44355D01*
X59998Y-44355D02*
X60145Y-44503D01*
X60145Y-44503D02*
X60225Y-44696D01*
X60225Y-44696D02*
X60225Y-44905D01*
X60225Y-44905D02*
X60145Y-45098D01*
X60145Y-45098D02*
X59997Y-45245D01*
X59997Y-45245D02*
X59864Y-45299D01*
X59864Y-45299D02*
X59998Y-45355D01*
X59998Y-45355D02*
X60145Y-45503D01*
X60145Y-45503D02*
X60225Y-45696D01*
X60225Y-45696D02*
X60225Y-45905D01*
X60225Y-45905D02*
X60145Y-46098D01*
X60145Y-46098D02*
X59997Y-46245D01*
X59997Y-46245D02*
X59864Y-46299D01*
X59864Y-46299D02*
X59998Y-46355D01*
X59998Y-46355D02*
X60117Y-46475D01*
X60117Y-46475D02*
X61030Y-46475D01*
X61030Y-46475D02*
X61030Y-46400D01*
X61030Y-46400D02*
X60718Y-46270D01*
X60718Y-46270D02*
X60479Y-46030D01*
X60479Y-46030D02*
X60350Y-45718D01*
X60350Y-45718D02*
X60350Y-45380D01*
X60350Y-45380D02*
X60480Y-45068D01*
X60480Y-45068D02*
X60720Y-44829D01*
X60720Y-44829D02*
X61032Y-44700D01*
X61032Y-44700D02*
X61370Y-44700D01*
X61370Y-44700D02*
X61682Y-44830D01*
X61682Y-44830D02*
X61921Y-45070D01*
X61921Y-45070D02*
X62050Y-45382D01*
X62050Y-45382D02*
X62050Y-45720D01*
X62050Y-45720D02*
X61920Y-46032D01*
X61920Y-46032D02*
X61680Y-46271D01*
X61680Y-46271D02*
X61368Y-46400D01*
X61368Y-46400D02*
X61030Y-46400D01*
X61030Y-46400D02*
X61030Y-46475D01*
X61030Y-46475D02*
X62365Y-46475D01*
X62365Y-46475D02*
X62875Y-45965D01*
X62875Y-45965D02*
X62875Y-44124D01*
X62875Y-44124D02*
X62825Y-44124D01*
X62825Y-44124D02*
X62734Y-44086D01*
X62734Y-44086D02*
X62664Y-44016D01*
X62664Y-44016D02*
X62626Y-43924D01*
X62626Y-43924D02*
X62626Y-43175D01*
X62626Y-43175D02*
X62664Y-43084D01*
X62664Y-43084D02*
X62734Y-43014D01*
X62734Y-43014D02*
X62826Y-42976D01*
X62826Y-42976D02*
X63575Y-42976D01*
X63575Y-42976D02*
X63666Y-43014D01*
X63666Y-43014D02*
X63736Y-43084D01*
X63736Y-43084D02*
X63770Y-43166D01*
X63770Y-43166D02*
X63875Y-43062D01*
X63875Y-43062D02*
X64086Y-42975D01*
X64086Y-42975D02*
X64315Y-42975D01*
X64315Y-42975D02*
X64526Y-43063D01*
X64526Y-43063D02*
X64688Y-43225D01*
X64688Y-43225D02*
X64775Y-43436D01*
X64775Y-43436D02*
X64775Y-43665D01*
X64775Y-43665D02*
X64687Y-43876D01*
X64687Y-43876D02*
X64525Y-44038D01*
X64525Y-44038D02*
X64314Y-44125D01*
X64314Y-44125D02*
X64085Y-44125D01*
X64085Y-44125D02*
X63874Y-44037D01*
X63874Y-44037D02*
X63770Y-43933D01*
X63770Y-43933D02*
X63736Y-44016D01*
X63736Y-44016D02*
X63666Y-44086D01*
X63666Y-44086D02*
X63574Y-44124D01*
X63574Y-44124D02*
X63525Y-44124D01*
X63525Y-44124D02*
X63524Y-46100D01*
X63524Y-46100D02*
X63500Y-46224D01*
X63500Y-46224D02*
X63430Y-46330D01*
X63430Y-46330D02*
X63427Y-46331D01*
X63427Y-46331D02*
X62730Y-47030D01*
X62730Y-47030D02*
X62624Y-47100D01*
X62624Y-47100D02*
X62500Y-47125D01*
X62500Y-47125D02*
X60117Y-47125D01*
X60117Y-47125D02*
X59997Y-47245D01*
X59997Y-47245D02*
X59804Y-47325D01*
X59804Y-47325D02*
X59595Y-47325D01*
X59595Y-47325D02*
X59595Y-47805D01*
X59595Y-47805D02*
X65030Y-47805D01*
X65030Y-47805D02*
X65030Y-46400D01*
X65030Y-46400D02*
X64718Y-46270D01*
X64718Y-46270D02*
X64479Y-46030D01*
X64479Y-46030D02*
X64350Y-45718D01*
X64350Y-45718D02*
X64350Y-45380D01*
X64350Y-45380D02*
X64480Y-45068D01*
X64480Y-45068D02*
X64720Y-44829D01*
X64720Y-44829D02*
X65032Y-44700D01*
X65032Y-44700D02*
X65370Y-44700D01*
X65370Y-44700D02*
X65682Y-44830D01*
X65682Y-44830D02*
X65921Y-45070D01*
X65921Y-45070D02*
X66050Y-45382D01*
X66050Y-45382D02*
X66050Y-45720D01*
X66050Y-45720D02*
X65920Y-46032D01*
X65920Y-46032D02*
X65680Y-46271D01*
X65680Y-46271D02*
X65368Y-46400D01*
X65368Y-46400D02*
X65030Y-46400D01*
X65030Y-46400D02*
X65030Y-47805D01*
X65030Y-47805D02*
X68020Y-47805D01*
X68020Y-47805D02*
X68020Y-47700D01*
X68020Y-47700D02*
X67689Y-47562D01*
X67689Y-47562D02*
X67437Y-47309D01*
X67437Y-47309D02*
X67300Y-46978D01*
X67300Y-46978D02*
X67300Y-46620D01*
X67300Y-46620D02*
X67438Y-46289D01*
X67438Y-46289D02*
X67691Y-46037D01*
X67691Y-46037D02*
X68022Y-45900D01*
X68022Y-45900D02*
X68380Y-45900D01*
X68380Y-45900D02*
X68711Y-46038D01*
X68711Y-46038D02*
X68963Y-46291D01*
X68963Y-46291D02*
X69100Y-46622D01*
X69100Y-46622D02*
X69100Y-46980D01*
X69100Y-46980D02*
X68962Y-47311D01*
X68962Y-47311D02*
X68709Y-47563D01*
X68709Y-47563D02*
X68378Y-47700D01*
X68378Y-47700D02*
X68020Y-47700D01*
X68020Y-47700D02*
X68020Y-47805D01*
X68020Y-47805D02*
X71030Y-47805D01*
X71030Y-47805D02*
X71030Y-46400D01*
X71030Y-46400D02*
X70718Y-46270D01*
X70718Y-46270D02*
X70479Y-46030D01*
X70479Y-46030D02*
X70350Y-45718D01*
X70350Y-45718D02*
X70350Y-45380D01*
X70350Y-45380D02*
X70480Y-45068D01*
X70480Y-45068D02*
X70720Y-44829D01*
X70720Y-44829D02*
X71032Y-44700D01*
X71032Y-44700D02*
X71370Y-44700D01*
X71370Y-44700D02*
X71682Y-44830D01*
X71682Y-44830D02*
X71921Y-45070D01*
X71921Y-45070D02*
X72050Y-45382D01*
X72050Y-45382D02*
X72050Y-45720D01*
X72050Y-45720D02*
X71920Y-46032D01*
X71920Y-46032D02*
X71680Y-46271D01*
X71680Y-46271D02*
X71368Y-46400D01*
X71368Y-46400D02*
X71030Y-46400D01*
X71030Y-46400D02*
X71030Y-47805D01*
X71030Y-47805D02*
X75030Y-47805D01*
X75030Y-47805D02*
X75030Y-46400D01*
X75030Y-46400D02*
X74718Y-46270D01*
X74718Y-46270D02*
X74479Y-46030D01*
X74479Y-46030D02*
X74350Y-45718D01*
X74350Y-45718D02*
X74350Y-45380D01*
X74350Y-45380D02*
X74480Y-45068D01*
X74480Y-45068D02*
X74720Y-44829D01*
X74720Y-44829D02*
X75030Y-44700D01*
X75030Y-44700D02*
X75030Y-42400D01*
X75030Y-42400D02*
X74718Y-42270D01*
X74718Y-42270D02*
X74479Y-42030D01*
X74479Y-42030D02*
X74350Y-41718D01*
X74350Y-41718D02*
X74350Y-41380D01*
X74350Y-41380D02*
X74480Y-41068D01*
X74480Y-41068D02*
X74720Y-40829D01*
X74720Y-40829D02*
X75032Y-40700D01*
X75032Y-40700D02*
X75370Y-40700D01*
X75370Y-40700D02*
X75682Y-40830D01*
X75682Y-40830D02*
X75921Y-41070D01*
X75921Y-41070D02*
X76050Y-41382D01*
X76050Y-41382D02*
X76050Y-41720D01*
X76050Y-41720D02*
X75920Y-42032D01*
X75920Y-42032D02*
X75680Y-42271D01*
X75680Y-42271D02*
X75368Y-42400D01*
X75368Y-42400D02*
X75030Y-42400D01*
X75030Y-42400D02*
X75030Y-44700D01*
X75030Y-44700D02*
X75370Y-44700D01*
X75370Y-44700D02*
X75682Y-44830D01*
X75682Y-44830D02*
X75921Y-45070D01*
X75921Y-45070D02*
X76050Y-45382D01*
X76050Y-45382D02*
X76050Y-45720D01*
X76050Y-45720D02*
X75920Y-46032D01*
X75920Y-46032D02*
X75680Y-46271D01*
X75680Y-46271D02*
X75368Y-46400D01*
X75368Y-46400D02*
X75030Y-46400D01*
X75030Y-46400D02*
X75030Y-47805D01*
X75030Y-47805D02*
X77955Y-47805D01*
M02*
