G04 (created by PCBNEW-RS274X (20100406 SVN-R2509)-final) date Thu 17 Jun 2010 02:34:41 PM PDT*
G01*
G70*
G90*
%MOIN*%
G04 Gerber Fmt 3.4, Leading zero omitted, Abs format*
%FSLAX34Y34*%
G04 APERTURE LIST*
%ADD10C,0.001000*%
%ADD11C,0.009000*%
%ADD12C,0.120000*%
%ADD13R,0.065000X0.065000*%
%ADD14C,0.065000*%
%ADD15C,0.130000*%
%ADD16R,0.070000X0.070000*%
%ADD17C,0.070000*%
%ADD18C,0.010000*%
G04 APERTURE END LIST*
G54D10*
G54D11*
X62750Y-22000D02*
X50250Y-22000D01*
X62750Y-62000D02*
X62750Y-22000D01*
X50250Y-62000D02*
X62750Y-62000D01*
X50250Y-22000D02*
X50250Y-62000D01*
G54D12*
X52750Y-55000D03*
X52750Y-59000D03*
G54D13*
X54750Y-57000D03*
G54D14*
X54750Y-56000D03*
G54D12*
X56750Y-55000D03*
X52750Y-45000D03*
X52750Y-49000D03*
G54D13*
X54750Y-47000D03*
G54D14*
X54750Y-46000D03*
G54D12*
X56750Y-45000D03*
X52750Y-35000D03*
X52750Y-39000D03*
G54D13*
X54750Y-37000D03*
G54D14*
X54750Y-36000D03*
G54D12*
X56750Y-35000D03*
X52750Y-25000D03*
X52750Y-29000D03*
G54D13*
X54750Y-27000D03*
G54D14*
X54750Y-26000D03*
G54D12*
X56750Y-25000D03*
G54D15*
X51500Y-32000D03*
X61500Y-32000D03*
X51500Y-52000D03*
X61500Y-52000D03*
G54D16*
X60250Y-40000D03*
G54D17*
X61250Y-40000D03*
X60250Y-41000D03*
X61250Y-41000D03*
X60250Y-42000D03*
X61250Y-42000D03*
X60250Y-43000D03*
X61250Y-43000D03*
X60250Y-44000D03*
X61250Y-44000D03*
G54D18*
X50525Y-22275D02*
X62475Y-22275D01*
X50525Y-22355D02*
X62475Y-22355D01*
X50525Y-22435D02*
X62475Y-22435D01*
X50525Y-22515D02*
X62475Y-22515D01*
X50525Y-22595D02*
X62475Y-22595D01*
X50525Y-22675D02*
X62475Y-22675D01*
X50525Y-22755D02*
X62475Y-22755D01*
X50525Y-22835D02*
X62475Y-22835D01*
X50525Y-22915D02*
X62475Y-22915D01*
X50525Y-22995D02*
X62475Y-22995D01*
X50525Y-23075D02*
X62475Y-23075D01*
X50525Y-23155D02*
X62475Y-23155D01*
X50525Y-23235D02*
X62475Y-23235D01*
X50525Y-23315D02*
X62475Y-23315D01*
X50525Y-23395D02*
X62475Y-23395D01*
X50525Y-23475D02*
X62475Y-23475D01*
X50525Y-23555D02*
X62475Y-23555D01*
X50525Y-23635D02*
X62475Y-23635D01*
X50525Y-23715D02*
X62475Y-23715D01*
X50525Y-23795D02*
X62475Y-23795D01*
X50525Y-23875D02*
X62475Y-23875D01*
X50525Y-23955D02*
X62475Y-23955D01*
X50525Y-24035D02*
X62475Y-24035D01*
X50525Y-24115D02*
X62475Y-24115D01*
X50525Y-24195D02*
X52474Y-24195D01*
X53028Y-24195D02*
X56474Y-24195D01*
X57028Y-24195D02*
X62475Y-24195D01*
X50525Y-24275D02*
X52280Y-24275D01*
X53220Y-24275D02*
X56280Y-24275D01*
X57220Y-24275D02*
X62475Y-24275D01*
X50525Y-24355D02*
X52194Y-24355D01*
X53307Y-24355D02*
X56194Y-24355D01*
X57307Y-24355D02*
X62475Y-24355D01*
X50525Y-24435D02*
X52114Y-24435D01*
X53387Y-24435D02*
X56114Y-24435D01*
X57387Y-24435D02*
X62475Y-24435D01*
X50525Y-24515D02*
X52034Y-24515D01*
X53467Y-24515D02*
X56034Y-24515D01*
X57467Y-24515D02*
X62475Y-24515D01*
X50525Y-24595D02*
X51998Y-24595D01*
X53503Y-24595D02*
X55998Y-24595D01*
X57503Y-24595D02*
X62475Y-24595D01*
X50525Y-24675D02*
X51965Y-24675D01*
X53536Y-24675D02*
X55965Y-24675D01*
X57536Y-24675D02*
X62475Y-24675D01*
X50525Y-24755D02*
X51932Y-24755D01*
X53569Y-24755D02*
X55932Y-24755D01*
X57569Y-24755D02*
X62475Y-24755D01*
X50525Y-24835D02*
X51900Y-24835D01*
X53600Y-24835D02*
X55900Y-24835D01*
X57600Y-24835D02*
X62475Y-24835D01*
X50525Y-24915D02*
X51900Y-24915D01*
X53600Y-24915D02*
X55900Y-24915D01*
X57600Y-24915D02*
X62475Y-24915D01*
X50525Y-24995D02*
X51900Y-24995D01*
X53600Y-24995D02*
X55900Y-24995D01*
X57600Y-24995D02*
X62475Y-24995D01*
X50525Y-25075D02*
X51900Y-25075D01*
X53600Y-25075D02*
X55900Y-25075D01*
X57600Y-25075D02*
X62475Y-25075D01*
X50525Y-25155D02*
X51900Y-25155D01*
X53600Y-25155D02*
X55900Y-25155D01*
X57600Y-25155D02*
X62475Y-25155D01*
X50525Y-25235D02*
X51927Y-25235D01*
X53572Y-25235D02*
X55927Y-25235D01*
X57572Y-25235D02*
X62475Y-25235D01*
X50525Y-25315D02*
X51960Y-25315D01*
X53539Y-25315D02*
X55960Y-25315D01*
X57539Y-25315D02*
X62475Y-25315D01*
X50525Y-25395D02*
X51993Y-25395D01*
X53506Y-25395D02*
X55993Y-25395D01*
X57506Y-25395D02*
X62475Y-25395D01*
X50525Y-25475D02*
X52026Y-25475D01*
X53472Y-25475D02*
X54515Y-25475D01*
X54985Y-25475D02*
X56026Y-25475D01*
X57472Y-25475D02*
X62475Y-25475D01*
X50525Y-25555D02*
X52103Y-25555D01*
X53396Y-25555D02*
X54382Y-25555D01*
X55118Y-25555D02*
X56103Y-25555D01*
X57396Y-25555D02*
X62475Y-25555D01*
X50525Y-25635D02*
X52183Y-25635D01*
X53316Y-25635D02*
X54302Y-25635D01*
X55198Y-25635D02*
X56183Y-25635D01*
X57316Y-25635D02*
X62475Y-25635D01*
X50525Y-25715D02*
X52263Y-25715D01*
X53236Y-25715D02*
X54246Y-25715D01*
X55255Y-25715D02*
X56263Y-25715D01*
X57236Y-25715D02*
X62475Y-25715D01*
X50525Y-25795D02*
X52448Y-25795D01*
X53051Y-25795D02*
X54213Y-25795D01*
X55288Y-25795D02*
X56448Y-25795D01*
X57051Y-25795D02*
X62475Y-25795D01*
X50525Y-25875D02*
X54180Y-25875D01*
X55321Y-25875D02*
X62475Y-25875D01*
X50525Y-25955D02*
X54175Y-25955D01*
X55325Y-25955D02*
X62475Y-25955D01*
X50525Y-26035D02*
X54175Y-26035D01*
X55325Y-26035D02*
X62475Y-26035D01*
X50525Y-26115D02*
X54175Y-26115D01*
X55325Y-26115D02*
X62475Y-26115D01*
X50525Y-26195D02*
X54208Y-26195D01*
X55291Y-26195D02*
X62475Y-26195D01*
X50525Y-26275D02*
X54241Y-26275D01*
X55258Y-26275D02*
X62475Y-26275D01*
X50525Y-26355D02*
X54292Y-26355D01*
X55207Y-26355D02*
X62475Y-26355D01*
X50525Y-26435D02*
X54352Y-26435D01*
X55148Y-26435D02*
X62475Y-26435D01*
X50525Y-26515D02*
X54233Y-26515D01*
X55267Y-26515D02*
X62475Y-26515D01*
X50525Y-26595D02*
X54189Y-26595D01*
X55312Y-26595D02*
X62475Y-26595D01*
X50525Y-26675D02*
X54176Y-26675D01*
X55324Y-26675D02*
X62475Y-26675D01*
X50525Y-26755D02*
X54176Y-26755D01*
X55324Y-26755D02*
X62475Y-26755D01*
X50525Y-26835D02*
X54176Y-26835D01*
X55324Y-26835D02*
X62475Y-26835D01*
X50525Y-26915D02*
X54176Y-26915D01*
X55324Y-26915D02*
X62475Y-26915D01*
X50525Y-26995D02*
X54176Y-26995D01*
X55324Y-26995D02*
X62475Y-26995D01*
X50525Y-27075D02*
X54176Y-27075D01*
X55324Y-27075D02*
X62475Y-27075D01*
X50525Y-27155D02*
X54176Y-27155D01*
X55324Y-27155D02*
X62475Y-27155D01*
X50525Y-27235D02*
X54176Y-27235D01*
X55324Y-27235D02*
X62475Y-27235D01*
X50525Y-27315D02*
X54176Y-27315D01*
X55324Y-27315D02*
X62475Y-27315D01*
X50525Y-27395D02*
X54184Y-27395D01*
X55315Y-27395D02*
X62475Y-27395D01*
X50525Y-27475D02*
X54223Y-27475D01*
X55277Y-27475D02*
X62475Y-27475D01*
X50525Y-27555D02*
X54329Y-27555D01*
X55170Y-27555D02*
X62475Y-27555D01*
X50525Y-27635D02*
X62475Y-27635D01*
X50525Y-27715D02*
X62475Y-27715D01*
X50525Y-27795D02*
X62475Y-27795D01*
X50525Y-27875D02*
X62475Y-27875D01*
X50525Y-27955D02*
X62475Y-27955D01*
X50525Y-28035D02*
X62475Y-28035D01*
X50525Y-28115D02*
X62475Y-28115D01*
X50525Y-28195D02*
X52472Y-28195D01*
X53028Y-28195D02*
X62475Y-28195D01*
X50525Y-28275D02*
X52280Y-28275D01*
X53220Y-28275D02*
X62475Y-28275D01*
X50525Y-28355D02*
X52194Y-28355D01*
X53307Y-28355D02*
X62475Y-28355D01*
X50525Y-28435D02*
X52114Y-28435D01*
X53387Y-28435D02*
X62475Y-28435D01*
X50525Y-28515D02*
X52034Y-28515D01*
X53467Y-28515D02*
X62475Y-28515D01*
X50525Y-28595D02*
X51998Y-28595D01*
X53503Y-28595D02*
X62475Y-28595D01*
X50525Y-28675D02*
X51965Y-28675D01*
X53536Y-28675D02*
X62475Y-28675D01*
X50525Y-28755D02*
X51932Y-28755D01*
X53569Y-28755D02*
X62475Y-28755D01*
X50525Y-28835D02*
X51900Y-28835D01*
X53600Y-28835D02*
X62475Y-28835D01*
X50525Y-28915D02*
X51900Y-28915D01*
X53600Y-28915D02*
X62475Y-28915D01*
X50525Y-28995D02*
X51900Y-28995D01*
X53600Y-28995D02*
X62475Y-28995D01*
X50525Y-29075D02*
X51900Y-29075D01*
X53600Y-29075D02*
X62475Y-29075D01*
X50525Y-29155D02*
X51900Y-29155D01*
X53600Y-29155D02*
X62475Y-29155D01*
X50525Y-29235D02*
X51927Y-29235D01*
X53572Y-29235D02*
X62475Y-29235D01*
X50525Y-29315D02*
X51960Y-29315D01*
X53539Y-29315D02*
X62475Y-29315D01*
X50525Y-29395D02*
X51993Y-29395D01*
X53506Y-29395D02*
X62475Y-29395D01*
X50525Y-29475D02*
X52026Y-29475D01*
X53472Y-29475D02*
X62475Y-29475D01*
X50525Y-29555D02*
X52103Y-29555D01*
X53396Y-29555D02*
X62475Y-29555D01*
X50525Y-29635D02*
X52183Y-29635D01*
X53316Y-29635D02*
X62475Y-29635D01*
X50525Y-29715D02*
X52263Y-29715D01*
X53236Y-29715D02*
X62475Y-29715D01*
X50525Y-29795D02*
X52448Y-29795D01*
X53051Y-29795D02*
X62475Y-29795D01*
X50525Y-29875D02*
X62475Y-29875D01*
X50525Y-29955D02*
X62475Y-29955D01*
X50525Y-30035D02*
X62475Y-30035D01*
X50525Y-30115D02*
X62475Y-30115D01*
X50525Y-30195D02*
X62475Y-30195D01*
X50525Y-30275D02*
X62475Y-30275D01*
X50525Y-30355D02*
X62475Y-30355D01*
X50525Y-30435D02*
X62475Y-30435D01*
X50525Y-30515D02*
X62475Y-30515D01*
X50525Y-30595D02*
X62475Y-30595D01*
X50525Y-30675D02*
X62475Y-30675D01*
X50525Y-30755D02*
X62475Y-30755D01*
X50525Y-30835D02*
X62475Y-30835D01*
X50525Y-30915D02*
X62475Y-30915D01*
X50525Y-30995D02*
X62475Y-30995D01*
X50525Y-31075D02*
X62475Y-31075D01*
X50525Y-31155D02*
X51190Y-31155D01*
X51812Y-31155D02*
X61190Y-31155D01*
X61812Y-31155D02*
X62475Y-31155D01*
X50525Y-31235D02*
X50996Y-31235D01*
X52004Y-31235D02*
X60996Y-31235D01*
X62004Y-31235D02*
X62475Y-31235D01*
X50525Y-31315D02*
X50913Y-31315D01*
X52088Y-31315D02*
X60913Y-31315D01*
X62088Y-31315D02*
X62475Y-31315D01*
X50525Y-31395D02*
X50833Y-31395D01*
X52168Y-31395D02*
X60833Y-31395D01*
X62168Y-31395D02*
X62475Y-31395D01*
X50525Y-31475D02*
X50753Y-31475D01*
X52248Y-31475D02*
X60753Y-31475D01*
X62248Y-31475D02*
X62475Y-31475D01*
X50525Y-31555D02*
X50711Y-31555D01*
X52290Y-31555D02*
X60711Y-31555D01*
X62290Y-31555D02*
X62475Y-31555D01*
X50525Y-31635D02*
X50678Y-31635D01*
X52323Y-31635D02*
X60678Y-31635D01*
X62323Y-31635D02*
X62475Y-31635D01*
X50525Y-31715D02*
X50644Y-31715D01*
X52356Y-31715D02*
X60644Y-31715D01*
X62356Y-31715D02*
X62475Y-31715D01*
X50525Y-31795D02*
X50611Y-31795D01*
X52389Y-31795D02*
X60611Y-31795D01*
X62389Y-31795D02*
X62475Y-31795D01*
X50525Y-31875D02*
X50600Y-31875D01*
X52400Y-31875D02*
X60600Y-31875D01*
X62400Y-31875D02*
X62475Y-31875D01*
X50525Y-31955D02*
X50600Y-31955D01*
X52400Y-31955D02*
X60600Y-31955D01*
X62400Y-31955D02*
X62475Y-31955D01*
X50525Y-32035D02*
X50600Y-32035D01*
X52400Y-32035D02*
X60600Y-32035D01*
X62400Y-32035D02*
X62475Y-32035D01*
X50525Y-32115D02*
X50600Y-32115D01*
X52400Y-32115D02*
X60600Y-32115D01*
X62400Y-32115D02*
X62475Y-32115D01*
X50525Y-32195D02*
X50607Y-32195D01*
X52393Y-32195D02*
X60607Y-32195D01*
X62393Y-32195D02*
X62475Y-32195D01*
X50525Y-32275D02*
X50640Y-32275D01*
X52360Y-32275D02*
X60640Y-32275D01*
X62360Y-32275D02*
X62475Y-32275D01*
X50525Y-32355D02*
X50673Y-32355D01*
X52327Y-32355D02*
X60673Y-32355D01*
X62327Y-32355D02*
X62475Y-32355D01*
X50525Y-32435D02*
X50706Y-32435D01*
X52293Y-32435D02*
X60706Y-32435D01*
X62293Y-32435D02*
X62475Y-32435D01*
X50525Y-32515D02*
X50742Y-32515D01*
X52257Y-32515D02*
X60742Y-32515D01*
X62257Y-32515D02*
X62475Y-32515D01*
X50525Y-32595D02*
X50822Y-32595D01*
X52177Y-32595D02*
X60822Y-32595D01*
X62177Y-32595D02*
X62475Y-32595D01*
X50525Y-32675D02*
X50902Y-32675D01*
X52097Y-32675D02*
X60902Y-32675D01*
X62097Y-32675D02*
X62475Y-32675D01*
X50525Y-32755D02*
X50982Y-32755D01*
X52017Y-32755D02*
X60982Y-32755D01*
X62017Y-32755D02*
X62475Y-32755D01*
X50525Y-32835D02*
X51164Y-32835D01*
X51835Y-32835D02*
X61164Y-32835D01*
X61835Y-32835D02*
X62475Y-32835D01*
X50525Y-32915D02*
X62475Y-32915D01*
X50525Y-32995D02*
X62475Y-32995D01*
X50525Y-33075D02*
X62475Y-33075D01*
X50525Y-33155D02*
X62475Y-33155D01*
X50525Y-33235D02*
X62475Y-33235D01*
X50525Y-33315D02*
X62475Y-33315D01*
X50525Y-33395D02*
X62475Y-33395D01*
X50525Y-33475D02*
X62475Y-33475D01*
X50525Y-33555D02*
X62475Y-33555D01*
X50525Y-33635D02*
X62475Y-33635D01*
X50525Y-33715D02*
X62475Y-33715D01*
X50525Y-33795D02*
X62475Y-33795D01*
X50525Y-33875D02*
X62475Y-33875D01*
X50525Y-33955D02*
X62475Y-33955D01*
X50525Y-34035D02*
X62475Y-34035D01*
X50525Y-34115D02*
X62475Y-34115D01*
X50525Y-34195D02*
X52472Y-34195D01*
X53028Y-34195D02*
X56472Y-34195D01*
X57028Y-34195D02*
X62475Y-34195D01*
X50525Y-34275D02*
X52280Y-34275D01*
X53220Y-34275D02*
X56280Y-34275D01*
X57220Y-34275D02*
X62475Y-34275D01*
X50525Y-34355D02*
X52194Y-34355D01*
X53307Y-34355D02*
X56194Y-34355D01*
X57307Y-34355D02*
X62475Y-34355D01*
X50525Y-34435D02*
X52114Y-34435D01*
X53387Y-34435D02*
X56114Y-34435D01*
X57387Y-34435D02*
X62475Y-34435D01*
X50525Y-34515D02*
X52034Y-34515D01*
X53467Y-34515D02*
X56034Y-34515D01*
X57467Y-34515D02*
X62475Y-34515D01*
X50525Y-34595D02*
X51998Y-34595D01*
X53503Y-34595D02*
X55998Y-34595D01*
X57503Y-34595D02*
X62475Y-34595D01*
X50525Y-34675D02*
X51965Y-34675D01*
X53536Y-34675D02*
X55965Y-34675D01*
X57536Y-34675D02*
X62475Y-34675D01*
X50525Y-34755D02*
X51932Y-34755D01*
X53569Y-34755D02*
X55932Y-34755D01*
X57569Y-34755D02*
X62475Y-34755D01*
X50525Y-34835D02*
X51900Y-34835D01*
X53600Y-34835D02*
X55900Y-34835D01*
X57600Y-34835D02*
X62475Y-34835D01*
X50525Y-34915D02*
X51900Y-34915D01*
X53600Y-34915D02*
X55900Y-34915D01*
X57600Y-34915D02*
X62475Y-34915D01*
X50525Y-34995D02*
X51900Y-34995D01*
X53600Y-34995D02*
X55900Y-34995D01*
X57600Y-34995D02*
X62475Y-34995D01*
X50525Y-35075D02*
X51900Y-35075D01*
X53600Y-35075D02*
X55900Y-35075D01*
X57600Y-35075D02*
X62475Y-35075D01*
X50525Y-35155D02*
X51900Y-35155D01*
X53600Y-35155D02*
X55900Y-35155D01*
X57600Y-35155D02*
X62475Y-35155D01*
X50525Y-35235D02*
X51927Y-35235D01*
X53572Y-35235D02*
X55927Y-35235D01*
X57572Y-35235D02*
X62475Y-35235D01*
X50525Y-35315D02*
X51960Y-35315D01*
X53539Y-35315D02*
X55960Y-35315D01*
X57539Y-35315D02*
X62475Y-35315D01*
X50525Y-35395D02*
X51993Y-35395D01*
X53506Y-35395D02*
X55993Y-35395D01*
X57506Y-35395D02*
X62475Y-35395D01*
X50525Y-35475D02*
X52026Y-35475D01*
X53472Y-35475D02*
X54515Y-35475D01*
X54985Y-35475D02*
X56026Y-35475D01*
X57472Y-35475D02*
X62475Y-35475D01*
X50525Y-35555D02*
X52103Y-35555D01*
X53396Y-35555D02*
X54382Y-35555D01*
X55118Y-35555D02*
X56103Y-35555D01*
X57396Y-35555D02*
X62475Y-35555D01*
X50525Y-35635D02*
X52183Y-35635D01*
X53316Y-35635D02*
X54302Y-35635D01*
X55198Y-35635D02*
X56183Y-35635D01*
X57316Y-35635D02*
X62475Y-35635D01*
X50525Y-35715D02*
X52263Y-35715D01*
X53236Y-35715D02*
X54246Y-35715D01*
X55255Y-35715D02*
X56263Y-35715D01*
X57236Y-35715D02*
X62475Y-35715D01*
X50525Y-35795D02*
X52448Y-35795D01*
X53051Y-35795D02*
X54213Y-35795D01*
X55288Y-35795D02*
X56448Y-35795D01*
X57051Y-35795D02*
X62475Y-35795D01*
X50525Y-35875D02*
X54180Y-35875D01*
X55321Y-35875D02*
X62475Y-35875D01*
X50525Y-35955D02*
X54175Y-35955D01*
X55325Y-35955D02*
X62475Y-35955D01*
X50525Y-36035D02*
X54175Y-36035D01*
X55325Y-36035D02*
X62475Y-36035D01*
X50525Y-36115D02*
X54175Y-36115D01*
X55325Y-36115D02*
X62475Y-36115D01*
X50525Y-36195D02*
X54208Y-36195D01*
X55291Y-36195D02*
X62475Y-36195D01*
X50525Y-36275D02*
X54241Y-36275D01*
X55258Y-36275D02*
X62475Y-36275D01*
X50525Y-36355D02*
X54292Y-36355D01*
X55207Y-36355D02*
X62475Y-36355D01*
X50525Y-36435D02*
X54352Y-36435D01*
X55148Y-36435D02*
X62475Y-36435D01*
X50525Y-36515D02*
X54233Y-36515D01*
X55267Y-36515D02*
X62475Y-36515D01*
X50525Y-36595D02*
X54189Y-36595D01*
X55312Y-36595D02*
X62475Y-36595D01*
X50525Y-36675D02*
X54176Y-36675D01*
X55324Y-36675D02*
X62475Y-36675D01*
X50525Y-36755D02*
X54176Y-36755D01*
X55324Y-36755D02*
X62475Y-36755D01*
X50525Y-36835D02*
X54176Y-36835D01*
X55324Y-36835D02*
X62475Y-36835D01*
X50525Y-36915D02*
X54176Y-36915D01*
X55324Y-36915D02*
X62475Y-36915D01*
X50525Y-36995D02*
X54176Y-36995D01*
X55324Y-36995D02*
X62475Y-36995D01*
X50525Y-37075D02*
X54176Y-37075D01*
X55324Y-37075D02*
X62475Y-37075D01*
X50525Y-37155D02*
X54176Y-37155D01*
X55324Y-37155D02*
X62475Y-37155D01*
X50525Y-37235D02*
X54176Y-37235D01*
X55324Y-37235D02*
X62475Y-37235D01*
X50525Y-37315D02*
X54176Y-37315D01*
X55324Y-37315D02*
X62475Y-37315D01*
X50525Y-37395D02*
X54184Y-37395D01*
X55315Y-37395D02*
X62475Y-37395D01*
X50525Y-37475D02*
X54223Y-37475D01*
X55277Y-37475D02*
X62475Y-37475D01*
X50525Y-37555D02*
X54329Y-37555D01*
X55170Y-37555D02*
X62475Y-37555D01*
X50525Y-37635D02*
X62475Y-37635D01*
X50525Y-37715D02*
X62475Y-37715D01*
X50525Y-37795D02*
X62475Y-37795D01*
X50525Y-37875D02*
X62475Y-37875D01*
X50525Y-37955D02*
X62475Y-37955D01*
X50525Y-38035D02*
X62475Y-38035D01*
X50525Y-38115D02*
X62475Y-38115D01*
X50525Y-38195D02*
X52472Y-38195D01*
X53028Y-38195D02*
X62475Y-38195D01*
X50525Y-38275D02*
X52280Y-38275D01*
X53220Y-38275D02*
X62475Y-38275D01*
X50525Y-38355D02*
X52194Y-38355D01*
X53307Y-38355D02*
X62475Y-38355D01*
X50525Y-38435D02*
X52114Y-38435D01*
X53387Y-38435D02*
X62475Y-38435D01*
X50525Y-38515D02*
X52034Y-38515D01*
X53467Y-38515D02*
X62475Y-38515D01*
X50525Y-38595D02*
X51998Y-38595D01*
X53503Y-38595D02*
X62475Y-38595D01*
X50525Y-38675D02*
X51965Y-38675D01*
X53536Y-38675D02*
X62475Y-38675D01*
X50525Y-38755D02*
X51932Y-38755D01*
X53569Y-38755D02*
X62475Y-38755D01*
X50525Y-38835D02*
X51900Y-38835D01*
X53600Y-38835D02*
X62475Y-38835D01*
X50525Y-38915D02*
X51900Y-38915D01*
X53600Y-38915D02*
X62475Y-38915D01*
X50525Y-38995D02*
X51900Y-38995D01*
X53600Y-38995D02*
X62475Y-38995D01*
X50525Y-39075D02*
X51900Y-39075D01*
X53600Y-39075D02*
X62475Y-39075D01*
X50525Y-39155D02*
X51900Y-39155D01*
X53600Y-39155D02*
X62475Y-39155D01*
X50525Y-39235D02*
X51927Y-39235D01*
X53572Y-39235D02*
X62475Y-39235D01*
X50525Y-39315D02*
X51960Y-39315D01*
X53539Y-39315D02*
X62475Y-39315D01*
X50525Y-39395D02*
X51993Y-39395D01*
X53506Y-39395D02*
X62475Y-39395D01*
X50525Y-39475D02*
X52026Y-39475D01*
X53472Y-39475D02*
X59723Y-39475D01*
X60200Y-39475D02*
X60300Y-39475D01*
X60777Y-39475D02*
X60953Y-39475D01*
X61548Y-39475D02*
X62475Y-39475D01*
X50525Y-39555D02*
X52103Y-39555D01*
X53396Y-39555D02*
X59670Y-39555D01*
X60200Y-39555D02*
X60300Y-39555D01*
X60831Y-39555D02*
X60848Y-39555D01*
X61652Y-39555D02*
X62475Y-39555D01*
X50525Y-39635D02*
X52183Y-39635D01*
X53316Y-39635D02*
X59651Y-39635D01*
X60200Y-39635D02*
X60300Y-39635D01*
X61732Y-39635D02*
X62475Y-39635D01*
X50525Y-39715D02*
X52263Y-39715D01*
X53236Y-39715D02*
X59651Y-39715D01*
X60200Y-39715D02*
X60300Y-39715D01*
X61781Y-39715D02*
X62475Y-39715D01*
X50525Y-39795D02*
X52448Y-39795D01*
X53051Y-39795D02*
X59651Y-39795D01*
X60200Y-39795D02*
X60300Y-39795D01*
X61814Y-39795D02*
X62475Y-39795D01*
X50525Y-39875D02*
X59651Y-39875D01*
X60200Y-39875D02*
X60300Y-39875D01*
X61847Y-39875D02*
X62475Y-39875D01*
X50525Y-39955D02*
X60300Y-39955D01*
X61849Y-39955D02*
X62475Y-39955D01*
X50525Y-40035D02*
X60300Y-40035D01*
X61849Y-40035D02*
X62475Y-40035D01*
X50525Y-40115D02*
X59650Y-40115D01*
X61849Y-40115D02*
X62475Y-40115D01*
X50525Y-40195D02*
X59650Y-40195D01*
X61817Y-40195D02*
X62475Y-40195D01*
X50525Y-40275D02*
X59650Y-40275D01*
X61784Y-40275D02*
X62475Y-40275D01*
X50525Y-40355D02*
X59650Y-40355D01*
X61741Y-40355D02*
X62475Y-40355D01*
X50525Y-40435D02*
X59665Y-40435D01*
X61660Y-40435D02*
X62475Y-40435D01*
X50525Y-40515D02*
X59713Y-40515D01*
X61612Y-40515D02*
X62475Y-40515D01*
X50525Y-40595D02*
X59808Y-40595D01*
X61692Y-40595D02*
X62475Y-40595D01*
X50525Y-40675D02*
X59737Y-40675D01*
X61764Y-40675D02*
X62475Y-40675D01*
X50525Y-40755D02*
X59704Y-40755D01*
X61797Y-40755D02*
X62475Y-40755D01*
X50525Y-40835D02*
X59671Y-40835D01*
X61830Y-40835D02*
X62475Y-40835D01*
X50525Y-40915D02*
X59651Y-40915D01*
X61849Y-40915D02*
X62475Y-40915D01*
X50525Y-40995D02*
X59651Y-40995D01*
X61849Y-40995D02*
X62475Y-40995D01*
X50525Y-41075D02*
X59651Y-41075D01*
X61849Y-41075D02*
X62475Y-41075D01*
X50525Y-41155D02*
X59665Y-41155D01*
X61834Y-41155D02*
X62475Y-41155D01*
X50525Y-41235D02*
X59698Y-41235D01*
X61801Y-41235D02*
X62475Y-41235D01*
X50525Y-41315D02*
X59732Y-41315D01*
X61767Y-41315D02*
X62475Y-41315D01*
X50525Y-41395D02*
X59798Y-41395D01*
X61701Y-41395D02*
X62475Y-41395D01*
X50525Y-41475D02*
X59878Y-41475D01*
X61620Y-41475D02*
X62475Y-41475D01*
X50525Y-41555D02*
X59847Y-41555D01*
X61652Y-41555D02*
X62475Y-41555D01*
X50525Y-41635D02*
X59768Y-41635D01*
X61732Y-41635D02*
X62475Y-41635D01*
X50525Y-41715D02*
X59720Y-41715D01*
X61781Y-41715D02*
X62475Y-41715D01*
X50525Y-41795D02*
X59687Y-41795D01*
X61814Y-41795D02*
X62475Y-41795D01*
X50525Y-41875D02*
X59654Y-41875D01*
X61847Y-41875D02*
X62475Y-41875D01*
X50525Y-41955D02*
X59651Y-41955D01*
X61849Y-41955D02*
X62475Y-41955D01*
X50525Y-42035D02*
X59651Y-42035D01*
X61849Y-42035D02*
X62475Y-42035D01*
X50525Y-42115D02*
X59651Y-42115D01*
X61849Y-42115D02*
X62475Y-42115D01*
X50525Y-42195D02*
X59682Y-42195D01*
X61817Y-42195D02*
X62475Y-42195D01*
X50525Y-42275D02*
X59715Y-42275D01*
X61784Y-42275D02*
X62475Y-42275D01*
X50525Y-42355D02*
X59758Y-42355D01*
X61741Y-42355D02*
X62475Y-42355D01*
X50525Y-42435D02*
X59838Y-42435D01*
X61660Y-42435D02*
X62475Y-42435D01*
X50525Y-42515D02*
X59887Y-42515D01*
X61612Y-42515D02*
X62475Y-42515D01*
X50525Y-42595D02*
X59808Y-42595D01*
X61692Y-42595D02*
X62475Y-42595D01*
X50525Y-42675D02*
X59737Y-42675D01*
X61764Y-42675D02*
X62475Y-42675D01*
X50525Y-42755D02*
X59704Y-42755D01*
X61797Y-42755D02*
X62475Y-42755D01*
X50525Y-42835D02*
X59671Y-42835D01*
X61830Y-42835D02*
X62475Y-42835D01*
X50525Y-42915D02*
X59651Y-42915D01*
X61849Y-42915D02*
X62475Y-42915D01*
X50525Y-42995D02*
X59651Y-42995D01*
X61849Y-42995D02*
X62475Y-42995D01*
X50525Y-43075D02*
X59651Y-43075D01*
X61849Y-43075D02*
X62475Y-43075D01*
X50525Y-43155D02*
X59665Y-43155D01*
X61834Y-43155D02*
X62475Y-43155D01*
X50525Y-43235D02*
X59698Y-43235D01*
X61801Y-43235D02*
X62475Y-43235D01*
X50525Y-43315D02*
X59732Y-43315D01*
X61767Y-43315D02*
X62475Y-43315D01*
X50525Y-43395D02*
X59798Y-43395D01*
X61701Y-43395D02*
X62475Y-43395D01*
X50525Y-43475D02*
X59878Y-43475D01*
X61620Y-43475D02*
X62475Y-43475D01*
X50525Y-43555D02*
X59847Y-43555D01*
X61652Y-43555D02*
X62475Y-43555D01*
X50525Y-43635D02*
X59768Y-43635D01*
X61732Y-43635D02*
X62475Y-43635D01*
X50525Y-43715D02*
X59720Y-43715D01*
X61781Y-43715D02*
X62475Y-43715D01*
X50525Y-43795D02*
X59687Y-43795D01*
X61814Y-43795D02*
X62475Y-43795D01*
X50525Y-43875D02*
X59654Y-43875D01*
X61847Y-43875D02*
X62475Y-43875D01*
X50525Y-43955D02*
X59651Y-43955D01*
X61849Y-43955D02*
X62475Y-43955D01*
X50525Y-44035D02*
X59651Y-44035D01*
X61849Y-44035D02*
X62475Y-44035D01*
X50525Y-44115D02*
X59651Y-44115D01*
X61849Y-44115D02*
X62475Y-44115D01*
X50525Y-44195D02*
X52472Y-44195D01*
X53028Y-44195D02*
X56472Y-44195D01*
X57028Y-44195D02*
X59682Y-44195D01*
X61817Y-44195D02*
X62475Y-44195D01*
X50525Y-44275D02*
X52280Y-44275D01*
X53220Y-44275D02*
X56280Y-44275D01*
X57220Y-44275D02*
X59715Y-44275D01*
X61784Y-44275D02*
X62475Y-44275D01*
X50525Y-44355D02*
X52194Y-44355D01*
X53307Y-44355D02*
X56194Y-44355D01*
X57307Y-44355D02*
X59758Y-44355D01*
X60740Y-44355D02*
X60758Y-44355D01*
X61742Y-44355D02*
X62475Y-44355D01*
X50525Y-44435D02*
X52114Y-44435D01*
X53387Y-44435D02*
X56114Y-44435D01*
X57387Y-44435D02*
X59838Y-44435D01*
X60661Y-44435D02*
X60838Y-44435D01*
X61662Y-44435D02*
X62475Y-44435D01*
X50525Y-44515D02*
X52034Y-44515D01*
X53467Y-44515D02*
X56034Y-44515D01*
X57467Y-44515D02*
X59927Y-44515D01*
X60572Y-44515D02*
X60927Y-44515D01*
X61572Y-44515D02*
X62475Y-44515D01*
X50525Y-44595D02*
X51998Y-44595D01*
X53503Y-44595D02*
X55998Y-44595D01*
X57503Y-44595D02*
X60121Y-44595D01*
X60378Y-44595D02*
X61121Y-44595D01*
X61378Y-44595D02*
X62475Y-44595D01*
X50525Y-44675D02*
X51965Y-44675D01*
X53536Y-44675D02*
X55965Y-44675D01*
X57536Y-44675D02*
X62475Y-44675D01*
X50525Y-44755D02*
X51932Y-44755D01*
X53569Y-44755D02*
X55932Y-44755D01*
X57569Y-44755D02*
X62475Y-44755D01*
X50525Y-44835D02*
X51900Y-44835D01*
X53600Y-44835D02*
X55900Y-44835D01*
X57600Y-44835D02*
X62475Y-44835D01*
X50525Y-44915D02*
X51900Y-44915D01*
X53600Y-44915D02*
X55900Y-44915D01*
X57600Y-44915D02*
X62475Y-44915D01*
X50525Y-44995D02*
X51900Y-44995D01*
X53600Y-44995D02*
X55900Y-44995D01*
X57600Y-44995D02*
X62475Y-44995D01*
X50525Y-45075D02*
X51900Y-45075D01*
X53600Y-45075D02*
X55900Y-45075D01*
X57600Y-45075D02*
X62475Y-45075D01*
X50525Y-45155D02*
X51900Y-45155D01*
X53600Y-45155D02*
X55900Y-45155D01*
X57600Y-45155D02*
X62475Y-45155D01*
X50525Y-45235D02*
X51927Y-45235D01*
X53572Y-45235D02*
X55927Y-45235D01*
X57572Y-45235D02*
X62475Y-45235D01*
X50525Y-45315D02*
X51960Y-45315D01*
X53539Y-45315D02*
X55960Y-45315D01*
X57539Y-45315D02*
X62475Y-45315D01*
X50525Y-45395D02*
X51993Y-45395D01*
X53506Y-45395D02*
X55993Y-45395D01*
X57506Y-45395D02*
X62475Y-45395D01*
X50525Y-45475D02*
X52026Y-45475D01*
X53472Y-45475D02*
X54515Y-45475D01*
X54985Y-45475D02*
X56026Y-45475D01*
X57472Y-45475D02*
X62475Y-45475D01*
X50525Y-45555D02*
X52103Y-45555D01*
X53396Y-45555D02*
X54382Y-45555D01*
X55118Y-45555D02*
X56103Y-45555D01*
X57396Y-45555D02*
X62475Y-45555D01*
X50525Y-45635D02*
X52183Y-45635D01*
X53316Y-45635D02*
X54302Y-45635D01*
X55198Y-45635D02*
X56183Y-45635D01*
X57316Y-45635D02*
X62475Y-45635D01*
X50525Y-45715D02*
X52263Y-45715D01*
X53236Y-45715D02*
X54246Y-45715D01*
X55255Y-45715D02*
X56263Y-45715D01*
X57236Y-45715D02*
X62475Y-45715D01*
X50525Y-45795D02*
X52448Y-45795D01*
X53051Y-45795D02*
X54213Y-45795D01*
X55288Y-45795D02*
X56448Y-45795D01*
X57051Y-45795D02*
X62475Y-45795D01*
X50525Y-45875D02*
X54180Y-45875D01*
X55321Y-45875D02*
X62475Y-45875D01*
X50525Y-45955D02*
X54175Y-45955D01*
X55325Y-45955D02*
X62475Y-45955D01*
X50525Y-46035D02*
X54175Y-46035D01*
X55325Y-46035D02*
X62475Y-46035D01*
X50525Y-46115D02*
X54175Y-46115D01*
X55325Y-46115D02*
X62475Y-46115D01*
X50525Y-46195D02*
X54208Y-46195D01*
X55291Y-46195D02*
X62475Y-46195D01*
X50525Y-46275D02*
X54241Y-46275D01*
X55258Y-46275D02*
X62475Y-46275D01*
X50525Y-46355D02*
X54292Y-46355D01*
X55207Y-46355D02*
X62475Y-46355D01*
X50525Y-46435D02*
X54352Y-46435D01*
X55148Y-46435D02*
X62475Y-46435D01*
X50525Y-46515D02*
X54233Y-46515D01*
X55267Y-46515D02*
X62475Y-46515D01*
X50525Y-46595D02*
X54189Y-46595D01*
X55312Y-46595D02*
X62475Y-46595D01*
X50525Y-46675D02*
X54176Y-46675D01*
X55324Y-46675D02*
X62475Y-46675D01*
X50525Y-46755D02*
X54176Y-46755D01*
X55324Y-46755D02*
X62475Y-46755D01*
X50525Y-46835D02*
X54176Y-46835D01*
X55324Y-46835D02*
X62475Y-46835D01*
X50525Y-46915D02*
X54176Y-46915D01*
X55324Y-46915D02*
X62475Y-46915D01*
X50525Y-46995D02*
X54176Y-46995D01*
X55324Y-46995D02*
X62475Y-46995D01*
X50525Y-47075D02*
X54176Y-47075D01*
X55324Y-47075D02*
X62475Y-47075D01*
X50525Y-47155D02*
X54176Y-47155D01*
X55324Y-47155D02*
X62475Y-47155D01*
X50525Y-47235D02*
X54176Y-47235D01*
X55324Y-47235D02*
X62475Y-47235D01*
X50525Y-47315D02*
X54176Y-47315D01*
X55324Y-47315D02*
X62475Y-47315D01*
X50525Y-47395D02*
X54184Y-47395D01*
X55315Y-47395D02*
X62475Y-47395D01*
X50525Y-47475D02*
X54223Y-47475D01*
X55277Y-47475D02*
X62475Y-47475D01*
X50525Y-47555D02*
X54329Y-47555D01*
X55170Y-47555D02*
X62475Y-47555D01*
X50525Y-47635D02*
X62475Y-47635D01*
X50525Y-47715D02*
X62475Y-47715D01*
X50525Y-47795D02*
X62475Y-47795D01*
X50525Y-47875D02*
X62475Y-47875D01*
X50525Y-47955D02*
X62475Y-47955D01*
X50525Y-48035D02*
X62475Y-48035D01*
X50525Y-48115D02*
X62475Y-48115D01*
X50525Y-48195D02*
X52472Y-48195D01*
X53028Y-48195D02*
X62475Y-48195D01*
X50525Y-48275D02*
X52280Y-48275D01*
X53220Y-48275D02*
X62475Y-48275D01*
X50525Y-48355D02*
X52194Y-48355D01*
X53307Y-48355D02*
X62475Y-48355D01*
X50525Y-48435D02*
X52114Y-48435D01*
X53387Y-48435D02*
X62475Y-48435D01*
X50525Y-48515D02*
X52034Y-48515D01*
X53467Y-48515D02*
X62475Y-48515D01*
X50525Y-48595D02*
X51998Y-48595D01*
X53503Y-48595D02*
X62475Y-48595D01*
X50525Y-48675D02*
X51965Y-48675D01*
X53536Y-48675D02*
X62475Y-48675D01*
X50525Y-48755D02*
X51932Y-48755D01*
X53569Y-48755D02*
X62475Y-48755D01*
X50525Y-48835D02*
X51900Y-48835D01*
X53600Y-48835D02*
X62475Y-48835D01*
X50525Y-48915D02*
X51900Y-48915D01*
X53600Y-48915D02*
X62475Y-48915D01*
X50525Y-48995D02*
X51900Y-48995D01*
X53600Y-48995D02*
X62475Y-48995D01*
X50525Y-49075D02*
X51900Y-49075D01*
X53600Y-49075D02*
X62475Y-49075D01*
X50525Y-49155D02*
X51900Y-49155D01*
X53600Y-49155D02*
X62475Y-49155D01*
X50525Y-49235D02*
X51927Y-49235D01*
X53572Y-49235D02*
X62475Y-49235D01*
X50525Y-49315D02*
X51960Y-49315D01*
X53539Y-49315D02*
X62475Y-49315D01*
X50525Y-49395D02*
X51993Y-49395D01*
X53506Y-49395D02*
X62475Y-49395D01*
X50525Y-49475D02*
X52026Y-49475D01*
X53472Y-49475D02*
X62475Y-49475D01*
X50525Y-49555D02*
X52103Y-49555D01*
X53396Y-49555D02*
X62475Y-49555D01*
X50525Y-49635D02*
X52183Y-49635D01*
X53316Y-49635D02*
X62475Y-49635D01*
X50525Y-49715D02*
X52263Y-49715D01*
X53236Y-49715D02*
X62475Y-49715D01*
X50525Y-49795D02*
X52448Y-49795D01*
X53051Y-49795D02*
X62475Y-49795D01*
X50525Y-49875D02*
X62475Y-49875D01*
X50525Y-49955D02*
X62475Y-49955D01*
X50525Y-50035D02*
X62475Y-50035D01*
X50525Y-50115D02*
X62475Y-50115D01*
X50525Y-50195D02*
X62475Y-50195D01*
X50525Y-50275D02*
X62475Y-50275D01*
X50525Y-50355D02*
X62475Y-50355D01*
X50525Y-50435D02*
X62475Y-50435D01*
X50525Y-50515D02*
X62475Y-50515D01*
X50525Y-50595D02*
X62475Y-50595D01*
X50525Y-50675D02*
X62475Y-50675D01*
X50525Y-50755D02*
X62475Y-50755D01*
X50525Y-50835D02*
X62475Y-50835D01*
X50525Y-50915D02*
X62475Y-50915D01*
X50525Y-50995D02*
X62475Y-50995D01*
X50525Y-51075D02*
X62475Y-51075D01*
X50525Y-51155D02*
X51188Y-51155D01*
X51812Y-51155D02*
X61190Y-51155D01*
X61812Y-51155D02*
X62475Y-51155D01*
X50525Y-51235D02*
X50996Y-51235D01*
X52004Y-51235D02*
X60996Y-51235D01*
X62004Y-51235D02*
X62475Y-51235D01*
X50525Y-51315D02*
X50913Y-51315D01*
X52088Y-51315D02*
X60913Y-51315D01*
X62088Y-51315D02*
X62475Y-51315D01*
X50525Y-51395D02*
X50833Y-51395D01*
X52168Y-51395D02*
X60833Y-51395D01*
X62168Y-51395D02*
X62475Y-51395D01*
X50525Y-51475D02*
X50753Y-51475D01*
X52248Y-51475D02*
X60753Y-51475D01*
X62248Y-51475D02*
X62475Y-51475D01*
X50525Y-51555D02*
X50711Y-51555D01*
X52290Y-51555D02*
X60711Y-51555D01*
X62290Y-51555D02*
X62475Y-51555D01*
X50525Y-51635D02*
X50678Y-51635D01*
X52323Y-51635D02*
X60678Y-51635D01*
X62323Y-51635D02*
X62475Y-51635D01*
X50525Y-51715D02*
X50644Y-51715D01*
X52356Y-51715D02*
X60644Y-51715D01*
X62356Y-51715D02*
X62475Y-51715D01*
X50525Y-51795D02*
X50611Y-51795D01*
X52389Y-51795D02*
X60611Y-51795D01*
X62389Y-51795D02*
X62475Y-51795D01*
X50525Y-51875D02*
X50600Y-51875D01*
X52400Y-51875D02*
X60600Y-51875D01*
X62400Y-51875D02*
X62475Y-51875D01*
X50525Y-51955D02*
X50600Y-51955D01*
X52400Y-51955D02*
X60600Y-51955D01*
X62400Y-51955D02*
X62475Y-51955D01*
X50525Y-52035D02*
X50600Y-52035D01*
X52400Y-52035D02*
X60600Y-52035D01*
X62400Y-52035D02*
X62475Y-52035D01*
X50525Y-52115D02*
X50600Y-52115D01*
X52400Y-52115D02*
X60600Y-52115D01*
X62400Y-52115D02*
X62475Y-52115D01*
X50525Y-52195D02*
X50607Y-52195D01*
X52393Y-52195D02*
X60607Y-52195D01*
X62393Y-52195D02*
X62475Y-52195D01*
X50525Y-52275D02*
X50640Y-52275D01*
X52360Y-52275D02*
X60640Y-52275D01*
X62360Y-52275D02*
X62475Y-52275D01*
X50525Y-52355D02*
X50673Y-52355D01*
X52327Y-52355D02*
X60673Y-52355D01*
X62327Y-52355D02*
X62475Y-52355D01*
X50525Y-52435D02*
X50706Y-52435D01*
X52293Y-52435D02*
X60706Y-52435D01*
X62293Y-52435D02*
X62475Y-52435D01*
X50525Y-52515D02*
X50742Y-52515D01*
X52257Y-52515D02*
X60742Y-52515D01*
X62257Y-52515D02*
X62475Y-52515D01*
X50525Y-52595D02*
X50822Y-52595D01*
X52177Y-52595D02*
X60822Y-52595D01*
X62177Y-52595D02*
X62475Y-52595D01*
X50525Y-52675D02*
X50902Y-52675D01*
X52097Y-52675D02*
X60902Y-52675D01*
X62097Y-52675D02*
X62475Y-52675D01*
X50525Y-52755D02*
X50982Y-52755D01*
X52017Y-52755D02*
X60982Y-52755D01*
X62017Y-52755D02*
X62475Y-52755D01*
X50525Y-52835D02*
X51164Y-52835D01*
X51835Y-52835D02*
X61164Y-52835D01*
X61835Y-52835D02*
X62475Y-52835D01*
X50525Y-52915D02*
X62475Y-52915D01*
X50525Y-52995D02*
X62475Y-52995D01*
X50525Y-53075D02*
X62475Y-53075D01*
X50525Y-53155D02*
X62475Y-53155D01*
X50525Y-53235D02*
X62475Y-53235D01*
X50525Y-53315D02*
X62475Y-53315D01*
X50525Y-53395D02*
X62475Y-53395D01*
X50525Y-53475D02*
X62475Y-53475D01*
X50525Y-53555D02*
X62475Y-53555D01*
X50525Y-53635D02*
X62475Y-53635D01*
X50525Y-53715D02*
X62475Y-53715D01*
X50525Y-53795D02*
X62475Y-53795D01*
X50525Y-53875D02*
X62475Y-53875D01*
X50525Y-53955D02*
X62475Y-53955D01*
X50525Y-54035D02*
X62475Y-54035D01*
X50525Y-54115D02*
X62475Y-54115D01*
X50525Y-54195D02*
X52472Y-54195D01*
X53028Y-54195D02*
X56472Y-54195D01*
X57028Y-54195D02*
X62475Y-54195D01*
X50525Y-54275D02*
X52280Y-54275D01*
X53220Y-54275D02*
X56280Y-54275D01*
X57220Y-54275D02*
X62475Y-54275D01*
X50525Y-54355D02*
X52194Y-54355D01*
X53307Y-54355D02*
X56194Y-54355D01*
X57307Y-54355D02*
X62475Y-54355D01*
X50525Y-54435D02*
X52114Y-54435D01*
X53387Y-54435D02*
X56114Y-54435D01*
X57387Y-54435D02*
X62475Y-54435D01*
X50525Y-54515D02*
X52034Y-54515D01*
X53467Y-54515D02*
X56034Y-54515D01*
X57467Y-54515D02*
X62475Y-54515D01*
X50525Y-54595D02*
X51998Y-54595D01*
X53503Y-54595D02*
X55998Y-54595D01*
X57503Y-54595D02*
X62475Y-54595D01*
X50525Y-54675D02*
X51965Y-54675D01*
X53536Y-54675D02*
X55965Y-54675D01*
X57536Y-54675D02*
X62475Y-54675D01*
X50525Y-54755D02*
X51932Y-54755D01*
X53569Y-54755D02*
X55932Y-54755D01*
X57569Y-54755D02*
X62475Y-54755D01*
X50525Y-54835D02*
X51900Y-54835D01*
X53600Y-54835D02*
X55900Y-54835D01*
X57600Y-54835D02*
X62475Y-54835D01*
X50525Y-54915D02*
X51900Y-54915D01*
X53600Y-54915D02*
X55900Y-54915D01*
X57600Y-54915D02*
X62475Y-54915D01*
X50525Y-54995D02*
X51900Y-54995D01*
X53600Y-54995D02*
X55900Y-54995D01*
X57600Y-54995D02*
X62475Y-54995D01*
X50525Y-55075D02*
X51900Y-55075D01*
X53600Y-55075D02*
X55900Y-55075D01*
X57600Y-55075D02*
X62475Y-55075D01*
X50525Y-55155D02*
X51900Y-55155D01*
X53600Y-55155D02*
X55900Y-55155D01*
X57600Y-55155D02*
X62475Y-55155D01*
X50525Y-55235D02*
X51927Y-55235D01*
X53572Y-55235D02*
X55927Y-55235D01*
X57572Y-55235D02*
X62475Y-55235D01*
X50525Y-55315D02*
X51960Y-55315D01*
X53539Y-55315D02*
X55960Y-55315D01*
X57539Y-55315D02*
X62475Y-55315D01*
X50525Y-55395D02*
X51993Y-55395D01*
X53506Y-55395D02*
X55993Y-55395D01*
X57506Y-55395D02*
X62475Y-55395D01*
X50525Y-55475D02*
X52026Y-55475D01*
X53472Y-55475D02*
X54515Y-55475D01*
X54985Y-55475D02*
X56026Y-55475D01*
X57472Y-55475D02*
X62475Y-55475D01*
X50525Y-55555D02*
X52103Y-55555D01*
X53396Y-55555D02*
X54382Y-55555D01*
X55118Y-55555D02*
X56103Y-55555D01*
X57396Y-55555D02*
X62475Y-55555D01*
X50525Y-55635D02*
X52183Y-55635D01*
X53316Y-55635D02*
X54302Y-55635D01*
X55198Y-55635D02*
X56183Y-55635D01*
X57316Y-55635D02*
X62475Y-55635D01*
X50525Y-55715D02*
X52263Y-55715D01*
X53236Y-55715D02*
X54246Y-55715D01*
X55255Y-55715D02*
X56263Y-55715D01*
X57236Y-55715D02*
X62475Y-55715D01*
X50525Y-55795D02*
X52448Y-55795D01*
X53051Y-55795D02*
X54213Y-55795D01*
X55288Y-55795D02*
X56448Y-55795D01*
X57051Y-55795D02*
X62475Y-55795D01*
X50525Y-55875D02*
X54180Y-55875D01*
X55321Y-55875D02*
X62475Y-55875D01*
X50525Y-55955D02*
X54175Y-55955D01*
X55325Y-55955D02*
X62475Y-55955D01*
X50525Y-56035D02*
X54175Y-56035D01*
X55325Y-56035D02*
X62475Y-56035D01*
X50525Y-56115D02*
X54175Y-56115D01*
X55325Y-56115D02*
X62475Y-56115D01*
X50525Y-56195D02*
X54208Y-56195D01*
X55291Y-56195D02*
X62475Y-56195D01*
X50525Y-56275D02*
X54241Y-56275D01*
X55258Y-56275D02*
X62475Y-56275D01*
X50525Y-56355D02*
X54292Y-56355D01*
X55207Y-56355D02*
X62475Y-56355D01*
X50525Y-56435D02*
X54352Y-56435D01*
X55148Y-56435D02*
X62475Y-56435D01*
X50525Y-56515D02*
X54233Y-56515D01*
X55267Y-56515D02*
X62475Y-56515D01*
X50525Y-56595D02*
X54189Y-56595D01*
X55312Y-56595D02*
X62475Y-56595D01*
X50525Y-56675D02*
X54176Y-56675D01*
X55324Y-56675D02*
X62475Y-56675D01*
X50525Y-56755D02*
X54176Y-56755D01*
X55324Y-56755D02*
X62475Y-56755D01*
X50525Y-56835D02*
X54176Y-56835D01*
X55324Y-56835D02*
X62475Y-56835D01*
X50525Y-56915D02*
X54176Y-56915D01*
X55324Y-56915D02*
X62475Y-56915D01*
X50525Y-56995D02*
X54176Y-56995D01*
X55324Y-56995D02*
X62475Y-56995D01*
X50525Y-57075D02*
X54176Y-57075D01*
X55324Y-57075D02*
X62475Y-57075D01*
X50525Y-57155D02*
X54176Y-57155D01*
X55324Y-57155D02*
X62475Y-57155D01*
X50525Y-57235D02*
X54176Y-57235D01*
X55324Y-57235D02*
X62475Y-57235D01*
X50525Y-57315D02*
X54176Y-57315D01*
X55324Y-57315D02*
X62475Y-57315D01*
X50525Y-57395D02*
X54184Y-57395D01*
X55315Y-57395D02*
X62475Y-57395D01*
X50525Y-57475D02*
X54223Y-57475D01*
X55277Y-57475D02*
X62475Y-57475D01*
X50525Y-57555D02*
X54329Y-57555D01*
X55170Y-57555D02*
X62475Y-57555D01*
X50525Y-57635D02*
X62475Y-57635D01*
X50525Y-57715D02*
X62475Y-57715D01*
X50525Y-57795D02*
X62475Y-57795D01*
X50525Y-57875D02*
X62475Y-57875D01*
X50525Y-57955D02*
X62475Y-57955D01*
X50525Y-58035D02*
X62475Y-58035D01*
X50525Y-58115D02*
X62475Y-58115D01*
X50525Y-58195D02*
X52472Y-58195D01*
X53028Y-58195D02*
X62475Y-58195D01*
X50525Y-58275D02*
X52280Y-58275D01*
X53220Y-58275D02*
X62475Y-58275D01*
X50525Y-58355D02*
X52194Y-58355D01*
X53307Y-58355D02*
X62475Y-58355D01*
X50525Y-58435D02*
X52114Y-58435D01*
X53387Y-58435D02*
X62475Y-58435D01*
X50525Y-58515D02*
X52034Y-58515D01*
X53467Y-58515D02*
X62475Y-58515D01*
X50525Y-58595D02*
X51998Y-58595D01*
X53503Y-58595D02*
X62475Y-58595D01*
X50525Y-58675D02*
X51965Y-58675D01*
X53536Y-58675D02*
X62475Y-58675D01*
X50525Y-58755D02*
X51932Y-58755D01*
X53569Y-58755D02*
X62475Y-58755D01*
X50525Y-58835D02*
X51900Y-58835D01*
X53600Y-58835D02*
X62475Y-58835D01*
X50525Y-58915D02*
X51900Y-58915D01*
X53600Y-58915D02*
X62475Y-58915D01*
X50525Y-58995D02*
X51900Y-58995D01*
X53600Y-58995D02*
X62475Y-58995D01*
X50525Y-59075D02*
X51900Y-59075D01*
X53600Y-59075D02*
X62475Y-59075D01*
X50525Y-59155D02*
X51900Y-59155D01*
X53600Y-59155D02*
X62475Y-59155D01*
X50525Y-59235D02*
X51927Y-59235D01*
X53572Y-59235D02*
X62475Y-59235D01*
X50525Y-59315D02*
X51960Y-59315D01*
X53539Y-59315D02*
X62475Y-59315D01*
X50525Y-59395D02*
X51993Y-59395D01*
X53506Y-59395D02*
X62475Y-59395D01*
X50525Y-59475D02*
X52026Y-59475D01*
X53472Y-59475D02*
X62475Y-59475D01*
X50525Y-59555D02*
X52103Y-59555D01*
X53396Y-59555D02*
X62475Y-59555D01*
X50525Y-59635D02*
X52183Y-59635D01*
X53316Y-59635D02*
X62475Y-59635D01*
X50525Y-59715D02*
X52263Y-59715D01*
X53236Y-59715D02*
X62475Y-59715D01*
X50525Y-59795D02*
X52448Y-59795D01*
X53051Y-59795D02*
X62475Y-59795D01*
X50525Y-59875D02*
X62475Y-59875D01*
X50525Y-59955D02*
X62475Y-59955D01*
X50525Y-60035D02*
X62475Y-60035D01*
X50525Y-60115D02*
X62475Y-60115D01*
X50525Y-60195D02*
X62475Y-60195D01*
X50525Y-60275D02*
X62475Y-60275D01*
X50525Y-60355D02*
X62475Y-60355D01*
X50525Y-60435D02*
X62475Y-60435D01*
X50525Y-60515D02*
X62475Y-60515D01*
X50525Y-60595D02*
X62475Y-60595D01*
X50525Y-60675D02*
X62475Y-60675D01*
X50525Y-60755D02*
X62475Y-60755D01*
X50525Y-60835D02*
X62475Y-60835D01*
X50525Y-60915D02*
X62475Y-60915D01*
X50525Y-60995D02*
X62475Y-60995D01*
X50525Y-61075D02*
X62475Y-61075D01*
X50525Y-61155D02*
X62475Y-61155D01*
X50525Y-61235D02*
X62475Y-61235D01*
X50525Y-61315D02*
X62475Y-61315D01*
X50525Y-61395D02*
X62475Y-61395D01*
X50525Y-61475D02*
X62475Y-61475D01*
X50525Y-61555D02*
X62475Y-61555D01*
X50525Y-61635D02*
X62475Y-61635D01*
X50525Y-61715D02*
X62475Y-61715D01*
X62475Y-61725D02*
X62475Y-22275D01*
X50525Y-22275D01*
X50525Y-61725D01*
X51320Y-61725D01*
X51320Y-52900D01*
X50989Y-52762D01*
X50737Y-52509D01*
X50600Y-52178D01*
X50600Y-51820D01*
X50738Y-51489D01*
X50991Y-51237D01*
X51320Y-51100D01*
X51320Y-32900D01*
X50989Y-32762D01*
X50737Y-32509D01*
X50600Y-32178D01*
X50600Y-31820D01*
X50738Y-31489D01*
X50991Y-31237D01*
X51322Y-31100D01*
X51680Y-31100D01*
X52011Y-31238D01*
X52263Y-31491D01*
X52400Y-31822D01*
X52400Y-32180D01*
X52262Y-32511D01*
X52009Y-32763D01*
X51678Y-32900D01*
X51320Y-32900D01*
X51320Y-51100D01*
X51680Y-51100D01*
X52011Y-51238D01*
X52263Y-51491D01*
X52400Y-51822D01*
X52400Y-52180D01*
X52262Y-52511D01*
X52009Y-52763D01*
X51678Y-52900D01*
X51320Y-52900D01*
X51320Y-61725D01*
X52580Y-61725D01*
X52580Y-59850D01*
X52268Y-59720D01*
X52029Y-59480D01*
X51900Y-59168D01*
X51900Y-58830D01*
X52030Y-58518D01*
X52270Y-58279D01*
X52580Y-58150D01*
X52580Y-55850D01*
X52268Y-55720D01*
X52029Y-55480D01*
X51900Y-55168D01*
X51900Y-54830D01*
X52030Y-54518D01*
X52270Y-54279D01*
X52580Y-54150D01*
X52580Y-49850D01*
X52268Y-49720D01*
X52029Y-49480D01*
X51900Y-49168D01*
X51900Y-48830D01*
X52030Y-48518D01*
X52270Y-48279D01*
X52580Y-48150D01*
X52580Y-45850D01*
X52268Y-45720D01*
X52029Y-45480D01*
X51900Y-45168D01*
X51900Y-44830D01*
X52030Y-44518D01*
X52270Y-44279D01*
X52580Y-44150D01*
X52580Y-39850D01*
X52268Y-39720D01*
X52029Y-39480D01*
X51900Y-39168D01*
X51900Y-38830D01*
X52030Y-38518D01*
X52270Y-38279D01*
X52580Y-38150D01*
X52580Y-35850D01*
X52268Y-35720D01*
X52029Y-35480D01*
X51900Y-35168D01*
X51900Y-34830D01*
X52030Y-34518D01*
X52270Y-34279D01*
X52580Y-34150D01*
X52580Y-29850D01*
X52268Y-29720D01*
X52029Y-29480D01*
X51900Y-29168D01*
X51900Y-28830D01*
X52030Y-28518D01*
X52270Y-28279D01*
X52580Y-28150D01*
X52580Y-25850D01*
X52268Y-25720D01*
X52029Y-25480D01*
X51900Y-25168D01*
X51900Y-24830D01*
X52030Y-24518D01*
X52270Y-24279D01*
X52582Y-24150D01*
X52920Y-24150D01*
X53232Y-24280D01*
X53471Y-24520D01*
X53600Y-24832D01*
X53600Y-25170D01*
X53470Y-25482D01*
X53230Y-25721D01*
X52918Y-25850D01*
X52580Y-25850D01*
X52580Y-28150D01*
X52920Y-28150D01*
X53232Y-28280D01*
X53471Y-28520D01*
X53600Y-28832D01*
X53600Y-29170D01*
X53470Y-29482D01*
X53230Y-29721D01*
X52918Y-29850D01*
X52580Y-29850D01*
X52580Y-34150D01*
X52920Y-34150D01*
X53232Y-34280D01*
X53471Y-34520D01*
X53600Y-34832D01*
X53600Y-35170D01*
X53470Y-35482D01*
X53230Y-35721D01*
X52918Y-35850D01*
X52580Y-35850D01*
X52580Y-38150D01*
X52920Y-38150D01*
X53232Y-38280D01*
X53471Y-38520D01*
X53600Y-38832D01*
X53600Y-39170D01*
X53470Y-39482D01*
X53230Y-39721D01*
X52918Y-39850D01*
X52580Y-39850D01*
X52580Y-44150D01*
X52920Y-44150D01*
X53232Y-44280D01*
X53471Y-44520D01*
X53600Y-44832D01*
X53600Y-45170D01*
X53470Y-45482D01*
X53230Y-45721D01*
X52918Y-45850D01*
X52580Y-45850D01*
X52580Y-48150D01*
X52920Y-48150D01*
X53232Y-48280D01*
X53471Y-48520D01*
X53600Y-48832D01*
X53600Y-49170D01*
X53470Y-49482D01*
X53230Y-49721D01*
X52918Y-49850D01*
X52580Y-49850D01*
X52580Y-54150D01*
X52920Y-54150D01*
X53232Y-54280D01*
X53471Y-54520D01*
X53600Y-54832D01*
X53600Y-55170D01*
X53470Y-55482D01*
X53230Y-55721D01*
X52918Y-55850D01*
X52580Y-55850D01*
X52580Y-58150D01*
X52920Y-58150D01*
X53232Y-58280D01*
X53471Y-58520D01*
X53600Y-58832D01*
X53600Y-59170D01*
X53470Y-59482D01*
X53230Y-59721D01*
X52918Y-59850D01*
X52580Y-59850D01*
X52580Y-61725D01*
X54375Y-61725D01*
X54375Y-57574D01*
X54284Y-57536D01*
X54214Y-57466D01*
X54176Y-57374D01*
X54176Y-56625D01*
X54214Y-56534D01*
X54284Y-56464D01*
X54366Y-56429D01*
X54262Y-56325D01*
X54175Y-56114D01*
X54175Y-55885D01*
X54263Y-55674D01*
X54375Y-55562D01*
X54375Y-47574D01*
X54284Y-47536D01*
X54214Y-47466D01*
X54176Y-47374D01*
X54176Y-46625D01*
X54214Y-46534D01*
X54284Y-46464D01*
X54366Y-46429D01*
X54262Y-46325D01*
X54175Y-46114D01*
X54175Y-45885D01*
X54263Y-45674D01*
X54375Y-45562D01*
X54375Y-37574D01*
X54284Y-37536D01*
X54214Y-37466D01*
X54176Y-37374D01*
X54176Y-36625D01*
X54214Y-36534D01*
X54284Y-36464D01*
X54366Y-36429D01*
X54262Y-36325D01*
X54175Y-36114D01*
X54175Y-35885D01*
X54263Y-35674D01*
X54375Y-35561D01*
X54375Y-27574D01*
X54284Y-27536D01*
X54214Y-27466D01*
X54176Y-27374D01*
X54176Y-26625D01*
X54214Y-26534D01*
X54284Y-26464D01*
X54366Y-26429D01*
X54262Y-26325D01*
X54175Y-26114D01*
X54175Y-25885D01*
X54263Y-25674D01*
X54425Y-25512D01*
X54636Y-25425D01*
X54865Y-25425D01*
X55076Y-25513D01*
X55238Y-25675D01*
X55325Y-25886D01*
X55325Y-26115D01*
X55237Y-26326D01*
X55133Y-26429D01*
X55216Y-26464D01*
X55286Y-26534D01*
X55324Y-26626D01*
X55324Y-27375D01*
X55286Y-27466D01*
X55216Y-27536D01*
X55124Y-27574D01*
X54375Y-27574D01*
X54375Y-35561D01*
X54425Y-35512D01*
X54636Y-35425D01*
X54865Y-35425D01*
X55076Y-35513D01*
X55238Y-35675D01*
X55325Y-35886D01*
X55325Y-36115D01*
X55237Y-36326D01*
X55133Y-36429D01*
X55216Y-36464D01*
X55286Y-36534D01*
X55324Y-36626D01*
X55324Y-37375D01*
X55286Y-37466D01*
X55216Y-37536D01*
X55124Y-37574D01*
X54375Y-37574D01*
X54375Y-45562D01*
X54425Y-45512D01*
X54636Y-45425D01*
X54865Y-45425D01*
X55076Y-45513D01*
X55238Y-45675D01*
X55325Y-45886D01*
X55325Y-46115D01*
X55237Y-46326D01*
X55133Y-46429D01*
X55216Y-46464D01*
X55286Y-46534D01*
X55324Y-46626D01*
X55324Y-47375D01*
X55286Y-47466D01*
X55216Y-47536D01*
X55124Y-47574D01*
X54375Y-47574D01*
X54375Y-55562D01*
X54425Y-55512D01*
X54636Y-55425D01*
X54865Y-55425D01*
X55076Y-55513D01*
X55238Y-55675D01*
X55325Y-55886D01*
X55325Y-56115D01*
X55237Y-56326D01*
X55133Y-56429D01*
X55216Y-56464D01*
X55286Y-56534D01*
X55324Y-56626D01*
X55324Y-57375D01*
X55286Y-57466D01*
X55216Y-57536D01*
X55124Y-57574D01*
X54375Y-57574D01*
X54375Y-61725D01*
X56580Y-61725D01*
X56580Y-55850D01*
X56268Y-55720D01*
X56029Y-55480D01*
X55900Y-55168D01*
X55900Y-54830D01*
X56030Y-54518D01*
X56270Y-54279D01*
X56580Y-54150D01*
X56580Y-45850D01*
X56268Y-45720D01*
X56029Y-45480D01*
X55900Y-45168D01*
X55900Y-44830D01*
X56030Y-44518D01*
X56270Y-44279D01*
X56580Y-44150D01*
X56580Y-35850D01*
X56268Y-35720D01*
X56029Y-35480D01*
X55900Y-35168D01*
X55900Y-34830D01*
X56030Y-34518D01*
X56270Y-34279D01*
X56580Y-34150D01*
X56580Y-25850D01*
X56268Y-25720D01*
X56029Y-25480D01*
X55900Y-25168D01*
X55900Y-24830D01*
X56030Y-24518D01*
X56270Y-24279D01*
X56582Y-24150D01*
X56920Y-24150D01*
X57232Y-24280D01*
X57471Y-24520D01*
X57600Y-24832D01*
X57600Y-25170D01*
X57470Y-25482D01*
X57230Y-25721D01*
X56918Y-25850D01*
X56580Y-25850D01*
X56580Y-34150D01*
X56920Y-34150D01*
X57232Y-34280D01*
X57471Y-34520D01*
X57600Y-34832D01*
X57600Y-35170D01*
X57470Y-35482D01*
X57230Y-35721D01*
X56918Y-35850D01*
X56580Y-35850D01*
X56580Y-44150D01*
X56920Y-44150D01*
X57232Y-44280D01*
X57471Y-44520D01*
X57600Y-44832D01*
X57600Y-45170D01*
X57470Y-45482D01*
X57230Y-45721D01*
X56918Y-45850D01*
X56580Y-45850D01*
X56580Y-54150D01*
X56920Y-54150D01*
X57232Y-54280D01*
X57471Y-54520D01*
X57600Y-54832D01*
X57600Y-55170D01*
X57470Y-55482D01*
X57230Y-55721D01*
X56918Y-55850D01*
X56580Y-55850D01*
X56580Y-61725D01*
X61320Y-61725D01*
X61320Y-52900D01*
X60989Y-52762D01*
X60737Y-52509D01*
X60600Y-52178D01*
X60600Y-51820D01*
X60738Y-51489D01*
X60991Y-51237D01*
X61131Y-51179D01*
X61131Y-44599D01*
X60911Y-44508D01*
X60749Y-44346D01*
X60589Y-44508D01*
X60369Y-44599D01*
X60131Y-44599D01*
X59911Y-44508D01*
X59742Y-44339D01*
X59651Y-44119D01*
X59651Y-43881D01*
X59742Y-43661D01*
X59902Y-43499D01*
X59742Y-43339D01*
X59651Y-43119D01*
X59651Y-42881D01*
X59742Y-42661D01*
X59902Y-42499D01*
X59742Y-42339D01*
X59651Y-42119D01*
X59651Y-41881D01*
X59742Y-41661D01*
X59902Y-41499D01*
X59742Y-41339D01*
X59651Y-41119D01*
X59651Y-40881D01*
X59742Y-40661D01*
X59817Y-40585D01*
X59759Y-40561D01*
X59689Y-40491D01*
X59651Y-40399D01*
X59650Y-40112D01*
X59712Y-40050D01*
X59712Y-39950D01*
X59650Y-39888D01*
X59651Y-39601D01*
X59689Y-39509D01*
X59759Y-39439D01*
X59850Y-39401D01*
X59949Y-39401D01*
X60138Y-39400D01*
X60200Y-39462D01*
X60200Y-39950D01*
X59712Y-39950D01*
X59712Y-40050D01*
X60200Y-40050D01*
X60300Y-40050D01*
X60300Y-39950D01*
X60300Y-39462D01*
X60362Y-39400D01*
X60551Y-39401D01*
X60650Y-39401D01*
X60741Y-39439D01*
X60811Y-39509D01*
X60835Y-39567D01*
X60911Y-39492D01*
X61131Y-39401D01*
X61320Y-39401D01*
X61320Y-32900D01*
X60989Y-32762D01*
X60737Y-32509D01*
X60600Y-32178D01*
X60600Y-31820D01*
X60738Y-31489D01*
X60991Y-31237D01*
X61322Y-31100D01*
X61680Y-31100D01*
X62011Y-31238D01*
X62263Y-31491D01*
X62400Y-31822D01*
X62400Y-32180D01*
X62262Y-32511D01*
X62009Y-32763D01*
X61678Y-32900D01*
X61320Y-32900D01*
X61320Y-39401D01*
X61369Y-39401D01*
X61589Y-39492D01*
X61758Y-39661D01*
X61849Y-39881D01*
X61849Y-40119D01*
X61758Y-40339D01*
X61596Y-40499D01*
X61758Y-40661D01*
X61849Y-40881D01*
X61849Y-41119D01*
X61758Y-41339D01*
X61596Y-41499D01*
X61758Y-41661D01*
X61849Y-41881D01*
X61849Y-42119D01*
X61758Y-42339D01*
X61596Y-42499D01*
X61758Y-42661D01*
X61849Y-42881D01*
X61849Y-43119D01*
X61758Y-43339D01*
X61596Y-43499D01*
X61758Y-43661D01*
X61849Y-43881D01*
X61849Y-44119D01*
X61758Y-44339D01*
X61589Y-44508D01*
X61369Y-44599D01*
X61131Y-44599D01*
X61131Y-51179D01*
X61322Y-51100D01*
X61680Y-51100D01*
X62011Y-51238D01*
X62263Y-51491D01*
X62400Y-51822D01*
X62400Y-52180D01*
X62262Y-52511D01*
X62009Y-52763D01*
X61678Y-52900D01*
X61320Y-52900D01*
X61320Y-61725D01*
X62475Y-61725D01*
M02*
