G04 (created by PCBNEW-RS274X (20100406 SVN-R2509)-final) date Thu 17 Jun 2010 02:34:41 PM PDT*
G01*
G70*
G90*
%MOIN*%
G04 Gerber Fmt 3.4, Leading zero omitted, Abs format*
%FSLAX34Y34*%
G04 APERTURE LIST*
%ADD10C,0.001000*%
%ADD11C,0.009000*%
%ADD12C,0.010000*%
%ADD13C,0.015000*%
%ADD14C,0.006700*%
G04 APERTURE END LIST*
G54D10*
G54D11*
X62750Y-22000D02*
X50250Y-22000D01*
X62750Y-62000D02*
X62750Y-22000D01*
X50250Y-62000D02*
X62750Y-62000D01*
X50250Y-22000D02*
X50250Y-62000D01*
G54D12*
X60143Y-30078D02*
X60571Y-30078D01*
X60657Y-30106D01*
X60714Y-30163D01*
X60743Y-30249D01*
X60743Y-30306D01*
X60343Y-29535D02*
X60743Y-29535D01*
X60343Y-29792D02*
X60657Y-29792D01*
X60714Y-29764D01*
X60743Y-29706D01*
X60743Y-29621D01*
X60714Y-29564D01*
X60686Y-29535D01*
X60343Y-29249D02*
X60743Y-29249D01*
X60400Y-29249D02*
X60371Y-29221D01*
X60343Y-29163D01*
X60343Y-29078D01*
X60371Y-29021D01*
X60429Y-28992D01*
X60743Y-28992D01*
X60200Y-28278D02*
X60171Y-28249D01*
X60143Y-28192D01*
X60143Y-28049D01*
X60171Y-27992D01*
X60200Y-27963D01*
X60257Y-27935D01*
X60314Y-27935D01*
X60400Y-27963D01*
X60743Y-28306D01*
X60743Y-27935D01*
X60143Y-27564D02*
X60143Y-27507D01*
X60171Y-27450D01*
X60200Y-27421D01*
X60257Y-27392D01*
X60371Y-27364D01*
X60514Y-27364D01*
X60629Y-27392D01*
X60686Y-27421D01*
X60714Y-27450D01*
X60743Y-27507D01*
X60743Y-27564D01*
X60714Y-27621D01*
X60686Y-27650D01*
X60629Y-27678D01*
X60514Y-27707D01*
X60371Y-27707D01*
X60257Y-27678D01*
X60200Y-27650D01*
X60171Y-27621D01*
X60143Y-27564D01*
X60743Y-26793D02*
X60743Y-27136D01*
X60743Y-26964D02*
X60143Y-26964D01*
X60229Y-27021D01*
X60286Y-27079D01*
X60314Y-27136D01*
X60143Y-26422D02*
X60143Y-26365D01*
X60171Y-26308D01*
X60200Y-26279D01*
X60257Y-26250D01*
X60371Y-26222D01*
X60514Y-26222D01*
X60629Y-26250D01*
X60686Y-26279D01*
X60714Y-26308D01*
X60743Y-26365D01*
X60743Y-26422D01*
X60714Y-26479D01*
X60686Y-26508D01*
X60629Y-26536D01*
X60514Y-26565D01*
X60371Y-26565D01*
X60257Y-26536D01*
X60200Y-26508D01*
X60171Y-26479D01*
X60143Y-26422D01*
X59143Y-29835D02*
X59743Y-29635D01*
X59143Y-29435D01*
X59714Y-29007D02*
X59743Y-29064D01*
X59743Y-29178D01*
X59714Y-29235D01*
X59657Y-29264D01*
X59429Y-29264D01*
X59371Y-29235D01*
X59343Y-29178D01*
X59343Y-29064D01*
X59371Y-29007D01*
X59429Y-28978D01*
X59486Y-28978D01*
X59543Y-29264D01*
X59743Y-28721D02*
X59343Y-28721D01*
X59457Y-28721D02*
X59400Y-28693D01*
X59371Y-28664D01*
X59343Y-28607D01*
X59343Y-28550D01*
X59743Y-27579D02*
X59743Y-27922D01*
X59743Y-27750D02*
X59143Y-27750D01*
X59229Y-27807D01*
X59286Y-27865D01*
X59314Y-27922D01*
X59686Y-27322D02*
X59714Y-27294D01*
X59743Y-27322D01*
X59714Y-27351D01*
X59686Y-27322D01*
X59743Y-27322D01*
X59143Y-26922D02*
X59143Y-26865D01*
X59171Y-26808D01*
X59200Y-26779D01*
X59257Y-26750D01*
X59371Y-26722D01*
X59514Y-26722D01*
X59629Y-26750D01*
X59686Y-26779D01*
X59714Y-26808D01*
X59743Y-26865D01*
X59743Y-26922D01*
X59714Y-26979D01*
X59686Y-27008D01*
X59629Y-27036D01*
X59514Y-27065D01*
X59371Y-27065D01*
X59257Y-27036D01*
X59200Y-27008D01*
X59171Y-26979D01*
X59143Y-26922D01*
X58143Y-31707D02*
X58143Y-31364D01*
X58743Y-31535D02*
X58143Y-31535D01*
X58743Y-31164D02*
X58343Y-31164D01*
X58457Y-31164D02*
X58400Y-31136D01*
X58371Y-31107D01*
X58343Y-31050D01*
X58343Y-30993D01*
X58743Y-30793D02*
X58343Y-30793D01*
X58143Y-30793D02*
X58171Y-30822D01*
X58200Y-30793D01*
X58171Y-30765D01*
X58143Y-30793D01*
X58200Y-30793D01*
X58343Y-30250D02*
X58829Y-30250D01*
X58886Y-30279D01*
X58914Y-30307D01*
X58943Y-30364D01*
X58943Y-30450D01*
X58914Y-30507D01*
X58714Y-30250D02*
X58743Y-30307D01*
X58743Y-30421D01*
X58714Y-30479D01*
X58686Y-30507D01*
X58629Y-30536D01*
X58457Y-30536D01*
X58400Y-30507D01*
X58371Y-30479D01*
X58343Y-30421D01*
X58343Y-30307D01*
X58371Y-30250D01*
X58343Y-29707D02*
X58829Y-29707D01*
X58886Y-29736D01*
X58914Y-29764D01*
X58943Y-29821D01*
X58943Y-29907D01*
X58914Y-29964D01*
X58714Y-29707D02*
X58743Y-29764D01*
X58743Y-29878D01*
X58714Y-29936D01*
X58686Y-29964D01*
X58629Y-29993D01*
X58457Y-29993D01*
X58400Y-29964D01*
X58371Y-29936D01*
X58343Y-29878D01*
X58343Y-29764D01*
X58371Y-29707D01*
X58714Y-29193D02*
X58743Y-29250D01*
X58743Y-29364D01*
X58714Y-29421D01*
X58657Y-29450D01*
X58429Y-29450D01*
X58371Y-29421D01*
X58343Y-29364D01*
X58343Y-29250D01*
X58371Y-29193D01*
X58429Y-29164D01*
X58486Y-29164D01*
X58543Y-29450D01*
X58743Y-28907D02*
X58343Y-28907D01*
X58457Y-28907D02*
X58400Y-28879D01*
X58371Y-28850D01*
X58343Y-28793D01*
X58343Y-28736D01*
X58429Y-28336D02*
X58457Y-28250D01*
X58486Y-28222D01*
X58543Y-28193D01*
X58629Y-28193D01*
X58686Y-28222D01*
X58714Y-28250D01*
X58743Y-28308D01*
X58743Y-28536D01*
X58143Y-28536D01*
X58143Y-28336D01*
X58171Y-28279D01*
X58200Y-28250D01*
X58257Y-28222D01*
X58314Y-28222D01*
X58371Y-28250D01*
X58400Y-28279D01*
X58429Y-28336D01*
X58429Y-28536D01*
X58743Y-27936D02*
X58343Y-27936D01*
X58457Y-27936D02*
X58400Y-27908D01*
X58371Y-27879D01*
X58343Y-27822D01*
X58343Y-27765D01*
X58714Y-27337D02*
X58743Y-27394D01*
X58743Y-27508D01*
X58714Y-27565D01*
X58657Y-27594D01*
X58429Y-27594D01*
X58371Y-27565D01*
X58343Y-27508D01*
X58343Y-27394D01*
X58371Y-27337D01*
X58429Y-27308D01*
X58486Y-27308D01*
X58543Y-27594D01*
X58743Y-26794D02*
X58429Y-26794D01*
X58371Y-26823D01*
X58343Y-26880D01*
X58343Y-26994D01*
X58371Y-27051D01*
X58714Y-26794D02*
X58743Y-26851D01*
X58743Y-26994D01*
X58714Y-27051D01*
X58657Y-27080D01*
X58600Y-27080D01*
X58543Y-27051D01*
X58514Y-26994D01*
X58514Y-26851D01*
X58486Y-26794D01*
X58743Y-26508D02*
X58143Y-26508D01*
X58514Y-26451D02*
X58743Y-26280D01*
X58343Y-26280D02*
X58571Y-26508D01*
X58743Y-25936D02*
X58714Y-25994D01*
X58686Y-26022D01*
X58629Y-26051D01*
X58457Y-26051D01*
X58400Y-26022D01*
X58371Y-25994D01*
X58343Y-25936D01*
X58343Y-25851D01*
X58371Y-25794D01*
X58400Y-25765D01*
X58457Y-25736D01*
X58629Y-25736D01*
X58686Y-25765D01*
X58714Y-25794D01*
X58743Y-25851D01*
X58743Y-25936D01*
X58343Y-25222D02*
X58743Y-25222D01*
X58343Y-25479D02*
X58657Y-25479D01*
X58714Y-25451D01*
X58743Y-25393D01*
X58743Y-25308D01*
X58714Y-25251D01*
X58686Y-25222D01*
X58343Y-25022D02*
X58343Y-24793D01*
X58143Y-24936D02*
X58657Y-24936D01*
X58714Y-24908D01*
X58743Y-24850D01*
X58743Y-24793D01*
X52807Y-60964D02*
X52893Y-60993D01*
X53036Y-60993D01*
X53093Y-60964D01*
X53122Y-60936D01*
X53150Y-60879D01*
X53150Y-60821D01*
X53122Y-60764D01*
X53093Y-60736D01*
X53036Y-60707D01*
X52922Y-60679D01*
X52864Y-60650D01*
X52836Y-60621D01*
X52807Y-60564D01*
X52807Y-60507D01*
X52836Y-60450D01*
X52864Y-60421D01*
X52922Y-60393D01*
X53064Y-60393D01*
X53150Y-60421D01*
X53407Y-60993D02*
X53407Y-60393D01*
X54007Y-60421D02*
X53950Y-60393D01*
X53864Y-60393D01*
X53779Y-60421D01*
X53721Y-60479D01*
X53693Y-60536D01*
X53664Y-60650D01*
X53664Y-60736D01*
X53693Y-60850D01*
X53721Y-60907D01*
X53779Y-60964D01*
X53864Y-60993D01*
X53921Y-60993D01*
X54007Y-60964D01*
X54036Y-60936D01*
X54036Y-60736D01*
X53921Y-60736D01*
X54293Y-60993D02*
X54293Y-60393D01*
X54636Y-60993D01*
X54636Y-60393D01*
X54893Y-60821D02*
X55179Y-60821D01*
X54836Y-60993D02*
X55036Y-60393D01*
X55236Y-60993D01*
X55722Y-60993D02*
X55436Y-60993D01*
X55436Y-60393D01*
X55779Y-61050D02*
X56236Y-61050D01*
X56322Y-60393D02*
X56693Y-60393D01*
X56493Y-60621D01*
X56579Y-60621D01*
X56636Y-60650D01*
X56665Y-60679D01*
X56693Y-60736D01*
X56693Y-60879D01*
X56665Y-60936D01*
X56636Y-60964D01*
X56579Y-60993D01*
X56407Y-60993D01*
X56350Y-60964D01*
X56322Y-60936D01*
X52807Y-50964D02*
X52893Y-50993D01*
X53036Y-50993D01*
X53093Y-50964D01*
X53122Y-50936D01*
X53150Y-50879D01*
X53150Y-50821D01*
X53122Y-50764D01*
X53093Y-50736D01*
X53036Y-50707D01*
X52922Y-50679D01*
X52864Y-50650D01*
X52836Y-50621D01*
X52807Y-50564D01*
X52807Y-50507D01*
X52836Y-50450D01*
X52864Y-50421D01*
X52922Y-50393D01*
X53064Y-50393D01*
X53150Y-50421D01*
X53407Y-50993D02*
X53407Y-50393D01*
X54007Y-50421D02*
X53950Y-50393D01*
X53864Y-50393D01*
X53779Y-50421D01*
X53721Y-50479D01*
X53693Y-50536D01*
X53664Y-50650D01*
X53664Y-50736D01*
X53693Y-50850D01*
X53721Y-50907D01*
X53779Y-50964D01*
X53864Y-50993D01*
X53921Y-50993D01*
X54007Y-50964D01*
X54036Y-50936D01*
X54036Y-50736D01*
X53921Y-50736D01*
X54293Y-50993D02*
X54293Y-50393D01*
X54636Y-50993D01*
X54636Y-50393D01*
X54893Y-50821D02*
X55179Y-50821D01*
X54836Y-50993D02*
X55036Y-50393D01*
X55236Y-50993D01*
X55722Y-50993D02*
X55436Y-50993D01*
X55436Y-50393D01*
X55779Y-51050D02*
X56236Y-51050D01*
X56350Y-50450D02*
X56379Y-50421D01*
X56436Y-50393D01*
X56579Y-50393D01*
X56636Y-50421D01*
X56665Y-50450D01*
X56693Y-50507D01*
X56693Y-50564D01*
X56665Y-50650D01*
X56322Y-50993D01*
X56693Y-50993D01*
X52807Y-33714D02*
X52893Y-33743D01*
X53036Y-33743D01*
X53093Y-33714D01*
X53122Y-33686D01*
X53150Y-33629D01*
X53150Y-33571D01*
X53122Y-33514D01*
X53093Y-33486D01*
X53036Y-33457D01*
X52922Y-33429D01*
X52864Y-33400D01*
X52836Y-33371D01*
X52807Y-33314D01*
X52807Y-33257D01*
X52836Y-33200D01*
X52864Y-33171D01*
X52922Y-33143D01*
X53064Y-33143D01*
X53150Y-33171D01*
X53407Y-33743D02*
X53407Y-33143D01*
X54007Y-33171D02*
X53950Y-33143D01*
X53864Y-33143D01*
X53779Y-33171D01*
X53721Y-33229D01*
X53693Y-33286D01*
X53664Y-33400D01*
X53664Y-33486D01*
X53693Y-33600D01*
X53721Y-33657D01*
X53779Y-33714D01*
X53864Y-33743D01*
X53921Y-33743D01*
X54007Y-33714D01*
X54036Y-33686D01*
X54036Y-33486D01*
X53921Y-33486D01*
X54293Y-33743D02*
X54293Y-33143D01*
X54636Y-33743D01*
X54636Y-33143D01*
X54893Y-33571D02*
X55179Y-33571D01*
X54836Y-33743D02*
X55036Y-33143D01*
X55236Y-33743D01*
X55722Y-33743D02*
X55436Y-33743D01*
X55436Y-33143D01*
X55779Y-33800D02*
X56236Y-33800D01*
X56693Y-33743D02*
X56350Y-33743D01*
X56522Y-33743D02*
X56522Y-33143D01*
X56465Y-33229D01*
X56407Y-33286D01*
X56350Y-33314D01*
X52807Y-23714D02*
X52893Y-23743D01*
X53036Y-23743D01*
X53093Y-23714D01*
X53122Y-23686D01*
X53150Y-23629D01*
X53150Y-23571D01*
X53122Y-23514D01*
X53093Y-23486D01*
X53036Y-23457D01*
X52922Y-23429D01*
X52864Y-23400D01*
X52836Y-23371D01*
X52807Y-23314D01*
X52807Y-23257D01*
X52836Y-23200D01*
X52864Y-23171D01*
X52922Y-23143D01*
X53064Y-23143D01*
X53150Y-23171D01*
X53407Y-23743D02*
X53407Y-23143D01*
X54007Y-23171D02*
X53950Y-23143D01*
X53864Y-23143D01*
X53779Y-23171D01*
X53721Y-23229D01*
X53693Y-23286D01*
X53664Y-23400D01*
X53664Y-23486D01*
X53693Y-23600D01*
X53721Y-23657D01*
X53779Y-23714D01*
X53864Y-23743D01*
X53921Y-23743D01*
X54007Y-23714D01*
X54036Y-23686D01*
X54036Y-23486D01*
X53921Y-23486D01*
X54293Y-23743D02*
X54293Y-23143D01*
X54636Y-23743D01*
X54636Y-23143D01*
X54893Y-23571D02*
X55179Y-23571D01*
X54836Y-23743D02*
X55036Y-23143D01*
X55236Y-23743D01*
X55722Y-23743D02*
X55436Y-23743D01*
X55436Y-23143D01*
X55779Y-23800D02*
X56236Y-23800D01*
X56493Y-23143D02*
X56550Y-23143D01*
X56607Y-23171D01*
X56636Y-23200D01*
X56665Y-23257D01*
X56693Y-23371D01*
X56693Y-23514D01*
X56665Y-23629D01*
X56636Y-23686D01*
X56607Y-23714D01*
X56550Y-23743D01*
X56493Y-23743D01*
X56436Y-23714D01*
X56407Y-23686D01*
X56379Y-23629D01*
X56350Y-23514D01*
X56350Y-23371D01*
X56379Y-23257D01*
X56407Y-23200D01*
X56436Y-23171D01*
X56493Y-23143D01*
G54D13*
X62550Y-38000D02*
X58950Y-38000D01*
X58950Y-38000D02*
X58950Y-46000D01*
X58950Y-46000D02*
X62550Y-46000D01*
X62550Y-46000D02*
X62550Y-38000D01*
X58750Y-40000D02*
X58150Y-39500D01*
X58150Y-39500D02*
X58150Y-40500D01*
X58150Y-40500D02*
X58750Y-40000D01*
G54D14*
X60455Y-46662D02*
X60455Y-46262D01*
X60608Y-46262D01*
X60646Y-46281D01*
X60665Y-46300D01*
X60684Y-46338D01*
X60684Y-46395D01*
X60665Y-46433D01*
X60646Y-46452D01*
X60608Y-46471D01*
X60455Y-46471D01*
X61065Y-46662D02*
X60836Y-46662D01*
X60950Y-46662D02*
X60950Y-46262D01*
X60912Y-46319D01*
X60874Y-46357D01*
X60836Y-46376D01*
X61850Y-40114D02*
X61831Y-40095D01*
X61812Y-40057D01*
X61812Y-39961D01*
X61831Y-39923D01*
X61850Y-39904D01*
X61888Y-39885D01*
X61926Y-39885D01*
X61983Y-39904D01*
X62212Y-40133D01*
X62212Y-39885D01*
X62212Y-44076D02*
X62212Y-44305D01*
X62212Y-44191D02*
X61812Y-44191D01*
X61869Y-44229D01*
X61907Y-44267D01*
X61926Y-44305D01*
X61812Y-43829D02*
X61812Y-43790D01*
X61831Y-43752D01*
X61850Y-43733D01*
X61888Y-43714D01*
X61964Y-43695D01*
X62060Y-43695D01*
X62136Y-43714D01*
X62174Y-43733D01*
X62193Y-43752D01*
X62212Y-43790D01*
X62212Y-43829D01*
X62193Y-43867D01*
X62174Y-43886D01*
X62136Y-43905D01*
X62060Y-43924D01*
X61964Y-43924D01*
X61888Y-43905D01*
X61850Y-43886D01*
X61831Y-43867D01*
X61812Y-43829D01*
X59512Y-44076D02*
X59512Y-44000D01*
X59493Y-43961D01*
X59474Y-43942D01*
X59417Y-43904D01*
X59340Y-43885D01*
X59188Y-43885D01*
X59150Y-43904D01*
X59131Y-43923D01*
X59112Y-43961D01*
X59112Y-44038D01*
X59131Y-44076D01*
X59150Y-44095D01*
X59188Y-44114D01*
X59283Y-44114D01*
X59321Y-44095D01*
X59340Y-44076D01*
X59360Y-44038D01*
X59360Y-43961D01*
X59340Y-43923D01*
X59321Y-43904D01*
X59283Y-43885D01*
M02*
