G04 (created by PCBNEW-RS274X (20100406 SVN-R2509)-final) date Thu 17 Jun 2010 02:34:41 PM PDT*
G01*
G70*
G90*
%MOIN*%
G04 Gerber Fmt 3.4, Leading zero omitted, Abs format*
%FSLAX34Y34*%
G04 APERTURE LIST*
%ADD10C,0.001000*%
%ADD11C,0.009000*%
%ADD12C,0.015000*%
%ADD13C,0.010000*%
G04 APERTURE END LIST*
G54D10*
G54D11*
X62750Y-22000D02*
X50250Y-22000D01*
X62750Y-62000D02*
X62750Y-22000D01*
X50250Y-62000D02*
X62750Y-62000D01*
X50250Y-22000D02*
X50250Y-62000D01*
G54D12*
X51750Y-60000D02*
X57750Y-60000D01*
X51750Y-54000D02*
X57750Y-54000D01*
X51750Y-55000D02*
X51450Y-55000D01*
X51450Y-55000D02*
X51450Y-59000D01*
X51450Y-59000D02*
X51750Y-59000D01*
X55750Y-54000D02*
X55750Y-60000D01*
X51750Y-54000D02*
X51750Y-60000D01*
X57750Y-54000D02*
X57750Y-60000D01*
X51750Y-50000D02*
X57750Y-50000D01*
X51750Y-44000D02*
X57750Y-44000D01*
X51750Y-45000D02*
X51450Y-45000D01*
X51450Y-45000D02*
X51450Y-49000D01*
X51450Y-49000D02*
X51750Y-49000D01*
X55750Y-44000D02*
X55750Y-50000D01*
X51750Y-44000D02*
X51750Y-50000D01*
X57750Y-44000D02*
X57750Y-50000D01*
X51750Y-40000D02*
X57750Y-40000D01*
X51750Y-34000D02*
X57750Y-34000D01*
X51750Y-35000D02*
X51450Y-35000D01*
X51450Y-35000D02*
X51450Y-39000D01*
X51450Y-39000D02*
X51750Y-39000D01*
X55750Y-34000D02*
X55750Y-40000D01*
X51750Y-34000D02*
X51750Y-40000D01*
X57750Y-34000D02*
X57750Y-40000D01*
X51750Y-30000D02*
X57750Y-30000D01*
X51750Y-24000D02*
X57750Y-24000D01*
X51750Y-25000D02*
X51450Y-25000D01*
X51450Y-25000D02*
X51450Y-29000D01*
X51450Y-29000D02*
X51750Y-29000D01*
X55750Y-24000D02*
X55750Y-30000D01*
X51750Y-24000D02*
X51750Y-30000D01*
X57750Y-24000D02*
X57750Y-30000D01*
G54D13*
X58743Y-56558D02*
X58143Y-56558D01*
X58143Y-56786D01*
X58171Y-56844D01*
X58200Y-56872D01*
X58257Y-56901D01*
X58343Y-56901D01*
X58400Y-56872D01*
X58429Y-56844D01*
X58457Y-56786D01*
X58457Y-56558D01*
X58143Y-57444D02*
X58143Y-57158D01*
X58429Y-57129D01*
X58400Y-57158D01*
X58371Y-57215D01*
X58371Y-57358D01*
X58400Y-57415D01*
X58429Y-57444D01*
X58486Y-57472D01*
X58629Y-57472D01*
X58686Y-57444D01*
X58714Y-57415D01*
X58743Y-57358D01*
X58743Y-57215D01*
X58714Y-57158D01*
X58686Y-57129D01*
X59464Y-55057D02*
X59493Y-55143D01*
X59493Y-55286D01*
X59464Y-55343D01*
X59436Y-55372D01*
X59379Y-55400D01*
X59321Y-55400D01*
X59264Y-55372D01*
X59236Y-55343D01*
X59207Y-55286D01*
X59179Y-55172D01*
X59150Y-55114D01*
X59121Y-55086D01*
X59064Y-55057D01*
X59007Y-55057D01*
X58950Y-55086D01*
X58921Y-55114D01*
X58893Y-55172D01*
X58893Y-55314D01*
X58921Y-55400D01*
X59493Y-55657D02*
X58893Y-55657D01*
X58921Y-56257D02*
X58893Y-56200D01*
X58893Y-56114D01*
X58921Y-56029D01*
X58979Y-55971D01*
X59036Y-55943D01*
X59150Y-55914D01*
X59236Y-55914D01*
X59350Y-55943D01*
X59407Y-55971D01*
X59464Y-56029D01*
X59493Y-56114D01*
X59493Y-56171D01*
X59464Y-56257D01*
X59436Y-56286D01*
X59236Y-56286D01*
X59236Y-56171D01*
X59493Y-56543D02*
X58893Y-56543D01*
X59493Y-56886D01*
X58893Y-56886D01*
X59321Y-57143D02*
X59321Y-57429D01*
X59493Y-57086D02*
X58893Y-57286D01*
X59493Y-57486D01*
X59493Y-57972D02*
X59493Y-57686D01*
X58893Y-57686D01*
X59550Y-58029D02*
X59550Y-58486D01*
X58893Y-58572D02*
X58893Y-58943D01*
X59121Y-58743D01*
X59121Y-58829D01*
X59150Y-58886D01*
X59179Y-58915D01*
X59236Y-58943D01*
X59379Y-58943D01*
X59436Y-58915D01*
X59464Y-58886D01*
X59493Y-58829D01*
X59493Y-58657D01*
X59464Y-58600D01*
X59436Y-58572D01*
X58743Y-46558D02*
X58143Y-46558D01*
X58143Y-46786D01*
X58171Y-46844D01*
X58200Y-46872D01*
X58257Y-46901D01*
X58343Y-46901D01*
X58400Y-46872D01*
X58429Y-46844D01*
X58457Y-46786D01*
X58457Y-46558D01*
X58343Y-47415D02*
X58743Y-47415D01*
X58114Y-47272D02*
X58543Y-47129D01*
X58543Y-47501D01*
X59464Y-45057D02*
X59493Y-45143D01*
X59493Y-45286D01*
X59464Y-45343D01*
X59436Y-45372D01*
X59379Y-45400D01*
X59321Y-45400D01*
X59264Y-45372D01*
X59236Y-45343D01*
X59207Y-45286D01*
X59179Y-45172D01*
X59150Y-45114D01*
X59121Y-45086D01*
X59064Y-45057D01*
X59007Y-45057D01*
X58950Y-45086D01*
X58921Y-45114D01*
X58893Y-45172D01*
X58893Y-45314D01*
X58921Y-45400D01*
X59493Y-45657D02*
X58893Y-45657D01*
X58921Y-46257D02*
X58893Y-46200D01*
X58893Y-46114D01*
X58921Y-46029D01*
X58979Y-45971D01*
X59036Y-45943D01*
X59150Y-45914D01*
X59236Y-45914D01*
X59350Y-45943D01*
X59407Y-45971D01*
X59464Y-46029D01*
X59493Y-46114D01*
X59493Y-46171D01*
X59464Y-46257D01*
X59436Y-46286D01*
X59236Y-46286D01*
X59236Y-46171D01*
X59493Y-46543D02*
X58893Y-46543D01*
X59493Y-46886D01*
X58893Y-46886D01*
X59321Y-47143D02*
X59321Y-47429D01*
X59493Y-47086D02*
X58893Y-47286D01*
X59493Y-47486D01*
X59493Y-47972D02*
X59493Y-47686D01*
X58893Y-47686D01*
X59550Y-48029D02*
X59550Y-48486D01*
X58950Y-48600D02*
X58921Y-48629D01*
X58893Y-48686D01*
X58893Y-48829D01*
X58921Y-48886D01*
X58950Y-48915D01*
X59007Y-48943D01*
X59064Y-48943D01*
X59150Y-48915D01*
X59493Y-48572D01*
X59493Y-48943D01*
X58743Y-36558D02*
X58143Y-36558D01*
X58143Y-36786D01*
X58171Y-36844D01*
X58200Y-36872D01*
X58257Y-36901D01*
X58343Y-36901D01*
X58400Y-36872D01*
X58429Y-36844D01*
X58457Y-36786D01*
X58457Y-36558D01*
X58143Y-37101D02*
X58143Y-37472D01*
X58371Y-37272D01*
X58371Y-37358D01*
X58400Y-37415D01*
X58429Y-37444D01*
X58486Y-37472D01*
X58629Y-37472D01*
X58686Y-37444D01*
X58714Y-37415D01*
X58743Y-37358D01*
X58743Y-37186D01*
X58714Y-37129D01*
X58686Y-37101D01*
X59464Y-35057D02*
X59493Y-35143D01*
X59493Y-35286D01*
X59464Y-35343D01*
X59436Y-35372D01*
X59379Y-35400D01*
X59321Y-35400D01*
X59264Y-35372D01*
X59236Y-35343D01*
X59207Y-35286D01*
X59179Y-35172D01*
X59150Y-35114D01*
X59121Y-35086D01*
X59064Y-35057D01*
X59007Y-35057D01*
X58950Y-35086D01*
X58921Y-35114D01*
X58893Y-35172D01*
X58893Y-35314D01*
X58921Y-35400D01*
X59493Y-35657D02*
X58893Y-35657D01*
X58921Y-36257D02*
X58893Y-36200D01*
X58893Y-36114D01*
X58921Y-36029D01*
X58979Y-35971D01*
X59036Y-35943D01*
X59150Y-35914D01*
X59236Y-35914D01*
X59350Y-35943D01*
X59407Y-35971D01*
X59464Y-36029D01*
X59493Y-36114D01*
X59493Y-36171D01*
X59464Y-36257D01*
X59436Y-36286D01*
X59236Y-36286D01*
X59236Y-36171D01*
X59493Y-36543D02*
X58893Y-36543D01*
X59493Y-36886D01*
X58893Y-36886D01*
X59321Y-37143D02*
X59321Y-37429D01*
X59493Y-37086D02*
X58893Y-37286D01*
X59493Y-37486D01*
X59493Y-37972D02*
X59493Y-37686D01*
X58893Y-37686D01*
X59550Y-38029D02*
X59550Y-38486D01*
X59493Y-38943D02*
X59493Y-38600D01*
X59493Y-38772D02*
X58893Y-38772D01*
X58979Y-38715D01*
X59036Y-38657D01*
X59064Y-38600D01*
X58743Y-26558D02*
X58143Y-26558D01*
X58143Y-26786D01*
X58171Y-26844D01*
X58200Y-26872D01*
X58257Y-26901D01*
X58343Y-26901D01*
X58400Y-26872D01*
X58429Y-26844D01*
X58457Y-26786D01*
X58457Y-26558D01*
X58200Y-27129D02*
X58171Y-27158D01*
X58143Y-27215D01*
X58143Y-27358D01*
X58171Y-27415D01*
X58200Y-27444D01*
X58257Y-27472D01*
X58314Y-27472D01*
X58400Y-27444D01*
X58743Y-27101D01*
X58743Y-27472D01*
X59464Y-25057D02*
X59493Y-25143D01*
X59493Y-25286D01*
X59464Y-25343D01*
X59436Y-25372D01*
X59379Y-25400D01*
X59321Y-25400D01*
X59264Y-25372D01*
X59236Y-25343D01*
X59207Y-25286D01*
X59179Y-25172D01*
X59150Y-25114D01*
X59121Y-25086D01*
X59064Y-25057D01*
X59007Y-25057D01*
X58950Y-25086D01*
X58921Y-25114D01*
X58893Y-25172D01*
X58893Y-25314D01*
X58921Y-25400D01*
X59493Y-25657D02*
X58893Y-25657D01*
X58921Y-26257D02*
X58893Y-26200D01*
X58893Y-26114D01*
X58921Y-26029D01*
X58979Y-25971D01*
X59036Y-25943D01*
X59150Y-25914D01*
X59236Y-25914D01*
X59350Y-25943D01*
X59407Y-25971D01*
X59464Y-26029D01*
X59493Y-26114D01*
X59493Y-26171D01*
X59464Y-26257D01*
X59436Y-26286D01*
X59236Y-26286D01*
X59236Y-26171D01*
X59493Y-26543D02*
X58893Y-26543D01*
X59493Y-26886D01*
X58893Y-26886D01*
X59321Y-27143D02*
X59321Y-27429D01*
X59493Y-27086D02*
X58893Y-27286D01*
X59493Y-27486D01*
X59493Y-27972D02*
X59493Y-27686D01*
X58893Y-27686D01*
X59550Y-28029D02*
X59550Y-28486D01*
X58893Y-28743D02*
X58893Y-28800D01*
X58921Y-28857D01*
X58950Y-28886D01*
X59007Y-28915D01*
X59121Y-28943D01*
X59264Y-28943D01*
X59379Y-28915D01*
X59436Y-28886D01*
X59464Y-28857D01*
X59493Y-28800D01*
X59493Y-28743D01*
X59464Y-28686D01*
X59436Y-28657D01*
X59379Y-28629D01*
X59264Y-28600D01*
X59121Y-28600D01*
X59007Y-28629D01*
X58950Y-28657D01*
X58921Y-28686D01*
X58893Y-28743D01*
M02*
