G04 (created by PCBnew (20090216-final)) date Thu 28 Oct 2010 10:05:55 PM PDT*
G01*
G70*
G90*
%MOIN*%
G04 Gerber Fmt 3.4, Leading zero omitted, Abs format*
%FSLAX34Y34*%
G04 APERTURE LIST*
%ADD10C,0.009000*%
%ADD11C,0.120000*%
%ADD12R,0.065000X0.065000*%
%ADD13C,0.065000*%
%ADD14C,0.069000*%
%ADD15R,0.069000X0.069000*%
%ADD16C,0.130000*%
%ADD17R,0.070000X0.070000*%
%ADD18C,0.070000*%
%ADD19C,0.035000*%
%ADD20C,0.035000*%
%ADD21C,0.032000*%
%ADD22C,0.010000*%
%ADD23C,0.008000*%
%ADD24C,0.012000*%
%ADD25C,0.005000*%
%ADD26C,0.006000*%
%ADD27C,0.015000*%
%ADD28C,0.126000*%
%ADD29R,0.071000X0.071000*%
%ADD30C,0.071000*%
%ADD31C,0.075000*%
%ADD32R,0.075000X0.075000*%
%ADD33C,0.136000*%
%ADD34R,0.076000X0.076000*%
%ADD35C,0.076000*%
G04 APERTURE END LIST*
G54D10*
X59000Y-30750D02*
X29000Y-30750D01*
X59000Y-53250D02*
X59000Y-30750D01*
X29000Y-53250D02*
X59000Y-53250D01*
X29000Y-30750D02*
X29000Y-53250D01*
G54D11*
X31500Y-49000D03*
X31500Y-45000D03*
G54D12*
X33500Y-47000D03*
G54D13*
X33500Y-48000D03*
G54D11*
X35500Y-49000D03*
G54D14*
X29750Y-34000D03*
X30750Y-34000D03*
X31750Y-34000D03*
X32750Y-34000D03*
X33750Y-34000D03*
X34750Y-34000D03*
X35750Y-34000D03*
X36750Y-34000D03*
X37750Y-34000D03*
X38750Y-34000D03*
X39750Y-34000D03*
X40750Y-34000D03*
X41750Y-34000D03*
X42750Y-34000D03*
X48750Y-34000D03*
X47750Y-34000D03*
X46750Y-34000D03*
X45750Y-34000D03*
X44750Y-34000D03*
X43750Y-34000D03*
G54D15*
X29750Y-40000D03*
G54D14*
X30750Y-40000D03*
X31750Y-40000D03*
X32750Y-40000D03*
X33750Y-40000D03*
X34750Y-40000D03*
X35750Y-40000D03*
X36750Y-40000D03*
X37750Y-40000D03*
X38750Y-40000D03*
X39750Y-40000D03*
X40750Y-40000D03*
X41750Y-40000D03*
X42750Y-40000D03*
X43750Y-40000D03*
X44750Y-40000D03*
X45750Y-40000D03*
X46750Y-40000D03*
X47750Y-40000D03*
X48750Y-40000D03*
G54D16*
X30250Y-32000D03*
X30250Y-52000D03*
X39000Y-52000D03*
X39000Y-32000D03*
X49000Y-32000D03*
X49000Y-52000D03*
X57750Y-32000D03*
X57750Y-52000D03*
G54D17*
X43500Y-45000D03*
G54D18*
X44500Y-45000D03*
X43500Y-46000D03*
X44500Y-46000D03*
X43500Y-47000D03*
X44500Y-47000D03*
X43500Y-48000D03*
X44500Y-48000D03*
X43500Y-49000D03*
X44500Y-49000D03*
G54D17*
X53500Y-45000D03*
G54D18*
X54500Y-45000D03*
X53500Y-46000D03*
X54500Y-46000D03*
X53500Y-47000D03*
X54500Y-47000D03*
X53500Y-48000D03*
X54500Y-48000D03*
X53500Y-49000D03*
X54500Y-49000D03*
G54D17*
X53500Y-35000D03*
G54D18*
X54500Y-35000D03*
X53500Y-36000D03*
X54500Y-36000D03*
X53500Y-37000D03*
X54500Y-37000D03*
X53500Y-38000D03*
X54500Y-38000D03*
X53500Y-39000D03*
X54500Y-39000D03*
G54D19*
X46005Y-41485D03*
G54D21*
X47750Y-41485D02*
X46005Y-41485D01*
X52265Y-46000D02*
X47750Y-41485D01*
X53500Y-46000D02*
X52265Y-46000D01*
X47750Y-41485D02*
X47750Y-40000D01*
X43732Y-33018D02*
X42750Y-34000D01*
X49518Y-33018D02*
X43732Y-33018D01*
X53500Y-37000D02*
X49518Y-33018D01*
X49750Y-39000D02*
X44750Y-34000D01*
X53500Y-39000D02*
X49750Y-39000D01*
X51750Y-48000D02*
X53500Y-48000D01*
X43750Y-40000D02*
X51750Y-48000D01*
G54D22*
X29245Y-52995D02*
X58755Y-52995D01*
X29245Y-52915D02*
X58755Y-52915D01*
X58085Y-52835D02*
X58755Y-52835D01*
X49335Y-52835D02*
X57414Y-52835D01*
X39335Y-52835D02*
X48664Y-52835D01*
X30585Y-52835D02*
X38664Y-52835D01*
X29245Y-52835D02*
X29914Y-52835D01*
X58267Y-52755D02*
X58755Y-52755D01*
X49517Y-52755D02*
X57232Y-52755D01*
X39517Y-52755D02*
X48482Y-52755D01*
X30767Y-52755D02*
X38482Y-52755D01*
X29245Y-52755D02*
X29732Y-52755D01*
X58347Y-52675D02*
X58755Y-52675D01*
X49597Y-52675D02*
X57152Y-52675D01*
X39597Y-52675D02*
X48402Y-52675D01*
X30847Y-52675D02*
X38402Y-52675D01*
X29245Y-52675D02*
X29652Y-52675D01*
X58427Y-52595D02*
X58755Y-52595D01*
X49677Y-52595D02*
X57072Y-52595D01*
X39677Y-52595D02*
X48322Y-52595D01*
X30927Y-52595D02*
X38322Y-52595D01*
X29245Y-52595D02*
X29572Y-52595D01*
X58507Y-52515D02*
X58755Y-52515D01*
X49757Y-52515D02*
X56992Y-52515D01*
X39757Y-52515D02*
X48242Y-52515D01*
X31007Y-52515D02*
X38242Y-52515D01*
X29245Y-52515D02*
X29492Y-52515D01*
X58543Y-52435D02*
X58755Y-52435D01*
X49793Y-52435D02*
X56956Y-52435D01*
X39793Y-52435D02*
X48206Y-52435D01*
X31043Y-52435D02*
X38206Y-52435D01*
X29245Y-52435D02*
X29456Y-52435D01*
X58577Y-52355D02*
X58755Y-52355D01*
X49827Y-52355D02*
X56923Y-52355D01*
X39827Y-52355D02*
X48173Y-52355D01*
X31077Y-52355D02*
X38173Y-52355D01*
X29245Y-52355D02*
X29423Y-52355D01*
X58610Y-52275D02*
X58755Y-52275D01*
X49860Y-52275D02*
X56890Y-52275D01*
X39860Y-52275D02*
X48140Y-52275D01*
X31110Y-52275D02*
X38140Y-52275D01*
X29245Y-52275D02*
X29390Y-52275D01*
X58643Y-52195D02*
X58755Y-52195D01*
X49893Y-52195D02*
X56857Y-52195D01*
X39893Y-52195D02*
X48107Y-52195D01*
X31143Y-52195D02*
X38107Y-52195D01*
X29245Y-52195D02*
X29357Y-52195D01*
X58650Y-52115D02*
X58755Y-52115D01*
X49900Y-52115D02*
X56850Y-52115D01*
X39900Y-52115D02*
X48100Y-52115D01*
X31150Y-52115D02*
X38100Y-52115D01*
X29245Y-52115D02*
X29350Y-52115D01*
X58650Y-52035D02*
X58755Y-52035D01*
X49900Y-52035D02*
X56850Y-52035D01*
X39900Y-52035D02*
X48100Y-52035D01*
X31150Y-52035D02*
X38100Y-52035D01*
X29245Y-52035D02*
X29350Y-52035D01*
X58650Y-51955D02*
X58755Y-51955D01*
X49900Y-51955D02*
X56850Y-51955D01*
X39900Y-51955D02*
X48100Y-51955D01*
X31150Y-51955D02*
X38100Y-51955D01*
X29245Y-51955D02*
X29350Y-51955D01*
X58650Y-51875D02*
X58755Y-51875D01*
X49900Y-51875D02*
X56850Y-51875D01*
X39900Y-51875D02*
X48100Y-51875D01*
X31150Y-51875D02*
X38100Y-51875D01*
X29245Y-51875D02*
X29350Y-51875D01*
X58639Y-51795D02*
X58755Y-51795D01*
X49889Y-51795D02*
X56861Y-51795D01*
X39889Y-51795D02*
X48111Y-51795D01*
X31139Y-51795D02*
X38111Y-51795D01*
X29245Y-51795D02*
X29361Y-51795D01*
X58606Y-51715D02*
X58755Y-51715D01*
X49856Y-51715D02*
X56894Y-51715D01*
X39856Y-51715D02*
X48144Y-51715D01*
X31106Y-51715D02*
X38144Y-51715D01*
X29245Y-51715D02*
X29394Y-51715D01*
X58573Y-51635D02*
X58755Y-51635D01*
X49823Y-51635D02*
X56928Y-51635D01*
X39823Y-51635D02*
X48178Y-51635D01*
X31073Y-51635D02*
X38178Y-51635D01*
X29245Y-51635D02*
X29428Y-51635D01*
X58540Y-51555D02*
X58755Y-51555D01*
X49790Y-51555D02*
X56961Y-51555D01*
X39790Y-51555D02*
X48211Y-51555D01*
X31040Y-51555D02*
X38211Y-51555D01*
X29245Y-51555D02*
X29461Y-51555D01*
X58498Y-51475D02*
X58755Y-51475D01*
X49748Y-51475D02*
X57003Y-51475D01*
X39748Y-51475D02*
X48253Y-51475D01*
X30998Y-51475D02*
X38253Y-51475D01*
X29245Y-51475D02*
X29503Y-51475D01*
X58418Y-51395D02*
X58755Y-51395D01*
X49668Y-51395D02*
X57083Y-51395D01*
X39668Y-51395D02*
X48333Y-51395D01*
X30918Y-51395D02*
X38333Y-51395D01*
X29245Y-51395D02*
X29583Y-51395D01*
X58338Y-51315D02*
X58755Y-51315D01*
X49588Y-51315D02*
X57163Y-51315D01*
X39588Y-51315D02*
X48413Y-51315D01*
X30838Y-51315D02*
X38413Y-51315D01*
X29245Y-51315D02*
X29663Y-51315D01*
X58254Y-51235D02*
X58755Y-51235D01*
X49504Y-51235D02*
X57246Y-51235D01*
X39504Y-51235D02*
X48496Y-51235D01*
X30754Y-51235D02*
X38496Y-51235D01*
X29245Y-51235D02*
X29746Y-51235D01*
X58062Y-51155D02*
X58755Y-51155D01*
X49312Y-51155D02*
X57438Y-51155D01*
X39312Y-51155D02*
X48690Y-51155D01*
X30562Y-51155D02*
X38690Y-51155D01*
X29245Y-51155D02*
X29940Y-51155D01*
X29245Y-51075D02*
X58755Y-51075D01*
X29245Y-50995D02*
X58755Y-50995D01*
X29245Y-50915D02*
X58755Y-50915D01*
X29245Y-50835D02*
X58755Y-50835D01*
X29245Y-50755D02*
X58755Y-50755D01*
X29245Y-50675D02*
X58755Y-50675D01*
X29245Y-50595D02*
X58755Y-50595D01*
X29245Y-50515D02*
X58755Y-50515D01*
X29245Y-50435D02*
X58755Y-50435D01*
X29245Y-50355D02*
X58755Y-50355D01*
X29245Y-50275D02*
X58755Y-50275D01*
X29245Y-50195D02*
X58755Y-50195D01*
X29245Y-50115D02*
X58755Y-50115D01*
X29245Y-50035D02*
X58755Y-50035D01*
X29245Y-49955D02*
X58755Y-49955D01*
X29245Y-49875D02*
X58755Y-49875D01*
X35801Y-49795D02*
X58755Y-49795D01*
X31801Y-49795D02*
X35198Y-49795D01*
X29245Y-49795D02*
X31198Y-49795D01*
X35986Y-49715D02*
X58755Y-49715D01*
X31986Y-49715D02*
X35013Y-49715D01*
X29245Y-49715D02*
X31013Y-49715D01*
X36066Y-49635D02*
X58755Y-49635D01*
X32066Y-49635D02*
X34933Y-49635D01*
X29245Y-49635D02*
X30933Y-49635D01*
X54725Y-49555D02*
X58755Y-49555D01*
X53725Y-49555D02*
X54274Y-49555D01*
X44725Y-49555D02*
X53274Y-49555D01*
X43725Y-49555D02*
X44274Y-49555D01*
X36146Y-49555D02*
X43274Y-49555D01*
X32146Y-49555D02*
X34853Y-49555D01*
X29245Y-49555D02*
X30853Y-49555D01*
X54872Y-49475D02*
X58755Y-49475D01*
X53872Y-49475D02*
X54128Y-49475D01*
X44872Y-49475D02*
X53128Y-49475D01*
X43872Y-49475D02*
X44128Y-49475D01*
X36222Y-49475D02*
X43128Y-49475D01*
X32222Y-49475D02*
X34776Y-49475D01*
X29245Y-49475D02*
X30776Y-49475D01*
X54952Y-49395D02*
X58755Y-49395D01*
X53952Y-49395D02*
X54048Y-49395D01*
X44952Y-49395D02*
X53048Y-49395D01*
X43952Y-49395D02*
X44048Y-49395D01*
X36256Y-49395D02*
X43048Y-49395D01*
X32256Y-49395D02*
X34743Y-49395D01*
X29245Y-49395D02*
X30743Y-49395D01*
X55017Y-49315D02*
X58755Y-49315D01*
X45017Y-49315D02*
X52982Y-49315D01*
X36289Y-49315D02*
X42982Y-49315D01*
X32289Y-49315D02*
X34710Y-49315D01*
X29245Y-49315D02*
X30710Y-49315D01*
X55051Y-49235D02*
X58755Y-49235D01*
X45051Y-49235D02*
X52948Y-49235D01*
X36322Y-49235D02*
X42948Y-49235D01*
X32322Y-49235D02*
X34677Y-49235D01*
X29245Y-49235D02*
X30677Y-49235D01*
X55084Y-49155D02*
X58755Y-49155D01*
X45084Y-49155D02*
X52915Y-49155D01*
X36350Y-49155D02*
X42915Y-49155D01*
X32350Y-49155D02*
X34650Y-49155D01*
X29245Y-49155D02*
X30650Y-49155D01*
X55099Y-49075D02*
X58755Y-49075D01*
X45099Y-49075D02*
X52901Y-49075D01*
X36350Y-49075D02*
X42901Y-49075D01*
X32350Y-49075D02*
X34650Y-49075D01*
X29245Y-49075D02*
X30650Y-49075D01*
X55099Y-48995D02*
X58755Y-48995D01*
X45099Y-48995D02*
X52901Y-48995D01*
X36350Y-48995D02*
X42901Y-48995D01*
X32350Y-48995D02*
X34650Y-48995D01*
X29245Y-48995D02*
X30650Y-48995D01*
X55099Y-48915D02*
X58755Y-48915D01*
X45099Y-48915D02*
X52901Y-48915D01*
X36350Y-48915D02*
X42901Y-48915D01*
X32350Y-48915D02*
X34650Y-48915D01*
X29245Y-48915D02*
X30650Y-48915D01*
X55080Y-48835D02*
X58755Y-48835D01*
X45080Y-48835D02*
X52921Y-48835D01*
X36350Y-48835D02*
X42921Y-48835D01*
X32350Y-48835D02*
X34650Y-48835D01*
X29245Y-48835D02*
X30650Y-48835D01*
X55047Y-48755D02*
X58755Y-48755D01*
X45047Y-48755D02*
X52954Y-48755D01*
X36319Y-48755D02*
X42954Y-48755D01*
X32319Y-48755D02*
X34682Y-48755D01*
X29245Y-48755D02*
X30682Y-48755D01*
X55014Y-48675D02*
X58755Y-48675D01*
X45014Y-48675D02*
X52987Y-48675D01*
X36286Y-48675D02*
X42987Y-48675D01*
X32286Y-48675D02*
X34715Y-48675D01*
X29245Y-48675D02*
X30715Y-48675D01*
X54942Y-48595D02*
X58755Y-48595D01*
X44942Y-48595D02*
X53058Y-48595D01*
X36253Y-48595D02*
X43058Y-48595D01*
X32253Y-48595D02*
X34748Y-48595D01*
X29245Y-48595D02*
X30748Y-48595D01*
X54862Y-48515D02*
X58755Y-48515D01*
X44862Y-48515D02*
X53137Y-48515D01*
X36217Y-48515D02*
X43137Y-48515D01*
X33759Y-48515D02*
X34784Y-48515D01*
X32217Y-48515D02*
X33241Y-48515D01*
X29245Y-48515D02*
X30784Y-48515D01*
X54912Y-48435D02*
X58755Y-48435D01*
X44912Y-48435D02*
X53088Y-48435D01*
X36137Y-48435D02*
X43088Y-48435D01*
X33878Y-48435D02*
X34864Y-48435D01*
X32137Y-48435D02*
X33122Y-48435D01*
X29245Y-48435D02*
X30864Y-48435D01*
X54992Y-48355D02*
X58755Y-48355D01*
X44992Y-48355D02*
X51557Y-48355D01*
X36057Y-48355D02*
X43008Y-48355D01*
X33958Y-48355D02*
X34944Y-48355D01*
X32057Y-48355D02*
X33042Y-48355D01*
X29245Y-48355D02*
X30944Y-48355D01*
X55034Y-48275D02*
X58755Y-48275D01*
X45034Y-48275D02*
X51445Y-48275D01*
X35970Y-48275D02*
X42965Y-48275D01*
X34008Y-48275D02*
X35030Y-48275D01*
X31970Y-48275D02*
X32991Y-48275D01*
X29245Y-48275D02*
X31030Y-48275D01*
X55067Y-48195D02*
X58755Y-48195D01*
X45067Y-48195D02*
X51365Y-48195D01*
X35778Y-48195D02*
X42932Y-48195D01*
X34041Y-48195D02*
X35224Y-48195D01*
X31778Y-48195D02*
X32958Y-48195D01*
X29245Y-48195D02*
X31222Y-48195D01*
X55099Y-48115D02*
X58755Y-48115D01*
X45099Y-48115D02*
X51285Y-48115D01*
X34075Y-48115D02*
X42901Y-48115D01*
X29245Y-48115D02*
X32925Y-48115D01*
X55099Y-48035D02*
X58755Y-48035D01*
X45099Y-48035D02*
X51205Y-48035D01*
X34075Y-48035D02*
X42901Y-48035D01*
X29245Y-48035D02*
X32925Y-48035D01*
X55099Y-47955D02*
X58755Y-47955D01*
X45099Y-47955D02*
X51125Y-47955D01*
X34075Y-47955D02*
X42901Y-47955D01*
X29245Y-47955D02*
X32925Y-47955D01*
X55097Y-47875D02*
X58755Y-47875D01*
X45097Y-47875D02*
X51045Y-47875D01*
X34071Y-47875D02*
X42904Y-47875D01*
X29245Y-47875D02*
X32930Y-47875D01*
X55064Y-47795D02*
X58755Y-47795D01*
X45064Y-47795D02*
X50965Y-47795D01*
X34038Y-47795D02*
X42937Y-47795D01*
X29245Y-47795D02*
X32963Y-47795D01*
X55031Y-47715D02*
X58755Y-47715D01*
X45031Y-47715D02*
X50885Y-47715D01*
X34005Y-47715D02*
X42970Y-47715D01*
X29245Y-47715D02*
X32996Y-47715D01*
X54982Y-47635D02*
X58755Y-47635D01*
X44982Y-47635D02*
X50805Y-47635D01*
X33948Y-47635D02*
X43018Y-47635D01*
X29245Y-47635D02*
X33052Y-47635D01*
X54902Y-47555D02*
X58755Y-47555D01*
X44902Y-47555D02*
X50725Y-47555D01*
X33919Y-47555D02*
X43097Y-47555D01*
X29245Y-47555D02*
X33079Y-47555D01*
X54870Y-47475D02*
X58755Y-47475D01*
X44870Y-47475D02*
X50645Y-47475D01*
X34027Y-47475D02*
X43128Y-47475D01*
X29245Y-47475D02*
X32973Y-47475D01*
X54951Y-47395D02*
X58755Y-47395D01*
X44951Y-47395D02*
X50565Y-47395D01*
X34065Y-47395D02*
X43048Y-47395D01*
X29245Y-47395D02*
X32934Y-47395D01*
X55017Y-47315D02*
X58755Y-47315D01*
X45017Y-47315D02*
X50485Y-47315D01*
X34074Y-47315D02*
X42982Y-47315D01*
X29245Y-47315D02*
X32926Y-47315D01*
X55051Y-47235D02*
X58755Y-47235D01*
X45051Y-47235D02*
X50405Y-47235D01*
X34074Y-47235D02*
X42948Y-47235D01*
X29245Y-47235D02*
X32926Y-47235D01*
X55084Y-47155D02*
X58755Y-47155D01*
X45084Y-47155D02*
X50325Y-47155D01*
X34074Y-47155D02*
X42915Y-47155D01*
X29245Y-47155D02*
X32926Y-47155D01*
X55099Y-47075D02*
X58755Y-47075D01*
X45099Y-47075D02*
X50245Y-47075D01*
X34074Y-47075D02*
X42901Y-47075D01*
X29245Y-47075D02*
X32926Y-47075D01*
X55099Y-46995D02*
X58755Y-46995D01*
X45099Y-46995D02*
X50165Y-46995D01*
X34074Y-46995D02*
X42901Y-46995D01*
X29245Y-46995D02*
X32926Y-46995D01*
X55099Y-46915D02*
X58755Y-46915D01*
X45099Y-46915D02*
X50085Y-46915D01*
X34074Y-46915D02*
X42901Y-46915D01*
X29245Y-46915D02*
X32926Y-46915D01*
X55080Y-46835D02*
X58755Y-46835D01*
X45080Y-46835D02*
X50005Y-46835D01*
X34074Y-46835D02*
X42921Y-46835D01*
X29245Y-46835D02*
X32926Y-46835D01*
X55047Y-46755D02*
X58755Y-46755D01*
X45047Y-46755D02*
X49925Y-46755D01*
X34074Y-46755D02*
X42954Y-46755D01*
X29245Y-46755D02*
X32926Y-46755D01*
X55014Y-46675D02*
X58755Y-46675D01*
X45014Y-46675D02*
X49845Y-46675D01*
X34074Y-46675D02*
X42987Y-46675D01*
X29245Y-46675D02*
X32926Y-46675D01*
X54942Y-46595D02*
X58755Y-46595D01*
X44942Y-46595D02*
X49765Y-46595D01*
X34062Y-46595D02*
X43058Y-46595D01*
X29245Y-46595D02*
X32939Y-46595D01*
X54862Y-46515D02*
X58755Y-46515D01*
X44862Y-46515D02*
X49685Y-46515D01*
X34017Y-46515D02*
X43137Y-46515D01*
X29245Y-46515D02*
X32983Y-46515D01*
X54910Y-46435D02*
X58755Y-46435D01*
X44910Y-46435D02*
X49605Y-46435D01*
X33897Y-46435D02*
X43088Y-46435D01*
X29245Y-46435D02*
X33105Y-46435D01*
X54991Y-46355D02*
X58755Y-46355D01*
X44991Y-46355D02*
X49525Y-46355D01*
X29245Y-46355D02*
X43008Y-46355D01*
X55034Y-46275D02*
X58755Y-46275D01*
X45034Y-46275D02*
X49445Y-46275D01*
X29245Y-46275D02*
X42965Y-46275D01*
X55067Y-46195D02*
X58755Y-46195D01*
X45067Y-46195D02*
X49365Y-46195D01*
X29245Y-46195D02*
X42932Y-46195D01*
X55099Y-46115D02*
X58755Y-46115D01*
X45099Y-46115D02*
X49285Y-46115D01*
X29245Y-46115D02*
X42901Y-46115D01*
X55099Y-46035D02*
X58755Y-46035D01*
X45099Y-46035D02*
X49205Y-46035D01*
X29245Y-46035D02*
X42901Y-46035D01*
X55099Y-45955D02*
X58755Y-45955D01*
X45099Y-45955D02*
X49125Y-45955D01*
X29245Y-45955D02*
X42901Y-45955D01*
X55097Y-45875D02*
X58755Y-45875D01*
X45097Y-45875D02*
X49045Y-45875D01*
X29245Y-45875D02*
X42904Y-45875D01*
X55064Y-45795D02*
X58755Y-45795D01*
X45064Y-45795D02*
X48965Y-45795D01*
X31801Y-45795D02*
X42937Y-45795D01*
X29245Y-45795D02*
X31198Y-45795D01*
X55031Y-45715D02*
X58755Y-45715D01*
X45031Y-45715D02*
X48885Y-45715D01*
X31986Y-45715D02*
X42970Y-45715D01*
X29245Y-45715D02*
X31013Y-45715D01*
X54982Y-45635D02*
X58755Y-45635D01*
X44982Y-45635D02*
X48805Y-45635D01*
X32066Y-45635D02*
X43018Y-45635D01*
X29245Y-45635D02*
X30933Y-45635D01*
X54902Y-45555D02*
X58755Y-45555D01*
X52400Y-45555D02*
X53003Y-45555D01*
X44902Y-45555D02*
X48725Y-45555D01*
X32146Y-45555D02*
X43003Y-45555D01*
X29245Y-45555D02*
X30853Y-45555D01*
X54870Y-45475D02*
X58755Y-45475D01*
X52320Y-45475D02*
X52932Y-45475D01*
X44870Y-45475D02*
X48645Y-45475D01*
X32222Y-45475D02*
X42932Y-45475D01*
X29245Y-45475D02*
X30776Y-45475D01*
X54951Y-45395D02*
X58755Y-45395D01*
X52240Y-45395D02*
X52900Y-45395D01*
X44951Y-45395D02*
X48565Y-45395D01*
X32256Y-45395D02*
X42900Y-45395D01*
X29245Y-45395D02*
X30743Y-45395D01*
X55017Y-45315D02*
X58755Y-45315D01*
X52160Y-45315D02*
X52900Y-45315D01*
X45017Y-45315D02*
X48485Y-45315D01*
X32289Y-45315D02*
X42900Y-45315D01*
X29245Y-45315D02*
X30710Y-45315D01*
X55051Y-45235D02*
X58755Y-45235D01*
X52080Y-45235D02*
X52900Y-45235D01*
X45051Y-45235D02*
X48405Y-45235D01*
X32322Y-45235D02*
X42900Y-45235D01*
X29245Y-45235D02*
X30677Y-45235D01*
X55084Y-45155D02*
X58755Y-45155D01*
X52000Y-45155D02*
X52900Y-45155D01*
X45084Y-45155D02*
X48325Y-45155D01*
X32350Y-45155D02*
X42900Y-45155D01*
X29245Y-45155D02*
X30650Y-45155D01*
X55099Y-45075D02*
X58755Y-45075D01*
X51920Y-45075D02*
X52937Y-45075D01*
X45099Y-45075D02*
X48245Y-45075D01*
X32350Y-45075D02*
X42937Y-45075D01*
X29245Y-45075D02*
X30650Y-45075D01*
X55099Y-44995D02*
X58755Y-44995D01*
X51840Y-44995D02*
X53550Y-44995D01*
X45099Y-44995D02*
X48165Y-44995D01*
X32350Y-44995D02*
X43550Y-44995D01*
X29245Y-44995D02*
X30650Y-44995D01*
X55099Y-44915D02*
X58755Y-44915D01*
X53450Y-44915D02*
X53550Y-44915D01*
X51760Y-44915D02*
X52927Y-44915D01*
X45099Y-44915D02*
X48085Y-44915D01*
X43450Y-44915D02*
X43550Y-44915D01*
X32350Y-44915D02*
X42927Y-44915D01*
X29245Y-44915D02*
X30650Y-44915D01*
X55080Y-44835D02*
X58755Y-44835D01*
X53450Y-44835D02*
X53550Y-44835D01*
X51680Y-44835D02*
X52901Y-44835D01*
X45080Y-44835D02*
X48005Y-44835D01*
X43450Y-44835D02*
X43550Y-44835D01*
X32350Y-44835D02*
X42901Y-44835D01*
X29245Y-44835D02*
X30650Y-44835D01*
X55047Y-44755D02*
X58755Y-44755D01*
X53450Y-44755D02*
X53550Y-44755D01*
X51600Y-44755D02*
X52901Y-44755D01*
X45047Y-44755D02*
X47925Y-44755D01*
X43450Y-44755D02*
X43550Y-44755D01*
X32319Y-44755D02*
X42901Y-44755D01*
X29245Y-44755D02*
X30682Y-44755D01*
X55014Y-44675D02*
X58755Y-44675D01*
X53450Y-44675D02*
X53550Y-44675D01*
X51520Y-44675D02*
X52901Y-44675D01*
X45014Y-44675D02*
X47845Y-44675D01*
X43450Y-44675D02*
X43550Y-44675D01*
X32286Y-44675D02*
X42901Y-44675D01*
X29245Y-44675D02*
X30715Y-44675D01*
X54942Y-44595D02*
X58755Y-44595D01*
X53450Y-44595D02*
X53550Y-44595D01*
X51440Y-44595D02*
X52904Y-44595D01*
X44942Y-44595D02*
X47765Y-44595D01*
X43450Y-44595D02*
X43550Y-44595D01*
X32253Y-44595D02*
X42904Y-44595D01*
X29245Y-44595D02*
X30748Y-44595D01*
X54862Y-44515D02*
X58755Y-44515D01*
X54064Y-44515D02*
X54138Y-44515D01*
X53450Y-44515D02*
X53550Y-44515D01*
X51360Y-44515D02*
X52937Y-44515D01*
X44862Y-44515D02*
X47685Y-44515D01*
X44064Y-44515D02*
X44138Y-44515D01*
X43450Y-44515D02*
X43550Y-44515D01*
X32217Y-44515D02*
X42937Y-44515D01*
X29245Y-44515D02*
X30784Y-44515D01*
X54702Y-44435D02*
X58755Y-44435D01*
X53982Y-44435D02*
X54299Y-44435D01*
X53423Y-44435D02*
X53577Y-44435D01*
X51280Y-44435D02*
X53019Y-44435D01*
X44702Y-44435D02*
X47605Y-44435D01*
X43982Y-44435D02*
X44299Y-44435D01*
X43423Y-44435D02*
X43577Y-44435D01*
X32137Y-44435D02*
X43019Y-44435D01*
X29245Y-44435D02*
X30864Y-44435D01*
X51200Y-44355D02*
X58755Y-44355D01*
X32057Y-44355D02*
X47525Y-44355D01*
X29245Y-44355D02*
X30944Y-44355D01*
X51120Y-44275D02*
X58755Y-44275D01*
X31970Y-44275D02*
X47445Y-44275D01*
X29245Y-44275D02*
X31030Y-44275D01*
X51040Y-44195D02*
X58755Y-44195D01*
X31778Y-44195D02*
X47365Y-44195D01*
X29245Y-44195D02*
X31224Y-44195D01*
X50960Y-44115D02*
X58755Y-44115D01*
X29245Y-44115D02*
X47285Y-44115D01*
X50880Y-44035D02*
X58755Y-44035D01*
X29245Y-44035D02*
X47205Y-44035D01*
X50800Y-43955D02*
X58755Y-43955D01*
X29245Y-43955D02*
X47125Y-43955D01*
X50720Y-43875D02*
X58755Y-43875D01*
X29245Y-43875D02*
X47045Y-43875D01*
X50640Y-43795D02*
X58755Y-43795D01*
X29245Y-43795D02*
X46965Y-43795D01*
X50560Y-43715D02*
X58755Y-43715D01*
X29245Y-43715D02*
X46885Y-43715D01*
X50480Y-43635D02*
X58755Y-43635D01*
X29245Y-43635D02*
X46805Y-43635D01*
X50400Y-43555D02*
X58755Y-43555D01*
X29245Y-43555D02*
X46725Y-43555D01*
X50320Y-43475D02*
X58755Y-43475D01*
X29245Y-43475D02*
X46645Y-43475D01*
X50240Y-43395D02*
X58755Y-43395D01*
X29245Y-43395D02*
X46565Y-43395D01*
X50160Y-43315D02*
X58755Y-43315D01*
X29245Y-43315D02*
X46485Y-43315D01*
X50080Y-43235D02*
X58755Y-43235D01*
X29245Y-43235D02*
X46405Y-43235D01*
X50000Y-43155D02*
X58755Y-43155D01*
X29245Y-43155D02*
X46325Y-43155D01*
X49920Y-43075D02*
X58755Y-43075D01*
X29245Y-43075D02*
X46245Y-43075D01*
X49840Y-42995D02*
X58755Y-42995D01*
X29245Y-42995D02*
X46165Y-42995D01*
X49760Y-42915D02*
X58755Y-42915D01*
X29245Y-42915D02*
X46085Y-42915D01*
X49680Y-42835D02*
X58755Y-42835D01*
X29245Y-42835D02*
X46005Y-42835D01*
X49600Y-42755D02*
X58755Y-42755D01*
X29245Y-42755D02*
X45925Y-42755D01*
X49520Y-42675D02*
X58755Y-42675D01*
X29245Y-42675D02*
X45845Y-42675D01*
X49440Y-42595D02*
X58755Y-42595D01*
X29245Y-42595D02*
X45765Y-42595D01*
X49360Y-42515D02*
X58755Y-42515D01*
X29245Y-42515D02*
X45685Y-42515D01*
X49280Y-42435D02*
X58755Y-42435D01*
X29245Y-42435D02*
X45605Y-42435D01*
X49200Y-42355D02*
X58755Y-42355D01*
X29245Y-42355D02*
X45525Y-42355D01*
X49120Y-42275D02*
X58755Y-42275D01*
X29245Y-42275D02*
X45445Y-42275D01*
X49040Y-42195D02*
X58755Y-42195D01*
X29245Y-42195D02*
X45365Y-42195D01*
X48960Y-42115D02*
X58755Y-42115D01*
X29245Y-42115D02*
X45285Y-42115D01*
X48880Y-42035D02*
X58755Y-42035D01*
X29245Y-42035D02*
X45205Y-42035D01*
X48800Y-41955D02*
X58755Y-41955D01*
X29245Y-41955D02*
X45125Y-41955D01*
X48720Y-41875D02*
X58755Y-41875D01*
X29245Y-41875D02*
X45045Y-41875D01*
X48640Y-41795D02*
X58755Y-41795D01*
X29245Y-41795D02*
X44965Y-41795D01*
X48560Y-41715D02*
X58755Y-41715D01*
X29245Y-41715D02*
X44885Y-41715D01*
X48480Y-41635D02*
X58755Y-41635D01*
X29245Y-41635D02*
X44805Y-41635D01*
X48400Y-41555D02*
X58755Y-41555D01*
X29245Y-41555D02*
X44725Y-41555D01*
X48320Y-41475D02*
X58755Y-41475D01*
X29245Y-41475D02*
X44645Y-41475D01*
X48240Y-41395D02*
X58755Y-41395D01*
X29245Y-41395D02*
X44565Y-41395D01*
X48160Y-41315D02*
X58755Y-41315D01*
X29245Y-41315D02*
X44485Y-41315D01*
X48160Y-41235D02*
X58755Y-41235D01*
X29245Y-41235D02*
X44405Y-41235D01*
X48160Y-41155D02*
X58755Y-41155D01*
X29245Y-41155D02*
X44325Y-41155D01*
X48160Y-41075D02*
X58755Y-41075D01*
X29245Y-41075D02*
X44245Y-41075D01*
X48160Y-40995D02*
X58755Y-40995D01*
X29245Y-40995D02*
X44165Y-40995D01*
X48160Y-40915D02*
X58755Y-40915D01*
X29245Y-40915D02*
X44085Y-40915D01*
X48160Y-40835D02*
X58755Y-40835D01*
X29245Y-40835D02*
X44005Y-40835D01*
X48160Y-40755D02*
X58755Y-40755D01*
X29245Y-40755D02*
X43925Y-40755D01*
X48160Y-40675D02*
X58755Y-40675D01*
X29245Y-40675D02*
X43845Y-40675D01*
X48160Y-40595D02*
X58755Y-40595D01*
X29245Y-40595D02*
X43765Y-40595D01*
X49059Y-40515D02*
X58755Y-40515D01*
X48160Y-40515D02*
X48441Y-40515D01*
X43059Y-40515D02*
X43441Y-40515D01*
X42059Y-40515D02*
X42441Y-40515D01*
X41059Y-40515D02*
X41441Y-40515D01*
X40059Y-40515D02*
X40441Y-40515D01*
X39059Y-40515D02*
X39441Y-40515D01*
X38059Y-40515D02*
X38441Y-40515D01*
X37059Y-40515D02*
X37441Y-40515D01*
X36059Y-40515D02*
X36441Y-40515D01*
X35059Y-40515D02*
X35441Y-40515D01*
X34059Y-40515D02*
X34441Y-40515D01*
X33059Y-40515D02*
X33441Y-40515D01*
X32059Y-40515D02*
X32441Y-40515D01*
X31059Y-40515D02*
X31441Y-40515D01*
X30277Y-40515D02*
X30441Y-40515D01*
X49155Y-40435D02*
X58755Y-40435D01*
X48160Y-40435D02*
X48345Y-40435D01*
X43154Y-40435D02*
X43345Y-40435D01*
X42154Y-40435D02*
X42345Y-40435D01*
X41154Y-40435D02*
X41345Y-40435D01*
X40154Y-40435D02*
X40345Y-40435D01*
X39155Y-40435D02*
X39345Y-40435D01*
X38154Y-40435D02*
X38344Y-40435D01*
X37154Y-40435D02*
X37345Y-40435D01*
X36154Y-40435D02*
X36345Y-40435D01*
X35154Y-40435D02*
X35345Y-40435D01*
X34154Y-40435D02*
X34345Y-40435D01*
X33154Y-40435D02*
X33344Y-40435D01*
X32154Y-40435D02*
X32344Y-40435D01*
X31154Y-40435D02*
X31345Y-40435D01*
X30326Y-40435D02*
X30345Y-40435D01*
X49235Y-40355D02*
X58755Y-40355D01*
X48233Y-40355D02*
X48265Y-40355D01*
X43233Y-40355D02*
X43265Y-40355D01*
X42233Y-40355D02*
X42265Y-40355D01*
X41233Y-40355D02*
X41265Y-40355D01*
X40233Y-40355D02*
X40265Y-40355D01*
X39235Y-40355D02*
X39265Y-40355D01*
X38234Y-40355D02*
X38264Y-40355D01*
X37234Y-40355D02*
X37265Y-40355D01*
X36234Y-40355D02*
X36265Y-40355D01*
X35234Y-40355D02*
X35265Y-40355D01*
X34233Y-40355D02*
X34265Y-40355D01*
X33234Y-40355D02*
X33264Y-40355D01*
X32234Y-40355D02*
X32264Y-40355D01*
X31234Y-40355D02*
X31265Y-40355D01*
X49278Y-40275D02*
X58755Y-40275D01*
X49312Y-40195D02*
X58755Y-40195D01*
X49344Y-40115D02*
X58755Y-40115D01*
X49344Y-40035D02*
X58755Y-40035D01*
X49344Y-39955D02*
X58755Y-39955D01*
X49342Y-39875D02*
X58755Y-39875D01*
X49309Y-39795D02*
X58755Y-39795D01*
X49276Y-39715D02*
X58755Y-39715D01*
X49225Y-39635D02*
X58755Y-39635D01*
X48225Y-39635D02*
X48275Y-39635D01*
X47225Y-39635D02*
X47274Y-39635D01*
X46226Y-39635D02*
X46275Y-39635D01*
X45225Y-39635D02*
X45275Y-39635D01*
X44225Y-39635D02*
X44274Y-39635D01*
X43225Y-39635D02*
X43274Y-39635D01*
X42225Y-39635D02*
X42275Y-39635D01*
X41225Y-39635D02*
X41275Y-39635D01*
X40225Y-39635D02*
X40275Y-39635D01*
X39225Y-39635D02*
X39274Y-39635D01*
X38225Y-39635D02*
X38274Y-39635D01*
X37225Y-39635D02*
X37275Y-39635D01*
X36225Y-39635D02*
X36275Y-39635D01*
X35225Y-39635D02*
X35275Y-39635D01*
X34225Y-39635D02*
X34274Y-39635D01*
X33225Y-39635D02*
X33274Y-39635D01*
X32225Y-39635D02*
X32275Y-39635D01*
X31225Y-39635D02*
X31274Y-39635D01*
X54725Y-39555D02*
X58755Y-39555D01*
X53725Y-39555D02*
X54274Y-39555D01*
X49145Y-39555D02*
X53274Y-39555D01*
X48145Y-39555D02*
X48355Y-39555D01*
X47145Y-39555D02*
X47355Y-39555D01*
X46146Y-39555D02*
X46355Y-39555D01*
X45145Y-39555D02*
X45355Y-39555D01*
X44145Y-39555D02*
X44355Y-39555D01*
X43145Y-39555D02*
X43355Y-39555D01*
X42145Y-39555D02*
X42355Y-39555D01*
X41145Y-39555D02*
X41355Y-39555D01*
X40145Y-39555D02*
X40355Y-39555D01*
X39145Y-39555D02*
X39355Y-39555D01*
X38145Y-39555D02*
X38355Y-39555D01*
X37145Y-39555D02*
X37355Y-39555D01*
X36145Y-39555D02*
X36355Y-39555D01*
X35145Y-39555D02*
X35355Y-39555D01*
X34145Y-39555D02*
X34355Y-39555D01*
X33145Y-39555D02*
X33355Y-39555D01*
X32145Y-39555D02*
X32355Y-39555D01*
X31145Y-39555D02*
X31355Y-39555D01*
X30323Y-39555D02*
X30355Y-39555D01*
X54872Y-39475D02*
X58755Y-39475D01*
X53872Y-39475D02*
X54128Y-39475D01*
X49035Y-39475D02*
X53128Y-39475D01*
X48035Y-39475D02*
X48465Y-39475D01*
X47035Y-39475D02*
X47465Y-39475D01*
X46035Y-39475D02*
X46465Y-39475D01*
X45035Y-39475D02*
X45465Y-39475D01*
X44035Y-39475D02*
X44465Y-39475D01*
X43035Y-39475D02*
X43465Y-39475D01*
X42035Y-39475D02*
X42465Y-39475D01*
X41035Y-39475D02*
X41465Y-39475D01*
X40035Y-39475D02*
X40465Y-39475D01*
X39035Y-39475D02*
X39465Y-39475D01*
X38035Y-39475D02*
X38465Y-39475D01*
X37035Y-39475D02*
X37465Y-39475D01*
X36035Y-39475D02*
X36465Y-39475D01*
X35035Y-39475D02*
X35465Y-39475D01*
X34035Y-39475D02*
X34465Y-39475D01*
X33035Y-39475D02*
X33465Y-39475D01*
X32035Y-39475D02*
X32465Y-39475D01*
X31035Y-39475D02*
X31465Y-39475D01*
X30267Y-39475D02*
X30465Y-39475D01*
X54952Y-39395D02*
X58755Y-39395D01*
X53952Y-39395D02*
X54048Y-39395D01*
X29245Y-39395D02*
X49674Y-39395D01*
X55017Y-39315D02*
X58755Y-39315D01*
X29245Y-39315D02*
X49497Y-39315D01*
X55051Y-39235D02*
X58755Y-39235D01*
X29245Y-39235D02*
X49405Y-39235D01*
X55084Y-39155D02*
X58755Y-39155D01*
X29245Y-39155D02*
X49325Y-39155D01*
X55099Y-39075D02*
X58755Y-39075D01*
X29245Y-39075D02*
X49245Y-39075D01*
X55099Y-38995D02*
X58755Y-38995D01*
X29245Y-38995D02*
X49165Y-38995D01*
X55099Y-38915D02*
X58755Y-38915D01*
X29245Y-38915D02*
X49085Y-38915D01*
X55080Y-38835D02*
X58755Y-38835D01*
X29245Y-38835D02*
X49005Y-38835D01*
X55047Y-38755D02*
X58755Y-38755D01*
X29245Y-38755D02*
X48925Y-38755D01*
X55014Y-38675D02*
X58755Y-38675D01*
X29245Y-38675D02*
X48845Y-38675D01*
X54942Y-38595D02*
X58755Y-38595D01*
X29245Y-38595D02*
X48765Y-38595D01*
X54862Y-38515D02*
X58755Y-38515D01*
X29245Y-38515D02*
X48685Y-38515D01*
X54912Y-38435D02*
X58755Y-38435D01*
X29245Y-38435D02*
X48605Y-38435D01*
X54992Y-38355D02*
X58755Y-38355D01*
X29245Y-38355D02*
X48525Y-38355D01*
X55034Y-38275D02*
X58755Y-38275D01*
X29245Y-38275D02*
X48445Y-38275D01*
X55067Y-38195D02*
X58755Y-38195D01*
X29245Y-38195D02*
X48365Y-38195D01*
X55099Y-38115D02*
X58755Y-38115D01*
X29245Y-38115D02*
X48285Y-38115D01*
X55099Y-38035D02*
X58755Y-38035D01*
X29245Y-38035D02*
X48205Y-38035D01*
X55099Y-37955D02*
X58755Y-37955D01*
X29245Y-37955D02*
X48125Y-37955D01*
X55097Y-37875D02*
X58755Y-37875D01*
X29245Y-37875D02*
X48045Y-37875D01*
X55064Y-37795D02*
X58755Y-37795D01*
X29245Y-37795D02*
X47965Y-37795D01*
X55031Y-37715D02*
X58755Y-37715D01*
X29245Y-37715D02*
X47885Y-37715D01*
X54982Y-37635D02*
X58755Y-37635D01*
X29245Y-37635D02*
X47805Y-37635D01*
X54902Y-37555D02*
X58755Y-37555D01*
X29245Y-37555D02*
X47725Y-37555D01*
X54871Y-37475D02*
X58755Y-37475D01*
X29245Y-37475D02*
X47645Y-37475D01*
X54951Y-37395D02*
X58755Y-37395D01*
X29245Y-37395D02*
X47565Y-37395D01*
X55017Y-37315D02*
X58755Y-37315D01*
X29245Y-37315D02*
X47485Y-37315D01*
X55051Y-37235D02*
X58755Y-37235D01*
X29245Y-37235D02*
X47405Y-37235D01*
X55084Y-37155D02*
X58755Y-37155D01*
X29245Y-37155D02*
X47325Y-37155D01*
X55099Y-37075D02*
X58755Y-37075D01*
X29245Y-37075D02*
X47245Y-37075D01*
X55099Y-36995D02*
X58755Y-36995D01*
X29245Y-36995D02*
X47165Y-36995D01*
X55099Y-36915D02*
X58755Y-36915D01*
X29245Y-36915D02*
X47085Y-36915D01*
X55080Y-36835D02*
X58755Y-36835D01*
X29245Y-36835D02*
X47005Y-36835D01*
X55047Y-36755D02*
X58755Y-36755D01*
X29245Y-36755D02*
X46925Y-36755D01*
X55014Y-36675D02*
X58755Y-36675D01*
X29245Y-36675D02*
X46845Y-36675D01*
X54942Y-36595D02*
X58755Y-36595D01*
X29245Y-36595D02*
X46765Y-36595D01*
X54862Y-36515D02*
X58755Y-36515D01*
X29245Y-36515D02*
X46685Y-36515D01*
X54911Y-36435D02*
X58755Y-36435D01*
X29245Y-36435D02*
X46605Y-36435D01*
X54991Y-36355D02*
X58755Y-36355D01*
X29245Y-36355D02*
X46525Y-36355D01*
X55034Y-36275D02*
X58755Y-36275D01*
X29245Y-36275D02*
X46445Y-36275D01*
X55067Y-36195D02*
X58755Y-36195D01*
X29245Y-36195D02*
X46365Y-36195D01*
X55099Y-36115D02*
X58755Y-36115D01*
X29245Y-36115D02*
X46285Y-36115D01*
X55099Y-36035D02*
X58755Y-36035D01*
X29245Y-36035D02*
X46205Y-36035D01*
X55099Y-35955D02*
X58755Y-35955D01*
X29245Y-35955D02*
X46125Y-35955D01*
X55097Y-35875D02*
X58755Y-35875D01*
X29245Y-35875D02*
X46045Y-35875D01*
X55064Y-35795D02*
X58755Y-35795D01*
X52875Y-35795D02*
X52936Y-35795D01*
X29245Y-35795D02*
X45965Y-35795D01*
X55031Y-35715D02*
X58755Y-35715D01*
X52795Y-35715D02*
X52970Y-35715D01*
X29245Y-35715D02*
X45885Y-35715D01*
X54982Y-35635D02*
X58755Y-35635D01*
X52715Y-35635D02*
X53018Y-35635D01*
X29245Y-35635D02*
X45805Y-35635D01*
X54902Y-35555D02*
X58755Y-35555D01*
X52635Y-35555D02*
X53003Y-35555D01*
X29245Y-35555D02*
X45725Y-35555D01*
X54871Y-35475D02*
X58755Y-35475D01*
X52555Y-35475D02*
X52932Y-35475D01*
X29245Y-35475D02*
X45645Y-35475D01*
X54951Y-35395D02*
X58755Y-35395D01*
X52475Y-35395D02*
X52900Y-35395D01*
X29245Y-35395D02*
X45565Y-35395D01*
X55017Y-35315D02*
X58755Y-35315D01*
X52395Y-35315D02*
X52900Y-35315D01*
X29245Y-35315D02*
X45485Y-35315D01*
X55051Y-35235D02*
X58755Y-35235D01*
X52315Y-35235D02*
X52900Y-35235D01*
X29245Y-35235D02*
X45405Y-35235D01*
X55084Y-35155D02*
X58755Y-35155D01*
X52235Y-35155D02*
X52900Y-35155D01*
X29245Y-35155D02*
X45325Y-35155D01*
X55099Y-35075D02*
X58755Y-35075D01*
X52155Y-35075D02*
X52937Y-35075D01*
X29245Y-35075D02*
X45245Y-35075D01*
X55099Y-34995D02*
X58755Y-34995D01*
X52075Y-34995D02*
X53550Y-34995D01*
X29245Y-34995D02*
X45165Y-34995D01*
X55099Y-34915D02*
X58755Y-34915D01*
X53450Y-34915D02*
X53550Y-34915D01*
X51995Y-34915D02*
X52927Y-34915D01*
X29245Y-34915D02*
X45085Y-34915D01*
X55080Y-34835D02*
X58755Y-34835D01*
X53450Y-34835D02*
X53550Y-34835D01*
X51915Y-34835D02*
X52901Y-34835D01*
X29245Y-34835D02*
X45005Y-34835D01*
X55047Y-34755D02*
X58755Y-34755D01*
X53450Y-34755D02*
X53550Y-34755D01*
X51835Y-34755D02*
X52901Y-34755D01*
X29245Y-34755D02*
X44925Y-34755D01*
X55014Y-34675D02*
X58755Y-34675D01*
X53450Y-34675D02*
X53550Y-34675D01*
X51755Y-34675D02*
X52901Y-34675D01*
X29245Y-34675D02*
X44845Y-34675D01*
X54942Y-34595D02*
X58755Y-34595D01*
X53450Y-34595D02*
X53550Y-34595D01*
X51675Y-34595D02*
X52904Y-34595D01*
X29245Y-34595D02*
X44765Y-34595D01*
X54862Y-34515D02*
X58755Y-34515D01*
X54064Y-34515D02*
X54138Y-34515D01*
X53450Y-34515D02*
X53550Y-34515D01*
X51595Y-34515D02*
X52937Y-34515D01*
X44059Y-34515D02*
X44441Y-34515D01*
X43059Y-34515D02*
X43441Y-34515D01*
X42059Y-34515D02*
X42441Y-34515D01*
X41059Y-34515D02*
X41441Y-34515D01*
X40059Y-34515D02*
X40441Y-34515D01*
X39059Y-34515D02*
X39441Y-34515D01*
X38059Y-34515D02*
X38441Y-34515D01*
X37059Y-34515D02*
X37441Y-34515D01*
X36059Y-34515D02*
X36441Y-34515D01*
X35059Y-34515D02*
X35441Y-34515D01*
X34059Y-34515D02*
X34441Y-34515D01*
X33059Y-34515D02*
X33441Y-34515D01*
X32059Y-34515D02*
X32441Y-34515D01*
X31059Y-34515D02*
X31441Y-34515D01*
X30041Y-34515D02*
X30441Y-34515D01*
X29245Y-34515D02*
X29461Y-34515D01*
X54702Y-34435D02*
X58755Y-34435D01*
X53982Y-34435D02*
X54299Y-34435D01*
X53423Y-34435D02*
X53577Y-34435D01*
X51515Y-34435D02*
X53019Y-34435D01*
X44154Y-34435D02*
X44344Y-34435D01*
X43154Y-34435D02*
X43344Y-34435D01*
X42154Y-34435D02*
X42344Y-34435D01*
X41154Y-34435D02*
X41344Y-34435D01*
X40155Y-34435D02*
X40345Y-34435D01*
X39155Y-34435D02*
X39345Y-34435D01*
X38155Y-34435D02*
X38345Y-34435D01*
X37155Y-34435D02*
X37345Y-34435D01*
X36155Y-34435D02*
X36345Y-34435D01*
X35155Y-34435D02*
X35345Y-34435D01*
X34155Y-34435D02*
X34345Y-34435D01*
X33155Y-34435D02*
X33345Y-34435D01*
X32155Y-34435D02*
X32345Y-34435D01*
X31155Y-34435D02*
X31345Y-34435D01*
X30081Y-34435D02*
X30345Y-34435D01*
X29245Y-34435D02*
X29418Y-34435D01*
X51435Y-34355D02*
X58755Y-34355D01*
X44234Y-34355D02*
X44264Y-34355D01*
X43234Y-34355D02*
X43264Y-34355D01*
X42234Y-34355D02*
X42264Y-34355D01*
X41234Y-34355D02*
X41264Y-34355D01*
X40235Y-34355D02*
X40265Y-34355D01*
X39235Y-34355D02*
X39265Y-34355D01*
X38235Y-34355D02*
X38265Y-34355D01*
X37235Y-34355D02*
X37265Y-34355D01*
X36235Y-34355D02*
X36265Y-34355D01*
X35235Y-34355D02*
X35265Y-34355D01*
X34235Y-34355D02*
X34265Y-34355D01*
X33235Y-34355D02*
X33265Y-34355D01*
X32235Y-34355D02*
X32265Y-34355D01*
X31235Y-34355D02*
X31265Y-34355D01*
X30034Y-34355D02*
X30265Y-34355D01*
X29245Y-34355D02*
X29466Y-34355D01*
X51355Y-34275D02*
X58755Y-34275D01*
X29954Y-34275D02*
X30096Y-34275D01*
X29404Y-34275D02*
X29546Y-34275D01*
X51275Y-34195D02*
X58755Y-34195D01*
X29874Y-34195D02*
X30016Y-34195D01*
X29484Y-34195D02*
X29626Y-34195D01*
X51195Y-34115D02*
X58755Y-34115D01*
X29794Y-34115D02*
X29936Y-34115D01*
X29564Y-34115D02*
X29706Y-34115D01*
X51115Y-34035D02*
X58755Y-34035D01*
X29644Y-34035D02*
X29856Y-34035D01*
X51035Y-33955D02*
X58755Y-33955D01*
X29634Y-33955D02*
X29866Y-33955D01*
X50955Y-33875D02*
X58755Y-33875D01*
X29804Y-33875D02*
X29946Y-33875D01*
X29554Y-33875D02*
X29696Y-33875D01*
X50875Y-33795D02*
X58755Y-33795D01*
X29884Y-33795D02*
X30026Y-33795D01*
X29474Y-33795D02*
X29616Y-33795D01*
X50795Y-33715D02*
X58755Y-33715D01*
X29964Y-33715D02*
X30106Y-33715D01*
X29394Y-33715D02*
X29536Y-33715D01*
X50715Y-33635D02*
X58755Y-33635D01*
X42225Y-33635D02*
X42275Y-33635D01*
X41225Y-33635D02*
X41275Y-33635D01*
X40225Y-33635D02*
X40275Y-33635D01*
X39225Y-33635D02*
X39275Y-33635D01*
X38225Y-33635D02*
X38275Y-33635D01*
X37225Y-33635D02*
X37275Y-33635D01*
X36225Y-33635D02*
X36275Y-33635D01*
X35225Y-33635D02*
X35275Y-33635D01*
X34225Y-33635D02*
X34275Y-33635D01*
X33225Y-33635D02*
X33275Y-33635D01*
X32225Y-33635D02*
X32275Y-33635D01*
X31225Y-33635D02*
X31275Y-33635D01*
X30044Y-33635D02*
X30275Y-33635D01*
X29245Y-33635D02*
X29456Y-33635D01*
X50635Y-33555D02*
X58755Y-33555D01*
X42145Y-33555D02*
X42355Y-33555D01*
X41145Y-33555D02*
X41355Y-33555D01*
X40145Y-33555D02*
X40355Y-33555D01*
X39145Y-33555D02*
X39355Y-33555D01*
X38145Y-33555D02*
X38355Y-33555D01*
X37145Y-33555D02*
X37355Y-33555D01*
X36145Y-33555D02*
X36355Y-33555D01*
X35145Y-33555D02*
X35355Y-33555D01*
X34145Y-33555D02*
X34355Y-33555D01*
X33145Y-33555D02*
X33355Y-33555D01*
X32145Y-33555D02*
X32355Y-33555D01*
X31145Y-33555D02*
X31355Y-33555D01*
X30079Y-33555D02*
X30355Y-33555D01*
X29245Y-33555D02*
X29423Y-33555D01*
X50555Y-33475D02*
X58755Y-33475D01*
X42035Y-33475D02*
X42465Y-33475D01*
X41035Y-33475D02*
X41465Y-33475D01*
X40035Y-33475D02*
X40465Y-33475D01*
X39035Y-33475D02*
X39465Y-33475D01*
X38035Y-33475D02*
X38465Y-33475D01*
X37035Y-33475D02*
X37465Y-33475D01*
X36035Y-33475D02*
X36465Y-33475D01*
X35035Y-33475D02*
X35465Y-33475D01*
X34035Y-33475D02*
X34465Y-33475D01*
X33035Y-33475D02*
X33465Y-33475D01*
X32035Y-33475D02*
X32465Y-33475D01*
X31035Y-33475D02*
X31465Y-33475D01*
X30012Y-33475D02*
X30465Y-33475D01*
X29245Y-33475D02*
X29483Y-33475D01*
X50475Y-33395D02*
X58755Y-33395D01*
X29245Y-33395D02*
X42775Y-33395D01*
X50395Y-33315D02*
X58755Y-33315D01*
X29245Y-33315D02*
X42855Y-33315D01*
X50315Y-33235D02*
X58755Y-33235D01*
X29245Y-33235D02*
X42935Y-33235D01*
X50235Y-33155D02*
X58755Y-33155D01*
X29245Y-33155D02*
X43015Y-33155D01*
X50155Y-33075D02*
X58755Y-33075D01*
X29245Y-33075D02*
X43095Y-33075D01*
X50075Y-32995D02*
X58755Y-32995D01*
X29245Y-32995D02*
X43175Y-32995D01*
X49995Y-32915D02*
X58755Y-32915D01*
X29245Y-32915D02*
X43255Y-32915D01*
X58085Y-32835D02*
X58755Y-32835D01*
X49915Y-32835D02*
X57414Y-32835D01*
X39335Y-32835D02*
X43335Y-32835D01*
X30585Y-32835D02*
X38664Y-32835D01*
X29245Y-32835D02*
X29914Y-32835D01*
X58267Y-32755D02*
X58755Y-32755D01*
X49835Y-32755D02*
X57232Y-32755D01*
X39517Y-32755D02*
X43415Y-32755D01*
X30767Y-32755D02*
X38482Y-32755D01*
X29245Y-32755D02*
X29732Y-32755D01*
X58347Y-32675D02*
X58755Y-32675D01*
X49729Y-32675D02*
X57152Y-32675D01*
X39597Y-32675D02*
X43522Y-32675D01*
X30847Y-32675D02*
X38402Y-32675D01*
X29245Y-32675D02*
X29652Y-32675D01*
X58427Y-32595D02*
X58755Y-32595D01*
X49677Y-32595D02*
X57072Y-32595D01*
X39677Y-32595D02*
X48322Y-32595D01*
X30927Y-32595D02*
X38322Y-32595D01*
X29245Y-32595D02*
X29572Y-32595D01*
X58507Y-32515D02*
X58755Y-32515D01*
X49757Y-32515D02*
X56992Y-32515D01*
X39757Y-32515D02*
X48242Y-32515D01*
X31007Y-32515D02*
X38242Y-32515D01*
X29245Y-32515D02*
X29492Y-32515D01*
X58543Y-32435D02*
X58755Y-32435D01*
X49793Y-32435D02*
X56956Y-32435D01*
X39793Y-32435D02*
X48206Y-32435D01*
X31043Y-32435D02*
X38206Y-32435D01*
X29245Y-32435D02*
X29456Y-32435D01*
X58577Y-32355D02*
X58755Y-32355D01*
X49827Y-32355D02*
X56923Y-32355D01*
X39827Y-32355D02*
X48173Y-32355D01*
X31077Y-32355D02*
X38173Y-32355D01*
X29245Y-32355D02*
X29423Y-32355D01*
X58610Y-32275D02*
X58755Y-32275D01*
X49860Y-32275D02*
X56890Y-32275D01*
X39860Y-32275D02*
X48140Y-32275D01*
X31110Y-32275D02*
X38140Y-32275D01*
X29245Y-32275D02*
X29390Y-32275D01*
X58643Y-32195D02*
X58755Y-32195D01*
X49893Y-32195D02*
X56857Y-32195D01*
X39893Y-32195D02*
X48107Y-32195D01*
X31143Y-32195D02*
X38107Y-32195D01*
X29245Y-32195D02*
X29357Y-32195D01*
X58650Y-32115D02*
X58755Y-32115D01*
X49900Y-32115D02*
X56850Y-32115D01*
X39900Y-32115D02*
X48100Y-32115D01*
X31150Y-32115D02*
X38100Y-32115D01*
X29245Y-32115D02*
X29350Y-32115D01*
X58650Y-32035D02*
X58755Y-32035D01*
X49900Y-32035D02*
X56850Y-32035D01*
X39900Y-32035D02*
X48100Y-32035D01*
X31150Y-32035D02*
X38100Y-32035D01*
X29245Y-32035D02*
X29350Y-32035D01*
X58650Y-31955D02*
X58755Y-31955D01*
X49900Y-31955D02*
X56850Y-31955D01*
X39900Y-31955D02*
X48100Y-31955D01*
X31150Y-31955D02*
X38100Y-31955D01*
X29245Y-31955D02*
X29350Y-31955D01*
X58650Y-31875D02*
X58755Y-31875D01*
X49900Y-31875D02*
X56850Y-31875D01*
X39900Y-31875D02*
X48100Y-31875D01*
X31150Y-31875D02*
X38100Y-31875D01*
X29245Y-31875D02*
X29350Y-31875D01*
X58639Y-31795D02*
X58755Y-31795D01*
X49889Y-31795D02*
X56861Y-31795D01*
X39889Y-31795D02*
X48111Y-31795D01*
X31139Y-31795D02*
X38111Y-31795D01*
X29245Y-31795D02*
X29361Y-31795D01*
X58606Y-31715D02*
X58755Y-31715D01*
X49856Y-31715D02*
X56894Y-31715D01*
X39856Y-31715D02*
X48144Y-31715D01*
X31106Y-31715D02*
X38144Y-31715D01*
X29245Y-31715D02*
X29394Y-31715D01*
X58573Y-31635D02*
X58755Y-31635D01*
X49823Y-31635D02*
X56928Y-31635D01*
X39823Y-31635D02*
X48178Y-31635D01*
X31073Y-31635D02*
X38178Y-31635D01*
X29245Y-31635D02*
X29428Y-31635D01*
X58540Y-31555D02*
X58755Y-31555D01*
X49790Y-31555D02*
X56961Y-31555D01*
X39790Y-31555D02*
X48211Y-31555D01*
X31040Y-31555D02*
X38211Y-31555D01*
X29245Y-31555D02*
X29461Y-31555D01*
X58498Y-31475D02*
X58755Y-31475D01*
X49748Y-31475D02*
X57003Y-31475D01*
X39748Y-31475D02*
X48253Y-31475D01*
X30998Y-31475D02*
X38253Y-31475D01*
X29245Y-31475D02*
X29503Y-31475D01*
X58418Y-31395D02*
X58755Y-31395D01*
X49668Y-31395D02*
X57083Y-31395D01*
X39668Y-31395D02*
X48333Y-31395D01*
X30918Y-31395D02*
X38333Y-31395D01*
X29245Y-31395D02*
X29583Y-31395D01*
X58338Y-31315D02*
X58755Y-31315D01*
X49588Y-31315D02*
X57163Y-31315D01*
X39588Y-31315D02*
X48413Y-31315D01*
X30838Y-31315D02*
X38413Y-31315D01*
X29245Y-31315D02*
X29663Y-31315D01*
X58254Y-31235D02*
X58755Y-31235D01*
X49504Y-31235D02*
X57246Y-31235D01*
X39504Y-31235D02*
X48496Y-31235D01*
X30754Y-31235D02*
X38496Y-31235D01*
X29245Y-31235D02*
X29746Y-31235D01*
X58062Y-31155D02*
X58755Y-31155D01*
X49312Y-31155D02*
X57440Y-31155D01*
X39312Y-31155D02*
X48690Y-31155D01*
X30562Y-31155D02*
X38690Y-31155D01*
X29245Y-31155D02*
X29940Y-31155D01*
X29245Y-31075D02*
X58755Y-31075D01*
X29245Y-30995D02*
X58755Y-30995D01*
X58755Y-53005D02*
X58755Y-30995D01*
X58755Y-30995D02*
X29245Y-30995D01*
X29245Y-30995D02*
X29245Y-33691D01*
X29245Y-33691D02*
X29340Y-33661D01*
X29340Y-33661D02*
X29679Y-34000D01*
X29679Y-34000D02*
X29340Y-34339D01*
X29340Y-34339D02*
X29245Y-34308D01*
X29245Y-34308D02*
X29245Y-39463D01*
X29245Y-39463D02*
X29264Y-39444D01*
X29264Y-39444D02*
X29356Y-39406D01*
X29356Y-39406D02*
X29660Y-39406D01*
X29660Y-39406D02*
X29660Y-34588D01*
X29660Y-34588D02*
X29442Y-34508D01*
X29442Y-34508D02*
X29411Y-34410D01*
X29411Y-34410D02*
X29750Y-34071D01*
X29750Y-34071D02*
X29750Y-33929D01*
X29750Y-33929D02*
X29411Y-33590D01*
X29411Y-33590D02*
X29442Y-33492D01*
X29442Y-33492D02*
X29608Y-33422D01*
X29608Y-33422D02*
X29840Y-33412D01*
X29840Y-33412D02*
X30058Y-33492D01*
X30058Y-33492D02*
X30070Y-33529D01*
X30070Y-33529D02*
X30070Y-32900D01*
X30070Y-32900D02*
X29739Y-32762D01*
X29739Y-32762D02*
X29487Y-32509D01*
X29487Y-32509D02*
X29350Y-32178D01*
X29350Y-32178D02*
X29350Y-31820D01*
X29350Y-31820D02*
X29488Y-31489D01*
X29488Y-31489D02*
X29741Y-31237D01*
X29741Y-31237D02*
X30072Y-31100D01*
X30072Y-31100D02*
X30430Y-31100D01*
X30430Y-31100D02*
X30761Y-31238D01*
X30761Y-31238D02*
X31013Y-31491D01*
X31013Y-31491D02*
X31150Y-31822D01*
X31150Y-31822D02*
X31150Y-32180D01*
X31150Y-32180D02*
X31012Y-32511D01*
X31012Y-32511D02*
X30759Y-32763D01*
X30759Y-32763D02*
X30428Y-32900D01*
X30428Y-32900D02*
X30070Y-32900D01*
X30070Y-32900D02*
X30070Y-33529D01*
X30070Y-33529D02*
X30089Y-33590D01*
X30089Y-33590D02*
X29750Y-33929D01*
X29750Y-33929D02*
X29750Y-34071D01*
X29750Y-34071D02*
X30089Y-34410D01*
X30089Y-34410D02*
X30058Y-34508D01*
X30058Y-34508D02*
X29892Y-34578D01*
X29892Y-34578D02*
X29660Y-34588D01*
X29660Y-34588D02*
X29660Y-39406D01*
X29660Y-39406D02*
X30145Y-39406D01*
X30145Y-39406D02*
X30236Y-39444D01*
X30236Y-39444D02*
X30306Y-39514D01*
X30306Y-39514D02*
X30332Y-39577D01*
X30332Y-39577D02*
X30414Y-39496D01*
X30414Y-39496D02*
X30632Y-39406D01*
X30632Y-39406D02*
X30868Y-39406D01*
X30868Y-39406D02*
X31087Y-39497D01*
X31087Y-39497D02*
X31249Y-39659D01*
X31249Y-39659D02*
X31414Y-39496D01*
X31414Y-39496D02*
X31632Y-39406D01*
X31632Y-39406D02*
X31868Y-39406D01*
X31868Y-39406D02*
X32087Y-39497D01*
X32087Y-39497D02*
X32250Y-39660D01*
X32250Y-39660D02*
X32414Y-39496D01*
X32414Y-39496D02*
X32632Y-39406D01*
X32632Y-39406D02*
X32868Y-39406D01*
X32868Y-39406D02*
X33087Y-39497D01*
X33087Y-39497D02*
X33249Y-39659D01*
X33249Y-39659D02*
X33414Y-39496D01*
X33414Y-39496D02*
X33632Y-39406D01*
X33632Y-39406D02*
X33868Y-39406D01*
X33868Y-39406D02*
X34087Y-39497D01*
X34087Y-39497D02*
X34249Y-39659D01*
X34249Y-39659D02*
X34414Y-39496D01*
X34414Y-39496D02*
X34632Y-39406D01*
X34632Y-39406D02*
X34868Y-39406D01*
X34868Y-39406D02*
X35087Y-39497D01*
X35087Y-39497D02*
X35250Y-39660D01*
X35250Y-39660D02*
X35414Y-39496D01*
X35414Y-39496D02*
X35632Y-39406D01*
X35632Y-39406D02*
X35868Y-39406D01*
X35868Y-39406D02*
X36087Y-39497D01*
X36087Y-39497D02*
X36250Y-39660D01*
X36250Y-39660D02*
X36414Y-39496D01*
X36414Y-39496D02*
X36632Y-39406D01*
X36632Y-39406D02*
X36868Y-39406D01*
X36868Y-39406D02*
X37087Y-39497D01*
X37087Y-39497D02*
X37250Y-39660D01*
X37250Y-39660D02*
X37414Y-39496D01*
X37414Y-39496D02*
X37632Y-39406D01*
X37632Y-39406D02*
X37868Y-39406D01*
X37868Y-39406D02*
X38087Y-39497D01*
X38087Y-39497D02*
X38249Y-39659D01*
X38249Y-39659D02*
X38414Y-39496D01*
X38414Y-39496D02*
X38632Y-39406D01*
X38632Y-39406D02*
X38868Y-39406D01*
X38868Y-39406D02*
X39087Y-39497D01*
X39087Y-39497D02*
X39249Y-39659D01*
X39249Y-39659D02*
X39414Y-39496D01*
X39414Y-39496D02*
X39632Y-39406D01*
X39632Y-39406D02*
X39868Y-39406D01*
X39868Y-39406D02*
X40087Y-39497D01*
X40087Y-39497D02*
X40250Y-39660D01*
X40250Y-39660D02*
X40414Y-39496D01*
X40414Y-39496D02*
X40632Y-39406D01*
X40632Y-39406D02*
X40868Y-39406D01*
X40868Y-39406D02*
X41087Y-39497D01*
X41087Y-39497D02*
X41249Y-39660D01*
X41249Y-39660D02*
X41414Y-39496D01*
X41414Y-39496D02*
X41632Y-39406D01*
X41632Y-39406D02*
X41868Y-39406D01*
X41868Y-39406D02*
X42087Y-39497D01*
X42087Y-39497D02*
X42249Y-39660D01*
X42249Y-39660D02*
X42414Y-39496D01*
X42414Y-39496D02*
X42632Y-39406D01*
X42632Y-39406D02*
X42868Y-39406D01*
X42868Y-39406D02*
X43087Y-39497D01*
X43087Y-39497D02*
X43249Y-39659D01*
X43249Y-39659D02*
X43414Y-39496D01*
X43414Y-39496D02*
X43632Y-39406D01*
X43632Y-39406D02*
X43868Y-39406D01*
X43868Y-39406D02*
X44087Y-39497D01*
X44087Y-39497D02*
X44249Y-39659D01*
X44249Y-39659D02*
X44414Y-39496D01*
X44414Y-39496D02*
X44632Y-39406D01*
X44632Y-39406D02*
X44868Y-39406D01*
X44868Y-39406D02*
X45087Y-39497D01*
X45087Y-39497D02*
X45249Y-39660D01*
X45249Y-39660D02*
X45414Y-39496D01*
X45414Y-39496D02*
X45632Y-39406D01*
X45632Y-39406D02*
X45868Y-39406D01*
X45868Y-39406D02*
X46087Y-39497D01*
X46087Y-39497D02*
X46250Y-39659D01*
X46250Y-39659D02*
X46414Y-39496D01*
X46414Y-39496D02*
X46632Y-39406D01*
X46632Y-39406D02*
X46868Y-39406D01*
X46868Y-39406D02*
X47087Y-39497D01*
X47087Y-39497D02*
X47249Y-39659D01*
X47249Y-39659D02*
X47414Y-39496D01*
X47414Y-39496D02*
X47632Y-39406D01*
X47632Y-39406D02*
X47868Y-39406D01*
X47868Y-39406D02*
X48087Y-39497D01*
X48087Y-39497D02*
X48250Y-39660D01*
X48250Y-39660D02*
X48414Y-39496D01*
X48414Y-39496D02*
X48632Y-39406D01*
X48632Y-39406D02*
X48868Y-39406D01*
X48868Y-39406D02*
X49087Y-39497D01*
X49087Y-39497D02*
X49254Y-39664D01*
X49254Y-39664D02*
X49344Y-39882D01*
X49344Y-39882D02*
X49344Y-40118D01*
X49344Y-40118D02*
X49253Y-40337D01*
X49253Y-40337D02*
X49086Y-40504D01*
X49086Y-40504D02*
X48868Y-40594D01*
X48868Y-40594D02*
X48632Y-40594D01*
X48632Y-40594D02*
X48413Y-40503D01*
X48413Y-40503D02*
X48249Y-40339D01*
X48249Y-40339D02*
X48160Y-40430D01*
X48160Y-40430D02*
X48160Y-41315D01*
X48160Y-41315D02*
X52435Y-45590D01*
X52435Y-45590D02*
X53063Y-45590D01*
X53063Y-45590D02*
X53067Y-45585D01*
X53067Y-45585D02*
X53009Y-45561D01*
X53009Y-45561D02*
X52939Y-45491D01*
X52939Y-45491D02*
X52901Y-45399D01*
X52901Y-45399D02*
X52900Y-45112D01*
X52900Y-45112D02*
X52962Y-45050D01*
X52962Y-45050D02*
X52962Y-44950D01*
X52962Y-44950D02*
X52900Y-44888D01*
X52900Y-44888D02*
X52901Y-44601D01*
X52901Y-44601D02*
X52939Y-44509D01*
X52939Y-44509D02*
X53009Y-44439D01*
X53009Y-44439D02*
X53100Y-44401D01*
X53100Y-44401D02*
X53388Y-44400D01*
X53388Y-44400D02*
X53450Y-44462D01*
X53450Y-44462D02*
X53450Y-44950D01*
X53450Y-44950D02*
X52962Y-44950D01*
X52962Y-44950D02*
X52962Y-45050D01*
X52962Y-45050D02*
X53450Y-45050D01*
X53450Y-45050D02*
X53550Y-45050D01*
X53550Y-45050D02*
X53550Y-44950D01*
X53550Y-44950D02*
X53550Y-44462D01*
X53550Y-44462D02*
X53612Y-44400D01*
X53612Y-44400D02*
X53900Y-44401D01*
X53900Y-44401D02*
X53991Y-44439D01*
X53991Y-44439D02*
X54061Y-44509D01*
X54061Y-44509D02*
X54085Y-44567D01*
X54085Y-44567D02*
X54161Y-44492D01*
X54161Y-44492D02*
X54381Y-44401D01*
X54381Y-44401D02*
X54381Y-39599D01*
X54381Y-39599D02*
X54161Y-39508D01*
X54161Y-39508D02*
X54000Y-39347D01*
X54000Y-39347D02*
X53839Y-39508D01*
X53839Y-39508D02*
X53619Y-39599D01*
X53619Y-39599D02*
X53381Y-39599D01*
X53381Y-39599D02*
X53161Y-39508D01*
X53161Y-39508D02*
X53062Y-39409D01*
X53062Y-39409D02*
X49750Y-39410D01*
X49750Y-39410D02*
X49593Y-39379D01*
X49593Y-39379D02*
X49459Y-39289D01*
X49459Y-39289D02*
X44764Y-34594D01*
X44764Y-34594D02*
X44632Y-34594D01*
X44632Y-34594D02*
X44413Y-34503D01*
X44413Y-34503D02*
X44249Y-34340D01*
X44249Y-34340D02*
X44086Y-34504D01*
X44086Y-34504D02*
X43868Y-34594D01*
X43868Y-34594D02*
X43632Y-34594D01*
X43632Y-34594D02*
X43413Y-34503D01*
X43413Y-34503D02*
X43249Y-34340D01*
X43249Y-34340D02*
X43086Y-34504D01*
X43086Y-34504D02*
X42868Y-34594D01*
X42868Y-34594D02*
X42632Y-34594D01*
X42632Y-34594D02*
X42413Y-34503D01*
X42413Y-34503D02*
X42249Y-34340D01*
X42249Y-34340D02*
X42086Y-34504D01*
X42086Y-34504D02*
X41868Y-34594D01*
X41868Y-34594D02*
X41632Y-34594D01*
X41632Y-34594D02*
X41413Y-34503D01*
X41413Y-34503D02*
X41249Y-34340D01*
X41249Y-34340D02*
X41086Y-34504D01*
X41086Y-34504D02*
X40868Y-34594D01*
X40868Y-34594D02*
X40632Y-34594D01*
X40632Y-34594D02*
X40413Y-34503D01*
X40413Y-34503D02*
X40250Y-34340D01*
X40250Y-34340D02*
X40086Y-34504D01*
X40086Y-34504D02*
X39868Y-34594D01*
X39868Y-34594D02*
X39632Y-34594D01*
X39632Y-34594D02*
X39413Y-34503D01*
X39413Y-34503D02*
X39250Y-34340D01*
X39250Y-34340D02*
X39086Y-34504D01*
X39086Y-34504D02*
X38868Y-34594D01*
X38868Y-34594D02*
X38632Y-34594D01*
X38632Y-34594D02*
X38413Y-34503D01*
X38413Y-34503D02*
X38250Y-34340D01*
X38250Y-34340D02*
X38086Y-34504D01*
X38086Y-34504D02*
X37868Y-34594D01*
X37868Y-34594D02*
X37632Y-34594D01*
X37632Y-34594D02*
X37413Y-34503D01*
X37413Y-34503D02*
X37250Y-34340D01*
X37250Y-34340D02*
X37086Y-34504D01*
X37086Y-34504D02*
X36868Y-34594D01*
X36868Y-34594D02*
X36632Y-34594D01*
X36632Y-34594D02*
X36413Y-34503D01*
X36413Y-34503D02*
X36250Y-34340D01*
X36250Y-34340D02*
X36086Y-34504D01*
X36086Y-34504D02*
X35868Y-34594D01*
X35868Y-34594D02*
X35632Y-34594D01*
X35632Y-34594D02*
X35413Y-34503D01*
X35413Y-34503D02*
X35250Y-34340D01*
X35250Y-34340D02*
X35086Y-34504D01*
X35086Y-34504D02*
X34868Y-34594D01*
X34868Y-34594D02*
X34632Y-34594D01*
X34632Y-34594D02*
X34413Y-34503D01*
X34413Y-34503D02*
X34250Y-34340D01*
X34250Y-34340D02*
X34086Y-34504D01*
X34086Y-34504D02*
X33868Y-34594D01*
X33868Y-34594D02*
X33632Y-34594D01*
X33632Y-34594D02*
X33413Y-34503D01*
X33413Y-34503D02*
X33250Y-34340D01*
X33250Y-34340D02*
X33086Y-34504D01*
X33086Y-34504D02*
X32868Y-34594D01*
X32868Y-34594D02*
X32632Y-34594D01*
X32632Y-34594D02*
X32413Y-34503D01*
X32413Y-34503D02*
X32250Y-34340D01*
X32250Y-34340D02*
X32086Y-34504D01*
X32086Y-34504D02*
X31868Y-34594D01*
X31868Y-34594D02*
X31632Y-34594D01*
X31632Y-34594D02*
X31413Y-34503D01*
X31413Y-34503D02*
X31250Y-34340D01*
X31250Y-34340D02*
X31086Y-34504D01*
X31086Y-34504D02*
X30868Y-34594D01*
X30868Y-34594D02*
X30632Y-34594D01*
X30632Y-34594D02*
X30413Y-34503D01*
X30413Y-34503D02*
X30246Y-34336D01*
X30246Y-34336D02*
X30237Y-34314D01*
X30237Y-34314D02*
X30160Y-34339D01*
X30160Y-34339D02*
X29821Y-34000D01*
X29821Y-34000D02*
X30160Y-33661D01*
X30160Y-33661D02*
X30237Y-33685D01*
X30237Y-33685D02*
X30247Y-33663D01*
X30247Y-33663D02*
X30414Y-33496D01*
X30414Y-33496D02*
X30632Y-33406D01*
X30632Y-33406D02*
X30868Y-33406D01*
X30868Y-33406D02*
X31087Y-33497D01*
X31087Y-33497D02*
X31250Y-33660D01*
X31250Y-33660D02*
X31414Y-33496D01*
X31414Y-33496D02*
X31632Y-33406D01*
X31632Y-33406D02*
X31868Y-33406D01*
X31868Y-33406D02*
X32087Y-33497D01*
X32087Y-33497D02*
X32250Y-33660D01*
X32250Y-33660D02*
X32414Y-33496D01*
X32414Y-33496D02*
X32632Y-33406D01*
X32632Y-33406D02*
X32868Y-33406D01*
X32868Y-33406D02*
X33087Y-33497D01*
X33087Y-33497D02*
X33250Y-33660D01*
X33250Y-33660D02*
X33414Y-33496D01*
X33414Y-33496D02*
X33632Y-33406D01*
X33632Y-33406D02*
X33868Y-33406D01*
X33868Y-33406D02*
X34087Y-33497D01*
X34087Y-33497D02*
X34250Y-33660D01*
X34250Y-33660D02*
X34414Y-33496D01*
X34414Y-33496D02*
X34632Y-33406D01*
X34632Y-33406D02*
X34868Y-33406D01*
X34868Y-33406D02*
X35087Y-33497D01*
X35087Y-33497D02*
X35250Y-33660D01*
X35250Y-33660D02*
X35414Y-33496D01*
X35414Y-33496D02*
X35632Y-33406D01*
X35632Y-33406D02*
X35868Y-33406D01*
X35868Y-33406D02*
X36087Y-33497D01*
X36087Y-33497D02*
X36250Y-33660D01*
X36250Y-33660D02*
X36414Y-33496D01*
X36414Y-33496D02*
X36632Y-33406D01*
X36632Y-33406D02*
X36868Y-33406D01*
X36868Y-33406D02*
X37087Y-33497D01*
X37087Y-33497D02*
X37250Y-33660D01*
X37250Y-33660D02*
X37414Y-33496D01*
X37414Y-33496D02*
X37632Y-33406D01*
X37632Y-33406D02*
X37868Y-33406D01*
X37868Y-33406D02*
X38087Y-33497D01*
X38087Y-33497D02*
X38250Y-33660D01*
X38250Y-33660D02*
X38414Y-33496D01*
X38414Y-33496D02*
X38632Y-33406D01*
X38632Y-33406D02*
X38820Y-33406D01*
X38820Y-33406D02*
X38820Y-32900D01*
X38820Y-32900D02*
X38489Y-32762D01*
X38489Y-32762D02*
X38237Y-32509D01*
X38237Y-32509D02*
X38100Y-32178D01*
X38100Y-32178D02*
X38100Y-31820D01*
X38100Y-31820D02*
X38238Y-31489D01*
X38238Y-31489D02*
X38491Y-31237D01*
X38491Y-31237D02*
X38822Y-31100D01*
X38822Y-31100D02*
X39180Y-31100D01*
X39180Y-31100D02*
X39511Y-31238D01*
X39511Y-31238D02*
X39763Y-31491D01*
X39763Y-31491D02*
X39900Y-31822D01*
X39900Y-31822D02*
X39900Y-32180D01*
X39900Y-32180D02*
X39762Y-32511D01*
X39762Y-32511D02*
X39509Y-32763D01*
X39509Y-32763D02*
X39178Y-32900D01*
X39178Y-32900D02*
X38820Y-32900D01*
X38820Y-32900D02*
X38820Y-33406D01*
X38820Y-33406D02*
X38868Y-33406D01*
X38868Y-33406D02*
X39087Y-33497D01*
X39087Y-33497D02*
X39250Y-33660D01*
X39250Y-33660D02*
X39414Y-33496D01*
X39414Y-33496D02*
X39632Y-33406D01*
X39632Y-33406D02*
X39868Y-33406D01*
X39868Y-33406D02*
X40087Y-33497D01*
X40087Y-33497D02*
X40250Y-33660D01*
X40250Y-33660D02*
X40414Y-33496D01*
X40414Y-33496D02*
X40632Y-33406D01*
X40632Y-33406D02*
X40868Y-33406D01*
X40868Y-33406D02*
X41087Y-33497D01*
X41087Y-33497D02*
X41249Y-33660D01*
X41249Y-33660D02*
X41414Y-33496D01*
X41414Y-33496D02*
X41632Y-33406D01*
X41632Y-33406D02*
X41868Y-33406D01*
X41868Y-33406D02*
X42087Y-33497D01*
X42087Y-33497D02*
X42249Y-33660D01*
X42249Y-33660D02*
X42414Y-33496D01*
X42414Y-33496D02*
X42632Y-33406D01*
X42632Y-33406D02*
X42764Y-33406D01*
X42764Y-33406D02*
X43442Y-32728D01*
X43442Y-32728D02*
X43575Y-32639D01*
X43575Y-32639D02*
X43732Y-32608D01*
X43732Y-32608D02*
X48335Y-32608D01*
X48335Y-32608D02*
X48237Y-32509D01*
X48237Y-32509D02*
X48100Y-32178D01*
X48100Y-32178D02*
X48100Y-31820D01*
X48100Y-31820D02*
X48238Y-31489D01*
X48238Y-31489D02*
X48491Y-31237D01*
X48491Y-31237D02*
X48822Y-31100D01*
X48822Y-31100D02*
X49180Y-31100D01*
X49180Y-31100D02*
X49511Y-31238D01*
X49511Y-31238D02*
X49763Y-31491D01*
X49763Y-31491D02*
X49900Y-31822D01*
X49900Y-31822D02*
X49900Y-32180D01*
X49900Y-32180D02*
X49762Y-32511D01*
X49762Y-32511D02*
X49640Y-32632D01*
X49640Y-32632D02*
X49675Y-32639D01*
X49675Y-32639D02*
X49808Y-32728D01*
X49808Y-32728D02*
X52918Y-35838D01*
X52918Y-35838D02*
X52992Y-35661D01*
X52992Y-35661D02*
X53067Y-35585D01*
X53067Y-35585D02*
X53009Y-35561D01*
X53009Y-35561D02*
X52939Y-35491D01*
X52939Y-35491D02*
X52901Y-35399D01*
X52901Y-35399D02*
X52900Y-35112D01*
X52900Y-35112D02*
X52962Y-35050D01*
X52962Y-35050D02*
X52962Y-34950D01*
X52962Y-34950D02*
X52900Y-34888D01*
X52900Y-34888D02*
X52901Y-34601D01*
X52901Y-34601D02*
X52939Y-34509D01*
X52939Y-34509D02*
X53009Y-34439D01*
X53009Y-34439D02*
X53100Y-34401D01*
X53100Y-34401D02*
X53388Y-34400D01*
X53388Y-34400D02*
X53450Y-34462D01*
X53450Y-34462D02*
X53450Y-34950D01*
X53450Y-34950D02*
X52962Y-34950D01*
X52962Y-34950D02*
X52962Y-35050D01*
X52962Y-35050D02*
X53450Y-35050D01*
X53450Y-35050D02*
X53550Y-35050D01*
X53550Y-35050D02*
X53550Y-34950D01*
X53550Y-34950D02*
X53550Y-34462D01*
X53550Y-34462D02*
X53612Y-34400D01*
X53612Y-34400D02*
X53900Y-34401D01*
X53900Y-34401D02*
X53991Y-34439D01*
X53991Y-34439D02*
X54061Y-34509D01*
X54061Y-34509D02*
X54085Y-34567D01*
X54085Y-34567D02*
X54161Y-34492D01*
X54161Y-34492D02*
X54381Y-34401D01*
X54381Y-34401D02*
X54619Y-34401D01*
X54619Y-34401D02*
X54839Y-34492D01*
X54839Y-34492D02*
X55008Y-34661D01*
X55008Y-34661D02*
X55099Y-34881D01*
X55099Y-34881D02*
X55099Y-35119D01*
X55099Y-35119D02*
X55008Y-35339D01*
X55008Y-35339D02*
X54846Y-35500D01*
X54846Y-35500D02*
X55008Y-35661D01*
X55008Y-35661D02*
X55099Y-35881D01*
X55099Y-35881D02*
X55099Y-36119D01*
X55099Y-36119D02*
X55008Y-36339D01*
X55008Y-36339D02*
X54846Y-36500D01*
X54846Y-36500D02*
X55008Y-36661D01*
X55008Y-36661D02*
X55099Y-36881D01*
X55099Y-36881D02*
X55099Y-37119D01*
X55099Y-37119D02*
X55008Y-37339D01*
X55008Y-37339D02*
X54846Y-37500D01*
X54846Y-37500D02*
X55008Y-37661D01*
X55008Y-37661D02*
X55099Y-37881D01*
X55099Y-37881D02*
X55099Y-38119D01*
X55099Y-38119D02*
X55008Y-38339D01*
X55008Y-38339D02*
X54847Y-38500D01*
X54847Y-38500D02*
X55008Y-38661D01*
X55008Y-38661D02*
X55099Y-38881D01*
X55099Y-38881D02*
X55099Y-39119D01*
X55099Y-39119D02*
X55008Y-39339D01*
X55008Y-39339D02*
X54839Y-39508D01*
X54839Y-39508D02*
X54619Y-39599D01*
X54619Y-39599D02*
X54381Y-39599D01*
X54381Y-39599D02*
X54381Y-44401D01*
X54381Y-44401D02*
X54619Y-44401D01*
X54619Y-44401D02*
X54839Y-44492D01*
X54839Y-44492D02*
X55008Y-44661D01*
X55008Y-44661D02*
X55099Y-44881D01*
X55099Y-44881D02*
X55099Y-45119D01*
X55099Y-45119D02*
X55008Y-45339D01*
X55008Y-45339D02*
X54846Y-45499D01*
X54846Y-45499D02*
X55008Y-45661D01*
X55008Y-45661D02*
X55099Y-45881D01*
X55099Y-45881D02*
X55099Y-46119D01*
X55099Y-46119D02*
X55008Y-46339D01*
X55008Y-46339D02*
X54846Y-46499D01*
X54846Y-46499D02*
X55008Y-46661D01*
X55008Y-46661D02*
X55099Y-46881D01*
X55099Y-46881D02*
X55099Y-47119D01*
X55099Y-47119D02*
X55008Y-47339D01*
X55008Y-47339D02*
X54846Y-47499D01*
X54846Y-47499D02*
X55008Y-47661D01*
X55008Y-47661D02*
X55099Y-47881D01*
X55099Y-47881D02*
X55099Y-48119D01*
X55099Y-48119D02*
X55008Y-48339D01*
X55008Y-48339D02*
X54847Y-48500D01*
X54847Y-48500D02*
X55008Y-48661D01*
X55008Y-48661D02*
X55099Y-48881D01*
X55099Y-48881D02*
X55099Y-49119D01*
X55099Y-49119D02*
X55008Y-49339D01*
X55008Y-49339D02*
X54839Y-49508D01*
X54839Y-49508D02*
X54619Y-49599D01*
X54619Y-49599D02*
X54381Y-49599D01*
X54381Y-49599D02*
X54161Y-49508D01*
X54161Y-49508D02*
X54000Y-49347D01*
X54000Y-49347D02*
X53839Y-49508D01*
X53839Y-49508D02*
X53619Y-49599D01*
X53619Y-49599D02*
X53381Y-49599D01*
X53381Y-49599D02*
X53161Y-49508D01*
X53161Y-49508D02*
X52992Y-49339D01*
X52992Y-49339D02*
X52901Y-49119D01*
X52901Y-49119D02*
X52901Y-48881D01*
X52901Y-48881D02*
X52992Y-48661D01*
X52992Y-48661D02*
X53152Y-48499D01*
X53152Y-48499D02*
X53062Y-48409D01*
X53062Y-48409D02*
X51750Y-48410D01*
X51750Y-48410D02*
X51593Y-48379D01*
X51593Y-48379D02*
X51460Y-48290D01*
X51460Y-48290D02*
X43764Y-40594D01*
X43764Y-40594D02*
X43632Y-40594D01*
X43632Y-40594D02*
X43413Y-40503D01*
X43413Y-40503D02*
X43249Y-40339D01*
X43249Y-40339D02*
X43086Y-40504D01*
X43086Y-40504D02*
X42868Y-40594D01*
X42868Y-40594D02*
X42632Y-40594D01*
X42632Y-40594D02*
X42413Y-40503D01*
X42413Y-40503D02*
X42249Y-40339D01*
X42249Y-40339D02*
X42086Y-40504D01*
X42086Y-40504D02*
X41868Y-40594D01*
X41868Y-40594D02*
X41632Y-40594D01*
X41632Y-40594D02*
X41413Y-40503D01*
X41413Y-40503D02*
X41249Y-40339D01*
X41249Y-40339D02*
X41086Y-40504D01*
X41086Y-40504D02*
X40868Y-40594D01*
X40868Y-40594D02*
X40632Y-40594D01*
X40632Y-40594D02*
X40413Y-40503D01*
X40413Y-40503D02*
X40249Y-40339D01*
X40249Y-40339D02*
X40086Y-40504D01*
X40086Y-40504D02*
X39868Y-40594D01*
X39868Y-40594D02*
X39632Y-40594D01*
X39632Y-40594D02*
X39413Y-40503D01*
X39413Y-40503D02*
X39250Y-40340D01*
X39250Y-40340D02*
X39086Y-40504D01*
X39086Y-40504D02*
X38868Y-40594D01*
X38868Y-40594D02*
X38632Y-40594D01*
X38632Y-40594D02*
X38413Y-40503D01*
X38413Y-40503D02*
X38249Y-40340D01*
X38249Y-40340D02*
X38086Y-40504D01*
X38086Y-40504D02*
X37868Y-40594D01*
X37868Y-40594D02*
X37632Y-40594D01*
X37632Y-40594D02*
X37413Y-40503D01*
X37413Y-40503D02*
X37250Y-40339D01*
X37250Y-40339D02*
X37086Y-40504D01*
X37086Y-40504D02*
X36868Y-40594D01*
X36868Y-40594D02*
X36632Y-40594D01*
X36632Y-40594D02*
X36413Y-40503D01*
X36413Y-40503D02*
X36250Y-40339D01*
X36250Y-40339D02*
X36086Y-40504D01*
X36086Y-40504D02*
X35868Y-40594D01*
X35868Y-40594D02*
X35632Y-40594D01*
X35632Y-40594D02*
X35413Y-40503D01*
X35413Y-40503D02*
X35250Y-40339D01*
X35250Y-40339D02*
X35086Y-40504D01*
X35086Y-40504D02*
X34868Y-40594D01*
X34868Y-40594D02*
X34632Y-40594D01*
X34632Y-40594D02*
X34413Y-40503D01*
X34413Y-40503D02*
X34249Y-40339D01*
X34249Y-40339D02*
X34086Y-40504D01*
X34086Y-40504D02*
X33868Y-40594D01*
X33868Y-40594D02*
X33632Y-40594D01*
X33632Y-40594D02*
X33413Y-40503D01*
X33413Y-40503D02*
X33249Y-40340D01*
X33249Y-40340D02*
X33086Y-40504D01*
X33086Y-40504D02*
X32868Y-40594D01*
X32868Y-40594D02*
X32632Y-40594D01*
X32632Y-40594D02*
X32413Y-40503D01*
X32413Y-40503D02*
X32249Y-40340D01*
X32249Y-40340D02*
X32086Y-40504D01*
X32086Y-40504D02*
X31868Y-40594D01*
X31868Y-40594D02*
X31632Y-40594D01*
X31632Y-40594D02*
X31413Y-40503D01*
X31413Y-40503D02*
X31250Y-40339D01*
X31250Y-40339D02*
X31086Y-40504D01*
X31086Y-40504D02*
X30868Y-40594D01*
X30868Y-40594D02*
X30632Y-40594D01*
X30632Y-40594D02*
X30413Y-40503D01*
X30413Y-40503D02*
X30332Y-40422D01*
X30332Y-40422D02*
X30306Y-40486D01*
X30306Y-40486D02*
X30236Y-40556D01*
X30236Y-40556D02*
X30144Y-40594D01*
X30144Y-40594D02*
X29355Y-40594D01*
X29355Y-40594D02*
X29264Y-40556D01*
X29264Y-40556D02*
X29245Y-40537D01*
X29245Y-40537D02*
X29245Y-53005D01*
X29245Y-53005D02*
X30070Y-53005D01*
X30070Y-53005D02*
X30070Y-52900D01*
X30070Y-52900D02*
X29739Y-52762D01*
X29739Y-52762D02*
X29487Y-52509D01*
X29487Y-52509D02*
X29350Y-52178D01*
X29350Y-52178D02*
X29350Y-51820D01*
X29350Y-51820D02*
X29488Y-51489D01*
X29488Y-51489D02*
X29741Y-51237D01*
X29741Y-51237D02*
X30072Y-51100D01*
X30072Y-51100D02*
X30430Y-51100D01*
X30430Y-51100D02*
X30761Y-51238D01*
X30761Y-51238D02*
X31013Y-51491D01*
X31013Y-51491D02*
X31150Y-51822D01*
X31150Y-51822D02*
X31150Y-52180D01*
X31150Y-52180D02*
X31012Y-52511D01*
X31012Y-52511D02*
X30759Y-52763D01*
X30759Y-52763D02*
X30428Y-52900D01*
X30428Y-52900D02*
X30070Y-52900D01*
X30070Y-52900D02*
X30070Y-53005D01*
X30070Y-53005D02*
X31330Y-53005D01*
X31330Y-53005D02*
X31330Y-49850D01*
X31330Y-49850D02*
X31018Y-49720D01*
X31018Y-49720D02*
X30779Y-49480D01*
X30779Y-49480D02*
X30650Y-49168D01*
X30650Y-49168D02*
X30650Y-48830D01*
X30650Y-48830D02*
X30780Y-48518D01*
X30780Y-48518D02*
X31020Y-48279D01*
X31020Y-48279D02*
X31330Y-48150D01*
X31330Y-48150D02*
X31330Y-45850D01*
X31330Y-45850D02*
X31018Y-45720D01*
X31018Y-45720D02*
X30779Y-45480D01*
X30779Y-45480D02*
X30650Y-45168D01*
X30650Y-45168D02*
X30650Y-44830D01*
X30650Y-44830D02*
X30780Y-44518D01*
X30780Y-44518D02*
X31020Y-44279D01*
X31020Y-44279D02*
X31332Y-44150D01*
X31332Y-44150D02*
X31670Y-44150D01*
X31670Y-44150D02*
X31982Y-44280D01*
X31982Y-44280D02*
X32221Y-44520D01*
X32221Y-44520D02*
X32350Y-44832D01*
X32350Y-44832D02*
X32350Y-45170D01*
X32350Y-45170D02*
X32220Y-45482D01*
X32220Y-45482D02*
X31980Y-45721D01*
X31980Y-45721D02*
X31668Y-45850D01*
X31668Y-45850D02*
X31330Y-45850D01*
X31330Y-45850D02*
X31330Y-48150D01*
X31330Y-48150D02*
X31670Y-48150D01*
X31670Y-48150D02*
X31982Y-48280D01*
X31982Y-48280D02*
X32221Y-48520D01*
X32221Y-48520D02*
X32350Y-48832D01*
X32350Y-48832D02*
X32350Y-49170D01*
X32350Y-49170D02*
X32220Y-49482D01*
X32220Y-49482D02*
X31980Y-49721D01*
X31980Y-49721D02*
X31668Y-49850D01*
X31668Y-49850D02*
X31330Y-49850D01*
X31330Y-49850D02*
X31330Y-53005D01*
X31330Y-53005D02*
X33385Y-53005D01*
X33385Y-53005D02*
X33385Y-48575D01*
X33385Y-48575D02*
X33174Y-48487D01*
X33174Y-48487D02*
X33012Y-48325D01*
X33012Y-48325D02*
X32925Y-48114D01*
X32925Y-48114D02*
X32925Y-47885D01*
X32925Y-47885D02*
X33013Y-47674D01*
X33013Y-47674D02*
X33116Y-47570D01*
X33116Y-47570D02*
X33034Y-47536D01*
X33034Y-47536D02*
X32964Y-47466D01*
X32964Y-47466D02*
X32926Y-47374D01*
X32926Y-47374D02*
X32926Y-46625D01*
X32926Y-46625D02*
X32964Y-46534D01*
X32964Y-46534D02*
X33034Y-46464D01*
X33034Y-46464D02*
X33126Y-46426D01*
X33126Y-46426D02*
X33875Y-46426D01*
X33875Y-46426D02*
X33966Y-46464D01*
X33966Y-46464D02*
X34036Y-46534D01*
X34036Y-46534D02*
X34074Y-46626D01*
X34074Y-46626D02*
X34074Y-47375D01*
X34074Y-47375D02*
X34036Y-47466D01*
X34036Y-47466D02*
X33966Y-47536D01*
X33966Y-47536D02*
X33883Y-47570D01*
X33883Y-47570D02*
X33988Y-47675D01*
X33988Y-47675D02*
X34075Y-47886D01*
X34075Y-47886D02*
X34075Y-48115D01*
X34075Y-48115D02*
X33987Y-48326D01*
X33987Y-48326D02*
X33825Y-48488D01*
X33825Y-48488D02*
X33614Y-48575D01*
X33614Y-48575D02*
X33385Y-48575D01*
X33385Y-48575D02*
X33385Y-53005D01*
X33385Y-53005D02*
X35330Y-53005D01*
X35330Y-53005D02*
X35330Y-49850D01*
X35330Y-49850D02*
X35018Y-49720D01*
X35018Y-49720D02*
X34779Y-49480D01*
X34779Y-49480D02*
X34650Y-49168D01*
X34650Y-49168D02*
X34650Y-48830D01*
X34650Y-48830D02*
X34780Y-48518D01*
X34780Y-48518D02*
X35020Y-48279D01*
X35020Y-48279D02*
X35332Y-48150D01*
X35332Y-48150D02*
X35670Y-48150D01*
X35670Y-48150D02*
X35982Y-48280D01*
X35982Y-48280D02*
X36221Y-48520D01*
X36221Y-48520D02*
X36350Y-48832D01*
X36350Y-48832D02*
X36350Y-49170D01*
X36350Y-49170D02*
X36220Y-49482D01*
X36220Y-49482D02*
X35980Y-49721D01*
X35980Y-49721D02*
X35668Y-49850D01*
X35668Y-49850D02*
X35330Y-49850D01*
X35330Y-49850D02*
X35330Y-53005D01*
X35330Y-53005D02*
X38820Y-53005D01*
X38820Y-53005D02*
X38820Y-52900D01*
X38820Y-52900D02*
X38489Y-52762D01*
X38489Y-52762D02*
X38237Y-52509D01*
X38237Y-52509D02*
X38100Y-52178D01*
X38100Y-52178D02*
X38100Y-51820D01*
X38100Y-51820D02*
X38238Y-51489D01*
X38238Y-51489D02*
X38491Y-51237D01*
X38491Y-51237D02*
X38822Y-51100D01*
X38822Y-51100D02*
X39180Y-51100D01*
X39180Y-51100D02*
X39511Y-51238D01*
X39511Y-51238D02*
X39763Y-51491D01*
X39763Y-51491D02*
X39900Y-51822D01*
X39900Y-51822D02*
X39900Y-52180D01*
X39900Y-52180D02*
X39762Y-52511D01*
X39762Y-52511D02*
X39509Y-52763D01*
X39509Y-52763D02*
X39178Y-52900D01*
X39178Y-52900D02*
X38820Y-52900D01*
X38820Y-52900D02*
X38820Y-53005D01*
X38820Y-53005D02*
X44381Y-53005D01*
X44381Y-53005D02*
X44381Y-49599D01*
X44381Y-49599D02*
X44161Y-49508D01*
X44161Y-49508D02*
X44000Y-49347D01*
X44000Y-49347D02*
X43839Y-49508D01*
X43839Y-49508D02*
X43619Y-49599D01*
X43619Y-49599D02*
X43381Y-49599D01*
X43381Y-49599D02*
X43161Y-49508D01*
X43161Y-49508D02*
X42992Y-49339D01*
X42992Y-49339D02*
X42901Y-49119D01*
X42901Y-49119D02*
X42901Y-48881D01*
X42901Y-48881D02*
X42992Y-48661D01*
X42992Y-48661D02*
X43152Y-48499D01*
X43152Y-48499D02*
X42992Y-48339D01*
X42992Y-48339D02*
X42901Y-48119D01*
X42901Y-48119D02*
X42901Y-47881D01*
X42901Y-47881D02*
X42992Y-47661D01*
X42992Y-47661D02*
X43152Y-47499D01*
X43152Y-47499D02*
X42992Y-47339D01*
X42992Y-47339D02*
X42901Y-47119D01*
X42901Y-47119D02*
X42901Y-46881D01*
X42901Y-46881D02*
X42992Y-46661D01*
X42992Y-46661D02*
X43152Y-46499D01*
X43152Y-46499D02*
X42992Y-46339D01*
X42992Y-46339D02*
X42901Y-46119D01*
X42901Y-46119D02*
X42901Y-45881D01*
X42901Y-45881D02*
X42992Y-45661D01*
X42992Y-45661D02*
X43067Y-45585D01*
X43067Y-45585D02*
X43009Y-45561D01*
X43009Y-45561D02*
X42939Y-45491D01*
X42939Y-45491D02*
X42901Y-45399D01*
X42901Y-45399D02*
X42900Y-45112D01*
X42900Y-45112D02*
X42962Y-45050D01*
X42962Y-45050D02*
X42962Y-44950D01*
X42962Y-44950D02*
X42900Y-44888D01*
X42900Y-44888D02*
X42901Y-44601D01*
X42901Y-44601D02*
X42939Y-44509D01*
X42939Y-44509D02*
X43009Y-44439D01*
X43009Y-44439D02*
X43100Y-44401D01*
X43100Y-44401D02*
X43388Y-44400D01*
X43388Y-44400D02*
X43450Y-44462D01*
X43450Y-44462D02*
X43450Y-44950D01*
X43450Y-44950D02*
X42962Y-44950D01*
X42962Y-44950D02*
X42962Y-45050D01*
X42962Y-45050D02*
X43450Y-45050D01*
X43450Y-45050D02*
X43550Y-45050D01*
X43550Y-45050D02*
X43550Y-44950D01*
X43550Y-44950D02*
X43550Y-44462D01*
X43550Y-44462D02*
X43612Y-44400D01*
X43612Y-44400D02*
X43900Y-44401D01*
X43900Y-44401D02*
X43991Y-44439D01*
X43991Y-44439D02*
X44061Y-44509D01*
X44061Y-44509D02*
X44085Y-44567D01*
X44085Y-44567D02*
X44161Y-44492D01*
X44161Y-44492D02*
X44381Y-44401D01*
X44381Y-44401D02*
X44619Y-44401D01*
X44619Y-44401D02*
X44839Y-44492D01*
X44839Y-44492D02*
X45008Y-44661D01*
X45008Y-44661D02*
X45099Y-44881D01*
X45099Y-44881D02*
X45099Y-45119D01*
X45099Y-45119D02*
X45008Y-45339D01*
X45008Y-45339D02*
X44846Y-45499D01*
X44846Y-45499D02*
X45008Y-45661D01*
X45008Y-45661D02*
X45099Y-45881D01*
X45099Y-45881D02*
X45099Y-46119D01*
X45099Y-46119D02*
X45008Y-46339D01*
X45008Y-46339D02*
X44846Y-46499D01*
X44846Y-46499D02*
X45008Y-46661D01*
X45008Y-46661D02*
X45099Y-46881D01*
X45099Y-46881D02*
X45099Y-47119D01*
X45099Y-47119D02*
X45008Y-47339D01*
X45008Y-47339D02*
X44846Y-47499D01*
X44846Y-47499D02*
X45008Y-47661D01*
X45008Y-47661D02*
X45099Y-47881D01*
X45099Y-47881D02*
X45099Y-48119D01*
X45099Y-48119D02*
X45008Y-48339D01*
X45008Y-48339D02*
X44847Y-48500D01*
X44847Y-48500D02*
X45008Y-48661D01*
X45008Y-48661D02*
X45099Y-48881D01*
X45099Y-48881D02*
X45099Y-49119D01*
X45099Y-49119D02*
X45008Y-49339D01*
X45008Y-49339D02*
X44839Y-49508D01*
X44839Y-49508D02*
X44619Y-49599D01*
X44619Y-49599D02*
X44381Y-49599D01*
X44381Y-49599D02*
X44381Y-53005D01*
X44381Y-53005D02*
X48820Y-53005D01*
X48820Y-53005D02*
X48820Y-52900D01*
X48820Y-52900D02*
X48489Y-52762D01*
X48489Y-52762D02*
X48237Y-52509D01*
X48237Y-52509D02*
X48100Y-52178D01*
X48100Y-52178D02*
X48100Y-51820D01*
X48100Y-51820D02*
X48238Y-51489D01*
X48238Y-51489D02*
X48491Y-51237D01*
X48491Y-51237D02*
X48822Y-51100D01*
X48822Y-51100D02*
X49180Y-51100D01*
X49180Y-51100D02*
X49511Y-51238D01*
X49511Y-51238D02*
X49763Y-51491D01*
X49763Y-51491D02*
X49900Y-51822D01*
X49900Y-51822D02*
X49900Y-52180D01*
X49900Y-52180D02*
X49762Y-52511D01*
X49762Y-52511D02*
X49509Y-52763D01*
X49509Y-52763D02*
X49178Y-52900D01*
X49178Y-52900D02*
X48820Y-52900D01*
X48820Y-52900D02*
X48820Y-53005D01*
X48820Y-53005D02*
X57570Y-53005D01*
X57570Y-53005D02*
X57570Y-52900D01*
X57570Y-52900D02*
X57239Y-52762D01*
X57239Y-52762D02*
X56987Y-52509D01*
X56987Y-52509D02*
X56850Y-52178D01*
X56850Y-52178D02*
X56850Y-51820D01*
X56850Y-51820D02*
X56988Y-51489D01*
X56988Y-51489D02*
X57241Y-51237D01*
X57241Y-51237D02*
X57570Y-51100D01*
X57570Y-51100D02*
X57570Y-32900D01*
X57570Y-32900D02*
X57239Y-32762D01*
X57239Y-32762D02*
X56987Y-32509D01*
X56987Y-32509D02*
X56850Y-32178D01*
X56850Y-32178D02*
X56850Y-31820D01*
X56850Y-31820D02*
X56988Y-31489D01*
X56988Y-31489D02*
X57241Y-31237D01*
X57241Y-31237D02*
X57572Y-31100D01*
X57572Y-31100D02*
X57930Y-31100D01*
X57930Y-31100D02*
X58261Y-31238D01*
X58261Y-31238D02*
X58513Y-31491D01*
X58513Y-31491D02*
X58650Y-31822D01*
X58650Y-31822D02*
X58650Y-32180D01*
X58650Y-32180D02*
X58512Y-32511D01*
X58512Y-32511D02*
X58259Y-32763D01*
X58259Y-32763D02*
X57928Y-32900D01*
X57928Y-32900D02*
X57570Y-32900D01*
X57570Y-32900D02*
X57570Y-51100D01*
X57570Y-51100D02*
X57930Y-51100D01*
X57930Y-51100D02*
X58261Y-51238D01*
X58261Y-51238D02*
X58513Y-51491D01*
X58513Y-51491D02*
X58650Y-51822D01*
X58650Y-51822D02*
X58650Y-52180D01*
X58650Y-52180D02*
X58512Y-52511D01*
X58512Y-52511D02*
X58259Y-52763D01*
X58259Y-52763D02*
X57928Y-52900D01*
X57928Y-52900D02*
X57570Y-52900D01*
X57570Y-52900D02*
X57570Y-53005D01*
X57570Y-53005D02*
X58755Y-53005D01*
M02*
