G04 (created by PCBnew (20090216-final)) date Thu 28 Oct 2010 10:05:55 PM PDT*
G01*
G70*
G90*
%MOIN*%
G04 Gerber Fmt 3.4, Leading zero omitted, Abs format*
%FSLAX34Y34*%
G04 APERTURE LIST*
%ADD10C,0.009000*%
%ADD11C,0.120000*%
%ADD12R,0.065000X0.065000*%
%ADD13C,0.065000*%
%ADD14C,0.069000*%
%ADD15R,0.069000X0.069000*%
%ADD16C,0.130000*%
%ADD17R,0.070000X0.070000*%
%ADD18C,0.070000*%
%ADD19C,0.035000*%
%ADD20C,0.035000*%
%ADD21C,0.032000*%
%ADD22C,0.010000*%
%ADD23C,0.008000*%
%ADD24C,0.012000*%
%ADD25C,0.005000*%
%ADD26C,0.006000*%
%ADD27C,0.015000*%
%ADD28C,0.126000*%
%ADD29R,0.071000X0.071000*%
%ADD30C,0.071000*%
%ADD31C,0.075000*%
%ADD32R,0.075000X0.075000*%
%ADD33C,0.136000*%
%ADD34R,0.076000X0.076000*%
%ADD35C,0.076000*%
G04 APERTURE END LIST*
G54D10*
X59000Y-30750D02*
X29000Y-30750D01*
X59000Y-53250D02*
X59000Y-30750D01*
X29000Y-53250D02*
X59000Y-53250D01*
X29000Y-30750D02*
X29000Y-53250D01*
G54D23*
X34448Y-42362D02*
X34492Y-42450D01*
X34492Y-42450D02*
X34581Y-42450D01*
X34581Y-42450D02*
X34626Y-42406D01*
X34626Y-42406D02*
X34626Y-42050D01*
X34537Y-42050D02*
X34715Y-42050D01*
X34972Y-42184D02*
X34972Y-42362D01*
X34972Y-42362D02*
X35061Y-42450D01*
X35061Y-42450D02*
X35194Y-42450D01*
X35194Y-42450D02*
X35283Y-42362D01*
X35283Y-42362D02*
X35283Y-42184D01*
X35496Y-42450D02*
X35496Y-42184D01*
X35496Y-42228D02*
X35540Y-42184D01*
X35540Y-42184D02*
X35718Y-42184D01*
X35718Y-42184D02*
X35763Y-42228D01*
X35763Y-42228D02*
X35763Y-42450D01*
X36855Y-42450D02*
X36544Y-42450D01*
X36544Y-42450D02*
X36544Y-42317D01*
X36544Y-42317D02*
X36588Y-42273D01*
X36588Y-42273D02*
X36811Y-42273D01*
X36811Y-42273D02*
X36855Y-42228D01*
X36855Y-42228D02*
X36855Y-42095D01*
X36855Y-42095D02*
X36811Y-42050D01*
X36811Y-42050D02*
X36588Y-42050D01*
X36588Y-42050D02*
X36544Y-42095D01*
X37068Y-42450D02*
X37379Y-42050D01*
X37068Y-42406D02*
X37068Y-42095D01*
X37068Y-42095D02*
X37112Y-42050D01*
X37112Y-42050D02*
X37335Y-42050D01*
X37335Y-42050D02*
X37379Y-42095D01*
X37379Y-42095D02*
X37379Y-42406D01*
X37379Y-42406D02*
X37335Y-42450D01*
X37335Y-42450D02*
X37112Y-42450D01*
X37112Y-42450D02*
X37068Y-42406D01*
X37681Y-42450D02*
X37859Y-42450D01*
X37770Y-42450D02*
X37770Y-42050D01*
X37770Y-42095D02*
X37681Y-42184D01*
X38116Y-42450D02*
X38427Y-42050D01*
X38116Y-42406D02*
X38116Y-42095D01*
X38116Y-42095D02*
X38160Y-42050D01*
X38160Y-42050D02*
X38383Y-42050D01*
X38383Y-42050D02*
X38427Y-42095D01*
X38427Y-42095D02*
X38427Y-42406D01*
X38427Y-42406D02*
X38383Y-42450D01*
X38383Y-42450D02*
X38160Y-42450D01*
X38160Y-42450D02*
X38116Y-42406D01*
X30449Y-41406D02*
X30405Y-41450D01*
X30405Y-41450D02*
X30182Y-41450D01*
X30182Y-41450D02*
X30138Y-41406D01*
X30138Y-41406D02*
X30138Y-41095D01*
X30138Y-41095D02*
X30182Y-41050D01*
X30182Y-41050D02*
X30405Y-41050D01*
X30405Y-41050D02*
X30449Y-41095D01*
X30662Y-41184D02*
X30929Y-41184D01*
X30929Y-41184D02*
X30973Y-41228D01*
X30973Y-41228D02*
X30973Y-41450D01*
X30973Y-41450D02*
X30706Y-41450D01*
X30706Y-41450D02*
X30662Y-41406D01*
X30662Y-41406D02*
X30662Y-41362D01*
X30662Y-41362D02*
X30706Y-41317D01*
X30706Y-41317D02*
X30973Y-41317D01*
X31186Y-41450D02*
X31186Y-41184D01*
X31186Y-41228D02*
X31230Y-41184D01*
X31230Y-41184D02*
X31319Y-41184D01*
X31319Y-41184D02*
X31364Y-41228D01*
X31364Y-41228D02*
X31364Y-41450D01*
X31364Y-41228D02*
X31408Y-41184D01*
X31408Y-41184D02*
X31497Y-41184D01*
X31497Y-41184D02*
X31542Y-41228D01*
X31542Y-41228D02*
X31542Y-41450D01*
X31710Y-41317D02*
X32021Y-41317D01*
X32021Y-41317D02*
X32021Y-41228D01*
X32021Y-41228D02*
X31977Y-41184D01*
X31977Y-41184D02*
X31754Y-41184D01*
X31754Y-41184D02*
X31710Y-41228D01*
X31710Y-41228D02*
X31710Y-41406D01*
X31710Y-41406D02*
X31754Y-41450D01*
X31754Y-41450D02*
X31977Y-41450D01*
X31977Y-41450D02*
X32021Y-41406D01*
X32234Y-41450D02*
X32234Y-41184D01*
X32234Y-41273D02*
X32323Y-41184D01*
X32323Y-41184D02*
X32456Y-41184D01*
X32456Y-41184D02*
X32545Y-41273D01*
X32758Y-41184D02*
X33025Y-41184D01*
X33025Y-41184D02*
X33069Y-41228D01*
X33069Y-41228D02*
X33069Y-41450D01*
X33069Y-41450D02*
X32802Y-41450D01*
X32802Y-41450D02*
X32758Y-41406D01*
X32758Y-41406D02*
X32758Y-41362D01*
X32758Y-41362D02*
X32802Y-41317D01*
X32802Y-41317D02*
X33069Y-41317D01*
X33282Y-41050D02*
X33638Y-41050D01*
X33460Y-41050D02*
X33460Y-41450D01*
X33806Y-41450D02*
X33806Y-41184D01*
X33806Y-41273D02*
X33895Y-41184D01*
X33895Y-41184D02*
X34028Y-41184D01*
X34028Y-41184D02*
X34117Y-41273D01*
X34463Y-41050D02*
X34463Y-41095D01*
X34463Y-41228D02*
X34463Y-41406D01*
X34463Y-41406D02*
X34508Y-41450D01*
X34508Y-41450D02*
X34552Y-41450D01*
X34854Y-41538D02*
X34898Y-41583D01*
X34898Y-41583D02*
X35121Y-41583D01*
X35121Y-41583D02*
X35165Y-41538D01*
X35165Y-41538D02*
X35165Y-41228D01*
X35165Y-41228D02*
X35121Y-41184D01*
X35121Y-41184D02*
X34898Y-41184D01*
X34898Y-41184D02*
X34854Y-41228D01*
X34854Y-41228D02*
X34854Y-41406D01*
X34854Y-41406D02*
X34898Y-41450D01*
X34898Y-41450D02*
X35121Y-41450D01*
X35121Y-41450D02*
X35165Y-41406D01*
X35378Y-41538D02*
X35422Y-41583D01*
X35422Y-41583D02*
X35645Y-41583D01*
X35645Y-41583D02*
X35689Y-41538D01*
X35689Y-41538D02*
X35689Y-41228D01*
X35689Y-41228D02*
X35645Y-41184D01*
X35645Y-41184D02*
X35422Y-41184D01*
X35422Y-41184D02*
X35378Y-41228D01*
X35378Y-41228D02*
X35378Y-41406D01*
X35378Y-41406D02*
X35422Y-41450D01*
X35422Y-41450D02*
X35645Y-41450D01*
X35645Y-41450D02*
X35689Y-41406D01*
X35902Y-41317D02*
X36213Y-41317D01*
X36213Y-41317D02*
X36213Y-41228D01*
X36213Y-41228D02*
X36169Y-41184D01*
X36169Y-41184D02*
X35946Y-41184D01*
X35946Y-41184D02*
X35902Y-41228D01*
X35902Y-41228D02*
X35902Y-41406D01*
X35902Y-41406D02*
X35946Y-41450D01*
X35946Y-41450D02*
X36169Y-41450D01*
X36169Y-41450D02*
X36213Y-41406D01*
X36426Y-41450D02*
X36426Y-41184D01*
X36426Y-41273D02*
X36515Y-41184D01*
X36515Y-41184D02*
X36648Y-41184D01*
X36648Y-41184D02*
X36737Y-41273D01*
X50532Y-38800D02*
X50843Y-38800D01*
X50843Y-38800D02*
X50843Y-38845D01*
X50843Y-38845D02*
X50665Y-38978D01*
X50665Y-38978D02*
X50799Y-38978D01*
X50799Y-38978D02*
X50843Y-39023D01*
X50843Y-39023D02*
X50843Y-39156D01*
X50843Y-39156D02*
X50799Y-39200D01*
X50799Y-39200D02*
X50576Y-39200D01*
X50576Y-39200D02*
X50532Y-39156D01*
X50843Y-38200D02*
X50532Y-38200D01*
X50532Y-38200D02*
X50532Y-38067D01*
X50532Y-38067D02*
X50576Y-38023D01*
X50576Y-38023D02*
X50799Y-38023D01*
X50799Y-38023D02*
X50843Y-37978D01*
X50843Y-37978D02*
X50843Y-37845D01*
X50843Y-37845D02*
X50799Y-37800D01*
X50799Y-37800D02*
X50576Y-37800D01*
X50576Y-37800D02*
X50532Y-37845D01*
X50621Y-37200D02*
X50799Y-37200D01*
X50710Y-37200D02*
X50710Y-36800D01*
X50710Y-36845D02*
X50621Y-36934D01*
X50532Y-36200D02*
X50843Y-35800D01*
X50532Y-36156D02*
X50532Y-35845D01*
X50532Y-35845D02*
X50576Y-35800D01*
X50576Y-35800D02*
X50799Y-35800D01*
X50799Y-35800D02*
X50843Y-35845D01*
X50843Y-35845D02*
X50843Y-36156D01*
X50843Y-36156D02*
X50799Y-36200D01*
X50799Y-36200D02*
X50576Y-36200D01*
X50576Y-36200D02*
X50532Y-36156D01*
G54D26*
X50542Y-48800D02*
X50853Y-48800D01*
X50853Y-48800D02*
X50853Y-48845D01*
X50853Y-48845D02*
X50675Y-48978D01*
X50675Y-48978D02*
X50809Y-48978D01*
X50809Y-48978D02*
X50853Y-49023D01*
X50853Y-49023D02*
X50853Y-49156D01*
X50853Y-49156D02*
X50809Y-49200D01*
X50809Y-49200D02*
X50586Y-49200D01*
X50586Y-49200D02*
X50542Y-49156D01*
X50853Y-48200D02*
X50542Y-48200D01*
X50542Y-48200D02*
X50542Y-48067D01*
X50542Y-48067D02*
X50586Y-48023D01*
X50586Y-48023D02*
X50809Y-48023D01*
X50809Y-48023D02*
X50853Y-47978D01*
X50853Y-47978D02*
X50853Y-47845D01*
X50853Y-47845D02*
X50809Y-47800D01*
X50809Y-47800D02*
X50586Y-47800D01*
X50586Y-47800D02*
X50542Y-47845D01*
G54D23*
X50621Y-47200D02*
X50799Y-47200D01*
X50710Y-47200D02*
X50710Y-46800D01*
X50710Y-46845D02*
X50621Y-46934D01*
X50532Y-46200D02*
X50843Y-45800D01*
X50532Y-46156D02*
X50532Y-45845D01*
X50532Y-45845D02*
X50576Y-45800D01*
X50576Y-45800D02*
X50799Y-45800D01*
X50799Y-45800D02*
X50843Y-45845D01*
X50843Y-45845D02*
X50843Y-46156D01*
X50843Y-46156D02*
X50799Y-46200D01*
X50799Y-46200D02*
X50576Y-46200D01*
X50576Y-46200D02*
X50532Y-46156D01*
X49508Y-35023D02*
X49775Y-35023D01*
X49641Y-35156D02*
X49641Y-34889D01*
X50032Y-35112D02*
X50032Y-35156D01*
X50032Y-35156D02*
X50076Y-35200D01*
X50076Y-35200D02*
X50299Y-35200D01*
X50299Y-35200D02*
X50343Y-35156D01*
X50343Y-35156D02*
X50343Y-35023D01*
X50343Y-35023D02*
X50254Y-34934D01*
X50254Y-34934D02*
X50032Y-34934D01*
X50032Y-34934D02*
X50032Y-34800D01*
X50032Y-34800D02*
X50343Y-34800D01*
X50556Y-34800D02*
X50734Y-35200D01*
X50734Y-35200D02*
X50912Y-34800D01*
X49508Y-45023D02*
X49775Y-45023D01*
X49641Y-45156D02*
X49641Y-44889D01*
X50032Y-45112D02*
X50032Y-45156D01*
X50032Y-45156D02*
X50076Y-45200D01*
X50076Y-45200D02*
X50299Y-45200D01*
X50299Y-45200D02*
X50343Y-45156D01*
X50343Y-45156D02*
X50343Y-45023D01*
X50343Y-45023D02*
X50254Y-44934D01*
X50254Y-44934D02*
X50032Y-44934D01*
X50032Y-44934D02*
X50032Y-44800D01*
X50032Y-44800D02*
X50343Y-44800D01*
X50556Y-44800D02*
X50734Y-45200D01*
X50734Y-45200D02*
X50912Y-44800D01*
X39508Y-45023D02*
X39775Y-45023D01*
X39641Y-45156D02*
X39641Y-44889D01*
X40032Y-45112D02*
X40032Y-45156D01*
X40032Y-45156D02*
X40076Y-45200D01*
X40076Y-45200D02*
X40299Y-45200D01*
X40299Y-45200D02*
X40343Y-45156D01*
X40343Y-45156D02*
X40343Y-45023D01*
X40343Y-45023D02*
X40254Y-44934D01*
X40254Y-44934D02*
X40032Y-44934D01*
X40032Y-44934D02*
X40032Y-44800D01*
X40032Y-44800D02*
X40343Y-44800D01*
X40556Y-44800D02*
X40734Y-45200D01*
X40734Y-45200D02*
X40912Y-44800D01*
X40532Y-46200D02*
X40843Y-45800D01*
X40532Y-46156D02*
X40532Y-45845D01*
X40532Y-45845D02*
X40576Y-45800D01*
X40576Y-45800D02*
X40799Y-45800D01*
X40799Y-45800D02*
X40843Y-45845D01*
X40843Y-45845D02*
X40843Y-46156D01*
X40843Y-46156D02*
X40799Y-46200D01*
X40799Y-46200D02*
X40576Y-46200D01*
X40576Y-46200D02*
X40532Y-46156D01*
X40621Y-47200D02*
X40799Y-47200D01*
X40710Y-47200D02*
X40710Y-46800D01*
X40710Y-46845D02*
X40621Y-46934D01*
X40843Y-48200D02*
X40532Y-48200D01*
X40532Y-48200D02*
X40532Y-48067D01*
X40532Y-48067D02*
X40576Y-48023D01*
X40576Y-48023D02*
X40799Y-48023D01*
X40799Y-48023D02*
X40843Y-47978D01*
X40843Y-47978D02*
X40843Y-47845D01*
X40843Y-47845D02*
X40799Y-47800D01*
X40799Y-47800D02*
X40576Y-47800D01*
X40576Y-47800D02*
X40532Y-47845D01*
X40532Y-48800D02*
X40843Y-48800D01*
X40843Y-48800D02*
X40843Y-48845D01*
X40843Y-48845D02*
X40665Y-48978D01*
X40665Y-48978D02*
X40799Y-48978D01*
X40799Y-48978D02*
X40843Y-49023D01*
X40843Y-49023D02*
X40843Y-49156D01*
X40843Y-49156D02*
X40799Y-49200D01*
X40799Y-49200D02*
X40576Y-49200D01*
X40576Y-49200D02*
X40532Y-49156D01*
X56345Y-37475D02*
X56300Y-37475D01*
X56300Y-37475D02*
X56300Y-37698D01*
X56300Y-37698D02*
X56345Y-37742D01*
X56345Y-37742D02*
X56656Y-37742D01*
X56656Y-37742D02*
X56700Y-37698D01*
X56700Y-37698D02*
X56700Y-37475D01*
X56700Y-37475D02*
X56656Y-37431D01*
X56656Y-37431D02*
X56523Y-37431D01*
X56523Y-37431D02*
X56523Y-37564D01*
X56700Y-37218D02*
X56300Y-37218D01*
X56300Y-37218D02*
X56700Y-36907D01*
X56700Y-36907D02*
X56300Y-36907D01*
X56700Y-36650D02*
X56300Y-36650D01*
X56300Y-36694D02*
X56300Y-36427D01*
X56300Y-36427D02*
X56345Y-36383D01*
X56345Y-36383D02*
X56656Y-36383D01*
X56656Y-36383D02*
X56700Y-36427D01*
X56700Y-36427D02*
X56700Y-36694D01*
X56345Y-47475D02*
X56300Y-47475D01*
X56300Y-47475D02*
X56300Y-47698D01*
X56300Y-47698D02*
X56345Y-47742D01*
X56345Y-47742D02*
X56656Y-47742D01*
X56656Y-47742D02*
X56700Y-47698D01*
X56700Y-47698D02*
X56700Y-47475D01*
X56700Y-47475D02*
X56656Y-47431D01*
X56656Y-47431D02*
X56523Y-47431D01*
X56523Y-47431D02*
X56523Y-47564D01*
X56700Y-47218D02*
X56300Y-47218D01*
X56300Y-47218D02*
X56700Y-46907D01*
X56700Y-46907D02*
X56300Y-46907D01*
X56700Y-46650D02*
X56300Y-46650D01*
X56300Y-46694D02*
X56300Y-46427D01*
X56300Y-46427D02*
X56345Y-46383D01*
X56345Y-46383D02*
X56656Y-46383D01*
X56656Y-46383D02*
X56700Y-46427D01*
X56700Y-46427D02*
X56700Y-46694D01*
X46345Y-47475D02*
X46300Y-47475D01*
X46300Y-47475D02*
X46300Y-47698D01*
X46300Y-47698D02*
X46345Y-47742D01*
X46345Y-47742D02*
X46656Y-47742D01*
X46656Y-47742D02*
X46700Y-47698D01*
X46700Y-47698D02*
X46700Y-47475D01*
X46700Y-47475D02*
X46656Y-47431D01*
X46656Y-47431D02*
X46523Y-47431D01*
X46523Y-47431D02*
X46523Y-47564D01*
X46700Y-47218D02*
X46300Y-47218D01*
X46300Y-47218D02*
X46700Y-46907D01*
X46700Y-46907D02*
X46300Y-46907D01*
X46700Y-46650D02*
X46300Y-46650D01*
X46300Y-46694D02*
X46300Y-46427D01*
X46300Y-46427D02*
X46345Y-46383D01*
X46345Y-46383D02*
X46656Y-46383D01*
X46656Y-46383D02*
X46700Y-46427D01*
X46700Y-46427D02*
X46700Y-46694D01*
G54D27*
X30500Y-44000D02*
X36500Y-44000D01*
X30500Y-50000D02*
X36500Y-50000D01*
X30500Y-49000D02*
X30200Y-49000D01*
X30200Y-49000D02*
X30200Y-45000D01*
X30200Y-45000D02*
X30500Y-45000D01*
X34500Y-50000D02*
X34500Y-44000D01*
X30500Y-50000D02*
X30500Y-44000D01*
X36500Y-50000D02*
X36500Y-44000D01*
X29250Y-35500D02*
X32000Y-35500D01*
X32000Y-35500D02*
X32000Y-38500D01*
X32000Y-38500D02*
X29250Y-38500D01*
X29250Y-34500D02*
X29250Y-39500D01*
X29250Y-39500D02*
X49250Y-39500D01*
X49250Y-39500D02*
X49250Y-34500D01*
X49250Y-34500D02*
X29250Y-34500D01*
X45800Y-43000D02*
X42200Y-43000D01*
X42200Y-43000D02*
X42200Y-51000D01*
X42200Y-51000D02*
X45800Y-51000D01*
X45800Y-51000D02*
X45800Y-43000D01*
X42000Y-45000D02*
X41400Y-44500D01*
X41400Y-44500D02*
X41400Y-45500D01*
X41400Y-45500D02*
X42000Y-45000D01*
X55800Y-43000D02*
X52200Y-43000D01*
X52200Y-43000D02*
X52200Y-51000D01*
X52200Y-51000D02*
X55800Y-51000D01*
X55800Y-51000D02*
X55800Y-43000D01*
X52000Y-45000D02*
X51400Y-44500D01*
X51400Y-44500D02*
X51400Y-45500D01*
X51400Y-45500D02*
X52000Y-45000D01*
X55800Y-33000D02*
X52200Y-33000D01*
X52200Y-33000D02*
X52200Y-41000D01*
X52200Y-41000D02*
X55800Y-41000D01*
X55800Y-41000D02*
X55800Y-33000D01*
X52000Y-35000D02*
X51400Y-34500D01*
X51400Y-34500D02*
X51400Y-35500D01*
X51400Y-35500D02*
X52000Y-35000D01*
G54D25*
X30900Y-32000D02*
X30887Y-32126D01*
X30887Y-32126D02*
X30850Y-32247D01*
X30850Y-32247D02*
X30791Y-32359D01*
X30791Y-32359D02*
X30711Y-32458D01*
X30711Y-32458D02*
X30613Y-32538D01*
X30613Y-32538D02*
X30501Y-32599D01*
X30501Y-32599D02*
X30380Y-32636D01*
X30380Y-32636D02*
X30254Y-32649D01*
X30254Y-32649D02*
X30129Y-32638D01*
X30129Y-32638D02*
X30007Y-32602D01*
X30007Y-32602D02*
X29895Y-32543D01*
X29895Y-32543D02*
X29796Y-32464D01*
X29796Y-32464D02*
X29714Y-32367D01*
X29714Y-32367D02*
X29653Y-32256D01*
X29653Y-32256D02*
X29615Y-32135D01*
X29615Y-32135D02*
X29601Y-32009D01*
X29601Y-32009D02*
X29611Y-31883D01*
X29611Y-31883D02*
X29646Y-31761D01*
X29646Y-31761D02*
X29704Y-31648D01*
X29704Y-31648D02*
X29783Y-31549D01*
X29783Y-31549D02*
X29880Y-31467D01*
X29880Y-31467D02*
X29990Y-31405D01*
X29990Y-31405D02*
X30111Y-31366D01*
X30111Y-31366D02*
X30237Y-31351D01*
X30237Y-31351D02*
X30362Y-31360D01*
X30362Y-31360D02*
X30485Y-31394D01*
X30485Y-31394D02*
X30598Y-31452D01*
X30598Y-31452D02*
X30698Y-31530D01*
X30698Y-31530D02*
X30781Y-31626D01*
X30781Y-31626D02*
X30843Y-31736D01*
X30843Y-31736D02*
X30883Y-31856D01*
X30883Y-31856D02*
X30899Y-31982D01*
X30899Y-31982D02*
X30900Y-32000D01*
X30900Y-52000D02*
X30887Y-52126D01*
X30887Y-52126D02*
X30850Y-52247D01*
X30850Y-52247D02*
X30791Y-52359D01*
X30791Y-52359D02*
X30711Y-52458D01*
X30711Y-52458D02*
X30613Y-52538D01*
X30613Y-52538D02*
X30501Y-52599D01*
X30501Y-52599D02*
X30380Y-52636D01*
X30380Y-52636D02*
X30254Y-52649D01*
X30254Y-52649D02*
X30129Y-52638D01*
X30129Y-52638D02*
X30007Y-52602D01*
X30007Y-52602D02*
X29895Y-52543D01*
X29895Y-52543D02*
X29796Y-52464D01*
X29796Y-52464D02*
X29714Y-52367D01*
X29714Y-52367D02*
X29653Y-52256D01*
X29653Y-52256D02*
X29615Y-52135D01*
X29615Y-52135D02*
X29601Y-52009D01*
X29601Y-52009D02*
X29611Y-51883D01*
X29611Y-51883D02*
X29646Y-51761D01*
X29646Y-51761D02*
X29704Y-51648D01*
X29704Y-51648D02*
X29783Y-51549D01*
X29783Y-51549D02*
X29880Y-51467D01*
X29880Y-51467D02*
X29990Y-51405D01*
X29990Y-51405D02*
X30111Y-51366D01*
X30111Y-51366D02*
X30237Y-51351D01*
X30237Y-51351D02*
X30362Y-51360D01*
X30362Y-51360D02*
X30485Y-51394D01*
X30485Y-51394D02*
X30598Y-51452D01*
X30598Y-51452D02*
X30698Y-51530D01*
X30698Y-51530D02*
X30781Y-51626D01*
X30781Y-51626D02*
X30843Y-51736D01*
X30843Y-51736D02*
X30883Y-51856D01*
X30883Y-51856D02*
X30899Y-51982D01*
X30899Y-51982D02*
X30900Y-52000D01*
X39650Y-52000D02*
X39637Y-52126D01*
X39637Y-52126D02*
X39600Y-52247D01*
X39600Y-52247D02*
X39541Y-52359D01*
X39541Y-52359D02*
X39461Y-52458D01*
X39461Y-52458D02*
X39363Y-52538D01*
X39363Y-52538D02*
X39251Y-52599D01*
X39251Y-52599D02*
X39130Y-52636D01*
X39130Y-52636D02*
X39004Y-52649D01*
X39004Y-52649D02*
X38879Y-52638D01*
X38879Y-52638D02*
X38757Y-52602D01*
X38757Y-52602D02*
X38645Y-52543D01*
X38645Y-52543D02*
X38546Y-52464D01*
X38546Y-52464D02*
X38464Y-52367D01*
X38464Y-52367D02*
X38403Y-52256D01*
X38403Y-52256D02*
X38365Y-52135D01*
X38365Y-52135D02*
X38351Y-52009D01*
X38351Y-52009D02*
X38361Y-51883D01*
X38361Y-51883D02*
X38396Y-51761D01*
X38396Y-51761D02*
X38454Y-51648D01*
X38454Y-51648D02*
X38533Y-51549D01*
X38533Y-51549D02*
X38630Y-51467D01*
X38630Y-51467D02*
X38740Y-51405D01*
X38740Y-51405D02*
X38861Y-51366D01*
X38861Y-51366D02*
X38987Y-51351D01*
X38987Y-51351D02*
X39112Y-51360D01*
X39112Y-51360D02*
X39235Y-51394D01*
X39235Y-51394D02*
X39348Y-51452D01*
X39348Y-51452D02*
X39448Y-51530D01*
X39448Y-51530D02*
X39531Y-51626D01*
X39531Y-51626D02*
X39593Y-51736D01*
X39593Y-51736D02*
X39633Y-51856D01*
X39633Y-51856D02*
X39649Y-51982D01*
X39649Y-51982D02*
X39650Y-52000D01*
X39650Y-32000D02*
X39637Y-32126D01*
X39637Y-32126D02*
X39600Y-32247D01*
X39600Y-32247D02*
X39541Y-32359D01*
X39541Y-32359D02*
X39461Y-32458D01*
X39461Y-32458D02*
X39363Y-32538D01*
X39363Y-32538D02*
X39251Y-32599D01*
X39251Y-32599D02*
X39130Y-32636D01*
X39130Y-32636D02*
X39004Y-32649D01*
X39004Y-32649D02*
X38879Y-32638D01*
X38879Y-32638D02*
X38757Y-32602D01*
X38757Y-32602D02*
X38645Y-32543D01*
X38645Y-32543D02*
X38546Y-32464D01*
X38546Y-32464D02*
X38464Y-32367D01*
X38464Y-32367D02*
X38403Y-32256D01*
X38403Y-32256D02*
X38365Y-32135D01*
X38365Y-32135D02*
X38351Y-32009D01*
X38351Y-32009D02*
X38361Y-31883D01*
X38361Y-31883D02*
X38396Y-31761D01*
X38396Y-31761D02*
X38454Y-31648D01*
X38454Y-31648D02*
X38533Y-31549D01*
X38533Y-31549D02*
X38630Y-31467D01*
X38630Y-31467D02*
X38740Y-31405D01*
X38740Y-31405D02*
X38861Y-31366D01*
X38861Y-31366D02*
X38987Y-31351D01*
X38987Y-31351D02*
X39112Y-31360D01*
X39112Y-31360D02*
X39235Y-31394D01*
X39235Y-31394D02*
X39348Y-31452D01*
X39348Y-31452D02*
X39448Y-31530D01*
X39448Y-31530D02*
X39531Y-31626D01*
X39531Y-31626D02*
X39593Y-31736D01*
X39593Y-31736D02*
X39633Y-31856D01*
X39633Y-31856D02*
X39649Y-31982D01*
X39649Y-31982D02*
X39650Y-32000D01*
X49650Y-32000D02*
X49637Y-32126D01*
X49637Y-32126D02*
X49600Y-32247D01*
X49600Y-32247D02*
X49541Y-32359D01*
X49541Y-32359D02*
X49461Y-32458D01*
X49461Y-32458D02*
X49363Y-32538D01*
X49363Y-32538D02*
X49251Y-32599D01*
X49251Y-32599D02*
X49130Y-32636D01*
X49130Y-32636D02*
X49004Y-32649D01*
X49004Y-32649D02*
X48879Y-32638D01*
X48879Y-32638D02*
X48757Y-32602D01*
X48757Y-32602D02*
X48645Y-32543D01*
X48645Y-32543D02*
X48546Y-32464D01*
X48546Y-32464D02*
X48464Y-32367D01*
X48464Y-32367D02*
X48403Y-32256D01*
X48403Y-32256D02*
X48365Y-32135D01*
X48365Y-32135D02*
X48351Y-32009D01*
X48351Y-32009D02*
X48361Y-31883D01*
X48361Y-31883D02*
X48396Y-31761D01*
X48396Y-31761D02*
X48454Y-31648D01*
X48454Y-31648D02*
X48533Y-31549D01*
X48533Y-31549D02*
X48630Y-31467D01*
X48630Y-31467D02*
X48740Y-31405D01*
X48740Y-31405D02*
X48861Y-31366D01*
X48861Y-31366D02*
X48987Y-31351D01*
X48987Y-31351D02*
X49112Y-31360D01*
X49112Y-31360D02*
X49235Y-31394D01*
X49235Y-31394D02*
X49348Y-31452D01*
X49348Y-31452D02*
X49448Y-31530D01*
X49448Y-31530D02*
X49531Y-31626D01*
X49531Y-31626D02*
X49593Y-31736D01*
X49593Y-31736D02*
X49633Y-31856D01*
X49633Y-31856D02*
X49649Y-31982D01*
X49649Y-31982D02*
X49650Y-32000D01*
X49650Y-52000D02*
X49637Y-52126D01*
X49637Y-52126D02*
X49600Y-52247D01*
X49600Y-52247D02*
X49541Y-52359D01*
X49541Y-52359D02*
X49461Y-52458D01*
X49461Y-52458D02*
X49363Y-52538D01*
X49363Y-52538D02*
X49251Y-52599D01*
X49251Y-52599D02*
X49130Y-52636D01*
X49130Y-52636D02*
X49004Y-52649D01*
X49004Y-52649D02*
X48879Y-52638D01*
X48879Y-52638D02*
X48757Y-52602D01*
X48757Y-52602D02*
X48645Y-52543D01*
X48645Y-52543D02*
X48546Y-52464D01*
X48546Y-52464D02*
X48464Y-52367D01*
X48464Y-52367D02*
X48403Y-52256D01*
X48403Y-52256D02*
X48365Y-52135D01*
X48365Y-52135D02*
X48351Y-52009D01*
X48351Y-52009D02*
X48361Y-51883D01*
X48361Y-51883D02*
X48396Y-51761D01*
X48396Y-51761D02*
X48454Y-51648D01*
X48454Y-51648D02*
X48533Y-51549D01*
X48533Y-51549D02*
X48630Y-51467D01*
X48630Y-51467D02*
X48740Y-51405D01*
X48740Y-51405D02*
X48861Y-51366D01*
X48861Y-51366D02*
X48987Y-51351D01*
X48987Y-51351D02*
X49112Y-51360D01*
X49112Y-51360D02*
X49235Y-51394D01*
X49235Y-51394D02*
X49348Y-51452D01*
X49348Y-51452D02*
X49448Y-51530D01*
X49448Y-51530D02*
X49531Y-51626D01*
X49531Y-51626D02*
X49593Y-51736D01*
X49593Y-51736D02*
X49633Y-51856D01*
X49633Y-51856D02*
X49649Y-51982D01*
X49649Y-51982D02*
X49650Y-52000D01*
X58400Y-32000D02*
X58387Y-32126D01*
X58387Y-32126D02*
X58350Y-32247D01*
X58350Y-32247D02*
X58291Y-32359D01*
X58291Y-32359D02*
X58211Y-32458D01*
X58211Y-32458D02*
X58113Y-32538D01*
X58113Y-32538D02*
X58001Y-32599D01*
X58001Y-32599D02*
X57880Y-32636D01*
X57880Y-32636D02*
X57754Y-32649D01*
X57754Y-32649D02*
X57629Y-32638D01*
X57629Y-32638D02*
X57507Y-32602D01*
X57507Y-32602D02*
X57395Y-32543D01*
X57395Y-32543D02*
X57296Y-32464D01*
X57296Y-32464D02*
X57214Y-32367D01*
X57214Y-32367D02*
X57153Y-32256D01*
X57153Y-32256D02*
X57115Y-32135D01*
X57115Y-32135D02*
X57101Y-32009D01*
X57101Y-32009D02*
X57111Y-31883D01*
X57111Y-31883D02*
X57146Y-31761D01*
X57146Y-31761D02*
X57204Y-31648D01*
X57204Y-31648D02*
X57283Y-31549D01*
X57283Y-31549D02*
X57380Y-31467D01*
X57380Y-31467D02*
X57490Y-31405D01*
X57490Y-31405D02*
X57611Y-31366D01*
X57611Y-31366D02*
X57737Y-31351D01*
X57737Y-31351D02*
X57862Y-31360D01*
X57862Y-31360D02*
X57985Y-31394D01*
X57985Y-31394D02*
X58098Y-31452D01*
X58098Y-31452D02*
X58198Y-31530D01*
X58198Y-31530D02*
X58281Y-31626D01*
X58281Y-31626D02*
X58343Y-31736D01*
X58343Y-31736D02*
X58383Y-31856D01*
X58383Y-31856D02*
X58399Y-31982D01*
X58399Y-31982D02*
X58400Y-32000D01*
X58400Y-52000D02*
X58387Y-52126D01*
X58387Y-52126D02*
X58350Y-52247D01*
X58350Y-52247D02*
X58291Y-52359D01*
X58291Y-52359D02*
X58211Y-52458D01*
X58211Y-52458D02*
X58113Y-52538D01*
X58113Y-52538D02*
X58001Y-52599D01*
X58001Y-52599D02*
X57880Y-52636D01*
X57880Y-52636D02*
X57754Y-52649D01*
X57754Y-52649D02*
X57629Y-52638D01*
X57629Y-52638D02*
X57507Y-52602D01*
X57507Y-52602D02*
X57395Y-52543D01*
X57395Y-52543D02*
X57296Y-52464D01*
X57296Y-52464D02*
X57214Y-52367D01*
X57214Y-52367D02*
X57153Y-52256D01*
X57153Y-52256D02*
X57115Y-52135D01*
X57115Y-52135D02*
X57101Y-52009D01*
X57101Y-52009D02*
X57111Y-51883D01*
X57111Y-51883D02*
X57146Y-51761D01*
X57146Y-51761D02*
X57204Y-51648D01*
X57204Y-51648D02*
X57283Y-51549D01*
X57283Y-51549D02*
X57380Y-51467D01*
X57380Y-51467D02*
X57490Y-51405D01*
X57490Y-51405D02*
X57611Y-51366D01*
X57611Y-51366D02*
X57737Y-51351D01*
X57737Y-51351D02*
X57862Y-51360D01*
X57862Y-51360D02*
X57985Y-51394D01*
X57985Y-51394D02*
X58098Y-51452D01*
X58098Y-51452D02*
X58198Y-51530D01*
X58198Y-51530D02*
X58281Y-51626D01*
X58281Y-51626D02*
X58343Y-51736D01*
X58343Y-51736D02*
X58383Y-51856D01*
X58383Y-51856D02*
X58399Y-51982D01*
X58399Y-51982D02*
X58400Y-52000D01*
X43150Y-44650D02*
X43850Y-44650D01*
X43850Y-44650D02*
X43850Y-45350D01*
X43850Y-45350D02*
X43150Y-45350D01*
X43150Y-45350D02*
X43150Y-44650D01*
X44850Y-45000D02*
X44843Y-45067D01*
X44843Y-45067D02*
X44823Y-45133D01*
X44823Y-45133D02*
X44791Y-45193D01*
X44791Y-45193D02*
X44748Y-45246D01*
X44748Y-45246D02*
X44695Y-45290D01*
X44695Y-45290D02*
X44635Y-45322D01*
X44635Y-45322D02*
X44570Y-45342D01*
X44570Y-45342D02*
X44502Y-45349D01*
X44502Y-45349D02*
X44435Y-45343D01*
X44435Y-45343D02*
X44369Y-45324D01*
X44369Y-45324D02*
X44309Y-45292D01*
X44309Y-45292D02*
X44256Y-45250D01*
X44256Y-45250D02*
X44212Y-45197D01*
X44212Y-45197D02*
X44179Y-45137D01*
X44179Y-45137D02*
X44158Y-45072D01*
X44158Y-45072D02*
X44151Y-45004D01*
X44151Y-45004D02*
X44156Y-44937D01*
X44156Y-44937D02*
X44175Y-44872D01*
X44175Y-44872D02*
X44206Y-44811D01*
X44206Y-44811D02*
X44249Y-44757D01*
X44249Y-44757D02*
X44301Y-44713D01*
X44301Y-44713D02*
X44360Y-44680D01*
X44360Y-44680D02*
X44425Y-44659D01*
X44425Y-44659D02*
X44493Y-44651D01*
X44493Y-44651D02*
X44560Y-44656D01*
X44560Y-44656D02*
X44626Y-44674D01*
X44626Y-44674D02*
X44687Y-44705D01*
X44687Y-44705D02*
X44741Y-44747D01*
X44741Y-44747D02*
X44786Y-44799D01*
X44786Y-44799D02*
X44819Y-44858D01*
X44819Y-44858D02*
X44841Y-44923D01*
X44841Y-44923D02*
X44849Y-44991D01*
X44849Y-44991D02*
X44850Y-45000D01*
X43850Y-46000D02*
X43843Y-46067D01*
X43843Y-46067D02*
X43823Y-46133D01*
X43823Y-46133D02*
X43791Y-46193D01*
X43791Y-46193D02*
X43748Y-46246D01*
X43748Y-46246D02*
X43695Y-46290D01*
X43695Y-46290D02*
X43635Y-46322D01*
X43635Y-46322D02*
X43570Y-46342D01*
X43570Y-46342D02*
X43502Y-46349D01*
X43502Y-46349D02*
X43435Y-46343D01*
X43435Y-46343D02*
X43369Y-46324D01*
X43369Y-46324D02*
X43309Y-46292D01*
X43309Y-46292D02*
X43256Y-46250D01*
X43256Y-46250D02*
X43212Y-46197D01*
X43212Y-46197D02*
X43179Y-46137D01*
X43179Y-46137D02*
X43158Y-46072D01*
X43158Y-46072D02*
X43151Y-46004D01*
X43151Y-46004D02*
X43156Y-45937D01*
X43156Y-45937D02*
X43175Y-45872D01*
X43175Y-45872D02*
X43206Y-45811D01*
X43206Y-45811D02*
X43249Y-45757D01*
X43249Y-45757D02*
X43301Y-45713D01*
X43301Y-45713D02*
X43360Y-45680D01*
X43360Y-45680D02*
X43425Y-45659D01*
X43425Y-45659D02*
X43493Y-45651D01*
X43493Y-45651D02*
X43560Y-45656D01*
X43560Y-45656D02*
X43626Y-45674D01*
X43626Y-45674D02*
X43687Y-45705D01*
X43687Y-45705D02*
X43741Y-45747D01*
X43741Y-45747D02*
X43786Y-45799D01*
X43786Y-45799D02*
X43819Y-45858D01*
X43819Y-45858D02*
X43841Y-45923D01*
X43841Y-45923D02*
X43849Y-45991D01*
X43849Y-45991D02*
X43850Y-46000D01*
X44850Y-46000D02*
X44843Y-46067D01*
X44843Y-46067D02*
X44823Y-46133D01*
X44823Y-46133D02*
X44791Y-46193D01*
X44791Y-46193D02*
X44748Y-46246D01*
X44748Y-46246D02*
X44695Y-46290D01*
X44695Y-46290D02*
X44635Y-46322D01*
X44635Y-46322D02*
X44570Y-46342D01*
X44570Y-46342D02*
X44502Y-46349D01*
X44502Y-46349D02*
X44435Y-46343D01*
X44435Y-46343D02*
X44369Y-46324D01*
X44369Y-46324D02*
X44309Y-46292D01*
X44309Y-46292D02*
X44256Y-46250D01*
X44256Y-46250D02*
X44212Y-46197D01*
X44212Y-46197D02*
X44179Y-46137D01*
X44179Y-46137D02*
X44158Y-46072D01*
X44158Y-46072D02*
X44151Y-46004D01*
X44151Y-46004D02*
X44156Y-45937D01*
X44156Y-45937D02*
X44175Y-45872D01*
X44175Y-45872D02*
X44206Y-45811D01*
X44206Y-45811D02*
X44249Y-45757D01*
X44249Y-45757D02*
X44301Y-45713D01*
X44301Y-45713D02*
X44360Y-45680D01*
X44360Y-45680D02*
X44425Y-45659D01*
X44425Y-45659D02*
X44493Y-45651D01*
X44493Y-45651D02*
X44560Y-45656D01*
X44560Y-45656D02*
X44626Y-45674D01*
X44626Y-45674D02*
X44687Y-45705D01*
X44687Y-45705D02*
X44741Y-45747D01*
X44741Y-45747D02*
X44786Y-45799D01*
X44786Y-45799D02*
X44819Y-45858D01*
X44819Y-45858D02*
X44841Y-45923D01*
X44841Y-45923D02*
X44849Y-45991D01*
X44849Y-45991D02*
X44850Y-46000D01*
X43850Y-47000D02*
X43843Y-47067D01*
X43843Y-47067D02*
X43823Y-47133D01*
X43823Y-47133D02*
X43791Y-47193D01*
X43791Y-47193D02*
X43748Y-47246D01*
X43748Y-47246D02*
X43695Y-47290D01*
X43695Y-47290D02*
X43635Y-47322D01*
X43635Y-47322D02*
X43570Y-47342D01*
X43570Y-47342D02*
X43502Y-47349D01*
X43502Y-47349D02*
X43435Y-47343D01*
X43435Y-47343D02*
X43369Y-47324D01*
X43369Y-47324D02*
X43309Y-47292D01*
X43309Y-47292D02*
X43256Y-47250D01*
X43256Y-47250D02*
X43212Y-47197D01*
X43212Y-47197D02*
X43179Y-47137D01*
X43179Y-47137D02*
X43158Y-47072D01*
X43158Y-47072D02*
X43151Y-47004D01*
X43151Y-47004D02*
X43156Y-46937D01*
X43156Y-46937D02*
X43175Y-46872D01*
X43175Y-46872D02*
X43206Y-46811D01*
X43206Y-46811D02*
X43249Y-46757D01*
X43249Y-46757D02*
X43301Y-46713D01*
X43301Y-46713D02*
X43360Y-46680D01*
X43360Y-46680D02*
X43425Y-46659D01*
X43425Y-46659D02*
X43493Y-46651D01*
X43493Y-46651D02*
X43560Y-46656D01*
X43560Y-46656D02*
X43626Y-46674D01*
X43626Y-46674D02*
X43687Y-46705D01*
X43687Y-46705D02*
X43741Y-46747D01*
X43741Y-46747D02*
X43786Y-46799D01*
X43786Y-46799D02*
X43819Y-46858D01*
X43819Y-46858D02*
X43841Y-46923D01*
X43841Y-46923D02*
X43849Y-46991D01*
X43849Y-46991D02*
X43850Y-47000D01*
X44850Y-47000D02*
X44843Y-47067D01*
X44843Y-47067D02*
X44823Y-47133D01*
X44823Y-47133D02*
X44791Y-47193D01*
X44791Y-47193D02*
X44748Y-47246D01*
X44748Y-47246D02*
X44695Y-47290D01*
X44695Y-47290D02*
X44635Y-47322D01*
X44635Y-47322D02*
X44570Y-47342D01*
X44570Y-47342D02*
X44502Y-47349D01*
X44502Y-47349D02*
X44435Y-47343D01*
X44435Y-47343D02*
X44369Y-47324D01*
X44369Y-47324D02*
X44309Y-47292D01*
X44309Y-47292D02*
X44256Y-47250D01*
X44256Y-47250D02*
X44212Y-47197D01*
X44212Y-47197D02*
X44179Y-47137D01*
X44179Y-47137D02*
X44158Y-47072D01*
X44158Y-47072D02*
X44151Y-47004D01*
X44151Y-47004D02*
X44156Y-46937D01*
X44156Y-46937D02*
X44175Y-46872D01*
X44175Y-46872D02*
X44206Y-46811D01*
X44206Y-46811D02*
X44249Y-46757D01*
X44249Y-46757D02*
X44301Y-46713D01*
X44301Y-46713D02*
X44360Y-46680D01*
X44360Y-46680D02*
X44425Y-46659D01*
X44425Y-46659D02*
X44493Y-46651D01*
X44493Y-46651D02*
X44560Y-46656D01*
X44560Y-46656D02*
X44626Y-46674D01*
X44626Y-46674D02*
X44687Y-46705D01*
X44687Y-46705D02*
X44741Y-46747D01*
X44741Y-46747D02*
X44786Y-46799D01*
X44786Y-46799D02*
X44819Y-46858D01*
X44819Y-46858D02*
X44841Y-46923D01*
X44841Y-46923D02*
X44849Y-46991D01*
X44849Y-46991D02*
X44850Y-47000D01*
X43850Y-48000D02*
X43843Y-48067D01*
X43843Y-48067D02*
X43823Y-48133D01*
X43823Y-48133D02*
X43791Y-48193D01*
X43791Y-48193D02*
X43748Y-48246D01*
X43748Y-48246D02*
X43695Y-48290D01*
X43695Y-48290D02*
X43635Y-48322D01*
X43635Y-48322D02*
X43570Y-48342D01*
X43570Y-48342D02*
X43502Y-48349D01*
X43502Y-48349D02*
X43435Y-48343D01*
X43435Y-48343D02*
X43369Y-48324D01*
X43369Y-48324D02*
X43309Y-48292D01*
X43309Y-48292D02*
X43256Y-48250D01*
X43256Y-48250D02*
X43212Y-48197D01*
X43212Y-48197D02*
X43179Y-48137D01*
X43179Y-48137D02*
X43158Y-48072D01*
X43158Y-48072D02*
X43151Y-48004D01*
X43151Y-48004D02*
X43156Y-47937D01*
X43156Y-47937D02*
X43175Y-47872D01*
X43175Y-47872D02*
X43206Y-47811D01*
X43206Y-47811D02*
X43249Y-47757D01*
X43249Y-47757D02*
X43301Y-47713D01*
X43301Y-47713D02*
X43360Y-47680D01*
X43360Y-47680D02*
X43425Y-47659D01*
X43425Y-47659D02*
X43493Y-47651D01*
X43493Y-47651D02*
X43560Y-47656D01*
X43560Y-47656D02*
X43626Y-47674D01*
X43626Y-47674D02*
X43687Y-47705D01*
X43687Y-47705D02*
X43741Y-47747D01*
X43741Y-47747D02*
X43786Y-47799D01*
X43786Y-47799D02*
X43819Y-47858D01*
X43819Y-47858D02*
X43841Y-47923D01*
X43841Y-47923D02*
X43849Y-47991D01*
X43849Y-47991D02*
X43850Y-48000D01*
X44850Y-48000D02*
X44843Y-48067D01*
X44843Y-48067D02*
X44823Y-48133D01*
X44823Y-48133D02*
X44791Y-48193D01*
X44791Y-48193D02*
X44748Y-48246D01*
X44748Y-48246D02*
X44695Y-48290D01*
X44695Y-48290D02*
X44635Y-48322D01*
X44635Y-48322D02*
X44570Y-48342D01*
X44570Y-48342D02*
X44502Y-48349D01*
X44502Y-48349D02*
X44435Y-48343D01*
X44435Y-48343D02*
X44369Y-48324D01*
X44369Y-48324D02*
X44309Y-48292D01*
X44309Y-48292D02*
X44256Y-48250D01*
X44256Y-48250D02*
X44212Y-48197D01*
X44212Y-48197D02*
X44179Y-48137D01*
X44179Y-48137D02*
X44158Y-48072D01*
X44158Y-48072D02*
X44151Y-48004D01*
X44151Y-48004D02*
X44156Y-47937D01*
X44156Y-47937D02*
X44175Y-47872D01*
X44175Y-47872D02*
X44206Y-47811D01*
X44206Y-47811D02*
X44249Y-47757D01*
X44249Y-47757D02*
X44301Y-47713D01*
X44301Y-47713D02*
X44360Y-47680D01*
X44360Y-47680D02*
X44425Y-47659D01*
X44425Y-47659D02*
X44493Y-47651D01*
X44493Y-47651D02*
X44560Y-47656D01*
X44560Y-47656D02*
X44626Y-47674D01*
X44626Y-47674D02*
X44687Y-47705D01*
X44687Y-47705D02*
X44741Y-47747D01*
X44741Y-47747D02*
X44786Y-47799D01*
X44786Y-47799D02*
X44819Y-47858D01*
X44819Y-47858D02*
X44841Y-47923D01*
X44841Y-47923D02*
X44849Y-47991D01*
X44849Y-47991D02*
X44850Y-48000D01*
X43850Y-49000D02*
X43843Y-49067D01*
X43843Y-49067D02*
X43823Y-49133D01*
X43823Y-49133D02*
X43791Y-49193D01*
X43791Y-49193D02*
X43748Y-49246D01*
X43748Y-49246D02*
X43695Y-49290D01*
X43695Y-49290D02*
X43635Y-49322D01*
X43635Y-49322D02*
X43570Y-49342D01*
X43570Y-49342D02*
X43502Y-49349D01*
X43502Y-49349D02*
X43435Y-49343D01*
X43435Y-49343D02*
X43369Y-49324D01*
X43369Y-49324D02*
X43309Y-49292D01*
X43309Y-49292D02*
X43256Y-49250D01*
X43256Y-49250D02*
X43212Y-49197D01*
X43212Y-49197D02*
X43179Y-49137D01*
X43179Y-49137D02*
X43158Y-49072D01*
X43158Y-49072D02*
X43151Y-49004D01*
X43151Y-49004D02*
X43156Y-48937D01*
X43156Y-48937D02*
X43175Y-48872D01*
X43175Y-48872D02*
X43206Y-48811D01*
X43206Y-48811D02*
X43249Y-48757D01*
X43249Y-48757D02*
X43301Y-48713D01*
X43301Y-48713D02*
X43360Y-48680D01*
X43360Y-48680D02*
X43425Y-48659D01*
X43425Y-48659D02*
X43493Y-48651D01*
X43493Y-48651D02*
X43560Y-48656D01*
X43560Y-48656D02*
X43626Y-48674D01*
X43626Y-48674D02*
X43687Y-48705D01*
X43687Y-48705D02*
X43741Y-48747D01*
X43741Y-48747D02*
X43786Y-48799D01*
X43786Y-48799D02*
X43819Y-48858D01*
X43819Y-48858D02*
X43841Y-48923D01*
X43841Y-48923D02*
X43849Y-48991D01*
X43849Y-48991D02*
X43850Y-49000D01*
X44850Y-49000D02*
X44843Y-49067D01*
X44843Y-49067D02*
X44823Y-49133D01*
X44823Y-49133D02*
X44791Y-49193D01*
X44791Y-49193D02*
X44748Y-49246D01*
X44748Y-49246D02*
X44695Y-49290D01*
X44695Y-49290D02*
X44635Y-49322D01*
X44635Y-49322D02*
X44570Y-49342D01*
X44570Y-49342D02*
X44502Y-49349D01*
X44502Y-49349D02*
X44435Y-49343D01*
X44435Y-49343D02*
X44369Y-49324D01*
X44369Y-49324D02*
X44309Y-49292D01*
X44309Y-49292D02*
X44256Y-49250D01*
X44256Y-49250D02*
X44212Y-49197D01*
X44212Y-49197D02*
X44179Y-49137D01*
X44179Y-49137D02*
X44158Y-49072D01*
X44158Y-49072D02*
X44151Y-49004D01*
X44151Y-49004D02*
X44156Y-48937D01*
X44156Y-48937D02*
X44175Y-48872D01*
X44175Y-48872D02*
X44206Y-48811D01*
X44206Y-48811D02*
X44249Y-48757D01*
X44249Y-48757D02*
X44301Y-48713D01*
X44301Y-48713D02*
X44360Y-48680D01*
X44360Y-48680D02*
X44425Y-48659D01*
X44425Y-48659D02*
X44493Y-48651D01*
X44493Y-48651D02*
X44560Y-48656D01*
X44560Y-48656D02*
X44626Y-48674D01*
X44626Y-48674D02*
X44687Y-48705D01*
X44687Y-48705D02*
X44741Y-48747D01*
X44741Y-48747D02*
X44786Y-48799D01*
X44786Y-48799D02*
X44819Y-48858D01*
X44819Y-48858D02*
X44841Y-48923D01*
X44841Y-48923D02*
X44849Y-48991D01*
X44849Y-48991D02*
X44850Y-49000D01*
X53150Y-44650D02*
X53850Y-44650D01*
X53850Y-44650D02*
X53850Y-45350D01*
X53850Y-45350D02*
X53150Y-45350D01*
X53150Y-45350D02*
X53150Y-44650D01*
X54850Y-45000D02*
X54843Y-45067D01*
X54843Y-45067D02*
X54823Y-45133D01*
X54823Y-45133D02*
X54791Y-45193D01*
X54791Y-45193D02*
X54748Y-45246D01*
X54748Y-45246D02*
X54695Y-45290D01*
X54695Y-45290D02*
X54635Y-45322D01*
X54635Y-45322D02*
X54570Y-45342D01*
X54570Y-45342D02*
X54502Y-45349D01*
X54502Y-45349D02*
X54435Y-45343D01*
X54435Y-45343D02*
X54369Y-45324D01*
X54369Y-45324D02*
X54309Y-45292D01*
X54309Y-45292D02*
X54256Y-45250D01*
X54256Y-45250D02*
X54212Y-45197D01*
X54212Y-45197D02*
X54179Y-45137D01*
X54179Y-45137D02*
X54158Y-45072D01*
X54158Y-45072D02*
X54151Y-45004D01*
X54151Y-45004D02*
X54156Y-44937D01*
X54156Y-44937D02*
X54175Y-44872D01*
X54175Y-44872D02*
X54206Y-44811D01*
X54206Y-44811D02*
X54249Y-44757D01*
X54249Y-44757D02*
X54301Y-44713D01*
X54301Y-44713D02*
X54360Y-44680D01*
X54360Y-44680D02*
X54425Y-44659D01*
X54425Y-44659D02*
X54493Y-44651D01*
X54493Y-44651D02*
X54560Y-44656D01*
X54560Y-44656D02*
X54626Y-44674D01*
X54626Y-44674D02*
X54687Y-44705D01*
X54687Y-44705D02*
X54741Y-44747D01*
X54741Y-44747D02*
X54786Y-44799D01*
X54786Y-44799D02*
X54819Y-44858D01*
X54819Y-44858D02*
X54841Y-44923D01*
X54841Y-44923D02*
X54849Y-44991D01*
X54849Y-44991D02*
X54850Y-45000D01*
X53850Y-46000D02*
X53843Y-46067D01*
X53843Y-46067D02*
X53823Y-46133D01*
X53823Y-46133D02*
X53791Y-46193D01*
X53791Y-46193D02*
X53748Y-46246D01*
X53748Y-46246D02*
X53695Y-46290D01*
X53695Y-46290D02*
X53635Y-46322D01*
X53635Y-46322D02*
X53570Y-46342D01*
X53570Y-46342D02*
X53502Y-46349D01*
X53502Y-46349D02*
X53435Y-46343D01*
X53435Y-46343D02*
X53369Y-46324D01*
X53369Y-46324D02*
X53309Y-46292D01*
X53309Y-46292D02*
X53256Y-46250D01*
X53256Y-46250D02*
X53212Y-46197D01*
X53212Y-46197D02*
X53179Y-46137D01*
X53179Y-46137D02*
X53158Y-46072D01*
X53158Y-46072D02*
X53151Y-46004D01*
X53151Y-46004D02*
X53156Y-45937D01*
X53156Y-45937D02*
X53175Y-45872D01*
X53175Y-45872D02*
X53206Y-45811D01*
X53206Y-45811D02*
X53249Y-45757D01*
X53249Y-45757D02*
X53301Y-45713D01*
X53301Y-45713D02*
X53360Y-45680D01*
X53360Y-45680D02*
X53425Y-45659D01*
X53425Y-45659D02*
X53493Y-45651D01*
X53493Y-45651D02*
X53560Y-45656D01*
X53560Y-45656D02*
X53626Y-45674D01*
X53626Y-45674D02*
X53687Y-45705D01*
X53687Y-45705D02*
X53741Y-45747D01*
X53741Y-45747D02*
X53786Y-45799D01*
X53786Y-45799D02*
X53819Y-45858D01*
X53819Y-45858D02*
X53841Y-45923D01*
X53841Y-45923D02*
X53849Y-45991D01*
X53849Y-45991D02*
X53850Y-46000D01*
X54850Y-46000D02*
X54843Y-46067D01*
X54843Y-46067D02*
X54823Y-46133D01*
X54823Y-46133D02*
X54791Y-46193D01*
X54791Y-46193D02*
X54748Y-46246D01*
X54748Y-46246D02*
X54695Y-46290D01*
X54695Y-46290D02*
X54635Y-46322D01*
X54635Y-46322D02*
X54570Y-46342D01*
X54570Y-46342D02*
X54502Y-46349D01*
X54502Y-46349D02*
X54435Y-46343D01*
X54435Y-46343D02*
X54369Y-46324D01*
X54369Y-46324D02*
X54309Y-46292D01*
X54309Y-46292D02*
X54256Y-46250D01*
X54256Y-46250D02*
X54212Y-46197D01*
X54212Y-46197D02*
X54179Y-46137D01*
X54179Y-46137D02*
X54158Y-46072D01*
X54158Y-46072D02*
X54151Y-46004D01*
X54151Y-46004D02*
X54156Y-45937D01*
X54156Y-45937D02*
X54175Y-45872D01*
X54175Y-45872D02*
X54206Y-45811D01*
X54206Y-45811D02*
X54249Y-45757D01*
X54249Y-45757D02*
X54301Y-45713D01*
X54301Y-45713D02*
X54360Y-45680D01*
X54360Y-45680D02*
X54425Y-45659D01*
X54425Y-45659D02*
X54493Y-45651D01*
X54493Y-45651D02*
X54560Y-45656D01*
X54560Y-45656D02*
X54626Y-45674D01*
X54626Y-45674D02*
X54687Y-45705D01*
X54687Y-45705D02*
X54741Y-45747D01*
X54741Y-45747D02*
X54786Y-45799D01*
X54786Y-45799D02*
X54819Y-45858D01*
X54819Y-45858D02*
X54841Y-45923D01*
X54841Y-45923D02*
X54849Y-45991D01*
X54849Y-45991D02*
X54850Y-46000D01*
X53850Y-47000D02*
X53843Y-47067D01*
X53843Y-47067D02*
X53823Y-47133D01*
X53823Y-47133D02*
X53791Y-47193D01*
X53791Y-47193D02*
X53748Y-47246D01*
X53748Y-47246D02*
X53695Y-47290D01*
X53695Y-47290D02*
X53635Y-47322D01*
X53635Y-47322D02*
X53570Y-47342D01*
X53570Y-47342D02*
X53502Y-47349D01*
X53502Y-47349D02*
X53435Y-47343D01*
X53435Y-47343D02*
X53369Y-47324D01*
X53369Y-47324D02*
X53309Y-47292D01*
X53309Y-47292D02*
X53256Y-47250D01*
X53256Y-47250D02*
X53212Y-47197D01*
X53212Y-47197D02*
X53179Y-47137D01*
X53179Y-47137D02*
X53158Y-47072D01*
X53158Y-47072D02*
X53151Y-47004D01*
X53151Y-47004D02*
X53156Y-46937D01*
X53156Y-46937D02*
X53175Y-46872D01*
X53175Y-46872D02*
X53206Y-46811D01*
X53206Y-46811D02*
X53249Y-46757D01*
X53249Y-46757D02*
X53301Y-46713D01*
X53301Y-46713D02*
X53360Y-46680D01*
X53360Y-46680D02*
X53425Y-46659D01*
X53425Y-46659D02*
X53493Y-46651D01*
X53493Y-46651D02*
X53560Y-46656D01*
X53560Y-46656D02*
X53626Y-46674D01*
X53626Y-46674D02*
X53687Y-46705D01*
X53687Y-46705D02*
X53741Y-46747D01*
X53741Y-46747D02*
X53786Y-46799D01*
X53786Y-46799D02*
X53819Y-46858D01*
X53819Y-46858D02*
X53841Y-46923D01*
X53841Y-46923D02*
X53849Y-46991D01*
X53849Y-46991D02*
X53850Y-47000D01*
X54850Y-47000D02*
X54843Y-47067D01*
X54843Y-47067D02*
X54823Y-47133D01*
X54823Y-47133D02*
X54791Y-47193D01*
X54791Y-47193D02*
X54748Y-47246D01*
X54748Y-47246D02*
X54695Y-47290D01*
X54695Y-47290D02*
X54635Y-47322D01*
X54635Y-47322D02*
X54570Y-47342D01*
X54570Y-47342D02*
X54502Y-47349D01*
X54502Y-47349D02*
X54435Y-47343D01*
X54435Y-47343D02*
X54369Y-47324D01*
X54369Y-47324D02*
X54309Y-47292D01*
X54309Y-47292D02*
X54256Y-47250D01*
X54256Y-47250D02*
X54212Y-47197D01*
X54212Y-47197D02*
X54179Y-47137D01*
X54179Y-47137D02*
X54158Y-47072D01*
X54158Y-47072D02*
X54151Y-47004D01*
X54151Y-47004D02*
X54156Y-46937D01*
X54156Y-46937D02*
X54175Y-46872D01*
X54175Y-46872D02*
X54206Y-46811D01*
X54206Y-46811D02*
X54249Y-46757D01*
X54249Y-46757D02*
X54301Y-46713D01*
X54301Y-46713D02*
X54360Y-46680D01*
X54360Y-46680D02*
X54425Y-46659D01*
X54425Y-46659D02*
X54493Y-46651D01*
X54493Y-46651D02*
X54560Y-46656D01*
X54560Y-46656D02*
X54626Y-46674D01*
X54626Y-46674D02*
X54687Y-46705D01*
X54687Y-46705D02*
X54741Y-46747D01*
X54741Y-46747D02*
X54786Y-46799D01*
X54786Y-46799D02*
X54819Y-46858D01*
X54819Y-46858D02*
X54841Y-46923D01*
X54841Y-46923D02*
X54849Y-46991D01*
X54849Y-46991D02*
X54850Y-47000D01*
X53850Y-48000D02*
X53843Y-48067D01*
X53843Y-48067D02*
X53823Y-48133D01*
X53823Y-48133D02*
X53791Y-48193D01*
X53791Y-48193D02*
X53748Y-48246D01*
X53748Y-48246D02*
X53695Y-48290D01*
X53695Y-48290D02*
X53635Y-48322D01*
X53635Y-48322D02*
X53570Y-48342D01*
X53570Y-48342D02*
X53502Y-48349D01*
X53502Y-48349D02*
X53435Y-48343D01*
X53435Y-48343D02*
X53369Y-48324D01*
X53369Y-48324D02*
X53309Y-48292D01*
X53309Y-48292D02*
X53256Y-48250D01*
X53256Y-48250D02*
X53212Y-48197D01*
X53212Y-48197D02*
X53179Y-48137D01*
X53179Y-48137D02*
X53158Y-48072D01*
X53158Y-48072D02*
X53151Y-48004D01*
X53151Y-48004D02*
X53156Y-47937D01*
X53156Y-47937D02*
X53175Y-47872D01*
X53175Y-47872D02*
X53206Y-47811D01*
X53206Y-47811D02*
X53249Y-47757D01*
X53249Y-47757D02*
X53301Y-47713D01*
X53301Y-47713D02*
X53360Y-47680D01*
X53360Y-47680D02*
X53425Y-47659D01*
X53425Y-47659D02*
X53493Y-47651D01*
X53493Y-47651D02*
X53560Y-47656D01*
X53560Y-47656D02*
X53626Y-47674D01*
X53626Y-47674D02*
X53687Y-47705D01*
X53687Y-47705D02*
X53741Y-47747D01*
X53741Y-47747D02*
X53786Y-47799D01*
X53786Y-47799D02*
X53819Y-47858D01*
X53819Y-47858D02*
X53841Y-47923D01*
X53841Y-47923D02*
X53849Y-47991D01*
X53849Y-47991D02*
X53850Y-48000D01*
X54850Y-48000D02*
X54843Y-48067D01*
X54843Y-48067D02*
X54823Y-48133D01*
X54823Y-48133D02*
X54791Y-48193D01*
X54791Y-48193D02*
X54748Y-48246D01*
X54748Y-48246D02*
X54695Y-48290D01*
X54695Y-48290D02*
X54635Y-48322D01*
X54635Y-48322D02*
X54570Y-48342D01*
X54570Y-48342D02*
X54502Y-48349D01*
X54502Y-48349D02*
X54435Y-48343D01*
X54435Y-48343D02*
X54369Y-48324D01*
X54369Y-48324D02*
X54309Y-48292D01*
X54309Y-48292D02*
X54256Y-48250D01*
X54256Y-48250D02*
X54212Y-48197D01*
X54212Y-48197D02*
X54179Y-48137D01*
X54179Y-48137D02*
X54158Y-48072D01*
X54158Y-48072D02*
X54151Y-48004D01*
X54151Y-48004D02*
X54156Y-47937D01*
X54156Y-47937D02*
X54175Y-47872D01*
X54175Y-47872D02*
X54206Y-47811D01*
X54206Y-47811D02*
X54249Y-47757D01*
X54249Y-47757D02*
X54301Y-47713D01*
X54301Y-47713D02*
X54360Y-47680D01*
X54360Y-47680D02*
X54425Y-47659D01*
X54425Y-47659D02*
X54493Y-47651D01*
X54493Y-47651D02*
X54560Y-47656D01*
X54560Y-47656D02*
X54626Y-47674D01*
X54626Y-47674D02*
X54687Y-47705D01*
X54687Y-47705D02*
X54741Y-47747D01*
X54741Y-47747D02*
X54786Y-47799D01*
X54786Y-47799D02*
X54819Y-47858D01*
X54819Y-47858D02*
X54841Y-47923D01*
X54841Y-47923D02*
X54849Y-47991D01*
X54849Y-47991D02*
X54850Y-48000D01*
X53850Y-49000D02*
X53843Y-49067D01*
X53843Y-49067D02*
X53823Y-49133D01*
X53823Y-49133D02*
X53791Y-49193D01*
X53791Y-49193D02*
X53748Y-49246D01*
X53748Y-49246D02*
X53695Y-49290D01*
X53695Y-49290D02*
X53635Y-49322D01*
X53635Y-49322D02*
X53570Y-49342D01*
X53570Y-49342D02*
X53502Y-49349D01*
X53502Y-49349D02*
X53435Y-49343D01*
X53435Y-49343D02*
X53369Y-49324D01*
X53369Y-49324D02*
X53309Y-49292D01*
X53309Y-49292D02*
X53256Y-49250D01*
X53256Y-49250D02*
X53212Y-49197D01*
X53212Y-49197D02*
X53179Y-49137D01*
X53179Y-49137D02*
X53158Y-49072D01*
X53158Y-49072D02*
X53151Y-49004D01*
X53151Y-49004D02*
X53156Y-48937D01*
X53156Y-48937D02*
X53175Y-48872D01*
X53175Y-48872D02*
X53206Y-48811D01*
X53206Y-48811D02*
X53249Y-48757D01*
X53249Y-48757D02*
X53301Y-48713D01*
X53301Y-48713D02*
X53360Y-48680D01*
X53360Y-48680D02*
X53425Y-48659D01*
X53425Y-48659D02*
X53493Y-48651D01*
X53493Y-48651D02*
X53560Y-48656D01*
X53560Y-48656D02*
X53626Y-48674D01*
X53626Y-48674D02*
X53687Y-48705D01*
X53687Y-48705D02*
X53741Y-48747D01*
X53741Y-48747D02*
X53786Y-48799D01*
X53786Y-48799D02*
X53819Y-48858D01*
X53819Y-48858D02*
X53841Y-48923D01*
X53841Y-48923D02*
X53849Y-48991D01*
X53849Y-48991D02*
X53850Y-49000D01*
X54850Y-49000D02*
X54843Y-49067D01*
X54843Y-49067D02*
X54823Y-49133D01*
X54823Y-49133D02*
X54791Y-49193D01*
X54791Y-49193D02*
X54748Y-49246D01*
X54748Y-49246D02*
X54695Y-49290D01*
X54695Y-49290D02*
X54635Y-49322D01*
X54635Y-49322D02*
X54570Y-49342D01*
X54570Y-49342D02*
X54502Y-49349D01*
X54502Y-49349D02*
X54435Y-49343D01*
X54435Y-49343D02*
X54369Y-49324D01*
X54369Y-49324D02*
X54309Y-49292D01*
X54309Y-49292D02*
X54256Y-49250D01*
X54256Y-49250D02*
X54212Y-49197D01*
X54212Y-49197D02*
X54179Y-49137D01*
X54179Y-49137D02*
X54158Y-49072D01*
X54158Y-49072D02*
X54151Y-49004D01*
X54151Y-49004D02*
X54156Y-48937D01*
X54156Y-48937D02*
X54175Y-48872D01*
X54175Y-48872D02*
X54206Y-48811D01*
X54206Y-48811D02*
X54249Y-48757D01*
X54249Y-48757D02*
X54301Y-48713D01*
X54301Y-48713D02*
X54360Y-48680D01*
X54360Y-48680D02*
X54425Y-48659D01*
X54425Y-48659D02*
X54493Y-48651D01*
X54493Y-48651D02*
X54560Y-48656D01*
X54560Y-48656D02*
X54626Y-48674D01*
X54626Y-48674D02*
X54687Y-48705D01*
X54687Y-48705D02*
X54741Y-48747D01*
X54741Y-48747D02*
X54786Y-48799D01*
X54786Y-48799D02*
X54819Y-48858D01*
X54819Y-48858D02*
X54841Y-48923D01*
X54841Y-48923D02*
X54849Y-48991D01*
X54849Y-48991D02*
X54850Y-49000D01*
X53150Y-34650D02*
X53850Y-34650D01*
X53850Y-34650D02*
X53850Y-35350D01*
X53850Y-35350D02*
X53150Y-35350D01*
X53150Y-35350D02*
X53150Y-34650D01*
X54850Y-35000D02*
X54843Y-35067D01*
X54843Y-35067D02*
X54823Y-35133D01*
X54823Y-35133D02*
X54791Y-35193D01*
X54791Y-35193D02*
X54748Y-35246D01*
X54748Y-35246D02*
X54695Y-35290D01*
X54695Y-35290D02*
X54635Y-35322D01*
X54635Y-35322D02*
X54570Y-35342D01*
X54570Y-35342D02*
X54502Y-35349D01*
X54502Y-35349D02*
X54435Y-35343D01*
X54435Y-35343D02*
X54369Y-35324D01*
X54369Y-35324D02*
X54309Y-35292D01*
X54309Y-35292D02*
X54256Y-35250D01*
X54256Y-35250D02*
X54212Y-35197D01*
X54212Y-35197D02*
X54179Y-35137D01*
X54179Y-35137D02*
X54158Y-35072D01*
X54158Y-35072D02*
X54151Y-35004D01*
X54151Y-35004D02*
X54156Y-34937D01*
X54156Y-34937D02*
X54175Y-34872D01*
X54175Y-34872D02*
X54206Y-34811D01*
X54206Y-34811D02*
X54249Y-34757D01*
X54249Y-34757D02*
X54301Y-34713D01*
X54301Y-34713D02*
X54360Y-34680D01*
X54360Y-34680D02*
X54425Y-34659D01*
X54425Y-34659D02*
X54493Y-34651D01*
X54493Y-34651D02*
X54560Y-34656D01*
X54560Y-34656D02*
X54626Y-34674D01*
X54626Y-34674D02*
X54687Y-34705D01*
X54687Y-34705D02*
X54741Y-34747D01*
X54741Y-34747D02*
X54786Y-34799D01*
X54786Y-34799D02*
X54819Y-34858D01*
X54819Y-34858D02*
X54841Y-34923D01*
X54841Y-34923D02*
X54849Y-34991D01*
X54849Y-34991D02*
X54850Y-35000D01*
X53850Y-36000D02*
X53843Y-36067D01*
X53843Y-36067D02*
X53823Y-36133D01*
X53823Y-36133D02*
X53791Y-36193D01*
X53791Y-36193D02*
X53748Y-36246D01*
X53748Y-36246D02*
X53695Y-36290D01*
X53695Y-36290D02*
X53635Y-36322D01*
X53635Y-36322D02*
X53570Y-36342D01*
X53570Y-36342D02*
X53502Y-36349D01*
X53502Y-36349D02*
X53435Y-36343D01*
X53435Y-36343D02*
X53369Y-36324D01*
X53369Y-36324D02*
X53309Y-36292D01*
X53309Y-36292D02*
X53256Y-36250D01*
X53256Y-36250D02*
X53212Y-36197D01*
X53212Y-36197D02*
X53179Y-36137D01*
X53179Y-36137D02*
X53158Y-36072D01*
X53158Y-36072D02*
X53151Y-36004D01*
X53151Y-36004D02*
X53156Y-35937D01*
X53156Y-35937D02*
X53175Y-35872D01*
X53175Y-35872D02*
X53206Y-35811D01*
X53206Y-35811D02*
X53249Y-35757D01*
X53249Y-35757D02*
X53301Y-35713D01*
X53301Y-35713D02*
X53360Y-35680D01*
X53360Y-35680D02*
X53425Y-35659D01*
X53425Y-35659D02*
X53493Y-35651D01*
X53493Y-35651D02*
X53560Y-35656D01*
X53560Y-35656D02*
X53626Y-35674D01*
X53626Y-35674D02*
X53687Y-35705D01*
X53687Y-35705D02*
X53741Y-35747D01*
X53741Y-35747D02*
X53786Y-35799D01*
X53786Y-35799D02*
X53819Y-35858D01*
X53819Y-35858D02*
X53841Y-35923D01*
X53841Y-35923D02*
X53849Y-35991D01*
X53849Y-35991D02*
X53850Y-36000D01*
X54850Y-36000D02*
X54843Y-36067D01*
X54843Y-36067D02*
X54823Y-36133D01*
X54823Y-36133D02*
X54791Y-36193D01*
X54791Y-36193D02*
X54748Y-36246D01*
X54748Y-36246D02*
X54695Y-36290D01*
X54695Y-36290D02*
X54635Y-36322D01*
X54635Y-36322D02*
X54570Y-36342D01*
X54570Y-36342D02*
X54502Y-36349D01*
X54502Y-36349D02*
X54435Y-36343D01*
X54435Y-36343D02*
X54369Y-36324D01*
X54369Y-36324D02*
X54309Y-36292D01*
X54309Y-36292D02*
X54256Y-36250D01*
X54256Y-36250D02*
X54212Y-36197D01*
X54212Y-36197D02*
X54179Y-36137D01*
X54179Y-36137D02*
X54158Y-36072D01*
X54158Y-36072D02*
X54151Y-36004D01*
X54151Y-36004D02*
X54156Y-35937D01*
X54156Y-35937D02*
X54175Y-35872D01*
X54175Y-35872D02*
X54206Y-35811D01*
X54206Y-35811D02*
X54249Y-35757D01*
X54249Y-35757D02*
X54301Y-35713D01*
X54301Y-35713D02*
X54360Y-35680D01*
X54360Y-35680D02*
X54425Y-35659D01*
X54425Y-35659D02*
X54493Y-35651D01*
X54493Y-35651D02*
X54560Y-35656D01*
X54560Y-35656D02*
X54626Y-35674D01*
X54626Y-35674D02*
X54687Y-35705D01*
X54687Y-35705D02*
X54741Y-35747D01*
X54741Y-35747D02*
X54786Y-35799D01*
X54786Y-35799D02*
X54819Y-35858D01*
X54819Y-35858D02*
X54841Y-35923D01*
X54841Y-35923D02*
X54849Y-35991D01*
X54849Y-35991D02*
X54850Y-36000D01*
X53850Y-37000D02*
X53843Y-37067D01*
X53843Y-37067D02*
X53823Y-37133D01*
X53823Y-37133D02*
X53791Y-37193D01*
X53791Y-37193D02*
X53748Y-37246D01*
X53748Y-37246D02*
X53695Y-37290D01*
X53695Y-37290D02*
X53635Y-37322D01*
X53635Y-37322D02*
X53570Y-37342D01*
X53570Y-37342D02*
X53502Y-37349D01*
X53502Y-37349D02*
X53435Y-37343D01*
X53435Y-37343D02*
X53369Y-37324D01*
X53369Y-37324D02*
X53309Y-37292D01*
X53309Y-37292D02*
X53256Y-37250D01*
X53256Y-37250D02*
X53212Y-37197D01*
X53212Y-37197D02*
X53179Y-37137D01*
X53179Y-37137D02*
X53158Y-37072D01*
X53158Y-37072D02*
X53151Y-37004D01*
X53151Y-37004D02*
X53156Y-36937D01*
X53156Y-36937D02*
X53175Y-36872D01*
X53175Y-36872D02*
X53206Y-36811D01*
X53206Y-36811D02*
X53249Y-36757D01*
X53249Y-36757D02*
X53301Y-36713D01*
X53301Y-36713D02*
X53360Y-36680D01*
X53360Y-36680D02*
X53425Y-36659D01*
X53425Y-36659D02*
X53493Y-36651D01*
X53493Y-36651D02*
X53560Y-36656D01*
X53560Y-36656D02*
X53626Y-36674D01*
X53626Y-36674D02*
X53687Y-36705D01*
X53687Y-36705D02*
X53741Y-36747D01*
X53741Y-36747D02*
X53786Y-36799D01*
X53786Y-36799D02*
X53819Y-36858D01*
X53819Y-36858D02*
X53841Y-36923D01*
X53841Y-36923D02*
X53849Y-36991D01*
X53849Y-36991D02*
X53850Y-37000D01*
X54850Y-37000D02*
X54843Y-37067D01*
X54843Y-37067D02*
X54823Y-37133D01*
X54823Y-37133D02*
X54791Y-37193D01*
X54791Y-37193D02*
X54748Y-37246D01*
X54748Y-37246D02*
X54695Y-37290D01*
X54695Y-37290D02*
X54635Y-37322D01*
X54635Y-37322D02*
X54570Y-37342D01*
X54570Y-37342D02*
X54502Y-37349D01*
X54502Y-37349D02*
X54435Y-37343D01*
X54435Y-37343D02*
X54369Y-37324D01*
X54369Y-37324D02*
X54309Y-37292D01*
X54309Y-37292D02*
X54256Y-37250D01*
X54256Y-37250D02*
X54212Y-37197D01*
X54212Y-37197D02*
X54179Y-37137D01*
X54179Y-37137D02*
X54158Y-37072D01*
X54158Y-37072D02*
X54151Y-37004D01*
X54151Y-37004D02*
X54156Y-36937D01*
X54156Y-36937D02*
X54175Y-36872D01*
X54175Y-36872D02*
X54206Y-36811D01*
X54206Y-36811D02*
X54249Y-36757D01*
X54249Y-36757D02*
X54301Y-36713D01*
X54301Y-36713D02*
X54360Y-36680D01*
X54360Y-36680D02*
X54425Y-36659D01*
X54425Y-36659D02*
X54493Y-36651D01*
X54493Y-36651D02*
X54560Y-36656D01*
X54560Y-36656D02*
X54626Y-36674D01*
X54626Y-36674D02*
X54687Y-36705D01*
X54687Y-36705D02*
X54741Y-36747D01*
X54741Y-36747D02*
X54786Y-36799D01*
X54786Y-36799D02*
X54819Y-36858D01*
X54819Y-36858D02*
X54841Y-36923D01*
X54841Y-36923D02*
X54849Y-36991D01*
X54849Y-36991D02*
X54850Y-37000D01*
X53850Y-38000D02*
X53843Y-38067D01*
X53843Y-38067D02*
X53823Y-38133D01*
X53823Y-38133D02*
X53791Y-38193D01*
X53791Y-38193D02*
X53748Y-38246D01*
X53748Y-38246D02*
X53695Y-38290D01*
X53695Y-38290D02*
X53635Y-38322D01*
X53635Y-38322D02*
X53570Y-38342D01*
X53570Y-38342D02*
X53502Y-38349D01*
X53502Y-38349D02*
X53435Y-38343D01*
X53435Y-38343D02*
X53369Y-38324D01*
X53369Y-38324D02*
X53309Y-38292D01*
X53309Y-38292D02*
X53256Y-38250D01*
X53256Y-38250D02*
X53212Y-38197D01*
X53212Y-38197D02*
X53179Y-38137D01*
X53179Y-38137D02*
X53158Y-38072D01*
X53158Y-38072D02*
X53151Y-38004D01*
X53151Y-38004D02*
X53156Y-37937D01*
X53156Y-37937D02*
X53175Y-37872D01*
X53175Y-37872D02*
X53206Y-37811D01*
X53206Y-37811D02*
X53249Y-37757D01*
X53249Y-37757D02*
X53301Y-37713D01*
X53301Y-37713D02*
X53360Y-37680D01*
X53360Y-37680D02*
X53425Y-37659D01*
X53425Y-37659D02*
X53493Y-37651D01*
X53493Y-37651D02*
X53560Y-37656D01*
X53560Y-37656D02*
X53626Y-37674D01*
X53626Y-37674D02*
X53687Y-37705D01*
X53687Y-37705D02*
X53741Y-37747D01*
X53741Y-37747D02*
X53786Y-37799D01*
X53786Y-37799D02*
X53819Y-37858D01*
X53819Y-37858D02*
X53841Y-37923D01*
X53841Y-37923D02*
X53849Y-37991D01*
X53849Y-37991D02*
X53850Y-38000D01*
X54850Y-38000D02*
X54843Y-38067D01*
X54843Y-38067D02*
X54823Y-38133D01*
X54823Y-38133D02*
X54791Y-38193D01*
X54791Y-38193D02*
X54748Y-38246D01*
X54748Y-38246D02*
X54695Y-38290D01*
X54695Y-38290D02*
X54635Y-38322D01*
X54635Y-38322D02*
X54570Y-38342D01*
X54570Y-38342D02*
X54502Y-38349D01*
X54502Y-38349D02*
X54435Y-38343D01*
X54435Y-38343D02*
X54369Y-38324D01*
X54369Y-38324D02*
X54309Y-38292D01*
X54309Y-38292D02*
X54256Y-38250D01*
X54256Y-38250D02*
X54212Y-38197D01*
X54212Y-38197D02*
X54179Y-38137D01*
X54179Y-38137D02*
X54158Y-38072D01*
X54158Y-38072D02*
X54151Y-38004D01*
X54151Y-38004D02*
X54156Y-37937D01*
X54156Y-37937D02*
X54175Y-37872D01*
X54175Y-37872D02*
X54206Y-37811D01*
X54206Y-37811D02*
X54249Y-37757D01*
X54249Y-37757D02*
X54301Y-37713D01*
X54301Y-37713D02*
X54360Y-37680D01*
X54360Y-37680D02*
X54425Y-37659D01*
X54425Y-37659D02*
X54493Y-37651D01*
X54493Y-37651D02*
X54560Y-37656D01*
X54560Y-37656D02*
X54626Y-37674D01*
X54626Y-37674D02*
X54687Y-37705D01*
X54687Y-37705D02*
X54741Y-37747D01*
X54741Y-37747D02*
X54786Y-37799D01*
X54786Y-37799D02*
X54819Y-37858D01*
X54819Y-37858D02*
X54841Y-37923D01*
X54841Y-37923D02*
X54849Y-37991D01*
X54849Y-37991D02*
X54850Y-38000D01*
X53850Y-39000D02*
X53843Y-39067D01*
X53843Y-39067D02*
X53823Y-39133D01*
X53823Y-39133D02*
X53791Y-39193D01*
X53791Y-39193D02*
X53748Y-39246D01*
X53748Y-39246D02*
X53695Y-39290D01*
X53695Y-39290D02*
X53635Y-39322D01*
X53635Y-39322D02*
X53570Y-39342D01*
X53570Y-39342D02*
X53502Y-39349D01*
X53502Y-39349D02*
X53435Y-39343D01*
X53435Y-39343D02*
X53369Y-39324D01*
X53369Y-39324D02*
X53309Y-39292D01*
X53309Y-39292D02*
X53256Y-39250D01*
X53256Y-39250D02*
X53212Y-39197D01*
X53212Y-39197D02*
X53179Y-39137D01*
X53179Y-39137D02*
X53158Y-39072D01*
X53158Y-39072D02*
X53151Y-39004D01*
X53151Y-39004D02*
X53156Y-38937D01*
X53156Y-38937D02*
X53175Y-38872D01*
X53175Y-38872D02*
X53206Y-38811D01*
X53206Y-38811D02*
X53249Y-38757D01*
X53249Y-38757D02*
X53301Y-38713D01*
X53301Y-38713D02*
X53360Y-38680D01*
X53360Y-38680D02*
X53425Y-38659D01*
X53425Y-38659D02*
X53493Y-38651D01*
X53493Y-38651D02*
X53560Y-38656D01*
X53560Y-38656D02*
X53626Y-38674D01*
X53626Y-38674D02*
X53687Y-38705D01*
X53687Y-38705D02*
X53741Y-38747D01*
X53741Y-38747D02*
X53786Y-38799D01*
X53786Y-38799D02*
X53819Y-38858D01*
X53819Y-38858D02*
X53841Y-38923D01*
X53841Y-38923D02*
X53849Y-38991D01*
X53849Y-38991D02*
X53850Y-39000D01*
X54850Y-39000D02*
X54843Y-39067D01*
X54843Y-39067D02*
X54823Y-39133D01*
X54823Y-39133D02*
X54791Y-39193D01*
X54791Y-39193D02*
X54748Y-39246D01*
X54748Y-39246D02*
X54695Y-39290D01*
X54695Y-39290D02*
X54635Y-39322D01*
X54635Y-39322D02*
X54570Y-39342D01*
X54570Y-39342D02*
X54502Y-39349D01*
X54502Y-39349D02*
X54435Y-39343D01*
X54435Y-39343D02*
X54369Y-39324D01*
X54369Y-39324D02*
X54309Y-39292D01*
X54309Y-39292D02*
X54256Y-39250D01*
X54256Y-39250D02*
X54212Y-39197D01*
X54212Y-39197D02*
X54179Y-39137D01*
X54179Y-39137D02*
X54158Y-39072D01*
X54158Y-39072D02*
X54151Y-39004D01*
X54151Y-39004D02*
X54156Y-38937D01*
X54156Y-38937D02*
X54175Y-38872D01*
X54175Y-38872D02*
X54206Y-38811D01*
X54206Y-38811D02*
X54249Y-38757D01*
X54249Y-38757D02*
X54301Y-38713D01*
X54301Y-38713D02*
X54360Y-38680D01*
X54360Y-38680D02*
X54425Y-38659D01*
X54425Y-38659D02*
X54493Y-38651D01*
X54493Y-38651D02*
X54560Y-38656D01*
X54560Y-38656D02*
X54626Y-38674D01*
X54626Y-38674D02*
X54687Y-38705D01*
X54687Y-38705D02*
X54741Y-38747D01*
X54741Y-38747D02*
X54786Y-38799D01*
X54786Y-38799D02*
X54819Y-38858D01*
X54819Y-38858D02*
X54841Y-38923D01*
X54841Y-38923D02*
X54849Y-38991D01*
X54849Y-38991D02*
X54850Y-39000D01*
G54D26*
X35290Y-43700D02*
X35290Y-43300D01*
X35290Y-43300D02*
X35557Y-43300D01*
X35557Y-43300D02*
X35601Y-43345D01*
X35601Y-43345D02*
X35601Y-43478D01*
X35601Y-43478D02*
X35557Y-43523D01*
X35557Y-43523D02*
X35290Y-43523D01*
X35883Y-43700D02*
X36061Y-43700D01*
X35972Y-43700D02*
X35972Y-43300D01*
X35972Y-43345D02*
X35883Y-43434D01*
G54D23*
X32758Y-50950D02*
X32758Y-50550D01*
X32758Y-50550D02*
X33025Y-50550D01*
X33025Y-50550D02*
X33069Y-50595D01*
X33069Y-50595D02*
X33069Y-50684D01*
X33069Y-50684D02*
X33025Y-50728D01*
X33025Y-50728D02*
X32758Y-50728D01*
X33025Y-50728D02*
X33069Y-50817D01*
X33069Y-50817D02*
X33069Y-50906D01*
X33069Y-50906D02*
X33025Y-50950D01*
X33025Y-50950D02*
X32758Y-50950D01*
X33282Y-50950D02*
X33282Y-50550D01*
X33282Y-50550D02*
X33593Y-50950D01*
X33593Y-50950D02*
X33593Y-50550D01*
X34117Y-50906D02*
X34073Y-50950D01*
X34073Y-50950D02*
X33850Y-50950D01*
X33850Y-50950D02*
X33806Y-50906D01*
X33806Y-50906D02*
X33806Y-50595D01*
X33806Y-50595D02*
X33850Y-50550D01*
X33850Y-50550D02*
X34073Y-50550D01*
X34073Y-50550D02*
X34117Y-50595D01*
X33520Y-32550D02*
X33520Y-32906D01*
X33520Y-32906D02*
X33564Y-32950D01*
X33564Y-32950D02*
X33787Y-32950D01*
X33787Y-32950D02*
X33831Y-32906D01*
X33831Y-32906D02*
X33831Y-32550D01*
X34133Y-32950D02*
X34311Y-32950D01*
X34222Y-32950D02*
X34222Y-32550D01*
X34222Y-32595D02*
X34133Y-32684D01*
X40948Y-41050D02*
X41304Y-41050D01*
X41126Y-41050D02*
X41126Y-41450D01*
X41783Y-41450D02*
X41472Y-41450D01*
X41472Y-41450D02*
X41472Y-41050D01*
X41472Y-41050D02*
X41783Y-41050D01*
X41472Y-41228D02*
X41650Y-41228D01*
X42307Y-41450D02*
X41996Y-41450D01*
X41996Y-41450D02*
X41996Y-41050D01*
X41996Y-41050D02*
X42307Y-41050D01*
X41996Y-41228D02*
X42174Y-41228D01*
X42520Y-41450D02*
X42520Y-41050D01*
X42520Y-41050D02*
X42831Y-41450D01*
X42831Y-41450D02*
X42831Y-41050D01*
X43044Y-41406D02*
X43088Y-41450D01*
X43088Y-41450D02*
X43311Y-41450D01*
X43311Y-41450D02*
X43355Y-41406D01*
X43355Y-41406D02*
X43355Y-41273D01*
X43355Y-41273D02*
X43311Y-41228D01*
X43311Y-41228D02*
X43088Y-41228D01*
X43088Y-41228D02*
X43044Y-41184D01*
X43044Y-41184D02*
X43044Y-41095D01*
X43044Y-41095D02*
X43088Y-41050D01*
X43088Y-41050D02*
X43311Y-41050D01*
X43311Y-41050D02*
X43355Y-41095D01*
X43568Y-41050D02*
X43746Y-41273D01*
X43746Y-41273D02*
X43924Y-41050D01*
X43746Y-41273D02*
X43746Y-41450D01*
X44092Y-41450D02*
X44092Y-41050D01*
X44092Y-41050D02*
X44359Y-41050D01*
X44359Y-41050D02*
X44403Y-41095D01*
X44403Y-41095D02*
X44403Y-41228D01*
X44403Y-41228D02*
X44359Y-41273D01*
X44359Y-41273D02*
X44092Y-41273D01*
X44616Y-41450D02*
X44616Y-41050D01*
X44616Y-41050D02*
X44883Y-41050D01*
X44883Y-41050D02*
X44927Y-41095D01*
X44927Y-41095D02*
X44927Y-41228D01*
X44927Y-41228D02*
X44883Y-41273D01*
X44883Y-41273D02*
X44616Y-41273D01*
X29800Y-37742D02*
X30156Y-37742D01*
X30156Y-37742D02*
X30200Y-37698D01*
X30200Y-37698D02*
X30200Y-37475D01*
X30200Y-37475D02*
X30156Y-37431D01*
X30156Y-37431D02*
X29800Y-37431D01*
X30156Y-37218D02*
X30200Y-37174D01*
X30200Y-37174D02*
X30200Y-36951D01*
X30200Y-36951D02*
X30156Y-36907D01*
X30156Y-36907D02*
X30023Y-36907D01*
X30023Y-36907D02*
X29978Y-36951D01*
X29978Y-36951D02*
X29978Y-37174D01*
X29978Y-37174D02*
X29934Y-37218D01*
X29934Y-37218D02*
X29845Y-37218D01*
X29845Y-37218D02*
X29800Y-37174D01*
X29800Y-37174D02*
X29800Y-36951D01*
X29800Y-36951D02*
X29845Y-36907D01*
X30200Y-36694D02*
X29800Y-36694D01*
X29800Y-36694D02*
X29800Y-36427D01*
X29800Y-36427D02*
X29845Y-36383D01*
X29845Y-36383D02*
X29934Y-36383D01*
X29934Y-36383D02*
X29978Y-36427D01*
X29978Y-36427D02*
X29978Y-36694D01*
X29978Y-36427D02*
X30067Y-36383D01*
X30067Y-36383D02*
X30156Y-36383D01*
X30156Y-36383D02*
X30200Y-36427D01*
X30200Y-36427D02*
X30200Y-36694D01*
X46700Y-50980D02*
X46300Y-50980D01*
X46300Y-50980D02*
X46300Y-50713D01*
X46300Y-50713D02*
X46345Y-50669D01*
X46345Y-50669D02*
X46478Y-50669D01*
X46478Y-50669D02*
X46523Y-50713D01*
X46523Y-50713D02*
X46523Y-50980D01*
X46700Y-50145D02*
X46700Y-50456D01*
X46700Y-50456D02*
X46567Y-50456D01*
X46567Y-50456D02*
X46523Y-50412D01*
X46523Y-50412D02*
X46523Y-50189D01*
X46523Y-50189D02*
X46478Y-50145D01*
X46478Y-50145D02*
X46345Y-50145D01*
X46345Y-50145D02*
X46300Y-50189D01*
X46300Y-50189D02*
X46300Y-50412D01*
X46300Y-50412D02*
X46345Y-50456D01*
G54D26*
X47656Y-50929D02*
X47700Y-50973D01*
X47700Y-50973D02*
X47700Y-51196D01*
X47700Y-51196D02*
X47656Y-51240D01*
X47656Y-51240D02*
X47478Y-51240D01*
X47478Y-51240D02*
X47434Y-51196D01*
X47434Y-51196D02*
X47434Y-50973D01*
X47434Y-50973D02*
X47478Y-50929D01*
X47434Y-50736D02*
X47434Y-50469D01*
X47434Y-50469D02*
X47478Y-50425D01*
X47478Y-50425D02*
X47700Y-50425D01*
X47700Y-50425D02*
X47700Y-50692D01*
X47700Y-50692D02*
X47656Y-50736D01*
X47656Y-50736D02*
X47612Y-50736D01*
X47612Y-50736D02*
X47567Y-50692D01*
X47567Y-50692D02*
X47567Y-50425D01*
X47700Y-50232D02*
X47434Y-50232D01*
X47478Y-50232D02*
X47434Y-50188D01*
X47434Y-50188D02*
X47434Y-50099D01*
X47434Y-50099D02*
X47478Y-50054D01*
X47478Y-50054D02*
X47700Y-50054D01*
X47478Y-50054D02*
X47434Y-50010D01*
X47434Y-50010D02*
X47434Y-49921D01*
X47434Y-49921D02*
X47478Y-49876D01*
X47478Y-49876D02*
X47700Y-49876D01*
X47567Y-49728D02*
X47567Y-49417D01*
X47567Y-49417D02*
X47478Y-49417D01*
X47478Y-49417D02*
X47434Y-49461D01*
X47434Y-49461D02*
X47434Y-49684D01*
X47434Y-49684D02*
X47478Y-49728D01*
X47478Y-49728D02*
X47656Y-49728D01*
X47656Y-49728D02*
X47700Y-49684D01*
X47700Y-49684D02*
X47700Y-49461D01*
X47700Y-49461D02*
X47656Y-49417D01*
X47700Y-49224D02*
X47434Y-49224D01*
X47523Y-49224D02*
X47434Y-49135D01*
X47434Y-49135D02*
X47434Y-49002D01*
X47434Y-49002D02*
X47523Y-48913D01*
X47434Y-48720D02*
X47434Y-48453D01*
X47434Y-48453D02*
X47478Y-48409D01*
X47478Y-48409D02*
X47700Y-48409D01*
X47700Y-48409D02*
X47700Y-48676D01*
X47700Y-48676D02*
X47656Y-48720D01*
X47656Y-48720D02*
X47612Y-48720D01*
X47612Y-48720D02*
X47567Y-48676D01*
X47567Y-48676D02*
X47567Y-48409D01*
X47700Y-48216D02*
X47700Y-47905D01*
X47656Y-47445D02*
X47700Y-47490D01*
X47700Y-47490D02*
X47700Y-47623D01*
X47700Y-47623D02*
X47656Y-47668D01*
X47656Y-47668D02*
X47300Y-47668D01*
X47434Y-47668D02*
X47434Y-47534D01*
X47700Y-47208D02*
X47434Y-47208D01*
X47523Y-47208D02*
X47434Y-47119D01*
X47434Y-47119D02*
X47434Y-46986D01*
X47434Y-46986D02*
X47523Y-46897D01*
X47300Y-46571D02*
X47345Y-46571D01*
X47478Y-46571D02*
X47656Y-46571D01*
X47656Y-46571D02*
X47700Y-46526D01*
X47700Y-46526D02*
X47700Y-46482D01*
X47788Y-46200D02*
X47833Y-46156D01*
X47833Y-46156D02*
X47833Y-45933D01*
X47833Y-45933D02*
X47788Y-45889D01*
X47788Y-45889D02*
X47478Y-45889D01*
X47478Y-45889D02*
X47434Y-45933D01*
X47434Y-45933D02*
X47434Y-46156D01*
X47434Y-46156D02*
X47478Y-46200D01*
X47478Y-46200D02*
X47656Y-46200D01*
X47656Y-46200D02*
X47700Y-46156D01*
X47700Y-46156D02*
X47700Y-45933D01*
X47700Y-45933D02*
X47656Y-45889D01*
X47788Y-45696D02*
X47833Y-45652D01*
X47833Y-45652D02*
X47833Y-45429D01*
X47833Y-45429D02*
X47788Y-45385D01*
X47788Y-45385D02*
X47478Y-45385D01*
X47478Y-45385D02*
X47434Y-45429D01*
X47434Y-45429D02*
X47434Y-45652D01*
X47434Y-45652D02*
X47478Y-45696D01*
X47478Y-45696D02*
X47656Y-45696D01*
X47656Y-45696D02*
X47700Y-45652D01*
X47700Y-45652D02*
X47700Y-45429D01*
X47700Y-45429D02*
X47656Y-45385D01*
X47567Y-45192D02*
X47567Y-44881D01*
X47567Y-44881D02*
X47478Y-44881D01*
X47478Y-44881D02*
X47434Y-44925D01*
X47434Y-44925D02*
X47434Y-45148D01*
X47434Y-45148D02*
X47478Y-45192D01*
X47478Y-45192D02*
X47656Y-45192D01*
X47656Y-45192D02*
X47700Y-45148D01*
X47700Y-45148D02*
X47700Y-44925D01*
X47700Y-44925D02*
X47656Y-44881D01*
X47700Y-44688D02*
X47434Y-44688D01*
X47523Y-44688D02*
X47434Y-44599D01*
X47434Y-44599D02*
X47434Y-44466D01*
X47434Y-44466D02*
X47523Y-44377D01*
X47700Y-44184D02*
X47700Y-43873D01*
X47700Y-43680D02*
X47434Y-43369D01*
X47434Y-43680D02*
X47700Y-43369D01*
X47700Y-42954D02*
X47300Y-42954D01*
X47300Y-42954D02*
X47612Y-43176D01*
X47612Y-43176D02*
X47612Y-42865D01*
G54D23*
X45500Y-44907D02*
X45500Y-45218D01*
X45500Y-45218D02*
X45367Y-45218D01*
X45367Y-45218D02*
X45323Y-45174D01*
X45323Y-45174D02*
X45323Y-44951D01*
X45323Y-44951D02*
X45278Y-44907D01*
X45278Y-44907D02*
X45145Y-44907D01*
X45145Y-44907D02*
X45100Y-44951D01*
X45100Y-44951D02*
X45100Y-45174D01*
X45100Y-45174D02*
X45145Y-45218D01*
X45500Y-49391D02*
X45500Y-49213D01*
X45500Y-49302D02*
X45100Y-49302D01*
X45145Y-49302D02*
X45234Y-49391D01*
X45500Y-48956D02*
X45100Y-48645D01*
X45456Y-48956D02*
X45145Y-48956D01*
X45145Y-48956D02*
X45100Y-48912D01*
X45100Y-48912D02*
X45100Y-48689D01*
X45100Y-48689D02*
X45145Y-48645D01*
X45145Y-48645D02*
X45456Y-48645D01*
X45456Y-48645D02*
X45500Y-48689D01*
X45500Y-48689D02*
X45500Y-48912D01*
X45500Y-48912D02*
X45456Y-48956D01*
X42800Y-49174D02*
X42800Y-48951D01*
X42800Y-48951D02*
X42756Y-48907D01*
X42756Y-48907D02*
X42445Y-48907D01*
X42445Y-48907D02*
X42400Y-48951D01*
X42400Y-48951D02*
X42400Y-49174D01*
X42400Y-49174D02*
X42445Y-49218D01*
X42445Y-49218D02*
X42578Y-49218D01*
X42578Y-49218D02*
X42623Y-49174D01*
X42623Y-49174D02*
X42623Y-48951D01*
X42623Y-48951D02*
X42578Y-48907D01*
X56700Y-50980D02*
X56300Y-50980D01*
X56300Y-50980D02*
X56300Y-50713D01*
X56300Y-50713D02*
X56345Y-50669D01*
X56345Y-50669D02*
X56478Y-50669D01*
X56478Y-50669D02*
X56523Y-50713D01*
X56523Y-50713D02*
X56523Y-50980D01*
X56300Y-50456D02*
X56300Y-50145D01*
X56300Y-50145D02*
X56345Y-50145D01*
X56345Y-50145D02*
X56478Y-50323D01*
X56478Y-50323D02*
X56478Y-50189D01*
X56478Y-50189D02*
X56523Y-50145D01*
X56523Y-50145D02*
X56656Y-50145D01*
X56656Y-50145D02*
X56700Y-50189D01*
X56700Y-50189D02*
X56700Y-50412D01*
X56700Y-50412D02*
X56656Y-50456D01*
X57567Y-50910D02*
X57567Y-50599D01*
X57567Y-50599D02*
X57478Y-50599D01*
X57478Y-50599D02*
X57434Y-50643D01*
X57434Y-50643D02*
X57434Y-50866D01*
X57434Y-50866D02*
X57478Y-50910D01*
X57478Y-50910D02*
X57656Y-50910D01*
X57656Y-50910D02*
X57700Y-50866D01*
X57700Y-50866D02*
X57700Y-50643D01*
X57700Y-50643D02*
X57656Y-50599D01*
X57700Y-50386D02*
X57434Y-50075D01*
X57434Y-50386D02*
X57700Y-50075D01*
X57656Y-49595D02*
X57700Y-49640D01*
X57700Y-49640D02*
X57700Y-49773D01*
X57700Y-49773D02*
X57656Y-49818D01*
X57656Y-49818D02*
X57300Y-49818D01*
X57434Y-49818D02*
X57434Y-49684D01*
X57567Y-49338D02*
X57567Y-49027D01*
X57567Y-49027D02*
X57478Y-49027D01*
X57478Y-49027D02*
X57434Y-49071D01*
X57434Y-49071D02*
X57434Y-49294D01*
X57434Y-49294D02*
X57478Y-49338D01*
X57478Y-49338D02*
X57656Y-49338D01*
X57656Y-49338D02*
X57700Y-49294D01*
X57700Y-49294D02*
X57700Y-49071D01*
X57700Y-49071D02*
X57656Y-49027D01*
X57700Y-48814D02*
X57434Y-48814D01*
X57523Y-48814D02*
X57434Y-48725D01*
X57434Y-48725D02*
X57434Y-48592D01*
X57434Y-48592D02*
X57523Y-48503D01*
X57700Y-48290D02*
X57434Y-48290D01*
X57478Y-48290D02*
X57434Y-48246D01*
X57434Y-48246D02*
X57434Y-48068D01*
X57434Y-48068D02*
X57478Y-48023D01*
X57478Y-48023D02*
X57700Y-48023D01*
X57434Y-47766D02*
X57434Y-47499D01*
X57434Y-47499D02*
X57478Y-47455D01*
X57478Y-47455D02*
X57700Y-47455D01*
X57700Y-47455D02*
X57700Y-47722D01*
X57700Y-47722D02*
X57656Y-47766D01*
X57656Y-47766D02*
X57612Y-47766D01*
X57612Y-47766D02*
X57567Y-47722D01*
X57567Y-47722D02*
X57567Y-47455D01*
X57300Y-47153D02*
X57300Y-47109D01*
X57300Y-47109D02*
X57700Y-47109D01*
X57700Y-47153D02*
X57700Y-47064D01*
X57700Y-46718D02*
X57700Y-46407D01*
X57656Y-45927D02*
X57700Y-45972D01*
X57700Y-45972D02*
X57700Y-46105D01*
X57700Y-46105D02*
X57656Y-46150D01*
X57656Y-46150D02*
X57300Y-46150D01*
X57434Y-46150D02*
X57434Y-46016D01*
X57700Y-45670D02*
X57434Y-45670D01*
X57523Y-45670D02*
X57434Y-45581D01*
X57434Y-45581D02*
X57434Y-45448D01*
X57434Y-45448D02*
X57523Y-45359D01*
X57300Y-45013D02*
X57345Y-45013D01*
X57478Y-45013D02*
X57656Y-45013D01*
X57656Y-45013D02*
X57700Y-44968D01*
X57700Y-44968D02*
X57700Y-44924D01*
X57788Y-44622D02*
X57833Y-44578D01*
X57833Y-44578D02*
X57833Y-44355D01*
X57833Y-44355D02*
X57788Y-44311D01*
X57788Y-44311D02*
X57478Y-44311D01*
X57478Y-44311D02*
X57434Y-44355D01*
X57434Y-44355D02*
X57434Y-44578D01*
X57434Y-44578D02*
X57478Y-44622D01*
X57478Y-44622D02*
X57656Y-44622D01*
X57656Y-44622D02*
X57700Y-44578D01*
X57700Y-44578D02*
X57700Y-44355D01*
X57700Y-44355D02*
X57656Y-44311D01*
X57788Y-44098D02*
X57833Y-44054D01*
X57833Y-44054D02*
X57833Y-43831D01*
X57833Y-43831D02*
X57788Y-43787D01*
X57788Y-43787D02*
X57478Y-43787D01*
X57478Y-43787D02*
X57434Y-43831D01*
X57434Y-43831D02*
X57434Y-44054D01*
X57434Y-44054D02*
X57478Y-44098D01*
X57478Y-44098D02*
X57656Y-44098D01*
X57656Y-44098D02*
X57700Y-44054D01*
X57700Y-44054D02*
X57700Y-43831D01*
X57700Y-43831D02*
X57656Y-43787D01*
X57567Y-43574D02*
X57567Y-43263D01*
X57567Y-43263D02*
X57478Y-43263D01*
X57478Y-43263D02*
X57434Y-43307D01*
X57434Y-43307D02*
X57434Y-43530D01*
X57434Y-43530D02*
X57478Y-43574D01*
X57478Y-43574D02*
X57656Y-43574D01*
X57656Y-43574D02*
X57700Y-43530D01*
X57700Y-43530D02*
X57700Y-43307D01*
X57700Y-43307D02*
X57656Y-43263D01*
X57700Y-43050D02*
X57434Y-43050D01*
X57523Y-43050D02*
X57434Y-42961D01*
X57434Y-42961D02*
X57434Y-42828D01*
X57434Y-42828D02*
X57523Y-42739D01*
X57656Y-42526D02*
X57700Y-42482D01*
X57700Y-42482D02*
X57700Y-42259D01*
X57700Y-42259D02*
X57656Y-42215D01*
X57656Y-42215D02*
X57612Y-42215D01*
X57612Y-42215D02*
X57567Y-42259D01*
X57567Y-42259D02*
X57567Y-42482D01*
X57567Y-42482D02*
X57523Y-42526D01*
X57523Y-42526D02*
X57478Y-42526D01*
X57478Y-42526D02*
X57434Y-42482D01*
X57434Y-42482D02*
X57434Y-42259D01*
X57434Y-42259D02*
X57478Y-42215D01*
G54D22*
X55500Y-44917D02*
X55500Y-45228D01*
X55500Y-45228D02*
X55367Y-45228D01*
X55367Y-45228D02*
X55323Y-45184D01*
X55323Y-45184D02*
X55323Y-44961D01*
X55323Y-44961D02*
X55278Y-44917D01*
X55278Y-44917D02*
X55145Y-44917D01*
X55145Y-44917D02*
X55100Y-44961D01*
X55100Y-44961D02*
X55100Y-45184D01*
X55100Y-45184D02*
X55145Y-45228D01*
G54D23*
X55500Y-49391D02*
X55500Y-49213D01*
X55500Y-49302D02*
X55100Y-49302D01*
X55145Y-49302D02*
X55234Y-49391D01*
X55500Y-48956D02*
X55100Y-48645D01*
X55456Y-48956D02*
X55145Y-48956D01*
X55145Y-48956D02*
X55100Y-48912D01*
X55100Y-48912D02*
X55100Y-48689D01*
X55100Y-48689D02*
X55145Y-48645D01*
X55145Y-48645D02*
X55456Y-48645D01*
X55456Y-48645D02*
X55500Y-48689D01*
X55500Y-48689D02*
X55500Y-48912D01*
X55500Y-48912D02*
X55456Y-48956D01*
X52800Y-49174D02*
X52800Y-48951D01*
X52800Y-48951D02*
X52756Y-48907D01*
X52756Y-48907D02*
X52445Y-48907D01*
X52445Y-48907D02*
X52400Y-48951D01*
X52400Y-48951D02*
X52400Y-49174D01*
X52400Y-49174D02*
X52445Y-49218D01*
X52445Y-49218D02*
X52578Y-49218D01*
X52578Y-49218D02*
X52623Y-49174D01*
X52623Y-49174D02*
X52623Y-48951D01*
X52623Y-48951D02*
X52578Y-48907D01*
X56700Y-40980D02*
X56300Y-40980D01*
X56300Y-40980D02*
X56300Y-40713D01*
X56300Y-40713D02*
X56345Y-40669D01*
X56345Y-40669D02*
X56478Y-40669D01*
X56478Y-40669D02*
X56523Y-40713D01*
X56523Y-40713D02*
X56523Y-40980D01*
X56700Y-40234D02*
X56300Y-40234D01*
X56300Y-40234D02*
X56612Y-40456D01*
X56612Y-40456D02*
X56612Y-40145D01*
X57434Y-40362D02*
X57434Y-40095D01*
X57434Y-40095D02*
X57478Y-40051D01*
X57478Y-40051D02*
X57700Y-40051D01*
X57700Y-40051D02*
X57700Y-40318D01*
X57700Y-40318D02*
X57656Y-40362D01*
X57656Y-40362D02*
X57612Y-40362D01*
X57612Y-40362D02*
X57567Y-40318D01*
X57567Y-40318D02*
X57567Y-40051D01*
X57700Y-39838D02*
X57434Y-39838D01*
X57478Y-39838D02*
X57434Y-39794D01*
X57434Y-39794D02*
X57434Y-39616D01*
X57434Y-39616D02*
X57478Y-39571D01*
X57478Y-39571D02*
X57700Y-39571D01*
X57434Y-39314D02*
X57434Y-39047D01*
X57434Y-39047D02*
X57478Y-39003D01*
X57478Y-39003D02*
X57700Y-39003D01*
X57700Y-39003D02*
X57700Y-39270D01*
X57700Y-39270D02*
X57656Y-39314D01*
X57656Y-39314D02*
X57612Y-39314D01*
X57612Y-39314D02*
X57567Y-39270D01*
X57567Y-39270D02*
X57567Y-39003D01*
X57300Y-38701D02*
X57300Y-38657D01*
X57300Y-38657D02*
X57700Y-38657D01*
X57700Y-38701D02*
X57700Y-38612D01*
X57700Y-38222D02*
X57656Y-38266D01*
X57656Y-38266D02*
X57478Y-38266D01*
X57478Y-38266D02*
X57434Y-38222D01*
X57434Y-38222D02*
X57434Y-37999D01*
X57434Y-37999D02*
X57478Y-37955D01*
X57478Y-37955D02*
X57656Y-37955D01*
X57656Y-37955D02*
X57700Y-37999D01*
X57700Y-37999D02*
X57700Y-38222D01*
X57788Y-37742D02*
X57833Y-37698D01*
X57833Y-37698D02*
X57833Y-37475D01*
X57833Y-37475D02*
X57788Y-37431D01*
X57788Y-37431D02*
X57478Y-37431D01*
X57478Y-37431D02*
X57434Y-37475D01*
X57434Y-37475D02*
X57434Y-37698D01*
X57434Y-37698D02*
X57478Y-37742D01*
X57478Y-37742D02*
X57656Y-37742D01*
X57656Y-37742D02*
X57700Y-37698D01*
X57700Y-37698D02*
X57700Y-37475D01*
X57700Y-37475D02*
X57656Y-37431D01*
X57700Y-37218D02*
X57700Y-36907D01*
X57300Y-36561D02*
X57345Y-36561D01*
X57478Y-36561D02*
X57656Y-36561D01*
X57656Y-36561D02*
X57700Y-36516D01*
X57700Y-36516D02*
X57700Y-36472D01*
X57700Y-36170D02*
X57434Y-36170D01*
X57478Y-36170D02*
X57434Y-36126D01*
X57434Y-36126D02*
X57434Y-35948D01*
X57434Y-35948D02*
X57478Y-35903D01*
X57478Y-35903D02*
X57700Y-35903D01*
X57833Y-35646D02*
X57434Y-35646D01*
X57478Y-35646D02*
X57434Y-35602D01*
X57434Y-35602D02*
X57434Y-35379D01*
X57434Y-35379D02*
X57478Y-35335D01*
X57478Y-35335D02*
X57656Y-35335D01*
X57656Y-35335D02*
X57700Y-35379D01*
X57700Y-35379D02*
X57700Y-35602D01*
X57700Y-35602D02*
X57656Y-35646D01*
X57434Y-35122D02*
X57612Y-35122D01*
X57612Y-35122D02*
X57700Y-35033D01*
X57700Y-35033D02*
X57700Y-34900D01*
X57700Y-34900D02*
X57612Y-34811D01*
X57612Y-34811D02*
X57434Y-34811D01*
X57656Y-34331D02*
X57700Y-34376D01*
X57700Y-34376D02*
X57700Y-34509D01*
X57700Y-34509D02*
X57656Y-34554D01*
X57656Y-34554D02*
X57300Y-34554D01*
X57434Y-34554D02*
X57434Y-34420D01*
X57656Y-34074D02*
X57700Y-34030D01*
X57700Y-34030D02*
X57700Y-33807D01*
X57700Y-33807D02*
X57656Y-33763D01*
X57656Y-33763D02*
X57612Y-33763D01*
X57612Y-33763D02*
X57567Y-33807D01*
X57567Y-33807D02*
X57567Y-34030D01*
X57567Y-34030D02*
X57523Y-34074D01*
X57523Y-34074D02*
X57478Y-34074D01*
X57478Y-34074D02*
X57434Y-34030D01*
X57434Y-34030D02*
X57434Y-33807D01*
X57434Y-33807D02*
X57478Y-33763D01*
X55500Y-34907D02*
X55500Y-35218D01*
X55500Y-35218D02*
X55367Y-35218D01*
X55367Y-35218D02*
X55323Y-35174D01*
X55323Y-35174D02*
X55323Y-34951D01*
X55323Y-34951D02*
X55278Y-34907D01*
X55278Y-34907D02*
X55145Y-34907D01*
X55145Y-34907D02*
X55100Y-34951D01*
X55100Y-34951D02*
X55100Y-35174D01*
X55100Y-35174D02*
X55145Y-35218D01*
X55500Y-39391D02*
X55500Y-39213D01*
X55500Y-39302D02*
X55100Y-39302D01*
X55145Y-39302D02*
X55234Y-39391D01*
X55500Y-38956D02*
X55100Y-38645D01*
X55456Y-38956D02*
X55145Y-38956D01*
X55145Y-38956D02*
X55100Y-38912D01*
X55100Y-38912D02*
X55100Y-38689D01*
X55100Y-38689D02*
X55145Y-38645D01*
X55145Y-38645D02*
X55456Y-38645D01*
X55456Y-38645D02*
X55500Y-38689D01*
X55500Y-38689D02*
X55500Y-38912D01*
X55500Y-38912D02*
X55456Y-38956D01*
X52800Y-39174D02*
X52800Y-38951D01*
X52800Y-38951D02*
X52756Y-38907D01*
X52756Y-38907D02*
X52445Y-38907D01*
X52445Y-38907D02*
X52400Y-38951D01*
X52400Y-38951D02*
X52400Y-39174D01*
X52400Y-39174D02*
X52445Y-39218D01*
X52445Y-39218D02*
X52578Y-39218D01*
X52578Y-39218D02*
X52623Y-39174D01*
X52623Y-39174D02*
X52623Y-38951D01*
X52623Y-38951D02*
X52578Y-38907D01*
M02*
