G04 (created by PCBnew (20090216-final)) date Thu 28 Oct 2010 10:05:55 PM PDT*
G01*
G70*
G90*
%MOIN*%
G04 Gerber Fmt 3.4, Leading zero omitted, Abs format*
%FSLAX34Y34*%
G04 APERTURE LIST*
%ADD10C,0.009000*%
%ADD11C,0.120000*%
%ADD12R,0.065000X0.065000*%
%ADD13C,0.065000*%
%ADD14C,0.069000*%
%ADD15R,0.069000X0.069000*%
%ADD16C,0.130000*%
%ADD17R,0.070000X0.070000*%
%ADD18C,0.070000*%
%ADD19C,0.035000*%
%ADD20C,0.035000*%
%ADD21C,0.032000*%
%ADD22C,0.010000*%
%ADD23C,0.008000*%
%ADD24C,0.012000*%
%ADD25C,0.005000*%
%ADD26C,0.006000*%
%ADD27C,0.015000*%
%ADD28C,0.126000*%
%ADD29R,0.071000X0.071000*%
%ADD30C,0.071000*%
%ADD31C,0.075000*%
%ADD32R,0.075000X0.075000*%
%ADD33C,0.136000*%
%ADD34R,0.076000X0.076000*%
%ADD35C,0.076000*%
G04 APERTURE END LIST*
G54D10*
X59000Y-30750D02*
X29000Y-30750D01*
X59000Y-53250D02*
X59000Y-30750D01*
X29000Y-53250D02*
X59000Y-53250D01*
X29000Y-30750D02*
X29000Y-53250D01*
G54D23*
X52718Y-48800D02*
X52407Y-48800D01*
X52407Y-48800D02*
X52407Y-48845D01*
X52407Y-48845D02*
X52585Y-48978D01*
X52585Y-48978D02*
X52451Y-48978D01*
X52451Y-48978D02*
X52407Y-49023D01*
X52407Y-49023D02*
X52407Y-49156D01*
X52407Y-49156D02*
X52451Y-49200D01*
X52451Y-49200D02*
X52674Y-49200D01*
X52674Y-49200D02*
X52718Y-49156D01*
X52407Y-48200D02*
X52718Y-48200D01*
X52718Y-48200D02*
X52718Y-48067D01*
X52718Y-48067D02*
X52674Y-48023D01*
X52674Y-48023D02*
X52451Y-48023D01*
X52451Y-48023D02*
X52407Y-47978D01*
X52407Y-47978D02*
X52407Y-47845D01*
X52407Y-47845D02*
X52451Y-47800D01*
X52451Y-47800D02*
X52674Y-47800D01*
X52674Y-47800D02*
X52718Y-47845D01*
G54D24*
X52693Y-47300D02*
X52427Y-47300D01*
X52560Y-47300D02*
X52560Y-46700D01*
X52560Y-46767D02*
X52693Y-46900D01*
G54D23*
X52718Y-46200D02*
X52407Y-45800D01*
X52718Y-46156D02*
X52718Y-45845D01*
X52718Y-45845D02*
X52674Y-45800D01*
X52674Y-45800D02*
X52451Y-45800D01*
X52451Y-45800D02*
X52407Y-45845D01*
X52407Y-45845D02*
X52407Y-46156D01*
X52407Y-46156D02*
X52451Y-46200D01*
X52451Y-46200D02*
X52674Y-46200D01*
X52674Y-46200D02*
X52718Y-46156D01*
X46656Y-42901D02*
X46700Y-42857D01*
X46700Y-42857D02*
X46700Y-42634D01*
X46700Y-42634D02*
X46656Y-42590D01*
X46656Y-42590D02*
X46478Y-42590D01*
X46478Y-42590D02*
X46434Y-42634D01*
X46434Y-42634D02*
X46434Y-42857D01*
X46434Y-42857D02*
X46478Y-42901D01*
X46434Y-43114D02*
X46434Y-43381D01*
X46434Y-43381D02*
X46478Y-43425D01*
X46478Y-43425D02*
X46700Y-43425D01*
X46700Y-43425D02*
X46700Y-43158D01*
X46700Y-43158D02*
X46656Y-43114D01*
X46656Y-43114D02*
X46612Y-43114D01*
X46612Y-43114D02*
X46567Y-43158D01*
X46567Y-43158D02*
X46567Y-43425D01*
X46700Y-43638D02*
X46434Y-43638D01*
X46478Y-43638D02*
X46434Y-43682D01*
X46434Y-43682D02*
X46434Y-43771D01*
X46434Y-43771D02*
X46478Y-43816D01*
X46478Y-43816D02*
X46700Y-43816D01*
X46478Y-43816D02*
X46434Y-43860D01*
X46434Y-43860D02*
X46434Y-43949D01*
X46434Y-43949D02*
X46478Y-43994D01*
X46478Y-43994D02*
X46700Y-43994D01*
X46567Y-44162D02*
X46567Y-44473D01*
X46567Y-44473D02*
X46478Y-44473D01*
X46478Y-44473D02*
X46434Y-44429D01*
X46434Y-44429D02*
X46434Y-44206D01*
X46434Y-44206D02*
X46478Y-44162D01*
X46478Y-44162D02*
X46656Y-44162D01*
X46656Y-44162D02*
X46700Y-44206D01*
X46700Y-44206D02*
X46700Y-44429D01*
X46700Y-44429D02*
X46656Y-44473D01*
X46700Y-44686D02*
X46434Y-44686D01*
X46523Y-44686D02*
X46434Y-44775D01*
X46434Y-44775D02*
X46434Y-44908D01*
X46434Y-44908D02*
X46523Y-44997D01*
X46434Y-45210D02*
X46434Y-45477D01*
X46434Y-45477D02*
X46478Y-45521D01*
X46478Y-45521D02*
X46700Y-45521D01*
X46700Y-45521D02*
X46700Y-45254D01*
X46700Y-45254D02*
X46656Y-45210D01*
X46656Y-45210D02*
X46612Y-45210D01*
X46612Y-45210D02*
X46567Y-45254D01*
X46567Y-45254D02*
X46567Y-45521D01*
X46700Y-45734D02*
X46700Y-46045D01*
X46656Y-46525D02*
X46700Y-46480D01*
X46700Y-46480D02*
X46700Y-46347D01*
X46700Y-46347D02*
X46656Y-46302D01*
X46656Y-46302D02*
X46300Y-46302D01*
X46434Y-46302D02*
X46434Y-46436D01*
X46700Y-46782D02*
X46434Y-46782D01*
X46523Y-46782D02*
X46434Y-46871D01*
X46434Y-46871D02*
X46434Y-47004D01*
X46434Y-47004D02*
X46523Y-47093D01*
X46300Y-47439D02*
X46345Y-47439D01*
X46478Y-47439D02*
X46656Y-47439D01*
X46656Y-47439D02*
X46700Y-47484D01*
X46700Y-47484D02*
X46700Y-47528D01*
X46788Y-47830D02*
X46833Y-47874D01*
X46833Y-47874D02*
X46833Y-48097D01*
X46833Y-48097D02*
X46788Y-48141D01*
X46788Y-48141D02*
X46478Y-48141D01*
X46478Y-48141D02*
X46434Y-48097D01*
X46434Y-48097D02*
X46434Y-47874D01*
X46434Y-47874D02*
X46478Y-47830D01*
X46478Y-47830D02*
X46656Y-47830D01*
X46656Y-47830D02*
X46700Y-47874D01*
X46700Y-47874D02*
X46700Y-48097D01*
X46700Y-48097D02*
X46656Y-48141D01*
X46788Y-48354D02*
X46833Y-48398D01*
X46833Y-48398D02*
X46833Y-48621D01*
X46833Y-48621D02*
X46788Y-48665D01*
X46788Y-48665D02*
X46478Y-48665D01*
X46478Y-48665D02*
X46434Y-48621D01*
X46434Y-48621D02*
X46434Y-48398D01*
X46434Y-48398D02*
X46478Y-48354D01*
X46478Y-48354D02*
X46656Y-48354D01*
X46656Y-48354D02*
X46700Y-48398D01*
X46700Y-48398D02*
X46700Y-48621D01*
X46700Y-48621D02*
X46656Y-48665D01*
X46567Y-48878D02*
X46567Y-49189D01*
X46567Y-49189D02*
X46478Y-49189D01*
X46478Y-49189D02*
X46434Y-49145D01*
X46434Y-49145D02*
X46434Y-48922D01*
X46434Y-48922D02*
X46478Y-48878D01*
X46478Y-48878D02*
X46656Y-48878D01*
X46656Y-48878D02*
X46700Y-48922D01*
X46700Y-48922D02*
X46700Y-49145D01*
X46700Y-49145D02*
X46656Y-49189D01*
X46700Y-49402D02*
X46434Y-49402D01*
X46523Y-49402D02*
X46434Y-49491D01*
X46434Y-49491D02*
X46434Y-49624D01*
X46434Y-49624D02*
X46523Y-49713D01*
X46700Y-49926D02*
X46700Y-50237D01*
X46700Y-50450D02*
X46434Y-50761D01*
X46434Y-50450D02*
X46700Y-50761D01*
X46700Y-51196D02*
X46300Y-51196D01*
X46300Y-51196D02*
X46612Y-50974D01*
X46612Y-50974D02*
X46612Y-51285D01*
X56567Y-43900D02*
X56567Y-44211D01*
X56567Y-44211D02*
X56478Y-44211D01*
X56478Y-44211D02*
X56434Y-44167D01*
X56434Y-44167D02*
X56434Y-43944D01*
X56434Y-43944D02*
X56478Y-43900D01*
X56478Y-43900D02*
X56656Y-43900D01*
X56656Y-43900D02*
X56700Y-43944D01*
X56700Y-43944D02*
X56700Y-44167D01*
X56700Y-44167D02*
X56656Y-44211D01*
X56700Y-44424D02*
X56434Y-44735D01*
X56434Y-44424D02*
X56700Y-44735D01*
X56656Y-45215D02*
X56700Y-45170D01*
X56700Y-45170D02*
X56700Y-45037D01*
X56700Y-45037D02*
X56656Y-44992D01*
X56656Y-44992D02*
X56300Y-44992D01*
X56434Y-44992D02*
X56434Y-45126D01*
X56700Y-45472D02*
X56700Y-45783D01*
X56656Y-46263D02*
X56700Y-46218D01*
X56700Y-46218D02*
X56700Y-46085D01*
X56700Y-46085D02*
X56656Y-46040D01*
X56656Y-46040D02*
X56300Y-46040D01*
X56434Y-46040D02*
X56434Y-46174D01*
X56700Y-46520D02*
X56434Y-46520D01*
X56523Y-46520D02*
X56434Y-46609D01*
X56434Y-46609D02*
X56434Y-46742D01*
X56434Y-46742D02*
X56523Y-46831D01*
X56300Y-47177D02*
X56345Y-47177D01*
X56478Y-47177D02*
X56656Y-47177D01*
X56656Y-47177D02*
X56700Y-47222D01*
X56700Y-47222D02*
X56700Y-47266D01*
X56788Y-47568D02*
X56833Y-47612D01*
X56833Y-47612D02*
X56833Y-47835D01*
X56833Y-47835D02*
X56788Y-47879D01*
X56788Y-47879D02*
X56478Y-47879D01*
X56478Y-47879D02*
X56434Y-47835D01*
X56434Y-47835D02*
X56434Y-47612D01*
X56434Y-47612D02*
X56478Y-47568D01*
X56478Y-47568D02*
X56656Y-47568D01*
X56656Y-47568D02*
X56700Y-47612D01*
X56700Y-47612D02*
X56700Y-47835D01*
X56700Y-47835D02*
X56656Y-47879D01*
X56788Y-48092D02*
X56833Y-48136D01*
X56833Y-48136D02*
X56833Y-48359D01*
X56833Y-48359D02*
X56788Y-48403D01*
X56788Y-48403D02*
X56478Y-48403D01*
X56478Y-48403D02*
X56434Y-48359D01*
X56434Y-48359D02*
X56434Y-48136D01*
X56434Y-48136D02*
X56478Y-48092D01*
X56478Y-48092D02*
X56656Y-48092D01*
X56656Y-48092D02*
X56700Y-48136D01*
X56700Y-48136D02*
X56700Y-48359D01*
X56700Y-48359D02*
X56656Y-48403D01*
X56567Y-48616D02*
X56567Y-48927D01*
X56567Y-48927D02*
X56478Y-48927D01*
X56478Y-48927D02*
X56434Y-48883D01*
X56434Y-48883D02*
X56434Y-48660D01*
X56434Y-48660D02*
X56478Y-48616D01*
X56478Y-48616D02*
X56656Y-48616D01*
X56656Y-48616D02*
X56700Y-48660D01*
X56700Y-48660D02*
X56700Y-48883D01*
X56700Y-48883D02*
X56656Y-48927D01*
X56700Y-49140D02*
X56434Y-49140D01*
X56523Y-49140D02*
X56434Y-49229D01*
X56434Y-49229D02*
X56434Y-49362D01*
X56434Y-49362D02*
X56523Y-49451D01*
X56656Y-49664D02*
X56700Y-49708D01*
X56700Y-49708D02*
X56700Y-49931D01*
X56700Y-49931D02*
X56656Y-49975D01*
X56656Y-49975D02*
X56612Y-49975D01*
X56612Y-49975D02*
X56567Y-49931D01*
X56567Y-49931D02*
X56567Y-49708D01*
X56567Y-49708D02*
X56523Y-49664D01*
X56523Y-49664D02*
X56478Y-49664D01*
X56478Y-49664D02*
X56434Y-49708D01*
X56434Y-49708D02*
X56434Y-49931D01*
X56434Y-49931D02*
X56478Y-49975D01*
X56434Y-33900D02*
X56434Y-34167D01*
X56434Y-34167D02*
X56478Y-34211D01*
X56478Y-34211D02*
X56700Y-34211D01*
X56700Y-34211D02*
X56700Y-33944D01*
X56700Y-33944D02*
X56656Y-33900D01*
X56656Y-33900D02*
X56612Y-33900D01*
X56612Y-33900D02*
X56567Y-33944D01*
X56567Y-33944D02*
X56567Y-34211D01*
X56700Y-34424D02*
X56434Y-34424D01*
X56478Y-34424D02*
X56434Y-34468D01*
X56434Y-34468D02*
X56434Y-34646D01*
X56434Y-34646D02*
X56478Y-34691D01*
X56478Y-34691D02*
X56700Y-34691D01*
X56434Y-34948D02*
X56434Y-35215D01*
X56434Y-35215D02*
X56478Y-35259D01*
X56478Y-35259D02*
X56700Y-35259D01*
X56700Y-35259D02*
X56700Y-34992D01*
X56700Y-34992D02*
X56656Y-34948D01*
X56656Y-34948D02*
X56612Y-34948D01*
X56612Y-34948D02*
X56567Y-34992D01*
X56567Y-34992D02*
X56567Y-35259D01*
X56300Y-35561D02*
X56300Y-35605D01*
X56300Y-35605D02*
X56700Y-35605D01*
X56700Y-35561D02*
X56700Y-35650D01*
X56700Y-36040D02*
X56656Y-35996D01*
X56656Y-35996D02*
X56478Y-35996D01*
X56478Y-35996D02*
X56434Y-36040D01*
X56434Y-36040D02*
X56434Y-36263D01*
X56434Y-36263D02*
X56478Y-36307D01*
X56478Y-36307D02*
X56656Y-36307D01*
X56656Y-36307D02*
X56700Y-36263D01*
X56700Y-36263D02*
X56700Y-36040D01*
X56788Y-36520D02*
X56833Y-36564D01*
X56833Y-36564D02*
X56833Y-36787D01*
X56833Y-36787D02*
X56788Y-36831D01*
X56788Y-36831D02*
X56478Y-36831D01*
X56478Y-36831D02*
X56434Y-36787D01*
X56434Y-36787D02*
X56434Y-36564D01*
X56434Y-36564D02*
X56478Y-36520D01*
X56478Y-36520D02*
X56656Y-36520D01*
X56656Y-36520D02*
X56700Y-36564D01*
X56700Y-36564D02*
X56700Y-36787D01*
X56700Y-36787D02*
X56656Y-36831D01*
X56700Y-37044D02*
X56700Y-37355D01*
X56300Y-37701D02*
X56345Y-37701D01*
X56478Y-37701D02*
X56656Y-37701D01*
X56656Y-37701D02*
X56700Y-37746D01*
X56700Y-37746D02*
X56700Y-37790D01*
X56700Y-38092D02*
X56434Y-38092D01*
X56478Y-38092D02*
X56434Y-38136D01*
X56434Y-38136D02*
X56434Y-38314D01*
X56434Y-38314D02*
X56478Y-38359D01*
X56478Y-38359D02*
X56700Y-38359D01*
X56833Y-38616D02*
X56434Y-38616D01*
X56478Y-38616D02*
X56434Y-38660D01*
X56434Y-38660D02*
X56434Y-38883D01*
X56434Y-38883D02*
X56478Y-38927D01*
X56478Y-38927D02*
X56656Y-38927D01*
X56656Y-38927D02*
X56700Y-38883D01*
X56700Y-38883D02*
X56700Y-38660D01*
X56700Y-38660D02*
X56656Y-38616D01*
X56434Y-39140D02*
X56612Y-39140D01*
X56612Y-39140D02*
X56700Y-39229D01*
X56700Y-39229D02*
X56700Y-39362D01*
X56700Y-39362D02*
X56612Y-39451D01*
X56612Y-39451D02*
X56434Y-39451D01*
X56656Y-39931D02*
X56700Y-39886D01*
X56700Y-39886D02*
X56700Y-39753D01*
X56700Y-39753D02*
X56656Y-39708D01*
X56656Y-39708D02*
X56300Y-39708D01*
X56434Y-39708D02*
X56434Y-39842D01*
X52718Y-38800D02*
X52407Y-38800D01*
X52407Y-38800D02*
X52407Y-38845D01*
X52407Y-38845D02*
X52585Y-38978D01*
X52585Y-38978D02*
X52451Y-38978D01*
X52451Y-38978D02*
X52407Y-39023D01*
X52407Y-39023D02*
X52407Y-39156D01*
X52407Y-39156D02*
X52451Y-39200D01*
X52451Y-39200D02*
X52674Y-39200D01*
X52674Y-39200D02*
X52718Y-39156D01*
X52407Y-38200D02*
X52718Y-38200D01*
X52718Y-38200D02*
X52718Y-38067D01*
X52718Y-38067D02*
X52674Y-38023D01*
X52674Y-38023D02*
X52451Y-38023D01*
X52451Y-38023D02*
X52407Y-37978D01*
X52407Y-37978D02*
X52407Y-37845D01*
X52407Y-37845D02*
X52451Y-37800D01*
X52451Y-37800D02*
X52674Y-37800D01*
X52674Y-37800D02*
X52718Y-37845D01*
X52629Y-37200D02*
X52451Y-37200D01*
X52540Y-37200D02*
X52540Y-36800D01*
X52540Y-36845D02*
X52629Y-36934D01*
X52718Y-36200D02*
X52407Y-35800D01*
X52718Y-36156D02*
X52718Y-35845D01*
X52718Y-35845D02*
X52674Y-35800D01*
X52674Y-35800D02*
X52451Y-35800D01*
X52451Y-35800D02*
X52407Y-35845D01*
X52407Y-35845D02*
X52407Y-36156D01*
X52407Y-36156D02*
X52451Y-36200D01*
X52451Y-36200D02*
X52674Y-36200D01*
X52674Y-36200D02*
X52718Y-36156D01*
X42718Y-48800D02*
X42407Y-48800D01*
X42407Y-48800D02*
X42407Y-48845D01*
X42407Y-48845D02*
X42585Y-48978D01*
X42585Y-48978D02*
X42451Y-48978D01*
X42451Y-48978D02*
X42407Y-49023D01*
X42407Y-49023D02*
X42407Y-49156D01*
X42407Y-49156D02*
X42451Y-49200D01*
X42451Y-49200D02*
X42674Y-49200D01*
X42674Y-49200D02*
X42718Y-49156D01*
X42407Y-48200D02*
X42718Y-48200D01*
X42718Y-48200D02*
X42718Y-48067D01*
X42718Y-48067D02*
X42674Y-48023D01*
X42674Y-48023D02*
X42451Y-48023D01*
X42451Y-48023D02*
X42407Y-47978D01*
X42407Y-47978D02*
X42407Y-47845D01*
X42407Y-47845D02*
X42451Y-47800D01*
X42451Y-47800D02*
X42674Y-47800D01*
X42674Y-47800D02*
X42718Y-47845D01*
X42629Y-47200D02*
X42451Y-47200D01*
X42540Y-47200D02*
X42540Y-46800D01*
X42540Y-46845D02*
X42629Y-46934D01*
X42718Y-46200D02*
X42407Y-45800D01*
X42718Y-46156D02*
X42718Y-45845D01*
X42718Y-45845D02*
X42674Y-45800D01*
X42674Y-45800D02*
X42451Y-45800D01*
X42451Y-45800D02*
X42407Y-45845D01*
X42407Y-45845D02*
X42407Y-46156D01*
X42407Y-46156D02*
X42451Y-46200D01*
X42451Y-46200D02*
X42674Y-46200D01*
X42674Y-46200D02*
X42718Y-46156D01*
X52742Y-35023D02*
X52475Y-35023D01*
X52609Y-35156D02*
X52609Y-34889D01*
X52218Y-35112D02*
X52218Y-35156D01*
X52218Y-35156D02*
X52174Y-35200D01*
X52174Y-35200D02*
X51951Y-35200D01*
X51951Y-35200D02*
X51907Y-35156D01*
X51907Y-35156D02*
X51907Y-35023D01*
X51907Y-35023D02*
X51996Y-34934D01*
X51996Y-34934D02*
X52218Y-34934D01*
X52218Y-34934D02*
X52218Y-34800D01*
X52218Y-34800D02*
X51907Y-34800D01*
X51694Y-34800D02*
X51516Y-35200D01*
X51516Y-35200D02*
X51338Y-34800D01*
X42742Y-45023D02*
X42475Y-45023D01*
X42609Y-45156D02*
X42609Y-44889D01*
X42218Y-45112D02*
X42218Y-45156D01*
X42218Y-45156D02*
X42174Y-45200D01*
X42174Y-45200D02*
X41951Y-45200D01*
X41951Y-45200D02*
X41907Y-45156D01*
X41907Y-45156D02*
X41907Y-45023D01*
X41907Y-45023D02*
X41996Y-44934D01*
X41996Y-44934D02*
X42218Y-44934D01*
X42218Y-44934D02*
X42218Y-44800D01*
X42218Y-44800D02*
X41907Y-44800D01*
X41694Y-44800D02*
X41516Y-45200D01*
X41516Y-45200D02*
X41338Y-44800D01*
X52742Y-45023D02*
X52475Y-45023D01*
X52609Y-45156D02*
X52609Y-44889D01*
X52218Y-45112D02*
X52218Y-45156D01*
X52218Y-45156D02*
X52174Y-45200D01*
X52174Y-45200D02*
X51951Y-45200D01*
X51951Y-45200D02*
X51907Y-45156D01*
X51907Y-45156D02*
X51907Y-45023D01*
X51907Y-45023D02*
X51996Y-44934D01*
X51996Y-44934D02*
X52218Y-44934D01*
X52218Y-44934D02*
X52218Y-44800D01*
X52218Y-44800D02*
X51907Y-44800D01*
X51694Y-44800D02*
X51516Y-45200D01*
X51516Y-45200D02*
X51338Y-44800D01*
X45345Y-46525D02*
X45300Y-46525D01*
X45300Y-46525D02*
X45300Y-46302D01*
X45300Y-46302D02*
X45345Y-46258D01*
X45345Y-46258D02*
X45656Y-46258D01*
X45656Y-46258D02*
X45700Y-46302D01*
X45700Y-46302D02*
X45700Y-46525D01*
X45700Y-46525D02*
X45656Y-46569D01*
X45656Y-46569D02*
X45523Y-46569D01*
X45523Y-46569D02*
X45523Y-46436D01*
X45700Y-46782D02*
X45300Y-46782D01*
X45300Y-46782D02*
X45700Y-47093D01*
X45700Y-47093D02*
X45300Y-47093D01*
X45700Y-47350D02*
X45300Y-47350D01*
X45300Y-47306D02*
X45300Y-47573D01*
X45300Y-47573D02*
X45345Y-47617D01*
X45345Y-47617D02*
X45656Y-47617D01*
X45656Y-47617D02*
X45700Y-47573D01*
X45700Y-47573D02*
X45700Y-47306D01*
X55345Y-46525D02*
X55300Y-46525D01*
X55300Y-46525D02*
X55300Y-46302D01*
X55300Y-46302D02*
X55345Y-46258D01*
X55345Y-46258D02*
X55656Y-46258D01*
X55656Y-46258D02*
X55700Y-46302D01*
X55700Y-46302D02*
X55700Y-46525D01*
X55700Y-46525D02*
X55656Y-46569D01*
X55656Y-46569D02*
X55523Y-46569D01*
X55523Y-46569D02*
X55523Y-46436D01*
X55700Y-46782D02*
X55300Y-46782D01*
X55300Y-46782D02*
X55700Y-47093D01*
X55700Y-47093D02*
X55300Y-47093D01*
X55700Y-47350D02*
X55300Y-47350D01*
X55300Y-47306D02*
X55300Y-47573D01*
X55300Y-47573D02*
X55345Y-47617D01*
X55345Y-47617D02*
X55656Y-47617D01*
X55656Y-47617D02*
X55700Y-47573D01*
X55700Y-47573D02*
X55700Y-47306D01*
X55345Y-36525D02*
X55300Y-36525D01*
X55300Y-36525D02*
X55300Y-36302D01*
X55300Y-36302D02*
X55345Y-36258D01*
X55345Y-36258D02*
X55656Y-36258D01*
X55656Y-36258D02*
X55700Y-36302D01*
X55700Y-36302D02*
X55700Y-36525D01*
X55700Y-36525D02*
X55656Y-36569D01*
X55656Y-36569D02*
X55523Y-36569D01*
X55523Y-36569D02*
X55523Y-36436D01*
X55700Y-36782D02*
X55300Y-36782D01*
X55300Y-36782D02*
X55700Y-37093D01*
X55700Y-37093D02*
X55300Y-37093D01*
X55700Y-37350D02*
X55300Y-37350D01*
X55300Y-37306D02*
X55300Y-37573D01*
X55300Y-37573D02*
X55345Y-37617D01*
X55345Y-37617D02*
X55656Y-37617D01*
X55656Y-37617D02*
X55700Y-37573D01*
X55700Y-37573D02*
X55700Y-37306D01*
G54D25*
X30900Y-32000D02*
X30887Y-32126D01*
X30887Y-32126D02*
X30850Y-32247D01*
X30850Y-32247D02*
X30791Y-32359D01*
X30791Y-32359D02*
X30711Y-32458D01*
X30711Y-32458D02*
X30613Y-32538D01*
X30613Y-32538D02*
X30501Y-32599D01*
X30501Y-32599D02*
X30380Y-32636D01*
X30380Y-32636D02*
X30254Y-32649D01*
X30254Y-32649D02*
X30129Y-32638D01*
X30129Y-32638D02*
X30007Y-32602D01*
X30007Y-32602D02*
X29895Y-32543D01*
X29895Y-32543D02*
X29796Y-32464D01*
X29796Y-32464D02*
X29714Y-32367D01*
X29714Y-32367D02*
X29653Y-32256D01*
X29653Y-32256D02*
X29615Y-32135D01*
X29615Y-32135D02*
X29601Y-32009D01*
X29601Y-32009D02*
X29611Y-31883D01*
X29611Y-31883D02*
X29646Y-31761D01*
X29646Y-31761D02*
X29704Y-31648D01*
X29704Y-31648D02*
X29783Y-31549D01*
X29783Y-31549D02*
X29880Y-31467D01*
X29880Y-31467D02*
X29990Y-31405D01*
X29990Y-31405D02*
X30111Y-31366D01*
X30111Y-31366D02*
X30237Y-31351D01*
X30237Y-31351D02*
X30362Y-31360D01*
X30362Y-31360D02*
X30485Y-31394D01*
X30485Y-31394D02*
X30598Y-31452D01*
X30598Y-31452D02*
X30698Y-31530D01*
X30698Y-31530D02*
X30781Y-31626D01*
X30781Y-31626D02*
X30843Y-31736D01*
X30843Y-31736D02*
X30883Y-31856D01*
X30883Y-31856D02*
X30899Y-31982D01*
X30899Y-31982D02*
X30900Y-32000D01*
X30900Y-52000D02*
X30887Y-52126D01*
X30887Y-52126D02*
X30850Y-52247D01*
X30850Y-52247D02*
X30791Y-52359D01*
X30791Y-52359D02*
X30711Y-52458D01*
X30711Y-52458D02*
X30613Y-52538D01*
X30613Y-52538D02*
X30501Y-52599D01*
X30501Y-52599D02*
X30380Y-52636D01*
X30380Y-52636D02*
X30254Y-52649D01*
X30254Y-52649D02*
X30129Y-52638D01*
X30129Y-52638D02*
X30007Y-52602D01*
X30007Y-52602D02*
X29895Y-52543D01*
X29895Y-52543D02*
X29796Y-52464D01*
X29796Y-52464D02*
X29714Y-52367D01*
X29714Y-52367D02*
X29653Y-52256D01*
X29653Y-52256D02*
X29615Y-52135D01*
X29615Y-52135D02*
X29601Y-52009D01*
X29601Y-52009D02*
X29611Y-51883D01*
X29611Y-51883D02*
X29646Y-51761D01*
X29646Y-51761D02*
X29704Y-51648D01*
X29704Y-51648D02*
X29783Y-51549D01*
X29783Y-51549D02*
X29880Y-51467D01*
X29880Y-51467D02*
X29990Y-51405D01*
X29990Y-51405D02*
X30111Y-51366D01*
X30111Y-51366D02*
X30237Y-51351D01*
X30237Y-51351D02*
X30362Y-51360D01*
X30362Y-51360D02*
X30485Y-51394D01*
X30485Y-51394D02*
X30598Y-51452D01*
X30598Y-51452D02*
X30698Y-51530D01*
X30698Y-51530D02*
X30781Y-51626D01*
X30781Y-51626D02*
X30843Y-51736D01*
X30843Y-51736D02*
X30883Y-51856D01*
X30883Y-51856D02*
X30899Y-51982D01*
X30899Y-51982D02*
X30900Y-52000D01*
X39650Y-52000D02*
X39637Y-52126D01*
X39637Y-52126D02*
X39600Y-52247D01*
X39600Y-52247D02*
X39541Y-52359D01*
X39541Y-52359D02*
X39461Y-52458D01*
X39461Y-52458D02*
X39363Y-52538D01*
X39363Y-52538D02*
X39251Y-52599D01*
X39251Y-52599D02*
X39130Y-52636D01*
X39130Y-52636D02*
X39004Y-52649D01*
X39004Y-52649D02*
X38879Y-52638D01*
X38879Y-52638D02*
X38757Y-52602D01*
X38757Y-52602D02*
X38645Y-52543D01*
X38645Y-52543D02*
X38546Y-52464D01*
X38546Y-52464D02*
X38464Y-52367D01*
X38464Y-52367D02*
X38403Y-52256D01*
X38403Y-52256D02*
X38365Y-52135D01*
X38365Y-52135D02*
X38351Y-52009D01*
X38351Y-52009D02*
X38361Y-51883D01*
X38361Y-51883D02*
X38396Y-51761D01*
X38396Y-51761D02*
X38454Y-51648D01*
X38454Y-51648D02*
X38533Y-51549D01*
X38533Y-51549D02*
X38630Y-51467D01*
X38630Y-51467D02*
X38740Y-51405D01*
X38740Y-51405D02*
X38861Y-51366D01*
X38861Y-51366D02*
X38987Y-51351D01*
X38987Y-51351D02*
X39112Y-51360D01*
X39112Y-51360D02*
X39235Y-51394D01*
X39235Y-51394D02*
X39348Y-51452D01*
X39348Y-51452D02*
X39448Y-51530D01*
X39448Y-51530D02*
X39531Y-51626D01*
X39531Y-51626D02*
X39593Y-51736D01*
X39593Y-51736D02*
X39633Y-51856D01*
X39633Y-51856D02*
X39649Y-51982D01*
X39649Y-51982D02*
X39650Y-52000D01*
X39650Y-32000D02*
X39637Y-32126D01*
X39637Y-32126D02*
X39600Y-32247D01*
X39600Y-32247D02*
X39541Y-32359D01*
X39541Y-32359D02*
X39461Y-32458D01*
X39461Y-32458D02*
X39363Y-32538D01*
X39363Y-32538D02*
X39251Y-32599D01*
X39251Y-32599D02*
X39130Y-32636D01*
X39130Y-32636D02*
X39004Y-32649D01*
X39004Y-32649D02*
X38879Y-32638D01*
X38879Y-32638D02*
X38757Y-32602D01*
X38757Y-32602D02*
X38645Y-32543D01*
X38645Y-32543D02*
X38546Y-32464D01*
X38546Y-32464D02*
X38464Y-32367D01*
X38464Y-32367D02*
X38403Y-32256D01*
X38403Y-32256D02*
X38365Y-32135D01*
X38365Y-32135D02*
X38351Y-32009D01*
X38351Y-32009D02*
X38361Y-31883D01*
X38361Y-31883D02*
X38396Y-31761D01*
X38396Y-31761D02*
X38454Y-31648D01*
X38454Y-31648D02*
X38533Y-31549D01*
X38533Y-31549D02*
X38630Y-31467D01*
X38630Y-31467D02*
X38740Y-31405D01*
X38740Y-31405D02*
X38861Y-31366D01*
X38861Y-31366D02*
X38987Y-31351D01*
X38987Y-31351D02*
X39112Y-31360D01*
X39112Y-31360D02*
X39235Y-31394D01*
X39235Y-31394D02*
X39348Y-31452D01*
X39348Y-31452D02*
X39448Y-31530D01*
X39448Y-31530D02*
X39531Y-31626D01*
X39531Y-31626D02*
X39593Y-31736D01*
X39593Y-31736D02*
X39633Y-31856D01*
X39633Y-31856D02*
X39649Y-31982D01*
X39649Y-31982D02*
X39650Y-32000D01*
X49650Y-32000D02*
X49637Y-32126D01*
X49637Y-32126D02*
X49600Y-32247D01*
X49600Y-32247D02*
X49541Y-32359D01*
X49541Y-32359D02*
X49461Y-32458D01*
X49461Y-32458D02*
X49363Y-32538D01*
X49363Y-32538D02*
X49251Y-32599D01*
X49251Y-32599D02*
X49130Y-32636D01*
X49130Y-32636D02*
X49004Y-32649D01*
X49004Y-32649D02*
X48879Y-32638D01*
X48879Y-32638D02*
X48757Y-32602D01*
X48757Y-32602D02*
X48645Y-32543D01*
X48645Y-32543D02*
X48546Y-32464D01*
X48546Y-32464D02*
X48464Y-32367D01*
X48464Y-32367D02*
X48403Y-32256D01*
X48403Y-32256D02*
X48365Y-32135D01*
X48365Y-32135D02*
X48351Y-32009D01*
X48351Y-32009D02*
X48361Y-31883D01*
X48361Y-31883D02*
X48396Y-31761D01*
X48396Y-31761D02*
X48454Y-31648D01*
X48454Y-31648D02*
X48533Y-31549D01*
X48533Y-31549D02*
X48630Y-31467D01*
X48630Y-31467D02*
X48740Y-31405D01*
X48740Y-31405D02*
X48861Y-31366D01*
X48861Y-31366D02*
X48987Y-31351D01*
X48987Y-31351D02*
X49112Y-31360D01*
X49112Y-31360D02*
X49235Y-31394D01*
X49235Y-31394D02*
X49348Y-31452D01*
X49348Y-31452D02*
X49448Y-31530D01*
X49448Y-31530D02*
X49531Y-31626D01*
X49531Y-31626D02*
X49593Y-31736D01*
X49593Y-31736D02*
X49633Y-31856D01*
X49633Y-31856D02*
X49649Y-31982D01*
X49649Y-31982D02*
X49650Y-32000D01*
X49650Y-52000D02*
X49637Y-52126D01*
X49637Y-52126D02*
X49600Y-52247D01*
X49600Y-52247D02*
X49541Y-52359D01*
X49541Y-52359D02*
X49461Y-52458D01*
X49461Y-52458D02*
X49363Y-52538D01*
X49363Y-52538D02*
X49251Y-52599D01*
X49251Y-52599D02*
X49130Y-52636D01*
X49130Y-52636D02*
X49004Y-52649D01*
X49004Y-52649D02*
X48879Y-52638D01*
X48879Y-52638D02*
X48757Y-52602D01*
X48757Y-52602D02*
X48645Y-52543D01*
X48645Y-52543D02*
X48546Y-52464D01*
X48546Y-52464D02*
X48464Y-52367D01*
X48464Y-52367D02*
X48403Y-52256D01*
X48403Y-52256D02*
X48365Y-52135D01*
X48365Y-52135D02*
X48351Y-52009D01*
X48351Y-52009D02*
X48361Y-51883D01*
X48361Y-51883D02*
X48396Y-51761D01*
X48396Y-51761D02*
X48454Y-51648D01*
X48454Y-51648D02*
X48533Y-51549D01*
X48533Y-51549D02*
X48630Y-51467D01*
X48630Y-51467D02*
X48740Y-51405D01*
X48740Y-51405D02*
X48861Y-51366D01*
X48861Y-51366D02*
X48987Y-51351D01*
X48987Y-51351D02*
X49112Y-51360D01*
X49112Y-51360D02*
X49235Y-51394D01*
X49235Y-51394D02*
X49348Y-51452D01*
X49348Y-51452D02*
X49448Y-51530D01*
X49448Y-51530D02*
X49531Y-51626D01*
X49531Y-51626D02*
X49593Y-51736D01*
X49593Y-51736D02*
X49633Y-51856D01*
X49633Y-51856D02*
X49649Y-51982D01*
X49649Y-51982D02*
X49650Y-52000D01*
X58400Y-32000D02*
X58387Y-32126D01*
X58387Y-32126D02*
X58350Y-32247D01*
X58350Y-32247D02*
X58291Y-32359D01*
X58291Y-32359D02*
X58211Y-32458D01*
X58211Y-32458D02*
X58113Y-32538D01*
X58113Y-32538D02*
X58001Y-32599D01*
X58001Y-32599D02*
X57880Y-32636D01*
X57880Y-32636D02*
X57754Y-32649D01*
X57754Y-32649D02*
X57629Y-32638D01*
X57629Y-32638D02*
X57507Y-32602D01*
X57507Y-32602D02*
X57395Y-32543D01*
X57395Y-32543D02*
X57296Y-32464D01*
X57296Y-32464D02*
X57214Y-32367D01*
X57214Y-32367D02*
X57153Y-32256D01*
X57153Y-32256D02*
X57115Y-32135D01*
X57115Y-32135D02*
X57101Y-32009D01*
X57101Y-32009D02*
X57111Y-31883D01*
X57111Y-31883D02*
X57146Y-31761D01*
X57146Y-31761D02*
X57204Y-31648D01*
X57204Y-31648D02*
X57283Y-31549D01*
X57283Y-31549D02*
X57380Y-31467D01*
X57380Y-31467D02*
X57490Y-31405D01*
X57490Y-31405D02*
X57611Y-31366D01*
X57611Y-31366D02*
X57737Y-31351D01*
X57737Y-31351D02*
X57862Y-31360D01*
X57862Y-31360D02*
X57985Y-31394D01*
X57985Y-31394D02*
X58098Y-31452D01*
X58098Y-31452D02*
X58198Y-31530D01*
X58198Y-31530D02*
X58281Y-31626D01*
X58281Y-31626D02*
X58343Y-31736D01*
X58343Y-31736D02*
X58383Y-31856D01*
X58383Y-31856D02*
X58399Y-31982D01*
X58399Y-31982D02*
X58400Y-32000D01*
X58400Y-52000D02*
X58387Y-52126D01*
X58387Y-52126D02*
X58350Y-52247D01*
X58350Y-52247D02*
X58291Y-52359D01*
X58291Y-52359D02*
X58211Y-52458D01*
X58211Y-52458D02*
X58113Y-52538D01*
X58113Y-52538D02*
X58001Y-52599D01*
X58001Y-52599D02*
X57880Y-52636D01*
X57880Y-52636D02*
X57754Y-52649D01*
X57754Y-52649D02*
X57629Y-52638D01*
X57629Y-52638D02*
X57507Y-52602D01*
X57507Y-52602D02*
X57395Y-52543D01*
X57395Y-52543D02*
X57296Y-52464D01*
X57296Y-52464D02*
X57214Y-52367D01*
X57214Y-52367D02*
X57153Y-52256D01*
X57153Y-52256D02*
X57115Y-52135D01*
X57115Y-52135D02*
X57101Y-52009D01*
X57101Y-52009D02*
X57111Y-51883D01*
X57111Y-51883D02*
X57146Y-51761D01*
X57146Y-51761D02*
X57204Y-51648D01*
X57204Y-51648D02*
X57283Y-51549D01*
X57283Y-51549D02*
X57380Y-51467D01*
X57380Y-51467D02*
X57490Y-51405D01*
X57490Y-51405D02*
X57611Y-51366D01*
X57611Y-51366D02*
X57737Y-51351D01*
X57737Y-51351D02*
X57862Y-51360D01*
X57862Y-51360D02*
X57985Y-51394D01*
X57985Y-51394D02*
X58098Y-51452D01*
X58098Y-51452D02*
X58198Y-51530D01*
X58198Y-51530D02*
X58281Y-51626D01*
X58281Y-51626D02*
X58343Y-51736D01*
X58343Y-51736D02*
X58383Y-51856D01*
X58383Y-51856D02*
X58399Y-51982D01*
X58399Y-51982D02*
X58400Y-52000D01*
X43150Y-44650D02*
X43850Y-44650D01*
X43850Y-44650D02*
X43850Y-45350D01*
X43850Y-45350D02*
X43150Y-45350D01*
X43150Y-45350D02*
X43150Y-44650D01*
X44850Y-45000D02*
X44843Y-45067D01*
X44843Y-45067D02*
X44823Y-45133D01*
X44823Y-45133D02*
X44791Y-45193D01*
X44791Y-45193D02*
X44748Y-45246D01*
X44748Y-45246D02*
X44695Y-45290D01*
X44695Y-45290D02*
X44635Y-45322D01*
X44635Y-45322D02*
X44570Y-45342D01*
X44570Y-45342D02*
X44502Y-45349D01*
X44502Y-45349D02*
X44435Y-45343D01*
X44435Y-45343D02*
X44369Y-45324D01*
X44369Y-45324D02*
X44309Y-45292D01*
X44309Y-45292D02*
X44256Y-45250D01*
X44256Y-45250D02*
X44212Y-45197D01*
X44212Y-45197D02*
X44179Y-45137D01*
X44179Y-45137D02*
X44158Y-45072D01*
X44158Y-45072D02*
X44151Y-45004D01*
X44151Y-45004D02*
X44156Y-44937D01*
X44156Y-44937D02*
X44175Y-44872D01*
X44175Y-44872D02*
X44206Y-44811D01*
X44206Y-44811D02*
X44249Y-44757D01*
X44249Y-44757D02*
X44301Y-44713D01*
X44301Y-44713D02*
X44360Y-44680D01*
X44360Y-44680D02*
X44425Y-44659D01*
X44425Y-44659D02*
X44493Y-44651D01*
X44493Y-44651D02*
X44560Y-44656D01*
X44560Y-44656D02*
X44626Y-44674D01*
X44626Y-44674D02*
X44687Y-44705D01*
X44687Y-44705D02*
X44741Y-44747D01*
X44741Y-44747D02*
X44786Y-44799D01*
X44786Y-44799D02*
X44819Y-44858D01*
X44819Y-44858D02*
X44841Y-44923D01*
X44841Y-44923D02*
X44849Y-44991D01*
X44849Y-44991D02*
X44850Y-45000D01*
X43850Y-46000D02*
X43843Y-46067D01*
X43843Y-46067D02*
X43823Y-46133D01*
X43823Y-46133D02*
X43791Y-46193D01*
X43791Y-46193D02*
X43748Y-46246D01*
X43748Y-46246D02*
X43695Y-46290D01*
X43695Y-46290D02*
X43635Y-46322D01*
X43635Y-46322D02*
X43570Y-46342D01*
X43570Y-46342D02*
X43502Y-46349D01*
X43502Y-46349D02*
X43435Y-46343D01*
X43435Y-46343D02*
X43369Y-46324D01*
X43369Y-46324D02*
X43309Y-46292D01*
X43309Y-46292D02*
X43256Y-46250D01*
X43256Y-46250D02*
X43212Y-46197D01*
X43212Y-46197D02*
X43179Y-46137D01*
X43179Y-46137D02*
X43158Y-46072D01*
X43158Y-46072D02*
X43151Y-46004D01*
X43151Y-46004D02*
X43156Y-45937D01*
X43156Y-45937D02*
X43175Y-45872D01*
X43175Y-45872D02*
X43206Y-45811D01*
X43206Y-45811D02*
X43249Y-45757D01*
X43249Y-45757D02*
X43301Y-45713D01*
X43301Y-45713D02*
X43360Y-45680D01*
X43360Y-45680D02*
X43425Y-45659D01*
X43425Y-45659D02*
X43493Y-45651D01*
X43493Y-45651D02*
X43560Y-45656D01*
X43560Y-45656D02*
X43626Y-45674D01*
X43626Y-45674D02*
X43687Y-45705D01*
X43687Y-45705D02*
X43741Y-45747D01*
X43741Y-45747D02*
X43786Y-45799D01*
X43786Y-45799D02*
X43819Y-45858D01*
X43819Y-45858D02*
X43841Y-45923D01*
X43841Y-45923D02*
X43849Y-45991D01*
X43849Y-45991D02*
X43850Y-46000D01*
X44850Y-46000D02*
X44843Y-46067D01*
X44843Y-46067D02*
X44823Y-46133D01*
X44823Y-46133D02*
X44791Y-46193D01*
X44791Y-46193D02*
X44748Y-46246D01*
X44748Y-46246D02*
X44695Y-46290D01*
X44695Y-46290D02*
X44635Y-46322D01*
X44635Y-46322D02*
X44570Y-46342D01*
X44570Y-46342D02*
X44502Y-46349D01*
X44502Y-46349D02*
X44435Y-46343D01*
X44435Y-46343D02*
X44369Y-46324D01*
X44369Y-46324D02*
X44309Y-46292D01*
X44309Y-46292D02*
X44256Y-46250D01*
X44256Y-46250D02*
X44212Y-46197D01*
X44212Y-46197D02*
X44179Y-46137D01*
X44179Y-46137D02*
X44158Y-46072D01*
X44158Y-46072D02*
X44151Y-46004D01*
X44151Y-46004D02*
X44156Y-45937D01*
X44156Y-45937D02*
X44175Y-45872D01*
X44175Y-45872D02*
X44206Y-45811D01*
X44206Y-45811D02*
X44249Y-45757D01*
X44249Y-45757D02*
X44301Y-45713D01*
X44301Y-45713D02*
X44360Y-45680D01*
X44360Y-45680D02*
X44425Y-45659D01*
X44425Y-45659D02*
X44493Y-45651D01*
X44493Y-45651D02*
X44560Y-45656D01*
X44560Y-45656D02*
X44626Y-45674D01*
X44626Y-45674D02*
X44687Y-45705D01*
X44687Y-45705D02*
X44741Y-45747D01*
X44741Y-45747D02*
X44786Y-45799D01*
X44786Y-45799D02*
X44819Y-45858D01*
X44819Y-45858D02*
X44841Y-45923D01*
X44841Y-45923D02*
X44849Y-45991D01*
X44849Y-45991D02*
X44850Y-46000D01*
X43850Y-47000D02*
X43843Y-47067D01*
X43843Y-47067D02*
X43823Y-47133D01*
X43823Y-47133D02*
X43791Y-47193D01*
X43791Y-47193D02*
X43748Y-47246D01*
X43748Y-47246D02*
X43695Y-47290D01*
X43695Y-47290D02*
X43635Y-47322D01*
X43635Y-47322D02*
X43570Y-47342D01*
X43570Y-47342D02*
X43502Y-47349D01*
X43502Y-47349D02*
X43435Y-47343D01*
X43435Y-47343D02*
X43369Y-47324D01*
X43369Y-47324D02*
X43309Y-47292D01*
X43309Y-47292D02*
X43256Y-47250D01*
X43256Y-47250D02*
X43212Y-47197D01*
X43212Y-47197D02*
X43179Y-47137D01*
X43179Y-47137D02*
X43158Y-47072D01*
X43158Y-47072D02*
X43151Y-47004D01*
X43151Y-47004D02*
X43156Y-46937D01*
X43156Y-46937D02*
X43175Y-46872D01*
X43175Y-46872D02*
X43206Y-46811D01*
X43206Y-46811D02*
X43249Y-46757D01*
X43249Y-46757D02*
X43301Y-46713D01*
X43301Y-46713D02*
X43360Y-46680D01*
X43360Y-46680D02*
X43425Y-46659D01*
X43425Y-46659D02*
X43493Y-46651D01*
X43493Y-46651D02*
X43560Y-46656D01*
X43560Y-46656D02*
X43626Y-46674D01*
X43626Y-46674D02*
X43687Y-46705D01*
X43687Y-46705D02*
X43741Y-46747D01*
X43741Y-46747D02*
X43786Y-46799D01*
X43786Y-46799D02*
X43819Y-46858D01*
X43819Y-46858D02*
X43841Y-46923D01*
X43841Y-46923D02*
X43849Y-46991D01*
X43849Y-46991D02*
X43850Y-47000D01*
X44850Y-47000D02*
X44843Y-47067D01*
X44843Y-47067D02*
X44823Y-47133D01*
X44823Y-47133D02*
X44791Y-47193D01*
X44791Y-47193D02*
X44748Y-47246D01*
X44748Y-47246D02*
X44695Y-47290D01*
X44695Y-47290D02*
X44635Y-47322D01*
X44635Y-47322D02*
X44570Y-47342D01*
X44570Y-47342D02*
X44502Y-47349D01*
X44502Y-47349D02*
X44435Y-47343D01*
X44435Y-47343D02*
X44369Y-47324D01*
X44369Y-47324D02*
X44309Y-47292D01*
X44309Y-47292D02*
X44256Y-47250D01*
X44256Y-47250D02*
X44212Y-47197D01*
X44212Y-47197D02*
X44179Y-47137D01*
X44179Y-47137D02*
X44158Y-47072D01*
X44158Y-47072D02*
X44151Y-47004D01*
X44151Y-47004D02*
X44156Y-46937D01*
X44156Y-46937D02*
X44175Y-46872D01*
X44175Y-46872D02*
X44206Y-46811D01*
X44206Y-46811D02*
X44249Y-46757D01*
X44249Y-46757D02*
X44301Y-46713D01*
X44301Y-46713D02*
X44360Y-46680D01*
X44360Y-46680D02*
X44425Y-46659D01*
X44425Y-46659D02*
X44493Y-46651D01*
X44493Y-46651D02*
X44560Y-46656D01*
X44560Y-46656D02*
X44626Y-46674D01*
X44626Y-46674D02*
X44687Y-46705D01*
X44687Y-46705D02*
X44741Y-46747D01*
X44741Y-46747D02*
X44786Y-46799D01*
X44786Y-46799D02*
X44819Y-46858D01*
X44819Y-46858D02*
X44841Y-46923D01*
X44841Y-46923D02*
X44849Y-46991D01*
X44849Y-46991D02*
X44850Y-47000D01*
X43850Y-48000D02*
X43843Y-48067D01*
X43843Y-48067D02*
X43823Y-48133D01*
X43823Y-48133D02*
X43791Y-48193D01*
X43791Y-48193D02*
X43748Y-48246D01*
X43748Y-48246D02*
X43695Y-48290D01*
X43695Y-48290D02*
X43635Y-48322D01*
X43635Y-48322D02*
X43570Y-48342D01*
X43570Y-48342D02*
X43502Y-48349D01*
X43502Y-48349D02*
X43435Y-48343D01*
X43435Y-48343D02*
X43369Y-48324D01*
X43369Y-48324D02*
X43309Y-48292D01*
X43309Y-48292D02*
X43256Y-48250D01*
X43256Y-48250D02*
X43212Y-48197D01*
X43212Y-48197D02*
X43179Y-48137D01*
X43179Y-48137D02*
X43158Y-48072D01*
X43158Y-48072D02*
X43151Y-48004D01*
X43151Y-48004D02*
X43156Y-47937D01*
X43156Y-47937D02*
X43175Y-47872D01*
X43175Y-47872D02*
X43206Y-47811D01*
X43206Y-47811D02*
X43249Y-47757D01*
X43249Y-47757D02*
X43301Y-47713D01*
X43301Y-47713D02*
X43360Y-47680D01*
X43360Y-47680D02*
X43425Y-47659D01*
X43425Y-47659D02*
X43493Y-47651D01*
X43493Y-47651D02*
X43560Y-47656D01*
X43560Y-47656D02*
X43626Y-47674D01*
X43626Y-47674D02*
X43687Y-47705D01*
X43687Y-47705D02*
X43741Y-47747D01*
X43741Y-47747D02*
X43786Y-47799D01*
X43786Y-47799D02*
X43819Y-47858D01*
X43819Y-47858D02*
X43841Y-47923D01*
X43841Y-47923D02*
X43849Y-47991D01*
X43849Y-47991D02*
X43850Y-48000D01*
X44850Y-48000D02*
X44843Y-48067D01*
X44843Y-48067D02*
X44823Y-48133D01*
X44823Y-48133D02*
X44791Y-48193D01*
X44791Y-48193D02*
X44748Y-48246D01*
X44748Y-48246D02*
X44695Y-48290D01*
X44695Y-48290D02*
X44635Y-48322D01*
X44635Y-48322D02*
X44570Y-48342D01*
X44570Y-48342D02*
X44502Y-48349D01*
X44502Y-48349D02*
X44435Y-48343D01*
X44435Y-48343D02*
X44369Y-48324D01*
X44369Y-48324D02*
X44309Y-48292D01*
X44309Y-48292D02*
X44256Y-48250D01*
X44256Y-48250D02*
X44212Y-48197D01*
X44212Y-48197D02*
X44179Y-48137D01*
X44179Y-48137D02*
X44158Y-48072D01*
X44158Y-48072D02*
X44151Y-48004D01*
X44151Y-48004D02*
X44156Y-47937D01*
X44156Y-47937D02*
X44175Y-47872D01*
X44175Y-47872D02*
X44206Y-47811D01*
X44206Y-47811D02*
X44249Y-47757D01*
X44249Y-47757D02*
X44301Y-47713D01*
X44301Y-47713D02*
X44360Y-47680D01*
X44360Y-47680D02*
X44425Y-47659D01*
X44425Y-47659D02*
X44493Y-47651D01*
X44493Y-47651D02*
X44560Y-47656D01*
X44560Y-47656D02*
X44626Y-47674D01*
X44626Y-47674D02*
X44687Y-47705D01*
X44687Y-47705D02*
X44741Y-47747D01*
X44741Y-47747D02*
X44786Y-47799D01*
X44786Y-47799D02*
X44819Y-47858D01*
X44819Y-47858D02*
X44841Y-47923D01*
X44841Y-47923D02*
X44849Y-47991D01*
X44849Y-47991D02*
X44850Y-48000D01*
X43850Y-49000D02*
X43843Y-49067D01*
X43843Y-49067D02*
X43823Y-49133D01*
X43823Y-49133D02*
X43791Y-49193D01*
X43791Y-49193D02*
X43748Y-49246D01*
X43748Y-49246D02*
X43695Y-49290D01*
X43695Y-49290D02*
X43635Y-49322D01*
X43635Y-49322D02*
X43570Y-49342D01*
X43570Y-49342D02*
X43502Y-49349D01*
X43502Y-49349D02*
X43435Y-49343D01*
X43435Y-49343D02*
X43369Y-49324D01*
X43369Y-49324D02*
X43309Y-49292D01*
X43309Y-49292D02*
X43256Y-49250D01*
X43256Y-49250D02*
X43212Y-49197D01*
X43212Y-49197D02*
X43179Y-49137D01*
X43179Y-49137D02*
X43158Y-49072D01*
X43158Y-49072D02*
X43151Y-49004D01*
X43151Y-49004D02*
X43156Y-48937D01*
X43156Y-48937D02*
X43175Y-48872D01*
X43175Y-48872D02*
X43206Y-48811D01*
X43206Y-48811D02*
X43249Y-48757D01*
X43249Y-48757D02*
X43301Y-48713D01*
X43301Y-48713D02*
X43360Y-48680D01*
X43360Y-48680D02*
X43425Y-48659D01*
X43425Y-48659D02*
X43493Y-48651D01*
X43493Y-48651D02*
X43560Y-48656D01*
X43560Y-48656D02*
X43626Y-48674D01*
X43626Y-48674D02*
X43687Y-48705D01*
X43687Y-48705D02*
X43741Y-48747D01*
X43741Y-48747D02*
X43786Y-48799D01*
X43786Y-48799D02*
X43819Y-48858D01*
X43819Y-48858D02*
X43841Y-48923D01*
X43841Y-48923D02*
X43849Y-48991D01*
X43849Y-48991D02*
X43850Y-49000D01*
X44850Y-49000D02*
X44843Y-49067D01*
X44843Y-49067D02*
X44823Y-49133D01*
X44823Y-49133D02*
X44791Y-49193D01*
X44791Y-49193D02*
X44748Y-49246D01*
X44748Y-49246D02*
X44695Y-49290D01*
X44695Y-49290D02*
X44635Y-49322D01*
X44635Y-49322D02*
X44570Y-49342D01*
X44570Y-49342D02*
X44502Y-49349D01*
X44502Y-49349D02*
X44435Y-49343D01*
X44435Y-49343D02*
X44369Y-49324D01*
X44369Y-49324D02*
X44309Y-49292D01*
X44309Y-49292D02*
X44256Y-49250D01*
X44256Y-49250D02*
X44212Y-49197D01*
X44212Y-49197D02*
X44179Y-49137D01*
X44179Y-49137D02*
X44158Y-49072D01*
X44158Y-49072D02*
X44151Y-49004D01*
X44151Y-49004D02*
X44156Y-48937D01*
X44156Y-48937D02*
X44175Y-48872D01*
X44175Y-48872D02*
X44206Y-48811D01*
X44206Y-48811D02*
X44249Y-48757D01*
X44249Y-48757D02*
X44301Y-48713D01*
X44301Y-48713D02*
X44360Y-48680D01*
X44360Y-48680D02*
X44425Y-48659D01*
X44425Y-48659D02*
X44493Y-48651D01*
X44493Y-48651D02*
X44560Y-48656D01*
X44560Y-48656D02*
X44626Y-48674D01*
X44626Y-48674D02*
X44687Y-48705D01*
X44687Y-48705D02*
X44741Y-48747D01*
X44741Y-48747D02*
X44786Y-48799D01*
X44786Y-48799D02*
X44819Y-48858D01*
X44819Y-48858D02*
X44841Y-48923D01*
X44841Y-48923D02*
X44849Y-48991D01*
X44849Y-48991D02*
X44850Y-49000D01*
X53150Y-44650D02*
X53850Y-44650D01*
X53850Y-44650D02*
X53850Y-45350D01*
X53850Y-45350D02*
X53150Y-45350D01*
X53150Y-45350D02*
X53150Y-44650D01*
X54850Y-45000D02*
X54843Y-45067D01*
X54843Y-45067D02*
X54823Y-45133D01*
X54823Y-45133D02*
X54791Y-45193D01*
X54791Y-45193D02*
X54748Y-45246D01*
X54748Y-45246D02*
X54695Y-45290D01*
X54695Y-45290D02*
X54635Y-45322D01*
X54635Y-45322D02*
X54570Y-45342D01*
X54570Y-45342D02*
X54502Y-45349D01*
X54502Y-45349D02*
X54435Y-45343D01*
X54435Y-45343D02*
X54369Y-45324D01*
X54369Y-45324D02*
X54309Y-45292D01*
X54309Y-45292D02*
X54256Y-45250D01*
X54256Y-45250D02*
X54212Y-45197D01*
X54212Y-45197D02*
X54179Y-45137D01*
X54179Y-45137D02*
X54158Y-45072D01*
X54158Y-45072D02*
X54151Y-45004D01*
X54151Y-45004D02*
X54156Y-44937D01*
X54156Y-44937D02*
X54175Y-44872D01*
X54175Y-44872D02*
X54206Y-44811D01*
X54206Y-44811D02*
X54249Y-44757D01*
X54249Y-44757D02*
X54301Y-44713D01*
X54301Y-44713D02*
X54360Y-44680D01*
X54360Y-44680D02*
X54425Y-44659D01*
X54425Y-44659D02*
X54493Y-44651D01*
X54493Y-44651D02*
X54560Y-44656D01*
X54560Y-44656D02*
X54626Y-44674D01*
X54626Y-44674D02*
X54687Y-44705D01*
X54687Y-44705D02*
X54741Y-44747D01*
X54741Y-44747D02*
X54786Y-44799D01*
X54786Y-44799D02*
X54819Y-44858D01*
X54819Y-44858D02*
X54841Y-44923D01*
X54841Y-44923D02*
X54849Y-44991D01*
X54849Y-44991D02*
X54850Y-45000D01*
X53850Y-46000D02*
X53843Y-46067D01*
X53843Y-46067D02*
X53823Y-46133D01*
X53823Y-46133D02*
X53791Y-46193D01*
X53791Y-46193D02*
X53748Y-46246D01*
X53748Y-46246D02*
X53695Y-46290D01*
X53695Y-46290D02*
X53635Y-46322D01*
X53635Y-46322D02*
X53570Y-46342D01*
X53570Y-46342D02*
X53502Y-46349D01*
X53502Y-46349D02*
X53435Y-46343D01*
X53435Y-46343D02*
X53369Y-46324D01*
X53369Y-46324D02*
X53309Y-46292D01*
X53309Y-46292D02*
X53256Y-46250D01*
X53256Y-46250D02*
X53212Y-46197D01*
X53212Y-46197D02*
X53179Y-46137D01*
X53179Y-46137D02*
X53158Y-46072D01*
X53158Y-46072D02*
X53151Y-46004D01*
X53151Y-46004D02*
X53156Y-45937D01*
X53156Y-45937D02*
X53175Y-45872D01*
X53175Y-45872D02*
X53206Y-45811D01*
X53206Y-45811D02*
X53249Y-45757D01*
X53249Y-45757D02*
X53301Y-45713D01*
X53301Y-45713D02*
X53360Y-45680D01*
X53360Y-45680D02*
X53425Y-45659D01*
X53425Y-45659D02*
X53493Y-45651D01*
X53493Y-45651D02*
X53560Y-45656D01*
X53560Y-45656D02*
X53626Y-45674D01*
X53626Y-45674D02*
X53687Y-45705D01*
X53687Y-45705D02*
X53741Y-45747D01*
X53741Y-45747D02*
X53786Y-45799D01*
X53786Y-45799D02*
X53819Y-45858D01*
X53819Y-45858D02*
X53841Y-45923D01*
X53841Y-45923D02*
X53849Y-45991D01*
X53849Y-45991D02*
X53850Y-46000D01*
X54850Y-46000D02*
X54843Y-46067D01*
X54843Y-46067D02*
X54823Y-46133D01*
X54823Y-46133D02*
X54791Y-46193D01*
X54791Y-46193D02*
X54748Y-46246D01*
X54748Y-46246D02*
X54695Y-46290D01*
X54695Y-46290D02*
X54635Y-46322D01*
X54635Y-46322D02*
X54570Y-46342D01*
X54570Y-46342D02*
X54502Y-46349D01*
X54502Y-46349D02*
X54435Y-46343D01*
X54435Y-46343D02*
X54369Y-46324D01*
X54369Y-46324D02*
X54309Y-46292D01*
X54309Y-46292D02*
X54256Y-46250D01*
X54256Y-46250D02*
X54212Y-46197D01*
X54212Y-46197D02*
X54179Y-46137D01*
X54179Y-46137D02*
X54158Y-46072D01*
X54158Y-46072D02*
X54151Y-46004D01*
X54151Y-46004D02*
X54156Y-45937D01*
X54156Y-45937D02*
X54175Y-45872D01*
X54175Y-45872D02*
X54206Y-45811D01*
X54206Y-45811D02*
X54249Y-45757D01*
X54249Y-45757D02*
X54301Y-45713D01*
X54301Y-45713D02*
X54360Y-45680D01*
X54360Y-45680D02*
X54425Y-45659D01*
X54425Y-45659D02*
X54493Y-45651D01*
X54493Y-45651D02*
X54560Y-45656D01*
X54560Y-45656D02*
X54626Y-45674D01*
X54626Y-45674D02*
X54687Y-45705D01*
X54687Y-45705D02*
X54741Y-45747D01*
X54741Y-45747D02*
X54786Y-45799D01*
X54786Y-45799D02*
X54819Y-45858D01*
X54819Y-45858D02*
X54841Y-45923D01*
X54841Y-45923D02*
X54849Y-45991D01*
X54849Y-45991D02*
X54850Y-46000D01*
X53850Y-47000D02*
X53843Y-47067D01*
X53843Y-47067D02*
X53823Y-47133D01*
X53823Y-47133D02*
X53791Y-47193D01*
X53791Y-47193D02*
X53748Y-47246D01*
X53748Y-47246D02*
X53695Y-47290D01*
X53695Y-47290D02*
X53635Y-47322D01*
X53635Y-47322D02*
X53570Y-47342D01*
X53570Y-47342D02*
X53502Y-47349D01*
X53502Y-47349D02*
X53435Y-47343D01*
X53435Y-47343D02*
X53369Y-47324D01*
X53369Y-47324D02*
X53309Y-47292D01*
X53309Y-47292D02*
X53256Y-47250D01*
X53256Y-47250D02*
X53212Y-47197D01*
X53212Y-47197D02*
X53179Y-47137D01*
X53179Y-47137D02*
X53158Y-47072D01*
X53158Y-47072D02*
X53151Y-47004D01*
X53151Y-47004D02*
X53156Y-46937D01*
X53156Y-46937D02*
X53175Y-46872D01*
X53175Y-46872D02*
X53206Y-46811D01*
X53206Y-46811D02*
X53249Y-46757D01*
X53249Y-46757D02*
X53301Y-46713D01*
X53301Y-46713D02*
X53360Y-46680D01*
X53360Y-46680D02*
X53425Y-46659D01*
X53425Y-46659D02*
X53493Y-46651D01*
X53493Y-46651D02*
X53560Y-46656D01*
X53560Y-46656D02*
X53626Y-46674D01*
X53626Y-46674D02*
X53687Y-46705D01*
X53687Y-46705D02*
X53741Y-46747D01*
X53741Y-46747D02*
X53786Y-46799D01*
X53786Y-46799D02*
X53819Y-46858D01*
X53819Y-46858D02*
X53841Y-46923D01*
X53841Y-46923D02*
X53849Y-46991D01*
X53849Y-46991D02*
X53850Y-47000D01*
X54850Y-47000D02*
X54843Y-47067D01*
X54843Y-47067D02*
X54823Y-47133D01*
X54823Y-47133D02*
X54791Y-47193D01*
X54791Y-47193D02*
X54748Y-47246D01*
X54748Y-47246D02*
X54695Y-47290D01*
X54695Y-47290D02*
X54635Y-47322D01*
X54635Y-47322D02*
X54570Y-47342D01*
X54570Y-47342D02*
X54502Y-47349D01*
X54502Y-47349D02*
X54435Y-47343D01*
X54435Y-47343D02*
X54369Y-47324D01*
X54369Y-47324D02*
X54309Y-47292D01*
X54309Y-47292D02*
X54256Y-47250D01*
X54256Y-47250D02*
X54212Y-47197D01*
X54212Y-47197D02*
X54179Y-47137D01*
X54179Y-47137D02*
X54158Y-47072D01*
X54158Y-47072D02*
X54151Y-47004D01*
X54151Y-47004D02*
X54156Y-46937D01*
X54156Y-46937D02*
X54175Y-46872D01*
X54175Y-46872D02*
X54206Y-46811D01*
X54206Y-46811D02*
X54249Y-46757D01*
X54249Y-46757D02*
X54301Y-46713D01*
X54301Y-46713D02*
X54360Y-46680D01*
X54360Y-46680D02*
X54425Y-46659D01*
X54425Y-46659D02*
X54493Y-46651D01*
X54493Y-46651D02*
X54560Y-46656D01*
X54560Y-46656D02*
X54626Y-46674D01*
X54626Y-46674D02*
X54687Y-46705D01*
X54687Y-46705D02*
X54741Y-46747D01*
X54741Y-46747D02*
X54786Y-46799D01*
X54786Y-46799D02*
X54819Y-46858D01*
X54819Y-46858D02*
X54841Y-46923D01*
X54841Y-46923D02*
X54849Y-46991D01*
X54849Y-46991D02*
X54850Y-47000D01*
X53850Y-48000D02*
X53843Y-48067D01*
X53843Y-48067D02*
X53823Y-48133D01*
X53823Y-48133D02*
X53791Y-48193D01*
X53791Y-48193D02*
X53748Y-48246D01*
X53748Y-48246D02*
X53695Y-48290D01*
X53695Y-48290D02*
X53635Y-48322D01*
X53635Y-48322D02*
X53570Y-48342D01*
X53570Y-48342D02*
X53502Y-48349D01*
X53502Y-48349D02*
X53435Y-48343D01*
X53435Y-48343D02*
X53369Y-48324D01*
X53369Y-48324D02*
X53309Y-48292D01*
X53309Y-48292D02*
X53256Y-48250D01*
X53256Y-48250D02*
X53212Y-48197D01*
X53212Y-48197D02*
X53179Y-48137D01*
X53179Y-48137D02*
X53158Y-48072D01*
X53158Y-48072D02*
X53151Y-48004D01*
X53151Y-48004D02*
X53156Y-47937D01*
X53156Y-47937D02*
X53175Y-47872D01*
X53175Y-47872D02*
X53206Y-47811D01*
X53206Y-47811D02*
X53249Y-47757D01*
X53249Y-47757D02*
X53301Y-47713D01*
X53301Y-47713D02*
X53360Y-47680D01*
X53360Y-47680D02*
X53425Y-47659D01*
X53425Y-47659D02*
X53493Y-47651D01*
X53493Y-47651D02*
X53560Y-47656D01*
X53560Y-47656D02*
X53626Y-47674D01*
X53626Y-47674D02*
X53687Y-47705D01*
X53687Y-47705D02*
X53741Y-47747D01*
X53741Y-47747D02*
X53786Y-47799D01*
X53786Y-47799D02*
X53819Y-47858D01*
X53819Y-47858D02*
X53841Y-47923D01*
X53841Y-47923D02*
X53849Y-47991D01*
X53849Y-47991D02*
X53850Y-48000D01*
X54850Y-48000D02*
X54843Y-48067D01*
X54843Y-48067D02*
X54823Y-48133D01*
X54823Y-48133D02*
X54791Y-48193D01*
X54791Y-48193D02*
X54748Y-48246D01*
X54748Y-48246D02*
X54695Y-48290D01*
X54695Y-48290D02*
X54635Y-48322D01*
X54635Y-48322D02*
X54570Y-48342D01*
X54570Y-48342D02*
X54502Y-48349D01*
X54502Y-48349D02*
X54435Y-48343D01*
X54435Y-48343D02*
X54369Y-48324D01*
X54369Y-48324D02*
X54309Y-48292D01*
X54309Y-48292D02*
X54256Y-48250D01*
X54256Y-48250D02*
X54212Y-48197D01*
X54212Y-48197D02*
X54179Y-48137D01*
X54179Y-48137D02*
X54158Y-48072D01*
X54158Y-48072D02*
X54151Y-48004D01*
X54151Y-48004D02*
X54156Y-47937D01*
X54156Y-47937D02*
X54175Y-47872D01*
X54175Y-47872D02*
X54206Y-47811D01*
X54206Y-47811D02*
X54249Y-47757D01*
X54249Y-47757D02*
X54301Y-47713D01*
X54301Y-47713D02*
X54360Y-47680D01*
X54360Y-47680D02*
X54425Y-47659D01*
X54425Y-47659D02*
X54493Y-47651D01*
X54493Y-47651D02*
X54560Y-47656D01*
X54560Y-47656D02*
X54626Y-47674D01*
X54626Y-47674D02*
X54687Y-47705D01*
X54687Y-47705D02*
X54741Y-47747D01*
X54741Y-47747D02*
X54786Y-47799D01*
X54786Y-47799D02*
X54819Y-47858D01*
X54819Y-47858D02*
X54841Y-47923D01*
X54841Y-47923D02*
X54849Y-47991D01*
X54849Y-47991D02*
X54850Y-48000D01*
X53850Y-49000D02*
X53843Y-49067D01*
X53843Y-49067D02*
X53823Y-49133D01*
X53823Y-49133D02*
X53791Y-49193D01*
X53791Y-49193D02*
X53748Y-49246D01*
X53748Y-49246D02*
X53695Y-49290D01*
X53695Y-49290D02*
X53635Y-49322D01*
X53635Y-49322D02*
X53570Y-49342D01*
X53570Y-49342D02*
X53502Y-49349D01*
X53502Y-49349D02*
X53435Y-49343D01*
X53435Y-49343D02*
X53369Y-49324D01*
X53369Y-49324D02*
X53309Y-49292D01*
X53309Y-49292D02*
X53256Y-49250D01*
X53256Y-49250D02*
X53212Y-49197D01*
X53212Y-49197D02*
X53179Y-49137D01*
X53179Y-49137D02*
X53158Y-49072D01*
X53158Y-49072D02*
X53151Y-49004D01*
X53151Y-49004D02*
X53156Y-48937D01*
X53156Y-48937D02*
X53175Y-48872D01*
X53175Y-48872D02*
X53206Y-48811D01*
X53206Y-48811D02*
X53249Y-48757D01*
X53249Y-48757D02*
X53301Y-48713D01*
X53301Y-48713D02*
X53360Y-48680D01*
X53360Y-48680D02*
X53425Y-48659D01*
X53425Y-48659D02*
X53493Y-48651D01*
X53493Y-48651D02*
X53560Y-48656D01*
X53560Y-48656D02*
X53626Y-48674D01*
X53626Y-48674D02*
X53687Y-48705D01*
X53687Y-48705D02*
X53741Y-48747D01*
X53741Y-48747D02*
X53786Y-48799D01*
X53786Y-48799D02*
X53819Y-48858D01*
X53819Y-48858D02*
X53841Y-48923D01*
X53841Y-48923D02*
X53849Y-48991D01*
X53849Y-48991D02*
X53850Y-49000D01*
X54850Y-49000D02*
X54843Y-49067D01*
X54843Y-49067D02*
X54823Y-49133D01*
X54823Y-49133D02*
X54791Y-49193D01*
X54791Y-49193D02*
X54748Y-49246D01*
X54748Y-49246D02*
X54695Y-49290D01*
X54695Y-49290D02*
X54635Y-49322D01*
X54635Y-49322D02*
X54570Y-49342D01*
X54570Y-49342D02*
X54502Y-49349D01*
X54502Y-49349D02*
X54435Y-49343D01*
X54435Y-49343D02*
X54369Y-49324D01*
X54369Y-49324D02*
X54309Y-49292D01*
X54309Y-49292D02*
X54256Y-49250D01*
X54256Y-49250D02*
X54212Y-49197D01*
X54212Y-49197D02*
X54179Y-49137D01*
X54179Y-49137D02*
X54158Y-49072D01*
X54158Y-49072D02*
X54151Y-49004D01*
X54151Y-49004D02*
X54156Y-48937D01*
X54156Y-48937D02*
X54175Y-48872D01*
X54175Y-48872D02*
X54206Y-48811D01*
X54206Y-48811D02*
X54249Y-48757D01*
X54249Y-48757D02*
X54301Y-48713D01*
X54301Y-48713D02*
X54360Y-48680D01*
X54360Y-48680D02*
X54425Y-48659D01*
X54425Y-48659D02*
X54493Y-48651D01*
X54493Y-48651D02*
X54560Y-48656D01*
X54560Y-48656D02*
X54626Y-48674D01*
X54626Y-48674D02*
X54687Y-48705D01*
X54687Y-48705D02*
X54741Y-48747D01*
X54741Y-48747D02*
X54786Y-48799D01*
X54786Y-48799D02*
X54819Y-48858D01*
X54819Y-48858D02*
X54841Y-48923D01*
X54841Y-48923D02*
X54849Y-48991D01*
X54849Y-48991D02*
X54850Y-49000D01*
X53150Y-34650D02*
X53850Y-34650D01*
X53850Y-34650D02*
X53850Y-35350D01*
X53850Y-35350D02*
X53150Y-35350D01*
X53150Y-35350D02*
X53150Y-34650D01*
X54850Y-35000D02*
X54843Y-35067D01*
X54843Y-35067D02*
X54823Y-35133D01*
X54823Y-35133D02*
X54791Y-35193D01*
X54791Y-35193D02*
X54748Y-35246D01*
X54748Y-35246D02*
X54695Y-35290D01*
X54695Y-35290D02*
X54635Y-35322D01*
X54635Y-35322D02*
X54570Y-35342D01*
X54570Y-35342D02*
X54502Y-35349D01*
X54502Y-35349D02*
X54435Y-35343D01*
X54435Y-35343D02*
X54369Y-35324D01*
X54369Y-35324D02*
X54309Y-35292D01*
X54309Y-35292D02*
X54256Y-35250D01*
X54256Y-35250D02*
X54212Y-35197D01*
X54212Y-35197D02*
X54179Y-35137D01*
X54179Y-35137D02*
X54158Y-35072D01*
X54158Y-35072D02*
X54151Y-35004D01*
X54151Y-35004D02*
X54156Y-34937D01*
X54156Y-34937D02*
X54175Y-34872D01*
X54175Y-34872D02*
X54206Y-34811D01*
X54206Y-34811D02*
X54249Y-34757D01*
X54249Y-34757D02*
X54301Y-34713D01*
X54301Y-34713D02*
X54360Y-34680D01*
X54360Y-34680D02*
X54425Y-34659D01*
X54425Y-34659D02*
X54493Y-34651D01*
X54493Y-34651D02*
X54560Y-34656D01*
X54560Y-34656D02*
X54626Y-34674D01*
X54626Y-34674D02*
X54687Y-34705D01*
X54687Y-34705D02*
X54741Y-34747D01*
X54741Y-34747D02*
X54786Y-34799D01*
X54786Y-34799D02*
X54819Y-34858D01*
X54819Y-34858D02*
X54841Y-34923D01*
X54841Y-34923D02*
X54849Y-34991D01*
X54849Y-34991D02*
X54850Y-35000D01*
X53850Y-36000D02*
X53843Y-36067D01*
X53843Y-36067D02*
X53823Y-36133D01*
X53823Y-36133D02*
X53791Y-36193D01*
X53791Y-36193D02*
X53748Y-36246D01*
X53748Y-36246D02*
X53695Y-36290D01*
X53695Y-36290D02*
X53635Y-36322D01*
X53635Y-36322D02*
X53570Y-36342D01*
X53570Y-36342D02*
X53502Y-36349D01*
X53502Y-36349D02*
X53435Y-36343D01*
X53435Y-36343D02*
X53369Y-36324D01*
X53369Y-36324D02*
X53309Y-36292D01*
X53309Y-36292D02*
X53256Y-36250D01*
X53256Y-36250D02*
X53212Y-36197D01*
X53212Y-36197D02*
X53179Y-36137D01*
X53179Y-36137D02*
X53158Y-36072D01*
X53158Y-36072D02*
X53151Y-36004D01*
X53151Y-36004D02*
X53156Y-35937D01*
X53156Y-35937D02*
X53175Y-35872D01*
X53175Y-35872D02*
X53206Y-35811D01*
X53206Y-35811D02*
X53249Y-35757D01*
X53249Y-35757D02*
X53301Y-35713D01*
X53301Y-35713D02*
X53360Y-35680D01*
X53360Y-35680D02*
X53425Y-35659D01*
X53425Y-35659D02*
X53493Y-35651D01*
X53493Y-35651D02*
X53560Y-35656D01*
X53560Y-35656D02*
X53626Y-35674D01*
X53626Y-35674D02*
X53687Y-35705D01*
X53687Y-35705D02*
X53741Y-35747D01*
X53741Y-35747D02*
X53786Y-35799D01*
X53786Y-35799D02*
X53819Y-35858D01*
X53819Y-35858D02*
X53841Y-35923D01*
X53841Y-35923D02*
X53849Y-35991D01*
X53849Y-35991D02*
X53850Y-36000D01*
X54850Y-36000D02*
X54843Y-36067D01*
X54843Y-36067D02*
X54823Y-36133D01*
X54823Y-36133D02*
X54791Y-36193D01*
X54791Y-36193D02*
X54748Y-36246D01*
X54748Y-36246D02*
X54695Y-36290D01*
X54695Y-36290D02*
X54635Y-36322D01*
X54635Y-36322D02*
X54570Y-36342D01*
X54570Y-36342D02*
X54502Y-36349D01*
X54502Y-36349D02*
X54435Y-36343D01*
X54435Y-36343D02*
X54369Y-36324D01*
X54369Y-36324D02*
X54309Y-36292D01*
X54309Y-36292D02*
X54256Y-36250D01*
X54256Y-36250D02*
X54212Y-36197D01*
X54212Y-36197D02*
X54179Y-36137D01*
X54179Y-36137D02*
X54158Y-36072D01*
X54158Y-36072D02*
X54151Y-36004D01*
X54151Y-36004D02*
X54156Y-35937D01*
X54156Y-35937D02*
X54175Y-35872D01*
X54175Y-35872D02*
X54206Y-35811D01*
X54206Y-35811D02*
X54249Y-35757D01*
X54249Y-35757D02*
X54301Y-35713D01*
X54301Y-35713D02*
X54360Y-35680D01*
X54360Y-35680D02*
X54425Y-35659D01*
X54425Y-35659D02*
X54493Y-35651D01*
X54493Y-35651D02*
X54560Y-35656D01*
X54560Y-35656D02*
X54626Y-35674D01*
X54626Y-35674D02*
X54687Y-35705D01*
X54687Y-35705D02*
X54741Y-35747D01*
X54741Y-35747D02*
X54786Y-35799D01*
X54786Y-35799D02*
X54819Y-35858D01*
X54819Y-35858D02*
X54841Y-35923D01*
X54841Y-35923D02*
X54849Y-35991D01*
X54849Y-35991D02*
X54850Y-36000D01*
X53850Y-37000D02*
X53843Y-37067D01*
X53843Y-37067D02*
X53823Y-37133D01*
X53823Y-37133D02*
X53791Y-37193D01*
X53791Y-37193D02*
X53748Y-37246D01*
X53748Y-37246D02*
X53695Y-37290D01*
X53695Y-37290D02*
X53635Y-37322D01*
X53635Y-37322D02*
X53570Y-37342D01*
X53570Y-37342D02*
X53502Y-37349D01*
X53502Y-37349D02*
X53435Y-37343D01*
X53435Y-37343D02*
X53369Y-37324D01*
X53369Y-37324D02*
X53309Y-37292D01*
X53309Y-37292D02*
X53256Y-37250D01*
X53256Y-37250D02*
X53212Y-37197D01*
X53212Y-37197D02*
X53179Y-37137D01*
X53179Y-37137D02*
X53158Y-37072D01*
X53158Y-37072D02*
X53151Y-37004D01*
X53151Y-37004D02*
X53156Y-36937D01*
X53156Y-36937D02*
X53175Y-36872D01*
X53175Y-36872D02*
X53206Y-36811D01*
X53206Y-36811D02*
X53249Y-36757D01*
X53249Y-36757D02*
X53301Y-36713D01*
X53301Y-36713D02*
X53360Y-36680D01*
X53360Y-36680D02*
X53425Y-36659D01*
X53425Y-36659D02*
X53493Y-36651D01*
X53493Y-36651D02*
X53560Y-36656D01*
X53560Y-36656D02*
X53626Y-36674D01*
X53626Y-36674D02*
X53687Y-36705D01*
X53687Y-36705D02*
X53741Y-36747D01*
X53741Y-36747D02*
X53786Y-36799D01*
X53786Y-36799D02*
X53819Y-36858D01*
X53819Y-36858D02*
X53841Y-36923D01*
X53841Y-36923D02*
X53849Y-36991D01*
X53849Y-36991D02*
X53850Y-37000D01*
X54850Y-37000D02*
X54843Y-37067D01*
X54843Y-37067D02*
X54823Y-37133D01*
X54823Y-37133D02*
X54791Y-37193D01*
X54791Y-37193D02*
X54748Y-37246D01*
X54748Y-37246D02*
X54695Y-37290D01*
X54695Y-37290D02*
X54635Y-37322D01*
X54635Y-37322D02*
X54570Y-37342D01*
X54570Y-37342D02*
X54502Y-37349D01*
X54502Y-37349D02*
X54435Y-37343D01*
X54435Y-37343D02*
X54369Y-37324D01*
X54369Y-37324D02*
X54309Y-37292D01*
X54309Y-37292D02*
X54256Y-37250D01*
X54256Y-37250D02*
X54212Y-37197D01*
X54212Y-37197D02*
X54179Y-37137D01*
X54179Y-37137D02*
X54158Y-37072D01*
X54158Y-37072D02*
X54151Y-37004D01*
X54151Y-37004D02*
X54156Y-36937D01*
X54156Y-36937D02*
X54175Y-36872D01*
X54175Y-36872D02*
X54206Y-36811D01*
X54206Y-36811D02*
X54249Y-36757D01*
X54249Y-36757D02*
X54301Y-36713D01*
X54301Y-36713D02*
X54360Y-36680D01*
X54360Y-36680D02*
X54425Y-36659D01*
X54425Y-36659D02*
X54493Y-36651D01*
X54493Y-36651D02*
X54560Y-36656D01*
X54560Y-36656D02*
X54626Y-36674D01*
X54626Y-36674D02*
X54687Y-36705D01*
X54687Y-36705D02*
X54741Y-36747D01*
X54741Y-36747D02*
X54786Y-36799D01*
X54786Y-36799D02*
X54819Y-36858D01*
X54819Y-36858D02*
X54841Y-36923D01*
X54841Y-36923D02*
X54849Y-36991D01*
X54849Y-36991D02*
X54850Y-37000D01*
X53850Y-38000D02*
X53843Y-38067D01*
X53843Y-38067D02*
X53823Y-38133D01*
X53823Y-38133D02*
X53791Y-38193D01*
X53791Y-38193D02*
X53748Y-38246D01*
X53748Y-38246D02*
X53695Y-38290D01*
X53695Y-38290D02*
X53635Y-38322D01*
X53635Y-38322D02*
X53570Y-38342D01*
X53570Y-38342D02*
X53502Y-38349D01*
X53502Y-38349D02*
X53435Y-38343D01*
X53435Y-38343D02*
X53369Y-38324D01*
X53369Y-38324D02*
X53309Y-38292D01*
X53309Y-38292D02*
X53256Y-38250D01*
X53256Y-38250D02*
X53212Y-38197D01*
X53212Y-38197D02*
X53179Y-38137D01*
X53179Y-38137D02*
X53158Y-38072D01*
X53158Y-38072D02*
X53151Y-38004D01*
X53151Y-38004D02*
X53156Y-37937D01*
X53156Y-37937D02*
X53175Y-37872D01*
X53175Y-37872D02*
X53206Y-37811D01*
X53206Y-37811D02*
X53249Y-37757D01*
X53249Y-37757D02*
X53301Y-37713D01*
X53301Y-37713D02*
X53360Y-37680D01*
X53360Y-37680D02*
X53425Y-37659D01*
X53425Y-37659D02*
X53493Y-37651D01*
X53493Y-37651D02*
X53560Y-37656D01*
X53560Y-37656D02*
X53626Y-37674D01*
X53626Y-37674D02*
X53687Y-37705D01*
X53687Y-37705D02*
X53741Y-37747D01*
X53741Y-37747D02*
X53786Y-37799D01*
X53786Y-37799D02*
X53819Y-37858D01*
X53819Y-37858D02*
X53841Y-37923D01*
X53841Y-37923D02*
X53849Y-37991D01*
X53849Y-37991D02*
X53850Y-38000D01*
X54850Y-38000D02*
X54843Y-38067D01*
X54843Y-38067D02*
X54823Y-38133D01*
X54823Y-38133D02*
X54791Y-38193D01*
X54791Y-38193D02*
X54748Y-38246D01*
X54748Y-38246D02*
X54695Y-38290D01*
X54695Y-38290D02*
X54635Y-38322D01*
X54635Y-38322D02*
X54570Y-38342D01*
X54570Y-38342D02*
X54502Y-38349D01*
X54502Y-38349D02*
X54435Y-38343D01*
X54435Y-38343D02*
X54369Y-38324D01*
X54369Y-38324D02*
X54309Y-38292D01*
X54309Y-38292D02*
X54256Y-38250D01*
X54256Y-38250D02*
X54212Y-38197D01*
X54212Y-38197D02*
X54179Y-38137D01*
X54179Y-38137D02*
X54158Y-38072D01*
X54158Y-38072D02*
X54151Y-38004D01*
X54151Y-38004D02*
X54156Y-37937D01*
X54156Y-37937D02*
X54175Y-37872D01*
X54175Y-37872D02*
X54206Y-37811D01*
X54206Y-37811D02*
X54249Y-37757D01*
X54249Y-37757D02*
X54301Y-37713D01*
X54301Y-37713D02*
X54360Y-37680D01*
X54360Y-37680D02*
X54425Y-37659D01*
X54425Y-37659D02*
X54493Y-37651D01*
X54493Y-37651D02*
X54560Y-37656D01*
X54560Y-37656D02*
X54626Y-37674D01*
X54626Y-37674D02*
X54687Y-37705D01*
X54687Y-37705D02*
X54741Y-37747D01*
X54741Y-37747D02*
X54786Y-37799D01*
X54786Y-37799D02*
X54819Y-37858D01*
X54819Y-37858D02*
X54841Y-37923D01*
X54841Y-37923D02*
X54849Y-37991D01*
X54849Y-37991D02*
X54850Y-38000D01*
X53850Y-39000D02*
X53843Y-39067D01*
X53843Y-39067D02*
X53823Y-39133D01*
X53823Y-39133D02*
X53791Y-39193D01*
X53791Y-39193D02*
X53748Y-39246D01*
X53748Y-39246D02*
X53695Y-39290D01*
X53695Y-39290D02*
X53635Y-39322D01*
X53635Y-39322D02*
X53570Y-39342D01*
X53570Y-39342D02*
X53502Y-39349D01*
X53502Y-39349D02*
X53435Y-39343D01*
X53435Y-39343D02*
X53369Y-39324D01*
X53369Y-39324D02*
X53309Y-39292D01*
X53309Y-39292D02*
X53256Y-39250D01*
X53256Y-39250D02*
X53212Y-39197D01*
X53212Y-39197D02*
X53179Y-39137D01*
X53179Y-39137D02*
X53158Y-39072D01*
X53158Y-39072D02*
X53151Y-39004D01*
X53151Y-39004D02*
X53156Y-38937D01*
X53156Y-38937D02*
X53175Y-38872D01*
X53175Y-38872D02*
X53206Y-38811D01*
X53206Y-38811D02*
X53249Y-38757D01*
X53249Y-38757D02*
X53301Y-38713D01*
X53301Y-38713D02*
X53360Y-38680D01*
X53360Y-38680D02*
X53425Y-38659D01*
X53425Y-38659D02*
X53493Y-38651D01*
X53493Y-38651D02*
X53560Y-38656D01*
X53560Y-38656D02*
X53626Y-38674D01*
X53626Y-38674D02*
X53687Y-38705D01*
X53687Y-38705D02*
X53741Y-38747D01*
X53741Y-38747D02*
X53786Y-38799D01*
X53786Y-38799D02*
X53819Y-38858D01*
X53819Y-38858D02*
X53841Y-38923D01*
X53841Y-38923D02*
X53849Y-38991D01*
X53849Y-38991D02*
X53850Y-39000D01*
X54850Y-39000D02*
X54843Y-39067D01*
X54843Y-39067D02*
X54823Y-39133D01*
X54823Y-39133D02*
X54791Y-39193D01*
X54791Y-39193D02*
X54748Y-39246D01*
X54748Y-39246D02*
X54695Y-39290D01*
X54695Y-39290D02*
X54635Y-39322D01*
X54635Y-39322D02*
X54570Y-39342D01*
X54570Y-39342D02*
X54502Y-39349D01*
X54502Y-39349D02*
X54435Y-39343D01*
X54435Y-39343D02*
X54369Y-39324D01*
X54369Y-39324D02*
X54309Y-39292D01*
X54309Y-39292D02*
X54256Y-39250D01*
X54256Y-39250D02*
X54212Y-39197D01*
X54212Y-39197D02*
X54179Y-39137D01*
X54179Y-39137D02*
X54158Y-39072D01*
X54158Y-39072D02*
X54151Y-39004D01*
X54151Y-39004D02*
X54156Y-38937D01*
X54156Y-38937D02*
X54175Y-38872D01*
X54175Y-38872D02*
X54206Y-38811D01*
X54206Y-38811D02*
X54249Y-38757D01*
X54249Y-38757D02*
X54301Y-38713D01*
X54301Y-38713D02*
X54360Y-38680D01*
X54360Y-38680D02*
X54425Y-38659D01*
X54425Y-38659D02*
X54493Y-38651D01*
X54493Y-38651D02*
X54560Y-38656D01*
X54560Y-38656D02*
X54626Y-38674D01*
X54626Y-38674D02*
X54687Y-38705D01*
X54687Y-38705D02*
X54741Y-38747D01*
X54741Y-38747D02*
X54786Y-38799D01*
X54786Y-38799D02*
X54819Y-38858D01*
X54819Y-38858D02*
X54841Y-38923D01*
X54841Y-38923D02*
X54849Y-38991D01*
X54849Y-38991D02*
X54850Y-39000D01*
M02*
