G04 (created by PCBnew (20090216-final)) date Thu 28 Oct 2010 02:57:48 PM PDT*
G01*
G70*
G90*
%MOIN*%
G04 Gerber Fmt 3.4, Leading zero omitted, Abs format*
%FSLAX34Y34*%
G04 APERTURE LIST*
%ADD10C,0.009000*%
%ADD11C,0.120000*%
%ADD12R,0.065000X0.065000*%
%ADD13C,0.065000*%
%ADD14C,0.130000*%
%ADD15R,0.070000X0.070000*%
%ADD16C,0.070000*%
%ADD17C,0.020000*%
%ADD18C,0.010000*%
%ADD19C,0.005000*%
%ADD20C,0.006000*%
%ADD21C,0.015000*%
%ADD22C,0.012000*%
%ADD23C,0.126000*%
%ADD24R,0.071000X0.071000*%
%ADD25C,0.071000*%
%ADD26C,0.136000*%
%ADD27R,0.076000X0.076000*%
%ADD28C,0.076000*%
G04 APERTURE END LIST*
G54D10*
X37925Y-37875D02*
X37925Y-50375D01*
X77925Y-37875D02*
X37925Y-37875D01*
X77925Y-50375D02*
X77925Y-37875D01*
X37925Y-50375D02*
X77925Y-50375D01*
G54D23*
X74925Y-47875D03*
X70925Y-47875D03*
G54D24*
X72925Y-45875D03*
G54D25*
X73925Y-45875D03*
G54D23*
X74925Y-43875D03*
X64925Y-47875D03*
X60925Y-47875D03*
G54D24*
X62925Y-45875D03*
G54D25*
X63925Y-45875D03*
G54D23*
X64925Y-43875D03*
X54925Y-47875D03*
X50925Y-47875D03*
G54D24*
X52925Y-45875D03*
G54D25*
X53925Y-45875D03*
G54D23*
X54925Y-43875D03*
X44925Y-47875D03*
X40925Y-47875D03*
G54D24*
X42925Y-45875D03*
G54D25*
X43925Y-45875D03*
G54D23*
X44925Y-43875D03*
G54D26*
X47925Y-49125D03*
X47925Y-39125D03*
X67925Y-49125D03*
X67925Y-39125D03*
G54D27*
X55925Y-40375D03*
G54D28*
X55925Y-39375D03*
X56925Y-40375D03*
X56925Y-39375D03*
X57925Y-40375D03*
X57925Y-39375D03*
X58925Y-40375D03*
X58925Y-39375D03*
X59925Y-40375D03*
X59925Y-39375D03*
M02*
