M48
;DRILL file {PCBnew (20090216-final)} date Thu 28 Oct 2010 03:42:09 PM PDT
;FORMAT={2:4/ absolute / inch / suppress trailing zeros}
R,T
VER,1
FMAT,2
INCH,LZ
TCST,OFF
ICI,OFF
ATC,ON
T1C0.035
T2C0.039
T3C0.079
T4C0.120
%
M47
G05
M72
T1
X042925Y-045875
X043925Y-045875
X052925Y-045875
X053925Y-045875
X062925Y-045875
X063925Y-045875
X072925Y-045875
X073925Y-045875
T2
X055925Y-039375
X055925Y-040375
X056925Y-039375
X056925Y-040375
X057925Y-039375
X057925Y-040375
X058925Y-039375
X058925Y-040375
X059925Y-039375
X059925Y-040375
T3
X040925Y-047875
X044925Y-043875
X044925Y-047875
X050925Y-047875
X054925Y-043875
X054925Y-047875
X060925Y-047875
X064925Y-043875
X064925Y-047875
X070925Y-047875
X074925Y-043875
X074925Y-047875
T4
X047925Y-039125
X047925Y-049125
X067925Y-039125
X067925Y-049125
T0
M30
