M48
;DRILL file {PCBnew (20100406 SVN-R2509)-final} date Thu 17 Jun 2010 11:12:09 AM PDT
;FORMAT={2:4/ absolute / inch / suppress trailing zeros}
R,T
VER,1
FMAT,2
INCH,LZ
TCST,OFF
ICI,OFF
ATC,ON
T1C0.025
T2C0.035
T3C0.039
T4C0.079
T5C0.120
%
M47
G05
M72
T1
X046005Y-041485
T2
X0355Y-047
X0355Y-048
T3
X02975Y-034
X02975Y-04
X03075Y-034
X03075Y-04
X03175Y-034
X03175Y-04
X03275Y-034
X03275Y-04
X03375Y-034
X03375Y-04
X03475Y-034
X03475Y-04
X03575Y-034
X03575Y-04
X03675Y-034
X03675Y-04
X03775Y-034
X03775Y-04
X03875Y-034
X03875Y-04
X03975Y-034
X03975Y-04
X04075Y-034
X04075Y-04
X04175Y-034
X04175Y-04
X04275Y-034
X04275Y-04
X0435Y-045
X0435Y-046
X0435Y-047
X0435Y-048
X0435Y-049
X04375Y-034
X04375Y-04
X0445Y-045
X0445Y-046
X0445Y-047
X0445Y-048
X0445Y-049
X04475Y-034
X04475Y-04
X04575Y-034
X04575Y-04
X04675Y-034
X04675Y-04
X04775Y-034
X04775Y-04
X04875Y-034
X04875Y-04
X0535Y-035
X0535Y-036
X0535Y-037
X0535Y-038
X0535Y-039
X0535Y-045
X0535Y-046
X0535Y-047
X0535Y-048
X0535Y-049
X0545Y-035
X0545Y-036
X0545Y-037
X0545Y-038
X0545Y-039
X0545Y-045
X0545Y-046
X0545Y-047
X0545Y-048
X0545Y-049
T4
X0335Y-045
X0335Y-049
X0375Y-049
T5
X03025Y-032
X03025Y-052
X039Y-032
X039Y-052
X049Y-032
X049Y-052
X05775Y-032
X05775Y-052
T0
M30
