G04 (created by PCBNEW-RS274X (20100406 SVN-R2509)-final) date Thu 17 Jun 2010 11:12:04 AM PDT*
G01*
G70*
G90*
%MOIN*%
G04 Gerber Fmt 3.4, Leading zero omitted, Abs format*
%FSLAX34Y34*%
G04 APERTURE LIST*
%ADD10C,0.001000*%
%ADD11C,0.009000*%
%ADD12C,0.126000*%
%ADD13R,0.071000X0.071000*%
%ADD14C,0.071000*%
%ADD15C,0.075000*%
%ADD16R,0.075000X0.075000*%
%ADD17C,0.136000*%
%ADD18R,0.076000X0.076000*%
%ADD19C,0.076000*%
G04 APERTURE END LIST*
G54D10*
G54D11*
X59000Y-30750D02*
X29000Y-30750D01*
X59000Y-53250D02*
X59000Y-30750D01*
X29000Y-53250D02*
X59000Y-53250D01*
X29000Y-30750D02*
X29000Y-53250D01*
G54D12*
X33500Y-49000D03*
X33500Y-45000D03*
G54D13*
X35500Y-47000D03*
G54D14*
X35500Y-48000D03*
G54D12*
X37500Y-49000D03*
G54D15*
X29750Y-34000D03*
X30750Y-34000D03*
X31750Y-34000D03*
X32750Y-34000D03*
X33750Y-34000D03*
X34750Y-34000D03*
X35750Y-34000D03*
X36750Y-34000D03*
X37750Y-34000D03*
X38750Y-34000D03*
X39750Y-34000D03*
X40750Y-34000D03*
X41750Y-34000D03*
X42750Y-34000D03*
X48750Y-34000D03*
X47750Y-34000D03*
X46750Y-34000D03*
X45750Y-34000D03*
X44750Y-34000D03*
X43750Y-34000D03*
G54D16*
X29750Y-40000D03*
G54D15*
X30750Y-40000D03*
X31750Y-40000D03*
X32750Y-40000D03*
X33750Y-40000D03*
X34750Y-40000D03*
X35750Y-40000D03*
X36750Y-40000D03*
X37750Y-40000D03*
X38750Y-40000D03*
X39750Y-40000D03*
X40750Y-40000D03*
X41750Y-40000D03*
X42750Y-40000D03*
X43750Y-40000D03*
X44750Y-40000D03*
X45750Y-40000D03*
X46750Y-40000D03*
X47750Y-40000D03*
X48750Y-40000D03*
G54D17*
X30250Y-32000D03*
X30250Y-52000D03*
X39000Y-52000D03*
X39000Y-32000D03*
X49000Y-32000D03*
X49000Y-52000D03*
X57750Y-32000D03*
X57750Y-52000D03*
G54D18*
X43500Y-45000D03*
G54D19*
X44500Y-45000D03*
X43500Y-46000D03*
X44500Y-46000D03*
X43500Y-47000D03*
X44500Y-47000D03*
X43500Y-48000D03*
X44500Y-48000D03*
X43500Y-49000D03*
X44500Y-49000D03*
G54D18*
X53500Y-45000D03*
G54D19*
X54500Y-45000D03*
X53500Y-46000D03*
X54500Y-46000D03*
X53500Y-47000D03*
X54500Y-47000D03*
X53500Y-48000D03*
X54500Y-48000D03*
X53500Y-49000D03*
X54500Y-49000D03*
G54D18*
X53500Y-35000D03*
G54D19*
X54500Y-35000D03*
X53500Y-36000D03*
X54500Y-36000D03*
X53500Y-37000D03*
X54500Y-37000D03*
X53500Y-38000D03*
X54500Y-38000D03*
X53500Y-39000D03*
X54500Y-39000D03*
M02*
