G04 (created by PCBnew (20090216-final)) date Thu 28 Oct 2010 04:25:38 PM PDT*
G01*
G70*
G90*
%MOIN*%
G04 Gerber Fmt 3.4, Leading zero omitted, Abs format*
%FSLAX34Y34*%
G04 APERTURE LIST*
%ADD10C,0.009000*%
%ADD11C,0.050000*%
%ADD12R,0.070000X0.070000*%
%ADD13C,0.070000*%
%ADD14C,0.060000*%
%ADD15R,0.060000X0.060000*%
%ADD16C,0.120000*%
%ADD17R,0.065000X0.065000*%
%ADD18C,0.065000*%
%ADD19C,0.130000*%
%ADD20C,0.025000*%
%ADD21C,0.045000*%
%ADD22C,0.015000*%
%ADD23C,0.010000*%
%ADD24R,0.055100X0.017700*%
%ADD25R,0.017700X0.055100*%
%ADD26R,0.035000X0.055000*%
%ADD27R,0.055000X0.035000*%
%ADD28R,0.086600X0.098400*%
%ADD29R,0.078700X0.019700*%
%ADD30C,0.005000*%
%ADD31C,0.012000*%
%ADD32C,0.008100*%
%ADD33C,0.006000*%
%ADD34C,0.007900*%
%ADD35C,0.008000*%
%ADD36R,0.090000X0.090000*%
%ADD37C,0.090000*%
%ADD38C,0.080000*%
%ADD39R,0.080000X0.080000*%
%ADD40C,0.140000*%
%ADD41R,0.085000X0.085000*%
%ADD42C,0.085000*%
%ADD43C,0.150000*%
G04 APERTURE END LIST*
G54D10*
X40000Y-10000D02*
X40000Y-32500D01*
X10000Y-32500D02*
X40000Y-32500D01*
X10000Y-10000D02*
X40000Y-10000D01*
X10000Y-10000D02*
X10000Y-32500D01*
G54D13*
X24905Y-12000D03*
X26825Y-12000D03*
G54D36*
X37600Y-19250D03*
G54D37*
X38600Y-19250D03*
X37600Y-20250D03*
X38600Y-20250D03*
X37600Y-21250D03*
X38600Y-21250D03*
X37600Y-22250D03*
X38600Y-22250D03*
X37600Y-23250D03*
X38600Y-23250D03*
G54D36*
X35250Y-30050D03*
G54D37*
X35250Y-31050D03*
X34250Y-30050D03*
X34250Y-31050D03*
X33250Y-30050D03*
X33250Y-31050D03*
X32250Y-30050D03*
X32250Y-31050D03*
X31250Y-30050D03*
X31250Y-31050D03*
G54D36*
X25150Y-30050D03*
G54D37*
X25150Y-31050D03*
X24150Y-30050D03*
X24150Y-31050D03*
X23150Y-30050D03*
X23150Y-31050D03*
X22150Y-30050D03*
X22150Y-31050D03*
X21150Y-30050D03*
X21150Y-31050D03*
G54D38*
X17220Y-11114D03*
X17220Y-12886D03*
X19780Y-11114D03*
X19780Y-12886D03*
X13220Y-11114D03*
X13220Y-12886D03*
X15780Y-11114D03*
X15780Y-12886D03*
G54D39*
X32000Y-12500D03*
G54D38*
X32000Y-11500D03*
X33000Y-12500D03*
X33000Y-11500D03*
X34000Y-12500D03*
X34000Y-11500D03*
X35000Y-12500D03*
X35000Y-11500D03*
X36000Y-12500D03*
X36000Y-11500D03*
G54D13*
X12166Y-15561D03*
X12166Y-16939D03*
G54D40*
X12600Y-28250D03*
X12600Y-24250D03*
G54D41*
X14600Y-26250D03*
G54D42*
X14600Y-27250D03*
G54D40*
X16600Y-28250D03*
G54D43*
X38750Y-11250D03*
X11250Y-11250D03*
X11250Y-31250D03*
X38750Y-31250D03*
M02*
