G04 (created by PCBnew (20090216-final)) date Thu 28 Oct 2010 04:25:38 PM PDT*
G01*
G70*
G90*
%MOIN*%
G04 Gerber Fmt 3.4, Leading zero omitted, Abs format*
%FSLAX34Y34*%
G04 APERTURE LIST*
%ADD10C,0.009000*%
%ADD11C,0.050000*%
%ADD12R,0.070000X0.070000*%
%ADD13C,0.070000*%
%ADD14C,0.060000*%
%ADD15R,0.060000X0.060000*%
%ADD16C,0.120000*%
%ADD17R,0.065000X0.065000*%
%ADD18C,0.065000*%
%ADD19C,0.130000*%
%ADD20C,0.025000*%
%ADD21C,0.045000*%
%ADD22C,0.015000*%
%ADD23C,0.010000*%
%ADD24R,0.055100X0.017700*%
%ADD25R,0.017700X0.055100*%
%ADD26R,0.035000X0.055000*%
%ADD27R,0.055000X0.035000*%
%ADD28R,0.086600X0.098400*%
%ADD29R,0.078700X0.019700*%
G04 APERTURE END LIST*
G54D10*
X40000Y-10000D02*
X40000Y-32500D01*
X10000Y-32500D02*
X40000Y-32500D01*
X10000Y-10000D02*
X40000Y-10000D01*
X10000Y-10000D02*
X10000Y-32500D01*
G54D24*
X22519Y-17753D03*
X22519Y-17438D03*
X22519Y-18068D03*
X22519Y-18383D03*
X22519Y-18698D03*
X22519Y-19013D03*
X22519Y-19328D03*
X22519Y-19643D03*
X22519Y-22162D03*
X22519Y-21847D03*
X22519Y-21532D03*
X22519Y-21217D03*
X22519Y-20902D03*
X22519Y-20587D03*
X22519Y-20272D03*
X22519Y-19957D03*
G54D25*
X27912Y-16768D03*
X27597Y-16768D03*
X27282Y-16768D03*
X26967Y-16768D03*
X26652Y-16768D03*
X26337Y-16768D03*
X26022Y-16768D03*
X23188Y-16768D03*
X23503Y-16768D03*
X23818Y-16768D03*
X24133Y-16768D03*
X24448Y-16768D03*
X24763Y-16768D03*
X25078Y-16768D03*
X25393Y-16768D03*
X25707Y-16768D03*
X25707Y-22831D03*
X25393Y-22831D03*
X25078Y-22831D03*
X24763Y-22831D03*
X24448Y-22831D03*
X24133Y-22831D03*
X23818Y-22831D03*
X23503Y-22831D03*
X23188Y-22831D03*
X26022Y-22831D03*
X26337Y-22831D03*
X26652Y-22831D03*
X26967Y-22831D03*
X27282Y-22831D03*
X27597Y-22831D03*
X27912Y-22831D03*
G54D24*
X28581Y-19957D03*
X28581Y-20272D03*
X28581Y-20587D03*
X28581Y-20902D03*
X28581Y-21217D03*
X28581Y-21532D03*
X28581Y-21847D03*
X28581Y-22162D03*
X28581Y-19643D03*
X28581Y-19328D03*
X28581Y-19013D03*
X28581Y-18698D03*
X28581Y-18383D03*
X28581Y-18068D03*
X28581Y-17438D03*
X28581Y-17753D03*
G54D11*
X24905Y-12000D03*
X26825Y-12000D03*
G54D12*
X37600Y-19250D03*
G54D13*
X38600Y-19250D03*
X37600Y-20250D03*
X38600Y-20250D03*
X37600Y-21250D03*
X38600Y-21250D03*
X37600Y-22250D03*
X38600Y-22250D03*
X37600Y-23250D03*
X38600Y-23250D03*
G54D12*
X35250Y-30050D03*
G54D13*
X35250Y-31050D03*
X34250Y-30050D03*
X34250Y-31050D03*
X33250Y-30050D03*
X33250Y-31050D03*
X32250Y-30050D03*
X32250Y-31050D03*
X31250Y-30050D03*
X31250Y-31050D03*
G54D12*
X25150Y-30050D03*
G54D13*
X25150Y-31050D03*
X24150Y-30050D03*
X24150Y-31050D03*
X23150Y-30050D03*
X23150Y-31050D03*
X22150Y-30050D03*
X22150Y-31050D03*
X21150Y-30050D03*
X21150Y-31050D03*
G54D14*
X17220Y-11114D03*
X17220Y-12886D03*
X19780Y-11114D03*
X19780Y-12886D03*
X13220Y-11114D03*
X13220Y-12886D03*
X15780Y-11114D03*
X15780Y-12886D03*
G54D15*
X32000Y-12500D03*
G54D14*
X32000Y-11500D03*
X33000Y-12500D03*
X33000Y-11500D03*
X34000Y-12500D03*
X34000Y-11500D03*
X35000Y-12500D03*
X35000Y-11500D03*
X36000Y-12500D03*
X36000Y-11500D03*
G54D26*
X14075Y-20000D03*
X13325Y-20000D03*
X14075Y-21500D03*
X13325Y-21500D03*
X17075Y-17775D03*
X16325Y-17775D03*
X17075Y-16740D03*
X16325Y-16740D03*
X19515Y-14595D03*
X20265Y-14595D03*
X15810Y-14565D03*
X16560Y-14565D03*
X12175Y-20000D03*
X11425Y-20000D03*
X12175Y-21500D03*
X11425Y-21500D03*
G54D27*
X27550Y-24375D03*
X27550Y-25125D03*
X28750Y-24375D03*
X28750Y-25125D03*
G54D26*
X28475Y-15520D03*
X29225Y-15520D03*
X22555Y-24440D03*
X23305Y-24440D03*
G54D27*
X29665Y-22340D03*
X29665Y-23090D03*
G54D26*
X26855Y-14250D03*
X27605Y-14250D03*
X24875Y-14250D03*
X24125Y-14250D03*
X30955Y-19665D03*
X31705Y-19665D03*
G54D27*
X14300Y-15175D03*
X14300Y-14425D03*
G54D28*
X10867Y-17904D03*
X10867Y-14596D03*
X12954Y-17904D03*
X12954Y-14596D03*
G54D29*
X13052Y-15620D03*
X13052Y-15935D03*
X13052Y-16250D03*
X13052Y-16565D03*
X13052Y-16880D03*
G54D11*
X12166Y-15561D03*
X12166Y-16939D03*
G54D16*
X12600Y-28250D03*
X12600Y-24250D03*
G54D17*
X14600Y-26250D03*
G54D18*
X14600Y-27250D03*
G54D16*
X16600Y-28250D03*
G54D19*
X38750Y-11250D03*
X11250Y-11250D03*
X11250Y-31250D03*
X38750Y-31250D03*
G54D27*
X29840Y-19320D03*
X29840Y-18570D03*
G54D20*
X21300Y-18390D03*
X20680Y-18705D03*
X20140Y-19025D03*
X21245Y-20590D03*
X21075Y-14985D03*
X21330Y-13740D03*
X26955Y-15915D03*
X17320Y-14565D03*
G54D21*
X11900Y-12850D03*
X16860Y-21900D03*
G54D20*
X16575Y-30405D03*
G54D21*
X15050Y-15945D03*
X15040Y-19385D03*
X28770Y-29970D03*
X19875Y-29385D03*
X31150Y-24810D03*
X28760Y-26230D03*
X32985Y-19625D03*
X29900Y-15525D03*
X27555Y-26245D03*
X16005Y-30985D03*
X32800Y-26875D03*
X35220Y-17415D03*
X33570Y-26105D03*
X34035Y-25215D03*
X35970Y-13935D03*
X35580Y-23985D03*
G54D20*
X29720Y-20900D03*
X24505Y-15895D03*
X30285Y-21420D03*
X24790Y-15455D03*
G54D22*
X14075Y-21500D02*
X14980Y-21500D01*
X19042Y-17438D02*
X22519Y-17438D01*
X14980Y-21500D02*
X19042Y-17438D01*
X21307Y-18383D02*
X22519Y-18383D01*
X21300Y-18390D02*
X21307Y-18383D01*
X20687Y-18698D02*
X22519Y-18698D01*
X20680Y-18705D02*
X20687Y-18698D01*
X20152Y-19013D02*
X22519Y-19013D01*
X20140Y-19025D02*
X20152Y-19013D01*
X20265Y-14595D02*
X20685Y-14595D01*
X21248Y-20587D02*
X22519Y-20587D01*
X21245Y-20590D02*
X21248Y-20587D01*
X20685Y-14595D02*
X21075Y-14985D01*
X20265Y-14595D02*
X21045Y-14595D01*
X21330Y-14310D02*
X21330Y-13740D01*
X21045Y-14595D02*
X21330Y-14310D01*
X24150Y-30050D02*
X24150Y-29710D01*
X34250Y-29910D02*
X34250Y-30050D01*
X33710Y-29370D02*
X34250Y-29910D01*
X25780Y-29370D02*
X33710Y-29370D01*
X25580Y-29170D02*
X25780Y-29370D01*
X24690Y-29170D02*
X25580Y-29170D01*
X24150Y-29710D02*
X24690Y-29170D01*
X14600Y-26250D02*
X14600Y-23425D01*
X17428Y-19957D02*
X22519Y-19957D01*
X16715Y-20670D02*
X17428Y-19957D01*
X16715Y-21310D02*
X16715Y-20670D01*
X14600Y-23425D02*
X16715Y-21310D01*
X21150Y-30050D02*
X16925Y-30050D01*
X15040Y-26250D02*
X14600Y-26250D01*
X15310Y-26520D02*
X15040Y-26250D01*
X15310Y-28435D02*
X15310Y-26520D01*
X16925Y-30050D02*
X15310Y-28435D01*
X23150Y-30050D02*
X24150Y-30050D01*
X22150Y-30050D02*
X23150Y-30050D01*
X21150Y-30050D02*
X22150Y-30050D01*
X26967Y-15927D02*
X26967Y-16768D01*
X26955Y-15915D02*
X26967Y-15927D01*
X16560Y-14565D02*
X17320Y-14565D01*
X26652Y-16768D02*
X26652Y-15698D01*
X26652Y-15698D02*
X26830Y-15520D01*
X26830Y-15520D02*
X28475Y-15520D01*
X29665Y-22340D02*
X33010Y-22340D01*
X33010Y-22340D02*
X36240Y-19110D01*
X29840Y-19320D02*
X30465Y-19320D01*
X30465Y-19320D02*
X30675Y-19110D01*
X30675Y-19110D02*
X36240Y-19110D01*
X37460Y-19110D02*
X37600Y-19250D01*
X36240Y-19110D02*
X37460Y-19110D01*
X22555Y-24440D02*
X19400Y-24440D01*
X19400Y-24440D02*
X16860Y-21900D01*
X22555Y-24440D02*
X22555Y-24085D01*
X24133Y-23377D02*
X24133Y-22831D01*
X23785Y-23725D02*
X24133Y-23377D01*
X22915Y-23725D02*
X23785Y-23725D01*
X22555Y-24085D02*
X22915Y-23725D01*
X16575Y-30405D02*
X17925Y-31755D01*
X17925Y-31755D02*
X27590Y-31755D01*
X27590Y-31755D02*
X27640Y-31805D01*
X27640Y-31805D02*
X27640Y-31755D01*
X28475Y-15520D02*
X28475Y-15385D01*
X33000Y-11130D02*
X33000Y-11500D01*
X32610Y-10740D02*
X33000Y-11130D01*
X31635Y-10740D02*
X32610Y-10740D01*
X31290Y-11085D02*
X31635Y-10740D01*
X31290Y-13665D02*
X31290Y-11085D01*
X30135Y-14820D02*
X31290Y-13665D01*
X29040Y-14820D02*
X30135Y-14820D01*
X28475Y-15385D02*
X29040Y-14820D01*
X29665Y-22340D02*
X29305Y-22340D01*
X28750Y-23905D02*
X28750Y-24375D01*
X29100Y-23555D02*
X28750Y-23905D01*
X29100Y-22545D02*
X29100Y-23555D01*
X29305Y-22340D02*
X29100Y-22545D01*
X14300Y-15175D02*
X14300Y-15195D01*
X14300Y-15195D02*
X15050Y-15945D01*
X14425Y-20000D02*
X14075Y-20000D01*
X15040Y-19385D02*
X14425Y-20000D01*
X38005Y-30050D02*
X37920Y-30050D01*
X37920Y-30050D02*
X36215Y-31755D01*
X36215Y-31755D02*
X27640Y-31755D01*
X25850Y-30050D02*
X25150Y-30050D01*
X27640Y-31755D02*
X27555Y-31755D01*
X27555Y-31755D02*
X25850Y-30050D01*
X35250Y-30050D02*
X38005Y-30050D01*
X39375Y-18300D02*
X37600Y-18300D01*
X39500Y-18425D02*
X39375Y-18300D01*
X39500Y-28555D02*
X39500Y-18425D01*
X38005Y-30050D02*
X39500Y-28555D01*
X35000Y-12500D02*
X35000Y-15675D01*
X37600Y-18275D02*
X37600Y-18300D01*
X37600Y-18300D02*
X37600Y-19250D01*
X35000Y-15675D02*
X37600Y-18275D01*
X33000Y-11500D02*
X33000Y-11540D01*
X33000Y-11540D02*
X33455Y-11995D01*
X33455Y-11995D02*
X34495Y-11995D01*
X34495Y-11995D02*
X35000Y-12500D01*
X28581Y-21532D02*
X29192Y-21532D01*
X29665Y-22005D02*
X29665Y-22340D01*
X29192Y-21532D02*
X29665Y-22005D01*
X27912Y-22831D02*
X27912Y-23267D01*
X27912Y-23267D02*
X28750Y-24105D01*
X28750Y-24105D02*
X28750Y-24375D01*
X28581Y-19957D02*
X29393Y-19957D01*
X29840Y-19510D02*
X29840Y-19320D01*
X29393Y-19957D02*
X29840Y-19510D01*
X15810Y-14565D02*
X15810Y-14050D01*
X18860Y-14595D02*
X19515Y-14595D01*
X18190Y-13925D02*
X18860Y-14595D01*
X15935Y-13925D02*
X18190Y-13925D01*
X15810Y-14050D02*
X15935Y-13925D01*
X14300Y-15175D02*
X14960Y-15175D01*
X15570Y-14565D02*
X15810Y-14565D01*
X14960Y-15175D02*
X15570Y-14565D01*
X13052Y-15620D02*
X13855Y-15620D01*
X13855Y-15620D02*
X14300Y-15175D01*
X26337Y-16768D02*
X26337Y-15543D01*
X27605Y-14755D02*
X27605Y-14250D01*
X27360Y-15000D02*
X27605Y-14755D01*
X26880Y-15000D02*
X27360Y-15000D01*
X26337Y-15543D02*
X26880Y-15000D01*
X29850Y-31050D02*
X31250Y-31050D01*
X28770Y-29970D02*
X29850Y-31050D01*
X28581Y-20587D02*
X32023Y-20587D01*
X32023Y-20587D02*
X32985Y-19625D01*
X23305Y-24440D02*
X23305Y-24830D01*
X19875Y-26985D02*
X19875Y-29385D01*
X20835Y-26025D02*
X19875Y-26985D01*
X22110Y-26025D02*
X20835Y-26025D01*
X23305Y-24830D02*
X22110Y-26025D01*
X23305Y-24440D02*
X23500Y-24440D01*
X24448Y-23492D02*
X24448Y-22831D01*
X23500Y-24440D02*
X24448Y-23492D01*
X28760Y-26230D02*
X29730Y-26230D01*
X29730Y-26230D02*
X31150Y-24810D01*
X29840Y-18570D02*
X29840Y-15585D01*
X29840Y-15585D02*
X29900Y-15525D01*
X29665Y-23090D02*
X29665Y-23330D01*
X29665Y-23330D02*
X31145Y-24810D01*
X31145Y-24810D02*
X31150Y-24810D01*
X28750Y-25125D02*
X28750Y-26220D01*
X28750Y-26220D02*
X28760Y-26230D01*
X31705Y-19665D02*
X32945Y-19665D01*
X32945Y-19665D02*
X32985Y-19625D01*
X27597Y-22831D02*
X27597Y-23482D01*
X28170Y-24055D02*
X28170Y-25125D01*
X27597Y-23482D02*
X28170Y-24055D01*
X29895Y-15520D02*
X29225Y-15520D01*
X29900Y-15525D02*
X29895Y-15520D01*
X14065Y-13825D02*
X14065Y-13115D01*
X16634Y-12300D02*
X17220Y-12886D01*
X14880Y-12300D02*
X16634Y-12300D01*
X14065Y-13115D02*
X14880Y-12300D01*
X28170Y-25125D02*
X27550Y-25125D01*
X27550Y-26240D02*
X27550Y-25125D01*
X27555Y-26245D02*
X27550Y-26240D01*
X14600Y-27250D02*
X14600Y-29580D01*
X14600Y-29580D02*
X16005Y-30985D01*
X11425Y-21500D02*
X11425Y-25645D01*
X13030Y-27250D02*
X14600Y-27250D01*
X11425Y-25645D02*
X13030Y-27250D01*
X11425Y-20000D02*
X11425Y-19505D01*
X14140Y-18320D02*
X14140Y-17485D01*
X13685Y-18775D02*
X14140Y-18320D01*
X12155Y-18775D02*
X13685Y-18775D01*
X11425Y-19505D02*
X12155Y-18775D01*
X11425Y-21500D02*
X11425Y-20000D01*
X27605Y-14250D02*
X28555Y-14250D01*
X23040Y-10485D02*
X21375Y-12150D01*
X28030Y-10485D02*
X23040Y-10485D01*
X29040Y-11495D02*
X28030Y-10485D01*
X29040Y-13765D02*
X29040Y-11495D01*
X28555Y-14250D02*
X29040Y-13765D01*
X17220Y-12886D02*
X17864Y-12886D01*
X17864Y-12886D02*
X18600Y-12150D01*
X18600Y-12150D02*
X21375Y-12150D01*
X23475Y-14250D02*
X24125Y-14250D01*
X21375Y-12150D02*
X23475Y-14250D01*
X12281Y-13825D02*
X14065Y-13825D01*
X14300Y-14060D02*
X14300Y-14425D01*
X14065Y-13825D02*
X14300Y-14060D01*
X12954Y-17904D02*
X12239Y-17904D01*
X11975Y-14131D02*
X12281Y-13825D01*
X12281Y-13825D02*
X13220Y-12886D01*
X11975Y-14910D02*
X11975Y-14131D01*
X11470Y-15415D02*
X11975Y-14910D01*
X11470Y-17135D02*
X11470Y-15415D01*
X12239Y-17904D02*
X11470Y-17135D01*
X13052Y-16880D02*
X13715Y-16880D01*
X14140Y-17305D02*
X14140Y-17485D01*
X13715Y-16880D02*
X14140Y-17305D01*
X13951Y-17904D02*
X12954Y-17904D01*
X14140Y-17715D02*
X13951Y-17904D01*
X14140Y-17485D02*
X14140Y-17715D01*
X26855Y-14250D02*
X26022Y-14250D01*
X26022Y-14250D02*
X26030Y-14250D01*
X26030Y-14250D02*
X26022Y-14250D01*
X26825Y-12000D02*
X26825Y-12120D01*
X26022Y-12923D02*
X26022Y-14250D01*
X26022Y-14250D02*
X26022Y-16768D01*
X26825Y-12120D02*
X26022Y-12923D01*
X24875Y-14250D02*
X25657Y-14250D01*
X25657Y-14250D02*
X25707Y-14200D01*
X24905Y-12000D02*
X24905Y-12135D01*
X25707Y-12937D02*
X25707Y-14200D01*
X25707Y-14200D02*
X25707Y-16768D01*
X24905Y-12135D02*
X25707Y-12937D01*
X32000Y-12500D02*
X32000Y-12815D01*
X25707Y-27162D02*
X25707Y-22831D01*
X26495Y-27950D02*
X25707Y-27162D01*
X31725Y-27950D02*
X26495Y-27950D01*
X32800Y-26875D02*
X31725Y-27950D01*
X35220Y-16515D02*
X35220Y-17415D01*
X33480Y-14775D02*
X35220Y-16515D01*
X33480Y-14295D02*
X33480Y-14775D01*
X32000Y-12815D02*
X33480Y-14295D01*
X25393Y-22831D02*
X25393Y-27283D01*
X33570Y-28035D02*
X33570Y-26105D01*
X33285Y-28320D02*
X33570Y-28035D01*
X26430Y-28320D02*
X33285Y-28320D01*
X25393Y-27283D02*
X26430Y-28320D01*
X25078Y-22831D02*
X25078Y-27498D01*
X34035Y-28470D02*
X34035Y-25215D01*
X33875Y-28630D02*
X34035Y-28470D01*
X26210Y-28630D02*
X33875Y-28630D01*
X25078Y-27498D02*
X26210Y-28630D01*
X24763Y-22831D02*
X24763Y-27723D01*
X36000Y-13905D02*
X36000Y-12500D01*
X35970Y-13935D02*
X36000Y-13905D01*
X35580Y-27480D02*
X35580Y-23985D01*
X34090Y-28970D02*
X35580Y-27480D01*
X26010Y-28970D02*
X34090Y-28970D01*
X24763Y-27723D02*
X26010Y-28970D01*
X37600Y-23250D02*
X35220Y-23250D01*
X26022Y-26892D02*
X26022Y-22831D01*
X26780Y-27650D02*
X26022Y-26892D01*
X30820Y-27650D02*
X26780Y-27650D01*
X35220Y-23250D02*
X30820Y-27650D01*
X26337Y-22831D02*
X26337Y-26682D01*
X35635Y-22250D02*
X37600Y-22250D01*
X30535Y-27350D02*
X35635Y-22250D01*
X27005Y-27350D02*
X30535Y-27350D01*
X26337Y-26682D02*
X27005Y-27350D01*
X37600Y-21250D02*
X36050Y-21250D01*
X26652Y-26412D02*
X26652Y-22831D01*
X27250Y-27010D02*
X26652Y-26412D01*
X30290Y-27010D02*
X27250Y-27010D01*
X36050Y-21250D02*
X30290Y-27010D01*
X37600Y-20250D02*
X36520Y-20250D01*
X26967Y-26322D02*
X26967Y-22831D01*
X27335Y-26690D02*
X26967Y-26322D01*
X30080Y-26690D02*
X27335Y-26690D01*
X36520Y-20250D02*
X30080Y-26690D01*
X27550Y-24375D02*
X27550Y-23920D01*
X27282Y-23652D02*
X27282Y-22831D01*
X27550Y-23920D02*
X27282Y-23652D01*
X30955Y-19665D02*
X30505Y-19665D01*
X29898Y-20272D02*
X28581Y-20272D01*
X30505Y-19665D02*
X29898Y-20272D01*
X17075Y-17775D02*
X17075Y-17695D01*
X29408Y-20902D02*
X28581Y-20902D01*
X29720Y-20900D02*
X29408Y-20902D01*
X18875Y-15895D02*
X24505Y-15895D01*
X17075Y-17695D02*
X18875Y-15895D01*
X17075Y-16740D02*
X17545Y-16740D01*
X30082Y-21217D02*
X28581Y-21217D01*
X30285Y-21420D02*
X30082Y-21217D01*
X18830Y-15455D02*
X24790Y-15455D01*
X17545Y-16740D02*
X18830Y-15455D01*
X13325Y-20000D02*
X12175Y-20000D01*
X13325Y-21500D02*
X12175Y-21500D01*
X13052Y-16250D02*
X13625Y-16250D01*
X15150Y-17775D02*
X16325Y-17775D01*
X13625Y-16250D02*
X15150Y-17775D01*
X13052Y-15935D02*
X14020Y-15935D01*
X14825Y-16740D02*
X16325Y-16740D01*
X14020Y-15935D02*
X14825Y-16740D01*
G54D23*
X11549Y-14805D02*
X11620Y-14805D01*
X11549Y-14725D02*
X11650Y-14725D01*
X11549Y-14645D02*
X11650Y-14645D01*
X11549Y-14565D02*
X11650Y-14565D01*
X11549Y-14485D02*
X11650Y-14485D01*
X11549Y-14405D02*
X11650Y-14405D01*
X11549Y-14325D02*
X11650Y-14325D01*
X11549Y-14245D02*
X11650Y-14245D01*
X11549Y-14165D02*
X11650Y-14165D01*
X11549Y-14085D02*
X11660Y-14085D01*
X11529Y-14005D02*
X11677Y-14005D01*
X11473Y-13925D02*
X11730Y-13925D01*
X10245Y-13925D02*
X10261Y-13925D01*
X10245Y-13845D02*
X11801Y-13845D01*
X10245Y-13765D02*
X11881Y-13765D01*
X10245Y-13685D02*
X11961Y-13685D01*
X10245Y-13605D02*
X12041Y-13605D01*
X10245Y-13525D02*
X12121Y-13525D01*
X10245Y-13445D02*
X12201Y-13445D01*
X10245Y-13365D02*
X12281Y-13365D01*
X10245Y-13285D02*
X12361Y-13285D01*
X10245Y-13205D02*
X12441Y-13205D01*
X10245Y-13125D02*
X12521Y-13125D01*
X10245Y-13045D02*
X12601Y-13045D01*
X13769Y-12965D02*
X13782Y-12965D01*
X10245Y-12965D02*
X12671Y-12965D01*
X13769Y-12885D02*
X13835Y-12885D01*
X10245Y-12885D02*
X12671Y-12885D01*
X13769Y-12805D02*
X13915Y-12805D01*
X10245Y-12805D02*
X12671Y-12805D01*
X13748Y-12725D02*
X13995Y-12725D01*
X10245Y-12725D02*
X12693Y-12725D01*
X13715Y-12645D02*
X14075Y-12645D01*
X10245Y-12645D02*
X12726Y-12645D01*
X13675Y-12565D02*
X14155Y-12565D01*
X10245Y-12565D02*
X12765Y-12565D01*
X17595Y-12485D02*
X17805Y-12485D01*
X13595Y-12485D02*
X14235Y-12485D01*
X10245Y-12485D02*
X12845Y-12485D01*
X17493Y-12405D02*
X17885Y-12405D01*
X13493Y-12405D02*
X14315Y-12405D01*
X10245Y-12405D02*
X12948Y-12405D01*
X17119Y-12325D02*
X17965Y-12325D01*
X10245Y-12325D02*
X14395Y-12325D01*
X17039Y-12245D02*
X18045Y-12245D01*
X10245Y-12245D02*
X14475Y-12245D01*
X16959Y-12165D02*
X18125Y-12165D01*
X10245Y-12165D02*
X14555Y-12165D01*
X16879Y-12085D02*
X18205Y-12085D01*
X11585Y-12085D02*
X14635Y-12085D01*
X10245Y-12085D02*
X10914Y-12085D01*
X16766Y-12005D02*
X18285Y-12005D01*
X11767Y-12005D02*
X14749Y-12005D01*
X10245Y-12005D02*
X10732Y-12005D01*
X11847Y-11925D02*
X18365Y-11925D01*
X10245Y-11925D02*
X10652Y-11925D01*
X11927Y-11845D02*
X18501Y-11845D01*
X10245Y-11845D02*
X10572Y-11845D01*
X12007Y-11765D02*
X21300Y-11765D01*
X10245Y-11765D02*
X10492Y-11765D01*
X12043Y-11685D02*
X21380Y-11685D01*
X10245Y-11685D02*
X10456Y-11685D01*
X20028Y-11605D02*
X21460Y-11605D01*
X17468Y-11605D02*
X19531Y-11605D01*
X16028Y-11605D02*
X16971Y-11605D01*
X13468Y-11605D02*
X15531Y-11605D01*
X12077Y-11605D02*
X12971Y-11605D01*
X10245Y-11605D02*
X10423Y-11605D01*
X20145Y-11525D02*
X21540Y-11525D01*
X17585Y-11525D02*
X19415Y-11525D01*
X16145Y-11525D02*
X16855Y-11525D01*
X13585Y-11525D02*
X15415Y-11525D01*
X12110Y-11525D02*
X12855Y-11525D01*
X10245Y-11525D02*
X10390Y-11525D01*
X20225Y-11445D02*
X21620Y-11445D01*
X17665Y-11445D02*
X19335Y-11445D01*
X16225Y-11445D02*
X16775Y-11445D01*
X13665Y-11445D02*
X15335Y-11445D01*
X12143Y-11445D02*
X12775Y-11445D01*
X10245Y-11445D02*
X10357Y-11445D01*
X20269Y-11365D02*
X21700Y-11365D01*
X17709Y-11365D02*
X19290Y-11365D01*
X16269Y-11365D02*
X16730Y-11365D01*
X13709Y-11365D02*
X15290Y-11365D01*
X12150Y-11365D02*
X12730Y-11365D01*
X10245Y-11365D02*
X10350Y-11365D01*
X20303Y-11285D02*
X21780Y-11285D01*
X17743Y-11285D02*
X19256Y-11285D01*
X16303Y-11285D02*
X16696Y-11285D01*
X13743Y-11285D02*
X15256Y-11285D01*
X12150Y-11285D02*
X12696Y-11285D01*
X10245Y-11285D02*
X10350Y-11285D01*
X20329Y-11205D02*
X21860Y-11205D01*
X17769Y-11205D02*
X19231Y-11205D01*
X16329Y-11205D02*
X16671Y-11205D01*
X13769Y-11205D02*
X15231Y-11205D01*
X12150Y-11205D02*
X12671Y-11205D01*
X10245Y-11205D02*
X10350Y-11205D01*
X20329Y-11125D02*
X21890Y-11125D01*
X17769Y-11125D02*
X19231Y-11125D01*
X16329Y-11125D02*
X16671Y-11125D01*
X13769Y-11125D02*
X15231Y-11125D01*
X12150Y-11125D02*
X12671Y-11125D01*
X10245Y-11125D02*
X10350Y-11125D01*
X20329Y-11045D02*
X21890Y-11045D01*
X17769Y-11045D02*
X19231Y-11045D01*
X16329Y-11045D02*
X16671Y-11045D01*
X13769Y-11045D02*
X15231Y-11045D01*
X12139Y-11045D02*
X12671Y-11045D01*
X10245Y-11045D02*
X10361Y-11045D01*
X20313Y-10965D02*
X21890Y-10965D01*
X17753Y-10965D02*
X19248Y-10965D01*
X16313Y-10965D02*
X16688Y-10965D01*
X13753Y-10965D02*
X15248Y-10965D01*
X12106Y-10965D02*
X12688Y-10965D01*
X10245Y-10965D02*
X10394Y-10965D01*
X20280Y-10885D02*
X21890Y-10885D01*
X17720Y-10885D02*
X19281Y-10885D01*
X16280Y-10885D02*
X16721Y-10885D01*
X13720Y-10885D02*
X15281Y-10885D01*
X12073Y-10885D02*
X12721Y-10885D01*
X10245Y-10885D02*
X10428Y-10885D01*
X20246Y-10805D02*
X21890Y-10805D01*
X17686Y-10805D02*
X19315Y-10805D01*
X16246Y-10805D02*
X16755Y-10805D01*
X13686Y-10805D02*
X15315Y-10805D01*
X12040Y-10805D02*
X12755Y-10805D01*
X10245Y-10805D02*
X10461Y-10805D01*
X20167Y-10725D02*
X21890Y-10725D01*
X17607Y-10725D02*
X19393Y-10725D01*
X16167Y-10725D02*
X16833Y-10725D01*
X13607Y-10725D02*
X15393Y-10725D01*
X11998Y-10725D02*
X12833Y-10725D01*
X10245Y-10725D02*
X10503Y-10725D01*
X20082Y-10645D02*
X21890Y-10645D01*
X17522Y-10645D02*
X19479Y-10645D01*
X16082Y-10645D02*
X16919Y-10645D01*
X13522Y-10645D02*
X15479Y-10645D01*
X11918Y-10645D02*
X12919Y-10645D01*
X10245Y-10645D02*
X10583Y-10645D01*
X19889Y-10565D02*
X21890Y-10565D01*
X17329Y-10565D02*
X19671Y-10565D01*
X15889Y-10565D02*
X17111Y-10565D01*
X13329Y-10565D02*
X15671Y-10565D01*
X11838Y-10565D02*
X13111Y-10565D01*
X10245Y-10565D02*
X10663Y-10565D01*
X11754Y-10485D02*
X21890Y-10485D01*
X10245Y-10485D02*
X10746Y-10485D01*
X11562Y-10405D02*
X21890Y-10405D01*
X10245Y-10405D02*
X10940Y-10405D01*
X10245Y-10325D02*
X21890Y-10325D01*
X10245Y-10245D02*
X21890Y-10245D01*
X14940Y-16395D02*
X15910Y-16395D01*
X17452Y-16315D02*
X17509Y-16315D01*
X14860Y-16315D02*
X15948Y-16315D01*
X17346Y-16235D02*
X17589Y-16235D01*
X16596Y-16235D02*
X16805Y-16235D01*
X14780Y-16235D02*
X16055Y-16235D01*
X14700Y-16155D02*
X17669Y-16155D01*
X14620Y-16075D02*
X17749Y-16075D01*
X14540Y-15995D02*
X17829Y-15995D01*
X14460Y-15915D02*
X17909Y-15915D01*
X14380Y-15835D02*
X17989Y-15835D01*
X14300Y-15755D02*
X18069Y-15755D01*
X14205Y-15675D02*
X18149Y-15675D01*
X13577Y-15595D02*
X18229Y-15595D01*
X13595Y-15515D02*
X18309Y-15515D01*
X13047Y-15515D02*
X13057Y-15515D01*
X14701Y-15435D02*
X18389Y-15435D01*
X14295Y-15435D02*
X14305Y-15435D01*
X13569Y-15435D02*
X13899Y-15435D01*
X13047Y-15435D02*
X13057Y-15435D01*
X14724Y-15355D02*
X18469Y-15355D01*
X14295Y-15355D02*
X14305Y-15355D01*
X12621Y-15355D02*
X13875Y-15355D01*
X14724Y-15275D02*
X18549Y-15275D01*
X14295Y-15275D02*
X14305Y-15275D01*
X13552Y-15275D02*
X13875Y-15275D01*
X14703Y-15195D02*
X18645Y-15195D01*
X14295Y-15195D02*
X14305Y-15195D01*
X13612Y-15195D02*
X13897Y-15195D01*
X21426Y-15115D02*
X21890Y-15115D01*
X20498Y-15115D02*
X20723Y-15115D01*
X14725Y-15115D02*
X20030Y-15115D01*
X13636Y-15115D02*
X13876Y-15115D01*
X21450Y-15035D02*
X21890Y-15035D01*
X20626Y-15035D02*
X20666Y-15035D01*
X16892Y-15035D02*
X19903Y-15035D01*
X14725Y-15035D02*
X16228Y-15035D01*
X13636Y-15035D02*
X13876Y-15035D01*
X21450Y-14955D02*
X21890Y-14955D01*
X19816Y-14955D02*
X19855Y-14955D01*
X19510Y-14955D02*
X19520Y-14955D01*
X16956Y-14955D02*
X19214Y-14955D01*
X16081Y-14955D02*
X16163Y-14955D01*
X15803Y-14955D02*
X15817Y-14955D01*
X14718Y-14955D02*
X15539Y-14955D01*
X13636Y-14955D02*
X13883Y-14955D01*
X21436Y-14875D02*
X21890Y-14875D01*
X19839Y-14875D02*
X19841Y-14875D01*
X19510Y-14875D02*
X19520Y-14875D01*
X17540Y-14875D02*
X19190Y-14875D01*
X16131Y-14875D02*
X16136Y-14875D01*
X15805Y-14875D02*
X15815Y-14875D01*
X14661Y-14875D02*
X15488Y-14875D01*
X14283Y-14875D02*
X14317Y-14875D01*
X13636Y-14875D02*
X13939Y-14875D01*
X21403Y-14795D02*
X21890Y-14795D01*
X19839Y-14795D02*
X19841Y-14795D01*
X19510Y-14795D02*
X19520Y-14795D01*
X17620Y-14795D02*
X19190Y-14795D01*
X16134Y-14795D02*
X16136Y-14795D01*
X15805Y-14795D02*
X15815Y-14795D01*
X14732Y-14795D02*
X15485Y-14795D01*
X13636Y-14795D02*
X13868Y-14795D01*
X21385Y-14715D02*
X21890Y-14715D01*
X19839Y-14715D02*
X19841Y-14715D01*
X19510Y-14715D02*
X19520Y-14715D01*
X17663Y-14715D02*
X19190Y-14715D01*
X16134Y-14715D02*
X16136Y-14715D01*
X15805Y-14715D02*
X15815Y-14715D01*
X14796Y-14715D02*
X15485Y-14715D01*
X13636Y-14715D02*
X13803Y-14715D01*
X21465Y-14635D02*
X21890Y-14635D01*
X19838Y-14635D02*
X19841Y-14635D01*
X19510Y-14635D02*
X19520Y-14635D01*
X17695Y-14635D02*
X19192Y-14635D01*
X16134Y-14635D02*
X16136Y-14635D01*
X15805Y-14635D02*
X15815Y-14635D01*
X14824Y-14635D02*
X15485Y-14635D01*
X13636Y-14635D02*
X13776Y-14635D01*
X21545Y-14555D02*
X21890Y-14555D01*
X19838Y-14555D02*
X19841Y-14555D01*
X19510Y-14555D02*
X19520Y-14555D01*
X17695Y-14555D02*
X19192Y-14555D01*
X16103Y-14555D02*
X16136Y-14555D01*
X15805Y-14555D02*
X15815Y-14555D01*
X14824Y-14555D02*
X15517Y-14555D01*
X13636Y-14555D02*
X13776Y-14555D01*
X21602Y-14475D02*
X21890Y-14475D01*
X19840Y-14475D02*
X19841Y-14475D01*
X19510Y-14475D02*
X19520Y-14475D01*
X17689Y-14475D02*
X19191Y-14475D01*
X16135Y-14475D02*
X16136Y-14475D01*
X15805Y-14475D02*
X15815Y-14475D01*
X14824Y-14475D02*
X15486Y-14475D01*
X13636Y-14475D02*
X13776Y-14475D01*
X21637Y-14395D02*
X21890Y-14395D01*
X19840Y-14395D02*
X19841Y-14395D01*
X19510Y-14395D02*
X19520Y-14395D01*
X17656Y-14395D02*
X19191Y-14395D01*
X16135Y-14395D02*
X16136Y-14395D01*
X15805Y-14395D02*
X15815Y-14395D01*
X14824Y-14395D02*
X15486Y-14395D01*
X13636Y-14395D02*
X13776Y-14395D01*
X21653Y-14315D02*
X21890Y-14315D01*
X19840Y-14315D02*
X19841Y-14315D01*
X19510Y-14315D02*
X19520Y-14315D01*
X17600Y-14315D02*
X19191Y-14315D01*
X16135Y-14315D02*
X16136Y-14315D01*
X15805Y-14315D02*
X15815Y-14315D01*
X14824Y-14315D02*
X15486Y-14315D01*
X13636Y-14315D02*
X13776Y-14315D01*
X21655Y-14235D02*
X21890Y-14235D01*
X20674Y-14235D02*
X20945Y-14235D01*
X19816Y-14235D02*
X19856Y-14235D01*
X19510Y-14235D02*
X19520Y-14235D01*
X17503Y-14235D02*
X19214Y-14235D01*
X16981Y-14235D02*
X17137Y-14235D01*
X16124Y-14235D02*
X16139Y-14235D01*
X15805Y-14235D02*
X15815Y-14235D01*
X14824Y-14235D02*
X15497Y-14235D01*
X13636Y-14235D02*
X13776Y-14235D01*
X21655Y-14155D02*
X21890Y-14155D01*
X20627Y-14155D02*
X21005Y-14155D01*
X16949Y-14155D02*
X19903Y-14155D01*
X16049Y-14155D02*
X16172Y-14155D01*
X15783Y-14155D02*
X15837Y-14155D01*
X14805Y-14155D02*
X15572Y-14155D01*
X13636Y-14155D02*
X13794Y-14155D01*
X21655Y-14075D02*
X21890Y-14075D01*
X20500Y-14075D02*
X21005Y-14075D01*
X16867Y-14075D02*
X20032Y-14075D01*
X14752Y-14075D02*
X16254Y-14075D01*
X21655Y-13995D02*
X21890Y-13995D01*
X14612Y-13995D02*
X21005Y-13995D01*
X21662Y-13915D02*
X21890Y-13915D01*
X14587Y-13915D02*
X20996Y-13915D01*
X21696Y-13835D02*
X21890Y-13835D01*
X14534Y-13835D02*
X20963Y-13835D01*
X21705Y-13755D02*
X21890Y-13755D01*
X14455Y-13755D02*
X20955Y-13755D01*
X21705Y-13675D02*
X21890Y-13675D01*
X14390Y-13675D02*
X20955Y-13675D01*
X21676Y-13595D02*
X21890Y-13595D01*
X14390Y-13595D02*
X20985Y-13595D01*
X21635Y-13515D02*
X21890Y-13515D01*
X14390Y-13515D02*
X21025Y-13515D01*
X21555Y-13435D02*
X21890Y-13435D01*
X14390Y-13435D02*
X21105Y-13435D01*
X20081Y-13355D02*
X21890Y-13355D01*
X17521Y-13355D02*
X19478Y-13355D01*
X16081Y-13355D02*
X16918Y-13355D01*
X14390Y-13355D02*
X15478Y-13355D01*
X20167Y-13275D02*
X21890Y-13275D01*
X17606Y-13275D02*
X19393Y-13275D01*
X16167Y-13275D02*
X16833Y-13275D01*
X14390Y-13275D02*
X15393Y-13275D01*
X20245Y-13195D02*
X21890Y-13195D01*
X17943Y-13195D02*
X19314Y-13195D01*
X16245Y-13195D02*
X16754Y-13195D01*
X14443Y-13195D02*
X15314Y-13195D01*
X20279Y-13115D02*
X21880Y-13115D01*
X18094Y-13115D02*
X19280Y-13115D01*
X16279Y-13115D02*
X16720Y-13115D01*
X14523Y-13115D02*
X15280Y-13115D01*
X20312Y-13035D02*
X21800Y-13035D01*
X18174Y-13035D02*
X19247Y-13035D01*
X16312Y-13035D02*
X16687Y-13035D01*
X14603Y-13035D02*
X15247Y-13035D01*
X20329Y-12955D02*
X21720Y-12955D01*
X18254Y-12955D02*
X19231Y-12955D01*
X16329Y-12955D02*
X16671Y-12955D01*
X14683Y-12955D02*
X15231Y-12955D01*
X20329Y-12875D02*
X21640Y-12875D01*
X18334Y-12875D02*
X19231Y-12875D01*
X16329Y-12875D02*
X16671Y-12875D01*
X14763Y-12875D02*
X15231Y-12875D01*
X20329Y-12795D02*
X21560Y-12795D01*
X18414Y-12795D02*
X19231Y-12795D01*
X16329Y-12795D02*
X16669Y-12795D01*
X14843Y-12795D02*
X15231Y-12795D01*
X20304Y-12715D02*
X21480Y-12715D01*
X18494Y-12715D02*
X19257Y-12715D01*
X16303Y-12715D02*
X16589Y-12715D01*
X14923Y-12715D02*
X15257Y-12715D01*
X20270Y-12635D02*
X21400Y-12635D01*
X18574Y-12635D02*
X19291Y-12635D01*
X16270Y-12635D02*
X16509Y-12635D01*
X15003Y-12635D02*
X15290Y-12635D01*
X20225Y-12555D02*
X21320Y-12555D01*
X18654Y-12555D02*
X19335Y-12555D01*
X20144Y-12475D02*
X21240Y-12475D01*
X18734Y-12475D02*
X19415Y-12475D01*
X14468Y-21100D02*
X14920Y-21100D01*
X12568Y-21100D02*
X12933Y-21100D01*
X14397Y-21020D02*
X15000Y-21020D01*
X13648Y-21020D02*
X13753Y-21020D01*
X12497Y-21020D02*
X13003Y-21020D01*
X11750Y-21020D02*
X11853Y-21020D01*
X11750Y-20940D02*
X15080Y-20940D01*
X11750Y-20860D02*
X15160Y-20860D01*
X11750Y-20780D02*
X15240Y-20780D01*
X11750Y-20700D02*
X15320Y-20700D01*
X11750Y-20620D02*
X15400Y-20620D01*
X11750Y-20540D02*
X15480Y-20540D01*
X13667Y-20460D02*
X15560Y-20460D01*
X12517Y-20460D02*
X12983Y-20460D01*
X11766Y-20460D02*
X11832Y-20460D01*
X14356Y-20380D02*
X15640Y-20380D01*
X14070Y-20380D02*
X14080Y-20380D01*
X13726Y-20380D02*
X13794Y-20380D01*
X12576Y-20380D02*
X12923Y-20380D01*
X14399Y-20300D02*
X15720Y-20300D01*
X14070Y-20300D02*
X14080Y-20300D01*
X13749Y-20300D02*
X13750Y-20300D01*
X14399Y-20220D02*
X15800Y-20220D01*
X14070Y-20220D02*
X14080Y-20220D01*
X13749Y-20220D02*
X13750Y-20220D01*
X14399Y-20140D02*
X15880Y-20140D01*
X14070Y-20140D02*
X14080Y-20140D01*
X13749Y-20140D02*
X13750Y-20140D01*
X14399Y-20060D02*
X15960Y-20060D01*
X14070Y-20060D02*
X14080Y-20060D01*
X13749Y-20060D02*
X13750Y-20060D01*
X14378Y-19980D02*
X16040Y-19980D01*
X14070Y-19980D02*
X14080Y-19980D01*
X13749Y-19980D02*
X13772Y-19980D01*
X14400Y-19900D02*
X16120Y-19900D01*
X14070Y-19900D02*
X14080Y-19900D01*
X13749Y-19900D02*
X13751Y-19900D01*
X14400Y-19820D02*
X16200Y-19820D01*
X14070Y-19820D02*
X14080Y-19820D01*
X13749Y-19820D02*
X13751Y-19820D01*
X14400Y-19740D02*
X16280Y-19740D01*
X14070Y-19740D02*
X14080Y-19740D01*
X13749Y-19740D02*
X13751Y-19740D01*
X14385Y-19660D02*
X16360Y-19660D01*
X14070Y-19660D02*
X14080Y-19660D01*
X13743Y-19660D02*
X13766Y-19660D01*
X12592Y-19660D02*
X12908Y-19660D01*
X14290Y-19580D02*
X16440Y-19580D01*
X14038Y-19580D02*
X14112Y-19580D01*
X13707Y-19580D02*
X13861Y-19580D01*
X12557Y-19580D02*
X12943Y-19580D01*
X13608Y-19500D02*
X16520Y-19500D01*
X12458Y-19500D02*
X13043Y-19500D01*
X11889Y-19500D02*
X11892Y-19500D01*
X11969Y-19420D02*
X16600Y-19420D01*
X12049Y-19340D02*
X16680Y-19340D01*
X12129Y-19260D02*
X16760Y-19260D01*
X12209Y-19180D02*
X16840Y-19180D01*
X12290Y-19100D02*
X16920Y-19100D01*
X13892Y-19020D02*
X17000Y-19020D01*
X13979Y-18940D02*
X17080Y-18940D01*
X14059Y-18860D02*
X17160Y-18860D01*
X14139Y-18780D02*
X17240Y-18780D01*
X14218Y-18700D02*
X17320Y-18700D01*
X14298Y-18620D02*
X17400Y-18620D01*
X14376Y-18540D02*
X17480Y-18540D01*
X14429Y-18460D02*
X17560Y-18460D01*
X14452Y-18380D02*
X17640Y-18380D01*
X14465Y-18300D02*
X17720Y-18300D01*
X17432Y-18220D02*
X17800Y-18220D01*
X16682Y-18220D02*
X16718Y-18220D01*
X14465Y-18220D02*
X15968Y-18220D01*
X17482Y-18140D02*
X17880Y-18140D01*
X14465Y-18140D02*
X15917Y-18140D01*
X17499Y-18060D02*
X17960Y-18060D01*
X14465Y-18060D02*
X15003Y-18060D01*
X17499Y-17980D02*
X18040Y-17980D01*
X14465Y-17980D02*
X14895Y-17980D01*
X17499Y-17900D02*
X18120Y-17900D01*
X14465Y-17900D02*
X14815Y-17900D01*
X17499Y-17820D02*
X18200Y-17820D01*
X14465Y-17820D02*
X14735Y-17820D01*
X17499Y-17740D02*
X18280Y-17740D01*
X14465Y-17740D02*
X14655Y-17740D01*
X17569Y-17660D02*
X18360Y-17660D01*
X14465Y-17660D02*
X14575Y-17660D01*
X17649Y-17580D02*
X18440Y-17580D01*
X14465Y-17580D02*
X14495Y-17580D01*
X17729Y-17500D02*
X18520Y-17500D01*
X17809Y-17420D02*
X18600Y-17420D01*
X17889Y-17340D02*
X18680Y-17340D01*
X17969Y-17260D02*
X18760Y-17260D01*
X18049Y-17180D02*
X18855Y-17180D01*
X18129Y-17100D02*
X22853Y-17100D01*
X18209Y-17020D02*
X22851Y-17020D01*
X18289Y-16940D02*
X22851Y-16940D01*
X18369Y-16860D02*
X22851Y-16860D01*
X18449Y-16780D02*
X22851Y-16780D01*
X18529Y-16700D02*
X22851Y-16700D01*
X18609Y-16620D02*
X22851Y-16620D01*
X18689Y-16540D02*
X22851Y-16540D01*
X18769Y-16460D02*
X22851Y-16460D01*
X18849Y-16380D02*
X22878Y-16380D01*
X18929Y-16300D02*
X22941Y-16300D01*
X19009Y-16220D02*
X24311Y-16220D01*
X17056Y-29722D02*
X19540Y-29722D01*
X16976Y-29642D02*
X19467Y-29642D01*
X16896Y-29562D02*
X19434Y-29562D01*
X16816Y-29482D02*
X19401Y-29482D01*
X16736Y-29402D02*
X19400Y-29402D01*
X16656Y-29322D02*
X19400Y-29322D01*
X16576Y-29242D02*
X19421Y-29242D01*
X16496Y-29162D02*
X19454Y-29162D01*
X16811Y-29082D02*
X19507Y-29082D01*
X17005Y-29002D02*
X19550Y-29002D01*
X17129Y-28922D02*
X19550Y-28922D01*
X17209Y-28842D02*
X19550Y-28842D01*
X17289Y-28762D02*
X19550Y-28762D01*
X17340Y-28682D02*
X19550Y-28682D01*
X17374Y-28602D02*
X19550Y-28602D01*
X17407Y-28522D02*
X19550Y-28522D01*
X17440Y-28442D02*
X19550Y-28442D01*
X17450Y-28362D02*
X19550Y-28362D01*
X15697Y-28362D02*
X15750Y-28362D01*
X17450Y-28282D02*
X19550Y-28282D01*
X15635Y-28282D02*
X15750Y-28282D01*
X17450Y-28202D02*
X19550Y-28202D01*
X15635Y-28202D02*
X15750Y-28202D01*
X17450Y-28122D02*
X19550Y-28122D01*
X15635Y-28122D02*
X15750Y-28122D01*
X17434Y-28042D02*
X19550Y-28042D01*
X15635Y-28042D02*
X15766Y-28042D01*
X17401Y-27962D02*
X19550Y-27962D01*
X15635Y-27962D02*
X15800Y-27962D01*
X17368Y-27882D02*
X19550Y-27882D01*
X15635Y-27882D02*
X15833Y-27882D01*
X17335Y-27802D02*
X19550Y-27802D01*
X15635Y-27802D02*
X15866Y-27802D01*
X17274Y-27722D02*
X19550Y-27722D01*
X15635Y-27722D02*
X15927Y-27722D01*
X17194Y-27642D02*
X19550Y-27642D01*
X15635Y-27642D02*
X16007Y-27642D01*
X17114Y-27562D02*
X19550Y-27562D01*
X15635Y-27562D02*
X16087Y-27562D01*
X16967Y-27482D02*
X19550Y-27482D01*
X15635Y-27482D02*
X16234Y-27482D01*
X16775Y-27402D02*
X19550Y-27402D01*
X15635Y-27402D02*
X16428Y-27402D01*
X15635Y-27322D02*
X19550Y-27322D01*
X15635Y-27242D02*
X19550Y-27242D01*
X15635Y-27162D02*
X19550Y-27162D01*
X15635Y-27082D02*
X19550Y-27082D01*
X15635Y-27002D02*
X19550Y-27002D01*
X15635Y-26922D02*
X19563Y-26922D01*
X15635Y-26842D02*
X19588Y-26842D01*
X15635Y-26762D02*
X19641Y-26762D01*
X15635Y-26682D02*
X19718Y-26682D01*
X15635Y-26602D02*
X19798Y-26602D01*
X15635Y-26522D02*
X19878Y-26522D01*
X15620Y-26442D02*
X19958Y-26442D01*
X15588Y-26362D02*
X20038Y-26362D01*
X15532Y-26282D02*
X20118Y-26282D01*
X15452Y-26202D02*
X20198Y-26202D01*
X15372Y-26122D02*
X20278Y-26122D01*
X15292Y-26042D02*
X20358Y-26042D01*
X15183Y-25962D02*
X20438Y-25962D01*
X15174Y-25882D02*
X20518Y-25882D01*
X15144Y-25802D02*
X20598Y-25802D01*
X15074Y-25722D02*
X20726Y-25722D01*
X14925Y-25642D02*
X22033Y-25642D01*
X14925Y-25562D02*
X22113Y-25562D01*
X14925Y-25482D02*
X22193Y-25482D01*
X14925Y-25402D02*
X22273Y-25402D01*
X14925Y-25322D02*
X22353Y-25322D01*
X14925Y-25242D02*
X22433Y-25242D01*
X14925Y-25162D02*
X22513Y-25162D01*
X14925Y-25082D02*
X22592Y-25082D01*
X14925Y-25002D02*
X22672Y-25002D01*
X14925Y-24922D02*
X22752Y-24922D01*
X22812Y-24842D02*
X22832Y-24842D01*
X22536Y-24842D02*
X22574Y-24842D01*
X14925Y-24842D02*
X22297Y-24842D01*
X22871Y-24762D02*
X22881Y-24762D01*
X22550Y-24762D02*
X22560Y-24762D01*
X14925Y-24762D02*
X22238Y-24762D01*
X22879Y-24682D02*
X22881Y-24682D01*
X22550Y-24682D02*
X22560Y-24682D01*
X14925Y-24682D02*
X22230Y-24682D01*
X22879Y-24602D02*
X22881Y-24602D01*
X22550Y-24602D02*
X22560Y-24602D01*
X14925Y-24602D02*
X22230Y-24602D01*
X22879Y-24522D02*
X22881Y-24522D01*
X22550Y-24522D02*
X22560Y-24522D01*
X14925Y-24522D02*
X22230Y-24522D01*
X14925Y-24442D02*
X22881Y-24442D01*
X22880Y-24362D02*
X22881Y-24362D01*
X22550Y-24362D02*
X22560Y-24362D01*
X14925Y-24362D02*
X22231Y-24362D01*
X22880Y-24282D02*
X22881Y-24282D01*
X22550Y-24282D02*
X22560Y-24282D01*
X14925Y-24282D02*
X22231Y-24282D01*
X22880Y-24202D02*
X22881Y-24202D01*
X22550Y-24202D02*
X22560Y-24202D01*
X14925Y-24202D02*
X22231Y-24202D01*
X22874Y-24122D02*
X22881Y-24122D01*
X22550Y-24122D02*
X22560Y-24122D01*
X14925Y-24122D02*
X22237Y-24122D01*
X22818Y-24042D02*
X22912Y-24042D01*
X22540Y-24042D02*
X22570Y-24042D01*
X14925Y-24042D02*
X22292Y-24042D01*
X14925Y-23962D02*
X22981Y-23962D01*
X14925Y-23882D02*
X23598Y-23882D01*
X14925Y-23802D02*
X23678Y-23802D01*
X14925Y-23722D02*
X23758Y-23722D01*
X14925Y-23642D02*
X23838Y-23642D01*
X14925Y-23562D02*
X23918Y-23562D01*
X15003Y-23482D02*
X23998Y-23482D01*
X15083Y-23402D02*
X24078Y-23402D01*
X24034Y-23322D02*
X24123Y-23322D01*
X15163Y-23322D02*
X22970Y-23322D01*
X24119Y-23242D02*
X24123Y-23242D01*
X15243Y-23242D02*
X22886Y-23242D01*
X15323Y-23162D02*
X22853Y-23162D01*
X15403Y-23082D02*
X22851Y-23082D01*
X15483Y-23002D02*
X22851Y-23002D01*
X15563Y-22922D02*
X22851Y-22922D01*
X15643Y-22842D02*
X22851Y-22842D01*
X15723Y-22762D02*
X22851Y-22762D01*
X15803Y-22682D02*
X22851Y-22682D01*
X15883Y-22602D02*
X22851Y-22602D01*
X15963Y-22522D02*
X22851Y-22522D01*
X16043Y-22442D02*
X22084Y-22442D01*
X16123Y-22362D02*
X22021Y-22362D01*
X16203Y-22282D02*
X21995Y-22282D01*
X16283Y-22202D02*
X21995Y-22202D01*
X16363Y-22122D02*
X21995Y-22122D01*
X16443Y-22042D02*
X21995Y-22042D01*
X16523Y-21962D02*
X21995Y-21962D01*
X16603Y-21882D02*
X21995Y-21882D01*
X16683Y-21802D02*
X21995Y-21802D01*
X16763Y-21722D02*
X21995Y-21722D01*
X16843Y-21642D02*
X21995Y-21642D01*
X16923Y-21562D02*
X21995Y-21562D01*
X16983Y-21482D02*
X21995Y-21482D01*
X17021Y-21402D02*
X21995Y-21402D01*
X17037Y-21322D02*
X21995Y-21322D01*
X17040Y-21242D02*
X21995Y-21242D01*
X17040Y-21162D02*
X21995Y-21162D01*
X17040Y-21082D02*
X21995Y-21082D01*
X17040Y-21002D02*
X21995Y-21002D01*
X21422Y-20922D02*
X21995Y-20922D01*
X17040Y-20922D02*
X21067Y-20922D01*
X17040Y-20842D02*
X20967Y-20842D01*
X17082Y-20762D02*
X20910Y-20762D01*
X17162Y-20682D02*
X20877Y-20682D01*
X17242Y-20602D02*
X20870Y-20602D01*
X17322Y-20522D02*
X20870Y-20522D01*
X17402Y-20442D02*
X20901Y-20442D01*
X17482Y-20362D02*
X20943Y-20362D01*
X17562Y-20282D02*
X21023Y-20282D01*
X10245Y-32245D02*
X39755Y-32245D01*
X10245Y-32165D02*
X39755Y-32165D01*
X39085Y-32085D02*
X39755Y-32085D01*
X11585Y-32085D02*
X38414Y-32085D01*
X10245Y-32085D02*
X10914Y-32085D01*
X39267Y-32005D02*
X39755Y-32005D01*
X11767Y-32005D02*
X38232Y-32005D01*
X10245Y-32005D02*
X10732Y-32005D01*
X39347Y-31925D02*
X39755Y-31925D01*
X11847Y-31925D02*
X38152Y-31925D01*
X10245Y-31925D02*
X10652Y-31925D01*
X39427Y-31845D02*
X39755Y-31845D01*
X11927Y-31845D02*
X38072Y-31845D01*
X10245Y-31845D02*
X10572Y-31845D01*
X39507Y-31765D02*
X39755Y-31765D01*
X12007Y-31765D02*
X37992Y-31765D01*
X10245Y-31765D02*
X10492Y-31765D01*
X39543Y-31685D02*
X39755Y-31685D01*
X12043Y-31685D02*
X37956Y-31685D01*
X10245Y-31685D02*
X10456Y-31685D01*
X39577Y-31605D02*
X39755Y-31605D01*
X35475Y-31605D02*
X37923Y-31605D01*
X34475Y-31605D02*
X35024Y-31605D01*
X33475Y-31605D02*
X34024Y-31605D01*
X32475Y-31605D02*
X33024Y-31605D01*
X31475Y-31605D02*
X32024Y-31605D01*
X25375Y-31605D02*
X31024Y-31605D01*
X24375Y-31605D02*
X24924Y-31605D01*
X23375Y-31605D02*
X23924Y-31605D01*
X22375Y-31605D02*
X22924Y-31605D01*
X21375Y-31605D02*
X21924Y-31605D01*
X12077Y-31605D02*
X20924Y-31605D01*
X10245Y-31605D02*
X10423Y-31605D01*
X39610Y-31525D02*
X39755Y-31525D01*
X35622Y-31525D02*
X37890Y-31525D01*
X34622Y-31525D02*
X34878Y-31525D01*
X33622Y-31525D02*
X33878Y-31525D01*
X32622Y-31525D02*
X32878Y-31525D01*
X31621Y-31525D02*
X31878Y-31525D01*
X25522Y-31525D02*
X30878Y-31525D01*
X24522Y-31525D02*
X24778Y-31525D01*
X23522Y-31525D02*
X23778Y-31525D01*
X22522Y-31525D02*
X22778Y-31525D01*
X21521Y-31525D02*
X21778Y-31525D01*
X12110Y-31525D02*
X20778Y-31525D01*
X10245Y-31525D02*
X10390Y-31525D01*
X39643Y-31445D02*
X39755Y-31445D01*
X35702Y-31445D02*
X37857Y-31445D01*
X34702Y-31445D02*
X34798Y-31445D01*
X33702Y-31445D02*
X33798Y-31445D01*
X32702Y-31445D02*
X32798Y-31445D01*
X31700Y-31445D02*
X31798Y-31445D01*
X25602Y-31445D02*
X30798Y-31445D01*
X24602Y-31445D02*
X24698Y-31445D01*
X23602Y-31445D02*
X23698Y-31445D01*
X22602Y-31445D02*
X22698Y-31445D01*
X21600Y-31445D02*
X21698Y-31445D01*
X16135Y-31445D02*
X20698Y-31445D01*
X12143Y-31445D02*
X15874Y-31445D01*
X10245Y-31445D02*
X10357Y-31445D01*
X39650Y-31365D02*
X39755Y-31365D01*
X35767Y-31365D02*
X37850Y-31365D01*
X25667Y-31365D02*
X29800Y-31365D01*
X16296Y-31365D02*
X20632Y-31365D01*
X12150Y-31365D02*
X15713Y-31365D01*
X10245Y-31365D02*
X10350Y-31365D01*
X39650Y-31285D02*
X39755Y-31285D01*
X35801Y-31285D02*
X37850Y-31285D01*
X25701Y-31285D02*
X29627Y-31285D01*
X16376Y-31285D02*
X20598Y-31285D01*
X12150Y-31285D02*
X15633Y-31285D01*
X10245Y-31285D02*
X10350Y-31285D01*
X39650Y-31205D02*
X39755Y-31205D01*
X35834Y-31205D02*
X37850Y-31205D01*
X25734Y-31205D02*
X29545Y-31205D01*
X16427Y-31205D02*
X20565Y-31205D01*
X12150Y-31205D02*
X15581Y-31205D01*
X10245Y-31205D02*
X10350Y-31205D01*
X39650Y-31125D02*
X39755Y-31125D01*
X35849Y-31125D02*
X37850Y-31125D01*
X25749Y-31125D02*
X29465Y-31125D01*
X16461Y-31125D02*
X20551Y-31125D01*
X12150Y-31125D02*
X15548Y-31125D01*
X10245Y-31125D02*
X10350Y-31125D01*
X39639Y-31045D02*
X39755Y-31045D01*
X35849Y-31045D02*
X37861Y-31045D01*
X25749Y-31045D02*
X29385Y-31045D01*
X16480Y-31045D02*
X20551Y-31045D01*
X12139Y-31045D02*
X15530Y-31045D01*
X10245Y-31045D02*
X10361Y-31045D01*
X39606Y-30965D02*
X39755Y-30965D01*
X35849Y-30965D02*
X37894Y-30965D01*
X25749Y-30965D02*
X29305Y-30965D01*
X16480Y-30965D02*
X20551Y-30965D01*
X12106Y-30965D02*
X15525Y-30965D01*
X10245Y-30965D02*
X10394Y-30965D01*
X39573Y-30885D02*
X39755Y-30885D01*
X35830Y-30885D02*
X37928Y-30885D01*
X25730Y-30885D02*
X29225Y-30885D01*
X16478Y-30885D02*
X20571Y-30885D01*
X12073Y-30885D02*
X15445Y-30885D01*
X10245Y-30885D02*
X10428Y-30885D01*
X39540Y-30805D02*
X39755Y-30805D01*
X35797Y-30805D02*
X37961Y-30805D01*
X25697Y-30805D02*
X29145Y-30805D01*
X16445Y-30805D02*
X20604Y-30805D01*
X12040Y-30805D02*
X15365Y-30805D01*
X10245Y-30805D02*
X10461Y-30805D01*
X39498Y-30725D02*
X39755Y-30725D01*
X35764Y-30725D02*
X38003Y-30725D01*
X25664Y-30725D02*
X29065Y-30725D01*
X16412Y-30725D02*
X20637Y-30725D01*
X11998Y-30725D02*
X15285Y-30725D01*
X10245Y-30725D02*
X10503Y-30725D01*
X39418Y-30645D02*
X39755Y-30645D01*
X35692Y-30645D02*
X38083Y-30645D01*
X25592Y-30645D02*
X28985Y-30645D01*
X16337Y-30645D02*
X20708Y-30645D01*
X11918Y-30645D02*
X15205Y-30645D01*
X10245Y-30645D02*
X10583Y-30645D01*
X39338Y-30565D02*
X39755Y-30565D01*
X35612Y-30565D02*
X38163Y-30565D01*
X25512Y-30565D02*
X28905Y-30565D01*
X16232Y-30565D02*
X20788Y-30565D01*
X11838Y-30565D02*
X15125Y-30565D01*
X10245Y-30565D02*
X10663Y-30565D01*
X39254Y-30485D02*
X39755Y-30485D01*
X35726Y-30485D02*
X38246Y-30485D01*
X25626Y-30485D02*
X28825Y-30485D01*
X15965Y-30485D02*
X20737Y-30485D01*
X11754Y-30485D02*
X15045Y-30485D01*
X10245Y-30485D02*
X10746Y-30485D01*
X39062Y-30405D02*
X39755Y-30405D01*
X35749Y-30405D02*
X38440Y-30405D01*
X35245Y-30405D02*
X35255Y-30405D01*
X25649Y-30405D02*
X28579Y-30405D01*
X25145Y-30405D02*
X25155Y-30405D01*
X15885Y-30405D02*
X20657Y-30405D01*
X11562Y-30405D02*
X14965Y-30405D01*
X10245Y-30405D02*
X10940Y-30405D01*
X35749Y-30325D02*
X39755Y-30325D01*
X35245Y-30325D02*
X35255Y-30325D01*
X25649Y-30325D02*
X28453Y-30325D01*
X25145Y-30325D02*
X25155Y-30325D01*
X15805Y-30325D02*
X16763Y-30325D01*
X10245Y-30325D02*
X14885Y-30325D01*
X35749Y-30245D02*
X39755Y-30245D01*
X35245Y-30245D02*
X35255Y-30245D01*
X25649Y-30245D02*
X28373Y-30245D01*
X25145Y-30245D02*
X25155Y-30245D01*
X15725Y-30245D02*
X16660Y-30245D01*
X10245Y-30245D02*
X14805Y-30245D01*
X35749Y-30165D02*
X39755Y-30165D01*
X35245Y-30165D02*
X35255Y-30165D01*
X25649Y-30165D02*
X28336Y-30165D01*
X25145Y-30165D02*
X25155Y-30165D01*
X15645Y-30165D02*
X16580Y-30165D01*
X10245Y-30165D02*
X14725Y-30165D01*
X35743Y-30085D02*
X39755Y-30085D01*
X35245Y-30085D02*
X35255Y-30085D01*
X25643Y-30085D02*
X28303Y-30085D01*
X25145Y-30085D02*
X25155Y-30085D01*
X15565Y-30085D02*
X16500Y-30085D01*
X10245Y-30085D02*
X14645Y-30085D01*
X35750Y-30005D02*
X39755Y-30005D01*
X35245Y-30005D02*
X35255Y-30005D01*
X25650Y-30005D02*
X28295Y-30005D01*
X25145Y-30005D02*
X25155Y-30005D01*
X15485Y-30005D02*
X16420Y-30005D01*
X10245Y-30005D02*
X14565Y-30005D01*
X35750Y-29925D02*
X39755Y-29925D01*
X35245Y-29925D02*
X35255Y-29925D01*
X25650Y-29925D02*
X28295Y-29925D01*
X25145Y-29925D02*
X25155Y-29925D01*
X15405Y-29925D02*
X16340Y-29925D01*
X10245Y-29925D02*
X14485Y-29925D01*
X35750Y-29845D02*
X39755Y-29845D01*
X35245Y-29845D02*
X35255Y-29845D01*
X25650Y-29845D02*
X28308Y-29845D01*
X25145Y-29845D02*
X25155Y-29845D01*
X15325Y-29845D02*
X16260Y-29845D01*
X10245Y-29845D02*
X14405Y-29845D01*
X35750Y-29765D02*
X39755Y-29765D01*
X35245Y-29765D02*
X35255Y-29765D01*
X25650Y-29765D02*
X28342Y-29765D01*
X25145Y-29765D02*
X25155Y-29765D01*
X15245Y-29765D02*
X16180Y-29765D01*
X10245Y-29765D02*
X14340Y-29765D01*
X35750Y-29685D02*
X39755Y-29685D01*
X35245Y-29685D02*
X35255Y-29685D01*
X34732Y-29685D02*
X34751Y-29685D01*
X25650Y-29685D02*
X25729Y-29685D01*
X25145Y-29685D02*
X25155Y-29685D01*
X15165Y-29685D02*
X16100Y-29685D01*
X10245Y-29685D02*
X14296Y-29685D01*
X35716Y-29605D02*
X39755Y-29605D01*
X35245Y-29605D02*
X35255Y-29605D01*
X34652Y-29605D02*
X34784Y-29605D01*
X25145Y-29605D02*
X25155Y-29605D01*
X15085Y-29605D02*
X16020Y-29605D01*
X10245Y-29605D02*
X14280Y-29605D01*
X34548Y-29525D02*
X39755Y-29525D01*
X24793Y-29525D02*
X25475Y-29525D01*
X15005Y-29525D02*
X15940Y-29525D01*
X10245Y-29525D02*
X14274Y-29525D01*
X34244Y-29445D02*
X39755Y-29445D01*
X14925Y-29445D02*
X15860Y-29445D01*
X10245Y-29445D02*
X14274Y-29445D01*
X34164Y-29365D02*
X39755Y-29365D01*
X14925Y-29365D02*
X15780Y-29365D01*
X10245Y-29365D02*
X14274Y-29365D01*
X34138Y-29285D02*
X39755Y-29285D01*
X14925Y-29285D02*
X15700Y-29285D01*
X10245Y-29285D02*
X14274Y-29285D01*
X34312Y-29205D02*
X39755Y-29205D01*
X14925Y-29205D02*
X15620Y-29205D01*
X10245Y-29205D02*
X14274Y-29205D01*
X34395Y-29125D02*
X39755Y-29125D01*
X14925Y-29125D02*
X15540Y-29125D01*
X10245Y-29125D02*
X14274Y-29125D01*
X34475Y-29045D02*
X39755Y-29045D01*
X14925Y-29045D02*
X15460Y-29045D01*
X12901Y-29045D02*
X14274Y-29045D01*
X10245Y-29045D02*
X12298Y-29045D01*
X34555Y-28965D02*
X39755Y-28965D01*
X14925Y-28965D02*
X15380Y-28965D01*
X13086Y-28965D02*
X14274Y-28965D01*
X10245Y-28965D02*
X12113Y-28965D01*
X34635Y-28885D02*
X39755Y-28885D01*
X14925Y-28885D02*
X15300Y-28885D01*
X13166Y-28885D02*
X14274Y-28885D01*
X10245Y-28885D02*
X12033Y-28885D01*
X34715Y-28805D02*
X39755Y-28805D01*
X14925Y-28805D02*
X15220Y-28805D01*
X13246Y-28805D02*
X14274Y-28805D01*
X10245Y-28805D02*
X11953Y-28805D01*
X34795Y-28725D02*
X39755Y-28725D01*
X14925Y-28725D02*
X15140Y-28725D01*
X13322Y-28725D02*
X14274Y-28725D01*
X10245Y-28725D02*
X11876Y-28725D01*
X34875Y-28645D02*
X39755Y-28645D01*
X14925Y-28645D02*
X15066Y-28645D01*
X13356Y-28645D02*
X14274Y-28645D01*
X10245Y-28645D02*
X11843Y-28645D01*
X34955Y-28565D02*
X39755Y-28565D01*
X14925Y-28565D02*
X15013Y-28565D01*
X13389Y-28565D02*
X14274Y-28565D01*
X10245Y-28565D02*
X11810Y-28565D01*
X35035Y-28485D02*
X39755Y-28485D01*
X14925Y-28485D02*
X14995Y-28485D01*
X13422Y-28485D02*
X14274Y-28485D01*
X10245Y-28485D02*
X11777Y-28485D01*
X35115Y-28405D02*
X39755Y-28405D01*
X14925Y-28405D02*
X14985Y-28405D01*
X13450Y-28405D02*
X14274Y-28405D01*
X10245Y-28405D02*
X11750Y-28405D01*
X35195Y-28325D02*
X39755Y-28325D01*
X14925Y-28325D02*
X14985Y-28325D01*
X13450Y-28325D02*
X14274Y-28325D01*
X10245Y-28325D02*
X11750Y-28325D01*
X35275Y-28245D02*
X39755Y-28245D01*
X14925Y-28245D02*
X14985Y-28245D01*
X13450Y-28245D02*
X14274Y-28245D01*
X10245Y-28245D02*
X11750Y-28245D01*
X35355Y-28165D02*
X39755Y-28165D01*
X14925Y-28165D02*
X14985Y-28165D01*
X13450Y-28165D02*
X14274Y-28165D01*
X10245Y-28165D02*
X11750Y-28165D01*
X35435Y-28085D02*
X39755Y-28085D01*
X14925Y-28085D02*
X14985Y-28085D01*
X13450Y-28085D02*
X14274Y-28085D01*
X10245Y-28085D02*
X11750Y-28085D01*
X35515Y-28005D02*
X39755Y-28005D01*
X14925Y-28005D02*
X14985Y-28005D01*
X13419Y-28005D02*
X14274Y-28005D01*
X10245Y-28005D02*
X11782Y-28005D01*
X35595Y-27925D02*
X39755Y-27925D01*
X14925Y-27925D02*
X14985Y-27925D01*
X13386Y-27925D02*
X14274Y-27925D01*
X10245Y-27925D02*
X11815Y-27925D01*
X35675Y-27845D02*
X39755Y-27845D01*
X14925Y-27845D02*
X14985Y-27845D01*
X13353Y-27845D02*
X14274Y-27845D01*
X10245Y-27845D02*
X11848Y-27845D01*
X35755Y-27765D02*
X39755Y-27765D01*
X14925Y-27765D02*
X14985Y-27765D01*
X13316Y-27765D02*
X14274Y-27765D01*
X10245Y-27765D02*
X11884Y-27765D01*
X35826Y-27685D02*
X39755Y-27685D01*
X14978Y-27685D02*
X14985Y-27685D01*
X13236Y-27685D02*
X14222Y-27685D01*
X10245Y-27685D02*
X11964Y-27685D01*
X35880Y-27605D02*
X39755Y-27605D01*
X13156Y-27605D02*
X14142Y-27605D01*
X10245Y-27605D02*
X12044Y-27605D01*
X35896Y-27525D02*
X39755Y-27525D01*
X10245Y-27525D02*
X12130Y-27525D01*
X35905Y-27445D02*
X39755Y-27445D01*
X10245Y-27445D02*
X12324Y-27445D01*
X35905Y-27365D02*
X39755Y-27365D01*
X10245Y-27365D02*
X12685Y-27365D01*
X35905Y-27285D02*
X39755Y-27285D01*
X10245Y-27285D02*
X12605Y-27285D01*
X35905Y-27205D02*
X39755Y-27205D01*
X10245Y-27205D02*
X12525Y-27205D01*
X35905Y-27125D02*
X39755Y-27125D01*
X10245Y-27125D02*
X12445Y-27125D01*
X35905Y-27045D02*
X39755Y-27045D01*
X10245Y-27045D02*
X12365Y-27045D01*
X35905Y-26965D02*
X39755Y-26965D01*
X10245Y-26965D02*
X12285Y-26965D01*
X35905Y-26885D02*
X39755Y-26885D01*
X10245Y-26885D02*
X12205Y-26885D01*
X35905Y-26805D02*
X39755Y-26805D01*
X10245Y-26805D02*
X12125Y-26805D01*
X35905Y-26725D02*
X39755Y-26725D01*
X10245Y-26725D02*
X12045Y-26725D01*
X35905Y-26645D02*
X39755Y-26645D01*
X10245Y-26645D02*
X11965Y-26645D01*
X35905Y-26565D02*
X39755Y-26565D01*
X10245Y-26565D02*
X11885Y-26565D01*
X35905Y-26485D02*
X39755Y-26485D01*
X10245Y-26485D02*
X11805Y-26485D01*
X35905Y-26405D02*
X39755Y-26405D01*
X10245Y-26405D02*
X11725Y-26405D01*
X35905Y-26325D02*
X39755Y-26325D01*
X10245Y-26325D02*
X11645Y-26325D01*
X35905Y-26245D02*
X39755Y-26245D01*
X10245Y-26245D02*
X11565Y-26245D01*
X35905Y-26165D02*
X39755Y-26165D01*
X10245Y-26165D02*
X11485Y-26165D01*
X35905Y-26085D02*
X39755Y-26085D01*
X10245Y-26085D02*
X11405Y-26085D01*
X35905Y-26005D02*
X39755Y-26005D01*
X10245Y-26005D02*
X11325Y-26005D01*
X35905Y-25925D02*
X39755Y-25925D01*
X10245Y-25925D02*
X11245Y-25925D01*
X35905Y-25845D02*
X39755Y-25845D01*
X29075Y-25845D02*
X29655Y-25845D01*
X10245Y-25845D02*
X11175Y-25845D01*
X35905Y-25765D02*
X39755Y-25765D01*
X29075Y-25765D02*
X29735Y-25765D01*
X10245Y-25765D02*
X11124Y-25765D01*
X35905Y-25685D02*
X39755Y-25685D01*
X29075Y-25685D02*
X29815Y-25685D01*
X10245Y-25685D02*
X11108Y-25685D01*
X35905Y-25605D02*
X39755Y-25605D01*
X29075Y-25605D02*
X29895Y-25605D01*
X10245Y-25605D02*
X11100Y-25605D01*
X35905Y-25525D02*
X39755Y-25525D01*
X29131Y-25525D02*
X29975Y-25525D01*
X10245Y-25525D02*
X11100Y-25525D01*
X35905Y-25445D02*
X39755Y-25445D01*
X29232Y-25445D02*
X30055Y-25445D01*
X10245Y-25445D02*
X11100Y-25445D01*
X35905Y-25365D02*
X39755Y-25365D01*
X29267Y-25365D02*
X30135Y-25365D01*
X10245Y-25365D02*
X11100Y-25365D01*
X35905Y-25285D02*
X39755Y-25285D01*
X29274Y-25285D02*
X30215Y-25285D01*
X10245Y-25285D02*
X11100Y-25285D01*
X35905Y-25205D02*
X39755Y-25205D01*
X29274Y-25205D02*
X30295Y-25205D01*
X10245Y-25205D02*
X11100Y-25205D01*
X35905Y-25125D02*
X39755Y-25125D01*
X29274Y-25125D02*
X30375Y-25125D01*
X10245Y-25125D02*
X11100Y-25125D01*
X35905Y-25045D02*
X39755Y-25045D01*
X29274Y-25045D02*
X30455Y-25045D01*
X10245Y-25045D02*
X11100Y-25045D01*
X35905Y-24965D02*
X39755Y-24965D01*
X29274Y-24965D02*
X30535Y-24965D01*
X10245Y-24965D02*
X11100Y-24965D01*
X35905Y-24885D02*
X39755Y-24885D01*
X29268Y-24885D02*
X30615Y-24885D01*
X10245Y-24885D02*
X11100Y-24885D01*
X35905Y-24805D02*
X39755Y-24805D01*
X29232Y-24805D02*
X30675Y-24805D01*
X10245Y-24805D02*
X11100Y-24805D01*
X35905Y-24725D02*
X39755Y-24725D01*
X29133Y-24725D02*
X30600Y-24725D01*
X10245Y-24725D02*
X11100Y-24725D01*
X35905Y-24645D02*
X39755Y-24645D01*
X31596Y-24645D02*
X31665Y-24645D01*
X29141Y-24645D02*
X30520Y-24645D01*
X10245Y-24645D02*
X11100Y-24645D01*
X35905Y-24565D02*
X39755Y-24565D01*
X31563Y-24565D02*
X31745Y-24565D01*
X29174Y-24565D02*
X30440Y-24565D01*
X10245Y-24565D02*
X11100Y-24565D01*
X35905Y-24485D02*
X39755Y-24485D01*
X31497Y-24485D02*
X31825Y-24485D01*
X29174Y-24485D02*
X30360Y-24485D01*
X10245Y-24485D02*
X11100Y-24485D01*
X35905Y-24405D02*
X39755Y-24405D01*
X31412Y-24405D02*
X31905Y-24405D01*
X29163Y-24405D02*
X30280Y-24405D01*
X10245Y-24405D02*
X11100Y-24405D01*
X35911Y-24325D02*
X39755Y-24325D01*
X31120Y-24325D02*
X31985Y-24325D01*
X29175Y-24325D02*
X30200Y-24325D01*
X28745Y-24325D02*
X28755Y-24325D01*
X10245Y-24325D02*
X11100Y-24325D01*
X35985Y-24245D02*
X39755Y-24245D01*
X31040Y-24245D02*
X32065Y-24245D01*
X29175Y-24245D02*
X30120Y-24245D01*
X28745Y-24245D02*
X28755Y-24245D01*
X10245Y-24245D02*
X11100Y-24245D01*
X36019Y-24165D02*
X39755Y-24165D01*
X30960Y-24165D02*
X32145Y-24165D01*
X29172Y-24165D02*
X30040Y-24165D01*
X28745Y-24165D02*
X28755Y-24165D01*
X10245Y-24165D02*
X11100Y-24165D01*
X36052Y-24085D02*
X39755Y-24085D01*
X30880Y-24085D02*
X32225Y-24085D01*
X29121Y-24085D02*
X29960Y-24085D01*
X28743Y-24085D02*
X28757Y-24085D01*
X10245Y-24085D02*
X11100Y-24085D01*
X36055Y-24005D02*
X39755Y-24005D01*
X30800Y-24005D02*
X32305Y-24005D01*
X28485Y-24005D02*
X29880Y-24005D01*
X10245Y-24005D02*
X11100Y-24005D01*
X36055Y-23925D02*
X39755Y-23925D01*
X30720Y-23925D02*
X32385Y-23925D01*
X28467Y-23925D02*
X29800Y-23925D01*
X10245Y-23925D02*
X11100Y-23925D01*
X38728Y-23845D02*
X39755Y-23845D01*
X37728Y-23845D02*
X38471Y-23845D01*
X36037Y-23845D02*
X37471Y-23845D01*
X30640Y-23845D02*
X32465Y-23845D01*
X28414Y-23845D02*
X29720Y-23845D01*
X10245Y-23845D02*
X11100Y-23845D01*
X38922Y-23765D02*
X39755Y-23765D01*
X37922Y-23765D02*
X38277Y-23765D01*
X36004Y-23765D02*
X37277Y-23765D01*
X30560Y-23765D02*
X32545Y-23765D01*
X28340Y-23765D02*
X29640Y-23765D01*
X10245Y-23765D02*
X11100Y-23765D01*
X39012Y-23685D02*
X39755Y-23685D01*
X38011Y-23685D02*
X38188Y-23685D01*
X35952Y-23685D02*
X37188Y-23685D01*
X30480Y-23685D02*
X32625Y-23685D01*
X28260Y-23685D02*
X29560Y-23685D01*
X10245Y-23685D02*
X11100Y-23685D01*
X39092Y-23605D02*
X39755Y-23605D01*
X38090Y-23605D02*
X38108Y-23605D01*
X35872Y-23605D02*
X37108Y-23605D01*
X30400Y-23605D02*
X32705Y-23605D01*
X28180Y-23605D02*
X29480Y-23605D01*
X10245Y-23605D02*
X11100Y-23605D01*
X39134Y-23525D02*
X39755Y-23525D01*
X30320Y-23525D02*
X32785Y-23525D01*
X28100Y-23525D02*
X29411Y-23525D01*
X10245Y-23525D02*
X11100Y-23525D01*
X39167Y-23445D02*
X39755Y-23445D01*
X30240Y-23445D02*
X32865Y-23445D01*
X28020Y-23445D02*
X29218Y-23445D01*
X10245Y-23445D02*
X11100Y-23445D01*
X39199Y-23365D02*
X39755Y-23365D01*
X30167Y-23365D02*
X32945Y-23365D01*
X27940Y-23365D02*
X29162Y-23365D01*
X10245Y-23365D02*
X11100Y-23365D01*
X39199Y-23285D02*
X39755Y-23285D01*
X30189Y-23285D02*
X33025Y-23285D01*
X27922Y-23285D02*
X29141Y-23285D01*
X10245Y-23285D02*
X11100Y-23285D01*
X39199Y-23205D02*
X39755Y-23205D01*
X30189Y-23205D02*
X33105Y-23205D01*
X28112Y-23205D02*
X29141Y-23205D01*
X10245Y-23205D02*
X11100Y-23205D01*
X39197Y-23125D02*
X39755Y-23125D01*
X30189Y-23125D02*
X33185Y-23125D01*
X28149Y-23125D02*
X29141Y-23125D01*
X10245Y-23125D02*
X11100Y-23125D01*
X39164Y-23045D02*
X39755Y-23045D01*
X30189Y-23045D02*
X33265Y-23045D01*
X28149Y-23045D02*
X29141Y-23045D01*
X10245Y-23045D02*
X11100Y-23045D01*
X39131Y-22965D02*
X39755Y-22965D01*
X30189Y-22965D02*
X33345Y-22965D01*
X28149Y-22965D02*
X29141Y-22965D01*
X10245Y-22965D02*
X11100Y-22965D01*
X39082Y-22885D02*
X39755Y-22885D01*
X30189Y-22885D02*
X33425Y-22885D01*
X28149Y-22885D02*
X29141Y-22885D01*
X10245Y-22885D02*
X11100Y-22885D01*
X39002Y-22805D02*
X39755Y-22805D01*
X30164Y-22805D02*
X33505Y-22805D01*
X28134Y-22805D02*
X29167Y-22805D01*
X10245Y-22805D02*
X11100Y-22805D01*
X38970Y-22725D02*
X39755Y-22725D01*
X30102Y-22725D02*
X33585Y-22725D01*
X28150Y-22725D02*
X29228Y-22725D01*
X10245Y-22725D02*
X11100Y-22725D01*
X39051Y-22645D02*
X39755Y-22645D01*
X30016Y-22645D02*
X33665Y-22645D01*
X28150Y-22645D02*
X29313Y-22645D01*
X10245Y-22645D02*
X11100Y-22645D01*
X39117Y-22565D02*
X39755Y-22565D01*
X30080Y-22565D02*
X33745Y-22565D01*
X28150Y-22565D02*
X29249Y-22565D01*
X10245Y-22565D02*
X11100Y-22565D01*
X39151Y-22485D02*
X39755Y-22485D01*
X30089Y-22485D02*
X33825Y-22485D01*
X28938Y-22485D02*
X29240Y-22485D01*
X28133Y-22485D02*
X28222Y-22485D01*
X10245Y-22485D02*
X11100Y-22485D01*
X39184Y-22405D02*
X39755Y-22405D01*
X30089Y-22405D02*
X33905Y-22405D01*
X29053Y-22405D02*
X29240Y-22405D01*
X27886Y-22405D02*
X28109Y-22405D01*
X24107Y-22405D02*
X24159Y-22405D01*
X10245Y-22405D02*
X11100Y-22405D01*
X39199Y-22325D02*
X39755Y-22325D01*
X30063Y-22325D02*
X33985Y-22325D01*
X29660Y-22325D02*
X29670Y-22325D01*
X29094Y-22325D02*
X29267Y-22325D01*
X27779Y-22325D02*
X28067Y-22325D01*
X24000Y-22325D02*
X24268Y-22325D01*
X10245Y-22325D02*
X11100Y-22325D01*
X39199Y-22245D02*
X39755Y-22245D01*
X30090Y-22245D02*
X34065Y-22245D01*
X29660Y-22245D02*
X29670Y-22245D01*
X29105Y-22245D02*
X29241Y-22245D01*
X23043Y-22245D02*
X28057Y-22245D01*
X10245Y-22245D02*
X11100Y-22245D01*
X39199Y-22165D02*
X39755Y-22165D01*
X30090Y-22165D02*
X34145Y-22165D01*
X29660Y-22165D02*
X29670Y-22165D01*
X29105Y-22165D02*
X29241Y-22165D01*
X23043Y-22165D02*
X28057Y-22165D01*
X10245Y-22165D02*
X11100Y-22165D01*
X39180Y-22085D02*
X39755Y-22085D01*
X30069Y-22085D02*
X34225Y-22085D01*
X29660Y-22085D02*
X29670Y-22085D01*
X29105Y-22085D02*
X29262Y-22085D01*
X23043Y-22085D02*
X28057Y-22085D01*
X10245Y-22085D02*
X11100Y-22085D01*
X39147Y-22005D02*
X39755Y-22005D01*
X29097Y-22005D02*
X34305Y-22005D01*
X23035Y-22005D02*
X28065Y-22005D01*
X10245Y-22005D02*
X11100Y-22005D01*
X39114Y-21925D02*
X39755Y-21925D01*
X29105Y-21925D02*
X34385Y-21925D01*
X23043Y-21925D02*
X28057Y-21925D01*
X10245Y-21925D02*
X11048Y-21925D01*
X39042Y-21845D02*
X39755Y-21845D01*
X29105Y-21845D02*
X34465Y-21845D01*
X23043Y-21845D02*
X28057Y-21845D01*
X10245Y-21845D02*
X11009Y-21845D01*
X38962Y-21765D02*
X39755Y-21765D01*
X30431Y-21765D02*
X34545Y-21765D01*
X29105Y-21765D02*
X30138Y-21765D01*
X23043Y-21765D02*
X28057Y-21765D01*
X10245Y-21765D02*
X11001Y-21765D01*
X39012Y-21685D02*
X39755Y-21685D01*
X30550Y-21685D02*
X34625Y-21685D01*
X29095Y-21685D02*
X30020Y-21685D01*
X23035Y-21685D02*
X28068Y-21685D01*
X10245Y-21685D02*
X11001Y-21685D01*
X39092Y-21605D02*
X39755Y-21605D01*
X30613Y-21605D02*
X34705Y-21605D01*
X29054Y-21605D02*
X29955Y-21605D01*
X23043Y-21605D02*
X28108Y-21605D01*
X10245Y-21605D02*
X11001Y-21605D01*
X39134Y-21525D02*
X39755Y-21525D01*
X30647Y-21525D02*
X34785Y-21525D01*
X23043Y-21525D02*
X28186Y-21525D01*
X10245Y-21525D02*
X11001Y-21525D01*
X39167Y-21445D02*
X39755Y-21445D01*
X30660Y-21445D02*
X34865Y-21445D01*
X23043Y-21445D02*
X28094Y-21445D01*
X10245Y-21445D02*
X11001Y-21445D01*
X39199Y-21365D02*
X39755Y-21365D01*
X30660Y-21365D02*
X34945Y-21365D01*
X23038Y-21365D02*
X28061Y-21365D01*
X10245Y-21365D02*
X11001Y-21365D01*
X39199Y-21285D02*
X39755Y-21285D01*
X30635Y-21285D02*
X35025Y-21285D01*
X23043Y-21285D02*
X28057Y-21285D01*
X10245Y-21285D02*
X11001Y-21285D01*
X39199Y-21205D02*
X39755Y-21205D01*
X30600Y-21205D02*
X35105Y-21205D01*
X23043Y-21205D02*
X28057Y-21205D01*
X10245Y-21205D02*
X11001Y-21205D01*
X39197Y-21125D02*
X39755Y-21125D01*
X30520Y-21125D02*
X35185Y-21125D01*
X23043Y-21125D02*
X28057Y-21125D01*
X10245Y-21125D02*
X11022Y-21125D01*
X39164Y-21045D02*
X39755Y-21045D01*
X30370Y-21045D02*
X35265Y-21045D01*
X23040Y-21045D02*
X28059Y-21045D01*
X10245Y-21045D02*
X11078Y-21045D01*
X39131Y-20965D02*
X39755Y-20965D01*
X30279Y-20965D02*
X35345Y-20965D01*
X23043Y-20965D02*
X28057Y-20965D01*
X10245Y-20965D02*
X11100Y-20965D01*
X39082Y-20885D02*
X39755Y-20885D01*
X32150Y-20885D02*
X35425Y-20885D01*
X23043Y-20885D02*
X28057Y-20885D01*
X10245Y-20885D02*
X11100Y-20885D01*
X39002Y-20805D02*
X39755Y-20805D01*
X32264Y-20805D02*
X35505Y-20805D01*
X23043Y-20805D02*
X28057Y-20805D01*
X10245Y-20805D02*
X11100Y-20805D01*
X38972Y-20725D02*
X39755Y-20725D01*
X32344Y-20725D02*
X35585Y-20725D01*
X23043Y-20725D02*
X28057Y-20725D01*
X10245Y-20725D02*
X11100Y-20725D01*
X39052Y-20645D02*
X39755Y-20645D01*
X32424Y-20645D02*
X35665Y-20645D01*
X23043Y-20645D02*
X28057Y-20645D01*
X10245Y-20645D02*
X11100Y-20645D01*
X39117Y-20565D02*
X39755Y-20565D01*
X32504Y-20565D02*
X35745Y-20565D01*
X23043Y-20565D02*
X28057Y-20565D01*
X10245Y-20565D02*
X11100Y-20565D01*
X39151Y-20485D02*
X39755Y-20485D01*
X32584Y-20485D02*
X35825Y-20485D01*
X23043Y-20485D02*
X28057Y-20485D01*
X10245Y-20485D02*
X11100Y-20485D01*
X39184Y-20405D02*
X39755Y-20405D01*
X32663Y-20405D02*
X35905Y-20405D01*
X23043Y-20405D02*
X28057Y-20405D01*
X10245Y-20405D02*
X11034Y-20405D01*
X39199Y-20325D02*
X39755Y-20325D01*
X32743Y-20325D02*
X35985Y-20325D01*
X23043Y-20325D02*
X28057Y-20325D01*
X10245Y-20325D02*
X11001Y-20325D01*
X39199Y-20245D02*
X39755Y-20245D01*
X32823Y-20245D02*
X36065Y-20245D01*
X23043Y-20245D02*
X28057Y-20245D01*
X10245Y-20245D02*
X11001Y-20245D01*
X39199Y-20165D02*
X39755Y-20165D01*
X32903Y-20165D02*
X36145Y-20165D01*
X23043Y-20165D02*
X28057Y-20165D01*
X10245Y-20165D02*
X11001Y-20165D01*
X39180Y-20085D02*
X39755Y-20085D01*
X33115Y-20085D02*
X36225Y-20085D01*
X23043Y-20085D02*
X28078Y-20085D01*
X10245Y-20085D02*
X11001Y-20085D01*
X39147Y-20005D02*
X39755Y-20005D01*
X33276Y-20005D02*
X36313Y-20005D01*
X23043Y-20005D02*
X28133Y-20005D01*
X10245Y-20005D02*
X11001Y-20005D01*
X39114Y-19925D02*
X39755Y-19925D01*
X33356Y-19925D02*
X36520Y-19925D01*
X29014Y-19925D02*
X29785Y-19925D01*
X23043Y-19925D02*
X28148Y-19925D01*
X10245Y-19925D02*
X11001Y-19925D01*
X39042Y-19845D02*
X39755Y-19845D01*
X33407Y-19845D02*
X37158Y-19845D01*
X29078Y-19845D02*
X29864Y-19845D01*
X23043Y-19845D02*
X28083Y-19845D01*
X10245Y-19845D02*
X11001Y-19845D01*
X38962Y-19765D02*
X39755Y-19765D01*
X33441Y-19765D02*
X37238Y-19765D01*
X29105Y-19765D02*
X29944Y-19765D01*
X23043Y-19765D02*
X28057Y-19765D01*
X10245Y-19765D02*
X11001Y-19765D01*
X39012Y-19685D02*
X39755Y-19685D01*
X33460Y-19685D02*
X37124Y-19685D01*
X29105Y-19685D02*
X30024Y-19685D01*
X23043Y-19685D02*
X28057Y-19685D01*
X10245Y-19685D02*
X11001Y-19685D01*
X39092Y-19605D02*
X39755Y-19605D01*
X33460Y-19605D02*
X37100Y-19605D01*
X29835Y-19605D02*
X29845Y-19605D01*
X29105Y-19605D02*
X29464Y-19605D01*
X23043Y-19605D02*
X28057Y-19605D01*
X10245Y-19605D02*
X11031Y-19605D01*
X39134Y-19525D02*
X39755Y-19525D01*
X33458Y-19525D02*
X37100Y-19525D01*
X29835Y-19525D02*
X29845Y-19525D01*
X29105Y-19525D02*
X29416Y-19525D01*
X23043Y-19525D02*
X28057Y-19525D01*
X10245Y-19525D02*
X11098Y-19525D01*
X39167Y-19445D02*
X39755Y-19445D01*
X33425Y-19445D02*
X37100Y-19445D01*
X29835Y-19445D02*
X29845Y-19445D01*
X29105Y-19445D02*
X29415Y-19445D01*
X23043Y-19445D02*
X28057Y-19445D01*
X10245Y-19445D02*
X11113Y-19445D01*
X39199Y-19365D02*
X39755Y-19365D01*
X33392Y-19365D02*
X37100Y-19365D01*
X30264Y-19365D02*
X30380Y-19365D01*
X29835Y-19365D02*
X29845Y-19365D01*
X29105Y-19365D02*
X29415Y-19365D01*
X23043Y-19365D02*
X28057Y-19365D01*
X10245Y-19365D02*
X11136Y-19365D01*
X39199Y-19285D02*
X39755Y-19285D01*
X33317Y-19285D02*
X37107Y-19285D01*
X32106Y-19285D02*
X32653Y-19285D01*
X30258Y-19285D02*
X30554Y-19285D01*
X29105Y-19285D02*
X29422Y-19285D01*
X23043Y-19285D02*
X28057Y-19285D01*
X10245Y-19285D02*
X11189Y-19285D01*
X39199Y-19205D02*
X39755Y-19205D01*
X37595Y-19205D02*
X37605Y-19205D01*
X33212Y-19205D02*
X37101Y-19205D01*
X32047Y-19205D02*
X32758Y-19205D01*
X31297Y-19205D02*
X31363Y-19205D01*
X30265Y-19205D02*
X30613Y-19205D01*
X29105Y-19205D02*
X29416Y-19205D01*
X23043Y-19205D02*
X28057Y-19205D01*
X10245Y-19205D02*
X11265Y-19205D01*
X39197Y-19125D02*
X39755Y-19125D01*
X37595Y-19125D02*
X37605Y-19125D01*
X30265Y-19125D02*
X37101Y-19125D01*
X29105Y-19125D02*
X29416Y-19125D01*
X23043Y-19125D02*
X28057Y-19125D01*
X10245Y-19125D02*
X11345Y-19125D01*
X39164Y-19045D02*
X39755Y-19045D01*
X37595Y-19045D02*
X37605Y-19045D01*
X30226Y-19045D02*
X37101Y-19045D01*
X29105Y-19045D02*
X29454Y-19045D01*
X23043Y-19045D02*
X28057Y-19045D01*
X10245Y-19045D02*
X11425Y-19045D01*
X39131Y-18965D02*
X39755Y-18965D01*
X37595Y-18965D02*
X37605Y-18965D01*
X30234Y-18965D02*
X37101Y-18965D01*
X29105Y-18965D02*
X29445Y-18965D01*
X23043Y-18965D02*
X28057Y-18965D01*
X10245Y-18965D02*
X11505Y-18965D01*
X39082Y-18885D02*
X39755Y-18885D01*
X38099Y-18885D02*
X38118Y-18885D01*
X37595Y-18885D02*
X37605Y-18885D01*
X30326Y-18885D02*
X37101Y-18885D01*
X29105Y-18885D02*
X29353Y-18885D01*
X23043Y-18885D02*
X28057Y-18885D01*
X10245Y-18885D02*
X11585Y-18885D01*
X39002Y-18805D02*
X39755Y-18805D01*
X38066Y-18805D02*
X38198Y-18805D01*
X37595Y-18805D02*
X37605Y-18805D01*
X30359Y-18805D02*
X37134Y-18805D01*
X29105Y-18805D02*
X29320Y-18805D01*
X23043Y-18805D02*
X28057Y-18805D01*
X10245Y-18805D02*
X11665Y-18805D01*
X38898Y-18725D02*
X39755Y-18725D01*
X30364Y-18725D02*
X38303Y-18725D01*
X29105Y-18725D02*
X29316Y-18725D01*
X23043Y-18725D02*
X28057Y-18725D01*
X10245Y-18725D02*
X11745Y-18725D01*
X30364Y-18645D02*
X39755Y-18645D01*
X29105Y-18645D02*
X29316Y-18645D01*
X23043Y-18645D02*
X28057Y-18645D01*
X10245Y-18645D02*
X11825Y-18645D01*
X30364Y-18565D02*
X39755Y-18565D01*
X29105Y-18565D02*
X29316Y-18565D01*
X23043Y-18565D02*
X28057Y-18565D01*
X11483Y-18565D02*
X11905Y-18565D01*
X10245Y-18565D02*
X10251Y-18565D01*
X30364Y-18485D02*
X39755Y-18485D01*
X29105Y-18485D02*
X29316Y-18485D01*
X23043Y-18485D02*
X28057Y-18485D01*
X11532Y-18485D02*
X12015Y-18485D01*
X30364Y-18405D02*
X39755Y-18405D01*
X29105Y-18405D02*
X29316Y-18405D01*
X23043Y-18405D02*
X28057Y-18405D01*
X11549Y-18405D02*
X12272Y-18405D01*
X30356Y-18325D02*
X39755Y-18325D01*
X29105Y-18325D02*
X29325Y-18325D01*
X23043Y-18325D02*
X28057Y-18325D01*
X11549Y-18325D02*
X12272Y-18325D01*
X30317Y-18245D02*
X39755Y-18245D01*
X29105Y-18245D02*
X29363Y-18245D01*
X23043Y-18245D02*
X28057Y-18245D01*
X11549Y-18245D02*
X12272Y-18245D01*
X30211Y-18165D02*
X39755Y-18165D01*
X29105Y-18165D02*
X29470Y-18165D01*
X23043Y-18165D02*
X28057Y-18165D01*
X11549Y-18165D02*
X12055Y-18165D01*
X30165Y-18085D02*
X39755Y-18085D01*
X29105Y-18085D02*
X29515Y-18085D01*
X23043Y-18085D02*
X28057Y-18085D01*
X11549Y-18085D02*
X11960Y-18085D01*
X30165Y-18005D02*
X39755Y-18005D01*
X29105Y-18005D02*
X29515Y-18005D01*
X23043Y-18005D02*
X28057Y-18005D01*
X11549Y-18005D02*
X11880Y-18005D01*
X30165Y-17925D02*
X39755Y-17925D01*
X29103Y-17925D02*
X29515Y-17925D01*
X23041Y-17925D02*
X28059Y-17925D01*
X11549Y-17925D02*
X11800Y-17925D01*
X35423Y-17845D02*
X39755Y-17845D01*
X30165Y-17845D02*
X35017Y-17845D01*
X29105Y-17845D02*
X29515Y-17845D01*
X23043Y-17845D02*
X28057Y-17845D01*
X11549Y-17845D02*
X11720Y-17845D01*
X35541Y-17765D02*
X39755Y-17765D01*
X30165Y-17765D02*
X34898Y-17765D01*
X29105Y-17765D02*
X29515Y-17765D01*
X23043Y-17765D02*
X28057Y-17765D01*
X11549Y-17765D02*
X11640Y-17765D01*
X35621Y-17685D02*
X39755Y-17685D01*
X30165Y-17685D02*
X34818Y-17685D01*
X29105Y-17685D02*
X29515Y-17685D01*
X23043Y-17685D02*
X28057Y-17685D01*
X11549Y-17685D02*
X11560Y-17685D01*
X35655Y-17605D02*
X39755Y-17605D01*
X30165Y-17605D02*
X34784Y-17605D01*
X29101Y-17605D02*
X29515Y-17605D01*
X23039Y-17605D02*
X28061Y-17605D01*
X35688Y-17525D02*
X39755Y-17525D01*
X30165Y-17525D02*
X34751Y-17525D01*
X29105Y-17525D02*
X29515Y-17525D01*
X23043Y-17525D02*
X28057Y-17525D01*
X35695Y-17445D02*
X39755Y-17445D01*
X30165Y-17445D02*
X34745Y-17445D01*
X29105Y-17445D02*
X29515Y-17445D01*
X23043Y-17445D02*
X28057Y-17445D01*
X35695Y-17365D02*
X39755Y-17365D01*
X30165Y-17365D02*
X34745Y-17365D01*
X29105Y-17365D02*
X29515Y-17365D01*
X23043Y-17365D02*
X28057Y-17365D01*
X35681Y-17285D02*
X39755Y-17285D01*
X30165Y-17285D02*
X34760Y-17285D01*
X29099Y-17285D02*
X29515Y-17285D01*
X27749Y-17285D02*
X27758Y-17285D01*
X27434Y-17285D02*
X27443Y-17285D01*
X27119Y-17285D02*
X27128Y-17285D01*
X26490Y-17285D02*
X26812Y-17285D01*
X26174Y-17285D02*
X26183Y-17285D01*
X25859Y-17285D02*
X25868Y-17285D01*
X25544Y-17285D02*
X25553Y-17285D01*
X25230Y-17285D02*
X25239Y-17285D01*
X24915Y-17285D02*
X24924Y-17285D01*
X24600Y-17285D02*
X24609Y-17285D01*
X24285Y-17285D02*
X24294Y-17285D01*
X23970Y-17285D02*
X23979Y-17285D01*
X23655Y-17285D02*
X23664Y-17285D01*
X23340Y-17285D02*
X23349Y-17285D01*
X35648Y-17205D02*
X39755Y-17205D01*
X30165Y-17205D02*
X34794Y-17205D01*
X29063Y-17205D02*
X29515Y-17205D01*
X26615Y-17205D02*
X26689Y-17205D01*
X35602Y-17125D02*
X39755Y-17125D01*
X30165Y-17125D02*
X34839Y-17125D01*
X28964Y-17125D02*
X29515Y-17125D01*
X35545Y-17045D02*
X39755Y-17045D01*
X30165Y-17045D02*
X34895Y-17045D01*
X28249Y-17045D02*
X29515Y-17045D01*
X35545Y-16965D02*
X39755Y-16965D01*
X30165Y-16965D02*
X34895Y-16965D01*
X28249Y-16965D02*
X29515Y-16965D01*
X35545Y-16885D02*
X39755Y-16885D01*
X30165Y-16885D02*
X34895Y-16885D01*
X28249Y-16885D02*
X29515Y-16885D01*
X35545Y-16805D02*
X39755Y-16805D01*
X30165Y-16805D02*
X34895Y-16805D01*
X28249Y-16805D02*
X29515Y-16805D01*
X35545Y-16725D02*
X39755Y-16725D01*
X30165Y-16725D02*
X34895Y-16725D01*
X28249Y-16725D02*
X29515Y-16725D01*
X35545Y-16645D02*
X39755Y-16645D01*
X30165Y-16645D02*
X34890Y-16645D01*
X28249Y-16645D02*
X29515Y-16645D01*
X35545Y-16565D02*
X39755Y-16565D01*
X30165Y-16565D02*
X34810Y-16565D01*
X28249Y-16565D02*
X29515Y-16565D01*
X35539Y-16485D02*
X39755Y-16485D01*
X30165Y-16485D02*
X34730Y-16485D01*
X28249Y-16485D02*
X29515Y-16485D01*
X35523Y-16405D02*
X39755Y-16405D01*
X30165Y-16405D02*
X34650Y-16405D01*
X28233Y-16405D02*
X29515Y-16405D01*
X35477Y-16325D02*
X39755Y-16325D01*
X30165Y-16325D02*
X34570Y-16325D01*
X28184Y-16325D02*
X29515Y-16325D01*
X35410Y-16245D02*
X39755Y-16245D01*
X30165Y-16245D02*
X34490Y-16245D01*
X28053Y-16245D02*
X29515Y-16245D01*
X27738Y-16245D02*
X27773Y-16245D01*
X27423Y-16245D02*
X27458Y-16245D01*
X35330Y-16165D02*
X39755Y-16165D01*
X30165Y-16165D02*
X34410Y-16165D01*
X27292Y-16165D02*
X29515Y-16165D01*
X35250Y-16085D02*
X39755Y-16085D01*
X30165Y-16085D02*
X34330Y-16085D01*
X27292Y-16085D02*
X29515Y-16085D01*
X35170Y-16005D02*
X39755Y-16005D01*
X30165Y-16005D02*
X34250Y-16005D01*
X27323Y-16005D02*
X28908Y-16005D01*
X35090Y-15925D02*
X39755Y-15925D01*
X30171Y-15925D02*
X34170Y-15925D01*
X28725Y-15925D02*
X28834Y-15925D01*
X28453Y-15925D02*
X28497Y-15925D01*
X27330Y-15925D02*
X28224Y-15925D01*
X35010Y-15845D02*
X39755Y-15845D01*
X30251Y-15845D02*
X34090Y-15845D01*
X28790Y-15845D02*
X28801Y-15845D01*
X28470Y-15845D02*
X28480Y-15845D01*
X27330Y-15845D02*
X28159Y-15845D01*
X34930Y-15765D02*
X39755Y-15765D01*
X30314Y-15765D02*
X34010Y-15765D01*
X28799Y-15765D02*
X28801Y-15765D01*
X28470Y-15765D02*
X28480Y-15765D01*
X27299Y-15765D02*
X28150Y-15765D01*
X34850Y-15685D02*
X39755Y-15685D01*
X30347Y-15685D02*
X33930Y-15685D01*
X28799Y-15685D02*
X28801Y-15685D01*
X28470Y-15685D02*
X28480Y-15685D01*
X27255Y-15685D02*
X28150Y-15685D01*
X34770Y-15605D02*
X39755Y-15605D01*
X30375Y-15605D02*
X33850Y-15605D01*
X28799Y-15605D02*
X28801Y-15605D01*
X28470Y-15605D02*
X28480Y-15605D01*
X27175Y-15605D02*
X28150Y-15605D01*
X34690Y-15525D02*
X39755Y-15525D01*
X30375Y-15525D02*
X33770Y-15525D01*
X28763Y-15525D02*
X28801Y-15525D01*
X28470Y-15525D02*
X28480Y-15525D01*
X26814Y-15525D02*
X28187Y-15525D01*
X34610Y-15445D02*
X39755Y-15445D01*
X30375Y-15445D02*
X33690Y-15445D01*
X34530Y-15365D02*
X39755Y-15365D01*
X30348Y-15365D02*
X33610Y-15365D01*
X34450Y-15285D02*
X39755Y-15285D01*
X30315Y-15285D02*
X33530Y-15285D01*
X34370Y-15205D02*
X39755Y-15205D01*
X30252Y-15205D02*
X33450Y-15205D01*
X34290Y-15125D02*
X39755Y-15125D01*
X30172Y-15125D02*
X33370Y-15125D01*
X34210Y-15045D02*
X39755Y-15045D01*
X29821Y-15045D02*
X33290Y-15045D01*
X34130Y-14965D02*
X39755Y-14965D01*
X29821Y-14965D02*
X33223Y-14965D01*
X34050Y-14885D02*
X39755Y-14885D01*
X29821Y-14885D02*
X33177Y-14885D01*
X33970Y-14805D02*
X39755Y-14805D01*
X29822Y-14805D02*
X33161Y-14805D01*
X33890Y-14725D02*
X39755Y-14725D01*
X29822Y-14725D02*
X33155Y-14725D01*
X33810Y-14645D02*
X39755Y-14645D01*
X29823Y-14645D02*
X33155Y-14645D01*
X33805Y-14565D02*
X39755Y-14565D01*
X29823Y-14565D02*
X33155Y-14565D01*
X33805Y-14485D02*
X39755Y-14485D01*
X29824Y-14485D02*
X33155Y-14485D01*
X36076Y-14405D02*
X39755Y-14405D01*
X33805Y-14405D02*
X35863Y-14405D01*
X29824Y-14405D02*
X33130Y-14405D01*
X36251Y-14325D02*
X39755Y-14325D01*
X33805Y-14325D02*
X35688Y-14325D01*
X29824Y-14325D02*
X33050Y-14325D01*
X36331Y-14245D02*
X39755Y-14245D01*
X33795Y-14245D02*
X35608Y-14245D01*
X29825Y-14245D02*
X32970Y-14245D01*
X36388Y-14165D02*
X39755Y-14165D01*
X33777Y-14165D02*
X35550Y-14165D01*
X29825Y-14165D02*
X32890Y-14165D01*
X36421Y-14085D02*
X39755Y-14085D01*
X33724Y-14085D02*
X35518Y-14085D01*
X29826Y-14085D02*
X32810Y-14085D01*
X36445Y-14005D02*
X39755Y-14005D01*
X33650Y-14005D02*
X35495Y-14005D01*
X29826Y-14005D02*
X32730Y-14005D01*
X36445Y-13925D02*
X39755Y-13925D01*
X33570Y-13925D02*
X35495Y-13925D01*
X29827Y-13925D02*
X32650Y-13925D01*
X36445Y-13845D02*
X39755Y-13845D01*
X33490Y-13845D02*
X35495Y-13845D01*
X29827Y-13845D02*
X32570Y-13845D01*
X36414Y-13765D02*
X39755Y-13765D01*
X33410Y-13765D02*
X35527Y-13765D01*
X29827Y-13765D02*
X32490Y-13765D01*
X36381Y-13685D02*
X39755Y-13685D01*
X33330Y-13685D02*
X35561Y-13685D01*
X29828Y-13685D02*
X32410Y-13685D01*
X36325Y-13605D02*
X39755Y-13605D01*
X33250Y-13605D02*
X35629Y-13605D01*
X29828Y-13605D02*
X32330Y-13605D01*
X36325Y-13525D02*
X39755Y-13525D01*
X33170Y-13525D02*
X35675Y-13525D01*
X29829Y-13525D02*
X32250Y-13525D01*
X36325Y-13445D02*
X39755Y-13445D01*
X33090Y-13445D02*
X35675Y-13445D01*
X29829Y-13445D02*
X32170Y-13445D01*
X36325Y-13365D02*
X39755Y-13365D01*
X33010Y-13365D02*
X35675Y-13365D01*
X29830Y-13365D02*
X32090Y-13365D01*
X36325Y-13285D02*
X39755Y-13285D01*
X32930Y-13285D02*
X35675Y-13285D01*
X29830Y-13285D02*
X32010Y-13285D01*
X36325Y-13205D02*
X39755Y-13205D01*
X32850Y-13205D02*
X35675Y-13205D01*
X29830Y-13205D02*
X31930Y-13205D01*
X36325Y-13125D02*
X39755Y-13125D01*
X32770Y-13125D02*
X35675Y-13125D01*
X29831Y-13125D02*
X31850Y-13125D01*
X36325Y-13045D02*
X39755Y-13045D01*
X34118Y-13045D02*
X35675Y-13045D01*
X33118Y-13045D02*
X33881Y-13045D01*
X32690Y-13045D02*
X32881Y-13045D01*
X29831Y-13045D02*
X31640Y-13045D01*
X36325Y-12965D02*
X39755Y-12965D01*
X34311Y-12965D02*
X35675Y-12965D01*
X33311Y-12965D02*
X33689Y-12965D01*
X32610Y-12965D02*
X32689Y-12965D01*
X29832Y-12965D02*
X31513Y-12965D01*
X36391Y-12885D02*
X39755Y-12885D01*
X35231Y-12885D02*
X35609Y-12885D01*
X34391Y-12885D02*
X34782Y-12885D01*
X33391Y-12885D02*
X33609Y-12885D01*
X32534Y-12885D02*
X32609Y-12885D01*
X29832Y-12885D02*
X31465Y-12885D01*
X36467Y-12805D02*
X39755Y-12805D01*
X35284Y-12805D02*
X35532Y-12805D01*
X34467Y-12805D02*
X34715Y-12805D01*
X33467Y-12805D02*
X33532Y-12805D01*
X29833Y-12805D02*
X31451Y-12805D01*
X36500Y-12725D02*
X39755Y-12725D01*
X35381Y-12725D02*
X35499Y-12725D01*
X35218Y-12725D02*
X35232Y-12725D01*
X34768Y-12725D02*
X34782Y-12725D01*
X34500Y-12725D02*
X34612Y-12725D01*
X29833Y-12725D02*
X31451Y-12725D01*
X36534Y-12645D02*
X39755Y-12645D01*
X35417Y-12645D02*
X35465Y-12645D01*
X35138Y-12645D02*
X35152Y-12645D01*
X34848Y-12645D02*
X34862Y-12645D01*
X34534Y-12645D02*
X34582Y-12645D01*
X29834Y-12645D02*
X31451Y-12645D01*
X36549Y-12565D02*
X39755Y-12565D01*
X35439Y-12565D02*
X35451Y-12565D01*
X35058Y-12565D02*
X35072Y-12565D01*
X34928Y-12565D02*
X34942Y-12565D01*
X34549Y-12565D02*
X34557Y-12565D01*
X29834Y-12565D02*
X31451Y-12565D01*
X36549Y-12485D02*
X39755Y-12485D01*
X35441Y-12485D02*
X35451Y-12485D01*
X35008Y-12485D02*
X35022Y-12485D01*
X34978Y-12485D02*
X34992Y-12485D01*
X34549Y-12485D02*
X34560Y-12485D01*
X29834Y-12485D02*
X31451Y-12485D01*
X36549Y-12405D02*
X39755Y-12405D01*
X35437Y-12405D02*
X35451Y-12405D01*
X35088Y-12405D02*
X35102Y-12405D01*
X34898Y-12405D02*
X34912Y-12405D01*
X34549Y-12405D02*
X34562Y-12405D01*
X29835Y-12405D02*
X31451Y-12405D01*
X36522Y-12325D02*
X39755Y-12325D01*
X35407Y-12325D02*
X35479Y-12325D01*
X35168Y-12325D02*
X35182Y-12325D01*
X34818Y-12325D02*
X34832Y-12325D01*
X34522Y-12325D02*
X34596Y-12325D01*
X29835Y-12325D02*
X31451Y-12325D01*
X36489Y-12245D02*
X39755Y-12245D01*
X35370Y-12245D02*
X35512Y-12245D01*
X35248Y-12245D02*
X35262Y-12245D01*
X34738Y-12245D02*
X34752Y-12245D01*
X34489Y-12245D02*
X34632Y-12245D01*
X33489Y-12245D02*
X33512Y-12245D01*
X29836Y-12245D02*
X31451Y-12245D01*
X36441Y-12165D02*
X39755Y-12165D01*
X35273Y-12165D02*
X35559Y-12165D01*
X34441Y-12165D02*
X34728Y-12165D01*
X33441Y-12165D02*
X33559Y-12165D01*
X32549Y-12165D02*
X32559Y-12165D01*
X29836Y-12165D02*
X31451Y-12165D01*
X39085Y-12085D02*
X39755Y-12085D01*
X36361Y-12085D02*
X38414Y-12085D01*
X35152Y-12085D02*
X35639Y-12085D01*
X34361Y-12085D02*
X34849Y-12085D01*
X33361Y-12085D02*
X33639Y-12085D01*
X32522Y-12085D02*
X32639Y-12085D01*
X29837Y-12085D02*
X31479Y-12085D01*
X39267Y-12005D02*
X39755Y-12005D01*
X36239Y-12005D02*
X38232Y-12005D01*
X35214Y-12005D02*
X35761Y-12005D01*
X34239Y-12005D02*
X34785Y-12005D01*
X33240Y-12005D02*
X33761Y-12005D01*
X32457Y-12005D02*
X32761Y-12005D01*
X29837Y-12005D02*
X31543Y-12005D01*
X39347Y-11925D02*
X39755Y-11925D01*
X36351Y-11925D02*
X38152Y-11925D01*
X35351Y-11925D02*
X35649Y-11925D01*
X34351Y-11925D02*
X34649Y-11925D01*
X33125Y-11925D02*
X33649Y-11925D01*
X32351Y-11925D02*
X32871Y-11925D01*
X29837Y-11925D02*
X31649Y-11925D01*
X39427Y-11845D02*
X39755Y-11845D01*
X36431Y-11845D02*
X38072Y-11845D01*
X35431Y-11845D02*
X35569Y-11845D01*
X34431Y-11845D02*
X34569Y-11845D01*
X33268Y-11845D02*
X33569Y-11845D01*
X32431Y-11845D02*
X32731Y-11845D01*
X29838Y-11845D02*
X31569Y-11845D01*
X39507Y-11765D02*
X39755Y-11765D01*
X36484Y-11765D02*
X37992Y-11765D01*
X35483Y-11765D02*
X35516Y-11765D01*
X34483Y-11765D02*
X34516Y-11765D01*
X33353Y-11765D02*
X33515Y-11765D01*
X33258Y-11765D02*
X33272Y-11765D01*
X32728Y-11765D02*
X32742Y-11765D01*
X32484Y-11765D02*
X32646Y-11765D01*
X29838Y-11765D02*
X31515Y-11765D01*
X39543Y-11685D02*
X39755Y-11685D01*
X36517Y-11685D02*
X37956Y-11685D01*
X33399Y-11685D02*
X33482Y-11685D01*
X33178Y-11685D02*
X33192Y-11685D01*
X32808Y-11685D02*
X32822Y-11685D01*
X32517Y-11685D02*
X32597Y-11685D01*
X29839Y-11685D02*
X31482Y-11685D01*
X39577Y-11605D02*
X39755Y-11605D01*
X36549Y-11605D02*
X37923Y-11605D01*
X33435Y-11605D02*
X33451Y-11605D01*
X33098Y-11605D02*
X33112Y-11605D01*
X32888Y-11605D02*
X32902Y-11605D01*
X32549Y-11605D02*
X32567Y-11605D01*
X29839Y-11605D02*
X31451Y-11605D01*
X39610Y-11525D02*
X39755Y-11525D01*
X36549Y-11525D02*
X37890Y-11525D01*
X33440Y-11525D02*
X33451Y-11525D01*
X33018Y-11525D02*
X33032Y-11525D01*
X32968Y-11525D02*
X32982Y-11525D01*
X32549Y-11525D02*
X32558Y-11525D01*
X29840Y-11525D02*
X31451Y-11525D01*
X39643Y-11445D02*
X39755Y-11445D01*
X36549Y-11445D02*
X37857Y-11445D01*
X33443Y-11445D02*
X33451Y-11445D01*
X33048Y-11445D02*
X33062Y-11445D01*
X32938Y-11445D02*
X32952Y-11445D01*
X32549Y-11445D02*
X32561Y-11445D01*
X29840Y-11445D02*
X31451Y-11445D01*
X39650Y-11365D02*
X39755Y-11365D01*
X36539Y-11365D02*
X37850Y-11365D01*
X33422Y-11365D02*
X33462Y-11365D01*
X33128Y-11365D02*
X33142Y-11365D01*
X32858Y-11365D02*
X32872Y-11365D01*
X32539Y-11365D02*
X32578Y-11365D01*
X29840Y-11365D02*
X31462Y-11365D01*
X39650Y-11285D02*
X39755Y-11285D01*
X36505Y-11285D02*
X37850Y-11285D01*
X33392Y-11285D02*
X33496Y-11285D01*
X33208Y-11285D02*
X33222Y-11285D01*
X32778Y-11285D02*
X32792Y-11285D01*
X32505Y-11285D02*
X32614Y-11285D01*
X29841Y-11285D02*
X31496Y-11285D01*
X39650Y-11205D02*
X39755Y-11205D01*
X36472Y-11205D02*
X37850Y-11205D01*
X35472Y-11205D02*
X35529Y-11205D01*
X34472Y-11205D02*
X34529Y-11205D01*
X33288Y-11205D02*
X33529Y-11205D01*
X32472Y-11205D02*
X32712Y-11205D01*
X29841Y-11205D02*
X31529Y-11205D01*
X39650Y-11125D02*
X39755Y-11125D01*
X36401Y-11125D02*
X37850Y-11125D01*
X35401Y-11125D02*
X35599Y-11125D01*
X34401Y-11125D02*
X34599Y-11125D01*
X33240Y-11125D02*
X33599Y-11125D01*
X32401Y-11125D02*
X32752Y-11125D01*
X29842Y-11125D02*
X31599Y-11125D01*
X39639Y-11045D02*
X39755Y-11045D01*
X36321Y-11045D02*
X37861Y-11045D01*
X35321Y-11045D02*
X35679Y-11045D01*
X34321Y-11045D02*
X34679Y-11045D01*
X32321Y-11045D02*
X33679Y-11045D01*
X29842Y-11045D02*
X31679Y-11045D01*
X39606Y-10965D02*
X39755Y-10965D01*
X36143Y-10965D02*
X37894Y-10965D01*
X35143Y-10965D02*
X35858Y-10965D01*
X34143Y-10965D02*
X34858Y-10965D01*
X32143Y-10965D02*
X33858Y-10965D01*
X29843Y-10965D02*
X31858Y-10965D01*
X39573Y-10885D02*
X39755Y-10885D01*
X29843Y-10885D02*
X37928Y-10885D01*
X39540Y-10805D02*
X39755Y-10805D01*
X29843Y-10805D02*
X37961Y-10805D01*
X39498Y-10725D02*
X39755Y-10725D01*
X29844Y-10725D02*
X38003Y-10725D01*
X39418Y-10645D02*
X39755Y-10645D01*
X29844Y-10645D02*
X38083Y-10645D01*
X39338Y-10565D02*
X39755Y-10565D01*
X29845Y-10565D02*
X38163Y-10565D01*
X39254Y-10485D02*
X39755Y-10485D01*
X29845Y-10485D02*
X38246Y-10485D01*
X39062Y-10405D02*
X39755Y-10405D01*
X29846Y-10405D02*
X38440Y-10405D01*
X29846Y-10325D02*
X39755Y-10325D01*
X29847Y-10245D02*
X39755Y-10245D01*
X26347Y-15125D02*
X28081Y-15125D01*
X24973Y-15125D02*
X25382Y-15125D01*
X22250Y-15125D02*
X24607Y-15125D01*
X26347Y-15045D02*
X28148Y-15045D01*
X22250Y-15045D02*
X25382Y-15045D01*
X26347Y-14965D02*
X28435Y-14965D01*
X22250Y-14965D02*
X25382Y-14965D01*
X26347Y-14885D02*
X28515Y-14885D01*
X22250Y-14885D02*
X25382Y-14885D01*
X26347Y-14805D02*
X28595Y-14805D01*
X22250Y-14805D02*
X25382Y-14805D01*
X27182Y-14725D02*
X28675Y-14725D01*
X26347Y-14725D02*
X26528Y-14725D01*
X25202Y-14725D02*
X25382Y-14725D01*
X22250Y-14725D02*
X24548Y-14725D01*
X27871Y-14645D02*
X28755Y-14645D01*
X27593Y-14645D02*
X27617Y-14645D01*
X27249Y-14645D02*
X27339Y-14645D01*
X26347Y-14645D02*
X26460Y-14645D01*
X25269Y-14645D02*
X25382Y-14645D01*
X24391Y-14645D02*
X24480Y-14645D01*
X24113Y-14645D02*
X24137Y-14645D01*
X22250Y-14645D02*
X23859Y-14645D01*
X27924Y-14565D02*
X28848Y-14565D01*
X27600Y-14565D02*
X27610Y-14565D01*
X27279Y-14565D02*
X27285Y-14565D01*
X24444Y-14565D02*
X24451Y-14565D01*
X24120Y-14565D02*
X24130Y-14565D01*
X22250Y-14565D02*
X23805Y-14565D01*
X27929Y-14485D02*
X29340Y-14485D01*
X27600Y-14485D02*
X27610Y-14485D01*
X27279Y-14485D02*
X27280Y-14485D01*
X24449Y-14485D02*
X24451Y-14485D01*
X24120Y-14485D02*
X24130Y-14485D01*
X22250Y-14485D02*
X23800Y-14485D01*
X27929Y-14405D02*
X29340Y-14405D01*
X27600Y-14405D02*
X27610Y-14405D01*
X27279Y-14405D02*
X27280Y-14405D01*
X24449Y-14405D02*
X24451Y-14405D01*
X24120Y-14405D02*
X24130Y-14405D01*
X22250Y-14405D02*
X23800Y-14405D01*
X27929Y-14325D02*
X29340Y-14325D01*
X27600Y-14325D02*
X27610Y-14325D01*
X27279Y-14325D02*
X27280Y-14325D01*
X24449Y-14325D02*
X24451Y-14325D01*
X24120Y-14325D02*
X24130Y-14325D01*
X22250Y-14325D02*
X23800Y-14325D01*
X27600Y-14245D02*
X29340Y-14245D01*
X27279Y-14245D02*
X27330Y-14245D01*
X24400Y-14245D02*
X24451Y-14245D01*
X22250Y-14245D02*
X24130Y-14245D01*
X27930Y-14165D02*
X29340Y-14165D01*
X27600Y-14165D02*
X27610Y-14165D01*
X27279Y-14165D02*
X27281Y-14165D01*
X24450Y-14165D02*
X24451Y-14165D01*
X24120Y-14165D02*
X24130Y-14165D01*
X22250Y-14165D02*
X23801Y-14165D01*
X27930Y-14085D02*
X29340Y-14085D01*
X27600Y-14085D02*
X27610Y-14085D01*
X27279Y-14085D02*
X27281Y-14085D01*
X24450Y-14085D02*
X24451Y-14085D01*
X24120Y-14085D02*
X24130Y-14085D01*
X22250Y-14085D02*
X23801Y-14085D01*
X27930Y-14005D02*
X29340Y-14005D01*
X27600Y-14005D02*
X27610Y-14005D01*
X27279Y-14005D02*
X27281Y-14005D01*
X24450Y-14005D02*
X24451Y-14005D01*
X24120Y-14005D02*
X24130Y-14005D01*
X22250Y-14005D02*
X23801Y-14005D01*
X27921Y-13925D02*
X29340Y-13925D01*
X27600Y-13925D02*
X27610Y-13925D01*
X27279Y-13925D02*
X27290Y-13925D01*
X24441Y-13925D02*
X24451Y-13925D01*
X24120Y-13925D02*
X24130Y-13925D01*
X22250Y-13925D02*
X23810Y-13925D01*
X27856Y-13845D02*
X29340Y-13845D01*
X27583Y-13845D02*
X27627Y-13845D01*
X27246Y-13845D02*
X27355Y-13845D01*
X26347Y-13845D02*
X26465Y-13845D01*
X25266Y-13845D02*
X25382Y-13845D01*
X24376Y-13845D02*
X24485Y-13845D01*
X24103Y-13845D02*
X24147Y-13845D01*
X22250Y-13845D02*
X23875Y-13845D01*
X27172Y-13765D02*
X29340Y-13765D01*
X26347Y-13765D02*
X26538Y-13765D01*
X25192Y-13765D02*
X25382Y-13765D01*
X22250Y-13765D02*
X24558Y-13765D01*
X26347Y-13685D02*
X29340Y-13685D01*
X22250Y-13685D02*
X25382Y-13685D01*
X26347Y-13605D02*
X29340Y-13605D01*
X22250Y-13605D02*
X25382Y-13605D01*
X26347Y-13525D02*
X29340Y-13525D01*
X22250Y-13525D02*
X25382Y-13525D01*
X26347Y-13445D02*
X29340Y-13445D01*
X22250Y-13445D02*
X25382Y-13445D01*
X26347Y-13365D02*
X29340Y-13365D01*
X22250Y-13365D02*
X25382Y-13365D01*
X26347Y-13285D02*
X29340Y-13285D01*
X22250Y-13285D02*
X25382Y-13285D01*
X26347Y-13205D02*
X29340Y-13205D01*
X22250Y-13205D02*
X25382Y-13205D01*
X26347Y-13125D02*
X29340Y-13125D01*
X22250Y-13125D02*
X25382Y-13125D01*
X26359Y-13045D02*
X29340Y-13045D01*
X22250Y-13045D02*
X25354Y-13045D01*
X26439Y-12965D02*
X29340Y-12965D01*
X22250Y-12965D02*
X25274Y-12965D01*
X26519Y-12885D02*
X29340Y-12885D01*
X22250Y-12885D02*
X25194Y-12885D01*
X26599Y-12805D02*
X29340Y-12805D01*
X22250Y-12805D02*
X25114Y-12805D01*
X26679Y-12725D02*
X29340Y-12725D01*
X22250Y-12725D02*
X25034Y-12725D01*
X26759Y-12645D02*
X29340Y-12645D01*
X22250Y-12645D02*
X24954Y-12645D01*
X26839Y-12565D02*
X29340Y-12565D01*
X25795Y-12565D02*
X25919Y-12565D01*
X22250Y-12565D02*
X24874Y-12565D01*
X26957Y-12485D02*
X29340Y-12485D01*
X25715Y-12485D02*
X25999Y-12485D01*
X22250Y-12485D02*
X24773Y-12485D01*
X27125Y-12405D02*
X29340Y-12405D01*
X25635Y-12405D02*
X26079Y-12405D01*
X22250Y-12405D02*
X24604Y-12405D01*
X27205Y-12325D02*
X29340Y-12325D01*
X25555Y-12325D02*
X26159Y-12325D01*
X22250Y-12325D02*
X24524Y-12325D01*
X27263Y-12245D02*
X29340Y-12245D01*
X25475Y-12245D02*
X26239Y-12245D01*
X22250Y-12245D02*
X24466Y-12245D01*
X27296Y-12165D02*
X29340Y-12165D01*
X25395Y-12165D02*
X26319Y-12165D01*
X22250Y-12165D02*
X24433Y-12165D01*
X27324Y-12085D02*
X29340Y-12085D01*
X25404Y-12085D02*
X26326Y-12085D01*
X22250Y-12085D02*
X24406Y-12085D01*
X27324Y-12005D02*
X29340Y-12005D01*
X25404Y-12005D02*
X26326Y-12005D01*
X22250Y-12005D02*
X24406Y-12005D01*
X27324Y-11925D02*
X29340Y-11925D01*
X25404Y-11925D02*
X26326Y-11925D01*
X22250Y-11925D02*
X24406Y-11925D01*
X27301Y-11845D02*
X29340Y-11845D01*
X25381Y-11845D02*
X26350Y-11845D01*
X22250Y-11845D02*
X24430Y-11845D01*
X27268Y-11765D02*
X29340Y-11765D01*
X25348Y-11765D02*
X26383Y-11765D01*
X22250Y-11765D02*
X24463Y-11765D01*
X27216Y-11685D02*
X29340Y-11685D01*
X25296Y-11685D02*
X26435Y-11685D01*
X22250Y-11685D02*
X24515Y-11685D01*
X27136Y-11605D02*
X29340Y-11605D01*
X25216Y-11605D02*
X26515Y-11605D01*
X22250Y-11605D02*
X24595Y-11605D01*
X26983Y-11525D02*
X29340Y-11525D01*
X25063Y-11525D02*
X26669Y-11525D01*
X22250Y-11525D02*
X24749Y-11525D01*
X22250Y-11445D02*
X29340Y-11445D01*
X22250Y-11365D02*
X29340Y-11365D01*
X22250Y-11285D02*
X29340Y-11285D01*
X22250Y-11205D02*
X29340Y-11205D01*
X22250Y-11125D02*
X29340Y-11125D01*
X22250Y-11045D02*
X29340Y-11045D01*
X22250Y-10965D02*
X29340Y-10965D01*
X22250Y-10885D02*
X29340Y-10885D01*
X22250Y-10805D02*
X29340Y-10805D01*
X22250Y-10725D02*
X29340Y-10725D01*
X22250Y-10645D02*
X29340Y-10645D01*
X22250Y-10565D02*
X29340Y-10565D01*
X22250Y-10485D02*
X29340Y-10485D01*
X22250Y-10405D02*
X29340Y-10405D01*
X22250Y-10325D02*
X29340Y-10325D01*
X22250Y-10245D02*
X29340Y-10245D01*
X28064Y-15163D02*
X28089Y-15104D01*
X28089Y-15104D02*
X28159Y-15034D01*
X28159Y-15034D02*
X28251Y-14996D01*
X28251Y-14996D02*
X28404Y-14996D01*
X28404Y-14996D02*
X28810Y-14590D01*
X28810Y-14590D02*
X28916Y-14520D01*
X28916Y-14520D02*
X29040Y-14495D01*
X29040Y-14495D02*
X29340Y-14495D01*
X29340Y-14495D02*
X29340Y-10245D01*
X29340Y-10245D02*
X22250Y-10245D01*
X22250Y-10245D02*
X22250Y-15130D01*
X22250Y-15130D02*
X24083Y-15130D01*
X24083Y-15130D02*
X24083Y-14675D01*
X24083Y-14675D02*
X23920Y-14674D01*
X23920Y-14674D02*
X23865Y-14651D01*
X23865Y-14651D02*
X23823Y-14609D01*
X23823Y-14609D02*
X23801Y-14554D01*
X23801Y-14554D02*
X23800Y-14292D01*
X23800Y-14292D02*
X23837Y-14255D01*
X23837Y-14255D02*
X23837Y-14245D01*
X23837Y-14245D02*
X23800Y-14208D01*
X23800Y-14208D02*
X23801Y-13946D01*
X23801Y-13946D02*
X23823Y-13891D01*
X23823Y-13891D02*
X23865Y-13849D01*
X23865Y-13849D02*
X23920Y-13826D01*
X23920Y-13826D02*
X24083Y-13825D01*
X24083Y-13825D02*
X24120Y-13862D01*
X24120Y-13862D02*
X24120Y-14245D01*
X24120Y-14245D02*
X23837Y-14245D01*
X23837Y-14245D02*
X23837Y-14255D01*
X23837Y-14255D02*
X24120Y-14255D01*
X24120Y-14255D02*
X24120Y-14638D01*
X24120Y-14638D02*
X24083Y-14675D01*
X24083Y-14675D02*
X24083Y-15130D01*
X24083Y-15130D02*
X24167Y-15130D01*
X24167Y-15130D02*
X24167Y-14675D01*
X24167Y-14675D02*
X24130Y-14638D01*
X24130Y-14638D02*
X24130Y-14255D01*
X24130Y-14255D02*
X24130Y-14245D01*
X24130Y-14245D02*
X24130Y-13862D01*
X24130Y-13862D02*
X24167Y-13825D01*
X24167Y-13825D02*
X24330Y-13826D01*
X24330Y-13826D02*
X24385Y-13849D01*
X24385Y-13849D02*
X24427Y-13891D01*
X24427Y-13891D02*
X24449Y-13946D01*
X24449Y-13946D02*
X24450Y-14208D01*
X24450Y-14208D02*
X24413Y-14245D01*
X24413Y-14245D02*
X24400Y-14245D01*
X24400Y-14245D02*
X24400Y-14255D01*
X24400Y-14255D02*
X24413Y-14255D01*
X24413Y-14255D02*
X24450Y-14292D01*
X24450Y-14292D02*
X24449Y-14554D01*
X24449Y-14554D02*
X24427Y-14609D01*
X24427Y-14609D02*
X24385Y-14651D01*
X24385Y-14651D02*
X24330Y-14674D01*
X24330Y-14674D02*
X24167Y-14675D01*
X24167Y-14675D02*
X24167Y-15130D01*
X24167Y-15130D02*
X24594Y-15130D01*
X24594Y-15130D02*
X24716Y-15080D01*
X24716Y-15080D02*
X24865Y-15080D01*
X24865Y-15080D02*
X25003Y-15138D01*
X25003Y-15138D02*
X25016Y-15151D01*
X25016Y-15151D02*
X25382Y-15152D01*
X25382Y-15152D02*
X25382Y-14575D01*
X25382Y-14575D02*
X25299Y-14575D01*
X25299Y-14575D02*
X25261Y-14666D01*
X25261Y-14666D02*
X25191Y-14736D01*
X25191Y-14736D02*
X25099Y-14774D01*
X25099Y-14774D02*
X24650Y-14774D01*
X24650Y-14774D02*
X24559Y-14736D01*
X24559Y-14736D02*
X24489Y-14666D01*
X24489Y-14666D02*
X24451Y-14574D01*
X24451Y-14574D02*
X24451Y-13925D01*
X24451Y-13925D02*
X24489Y-13834D01*
X24489Y-13834D02*
X24559Y-13764D01*
X24559Y-13764D02*
X24651Y-13726D01*
X24651Y-13726D02*
X25100Y-13726D01*
X25100Y-13726D02*
X25191Y-13764D01*
X25191Y-13764D02*
X25261Y-13834D01*
X25261Y-13834D02*
X25298Y-13925D01*
X25298Y-13925D02*
X25382Y-13925D01*
X25382Y-13925D02*
X25382Y-13072D01*
X25382Y-13072D02*
X24808Y-12499D01*
X24808Y-12499D02*
X24622Y-12423D01*
X24622Y-12423D02*
X24482Y-12282D01*
X24482Y-12282D02*
X24406Y-12099D01*
X24406Y-12099D02*
X24406Y-11901D01*
X24406Y-11901D02*
X24482Y-11717D01*
X24482Y-11717D02*
X24623Y-11577D01*
X24623Y-11577D02*
X24806Y-11501D01*
X24806Y-11501D02*
X25004Y-11501D01*
X25004Y-11501D02*
X25188Y-11577D01*
X25188Y-11577D02*
X25328Y-11718D01*
X25328Y-11718D02*
X25404Y-11901D01*
X25404Y-11901D02*
X25404Y-12099D01*
X25404Y-12099D02*
X25382Y-12152D01*
X25382Y-12152D02*
X25857Y-12627D01*
X25857Y-12627D02*
X26343Y-12141D01*
X26343Y-12141D02*
X26326Y-12099D01*
X26326Y-12099D02*
X26326Y-11901D01*
X26326Y-11901D02*
X26402Y-11717D01*
X26402Y-11717D02*
X26543Y-11577D01*
X26543Y-11577D02*
X26726Y-11501D01*
X26726Y-11501D02*
X26924Y-11501D01*
X26924Y-11501D02*
X27108Y-11577D01*
X27108Y-11577D02*
X27248Y-11718D01*
X27248Y-11718D02*
X27324Y-11901D01*
X27324Y-11901D02*
X27324Y-12099D01*
X27324Y-12099D02*
X27248Y-12283D01*
X27248Y-12283D02*
X27107Y-12423D01*
X27107Y-12423D02*
X26924Y-12499D01*
X26924Y-12499D02*
X26905Y-12499D01*
X26905Y-12499D02*
X26347Y-13057D01*
X26347Y-13057D02*
X26347Y-13925D01*
X26347Y-13925D02*
X26431Y-13925D01*
X26431Y-13925D02*
X26469Y-13834D01*
X26469Y-13834D02*
X26539Y-13764D01*
X26539Y-13764D02*
X26631Y-13726D01*
X26631Y-13726D02*
X27080Y-13726D01*
X27080Y-13726D02*
X27171Y-13764D01*
X27171Y-13764D02*
X27241Y-13834D01*
X27241Y-13834D02*
X27279Y-13926D01*
X27279Y-13926D02*
X27279Y-14575D01*
X27279Y-14575D02*
X27241Y-14666D01*
X27241Y-14666D02*
X27171Y-14736D01*
X27171Y-14736D02*
X27079Y-14774D01*
X27079Y-14774D02*
X26630Y-14774D01*
X26630Y-14774D02*
X26539Y-14736D01*
X26539Y-14736D02*
X26469Y-14666D01*
X26469Y-14666D02*
X26431Y-14575D01*
X26431Y-14575D02*
X26347Y-14575D01*
X26347Y-14575D02*
X26347Y-15156D01*
X26347Y-15156D02*
X27563Y-15160D01*
X27563Y-15160D02*
X27563Y-14675D01*
X27563Y-14675D02*
X27400Y-14674D01*
X27400Y-14674D02*
X27345Y-14651D01*
X27345Y-14651D02*
X27303Y-14609D01*
X27303Y-14609D02*
X27281Y-14554D01*
X27281Y-14554D02*
X27280Y-14292D01*
X27280Y-14292D02*
X27317Y-14255D01*
X27317Y-14255D02*
X27330Y-14255D01*
X27330Y-14255D02*
X27330Y-14245D01*
X27330Y-14245D02*
X27317Y-14245D01*
X27317Y-14245D02*
X27280Y-14208D01*
X27280Y-14208D02*
X27281Y-13946D01*
X27281Y-13946D02*
X27303Y-13891D01*
X27303Y-13891D02*
X27345Y-13849D01*
X27345Y-13849D02*
X27400Y-13826D01*
X27400Y-13826D02*
X27563Y-13825D01*
X27563Y-13825D02*
X27600Y-13862D01*
X27600Y-13862D02*
X27600Y-14245D01*
X27600Y-14245D02*
X27600Y-14255D01*
X27600Y-14255D02*
X27600Y-14638D01*
X27600Y-14638D02*
X27563Y-14675D01*
X27563Y-14675D02*
X27563Y-15160D01*
X27563Y-15160D02*
X27647Y-15161D01*
X27647Y-15161D02*
X27647Y-14675D01*
X27647Y-14675D02*
X27610Y-14638D01*
X27610Y-14638D02*
X27610Y-14255D01*
X27610Y-14255D02*
X27610Y-14245D01*
X27610Y-14245D02*
X27610Y-13862D01*
X27610Y-13862D02*
X27647Y-13825D01*
X27647Y-13825D02*
X27810Y-13826D01*
X27810Y-13826D02*
X27865Y-13849D01*
X27865Y-13849D02*
X27907Y-13891D01*
X27907Y-13891D02*
X27929Y-13946D01*
X27929Y-13946D02*
X27930Y-14208D01*
X27930Y-14208D02*
X27893Y-14245D01*
X27893Y-14245D02*
X27610Y-14245D01*
X27610Y-14245D02*
X27610Y-14255D01*
X27610Y-14255D02*
X27893Y-14255D01*
X27893Y-14255D02*
X27930Y-14292D01*
X27930Y-14292D02*
X27929Y-14554D01*
X27929Y-14554D02*
X27907Y-14609D01*
X27907Y-14609D02*
X27865Y-14651D01*
X27865Y-14651D02*
X27810Y-14674D01*
X27810Y-14674D02*
X27647Y-14675D01*
X27647Y-14675D02*
X27647Y-15161D01*
X27647Y-15161D02*
X28064Y-15163D01*
X39755Y-32255D02*
X39755Y-10245D01*
X39755Y-10245D02*
X29847Y-10245D01*
X29847Y-10245D02*
X29821Y-15050D01*
X29821Y-15050D02*
X29995Y-15050D01*
X29995Y-15050D02*
X30169Y-15123D01*
X30169Y-15123D02*
X30303Y-15256D01*
X30303Y-15256D02*
X30375Y-15431D01*
X30375Y-15431D02*
X30375Y-15620D01*
X30375Y-15620D02*
X30302Y-15794D01*
X30302Y-15794D02*
X30169Y-15928D01*
X30169Y-15928D02*
X30165Y-15929D01*
X30165Y-15929D02*
X30165Y-18146D01*
X30165Y-18146D02*
X30256Y-18184D01*
X30256Y-18184D02*
X30326Y-18254D01*
X30326Y-18254D02*
X30364Y-18346D01*
X30364Y-18346D02*
X30364Y-18795D01*
X30364Y-18795D02*
X30326Y-18886D01*
X30326Y-18886D02*
X30256Y-18956D01*
X30256Y-18956D02*
X30164Y-18994D01*
X30164Y-18994D02*
X29515Y-18994D01*
X29515Y-18994D02*
X29424Y-18956D01*
X29424Y-18956D02*
X29354Y-18886D01*
X29354Y-18886D02*
X29316Y-18794D01*
X29316Y-18794D02*
X29316Y-18345D01*
X29316Y-18345D02*
X29354Y-18254D01*
X29354Y-18254D02*
X29424Y-18184D01*
X29424Y-18184D02*
X29515Y-18146D01*
X29515Y-18146D02*
X29515Y-16016D01*
X29515Y-16016D02*
X29449Y-16044D01*
X29449Y-16044D02*
X29000Y-16044D01*
X29000Y-16044D02*
X28909Y-16006D01*
X28909Y-16006D02*
X28839Y-15936D01*
X28839Y-15936D02*
X28801Y-15844D01*
X28801Y-15844D02*
X28801Y-15520D01*
X28801Y-15520D02*
X28750Y-15520D01*
X28750Y-15520D02*
X28750Y-15525D01*
X28750Y-15525D02*
X28763Y-15525D01*
X28763Y-15525D02*
X28800Y-15562D01*
X28800Y-15562D02*
X28799Y-15824D01*
X28799Y-15824D02*
X28777Y-15879D01*
X28777Y-15879D02*
X28735Y-15921D01*
X28735Y-15921D02*
X28680Y-15944D01*
X28680Y-15944D02*
X28517Y-15945D01*
X28517Y-15945D02*
X28480Y-15908D01*
X28480Y-15908D02*
X28480Y-15525D01*
X28480Y-15525D02*
X28480Y-15520D01*
X28480Y-15520D02*
X26819Y-15520D01*
X26819Y-15520D02*
X26743Y-15597D01*
X26743Y-15597D02*
X26881Y-15540D01*
X26881Y-15540D02*
X27030Y-15540D01*
X27030Y-15540D02*
X27168Y-15598D01*
X27168Y-15598D02*
X27273Y-15703D01*
X27273Y-15703D02*
X27330Y-15841D01*
X27330Y-15841D02*
X27330Y-15990D01*
X27330Y-15990D02*
X27292Y-16080D01*
X27292Y-16080D02*
X27292Y-16244D01*
X27292Y-16244D02*
X27420Y-16244D01*
X27420Y-16244D02*
X27439Y-16252D01*
X27439Y-16252D02*
X27460Y-16244D01*
X27460Y-16244D02*
X27735Y-16244D01*
X27735Y-16244D02*
X27754Y-16252D01*
X27754Y-16252D02*
X27775Y-16244D01*
X27775Y-16244D02*
X28050Y-16244D01*
X28050Y-16244D02*
X28141Y-16282D01*
X28141Y-16282D02*
X28211Y-16352D01*
X28211Y-16352D02*
X28249Y-16444D01*
X28249Y-16444D02*
X28249Y-17093D01*
X28249Y-17093D02*
X28243Y-17106D01*
X28243Y-17106D02*
X28257Y-17101D01*
X28257Y-17101D02*
X28433Y-17101D01*
X28433Y-17101D02*
X28433Y-15945D01*
X28433Y-15945D02*
X28270Y-15944D01*
X28270Y-15944D02*
X28215Y-15921D01*
X28215Y-15921D02*
X28173Y-15879D01*
X28173Y-15879D02*
X28151Y-15824D01*
X28151Y-15824D02*
X28150Y-15562D01*
X28150Y-15562D02*
X28187Y-15525D01*
X28187Y-15525D02*
X28470Y-15525D01*
X28470Y-15525D02*
X28470Y-15908D01*
X28470Y-15908D02*
X28433Y-15945D01*
X28433Y-15945D02*
X28433Y-17101D01*
X28433Y-17101D02*
X28517Y-17101D01*
X28517Y-17101D02*
X28906Y-17101D01*
X28906Y-17101D02*
X28997Y-17139D01*
X28997Y-17139D02*
X29067Y-17209D01*
X29067Y-17209D02*
X29105Y-17301D01*
X29105Y-17301D02*
X29105Y-17576D01*
X29105Y-17576D02*
X29096Y-17595D01*
X29096Y-17595D02*
X29105Y-17616D01*
X29105Y-17616D02*
X29105Y-17891D01*
X29105Y-17891D02*
X29096Y-17910D01*
X29096Y-17910D02*
X29105Y-17931D01*
X29105Y-17931D02*
X29105Y-18206D01*
X29105Y-18206D02*
X29096Y-18225D01*
X29096Y-18225D02*
X29105Y-18246D01*
X29105Y-18246D02*
X29105Y-18521D01*
X29105Y-18521D02*
X29096Y-18540D01*
X29096Y-18540D02*
X29105Y-18561D01*
X29105Y-18561D02*
X29105Y-18836D01*
X29105Y-18836D02*
X29096Y-18855D01*
X29096Y-18855D02*
X29105Y-18876D01*
X29105Y-18876D02*
X29105Y-19151D01*
X29105Y-19151D02*
X29096Y-19170D01*
X29096Y-19170D02*
X29105Y-19191D01*
X29105Y-19191D02*
X29105Y-19466D01*
X29105Y-19466D02*
X29096Y-19485D01*
X29096Y-19485D02*
X29105Y-19506D01*
X29105Y-19506D02*
X29105Y-19781D01*
X29105Y-19781D02*
X29067Y-19872D01*
X29067Y-19872D02*
X28997Y-19942D01*
X28997Y-19942D02*
X28984Y-19947D01*
X28984Y-19947D02*
X29763Y-19947D01*
X29763Y-19947D02*
X29798Y-19911D01*
X29798Y-19911D02*
X29798Y-19645D01*
X29798Y-19645D02*
X29536Y-19644D01*
X29536Y-19644D02*
X29481Y-19622D01*
X29481Y-19622D02*
X29439Y-19580D01*
X29439Y-19580D02*
X29416Y-19525D01*
X29416Y-19525D02*
X29415Y-19362D01*
X29415Y-19362D02*
X29452Y-19325D01*
X29452Y-19325D02*
X29835Y-19325D01*
X29835Y-19325D02*
X29835Y-19608D01*
X29835Y-19608D02*
X29798Y-19645D01*
X29798Y-19645D02*
X29798Y-19911D01*
X29798Y-19911D02*
X30065Y-19644D01*
X30065Y-19644D02*
X29882Y-19645D01*
X29882Y-19645D02*
X29845Y-19608D01*
X29845Y-19608D02*
X29845Y-19325D01*
X29845Y-19325D02*
X29845Y-19315D01*
X29845Y-19315D02*
X29835Y-19315D01*
X29835Y-19315D02*
X29452Y-19315D01*
X29452Y-19315D02*
X29415Y-19278D01*
X29415Y-19278D02*
X29416Y-19115D01*
X29416Y-19115D02*
X29439Y-19060D01*
X29439Y-19060D02*
X29481Y-19018D01*
X29481Y-19018D02*
X29536Y-18996D01*
X29536Y-18996D02*
X29798Y-18995D01*
X29798Y-18995D02*
X29835Y-19032D01*
X29835Y-19032D02*
X29835Y-19045D01*
X29835Y-19045D02*
X29845Y-19045D01*
X29845Y-19045D02*
X29845Y-19032D01*
X29845Y-19032D02*
X29882Y-18995D01*
X29882Y-18995D02*
X30144Y-18996D01*
X30144Y-18996D02*
X30199Y-19018D01*
X30199Y-19018D02*
X30241Y-19060D01*
X30241Y-19060D02*
X30264Y-19115D01*
X30264Y-19115D02*
X30265Y-19278D01*
X30265Y-19278D02*
X30228Y-19315D01*
X30228Y-19315D02*
X29845Y-19315D01*
X29845Y-19315D02*
X29845Y-19325D01*
X29845Y-19325D02*
X30228Y-19325D01*
X30228Y-19325D02*
X30265Y-19362D01*
X30265Y-19362D02*
X30264Y-19444D01*
X30264Y-19444D02*
X30274Y-19435D01*
X30274Y-19435D02*
X30380Y-19365D01*
X30380Y-19365D02*
X30505Y-19340D01*
X30505Y-19340D02*
X30531Y-19340D01*
X30531Y-19340D02*
X30569Y-19249D01*
X30569Y-19249D02*
X30639Y-19179D01*
X30639Y-19179D02*
X30731Y-19141D01*
X30731Y-19141D02*
X31180Y-19141D01*
X31180Y-19141D02*
X31271Y-19179D01*
X31271Y-19179D02*
X31329Y-19238D01*
X31329Y-19238D02*
X31389Y-19179D01*
X31389Y-19179D02*
X31481Y-19141D01*
X31481Y-19141D02*
X31930Y-19141D01*
X31930Y-19141D02*
X32021Y-19179D01*
X32021Y-19179D02*
X32091Y-19249D01*
X32091Y-19249D02*
X32128Y-19339D01*
X32128Y-19339D02*
X32598Y-19340D01*
X32598Y-19340D02*
X32716Y-19222D01*
X32716Y-19222D02*
X32891Y-19150D01*
X32891Y-19150D02*
X33080Y-19150D01*
X33080Y-19150D02*
X33254Y-19223D01*
X33254Y-19223D02*
X33388Y-19356D01*
X33388Y-19356D02*
X33460Y-19531D01*
X33460Y-19531D02*
X33460Y-19720D01*
X33460Y-19720D02*
X33387Y-19894D01*
X33387Y-19894D02*
X33254Y-20028D01*
X33254Y-20028D02*
X33079Y-20100D01*
X33079Y-20100D02*
X32969Y-20099D01*
X32969Y-20099D02*
X32253Y-20817D01*
X32253Y-20817D02*
X32147Y-20887D01*
X32147Y-20887D02*
X32023Y-20912D01*
X32023Y-20912D02*
X30181Y-20911D01*
X30181Y-20911D02*
X30206Y-20917D01*
X30206Y-20917D02*
X30312Y-20987D01*
X30312Y-20987D02*
X30377Y-21052D01*
X30377Y-21052D02*
X30498Y-21103D01*
X30498Y-21103D02*
X30603Y-21208D01*
X30603Y-21208D02*
X30660Y-21346D01*
X30660Y-21346D02*
X30660Y-21495D01*
X30660Y-21495D02*
X30602Y-21633D01*
X30602Y-21633D02*
X30497Y-21738D01*
X30497Y-21738D02*
X30359Y-21795D01*
X30359Y-21795D02*
X30210Y-21795D01*
X30210Y-21795D02*
X30072Y-21737D01*
X30072Y-21737D02*
X29967Y-21632D01*
X29967Y-21632D02*
X29929Y-21542D01*
X29929Y-21542D02*
X28982Y-21542D01*
X28982Y-21542D02*
X28997Y-21548D01*
X28997Y-21548D02*
X29067Y-21618D01*
X29067Y-21618D02*
X29105Y-21710D01*
X29105Y-21710D02*
X29105Y-21985D01*
X29105Y-21985D02*
X29096Y-22004D01*
X29096Y-22004D02*
X29105Y-22025D01*
X29105Y-22025D02*
X29105Y-22300D01*
X29105Y-22300D02*
X29067Y-22391D01*
X29067Y-22391D02*
X28997Y-22461D01*
X28997Y-22461D02*
X28905Y-22499D01*
X28905Y-22499D02*
X28256Y-22499D01*
X28256Y-22499D02*
X28165Y-22461D01*
X28165Y-22461D02*
X28095Y-22391D01*
X28095Y-22391D02*
X28057Y-22299D01*
X28057Y-22299D02*
X28057Y-22024D01*
X28057Y-22024D02*
X28065Y-22004D01*
X28065Y-22004D02*
X28057Y-21984D01*
X28057Y-21984D02*
X28057Y-21709D01*
X28057Y-21709D02*
X28095Y-21618D01*
X28095Y-21618D02*
X28165Y-21548D01*
X28165Y-21548D02*
X28203Y-21532D01*
X28203Y-21532D02*
X28165Y-21516D01*
X28165Y-21516D02*
X28095Y-21446D01*
X28095Y-21446D02*
X28057Y-21354D01*
X28057Y-21354D02*
X28057Y-21079D01*
X28057Y-21079D02*
X28065Y-21059D01*
X28065Y-21059D02*
X28057Y-21039D01*
X28057Y-21039D02*
X28057Y-20764D01*
X28057Y-20764D02*
X28065Y-20744D01*
X28065Y-20744D02*
X28057Y-20724D01*
X28057Y-20724D02*
X28057Y-20449D01*
X28057Y-20449D02*
X28065Y-20429D01*
X28065Y-20429D02*
X28057Y-20409D01*
X28057Y-20409D02*
X28057Y-20134D01*
X28057Y-20134D02*
X28095Y-20043D01*
X28095Y-20043D02*
X28165Y-19973D01*
X28165Y-19973D02*
X28202Y-19957D01*
X28202Y-19957D02*
X28165Y-19942D01*
X28165Y-19942D02*
X28095Y-19872D01*
X28095Y-19872D02*
X28057Y-19780D01*
X28057Y-19780D02*
X28057Y-19505D01*
X28057Y-19505D02*
X28065Y-19485D01*
X28065Y-19485D02*
X28057Y-19465D01*
X28057Y-19465D02*
X28057Y-19190D01*
X28057Y-19190D02*
X28065Y-19170D01*
X28065Y-19170D02*
X28057Y-19150D01*
X28057Y-19150D02*
X28057Y-18875D01*
X28057Y-18875D02*
X28065Y-18855D01*
X28065Y-18855D02*
X28057Y-18835D01*
X28057Y-18835D02*
X28057Y-18560D01*
X28057Y-18560D02*
X28065Y-18540D01*
X28065Y-18540D02*
X28057Y-18520D01*
X28057Y-18520D02*
X28057Y-18245D01*
X28057Y-18245D02*
X28065Y-18225D01*
X28065Y-18225D02*
X28057Y-18205D01*
X28057Y-18205D02*
X28057Y-17930D01*
X28057Y-17930D02*
X28065Y-17910D01*
X28065Y-17910D02*
X28057Y-17890D01*
X28057Y-17890D02*
X28057Y-17615D01*
X28057Y-17615D02*
X28065Y-17595D01*
X28065Y-17595D02*
X28057Y-17575D01*
X28057Y-17575D02*
X28057Y-17300D01*
X28057Y-17300D02*
X28062Y-17286D01*
X28062Y-17286D02*
X28049Y-17292D01*
X28049Y-17292D02*
X27774Y-17292D01*
X27774Y-17292D02*
X27754Y-17283D01*
X27754Y-17283D02*
X27734Y-17292D01*
X27734Y-17292D02*
X27459Y-17292D01*
X27459Y-17292D02*
X27439Y-17283D01*
X27439Y-17283D02*
X27419Y-17292D01*
X27419Y-17292D02*
X27144Y-17292D01*
X27144Y-17292D02*
X27124Y-17283D01*
X27124Y-17283D02*
X27104Y-17292D01*
X27104Y-17292D02*
X26829Y-17292D01*
X26829Y-17292D02*
X26738Y-17254D01*
X26738Y-17254D02*
X26668Y-17184D01*
X26668Y-17184D02*
X26652Y-17145D01*
X26652Y-17145D02*
X26636Y-17184D01*
X26636Y-17184D02*
X26566Y-17254D01*
X26566Y-17254D02*
X26474Y-17292D01*
X26474Y-17292D02*
X26199Y-17292D01*
X26199Y-17292D02*
X26179Y-17283D01*
X26179Y-17283D02*
X26159Y-17292D01*
X26159Y-17292D02*
X25884Y-17292D01*
X25884Y-17292D02*
X25864Y-17283D01*
X25864Y-17283D02*
X25844Y-17292D01*
X25844Y-17292D02*
X25569Y-17292D01*
X25569Y-17292D02*
X25549Y-17283D01*
X25549Y-17283D02*
X25530Y-17292D01*
X25530Y-17292D02*
X25255Y-17292D01*
X25255Y-17292D02*
X25235Y-17283D01*
X25235Y-17283D02*
X25215Y-17292D01*
X25215Y-17292D02*
X24940Y-17292D01*
X24940Y-17292D02*
X24920Y-17283D01*
X24920Y-17283D02*
X24900Y-17292D01*
X24900Y-17292D02*
X24625Y-17292D01*
X24625Y-17292D02*
X24605Y-17283D01*
X24605Y-17283D02*
X24585Y-17292D01*
X24585Y-17292D02*
X24310Y-17292D01*
X24310Y-17292D02*
X24290Y-17283D01*
X24290Y-17283D02*
X24270Y-17292D01*
X24270Y-17292D02*
X23995Y-17292D01*
X23995Y-17292D02*
X23975Y-17283D01*
X23975Y-17283D02*
X23955Y-17292D01*
X23955Y-17292D02*
X23680Y-17292D01*
X23680Y-17292D02*
X23660Y-17283D01*
X23660Y-17283D02*
X23640Y-17292D01*
X23640Y-17292D02*
X23365Y-17292D01*
X23365Y-17292D02*
X23345Y-17283D01*
X23345Y-17283D02*
X23325Y-17292D01*
X23325Y-17292D02*
X23050Y-17292D01*
X23050Y-17292D02*
X23037Y-17286D01*
X23037Y-17286D02*
X23043Y-17301D01*
X23043Y-17301D02*
X23043Y-17576D01*
X23043Y-17576D02*
X23034Y-17595D01*
X23034Y-17595D02*
X23043Y-17616D01*
X23043Y-17616D02*
X23043Y-17891D01*
X23043Y-17891D02*
X23034Y-17910D01*
X23034Y-17910D02*
X23043Y-17931D01*
X23043Y-17931D02*
X23043Y-18206D01*
X23043Y-18206D02*
X23034Y-18225D01*
X23034Y-18225D02*
X23043Y-18246D01*
X23043Y-18246D02*
X23043Y-18521D01*
X23043Y-18521D02*
X23034Y-18540D01*
X23034Y-18540D02*
X23043Y-18561D01*
X23043Y-18561D02*
X23043Y-18836D01*
X23043Y-18836D02*
X23034Y-18855D01*
X23034Y-18855D02*
X23043Y-18876D01*
X23043Y-18876D02*
X23043Y-19151D01*
X23043Y-19151D02*
X23034Y-19170D01*
X23034Y-19170D02*
X23043Y-19191D01*
X23043Y-19191D02*
X23043Y-19466D01*
X23043Y-19466D02*
X23034Y-19485D01*
X23034Y-19485D02*
X23043Y-19506D01*
X23043Y-19506D02*
X23043Y-19781D01*
X23043Y-19781D02*
X23034Y-19800D01*
X23034Y-19800D02*
X23043Y-19820D01*
X23043Y-19820D02*
X23043Y-20095D01*
X23043Y-20095D02*
X23034Y-20114D01*
X23034Y-20114D02*
X23043Y-20135D01*
X23043Y-20135D02*
X23043Y-20410D01*
X23043Y-20410D02*
X23034Y-20429D01*
X23034Y-20429D02*
X23043Y-20450D01*
X23043Y-20450D02*
X23043Y-20725D01*
X23043Y-20725D02*
X23034Y-20744D01*
X23034Y-20744D02*
X23043Y-20765D01*
X23043Y-20765D02*
X23043Y-21040D01*
X23043Y-21040D02*
X23034Y-21059D01*
X23034Y-21059D02*
X23043Y-21080D01*
X23043Y-21080D02*
X23043Y-21355D01*
X23043Y-21355D02*
X23034Y-21374D01*
X23034Y-21374D02*
X23043Y-21395D01*
X23043Y-21395D02*
X23043Y-21670D01*
X23043Y-21670D02*
X23034Y-21689D01*
X23034Y-21689D02*
X23043Y-21710D01*
X23043Y-21710D02*
X23043Y-21985D01*
X23043Y-21985D02*
X23034Y-22004D01*
X23034Y-22004D02*
X23043Y-22025D01*
X23043Y-22025D02*
X23043Y-22300D01*
X23043Y-22300D02*
X23037Y-22312D01*
X23037Y-22312D02*
X23051Y-22307D01*
X23051Y-22307D02*
X23326Y-22307D01*
X23326Y-22307D02*
X23345Y-22315D01*
X23345Y-22315D02*
X23366Y-22307D01*
X23366Y-22307D02*
X23641Y-22307D01*
X23641Y-22307D02*
X23660Y-22315D01*
X23660Y-22315D02*
X23681Y-22307D01*
X23681Y-22307D02*
X23956Y-22307D01*
X23956Y-22307D02*
X24047Y-22345D01*
X24047Y-22345D02*
X24117Y-22415D01*
X24117Y-22415D02*
X24132Y-22453D01*
X24132Y-22453D02*
X24149Y-22415D01*
X24149Y-22415D02*
X24219Y-22345D01*
X24219Y-22345D02*
X24311Y-22307D01*
X24311Y-22307D02*
X24586Y-22307D01*
X24586Y-22307D02*
X24605Y-22315D01*
X24605Y-22315D02*
X24626Y-22307D01*
X24626Y-22307D02*
X24901Y-22307D01*
X24901Y-22307D02*
X24920Y-22315D01*
X24920Y-22315D02*
X24941Y-22307D01*
X24941Y-22307D02*
X25216Y-22307D01*
X25216Y-22307D02*
X25235Y-22315D01*
X25235Y-22315D02*
X25256Y-22307D01*
X25256Y-22307D02*
X25531Y-22307D01*
X25531Y-22307D02*
X25550Y-22315D01*
X25550Y-22315D02*
X25570Y-22307D01*
X25570Y-22307D02*
X25845Y-22307D01*
X25845Y-22307D02*
X25864Y-22315D01*
X25864Y-22315D02*
X25885Y-22307D01*
X25885Y-22307D02*
X26160Y-22307D01*
X26160Y-22307D02*
X26179Y-22315D01*
X26179Y-22315D02*
X26200Y-22307D01*
X26200Y-22307D02*
X26475Y-22307D01*
X26475Y-22307D02*
X26494Y-22315D01*
X26494Y-22315D02*
X26515Y-22307D01*
X26515Y-22307D02*
X26790Y-22307D01*
X26790Y-22307D02*
X26809Y-22315D01*
X26809Y-22315D02*
X26830Y-22307D01*
X26830Y-22307D02*
X27105Y-22307D01*
X27105Y-22307D02*
X27124Y-22315D01*
X27124Y-22315D02*
X27145Y-22307D01*
X27145Y-22307D02*
X27420Y-22307D01*
X27420Y-22307D02*
X27439Y-22315D01*
X27439Y-22315D02*
X27460Y-22307D01*
X27460Y-22307D02*
X27735Y-22307D01*
X27735Y-22307D02*
X27826Y-22345D01*
X27826Y-22345D02*
X27896Y-22415D01*
X27896Y-22415D02*
X27917Y-22465D01*
X27917Y-22465D02*
X27917Y-22443D01*
X27917Y-22443D02*
X27954Y-22406D01*
X27954Y-22406D02*
X28030Y-22407D01*
X28030Y-22407D02*
X28085Y-22430D01*
X28085Y-22430D02*
X28127Y-22472D01*
X28127Y-22472D02*
X28149Y-22527D01*
X28149Y-22527D02*
X28150Y-22789D01*
X28150Y-22789D02*
X28113Y-22826D01*
X28113Y-22826D02*
X27934Y-22826D01*
X27934Y-22826D02*
X27934Y-22836D01*
X27934Y-22836D02*
X28113Y-22836D01*
X28113Y-22836D02*
X28150Y-22873D01*
X28150Y-22873D02*
X28149Y-23135D01*
X28149Y-23135D02*
X28127Y-23190D01*
X28127Y-23190D02*
X28085Y-23232D01*
X28085Y-23232D02*
X28030Y-23255D01*
X28030Y-23255D02*
X27954Y-23256D01*
X27954Y-23256D02*
X27922Y-23224D01*
X27922Y-23224D02*
X27922Y-23347D01*
X27922Y-23347D02*
X28400Y-23825D01*
X28400Y-23825D02*
X28470Y-23930D01*
X28470Y-23930D02*
X28494Y-24050D01*
X28494Y-24050D02*
X28708Y-24050D01*
X28708Y-24050D02*
X28745Y-24087D01*
X28745Y-24087D02*
X28745Y-24370D01*
X28745Y-24370D02*
X28745Y-24380D01*
X28745Y-24380D02*
X28755Y-24380D01*
X28755Y-24380D02*
X28755Y-24370D01*
X28755Y-24370D02*
X28755Y-24087D01*
X28755Y-24087D02*
X28792Y-24050D01*
X28792Y-24050D02*
X29054Y-24051D01*
X29054Y-24051D02*
X29109Y-24073D01*
X29109Y-24073D02*
X29151Y-24115D01*
X29151Y-24115D02*
X29174Y-24170D01*
X29174Y-24170D02*
X29175Y-24333D01*
X29175Y-24333D02*
X29138Y-24370D01*
X29138Y-24370D02*
X28755Y-24370D01*
X28755Y-24370D02*
X28755Y-24380D01*
X28755Y-24380D02*
X29138Y-24380D01*
X29138Y-24380D02*
X29175Y-24417D01*
X29175Y-24417D02*
X29174Y-24580D01*
X29174Y-24580D02*
X29151Y-24635D01*
X29151Y-24635D02*
X29109Y-24677D01*
X29109Y-24677D02*
X29054Y-24699D01*
X29054Y-24699D02*
X28792Y-24701D01*
X28792Y-24701D02*
X29075Y-24701D01*
X29075Y-24701D02*
X29166Y-24739D01*
X29166Y-24739D02*
X29236Y-24809D01*
X29236Y-24809D02*
X29274Y-24901D01*
X29274Y-24901D02*
X29274Y-25350D01*
X29274Y-25350D02*
X29236Y-25441D01*
X29236Y-25441D02*
X29166Y-25511D01*
X29166Y-25511D02*
X29075Y-25548D01*
X29075Y-25548D02*
X29075Y-25873D01*
X29075Y-25873D02*
X29106Y-25905D01*
X29106Y-25905D02*
X29595Y-25905D01*
X29595Y-25905D02*
X30675Y-24825D01*
X30675Y-24825D02*
X30675Y-24800D01*
X30675Y-24800D02*
X29435Y-23560D01*
X29435Y-23560D02*
X29404Y-23514D01*
X29404Y-23514D02*
X29340Y-23514D01*
X29340Y-23514D02*
X29249Y-23476D01*
X29249Y-23476D02*
X29179Y-23406D01*
X29179Y-23406D02*
X29141Y-23314D01*
X29141Y-23314D02*
X29141Y-22865D01*
X29141Y-22865D02*
X29179Y-22774D01*
X29179Y-22774D02*
X29249Y-22704D01*
X29249Y-22704D02*
X29341Y-22666D01*
X29341Y-22666D02*
X29623Y-22665D01*
X29623Y-22665D02*
X29361Y-22664D01*
X29361Y-22664D02*
X29306Y-22642D01*
X29306Y-22642D02*
X29264Y-22600D01*
X29264Y-22600D02*
X29241Y-22545D01*
X29241Y-22545D02*
X29240Y-22382D01*
X29240Y-22382D02*
X29277Y-22345D01*
X29277Y-22345D02*
X29277Y-22335D01*
X29277Y-22335D02*
X29240Y-22298D01*
X29240Y-22298D02*
X29241Y-22135D01*
X29241Y-22135D02*
X29264Y-22080D01*
X29264Y-22080D02*
X29306Y-22038D01*
X29306Y-22038D02*
X29361Y-22016D01*
X29361Y-22016D02*
X29623Y-22015D01*
X29623Y-22015D02*
X29660Y-22052D01*
X29660Y-22052D02*
X29660Y-22335D01*
X29660Y-22335D02*
X29277Y-22335D01*
X29277Y-22335D02*
X29277Y-22345D01*
X29277Y-22345D02*
X29660Y-22345D01*
X29660Y-22345D02*
X29670Y-22345D01*
X29670Y-22345D02*
X29670Y-22335D01*
X29670Y-22335D02*
X29670Y-22052D01*
X29670Y-22052D02*
X29707Y-22015D01*
X29707Y-22015D02*
X29969Y-22016D01*
X29969Y-22016D02*
X30024Y-22038D01*
X30024Y-22038D02*
X30066Y-22080D01*
X30066Y-22080D02*
X30089Y-22135D01*
X30089Y-22135D02*
X30090Y-22298D01*
X30090Y-22298D02*
X30053Y-22335D01*
X30053Y-22335D02*
X29670Y-22335D01*
X29670Y-22335D02*
X29670Y-22345D01*
X29670Y-22345D02*
X30053Y-22345D01*
X30053Y-22345D02*
X30090Y-22382D01*
X30090Y-22382D02*
X30089Y-22545D01*
X30089Y-22545D02*
X30066Y-22600D01*
X30066Y-22600D02*
X30024Y-22642D01*
X30024Y-22642D02*
X29969Y-22664D01*
X29969Y-22664D02*
X29707Y-22666D01*
X29707Y-22666D02*
X29990Y-22666D01*
X29990Y-22666D02*
X30081Y-22704D01*
X30081Y-22704D02*
X30151Y-22774D01*
X30151Y-22774D02*
X30189Y-22866D01*
X30189Y-22866D02*
X30189Y-23315D01*
X30189Y-23315D02*
X30165Y-23370D01*
X30165Y-23370D02*
X31130Y-24335D01*
X31130Y-24335D02*
X31245Y-24335D01*
X31245Y-24335D02*
X31419Y-24408D01*
X31419Y-24408D02*
X31553Y-24541D01*
X31553Y-24541D02*
X31616Y-24694D01*
X31616Y-24694D02*
X35125Y-21185D01*
X35125Y-21185D02*
X35125Y-17890D01*
X35125Y-17890D02*
X34951Y-17817D01*
X34951Y-17817D02*
X34817Y-17684D01*
X34817Y-17684D02*
X34745Y-17509D01*
X34745Y-17509D02*
X34745Y-17320D01*
X34745Y-17320D02*
X34818Y-17146D01*
X34818Y-17146D02*
X34895Y-17068D01*
X34895Y-17068D02*
X34895Y-16649D01*
X34895Y-16649D02*
X33250Y-15005D01*
X33250Y-15005D02*
X33180Y-14899D01*
X33180Y-14899D02*
X33155Y-14775D01*
X33155Y-14775D02*
X33155Y-14430D01*
X33155Y-14430D02*
X31774Y-13049D01*
X31774Y-13049D02*
X31650Y-13049D01*
X31650Y-13049D02*
X31559Y-13011D01*
X31559Y-13011D02*
X31489Y-12941D01*
X31489Y-12941D02*
X31451Y-12849D01*
X31451Y-12849D02*
X31451Y-12150D01*
X31451Y-12150D02*
X31489Y-12059D01*
X31489Y-12059D02*
X31559Y-11989D01*
X31559Y-11989D02*
X31651Y-11951D01*
X31651Y-11951D02*
X31675Y-11951D01*
X31675Y-11951D02*
X31535Y-11811D01*
X31535Y-11811D02*
X31451Y-11609D01*
X31451Y-11609D02*
X31451Y-11391D01*
X31451Y-11391D02*
X31535Y-11189D01*
X31535Y-11189D02*
X31689Y-11035D01*
X31689Y-11035D02*
X31891Y-10951D01*
X31891Y-10951D02*
X32109Y-10951D01*
X32109Y-10951D02*
X32311Y-11035D01*
X32311Y-11035D02*
X32465Y-11189D01*
X32465Y-11189D02*
X32549Y-11391D01*
X32549Y-11391D02*
X32549Y-11609D01*
X32549Y-11609D02*
X32465Y-11811D01*
X32465Y-11811D02*
X32325Y-11951D01*
X32325Y-11951D02*
X32350Y-11951D01*
X32350Y-11951D02*
X32441Y-11989D01*
X32441Y-11989D02*
X32511Y-12059D01*
X32511Y-12059D02*
X32549Y-12151D01*
X32549Y-12151D02*
X32549Y-12175D01*
X32549Y-12175D02*
X32689Y-12035D01*
X32689Y-12035D02*
X32705Y-12028D01*
X32705Y-12028D02*
X32705Y-11788D01*
X32705Y-11788D02*
X32634Y-11760D01*
X32634Y-11760D02*
X32618Y-11739D01*
X32618Y-11739D02*
X32556Y-11575D01*
X32556Y-11575D02*
X32562Y-11400D01*
X32562Y-11400D02*
X32634Y-11240D01*
X32634Y-11240D02*
X32705Y-11212D01*
X32705Y-11212D02*
X32993Y-11500D01*
X32993Y-11500D02*
X32705Y-11788D01*
X32705Y-11788D02*
X32705Y-12028D01*
X32705Y-12028D02*
X32891Y-11951D01*
X32891Y-11951D02*
X33075Y-11951D01*
X33075Y-11951D02*
X33075Y-11944D01*
X33075Y-11944D02*
X32900Y-11938D01*
X32900Y-11938D02*
X32740Y-11866D01*
X32740Y-11866D02*
X32712Y-11795D01*
X32712Y-11795D02*
X33000Y-11507D01*
X33000Y-11507D02*
X33000Y-11493D01*
X33000Y-11493D02*
X32712Y-11205D01*
X32712Y-11205D02*
X32740Y-11134D01*
X32740Y-11134D02*
X32761Y-11118D01*
X32761Y-11118D02*
X32925Y-11056D01*
X32925Y-11056D02*
X33100Y-11062D01*
X33100Y-11062D02*
X33260Y-11134D01*
X33260Y-11134D02*
X33288Y-11205D01*
X33288Y-11205D02*
X33000Y-11493D01*
X33000Y-11493D02*
X33000Y-11507D01*
X33000Y-11507D02*
X33288Y-11795D01*
X33288Y-11795D02*
X33260Y-11866D01*
X33260Y-11866D02*
X33239Y-11882D01*
X33239Y-11882D02*
X33075Y-11944D01*
X33075Y-11944D02*
X33075Y-11951D01*
X33075Y-11951D02*
X33109Y-11951D01*
X33109Y-11951D02*
X33295Y-12028D01*
X33295Y-12028D02*
X33295Y-11788D01*
X33295Y-11788D02*
X33007Y-11500D01*
X33007Y-11500D02*
X33295Y-11212D01*
X33295Y-11212D02*
X33366Y-11240D01*
X33366Y-11240D02*
X33382Y-11261D01*
X33382Y-11261D02*
X33444Y-11425D01*
X33444Y-11425D02*
X33438Y-11600D01*
X33438Y-11600D02*
X33366Y-11760D01*
X33366Y-11760D02*
X33295Y-11788D01*
X33295Y-11788D02*
X33295Y-12028D01*
X33295Y-12028D02*
X33311Y-12035D01*
X33311Y-12035D02*
X33465Y-12189D01*
X33465Y-12189D02*
X33500Y-12273D01*
X33500Y-12273D02*
X33535Y-12189D01*
X33535Y-12189D02*
X33689Y-12035D01*
X33689Y-12035D02*
X33773Y-12000D01*
X33773Y-12000D02*
X33689Y-11965D01*
X33689Y-11965D02*
X33535Y-11811D01*
X33535Y-11811D02*
X33451Y-11609D01*
X33451Y-11609D02*
X33451Y-11391D01*
X33451Y-11391D02*
X33535Y-11189D01*
X33535Y-11189D02*
X33689Y-11035D01*
X33689Y-11035D02*
X33891Y-10951D01*
X33891Y-10951D02*
X34109Y-10951D01*
X34109Y-10951D02*
X34311Y-11035D01*
X34311Y-11035D02*
X34465Y-11189D01*
X34465Y-11189D02*
X34500Y-11273D01*
X34500Y-11273D02*
X34535Y-11189D01*
X34535Y-11189D02*
X34689Y-11035D01*
X34689Y-11035D02*
X34891Y-10951D01*
X34891Y-10951D02*
X35109Y-10951D01*
X35109Y-10951D02*
X35311Y-11035D01*
X35311Y-11035D02*
X35465Y-11189D01*
X35465Y-11189D02*
X35500Y-11273D01*
X35500Y-11273D02*
X35535Y-11189D01*
X35535Y-11189D02*
X35689Y-11035D01*
X35689Y-11035D02*
X35891Y-10951D01*
X35891Y-10951D02*
X36109Y-10951D01*
X36109Y-10951D02*
X36311Y-11035D01*
X36311Y-11035D02*
X36465Y-11189D01*
X36465Y-11189D02*
X36549Y-11391D01*
X36549Y-11391D02*
X36549Y-11609D01*
X36549Y-11609D02*
X36465Y-11811D01*
X36465Y-11811D02*
X36311Y-11965D01*
X36311Y-11965D02*
X36226Y-12000D01*
X36226Y-12000D02*
X36311Y-12035D01*
X36311Y-12035D02*
X36465Y-12189D01*
X36465Y-12189D02*
X36549Y-12391D01*
X36549Y-12391D02*
X36549Y-12609D01*
X36549Y-12609D02*
X36465Y-12811D01*
X36465Y-12811D02*
X36325Y-12951D01*
X36325Y-12951D02*
X36325Y-13618D01*
X36325Y-13618D02*
X36373Y-13666D01*
X36373Y-13666D02*
X36445Y-13841D01*
X36445Y-13841D02*
X36445Y-14030D01*
X36445Y-14030D02*
X36372Y-14204D01*
X36372Y-14204D02*
X36239Y-14338D01*
X36239Y-14338D02*
X36064Y-14410D01*
X36064Y-14410D02*
X35875Y-14410D01*
X35875Y-14410D02*
X35701Y-14337D01*
X35701Y-14337D02*
X35567Y-14204D01*
X35567Y-14204D02*
X35495Y-14029D01*
X35495Y-14029D02*
X35495Y-13840D01*
X35495Y-13840D02*
X35568Y-13666D01*
X35568Y-13666D02*
X35675Y-13558D01*
X35675Y-13558D02*
X35675Y-12951D01*
X35675Y-12951D02*
X35535Y-12811D01*
X35535Y-12811D02*
X35451Y-12609D01*
X35451Y-12609D02*
X35451Y-12391D01*
X35451Y-12391D02*
X35535Y-12189D01*
X35535Y-12189D02*
X35689Y-12035D01*
X35689Y-12035D02*
X35773Y-12000D01*
X35773Y-12000D02*
X35689Y-11965D01*
X35689Y-11965D02*
X35535Y-11811D01*
X35535Y-11811D02*
X35500Y-11726D01*
X35500Y-11726D02*
X35465Y-11811D01*
X35465Y-11811D02*
X35311Y-11965D01*
X35311Y-11965D02*
X35109Y-12049D01*
X35109Y-12049D02*
X34891Y-12049D01*
X34891Y-12049D02*
X34689Y-11965D01*
X34689Y-11965D02*
X34535Y-11811D01*
X34535Y-11811D02*
X34500Y-11726D01*
X34500Y-11726D02*
X34465Y-11811D01*
X34465Y-11811D02*
X34311Y-11965D01*
X34311Y-11965D02*
X34226Y-12000D01*
X34226Y-12000D02*
X34311Y-12035D01*
X34311Y-12035D02*
X34465Y-12189D01*
X34465Y-12189D02*
X34549Y-12391D01*
X34549Y-12391D02*
X34549Y-12609D01*
X34549Y-12609D02*
X34465Y-12811D01*
X34465Y-12811D02*
X34311Y-12965D01*
X34311Y-12965D02*
X34109Y-13049D01*
X34109Y-13049D02*
X33891Y-13049D01*
X33891Y-13049D02*
X33689Y-12965D01*
X33689Y-12965D02*
X33535Y-12811D01*
X33535Y-12811D02*
X33500Y-12726D01*
X33500Y-12726D02*
X33465Y-12811D01*
X33465Y-12811D02*
X33311Y-12965D01*
X33311Y-12965D02*
X33109Y-13049D01*
X33109Y-13049D02*
X32891Y-13049D01*
X32891Y-13049D02*
X32689Y-12965D01*
X32689Y-12965D02*
X32549Y-12825D01*
X32549Y-12825D02*
X32549Y-12850D01*
X32549Y-12850D02*
X32533Y-12888D01*
X32533Y-12888D02*
X33710Y-14065D01*
X33710Y-14065D02*
X33780Y-14171D01*
X33780Y-14171D02*
X33805Y-14295D01*
X33805Y-14295D02*
X33805Y-14640D01*
X33805Y-14640D02*
X34705Y-15540D01*
X34705Y-15540D02*
X34705Y-12788D01*
X34705Y-12788D02*
X34634Y-12760D01*
X34634Y-12760D02*
X34618Y-12739D01*
X34618Y-12739D02*
X34556Y-12575D01*
X34556Y-12575D02*
X34562Y-12400D01*
X34562Y-12400D02*
X34634Y-12240D01*
X34634Y-12240D02*
X34705Y-12212D01*
X34705Y-12212D02*
X34993Y-12500D01*
X34993Y-12500D02*
X34705Y-12788D01*
X34705Y-12788D02*
X34705Y-15540D01*
X34705Y-15540D02*
X35075Y-15910D01*
X35075Y-15910D02*
X35075Y-12944D01*
X35075Y-12944D02*
X34900Y-12938D01*
X34900Y-12938D02*
X34740Y-12866D01*
X34740Y-12866D02*
X34712Y-12795D01*
X34712Y-12795D02*
X35000Y-12507D01*
X35000Y-12507D02*
X35000Y-12493D01*
X35000Y-12493D02*
X34712Y-12205D01*
X34712Y-12205D02*
X34740Y-12134D01*
X34740Y-12134D02*
X34761Y-12118D01*
X34761Y-12118D02*
X34925Y-12056D01*
X34925Y-12056D02*
X35100Y-12062D01*
X35100Y-12062D02*
X35260Y-12134D01*
X35260Y-12134D02*
X35288Y-12205D01*
X35288Y-12205D02*
X35000Y-12493D01*
X35000Y-12493D02*
X35000Y-12507D01*
X35000Y-12507D02*
X35288Y-12795D01*
X35288Y-12795D02*
X35260Y-12866D01*
X35260Y-12866D02*
X35239Y-12882D01*
X35239Y-12882D02*
X35075Y-12944D01*
X35075Y-12944D02*
X35075Y-15910D01*
X35075Y-15910D02*
X35295Y-16130D01*
X35295Y-16130D02*
X35295Y-12788D01*
X35295Y-12788D02*
X35007Y-12500D01*
X35007Y-12500D02*
X35295Y-12212D01*
X35295Y-12212D02*
X35366Y-12240D01*
X35366Y-12240D02*
X35382Y-12261D01*
X35382Y-12261D02*
X35444Y-12425D01*
X35444Y-12425D02*
X35438Y-12600D01*
X35438Y-12600D02*
X35366Y-12760D01*
X35366Y-12760D02*
X35295Y-12788D01*
X35295Y-12788D02*
X35295Y-16130D01*
X35295Y-16130D02*
X35450Y-16285D01*
X35450Y-16285D02*
X35520Y-16391D01*
X35520Y-16391D02*
X35545Y-16515D01*
X35545Y-16515D02*
X35545Y-17068D01*
X35545Y-17068D02*
X35623Y-17146D01*
X35623Y-17146D02*
X35695Y-17321D01*
X35695Y-17321D02*
X35695Y-17510D01*
X35695Y-17510D02*
X35622Y-17684D01*
X35622Y-17684D02*
X35489Y-17818D01*
X35489Y-17818D02*
X35314Y-17890D01*
X35314Y-17890D02*
X35125Y-17890D01*
X35125Y-17890D02*
X35125Y-21185D01*
X35125Y-21185D02*
X36290Y-20020D01*
X36290Y-20020D02*
X36396Y-19950D01*
X36396Y-19950D02*
X36520Y-19925D01*
X36520Y-19925D02*
X37086Y-19925D01*
X37086Y-19925D02*
X37092Y-19911D01*
X37092Y-19911D02*
X37253Y-19749D01*
X37253Y-19749D02*
X37221Y-19749D01*
X37221Y-19749D02*
X37166Y-19727D01*
X37166Y-19727D02*
X37124Y-19685D01*
X37124Y-19685D02*
X37101Y-19630D01*
X37101Y-19630D02*
X37100Y-19292D01*
X37100Y-19292D02*
X37137Y-19255D01*
X37137Y-19255D02*
X37137Y-19245D01*
X37137Y-19245D02*
X37100Y-19208D01*
X37100Y-19208D02*
X37101Y-18870D01*
X37101Y-18870D02*
X37124Y-18815D01*
X37124Y-18815D02*
X37166Y-18773D01*
X37166Y-18773D02*
X37221Y-18751D01*
X37221Y-18751D02*
X37558Y-18750D01*
X37558Y-18750D02*
X37595Y-18787D01*
X37595Y-18787D02*
X37595Y-19245D01*
X37595Y-19245D02*
X37137Y-19245D01*
X37137Y-19245D02*
X37137Y-19255D01*
X37137Y-19255D02*
X37595Y-19255D01*
X37595Y-19255D02*
X37605Y-19255D01*
X37605Y-19255D02*
X37605Y-19245D01*
X37605Y-19245D02*
X37605Y-18787D01*
X37605Y-18787D02*
X37642Y-18750D01*
X37642Y-18750D02*
X37979Y-18751D01*
X37979Y-18751D02*
X38034Y-18773D01*
X38034Y-18773D02*
X38076Y-18815D01*
X38076Y-18815D02*
X38099Y-18870D01*
X38099Y-18870D02*
X38099Y-18903D01*
X38099Y-18903D02*
X38261Y-18742D01*
X38261Y-18742D02*
X38481Y-18651D01*
X38481Y-18651D02*
X38570Y-18651D01*
X38570Y-18651D02*
X38570Y-12150D01*
X38570Y-12150D02*
X38239Y-12012D01*
X38239Y-12012D02*
X37987Y-11759D01*
X37987Y-11759D02*
X37850Y-11428D01*
X37850Y-11428D02*
X37850Y-11070D01*
X37850Y-11070D02*
X37988Y-10739D01*
X37988Y-10739D02*
X38241Y-10487D01*
X38241Y-10487D02*
X38572Y-10350D01*
X38572Y-10350D02*
X38930Y-10350D01*
X38930Y-10350D02*
X39261Y-10488D01*
X39261Y-10488D02*
X39513Y-10741D01*
X39513Y-10741D02*
X39650Y-11072D01*
X39650Y-11072D02*
X39650Y-11430D01*
X39650Y-11430D02*
X39512Y-11761D01*
X39512Y-11761D02*
X39259Y-12013D01*
X39259Y-12013D02*
X38928Y-12150D01*
X38928Y-12150D02*
X38570Y-12150D01*
X38570Y-12150D02*
X38570Y-18651D01*
X38570Y-18651D02*
X38719Y-18651D01*
X38719Y-18651D02*
X38939Y-18742D01*
X38939Y-18742D02*
X39108Y-18911D01*
X39108Y-18911D02*
X39199Y-19131D01*
X39199Y-19131D02*
X39199Y-19369D01*
X39199Y-19369D02*
X39108Y-19589D01*
X39108Y-19589D02*
X38947Y-19750D01*
X38947Y-19750D02*
X39108Y-19911D01*
X39108Y-19911D02*
X39199Y-20131D01*
X39199Y-20131D02*
X39199Y-20369D01*
X39199Y-20369D02*
X39108Y-20589D01*
X39108Y-20589D02*
X38947Y-20750D01*
X38947Y-20750D02*
X39108Y-20911D01*
X39108Y-20911D02*
X39199Y-21131D01*
X39199Y-21131D02*
X39199Y-21369D01*
X39199Y-21369D02*
X39108Y-21589D01*
X39108Y-21589D02*
X38947Y-21750D01*
X38947Y-21750D02*
X39108Y-21911D01*
X39108Y-21911D02*
X39199Y-22131D01*
X39199Y-22131D02*
X39199Y-22369D01*
X39199Y-22369D02*
X39108Y-22589D01*
X39108Y-22589D02*
X38946Y-22749D01*
X38946Y-22749D02*
X39108Y-22911D01*
X39108Y-22911D02*
X39199Y-23131D01*
X39199Y-23131D02*
X39199Y-23369D01*
X39199Y-23369D02*
X39108Y-23589D01*
X39108Y-23589D02*
X38939Y-23758D01*
X38939Y-23758D02*
X38719Y-23849D01*
X38719Y-23849D02*
X38481Y-23849D01*
X38481Y-23849D02*
X38261Y-23758D01*
X38261Y-23758D02*
X38099Y-23596D01*
X38099Y-23596D02*
X37939Y-23758D01*
X37939Y-23758D02*
X37719Y-23849D01*
X37719Y-23849D02*
X37481Y-23849D01*
X37481Y-23849D02*
X37261Y-23758D01*
X37261Y-23758D02*
X37092Y-23589D01*
X37092Y-23589D02*
X37086Y-23575D01*
X37086Y-23575D02*
X35829Y-23575D01*
X35829Y-23575D02*
X35849Y-23583D01*
X35849Y-23583D02*
X35983Y-23716D01*
X35983Y-23716D02*
X36055Y-23891D01*
X36055Y-23891D02*
X36055Y-24080D01*
X36055Y-24080D02*
X35982Y-24254D01*
X35982Y-24254D02*
X35905Y-24331D01*
X35905Y-24331D02*
X35905Y-27480D01*
X35905Y-27480D02*
X35880Y-27605D01*
X35880Y-27605D02*
X35810Y-27710D01*
X35810Y-27710D02*
X34320Y-29200D01*
X34320Y-29200D02*
X34214Y-29270D01*
X34214Y-29270D02*
X34093Y-29294D01*
X34093Y-29294D02*
X34250Y-29451D01*
X34250Y-29451D02*
X34369Y-29451D01*
X34369Y-29451D02*
X34589Y-29542D01*
X34589Y-29542D02*
X34750Y-29703D01*
X34750Y-29703D02*
X34751Y-29671D01*
X34751Y-29671D02*
X34773Y-29616D01*
X34773Y-29616D02*
X34815Y-29574D01*
X34815Y-29574D02*
X34870Y-29551D01*
X34870Y-29551D02*
X35208Y-29550D01*
X35208Y-29550D02*
X35245Y-29587D01*
X35245Y-29587D02*
X35245Y-30045D01*
X35245Y-30045D02*
X34849Y-30045D01*
X34849Y-30045D02*
X34849Y-30055D01*
X34849Y-30055D02*
X35245Y-30055D01*
X35245Y-30055D02*
X35245Y-30451D01*
X35245Y-30451D02*
X35255Y-30451D01*
X35255Y-30451D02*
X35255Y-30055D01*
X35255Y-30055D02*
X35255Y-30045D01*
X35255Y-30045D02*
X35255Y-29587D01*
X35255Y-29587D02*
X35292Y-29550D01*
X35292Y-29550D02*
X35630Y-29551D01*
X35630Y-29551D02*
X35685Y-29574D01*
X35685Y-29574D02*
X35727Y-29616D01*
X35727Y-29616D02*
X35749Y-29671D01*
X35749Y-29671D02*
X35750Y-30008D01*
X35750Y-30008D02*
X35713Y-30045D01*
X35713Y-30045D02*
X35255Y-30045D01*
X35255Y-30045D02*
X35255Y-30055D01*
X35255Y-30055D02*
X35713Y-30055D01*
X35713Y-30055D02*
X35750Y-30092D01*
X35750Y-30092D02*
X35749Y-30429D01*
X35749Y-30429D02*
X35727Y-30484D01*
X35727Y-30484D02*
X35685Y-30526D01*
X35685Y-30526D02*
X35630Y-30549D01*
X35630Y-30549D02*
X35596Y-30549D01*
X35596Y-30549D02*
X35758Y-30711D01*
X35758Y-30711D02*
X35849Y-30931D01*
X35849Y-30931D02*
X35849Y-31169D01*
X35849Y-31169D02*
X35758Y-31389D01*
X35758Y-31389D02*
X35589Y-31558D01*
X35589Y-31558D02*
X35369Y-31649D01*
X35369Y-31649D02*
X35131Y-31649D01*
X35131Y-31649D02*
X34911Y-31558D01*
X34911Y-31558D02*
X34750Y-31397D01*
X34750Y-31397D02*
X34589Y-31558D01*
X34589Y-31558D02*
X34369Y-31649D01*
X34369Y-31649D02*
X34131Y-31649D01*
X34131Y-31649D02*
X33911Y-31558D01*
X33911Y-31558D02*
X33750Y-31397D01*
X33750Y-31397D02*
X33589Y-31558D01*
X33589Y-31558D02*
X33369Y-31649D01*
X33369Y-31649D02*
X33131Y-31649D01*
X33131Y-31649D02*
X32911Y-31558D01*
X32911Y-31558D02*
X32750Y-31397D01*
X32750Y-31397D02*
X32589Y-31558D01*
X32589Y-31558D02*
X32369Y-31649D01*
X32369Y-31649D02*
X32131Y-31649D01*
X32131Y-31649D02*
X31911Y-31558D01*
X31911Y-31558D02*
X31749Y-31396D01*
X31749Y-31396D02*
X31589Y-31558D01*
X31589Y-31558D02*
X31369Y-31649D01*
X31369Y-31649D02*
X31131Y-31649D01*
X31131Y-31649D02*
X30911Y-31558D01*
X30911Y-31558D02*
X30742Y-31389D01*
X30742Y-31389D02*
X30736Y-31375D01*
X30736Y-31375D02*
X29850Y-31375D01*
X29850Y-31375D02*
X29725Y-31350D01*
X29725Y-31350D02*
X29619Y-31279D01*
X29619Y-31279D02*
X28785Y-30445D01*
X28785Y-30445D02*
X28675Y-30445D01*
X28675Y-30445D02*
X28501Y-30372D01*
X28501Y-30372D02*
X28367Y-30239D01*
X28367Y-30239D02*
X28295Y-30064D01*
X28295Y-30064D02*
X28295Y-29875D01*
X28295Y-29875D02*
X28368Y-29701D01*
X28368Y-29701D02*
X28373Y-29695D01*
X28373Y-29695D02*
X25779Y-29695D01*
X25779Y-29695D02*
X25656Y-29670D01*
X25656Y-29670D02*
X25645Y-29663D01*
X25645Y-29663D02*
X25649Y-29671D01*
X25649Y-29671D02*
X25650Y-30008D01*
X25650Y-30008D02*
X25613Y-30045D01*
X25613Y-30045D02*
X25155Y-30045D01*
X25155Y-30045D02*
X25155Y-29587D01*
X25155Y-29587D02*
X25192Y-29550D01*
X25192Y-29550D02*
X25500Y-29550D01*
X25500Y-29550D02*
X25445Y-29495D01*
X25445Y-29495D02*
X24824Y-29495D01*
X24824Y-29495D02*
X24766Y-29552D01*
X24766Y-29552D02*
X25108Y-29550D01*
X25108Y-29550D02*
X25145Y-29587D01*
X25145Y-29587D02*
X25145Y-30045D01*
X25145Y-30045D02*
X24749Y-30045D01*
X24749Y-30045D02*
X24749Y-30055D01*
X24749Y-30055D02*
X25145Y-30055D01*
X25145Y-30055D02*
X25145Y-30451D01*
X25145Y-30451D02*
X25155Y-30451D01*
X25155Y-30451D02*
X25155Y-30055D01*
X25155Y-30055D02*
X25613Y-30055D01*
X25613Y-30055D02*
X25650Y-30092D01*
X25650Y-30092D02*
X25649Y-30429D01*
X25649Y-30429D02*
X25627Y-30484D01*
X25627Y-30484D02*
X25585Y-30526D01*
X25585Y-30526D02*
X25530Y-30549D01*
X25530Y-30549D02*
X25496Y-30549D01*
X25496Y-30549D02*
X25658Y-30711D01*
X25658Y-30711D02*
X25749Y-30931D01*
X25749Y-30931D02*
X25749Y-31169D01*
X25749Y-31169D02*
X25658Y-31389D01*
X25658Y-31389D02*
X25489Y-31558D01*
X25489Y-31558D02*
X25269Y-31649D01*
X25269Y-31649D02*
X25031Y-31649D01*
X25031Y-31649D02*
X24811Y-31558D01*
X24811Y-31558D02*
X24650Y-31397D01*
X24650Y-31397D02*
X24489Y-31558D01*
X24489Y-31558D02*
X24269Y-31649D01*
X24269Y-31649D02*
X24031Y-31649D01*
X24031Y-31649D02*
X23811Y-31558D01*
X23811Y-31558D02*
X23650Y-31397D01*
X23650Y-31397D02*
X23489Y-31558D01*
X23489Y-31558D02*
X23269Y-31649D01*
X23269Y-31649D02*
X23031Y-31649D01*
X23031Y-31649D02*
X22811Y-31558D01*
X22811Y-31558D02*
X22650Y-31397D01*
X22650Y-31397D02*
X22489Y-31558D01*
X22489Y-31558D02*
X22269Y-31649D01*
X22269Y-31649D02*
X22031Y-31649D01*
X22031Y-31649D02*
X21811Y-31558D01*
X21811Y-31558D02*
X21649Y-31396D01*
X21649Y-31396D02*
X21489Y-31558D01*
X21489Y-31558D02*
X21269Y-31649D01*
X21269Y-31649D02*
X21031Y-31649D01*
X21031Y-31649D02*
X20811Y-31558D01*
X20811Y-31558D02*
X20642Y-31389D01*
X20642Y-31389D02*
X20551Y-31169D01*
X20551Y-31169D02*
X20551Y-30931D01*
X20551Y-30931D02*
X20642Y-30711D01*
X20642Y-30711D02*
X20802Y-30550D01*
X20802Y-30550D02*
X20642Y-30389D01*
X20642Y-30389D02*
X20636Y-30375D01*
X20636Y-30375D02*
X16924Y-30375D01*
X16924Y-30375D02*
X16801Y-30350D01*
X16801Y-30350D02*
X16695Y-30280D01*
X16695Y-30280D02*
X15080Y-28665D01*
X15080Y-28665D02*
X15010Y-28559D01*
X15010Y-28559D02*
X14985Y-28435D01*
X14985Y-28435D02*
X14985Y-27678D01*
X14985Y-27678D02*
X14925Y-27738D01*
X14925Y-27738D02*
X14925Y-29445D01*
X14925Y-29445D02*
X15989Y-30510D01*
X15989Y-30510D02*
X16100Y-30510D01*
X16100Y-30510D02*
X16274Y-30583D01*
X16274Y-30583D02*
X16408Y-30716D01*
X16408Y-30716D02*
X16480Y-30891D01*
X16480Y-30891D02*
X16480Y-31080D01*
X16480Y-31080D02*
X16407Y-31254D01*
X16407Y-31254D02*
X16274Y-31388D01*
X16274Y-31388D02*
X16099Y-31460D01*
X16099Y-31460D02*
X15910Y-31460D01*
X15910Y-31460D02*
X15736Y-31387D01*
X15736Y-31387D02*
X15602Y-31254D01*
X15602Y-31254D02*
X15530Y-31079D01*
X15530Y-31079D02*
X15530Y-30969D01*
X15530Y-30969D02*
X14370Y-29810D01*
X14370Y-29810D02*
X14300Y-29704D01*
X14300Y-29704D02*
X14275Y-29580D01*
X14275Y-29580D02*
X14274Y-27737D01*
X14274Y-27737D02*
X14112Y-27575D01*
X14112Y-27575D02*
X13126Y-27575D01*
X13126Y-27575D02*
X13321Y-27770D01*
X13321Y-27770D02*
X13450Y-28082D01*
X13450Y-28082D02*
X13450Y-28420D01*
X13450Y-28420D02*
X13320Y-28732D01*
X13320Y-28732D02*
X13080Y-28971D01*
X13080Y-28971D02*
X12768Y-29100D01*
X12768Y-29100D02*
X12430Y-29100D01*
X12430Y-29100D02*
X12118Y-28970D01*
X12118Y-28970D02*
X11879Y-28730D01*
X11879Y-28730D02*
X11750Y-28418D01*
X11750Y-28418D02*
X11750Y-28080D01*
X11750Y-28080D02*
X11880Y-27768D01*
X11880Y-27768D02*
X12120Y-27529D01*
X12120Y-27529D02*
X12432Y-27400D01*
X12432Y-27400D02*
X12720Y-27400D01*
X12720Y-27400D02*
X11195Y-25875D01*
X11195Y-25875D02*
X11125Y-25769D01*
X11125Y-25769D02*
X11100Y-25645D01*
X11100Y-25645D02*
X11100Y-21977D01*
X11100Y-21977D02*
X11039Y-21916D01*
X11039Y-21916D02*
X11001Y-21824D01*
X11001Y-21824D02*
X11001Y-21175D01*
X11001Y-21175D02*
X11039Y-21084D01*
X11039Y-21084D02*
X11100Y-21023D01*
X11100Y-21023D02*
X11100Y-20477D01*
X11100Y-20477D02*
X11039Y-20416D01*
X11039Y-20416D02*
X11001Y-20324D01*
X11001Y-20324D02*
X11001Y-19675D01*
X11001Y-19675D02*
X11039Y-19584D01*
X11039Y-19584D02*
X11100Y-19523D01*
X11100Y-19523D02*
X11100Y-19505D01*
X11100Y-19505D02*
X11125Y-19381D01*
X11125Y-19381D02*
X11195Y-19275D01*
X11195Y-19275D02*
X11925Y-18545D01*
X11925Y-18545D02*
X12030Y-18475D01*
X12030Y-18475D02*
X12155Y-18450D01*
X12155Y-18450D02*
X12274Y-18450D01*
X12274Y-18450D02*
X12272Y-18445D01*
X12272Y-18445D02*
X12272Y-18229D01*
X12272Y-18229D02*
X12239Y-18229D01*
X12239Y-18229D02*
X12115Y-18204D01*
X12115Y-18204D02*
X12009Y-18134D01*
X12009Y-18134D02*
X11549Y-17673D01*
X11549Y-17673D02*
X11549Y-18446D01*
X11549Y-18446D02*
X11511Y-18537D01*
X11511Y-18537D02*
X11441Y-18607D01*
X11441Y-18607D02*
X11349Y-18645D01*
X11349Y-18645D02*
X10384Y-18645D01*
X10384Y-18645D02*
X10293Y-18607D01*
X10293Y-18607D02*
X10245Y-18559D01*
X10245Y-18559D02*
X10245Y-32255D01*
X10245Y-32255D02*
X11070Y-32255D01*
X11070Y-32255D02*
X11070Y-32150D01*
X11070Y-32150D02*
X10739Y-32012D01*
X10739Y-32012D02*
X10487Y-31759D01*
X10487Y-31759D02*
X10350Y-31428D01*
X10350Y-31428D02*
X10350Y-31070D01*
X10350Y-31070D02*
X10488Y-30739D01*
X10488Y-30739D02*
X10741Y-30487D01*
X10741Y-30487D02*
X11072Y-30350D01*
X11072Y-30350D02*
X11430Y-30350D01*
X11430Y-30350D02*
X11761Y-30488D01*
X11761Y-30488D02*
X12013Y-30741D01*
X12013Y-30741D02*
X12150Y-31072D01*
X12150Y-31072D02*
X12150Y-31430D01*
X12150Y-31430D02*
X12012Y-31761D01*
X12012Y-31761D02*
X11759Y-32013D01*
X11759Y-32013D02*
X11428Y-32150D01*
X11428Y-32150D02*
X11070Y-32150D01*
X11070Y-32150D02*
X11070Y-32255D01*
X11070Y-32255D02*
X38570Y-32255D01*
X38570Y-32255D02*
X38570Y-32150D01*
X38570Y-32150D02*
X38239Y-32012D01*
X38239Y-32012D02*
X37987Y-31759D01*
X37987Y-31759D02*
X37850Y-31428D01*
X37850Y-31428D02*
X37850Y-31070D01*
X37850Y-31070D02*
X37988Y-30739D01*
X37988Y-30739D02*
X38241Y-30487D01*
X38241Y-30487D02*
X38572Y-30350D01*
X38572Y-30350D02*
X38930Y-30350D01*
X38930Y-30350D02*
X39261Y-30488D01*
X39261Y-30488D02*
X39513Y-30741D01*
X39513Y-30741D02*
X39650Y-31072D01*
X39650Y-31072D02*
X39650Y-31430D01*
X39650Y-31430D02*
X39512Y-31761D01*
X39512Y-31761D02*
X39259Y-32013D01*
X39259Y-32013D02*
X38928Y-32150D01*
X38928Y-32150D02*
X38570Y-32150D01*
X38570Y-32150D02*
X38570Y-32255D01*
X38570Y-32255D02*
X39755Y-32255D01*
X19543Y-29725D02*
X19472Y-29654D01*
X19472Y-29654D02*
X19400Y-29479D01*
X19400Y-29479D02*
X19400Y-29290D01*
X19400Y-29290D02*
X19473Y-29116D01*
X19473Y-29116D02*
X19550Y-29038D01*
X19550Y-29038D02*
X19550Y-26985D01*
X19550Y-26985D02*
X19575Y-26861D01*
X19575Y-26861D02*
X19645Y-26755D01*
X19645Y-26755D02*
X20605Y-25795D01*
X20605Y-25795D02*
X20711Y-25725D01*
X20711Y-25725D02*
X20835Y-25700D01*
X20835Y-25700D02*
X21975Y-25700D01*
X21975Y-25700D02*
X22513Y-25161D01*
X22513Y-25161D02*
X22513Y-24865D01*
X22513Y-24865D02*
X22350Y-24864D01*
X22350Y-24864D02*
X22295Y-24841D01*
X22295Y-24841D02*
X22253Y-24799D01*
X22253Y-24799D02*
X22231Y-24744D01*
X22231Y-24744D02*
X22230Y-24482D01*
X22230Y-24482D02*
X22267Y-24445D01*
X22267Y-24445D02*
X22267Y-24435D01*
X22267Y-24435D02*
X22230Y-24398D01*
X22230Y-24398D02*
X22231Y-24136D01*
X22231Y-24136D02*
X22253Y-24081D01*
X22253Y-24081D02*
X22295Y-24039D01*
X22295Y-24039D02*
X22350Y-24016D01*
X22350Y-24016D02*
X22513Y-24015D01*
X22513Y-24015D02*
X22550Y-24052D01*
X22550Y-24052D02*
X22550Y-24435D01*
X22550Y-24435D02*
X22267Y-24435D01*
X22267Y-24435D02*
X22267Y-24445D01*
X22267Y-24445D02*
X22550Y-24445D01*
X22550Y-24445D02*
X22550Y-24828D01*
X22550Y-24828D02*
X22513Y-24865D01*
X22513Y-24865D02*
X22513Y-25161D01*
X22513Y-25161D02*
X22597Y-25077D01*
X22597Y-25077D02*
X22597Y-24865D01*
X22597Y-24865D02*
X22560Y-24828D01*
X22560Y-24828D02*
X22560Y-24445D01*
X22560Y-24445D02*
X22560Y-24435D01*
X22560Y-24435D02*
X22560Y-24052D01*
X22560Y-24052D02*
X22597Y-24015D01*
X22597Y-24015D02*
X22760Y-24016D01*
X22760Y-24016D02*
X22815Y-24039D01*
X22815Y-24039D02*
X22857Y-24081D01*
X22857Y-24081D02*
X22879Y-24136D01*
X22879Y-24136D02*
X22880Y-24398D01*
X22880Y-24398D02*
X22843Y-24435D01*
X22843Y-24435D02*
X22560Y-24435D01*
X22560Y-24435D02*
X22560Y-24445D01*
X22560Y-24445D02*
X22843Y-24445D01*
X22843Y-24445D02*
X22880Y-24482D01*
X22880Y-24482D02*
X22879Y-24744D01*
X22879Y-24744D02*
X22857Y-24799D01*
X22857Y-24799D02*
X22815Y-24841D01*
X22815Y-24841D02*
X22760Y-24864D01*
X22760Y-24864D02*
X22597Y-24865D01*
X22597Y-24865D02*
X22597Y-25077D01*
X22597Y-25077D02*
X22889Y-24785D01*
X22889Y-24785D02*
X22881Y-24764D01*
X22881Y-24764D02*
X22881Y-24115D01*
X22881Y-24115D02*
X22919Y-24024D01*
X22919Y-24024D02*
X22989Y-23954D01*
X22989Y-23954D02*
X23081Y-23916D01*
X23081Y-23916D02*
X23530Y-23916D01*
X23530Y-23916D02*
X23554Y-23926D01*
X23554Y-23926D02*
X24123Y-23357D01*
X24123Y-23357D02*
X24123Y-23232D01*
X24123Y-23232D02*
X24117Y-23247D01*
X24117Y-23247D02*
X24047Y-23317D01*
X24047Y-23317D02*
X23955Y-23355D01*
X23955Y-23355D02*
X23680Y-23355D01*
X23680Y-23355D02*
X23660Y-23346D01*
X23660Y-23346D02*
X23640Y-23355D01*
X23640Y-23355D02*
X23365Y-23355D01*
X23365Y-23355D02*
X23345Y-23346D01*
X23345Y-23346D02*
X23325Y-23355D01*
X23325Y-23355D02*
X23050Y-23355D01*
X23050Y-23355D02*
X22959Y-23317D01*
X22959Y-23317D02*
X22889Y-23247D01*
X22889Y-23247D02*
X22851Y-23155D01*
X22851Y-23155D02*
X22851Y-22506D01*
X22851Y-22506D02*
X22856Y-22493D01*
X22856Y-22493D02*
X22843Y-22499D01*
X22843Y-22499D02*
X22194Y-22499D01*
X22194Y-22499D02*
X22103Y-22461D01*
X22103Y-22461D02*
X22033Y-22391D01*
X22033Y-22391D02*
X21995Y-22299D01*
X21995Y-22299D02*
X21995Y-22024D01*
X21995Y-22024D02*
X22003Y-22004D01*
X22003Y-22004D02*
X21995Y-21984D01*
X21995Y-21984D02*
X21995Y-21709D01*
X21995Y-21709D02*
X22003Y-21689D01*
X22003Y-21689D02*
X21995Y-21669D01*
X21995Y-21669D02*
X21995Y-21394D01*
X21995Y-21394D02*
X22003Y-21374D01*
X22003Y-21374D02*
X21995Y-21354D01*
X21995Y-21354D02*
X21995Y-21079D01*
X21995Y-21079D02*
X22003Y-21059D01*
X22003Y-21059D02*
X21995Y-21039D01*
X21995Y-21039D02*
X21995Y-20912D01*
X21995Y-20912D02*
X21447Y-20912D01*
X21447Y-20912D02*
X21319Y-20965D01*
X21319Y-20965D02*
X21170Y-20965D01*
X21170Y-20965D02*
X21032Y-20907D01*
X21032Y-20907D02*
X20927Y-20802D01*
X20927Y-20802D02*
X20870Y-20664D01*
X20870Y-20664D02*
X20870Y-20515D01*
X20870Y-20515D02*
X20928Y-20377D01*
X20928Y-20377D02*
X21023Y-20282D01*
X21023Y-20282D02*
X17562Y-20282D01*
X17562Y-20282D02*
X17040Y-20805D01*
X17040Y-20805D02*
X17040Y-21310D01*
X17040Y-21310D02*
X17015Y-21434D01*
X17015Y-21434D02*
X16945Y-21540D01*
X16945Y-21540D02*
X14925Y-23560D01*
X14925Y-23560D02*
X14925Y-25676D01*
X14925Y-25676D02*
X14975Y-25676D01*
X14975Y-25676D02*
X15066Y-25714D01*
X15066Y-25714D02*
X15136Y-25784D01*
X15136Y-25784D02*
X15174Y-25876D01*
X15174Y-25876D02*
X15174Y-25956D01*
X15174Y-25956D02*
X15270Y-26020D01*
X15270Y-26020D02*
X15540Y-26290D01*
X15540Y-26290D02*
X15610Y-26396D01*
X15610Y-26396D02*
X15635Y-26520D01*
X15635Y-26520D02*
X15635Y-28300D01*
X15635Y-28300D02*
X15750Y-28415D01*
X15750Y-28415D02*
X15750Y-28080D01*
X15750Y-28080D02*
X15880Y-27768D01*
X15880Y-27768D02*
X16120Y-27529D01*
X16120Y-27529D02*
X16432Y-27400D01*
X16432Y-27400D02*
X16770Y-27400D01*
X16770Y-27400D02*
X17082Y-27530D01*
X17082Y-27530D02*
X17321Y-27770D01*
X17321Y-27770D02*
X17450Y-28082D01*
X17450Y-28082D02*
X17450Y-28420D01*
X17450Y-28420D02*
X17320Y-28732D01*
X17320Y-28732D02*
X17080Y-28971D01*
X17080Y-28971D02*
X16768Y-29100D01*
X16768Y-29100D02*
X16434Y-29100D01*
X16434Y-29100D02*
X17059Y-29725D01*
X17059Y-29725D02*
X19543Y-29725D01*
X14845Y-21175D02*
X18812Y-17208D01*
X18812Y-17208D02*
X18918Y-17138D01*
X18918Y-17138D02*
X19042Y-17113D01*
X19042Y-17113D02*
X22165Y-17113D01*
X22165Y-17113D02*
X22195Y-17101D01*
X22195Y-17101D02*
X22844Y-17101D01*
X22844Y-17101D02*
X22856Y-17106D01*
X22856Y-17106D02*
X22851Y-17092D01*
X22851Y-17092D02*
X22851Y-16443D01*
X22851Y-16443D02*
X22889Y-16352D01*
X22889Y-16352D02*
X22959Y-16282D01*
X22959Y-16282D02*
X23051Y-16244D01*
X23051Y-16244D02*
X23326Y-16244D01*
X23326Y-16244D02*
X23345Y-16252D01*
X23345Y-16252D02*
X23366Y-16244D01*
X23366Y-16244D02*
X23641Y-16244D01*
X23641Y-16244D02*
X23660Y-16252D01*
X23660Y-16252D02*
X23681Y-16244D01*
X23681Y-16244D02*
X23956Y-16244D01*
X23956Y-16244D02*
X23975Y-16252D01*
X23975Y-16252D02*
X23996Y-16244D01*
X23996Y-16244D02*
X24271Y-16244D01*
X24271Y-16244D02*
X24290Y-16252D01*
X24290Y-16252D02*
X24311Y-16244D01*
X24311Y-16244D02*
X24368Y-16244D01*
X24368Y-16244D02*
X24311Y-16220D01*
X24311Y-16220D02*
X19009Y-16220D01*
X19009Y-16220D02*
X17499Y-17730D01*
X17499Y-17730D02*
X17499Y-18100D01*
X17499Y-18100D02*
X17461Y-18191D01*
X17461Y-18191D02*
X17391Y-18261D01*
X17391Y-18261D02*
X17299Y-18299D01*
X17299Y-18299D02*
X16850Y-18299D01*
X16850Y-18299D02*
X16759Y-18261D01*
X16759Y-18261D02*
X16700Y-18202D01*
X16700Y-18202D02*
X16641Y-18261D01*
X16641Y-18261D02*
X16549Y-18299D01*
X16549Y-18299D02*
X16100Y-18299D01*
X16100Y-18299D02*
X16009Y-18261D01*
X16009Y-18261D02*
X15939Y-18191D01*
X15939Y-18191D02*
X15901Y-18100D01*
X15901Y-18100D02*
X15150Y-18100D01*
X15150Y-18100D02*
X15026Y-18075D01*
X15026Y-18075D02*
X14920Y-18005D01*
X14920Y-18005D02*
X14465Y-17549D01*
X14465Y-17549D02*
X14465Y-18320D01*
X14465Y-18320D02*
X14440Y-18444D01*
X14440Y-18444D02*
X14370Y-18550D01*
X14370Y-18550D02*
X14367Y-18551D01*
X14367Y-18551D02*
X13915Y-19005D01*
X13915Y-19005D02*
X13809Y-19075D01*
X13809Y-19075D02*
X13685Y-19100D01*
X13685Y-19100D02*
X12290Y-19100D01*
X12290Y-19100D02*
X11887Y-19502D01*
X11887Y-19502D02*
X11951Y-19476D01*
X11951Y-19476D02*
X12400Y-19476D01*
X12400Y-19476D02*
X12491Y-19514D01*
X12491Y-19514D02*
X12561Y-19584D01*
X12561Y-19584D02*
X12598Y-19675D01*
X12598Y-19675D02*
X12901Y-19675D01*
X12901Y-19675D02*
X12939Y-19584D01*
X12939Y-19584D02*
X13009Y-19514D01*
X13009Y-19514D02*
X13101Y-19476D01*
X13101Y-19476D02*
X13550Y-19476D01*
X13550Y-19476D02*
X13641Y-19514D01*
X13641Y-19514D02*
X13711Y-19584D01*
X13711Y-19584D02*
X13749Y-19676D01*
X13749Y-19676D02*
X13749Y-20325D01*
X13749Y-20325D02*
X13711Y-20416D01*
X13711Y-20416D02*
X13641Y-20486D01*
X13641Y-20486D02*
X13549Y-20524D01*
X13549Y-20524D02*
X13100Y-20524D01*
X13100Y-20524D02*
X13009Y-20486D01*
X13009Y-20486D02*
X12939Y-20416D01*
X12939Y-20416D02*
X12901Y-20325D01*
X12901Y-20325D02*
X12599Y-20325D01*
X12599Y-20325D02*
X12561Y-20416D01*
X12561Y-20416D02*
X12491Y-20486D01*
X12491Y-20486D02*
X12399Y-20524D01*
X12399Y-20524D02*
X11950Y-20524D01*
X11950Y-20524D02*
X11859Y-20486D01*
X11859Y-20486D02*
X11799Y-20427D01*
X11799Y-20427D02*
X11750Y-20477D01*
X11750Y-20477D02*
X11750Y-21023D01*
X11750Y-21023D02*
X11800Y-21072D01*
X11800Y-21072D02*
X11859Y-21014D01*
X11859Y-21014D02*
X11951Y-20976D01*
X11951Y-20976D02*
X12400Y-20976D01*
X12400Y-20976D02*
X12491Y-21014D01*
X12491Y-21014D02*
X12561Y-21084D01*
X12561Y-21084D02*
X12598Y-21175D01*
X12598Y-21175D02*
X12901Y-21175D01*
X12901Y-21175D02*
X12939Y-21084D01*
X12939Y-21084D02*
X13009Y-21014D01*
X13009Y-21014D02*
X13101Y-20976D01*
X13101Y-20976D02*
X13550Y-20976D01*
X13550Y-20976D02*
X13641Y-21014D01*
X13641Y-21014D02*
X13700Y-21072D01*
X13700Y-21072D02*
X13759Y-21014D01*
X13759Y-21014D02*
X13851Y-20976D01*
X13851Y-20976D02*
X14033Y-20976D01*
X14033Y-20976D02*
X14033Y-20425D01*
X14033Y-20425D02*
X13870Y-20424D01*
X13870Y-20424D02*
X13815Y-20401D01*
X13815Y-20401D02*
X13773Y-20359D01*
X13773Y-20359D02*
X13751Y-20304D01*
X13751Y-20304D02*
X13750Y-20042D01*
X13750Y-20042D02*
X13787Y-20005D01*
X13787Y-20005D02*
X13800Y-20005D01*
X13800Y-20005D02*
X13800Y-19995D01*
X13800Y-19995D02*
X13787Y-19995D01*
X13787Y-19995D02*
X13750Y-19958D01*
X13750Y-19958D02*
X13751Y-19696D01*
X13751Y-19696D02*
X13773Y-19641D01*
X13773Y-19641D02*
X13815Y-19599D01*
X13815Y-19599D02*
X13870Y-19576D01*
X13870Y-19576D02*
X14033Y-19575D01*
X14033Y-19575D02*
X14070Y-19612D01*
X14070Y-19612D02*
X14070Y-19995D01*
X14070Y-19995D02*
X14070Y-20005D01*
X14070Y-20005D02*
X14070Y-20388D01*
X14070Y-20388D02*
X14033Y-20425D01*
X14033Y-20425D02*
X14033Y-20976D01*
X14033Y-20976D02*
X14117Y-20976D01*
X14117Y-20976D02*
X14117Y-20425D01*
X14117Y-20425D02*
X14080Y-20388D01*
X14080Y-20388D02*
X14080Y-20005D01*
X14080Y-20005D02*
X14080Y-19995D01*
X14080Y-19995D02*
X14080Y-19612D01*
X14080Y-19612D02*
X14117Y-19575D01*
X14117Y-19575D02*
X14280Y-19576D01*
X14280Y-19576D02*
X14335Y-19599D01*
X14335Y-19599D02*
X14377Y-19641D01*
X14377Y-19641D02*
X14399Y-19696D01*
X14399Y-19696D02*
X14400Y-19958D01*
X14400Y-19958D02*
X14363Y-19995D01*
X14363Y-19995D02*
X14080Y-19995D01*
X14080Y-19995D02*
X14080Y-20005D01*
X14080Y-20005D02*
X14363Y-20005D01*
X14363Y-20005D02*
X14400Y-20042D01*
X14400Y-20042D02*
X14399Y-20304D01*
X14399Y-20304D02*
X14377Y-20359D01*
X14377Y-20359D02*
X14335Y-20401D01*
X14335Y-20401D02*
X14280Y-20424D01*
X14280Y-20424D02*
X14117Y-20425D01*
X14117Y-20425D02*
X14117Y-20976D01*
X14117Y-20976D02*
X14300Y-20976D01*
X14300Y-20976D02*
X14391Y-21014D01*
X14391Y-21014D02*
X14461Y-21084D01*
X14461Y-21084D02*
X14498Y-21175D01*
X14498Y-21175D02*
X14845Y-21175D01*
X15901Y-16415D02*
X15939Y-16324D01*
X15939Y-16324D02*
X16009Y-16254D01*
X16009Y-16254D02*
X16101Y-16216D01*
X16101Y-16216D02*
X16335Y-16216D01*
X16335Y-16216D02*
X16335Y-15089D01*
X16335Y-15089D02*
X16244Y-15051D01*
X16244Y-15051D02*
X16174Y-14981D01*
X16174Y-14981D02*
X16136Y-14889D01*
X16136Y-14889D02*
X16136Y-14240D01*
X16136Y-14240D02*
X16174Y-14149D01*
X16174Y-14149D02*
X16244Y-14079D01*
X16244Y-14079D02*
X16336Y-14041D01*
X16336Y-14041D02*
X16785Y-14041D01*
X16785Y-14041D02*
X16876Y-14079D01*
X16876Y-14079D02*
X16946Y-14149D01*
X16946Y-14149D02*
X16983Y-14240D01*
X16983Y-14240D02*
X17124Y-14240D01*
X17124Y-14240D02*
X17246Y-14190D01*
X17246Y-14190D02*
X17395Y-14190D01*
X17395Y-14190D02*
X17533Y-14248D01*
X17533Y-14248D02*
X17638Y-14353D01*
X17638Y-14353D02*
X17695Y-14491D01*
X17695Y-14491D02*
X17695Y-14640D01*
X17695Y-14640D02*
X17637Y-14778D01*
X17637Y-14778D02*
X17532Y-14883D01*
X17532Y-14883D02*
X17394Y-14940D01*
X17394Y-14940D02*
X17245Y-14940D01*
X17245Y-14940D02*
X17126Y-14890D01*
X17126Y-14890D02*
X16984Y-14890D01*
X16984Y-14890D02*
X16946Y-14981D01*
X16946Y-14981D02*
X16876Y-15051D01*
X16876Y-15051D02*
X16784Y-15089D01*
X16784Y-15089D02*
X16335Y-15089D01*
X16335Y-15089D02*
X16335Y-16216D01*
X16335Y-16216D02*
X16550Y-16216D01*
X16550Y-16216D02*
X16641Y-16254D01*
X16641Y-16254D02*
X16700Y-16313D01*
X16700Y-16313D02*
X16759Y-16254D01*
X16759Y-16254D02*
X16851Y-16216D01*
X16851Y-16216D02*
X17300Y-16216D01*
X17300Y-16216D02*
X17391Y-16254D01*
X17391Y-16254D02*
X17461Y-16324D01*
X17461Y-16324D02*
X17472Y-16352D01*
X17472Y-16352D02*
X18599Y-15225D01*
X18599Y-15225D02*
X18705Y-15155D01*
X18705Y-15155D02*
X18830Y-15130D01*
X18830Y-15130D02*
X19473Y-15129D01*
X19473Y-15129D02*
X19473Y-15020D01*
X19473Y-15020D02*
X19310Y-15019D01*
X19310Y-15019D02*
X19255Y-14996D01*
X19255Y-14996D02*
X19213Y-14954D01*
X19213Y-14954D02*
X19191Y-14899D01*
X19191Y-14899D02*
X19190Y-14637D01*
X19190Y-14637D02*
X19227Y-14600D01*
X19227Y-14600D02*
X19227Y-14590D01*
X19227Y-14590D02*
X19190Y-14553D01*
X19190Y-14553D02*
X19191Y-14291D01*
X19191Y-14291D02*
X19213Y-14236D01*
X19213Y-14236D02*
X19255Y-14194D01*
X19255Y-14194D02*
X19310Y-14171D01*
X19310Y-14171D02*
X19473Y-14170D01*
X19473Y-14170D02*
X19510Y-14207D01*
X19510Y-14207D02*
X19510Y-14590D01*
X19510Y-14590D02*
X19227Y-14590D01*
X19227Y-14590D02*
X19227Y-14600D01*
X19227Y-14600D02*
X19510Y-14600D01*
X19510Y-14600D02*
X19510Y-14983D01*
X19510Y-14983D02*
X19473Y-15020D01*
X19473Y-15020D02*
X19473Y-15129D01*
X19473Y-15129D02*
X19557Y-15129D01*
X19557Y-15129D02*
X19557Y-15020D01*
X19557Y-15020D02*
X19520Y-14983D01*
X19520Y-14983D02*
X19520Y-14600D01*
X19520Y-14600D02*
X19520Y-14590D01*
X19520Y-14590D02*
X19520Y-14207D01*
X19520Y-14207D02*
X19557Y-14170D01*
X19557Y-14170D02*
X19720Y-14171D01*
X19720Y-14171D02*
X19775Y-14194D01*
X19775Y-14194D02*
X19817Y-14236D01*
X19817Y-14236D02*
X19839Y-14291D01*
X19839Y-14291D02*
X19840Y-14553D01*
X19840Y-14553D02*
X19803Y-14590D01*
X19803Y-14590D02*
X19790Y-14590D01*
X19790Y-14590D02*
X19790Y-14600D01*
X19790Y-14600D02*
X19803Y-14600D01*
X19803Y-14600D02*
X19840Y-14637D01*
X19840Y-14637D02*
X19839Y-14899D01*
X19839Y-14899D02*
X19817Y-14954D01*
X19817Y-14954D02*
X19775Y-14996D01*
X19775Y-14996D02*
X19720Y-15019D01*
X19720Y-15019D02*
X19557Y-15020D01*
X19557Y-15020D02*
X19557Y-15129D01*
X19557Y-15129D02*
X20729Y-15129D01*
X20729Y-15129D02*
X20707Y-15076D01*
X20707Y-15076D02*
X20646Y-15015D01*
X20646Y-15015D02*
X20581Y-15081D01*
X20581Y-15081D02*
X20489Y-15119D01*
X20489Y-15119D02*
X20040Y-15119D01*
X20040Y-15119D02*
X19949Y-15081D01*
X19949Y-15081D02*
X19879Y-15011D01*
X19879Y-15011D02*
X19841Y-14919D01*
X19841Y-14919D02*
X19841Y-14270D01*
X19841Y-14270D02*
X19879Y-14179D01*
X19879Y-14179D02*
X19949Y-14109D01*
X19949Y-14109D02*
X20041Y-14071D01*
X20041Y-14071D02*
X20490Y-14071D01*
X20490Y-14071D02*
X20581Y-14109D01*
X20581Y-14109D02*
X20651Y-14179D01*
X20651Y-14179D02*
X20688Y-14270D01*
X20688Y-14270D02*
X20910Y-14270D01*
X20910Y-14270D02*
X21005Y-14175D01*
X21005Y-14175D02*
X21005Y-13935D01*
X21005Y-13935D02*
X20955Y-13814D01*
X20955Y-13814D02*
X20955Y-13665D01*
X20955Y-13665D02*
X21013Y-13527D01*
X21013Y-13527D02*
X21118Y-13422D01*
X21118Y-13422D02*
X21256Y-13365D01*
X21256Y-13365D02*
X21405Y-13365D01*
X21405Y-13365D02*
X21543Y-13423D01*
X21543Y-13423D02*
X21648Y-13528D01*
X21648Y-13528D02*
X21705Y-13666D01*
X21705Y-13666D02*
X21705Y-13815D01*
X21705Y-13815D02*
X21655Y-13933D01*
X21655Y-13933D02*
X21655Y-14310D01*
X21655Y-14310D02*
X21630Y-14434D01*
X21630Y-14434D02*
X21560Y-14540D01*
X21560Y-14540D02*
X21360Y-14740D01*
X21360Y-14740D02*
X21393Y-14773D01*
X21393Y-14773D02*
X21450Y-14911D01*
X21450Y-14911D02*
X21450Y-15060D01*
X21450Y-15060D02*
X21420Y-15130D01*
X21420Y-15130D02*
X21890Y-15130D01*
X21890Y-15130D02*
X21890Y-13124D01*
X21890Y-13124D02*
X21240Y-12475D01*
X21240Y-12475D02*
X20144Y-12475D01*
X20144Y-12475D02*
X20245Y-12575D01*
X20245Y-12575D02*
X20329Y-12777D01*
X20329Y-12777D02*
X20329Y-12995D01*
X20329Y-12995D02*
X20245Y-13197D01*
X20245Y-13197D02*
X20091Y-13351D01*
X20091Y-13351D02*
X19889Y-13435D01*
X19889Y-13435D02*
X19671Y-13435D01*
X19671Y-13435D02*
X19469Y-13351D01*
X19469Y-13351D02*
X19315Y-13197D01*
X19315Y-13197D02*
X19231Y-12995D01*
X19231Y-12995D02*
X19231Y-12777D01*
X19231Y-12777D02*
X19315Y-12575D01*
X19315Y-12575D02*
X19415Y-12475D01*
X19415Y-12475D02*
X18734Y-12475D01*
X18734Y-12475D02*
X18094Y-13116D01*
X18094Y-13116D02*
X17988Y-13186D01*
X17988Y-13186D02*
X17864Y-13211D01*
X17864Y-13211D02*
X17670Y-13211D01*
X17670Y-13211D02*
X17531Y-13351D01*
X17531Y-13351D02*
X17329Y-13435D01*
X17329Y-13435D02*
X17111Y-13435D01*
X17111Y-13435D02*
X16909Y-13351D01*
X16909Y-13351D02*
X16755Y-13197D01*
X16755Y-13197D02*
X16671Y-12995D01*
X16671Y-12995D02*
X16671Y-12796D01*
X16671Y-12796D02*
X16499Y-12625D01*
X16499Y-12625D02*
X16265Y-12625D01*
X16265Y-12625D02*
X16329Y-12777D01*
X16329Y-12777D02*
X16329Y-12995D01*
X16329Y-12995D02*
X16245Y-13197D01*
X16245Y-13197D02*
X16091Y-13351D01*
X16091Y-13351D02*
X15889Y-13435D01*
X15889Y-13435D02*
X15671Y-13435D01*
X15671Y-13435D02*
X15469Y-13351D01*
X15469Y-13351D02*
X15315Y-13197D01*
X15315Y-13197D02*
X15231Y-12995D01*
X15231Y-12995D02*
X15231Y-12777D01*
X15231Y-12777D02*
X15294Y-12625D01*
X15294Y-12625D02*
X15014Y-12624D01*
X15014Y-12624D02*
X14390Y-13249D01*
X14390Y-13249D02*
X14390Y-13690D01*
X14390Y-13690D02*
X14530Y-13830D01*
X14530Y-13830D02*
X14600Y-13935D01*
X14600Y-13935D02*
X14613Y-14001D01*
X14613Y-14001D02*
X14625Y-14001D01*
X14625Y-14001D02*
X14716Y-14039D01*
X14716Y-14039D02*
X14786Y-14109D01*
X14786Y-14109D02*
X14824Y-14201D01*
X14824Y-14201D02*
X14824Y-14650D01*
X14824Y-14650D02*
X14786Y-14741D01*
X14786Y-14741D02*
X14716Y-14811D01*
X14716Y-14811D02*
X14624Y-14849D01*
X14624Y-14849D02*
X13975Y-14849D01*
X13975Y-14849D02*
X13884Y-14811D01*
X13884Y-14811D02*
X13814Y-14741D01*
X13814Y-14741D02*
X13776Y-14649D01*
X13776Y-14649D02*
X13776Y-14200D01*
X13776Y-14200D02*
X13796Y-14150D01*
X13796Y-14150D02*
X13636Y-14150D01*
X13636Y-14150D02*
X13636Y-15138D01*
X13636Y-15138D02*
X13598Y-15229D01*
X13598Y-15229D02*
X13528Y-15299D01*
X13528Y-15299D02*
X13436Y-15337D01*
X13436Y-15337D02*
X12613Y-15337D01*
X12613Y-15337D02*
X12628Y-15373D01*
X12628Y-15373D02*
X13010Y-15372D01*
X13010Y-15372D02*
X13047Y-15409D01*
X13047Y-15409D02*
X13047Y-15588D01*
X13047Y-15588D02*
X13057Y-15588D01*
X13057Y-15588D02*
X13057Y-15409D01*
X13057Y-15409D02*
X13094Y-15372D01*
X13094Y-15372D02*
X13474Y-15373D01*
X13474Y-15373D02*
X13529Y-15395D01*
X13529Y-15395D02*
X13571Y-15437D01*
X13571Y-15437D02*
X13594Y-15492D01*
X13594Y-15492D02*
X13595Y-15578D01*
X13595Y-15578D02*
X13562Y-15610D01*
X13562Y-15610D02*
X14020Y-15610D01*
X14020Y-15610D02*
X14144Y-15635D01*
X14144Y-15635D02*
X14250Y-15705D01*
X14250Y-15705D02*
X14258Y-15713D01*
X14258Y-15713D02*
X14258Y-15500D01*
X14258Y-15500D02*
X13996Y-15499D01*
X13996Y-15499D02*
X13941Y-15477D01*
X13941Y-15477D02*
X13899Y-15435D01*
X13899Y-15435D02*
X13876Y-15380D01*
X13876Y-15380D02*
X13875Y-15217D01*
X13875Y-15217D02*
X13912Y-15180D01*
X13912Y-15180D02*
X14295Y-15180D01*
X14295Y-15180D02*
X14295Y-15463D01*
X14295Y-15463D02*
X14258Y-15500D01*
X14258Y-15500D02*
X14258Y-15713D01*
X14258Y-15713D02*
X14342Y-15797D01*
X14342Y-15797D02*
X14342Y-15500D01*
X14342Y-15500D02*
X14305Y-15463D01*
X14305Y-15463D02*
X14305Y-15180D01*
X14305Y-15180D02*
X14305Y-15170D01*
X14305Y-15170D02*
X14295Y-15170D01*
X14295Y-15170D02*
X13912Y-15170D01*
X13912Y-15170D02*
X13875Y-15133D01*
X13875Y-15133D02*
X13876Y-14970D01*
X13876Y-14970D02*
X13899Y-14915D01*
X13899Y-14915D02*
X13941Y-14873D01*
X13941Y-14873D02*
X13996Y-14851D01*
X13996Y-14851D02*
X14258Y-14850D01*
X14258Y-14850D02*
X14295Y-14887D01*
X14295Y-14887D02*
X14295Y-14900D01*
X14295Y-14900D02*
X14305Y-14900D01*
X14305Y-14900D02*
X14305Y-14887D01*
X14305Y-14887D02*
X14342Y-14850D01*
X14342Y-14850D02*
X14604Y-14851D01*
X14604Y-14851D02*
X14659Y-14873D01*
X14659Y-14873D02*
X14701Y-14915D01*
X14701Y-14915D02*
X14724Y-14970D01*
X14724Y-14970D02*
X14725Y-15133D01*
X14725Y-15133D02*
X14688Y-15170D01*
X14688Y-15170D02*
X14305Y-15170D01*
X14305Y-15170D02*
X14305Y-15180D01*
X14305Y-15180D02*
X14688Y-15180D01*
X14688Y-15180D02*
X14725Y-15217D01*
X14725Y-15217D02*
X14724Y-15380D01*
X14724Y-15380D02*
X14701Y-15435D01*
X14701Y-15435D02*
X14659Y-15477D01*
X14659Y-15477D02*
X14604Y-15499D01*
X14604Y-15499D02*
X14342Y-15500D01*
X14342Y-15500D02*
X14342Y-15797D01*
X14342Y-15797D02*
X14959Y-16415D01*
X14959Y-16415D02*
X15768Y-16415D01*
X15768Y-16415D02*
X15768Y-14990D01*
X15768Y-14990D02*
X15605Y-14989D01*
X15605Y-14989D02*
X15550Y-14966D01*
X15550Y-14966D02*
X15508Y-14924D01*
X15508Y-14924D02*
X15486Y-14869D01*
X15486Y-14869D02*
X15485Y-14607D01*
X15485Y-14607D02*
X15522Y-14570D01*
X15522Y-14570D02*
X15522Y-14560D01*
X15522Y-14560D02*
X15485Y-14523D01*
X15485Y-14523D02*
X15486Y-14261D01*
X15486Y-14261D02*
X15508Y-14206D01*
X15508Y-14206D02*
X15550Y-14164D01*
X15550Y-14164D02*
X15605Y-14141D01*
X15605Y-14141D02*
X15768Y-14140D01*
X15768Y-14140D02*
X15805Y-14177D01*
X15805Y-14177D02*
X15805Y-14560D01*
X15805Y-14560D02*
X15522Y-14560D01*
X15522Y-14560D02*
X15522Y-14570D01*
X15522Y-14570D02*
X15805Y-14570D01*
X15805Y-14570D02*
X15805Y-14953D01*
X15805Y-14953D02*
X15768Y-14990D01*
X15768Y-14990D02*
X15768Y-16415D01*
X15768Y-16415D02*
X15852Y-16415D01*
X15852Y-16415D02*
X15852Y-14990D01*
X15852Y-14990D02*
X15815Y-14953D01*
X15815Y-14953D02*
X15815Y-14570D01*
X15815Y-14570D02*
X15815Y-14560D01*
X15815Y-14560D02*
X15815Y-14177D01*
X15815Y-14177D02*
X15852Y-14140D01*
X15852Y-14140D02*
X16015Y-14141D01*
X16015Y-14141D02*
X16070Y-14164D01*
X16070Y-14164D02*
X16112Y-14206D01*
X16112Y-14206D02*
X16134Y-14261D01*
X16134Y-14261D02*
X16135Y-14523D01*
X16135Y-14523D02*
X16098Y-14560D01*
X16098Y-14560D02*
X16085Y-14560D01*
X16085Y-14560D02*
X16085Y-14570D01*
X16085Y-14570D02*
X16098Y-14570D01*
X16098Y-14570D02*
X16135Y-14607D01*
X16135Y-14607D02*
X16134Y-14869D01*
X16134Y-14869D02*
X16112Y-14924D01*
X16112Y-14924D02*
X16070Y-14966D01*
X16070Y-14966D02*
X16015Y-14989D01*
X16015Y-14989D02*
X15852Y-14990D01*
X15852Y-14990D02*
X15852Y-16415D01*
X15852Y-16415D02*
X15901Y-16415D01*
X11549Y-14876D02*
X11650Y-14775D01*
X11650Y-14775D02*
X11650Y-14131D01*
X11650Y-14131D02*
X11675Y-14007D01*
X11675Y-14007D02*
X11745Y-13901D01*
X11745Y-13901D02*
X12671Y-12975D01*
X12671Y-12975D02*
X12671Y-12777D01*
X12671Y-12777D02*
X12755Y-12575D01*
X12755Y-12575D02*
X12909Y-12421D01*
X12909Y-12421D02*
X13111Y-12337D01*
X13111Y-12337D02*
X13111Y-11663D01*
X13111Y-11663D02*
X12909Y-11579D01*
X12909Y-11579D02*
X12755Y-11425D01*
X12755Y-11425D02*
X12671Y-11223D01*
X12671Y-11223D02*
X12671Y-11005D01*
X12671Y-11005D02*
X12755Y-10803D01*
X12755Y-10803D02*
X12909Y-10649D01*
X12909Y-10649D02*
X13111Y-10565D01*
X13111Y-10565D02*
X13329Y-10565D01*
X13329Y-10565D02*
X13531Y-10649D01*
X13531Y-10649D02*
X13685Y-10803D01*
X13685Y-10803D02*
X13769Y-11005D01*
X13769Y-11005D02*
X13769Y-11223D01*
X13769Y-11223D02*
X13685Y-11425D01*
X13685Y-11425D02*
X13531Y-11579D01*
X13531Y-11579D02*
X13329Y-11663D01*
X13329Y-11663D02*
X13111Y-11663D01*
X13111Y-11663D02*
X13111Y-12337D01*
X13111Y-12337D02*
X13329Y-12337D01*
X13329Y-12337D02*
X13531Y-12421D01*
X13531Y-12421D02*
X13685Y-12575D01*
X13685Y-12575D02*
X13769Y-12777D01*
X13769Y-12777D02*
X13769Y-12984D01*
X13769Y-12984D02*
X13835Y-12885D01*
X13835Y-12885D02*
X14650Y-12070D01*
X14650Y-12070D02*
X14756Y-12000D01*
X14756Y-12000D02*
X14880Y-11975D01*
X14880Y-11975D02*
X15671Y-11975D01*
X15671Y-11975D02*
X15671Y-11663D01*
X15671Y-11663D02*
X15469Y-11579D01*
X15469Y-11579D02*
X15315Y-11425D01*
X15315Y-11425D02*
X15231Y-11223D01*
X15231Y-11223D02*
X15231Y-11005D01*
X15231Y-11005D02*
X15315Y-10803D01*
X15315Y-10803D02*
X15469Y-10649D01*
X15469Y-10649D02*
X15671Y-10565D01*
X15671Y-10565D02*
X15889Y-10565D01*
X15889Y-10565D02*
X16091Y-10649D01*
X16091Y-10649D02*
X16245Y-10803D01*
X16245Y-10803D02*
X16329Y-11005D01*
X16329Y-11005D02*
X16329Y-11223D01*
X16329Y-11223D02*
X16245Y-11425D01*
X16245Y-11425D02*
X16091Y-11579D01*
X16091Y-11579D02*
X15889Y-11663D01*
X15889Y-11663D02*
X15671Y-11663D01*
X15671Y-11663D02*
X15671Y-11975D01*
X15671Y-11975D02*
X16634Y-11975D01*
X16634Y-11975D02*
X16758Y-12000D01*
X16758Y-12000D02*
X16864Y-12070D01*
X16864Y-12070D02*
X17111Y-12317D01*
X17111Y-12317D02*
X17111Y-11663D01*
X17111Y-11663D02*
X16909Y-11579D01*
X16909Y-11579D02*
X16755Y-11425D01*
X16755Y-11425D02*
X16671Y-11223D01*
X16671Y-11223D02*
X16671Y-11005D01*
X16671Y-11005D02*
X16755Y-10803D01*
X16755Y-10803D02*
X16909Y-10649D01*
X16909Y-10649D02*
X17111Y-10565D01*
X17111Y-10565D02*
X17329Y-10565D01*
X17329Y-10565D02*
X17531Y-10649D01*
X17531Y-10649D02*
X17685Y-10803D01*
X17685Y-10803D02*
X17769Y-11005D01*
X17769Y-11005D02*
X17769Y-11223D01*
X17769Y-11223D02*
X17685Y-11425D01*
X17685Y-11425D02*
X17531Y-11579D01*
X17531Y-11579D02*
X17329Y-11663D01*
X17329Y-11663D02*
X17111Y-11663D01*
X17111Y-11663D02*
X17111Y-12317D01*
X17111Y-12317D02*
X17130Y-12337D01*
X17130Y-12337D02*
X17329Y-12337D01*
X17329Y-12337D02*
X17531Y-12421D01*
X17531Y-12421D02*
X17671Y-12561D01*
X17671Y-12561D02*
X17729Y-12561D01*
X17729Y-12561D02*
X18370Y-11920D01*
X18370Y-11920D02*
X18476Y-11850D01*
X18476Y-11850D02*
X18600Y-11825D01*
X18600Y-11825D02*
X19671Y-11824D01*
X19671Y-11824D02*
X19671Y-11663D01*
X19671Y-11663D02*
X19469Y-11579D01*
X19469Y-11579D02*
X19315Y-11425D01*
X19315Y-11425D02*
X19231Y-11223D01*
X19231Y-11223D02*
X19231Y-11005D01*
X19231Y-11005D02*
X19315Y-10803D01*
X19315Y-10803D02*
X19469Y-10649D01*
X19469Y-10649D02*
X19671Y-10565D01*
X19671Y-10565D02*
X19889Y-10565D01*
X19889Y-10565D02*
X20091Y-10649D01*
X20091Y-10649D02*
X20245Y-10803D01*
X20245Y-10803D02*
X20329Y-11005D01*
X20329Y-11005D02*
X20329Y-11223D01*
X20329Y-11223D02*
X20245Y-11425D01*
X20245Y-11425D02*
X20091Y-11579D01*
X20091Y-11579D02*
X19889Y-11663D01*
X19889Y-11663D02*
X19671Y-11663D01*
X19671Y-11663D02*
X19671Y-11824D01*
X19671Y-11824D02*
X21240Y-11824D01*
X21240Y-11824D02*
X21890Y-11175D01*
X21890Y-11175D02*
X21890Y-10245D01*
X21890Y-10245D02*
X10245Y-10245D01*
X10245Y-10245D02*
X10245Y-13941D01*
X10245Y-13941D02*
X10293Y-13893D01*
X10293Y-13893D02*
X10385Y-13855D01*
X10385Y-13855D02*
X11070Y-13855D01*
X11070Y-13855D02*
X11070Y-12150D01*
X11070Y-12150D02*
X10739Y-12012D01*
X10739Y-12012D02*
X10487Y-11759D01*
X10487Y-11759D02*
X10350Y-11428D01*
X10350Y-11428D02*
X10350Y-11070D01*
X10350Y-11070D02*
X10488Y-10739D01*
X10488Y-10739D02*
X10741Y-10487D01*
X10741Y-10487D02*
X11072Y-10350D01*
X11072Y-10350D02*
X11430Y-10350D01*
X11430Y-10350D02*
X11761Y-10488D01*
X11761Y-10488D02*
X12013Y-10741D01*
X12013Y-10741D02*
X12150Y-11072D01*
X12150Y-11072D02*
X12150Y-11430D01*
X12150Y-11430D02*
X12012Y-11761D01*
X12012Y-11761D02*
X11759Y-12013D01*
X11759Y-12013D02*
X11428Y-12150D01*
X11428Y-12150D02*
X11070Y-12150D01*
X11070Y-12150D02*
X11070Y-13855D01*
X11070Y-13855D02*
X11350Y-13855D01*
X11350Y-13855D02*
X11441Y-13893D01*
X11441Y-13893D02*
X11511Y-13963D01*
X11511Y-13963D02*
X11549Y-14055D01*
X11549Y-14055D02*
X11549Y-14876D01*
M02*
