M48
;DRILL file {PCBnew (20090216-final)} date Thu 28 Oct 2010 04:25:44 PM PDT
;FORMAT={2:4/ absolute / inch / suppress trailing zeros}
R,T
VER,1
FMAT,2
INCH,LZ
TCST,OFF
ICI,OFF
ATC,ON
T1C0.025
T2C0.027
T3C0.032
T4C0.035
T5C0.036
T6C0.039
T7C0.040
T8C0.079
T9C0.120
%
M47
G05
M72
T1
X0119Y-01285
X01504Y-019385
X01505Y-015945
X016005Y-030985
X016575Y-030405
X01686Y-0219
X01732Y-014565
X019875Y-029385
X02014Y-019025
X02068Y-018705
X021075Y-014985
X021245Y-02059
X0213Y-01839
X02133Y-01374
X024505Y-015895
X02479Y-015455
X026955Y-015915
X027555Y-026245
X02876Y-02623
X02877Y-02997
X02972Y-0209
X0299Y-015525
X030285Y-02142
X03115Y-02481
X0328Y-026875
X032985Y-019625
X03357Y-026105
X034035Y-025215
X03522Y-017415
X03558Y-023985
X03597Y-013935
T2
X024905Y-012
X026825Y-012
T3
X01322Y-011114
X01322Y-012886
X01578Y-011114
X01578Y-012886
X01722Y-011114
X01722Y-012886
X01978Y-011114
X01978Y-012886
T4
X0146Y-02625
X0146Y-02725
T5
X012166Y-015561
X012166Y-016939
T6
X02115Y-03005
X02115Y-03105
X02215Y-03005
X02215Y-03105
X02315Y-03005
X02315Y-03105
X02415Y-03005
X02415Y-03105
X02515Y-03005
X02515Y-03105
X03125Y-03005
X03125Y-03105
X03225Y-03005
X03225Y-03105
X03325Y-03005
X03325Y-03105
X03425Y-03005
X03425Y-03105
X03525Y-03005
X03525Y-03105
X0376Y-01925
X0376Y-02025
X0376Y-02125
X0376Y-02225
X0376Y-02325
X0386Y-01925
X0386Y-02025
X0386Y-02125
X0386Y-02225
X0386Y-02325
T7
X032Y-0115
X032Y-0125
X033Y-0115
X033Y-0125
X034Y-0115
X034Y-0125
X035Y-0115
X035Y-0125
X036Y-0115
X036Y-0125
T8
X0126Y-02425
X0126Y-02825
X0166Y-02825
T9
X01125Y-01125
X01125Y-03125
X03875Y-01125
X03875Y-03125
T0
M30
