G04 (created by PCBnew (20090216-final)) date Thu 28 Oct 2010 04:25:38 PM PDT*
G01*
G70*
G90*
%MOIN*%
G04 Gerber Fmt 3.4, Leading zero omitted, Abs format*
%FSLAX34Y34*%
G04 APERTURE LIST*
%ADD10C,0.009000*%
%ADD11C,0.050000*%
%ADD12R,0.070000X0.070000*%
%ADD13C,0.070000*%
%ADD14C,0.060000*%
%ADD15R,0.060000X0.060000*%
%ADD16C,0.120000*%
%ADD17R,0.065000X0.065000*%
%ADD18C,0.065000*%
%ADD19C,0.130000*%
%ADD20C,0.025000*%
%ADD21C,0.045000*%
%ADD22C,0.015000*%
%ADD23C,0.010000*%
%ADD24R,0.055100X0.017700*%
%ADD25R,0.017700X0.055100*%
%ADD26R,0.035000X0.055000*%
%ADD27R,0.055000X0.035000*%
%ADD28R,0.086600X0.098400*%
%ADD29R,0.078700X0.019700*%
%ADD30C,0.005000*%
G04 APERTURE END LIST*
G54D10*
X40000Y-10000D02*
X40000Y-32500D01*
X10000Y-32500D02*
X40000Y-32500D01*
X10000Y-10000D02*
X40000Y-10000D01*
X10000Y-10000D02*
X10000Y-32500D01*
G54D30*
X37250Y-18900D02*
X37950Y-18900D01*
X37950Y-18900D02*
X37950Y-19600D01*
X37950Y-19600D02*
X37250Y-19600D01*
X37250Y-19600D02*
X37250Y-18900D01*
X38950Y-19250D02*
X38943Y-19317D01*
X38943Y-19317D02*
X38923Y-19383D01*
X38923Y-19383D02*
X38891Y-19443D01*
X38891Y-19443D02*
X38848Y-19496D01*
X38848Y-19496D02*
X38795Y-19540D01*
X38795Y-19540D02*
X38735Y-19572D01*
X38735Y-19572D02*
X38670Y-19592D01*
X38670Y-19592D02*
X38602Y-19599D01*
X38602Y-19599D02*
X38535Y-19593D01*
X38535Y-19593D02*
X38469Y-19574D01*
X38469Y-19574D02*
X38409Y-19542D01*
X38409Y-19542D02*
X38356Y-19500D01*
X38356Y-19500D02*
X38312Y-19447D01*
X38312Y-19447D02*
X38279Y-19387D01*
X38279Y-19387D02*
X38258Y-19322D01*
X38258Y-19322D02*
X38251Y-19254D01*
X38251Y-19254D02*
X38256Y-19187D01*
X38256Y-19187D02*
X38275Y-19122D01*
X38275Y-19122D02*
X38306Y-19061D01*
X38306Y-19061D02*
X38349Y-19007D01*
X38349Y-19007D02*
X38401Y-18963D01*
X38401Y-18963D02*
X38460Y-18930D01*
X38460Y-18930D02*
X38525Y-18909D01*
X38525Y-18909D02*
X38593Y-18901D01*
X38593Y-18901D02*
X38660Y-18906D01*
X38660Y-18906D02*
X38726Y-18924D01*
X38726Y-18924D02*
X38787Y-18955D01*
X38787Y-18955D02*
X38841Y-18997D01*
X38841Y-18997D02*
X38886Y-19049D01*
X38886Y-19049D02*
X38919Y-19108D01*
X38919Y-19108D02*
X38941Y-19173D01*
X38941Y-19173D02*
X38949Y-19241D01*
X38949Y-19241D02*
X38950Y-19250D01*
X37950Y-20250D02*
X37943Y-20317D01*
X37943Y-20317D02*
X37923Y-20383D01*
X37923Y-20383D02*
X37891Y-20443D01*
X37891Y-20443D02*
X37848Y-20496D01*
X37848Y-20496D02*
X37795Y-20540D01*
X37795Y-20540D02*
X37735Y-20572D01*
X37735Y-20572D02*
X37670Y-20592D01*
X37670Y-20592D02*
X37602Y-20599D01*
X37602Y-20599D02*
X37535Y-20593D01*
X37535Y-20593D02*
X37469Y-20574D01*
X37469Y-20574D02*
X37409Y-20542D01*
X37409Y-20542D02*
X37356Y-20500D01*
X37356Y-20500D02*
X37312Y-20447D01*
X37312Y-20447D02*
X37279Y-20387D01*
X37279Y-20387D02*
X37258Y-20322D01*
X37258Y-20322D02*
X37251Y-20254D01*
X37251Y-20254D02*
X37256Y-20187D01*
X37256Y-20187D02*
X37275Y-20122D01*
X37275Y-20122D02*
X37306Y-20061D01*
X37306Y-20061D02*
X37349Y-20007D01*
X37349Y-20007D02*
X37401Y-19963D01*
X37401Y-19963D02*
X37460Y-19930D01*
X37460Y-19930D02*
X37525Y-19909D01*
X37525Y-19909D02*
X37593Y-19901D01*
X37593Y-19901D02*
X37660Y-19906D01*
X37660Y-19906D02*
X37726Y-19924D01*
X37726Y-19924D02*
X37787Y-19955D01*
X37787Y-19955D02*
X37841Y-19997D01*
X37841Y-19997D02*
X37886Y-20049D01*
X37886Y-20049D02*
X37919Y-20108D01*
X37919Y-20108D02*
X37941Y-20173D01*
X37941Y-20173D02*
X37949Y-20241D01*
X37949Y-20241D02*
X37950Y-20250D01*
X38950Y-20250D02*
X38943Y-20317D01*
X38943Y-20317D02*
X38923Y-20383D01*
X38923Y-20383D02*
X38891Y-20443D01*
X38891Y-20443D02*
X38848Y-20496D01*
X38848Y-20496D02*
X38795Y-20540D01*
X38795Y-20540D02*
X38735Y-20572D01*
X38735Y-20572D02*
X38670Y-20592D01*
X38670Y-20592D02*
X38602Y-20599D01*
X38602Y-20599D02*
X38535Y-20593D01*
X38535Y-20593D02*
X38469Y-20574D01*
X38469Y-20574D02*
X38409Y-20542D01*
X38409Y-20542D02*
X38356Y-20500D01*
X38356Y-20500D02*
X38312Y-20447D01*
X38312Y-20447D02*
X38279Y-20387D01*
X38279Y-20387D02*
X38258Y-20322D01*
X38258Y-20322D02*
X38251Y-20254D01*
X38251Y-20254D02*
X38256Y-20187D01*
X38256Y-20187D02*
X38275Y-20122D01*
X38275Y-20122D02*
X38306Y-20061D01*
X38306Y-20061D02*
X38349Y-20007D01*
X38349Y-20007D02*
X38401Y-19963D01*
X38401Y-19963D02*
X38460Y-19930D01*
X38460Y-19930D02*
X38525Y-19909D01*
X38525Y-19909D02*
X38593Y-19901D01*
X38593Y-19901D02*
X38660Y-19906D01*
X38660Y-19906D02*
X38726Y-19924D01*
X38726Y-19924D02*
X38787Y-19955D01*
X38787Y-19955D02*
X38841Y-19997D01*
X38841Y-19997D02*
X38886Y-20049D01*
X38886Y-20049D02*
X38919Y-20108D01*
X38919Y-20108D02*
X38941Y-20173D01*
X38941Y-20173D02*
X38949Y-20241D01*
X38949Y-20241D02*
X38950Y-20250D01*
X37950Y-21250D02*
X37943Y-21317D01*
X37943Y-21317D02*
X37923Y-21383D01*
X37923Y-21383D02*
X37891Y-21443D01*
X37891Y-21443D02*
X37848Y-21496D01*
X37848Y-21496D02*
X37795Y-21540D01*
X37795Y-21540D02*
X37735Y-21572D01*
X37735Y-21572D02*
X37670Y-21592D01*
X37670Y-21592D02*
X37602Y-21599D01*
X37602Y-21599D02*
X37535Y-21593D01*
X37535Y-21593D02*
X37469Y-21574D01*
X37469Y-21574D02*
X37409Y-21542D01*
X37409Y-21542D02*
X37356Y-21500D01*
X37356Y-21500D02*
X37312Y-21447D01*
X37312Y-21447D02*
X37279Y-21387D01*
X37279Y-21387D02*
X37258Y-21322D01*
X37258Y-21322D02*
X37251Y-21254D01*
X37251Y-21254D02*
X37256Y-21187D01*
X37256Y-21187D02*
X37275Y-21122D01*
X37275Y-21122D02*
X37306Y-21061D01*
X37306Y-21061D02*
X37349Y-21007D01*
X37349Y-21007D02*
X37401Y-20963D01*
X37401Y-20963D02*
X37460Y-20930D01*
X37460Y-20930D02*
X37525Y-20909D01*
X37525Y-20909D02*
X37593Y-20901D01*
X37593Y-20901D02*
X37660Y-20906D01*
X37660Y-20906D02*
X37726Y-20924D01*
X37726Y-20924D02*
X37787Y-20955D01*
X37787Y-20955D02*
X37841Y-20997D01*
X37841Y-20997D02*
X37886Y-21049D01*
X37886Y-21049D02*
X37919Y-21108D01*
X37919Y-21108D02*
X37941Y-21173D01*
X37941Y-21173D02*
X37949Y-21241D01*
X37949Y-21241D02*
X37950Y-21250D01*
X38950Y-21250D02*
X38943Y-21317D01*
X38943Y-21317D02*
X38923Y-21383D01*
X38923Y-21383D02*
X38891Y-21443D01*
X38891Y-21443D02*
X38848Y-21496D01*
X38848Y-21496D02*
X38795Y-21540D01*
X38795Y-21540D02*
X38735Y-21572D01*
X38735Y-21572D02*
X38670Y-21592D01*
X38670Y-21592D02*
X38602Y-21599D01*
X38602Y-21599D02*
X38535Y-21593D01*
X38535Y-21593D02*
X38469Y-21574D01*
X38469Y-21574D02*
X38409Y-21542D01*
X38409Y-21542D02*
X38356Y-21500D01*
X38356Y-21500D02*
X38312Y-21447D01*
X38312Y-21447D02*
X38279Y-21387D01*
X38279Y-21387D02*
X38258Y-21322D01*
X38258Y-21322D02*
X38251Y-21254D01*
X38251Y-21254D02*
X38256Y-21187D01*
X38256Y-21187D02*
X38275Y-21122D01*
X38275Y-21122D02*
X38306Y-21061D01*
X38306Y-21061D02*
X38349Y-21007D01*
X38349Y-21007D02*
X38401Y-20963D01*
X38401Y-20963D02*
X38460Y-20930D01*
X38460Y-20930D02*
X38525Y-20909D01*
X38525Y-20909D02*
X38593Y-20901D01*
X38593Y-20901D02*
X38660Y-20906D01*
X38660Y-20906D02*
X38726Y-20924D01*
X38726Y-20924D02*
X38787Y-20955D01*
X38787Y-20955D02*
X38841Y-20997D01*
X38841Y-20997D02*
X38886Y-21049D01*
X38886Y-21049D02*
X38919Y-21108D01*
X38919Y-21108D02*
X38941Y-21173D01*
X38941Y-21173D02*
X38949Y-21241D01*
X38949Y-21241D02*
X38950Y-21250D01*
X37950Y-22250D02*
X37943Y-22317D01*
X37943Y-22317D02*
X37923Y-22383D01*
X37923Y-22383D02*
X37891Y-22443D01*
X37891Y-22443D02*
X37848Y-22496D01*
X37848Y-22496D02*
X37795Y-22540D01*
X37795Y-22540D02*
X37735Y-22572D01*
X37735Y-22572D02*
X37670Y-22592D01*
X37670Y-22592D02*
X37602Y-22599D01*
X37602Y-22599D02*
X37535Y-22593D01*
X37535Y-22593D02*
X37469Y-22574D01*
X37469Y-22574D02*
X37409Y-22542D01*
X37409Y-22542D02*
X37356Y-22500D01*
X37356Y-22500D02*
X37312Y-22447D01*
X37312Y-22447D02*
X37279Y-22387D01*
X37279Y-22387D02*
X37258Y-22322D01*
X37258Y-22322D02*
X37251Y-22254D01*
X37251Y-22254D02*
X37256Y-22187D01*
X37256Y-22187D02*
X37275Y-22122D01*
X37275Y-22122D02*
X37306Y-22061D01*
X37306Y-22061D02*
X37349Y-22007D01*
X37349Y-22007D02*
X37401Y-21963D01*
X37401Y-21963D02*
X37460Y-21930D01*
X37460Y-21930D02*
X37525Y-21909D01*
X37525Y-21909D02*
X37593Y-21901D01*
X37593Y-21901D02*
X37660Y-21906D01*
X37660Y-21906D02*
X37726Y-21924D01*
X37726Y-21924D02*
X37787Y-21955D01*
X37787Y-21955D02*
X37841Y-21997D01*
X37841Y-21997D02*
X37886Y-22049D01*
X37886Y-22049D02*
X37919Y-22108D01*
X37919Y-22108D02*
X37941Y-22173D01*
X37941Y-22173D02*
X37949Y-22241D01*
X37949Y-22241D02*
X37950Y-22250D01*
X38950Y-22250D02*
X38943Y-22317D01*
X38943Y-22317D02*
X38923Y-22383D01*
X38923Y-22383D02*
X38891Y-22443D01*
X38891Y-22443D02*
X38848Y-22496D01*
X38848Y-22496D02*
X38795Y-22540D01*
X38795Y-22540D02*
X38735Y-22572D01*
X38735Y-22572D02*
X38670Y-22592D01*
X38670Y-22592D02*
X38602Y-22599D01*
X38602Y-22599D02*
X38535Y-22593D01*
X38535Y-22593D02*
X38469Y-22574D01*
X38469Y-22574D02*
X38409Y-22542D01*
X38409Y-22542D02*
X38356Y-22500D01*
X38356Y-22500D02*
X38312Y-22447D01*
X38312Y-22447D02*
X38279Y-22387D01*
X38279Y-22387D02*
X38258Y-22322D01*
X38258Y-22322D02*
X38251Y-22254D01*
X38251Y-22254D02*
X38256Y-22187D01*
X38256Y-22187D02*
X38275Y-22122D01*
X38275Y-22122D02*
X38306Y-22061D01*
X38306Y-22061D02*
X38349Y-22007D01*
X38349Y-22007D02*
X38401Y-21963D01*
X38401Y-21963D02*
X38460Y-21930D01*
X38460Y-21930D02*
X38525Y-21909D01*
X38525Y-21909D02*
X38593Y-21901D01*
X38593Y-21901D02*
X38660Y-21906D01*
X38660Y-21906D02*
X38726Y-21924D01*
X38726Y-21924D02*
X38787Y-21955D01*
X38787Y-21955D02*
X38841Y-21997D01*
X38841Y-21997D02*
X38886Y-22049D01*
X38886Y-22049D02*
X38919Y-22108D01*
X38919Y-22108D02*
X38941Y-22173D01*
X38941Y-22173D02*
X38949Y-22241D01*
X38949Y-22241D02*
X38950Y-22250D01*
X37950Y-23250D02*
X37943Y-23317D01*
X37943Y-23317D02*
X37923Y-23383D01*
X37923Y-23383D02*
X37891Y-23443D01*
X37891Y-23443D02*
X37848Y-23496D01*
X37848Y-23496D02*
X37795Y-23540D01*
X37795Y-23540D02*
X37735Y-23572D01*
X37735Y-23572D02*
X37670Y-23592D01*
X37670Y-23592D02*
X37602Y-23599D01*
X37602Y-23599D02*
X37535Y-23593D01*
X37535Y-23593D02*
X37469Y-23574D01*
X37469Y-23574D02*
X37409Y-23542D01*
X37409Y-23542D02*
X37356Y-23500D01*
X37356Y-23500D02*
X37312Y-23447D01*
X37312Y-23447D02*
X37279Y-23387D01*
X37279Y-23387D02*
X37258Y-23322D01*
X37258Y-23322D02*
X37251Y-23254D01*
X37251Y-23254D02*
X37256Y-23187D01*
X37256Y-23187D02*
X37275Y-23122D01*
X37275Y-23122D02*
X37306Y-23061D01*
X37306Y-23061D02*
X37349Y-23007D01*
X37349Y-23007D02*
X37401Y-22963D01*
X37401Y-22963D02*
X37460Y-22930D01*
X37460Y-22930D02*
X37525Y-22909D01*
X37525Y-22909D02*
X37593Y-22901D01*
X37593Y-22901D02*
X37660Y-22906D01*
X37660Y-22906D02*
X37726Y-22924D01*
X37726Y-22924D02*
X37787Y-22955D01*
X37787Y-22955D02*
X37841Y-22997D01*
X37841Y-22997D02*
X37886Y-23049D01*
X37886Y-23049D02*
X37919Y-23108D01*
X37919Y-23108D02*
X37941Y-23173D01*
X37941Y-23173D02*
X37949Y-23241D01*
X37949Y-23241D02*
X37950Y-23250D01*
X38950Y-23250D02*
X38943Y-23317D01*
X38943Y-23317D02*
X38923Y-23383D01*
X38923Y-23383D02*
X38891Y-23443D01*
X38891Y-23443D02*
X38848Y-23496D01*
X38848Y-23496D02*
X38795Y-23540D01*
X38795Y-23540D02*
X38735Y-23572D01*
X38735Y-23572D02*
X38670Y-23592D01*
X38670Y-23592D02*
X38602Y-23599D01*
X38602Y-23599D02*
X38535Y-23593D01*
X38535Y-23593D02*
X38469Y-23574D01*
X38469Y-23574D02*
X38409Y-23542D01*
X38409Y-23542D02*
X38356Y-23500D01*
X38356Y-23500D02*
X38312Y-23447D01*
X38312Y-23447D02*
X38279Y-23387D01*
X38279Y-23387D02*
X38258Y-23322D01*
X38258Y-23322D02*
X38251Y-23254D01*
X38251Y-23254D02*
X38256Y-23187D01*
X38256Y-23187D02*
X38275Y-23122D01*
X38275Y-23122D02*
X38306Y-23061D01*
X38306Y-23061D02*
X38349Y-23007D01*
X38349Y-23007D02*
X38401Y-22963D01*
X38401Y-22963D02*
X38460Y-22930D01*
X38460Y-22930D02*
X38525Y-22909D01*
X38525Y-22909D02*
X38593Y-22901D01*
X38593Y-22901D02*
X38660Y-22906D01*
X38660Y-22906D02*
X38726Y-22924D01*
X38726Y-22924D02*
X38787Y-22955D01*
X38787Y-22955D02*
X38841Y-22997D01*
X38841Y-22997D02*
X38886Y-23049D01*
X38886Y-23049D02*
X38919Y-23108D01*
X38919Y-23108D02*
X38941Y-23173D01*
X38941Y-23173D02*
X38949Y-23241D01*
X38949Y-23241D02*
X38950Y-23250D01*
X35600Y-29700D02*
X35600Y-30400D01*
X35600Y-30400D02*
X34900Y-30400D01*
X34900Y-30400D02*
X34900Y-29700D01*
X34900Y-29700D02*
X35600Y-29700D01*
X35600Y-31050D02*
X35593Y-31117D01*
X35593Y-31117D02*
X35573Y-31183D01*
X35573Y-31183D02*
X35541Y-31243D01*
X35541Y-31243D02*
X35498Y-31296D01*
X35498Y-31296D02*
X35445Y-31340D01*
X35445Y-31340D02*
X35385Y-31372D01*
X35385Y-31372D02*
X35320Y-31392D01*
X35320Y-31392D02*
X35252Y-31399D01*
X35252Y-31399D02*
X35185Y-31393D01*
X35185Y-31393D02*
X35119Y-31374D01*
X35119Y-31374D02*
X35059Y-31342D01*
X35059Y-31342D02*
X35006Y-31300D01*
X35006Y-31300D02*
X34962Y-31247D01*
X34962Y-31247D02*
X34929Y-31187D01*
X34929Y-31187D02*
X34908Y-31122D01*
X34908Y-31122D02*
X34901Y-31054D01*
X34901Y-31054D02*
X34906Y-30987D01*
X34906Y-30987D02*
X34925Y-30922D01*
X34925Y-30922D02*
X34956Y-30861D01*
X34956Y-30861D02*
X34999Y-30807D01*
X34999Y-30807D02*
X35051Y-30763D01*
X35051Y-30763D02*
X35110Y-30730D01*
X35110Y-30730D02*
X35175Y-30709D01*
X35175Y-30709D02*
X35243Y-30701D01*
X35243Y-30701D02*
X35310Y-30706D01*
X35310Y-30706D02*
X35376Y-30724D01*
X35376Y-30724D02*
X35437Y-30755D01*
X35437Y-30755D02*
X35491Y-30797D01*
X35491Y-30797D02*
X35536Y-30849D01*
X35536Y-30849D02*
X35569Y-30908D01*
X35569Y-30908D02*
X35591Y-30973D01*
X35591Y-30973D02*
X35599Y-31041D01*
X35599Y-31041D02*
X35600Y-31050D01*
X34600Y-30050D02*
X34593Y-30117D01*
X34593Y-30117D02*
X34573Y-30183D01*
X34573Y-30183D02*
X34541Y-30243D01*
X34541Y-30243D02*
X34498Y-30296D01*
X34498Y-30296D02*
X34445Y-30340D01*
X34445Y-30340D02*
X34385Y-30372D01*
X34385Y-30372D02*
X34320Y-30392D01*
X34320Y-30392D02*
X34252Y-30399D01*
X34252Y-30399D02*
X34185Y-30393D01*
X34185Y-30393D02*
X34119Y-30374D01*
X34119Y-30374D02*
X34059Y-30342D01*
X34059Y-30342D02*
X34006Y-30300D01*
X34006Y-30300D02*
X33962Y-30247D01*
X33962Y-30247D02*
X33929Y-30187D01*
X33929Y-30187D02*
X33908Y-30122D01*
X33908Y-30122D02*
X33901Y-30054D01*
X33901Y-30054D02*
X33906Y-29987D01*
X33906Y-29987D02*
X33925Y-29922D01*
X33925Y-29922D02*
X33956Y-29861D01*
X33956Y-29861D02*
X33999Y-29807D01*
X33999Y-29807D02*
X34051Y-29763D01*
X34051Y-29763D02*
X34110Y-29730D01*
X34110Y-29730D02*
X34175Y-29709D01*
X34175Y-29709D02*
X34243Y-29701D01*
X34243Y-29701D02*
X34310Y-29706D01*
X34310Y-29706D02*
X34376Y-29724D01*
X34376Y-29724D02*
X34437Y-29755D01*
X34437Y-29755D02*
X34491Y-29797D01*
X34491Y-29797D02*
X34536Y-29849D01*
X34536Y-29849D02*
X34569Y-29908D01*
X34569Y-29908D02*
X34591Y-29973D01*
X34591Y-29973D02*
X34599Y-30041D01*
X34599Y-30041D02*
X34600Y-30050D01*
X34600Y-31050D02*
X34593Y-31117D01*
X34593Y-31117D02*
X34573Y-31183D01*
X34573Y-31183D02*
X34541Y-31243D01*
X34541Y-31243D02*
X34498Y-31296D01*
X34498Y-31296D02*
X34445Y-31340D01*
X34445Y-31340D02*
X34385Y-31372D01*
X34385Y-31372D02*
X34320Y-31392D01*
X34320Y-31392D02*
X34252Y-31399D01*
X34252Y-31399D02*
X34185Y-31393D01*
X34185Y-31393D02*
X34119Y-31374D01*
X34119Y-31374D02*
X34059Y-31342D01*
X34059Y-31342D02*
X34006Y-31300D01*
X34006Y-31300D02*
X33962Y-31247D01*
X33962Y-31247D02*
X33929Y-31187D01*
X33929Y-31187D02*
X33908Y-31122D01*
X33908Y-31122D02*
X33901Y-31054D01*
X33901Y-31054D02*
X33906Y-30987D01*
X33906Y-30987D02*
X33925Y-30922D01*
X33925Y-30922D02*
X33956Y-30861D01*
X33956Y-30861D02*
X33999Y-30807D01*
X33999Y-30807D02*
X34051Y-30763D01*
X34051Y-30763D02*
X34110Y-30730D01*
X34110Y-30730D02*
X34175Y-30709D01*
X34175Y-30709D02*
X34243Y-30701D01*
X34243Y-30701D02*
X34310Y-30706D01*
X34310Y-30706D02*
X34376Y-30724D01*
X34376Y-30724D02*
X34437Y-30755D01*
X34437Y-30755D02*
X34491Y-30797D01*
X34491Y-30797D02*
X34536Y-30849D01*
X34536Y-30849D02*
X34569Y-30908D01*
X34569Y-30908D02*
X34591Y-30973D01*
X34591Y-30973D02*
X34599Y-31041D01*
X34599Y-31041D02*
X34600Y-31050D01*
X33600Y-30050D02*
X33593Y-30117D01*
X33593Y-30117D02*
X33573Y-30183D01*
X33573Y-30183D02*
X33541Y-30243D01*
X33541Y-30243D02*
X33498Y-30296D01*
X33498Y-30296D02*
X33445Y-30340D01*
X33445Y-30340D02*
X33385Y-30372D01*
X33385Y-30372D02*
X33320Y-30392D01*
X33320Y-30392D02*
X33252Y-30399D01*
X33252Y-30399D02*
X33185Y-30393D01*
X33185Y-30393D02*
X33119Y-30374D01*
X33119Y-30374D02*
X33059Y-30342D01*
X33059Y-30342D02*
X33006Y-30300D01*
X33006Y-30300D02*
X32962Y-30247D01*
X32962Y-30247D02*
X32929Y-30187D01*
X32929Y-30187D02*
X32908Y-30122D01*
X32908Y-30122D02*
X32901Y-30054D01*
X32901Y-30054D02*
X32906Y-29987D01*
X32906Y-29987D02*
X32925Y-29922D01*
X32925Y-29922D02*
X32956Y-29861D01*
X32956Y-29861D02*
X32999Y-29807D01*
X32999Y-29807D02*
X33051Y-29763D01*
X33051Y-29763D02*
X33110Y-29730D01*
X33110Y-29730D02*
X33175Y-29709D01*
X33175Y-29709D02*
X33243Y-29701D01*
X33243Y-29701D02*
X33310Y-29706D01*
X33310Y-29706D02*
X33376Y-29724D01*
X33376Y-29724D02*
X33437Y-29755D01*
X33437Y-29755D02*
X33491Y-29797D01*
X33491Y-29797D02*
X33536Y-29849D01*
X33536Y-29849D02*
X33569Y-29908D01*
X33569Y-29908D02*
X33591Y-29973D01*
X33591Y-29973D02*
X33599Y-30041D01*
X33599Y-30041D02*
X33600Y-30050D01*
X33600Y-31050D02*
X33593Y-31117D01*
X33593Y-31117D02*
X33573Y-31183D01*
X33573Y-31183D02*
X33541Y-31243D01*
X33541Y-31243D02*
X33498Y-31296D01*
X33498Y-31296D02*
X33445Y-31340D01*
X33445Y-31340D02*
X33385Y-31372D01*
X33385Y-31372D02*
X33320Y-31392D01*
X33320Y-31392D02*
X33252Y-31399D01*
X33252Y-31399D02*
X33185Y-31393D01*
X33185Y-31393D02*
X33119Y-31374D01*
X33119Y-31374D02*
X33059Y-31342D01*
X33059Y-31342D02*
X33006Y-31300D01*
X33006Y-31300D02*
X32962Y-31247D01*
X32962Y-31247D02*
X32929Y-31187D01*
X32929Y-31187D02*
X32908Y-31122D01*
X32908Y-31122D02*
X32901Y-31054D01*
X32901Y-31054D02*
X32906Y-30987D01*
X32906Y-30987D02*
X32925Y-30922D01*
X32925Y-30922D02*
X32956Y-30861D01*
X32956Y-30861D02*
X32999Y-30807D01*
X32999Y-30807D02*
X33051Y-30763D01*
X33051Y-30763D02*
X33110Y-30730D01*
X33110Y-30730D02*
X33175Y-30709D01*
X33175Y-30709D02*
X33243Y-30701D01*
X33243Y-30701D02*
X33310Y-30706D01*
X33310Y-30706D02*
X33376Y-30724D01*
X33376Y-30724D02*
X33437Y-30755D01*
X33437Y-30755D02*
X33491Y-30797D01*
X33491Y-30797D02*
X33536Y-30849D01*
X33536Y-30849D02*
X33569Y-30908D01*
X33569Y-30908D02*
X33591Y-30973D01*
X33591Y-30973D02*
X33599Y-31041D01*
X33599Y-31041D02*
X33600Y-31050D01*
X32600Y-30050D02*
X32593Y-30117D01*
X32593Y-30117D02*
X32573Y-30183D01*
X32573Y-30183D02*
X32541Y-30243D01*
X32541Y-30243D02*
X32498Y-30296D01*
X32498Y-30296D02*
X32445Y-30340D01*
X32445Y-30340D02*
X32385Y-30372D01*
X32385Y-30372D02*
X32320Y-30392D01*
X32320Y-30392D02*
X32252Y-30399D01*
X32252Y-30399D02*
X32185Y-30393D01*
X32185Y-30393D02*
X32119Y-30374D01*
X32119Y-30374D02*
X32059Y-30342D01*
X32059Y-30342D02*
X32006Y-30300D01*
X32006Y-30300D02*
X31962Y-30247D01*
X31962Y-30247D02*
X31929Y-30187D01*
X31929Y-30187D02*
X31908Y-30122D01*
X31908Y-30122D02*
X31901Y-30054D01*
X31901Y-30054D02*
X31906Y-29987D01*
X31906Y-29987D02*
X31925Y-29922D01*
X31925Y-29922D02*
X31956Y-29861D01*
X31956Y-29861D02*
X31999Y-29807D01*
X31999Y-29807D02*
X32051Y-29763D01*
X32051Y-29763D02*
X32110Y-29730D01*
X32110Y-29730D02*
X32175Y-29709D01*
X32175Y-29709D02*
X32243Y-29701D01*
X32243Y-29701D02*
X32310Y-29706D01*
X32310Y-29706D02*
X32376Y-29724D01*
X32376Y-29724D02*
X32437Y-29755D01*
X32437Y-29755D02*
X32491Y-29797D01*
X32491Y-29797D02*
X32536Y-29849D01*
X32536Y-29849D02*
X32569Y-29908D01*
X32569Y-29908D02*
X32591Y-29973D01*
X32591Y-29973D02*
X32599Y-30041D01*
X32599Y-30041D02*
X32600Y-30050D01*
X32600Y-31050D02*
X32593Y-31117D01*
X32593Y-31117D02*
X32573Y-31183D01*
X32573Y-31183D02*
X32541Y-31243D01*
X32541Y-31243D02*
X32498Y-31296D01*
X32498Y-31296D02*
X32445Y-31340D01*
X32445Y-31340D02*
X32385Y-31372D01*
X32385Y-31372D02*
X32320Y-31392D01*
X32320Y-31392D02*
X32252Y-31399D01*
X32252Y-31399D02*
X32185Y-31393D01*
X32185Y-31393D02*
X32119Y-31374D01*
X32119Y-31374D02*
X32059Y-31342D01*
X32059Y-31342D02*
X32006Y-31300D01*
X32006Y-31300D02*
X31962Y-31247D01*
X31962Y-31247D02*
X31929Y-31187D01*
X31929Y-31187D02*
X31908Y-31122D01*
X31908Y-31122D02*
X31901Y-31054D01*
X31901Y-31054D02*
X31906Y-30987D01*
X31906Y-30987D02*
X31925Y-30922D01*
X31925Y-30922D02*
X31956Y-30861D01*
X31956Y-30861D02*
X31999Y-30807D01*
X31999Y-30807D02*
X32051Y-30763D01*
X32051Y-30763D02*
X32110Y-30730D01*
X32110Y-30730D02*
X32175Y-30709D01*
X32175Y-30709D02*
X32243Y-30701D01*
X32243Y-30701D02*
X32310Y-30706D01*
X32310Y-30706D02*
X32376Y-30724D01*
X32376Y-30724D02*
X32437Y-30755D01*
X32437Y-30755D02*
X32491Y-30797D01*
X32491Y-30797D02*
X32536Y-30849D01*
X32536Y-30849D02*
X32569Y-30908D01*
X32569Y-30908D02*
X32591Y-30973D01*
X32591Y-30973D02*
X32599Y-31041D01*
X32599Y-31041D02*
X32600Y-31050D01*
X31600Y-30050D02*
X31593Y-30117D01*
X31593Y-30117D02*
X31573Y-30183D01*
X31573Y-30183D02*
X31541Y-30243D01*
X31541Y-30243D02*
X31498Y-30296D01*
X31498Y-30296D02*
X31445Y-30340D01*
X31445Y-30340D02*
X31385Y-30372D01*
X31385Y-30372D02*
X31320Y-30392D01*
X31320Y-30392D02*
X31252Y-30399D01*
X31252Y-30399D02*
X31185Y-30393D01*
X31185Y-30393D02*
X31119Y-30374D01*
X31119Y-30374D02*
X31059Y-30342D01*
X31059Y-30342D02*
X31006Y-30300D01*
X31006Y-30300D02*
X30962Y-30247D01*
X30962Y-30247D02*
X30929Y-30187D01*
X30929Y-30187D02*
X30908Y-30122D01*
X30908Y-30122D02*
X30901Y-30054D01*
X30901Y-30054D02*
X30906Y-29987D01*
X30906Y-29987D02*
X30925Y-29922D01*
X30925Y-29922D02*
X30956Y-29861D01*
X30956Y-29861D02*
X30999Y-29807D01*
X30999Y-29807D02*
X31051Y-29763D01*
X31051Y-29763D02*
X31110Y-29730D01*
X31110Y-29730D02*
X31175Y-29709D01*
X31175Y-29709D02*
X31243Y-29701D01*
X31243Y-29701D02*
X31310Y-29706D01*
X31310Y-29706D02*
X31376Y-29724D01*
X31376Y-29724D02*
X31437Y-29755D01*
X31437Y-29755D02*
X31491Y-29797D01*
X31491Y-29797D02*
X31536Y-29849D01*
X31536Y-29849D02*
X31569Y-29908D01*
X31569Y-29908D02*
X31591Y-29973D01*
X31591Y-29973D02*
X31599Y-30041D01*
X31599Y-30041D02*
X31600Y-30050D01*
X31600Y-31050D02*
X31593Y-31117D01*
X31593Y-31117D02*
X31573Y-31183D01*
X31573Y-31183D02*
X31541Y-31243D01*
X31541Y-31243D02*
X31498Y-31296D01*
X31498Y-31296D02*
X31445Y-31340D01*
X31445Y-31340D02*
X31385Y-31372D01*
X31385Y-31372D02*
X31320Y-31392D01*
X31320Y-31392D02*
X31252Y-31399D01*
X31252Y-31399D02*
X31185Y-31393D01*
X31185Y-31393D02*
X31119Y-31374D01*
X31119Y-31374D02*
X31059Y-31342D01*
X31059Y-31342D02*
X31006Y-31300D01*
X31006Y-31300D02*
X30962Y-31247D01*
X30962Y-31247D02*
X30929Y-31187D01*
X30929Y-31187D02*
X30908Y-31122D01*
X30908Y-31122D02*
X30901Y-31054D01*
X30901Y-31054D02*
X30906Y-30987D01*
X30906Y-30987D02*
X30925Y-30922D01*
X30925Y-30922D02*
X30956Y-30861D01*
X30956Y-30861D02*
X30999Y-30807D01*
X30999Y-30807D02*
X31051Y-30763D01*
X31051Y-30763D02*
X31110Y-30730D01*
X31110Y-30730D02*
X31175Y-30709D01*
X31175Y-30709D02*
X31243Y-30701D01*
X31243Y-30701D02*
X31310Y-30706D01*
X31310Y-30706D02*
X31376Y-30724D01*
X31376Y-30724D02*
X31437Y-30755D01*
X31437Y-30755D02*
X31491Y-30797D01*
X31491Y-30797D02*
X31536Y-30849D01*
X31536Y-30849D02*
X31569Y-30908D01*
X31569Y-30908D02*
X31591Y-30973D01*
X31591Y-30973D02*
X31599Y-31041D01*
X31599Y-31041D02*
X31600Y-31050D01*
X25500Y-29700D02*
X25500Y-30400D01*
X25500Y-30400D02*
X24800Y-30400D01*
X24800Y-30400D02*
X24800Y-29700D01*
X24800Y-29700D02*
X25500Y-29700D01*
X25500Y-31050D02*
X25493Y-31117D01*
X25493Y-31117D02*
X25473Y-31183D01*
X25473Y-31183D02*
X25441Y-31243D01*
X25441Y-31243D02*
X25398Y-31296D01*
X25398Y-31296D02*
X25345Y-31340D01*
X25345Y-31340D02*
X25285Y-31372D01*
X25285Y-31372D02*
X25220Y-31392D01*
X25220Y-31392D02*
X25152Y-31399D01*
X25152Y-31399D02*
X25085Y-31393D01*
X25085Y-31393D02*
X25019Y-31374D01*
X25019Y-31374D02*
X24959Y-31342D01*
X24959Y-31342D02*
X24906Y-31300D01*
X24906Y-31300D02*
X24862Y-31247D01*
X24862Y-31247D02*
X24829Y-31187D01*
X24829Y-31187D02*
X24808Y-31122D01*
X24808Y-31122D02*
X24801Y-31054D01*
X24801Y-31054D02*
X24806Y-30987D01*
X24806Y-30987D02*
X24825Y-30922D01*
X24825Y-30922D02*
X24856Y-30861D01*
X24856Y-30861D02*
X24899Y-30807D01*
X24899Y-30807D02*
X24951Y-30763D01*
X24951Y-30763D02*
X25010Y-30730D01*
X25010Y-30730D02*
X25075Y-30709D01*
X25075Y-30709D02*
X25143Y-30701D01*
X25143Y-30701D02*
X25210Y-30706D01*
X25210Y-30706D02*
X25276Y-30724D01*
X25276Y-30724D02*
X25337Y-30755D01*
X25337Y-30755D02*
X25391Y-30797D01*
X25391Y-30797D02*
X25436Y-30849D01*
X25436Y-30849D02*
X25469Y-30908D01*
X25469Y-30908D02*
X25491Y-30973D01*
X25491Y-30973D02*
X25499Y-31041D01*
X25499Y-31041D02*
X25500Y-31050D01*
X24500Y-30050D02*
X24493Y-30117D01*
X24493Y-30117D02*
X24473Y-30183D01*
X24473Y-30183D02*
X24441Y-30243D01*
X24441Y-30243D02*
X24398Y-30296D01*
X24398Y-30296D02*
X24345Y-30340D01*
X24345Y-30340D02*
X24285Y-30372D01*
X24285Y-30372D02*
X24220Y-30392D01*
X24220Y-30392D02*
X24152Y-30399D01*
X24152Y-30399D02*
X24085Y-30393D01*
X24085Y-30393D02*
X24019Y-30374D01*
X24019Y-30374D02*
X23959Y-30342D01*
X23959Y-30342D02*
X23906Y-30300D01*
X23906Y-30300D02*
X23862Y-30247D01*
X23862Y-30247D02*
X23829Y-30187D01*
X23829Y-30187D02*
X23808Y-30122D01*
X23808Y-30122D02*
X23801Y-30054D01*
X23801Y-30054D02*
X23806Y-29987D01*
X23806Y-29987D02*
X23825Y-29922D01*
X23825Y-29922D02*
X23856Y-29861D01*
X23856Y-29861D02*
X23899Y-29807D01*
X23899Y-29807D02*
X23951Y-29763D01*
X23951Y-29763D02*
X24010Y-29730D01*
X24010Y-29730D02*
X24075Y-29709D01*
X24075Y-29709D02*
X24143Y-29701D01*
X24143Y-29701D02*
X24210Y-29706D01*
X24210Y-29706D02*
X24276Y-29724D01*
X24276Y-29724D02*
X24337Y-29755D01*
X24337Y-29755D02*
X24391Y-29797D01*
X24391Y-29797D02*
X24436Y-29849D01*
X24436Y-29849D02*
X24469Y-29908D01*
X24469Y-29908D02*
X24491Y-29973D01*
X24491Y-29973D02*
X24499Y-30041D01*
X24499Y-30041D02*
X24500Y-30050D01*
X24500Y-31050D02*
X24493Y-31117D01*
X24493Y-31117D02*
X24473Y-31183D01*
X24473Y-31183D02*
X24441Y-31243D01*
X24441Y-31243D02*
X24398Y-31296D01*
X24398Y-31296D02*
X24345Y-31340D01*
X24345Y-31340D02*
X24285Y-31372D01*
X24285Y-31372D02*
X24220Y-31392D01*
X24220Y-31392D02*
X24152Y-31399D01*
X24152Y-31399D02*
X24085Y-31393D01*
X24085Y-31393D02*
X24019Y-31374D01*
X24019Y-31374D02*
X23959Y-31342D01*
X23959Y-31342D02*
X23906Y-31300D01*
X23906Y-31300D02*
X23862Y-31247D01*
X23862Y-31247D02*
X23829Y-31187D01*
X23829Y-31187D02*
X23808Y-31122D01*
X23808Y-31122D02*
X23801Y-31054D01*
X23801Y-31054D02*
X23806Y-30987D01*
X23806Y-30987D02*
X23825Y-30922D01*
X23825Y-30922D02*
X23856Y-30861D01*
X23856Y-30861D02*
X23899Y-30807D01*
X23899Y-30807D02*
X23951Y-30763D01*
X23951Y-30763D02*
X24010Y-30730D01*
X24010Y-30730D02*
X24075Y-30709D01*
X24075Y-30709D02*
X24143Y-30701D01*
X24143Y-30701D02*
X24210Y-30706D01*
X24210Y-30706D02*
X24276Y-30724D01*
X24276Y-30724D02*
X24337Y-30755D01*
X24337Y-30755D02*
X24391Y-30797D01*
X24391Y-30797D02*
X24436Y-30849D01*
X24436Y-30849D02*
X24469Y-30908D01*
X24469Y-30908D02*
X24491Y-30973D01*
X24491Y-30973D02*
X24499Y-31041D01*
X24499Y-31041D02*
X24500Y-31050D01*
X23500Y-30050D02*
X23493Y-30117D01*
X23493Y-30117D02*
X23473Y-30183D01*
X23473Y-30183D02*
X23441Y-30243D01*
X23441Y-30243D02*
X23398Y-30296D01*
X23398Y-30296D02*
X23345Y-30340D01*
X23345Y-30340D02*
X23285Y-30372D01*
X23285Y-30372D02*
X23220Y-30392D01*
X23220Y-30392D02*
X23152Y-30399D01*
X23152Y-30399D02*
X23085Y-30393D01*
X23085Y-30393D02*
X23019Y-30374D01*
X23019Y-30374D02*
X22959Y-30342D01*
X22959Y-30342D02*
X22906Y-30300D01*
X22906Y-30300D02*
X22862Y-30247D01*
X22862Y-30247D02*
X22829Y-30187D01*
X22829Y-30187D02*
X22808Y-30122D01*
X22808Y-30122D02*
X22801Y-30054D01*
X22801Y-30054D02*
X22806Y-29987D01*
X22806Y-29987D02*
X22825Y-29922D01*
X22825Y-29922D02*
X22856Y-29861D01*
X22856Y-29861D02*
X22899Y-29807D01*
X22899Y-29807D02*
X22951Y-29763D01*
X22951Y-29763D02*
X23010Y-29730D01*
X23010Y-29730D02*
X23075Y-29709D01*
X23075Y-29709D02*
X23143Y-29701D01*
X23143Y-29701D02*
X23210Y-29706D01*
X23210Y-29706D02*
X23276Y-29724D01*
X23276Y-29724D02*
X23337Y-29755D01*
X23337Y-29755D02*
X23391Y-29797D01*
X23391Y-29797D02*
X23436Y-29849D01*
X23436Y-29849D02*
X23469Y-29908D01*
X23469Y-29908D02*
X23491Y-29973D01*
X23491Y-29973D02*
X23499Y-30041D01*
X23499Y-30041D02*
X23500Y-30050D01*
X23500Y-31050D02*
X23493Y-31117D01*
X23493Y-31117D02*
X23473Y-31183D01*
X23473Y-31183D02*
X23441Y-31243D01*
X23441Y-31243D02*
X23398Y-31296D01*
X23398Y-31296D02*
X23345Y-31340D01*
X23345Y-31340D02*
X23285Y-31372D01*
X23285Y-31372D02*
X23220Y-31392D01*
X23220Y-31392D02*
X23152Y-31399D01*
X23152Y-31399D02*
X23085Y-31393D01*
X23085Y-31393D02*
X23019Y-31374D01*
X23019Y-31374D02*
X22959Y-31342D01*
X22959Y-31342D02*
X22906Y-31300D01*
X22906Y-31300D02*
X22862Y-31247D01*
X22862Y-31247D02*
X22829Y-31187D01*
X22829Y-31187D02*
X22808Y-31122D01*
X22808Y-31122D02*
X22801Y-31054D01*
X22801Y-31054D02*
X22806Y-30987D01*
X22806Y-30987D02*
X22825Y-30922D01*
X22825Y-30922D02*
X22856Y-30861D01*
X22856Y-30861D02*
X22899Y-30807D01*
X22899Y-30807D02*
X22951Y-30763D01*
X22951Y-30763D02*
X23010Y-30730D01*
X23010Y-30730D02*
X23075Y-30709D01*
X23075Y-30709D02*
X23143Y-30701D01*
X23143Y-30701D02*
X23210Y-30706D01*
X23210Y-30706D02*
X23276Y-30724D01*
X23276Y-30724D02*
X23337Y-30755D01*
X23337Y-30755D02*
X23391Y-30797D01*
X23391Y-30797D02*
X23436Y-30849D01*
X23436Y-30849D02*
X23469Y-30908D01*
X23469Y-30908D02*
X23491Y-30973D01*
X23491Y-30973D02*
X23499Y-31041D01*
X23499Y-31041D02*
X23500Y-31050D01*
X22500Y-30050D02*
X22493Y-30117D01*
X22493Y-30117D02*
X22473Y-30183D01*
X22473Y-30183D02*
X22441Y-30243D01*
X22441Y-30243D02*
X22398Y-30296D01*
X22398Y-30296D02*
X22345Y-30340D01*
X22345Y-30340D02*
X22285Y-30372D01*
X22285Y-30372D02*
X22220Y-30392D01*
X22220Y-30392D02*
X22152Y-30399D01*
X22152Y-30399D02*
X22085Y-30393D01*
X22085Y-30393D02*
X22019Y-30374D01*
X22019Y-30374D02*
X21959Y-30342D01*
X21959Y-30342D02*
X21906Y-30300D01*
X21906Y-30300D02*
X21862Y-30247D01*
X21862Y-30247D02*
X21829Y-30187D01*
X21829Y-30187D02*
X21808Y-30122D01*
X21808Y-30122D02*
X21801Y-30054D01*
X21801Y-30054D02*
X21806Y-29987D01*
X21806Y-29987D02*
X21825Y-29922D01*
X21825Y-29922D02*
X21856Y-29861D01*
X21856Y-29861D02*
X21899Y-29807D01*
X21899Y-29807D02*
X21951Y-29763D01*
X21951Y-29763D02*
X22010Y-29730D01*
X22010Y-29730D02*
X22075Y-29709D01*
X22075Y-29709D02*
X22143Y-29701D01*
X22143Y-29701D02*
X22210Y-29706D01*
X22210Y-29706D02*
X22276Y-29724D01*
X22276Y-29724D02*
X22337Y-29755D01*
X22337Y-29755D02*
X22391Y-29797D01*
X22391Y-29797D02*
X22436Y-29849D01*
X22436Y-29849D02*
X22469Y-29908D01*
X22469Y-29908D02*
X22491Y-29973D01*
X22491Y-29973D02*
X22499Y-30041D01*
X22499Y-30041D02*
X22500Y-30050D01*
X22500Y-31050D02*
X22493Y-31117D01*
X22493Y-31117D02*
X22473Y-31183D01*
X22473Y-31183D02*
X22441Y-31243D01*
X22441Y-31243D02*
X22398Y-31296D01*
X22398Y-31296D02*
X22345Y-31340D01*
X22345Y-31340D02*
X22285Y-31372D01*
X22285Y-31372D02*
X22220Y-31392D01*
X22220Y-31392D02*
X22152Y-31399D01*
X22152Y-31399D02*
X22085Y-31393D01*
X22085Y-31393D02*
X22019Y-31374D01*
X22019Y-31374D02*
X21959Y-31342D01*
X21959Y-31342D02*
X21906Y-31300D01*
X21906Y-31300D02*
X21862Y-31247D01*
X21862Y-31247D02*
X21829Y-31187D01*
X21829Y-31187D02*
X21808Y-31122D01*
X21808Y-31122D02*
X21801Y-31054D01*
X21801Y-31054D02*
X21806Y-30987D01*
X21806Y-30987D02*
X21825Y-30922D01*
X21825Y-30922D02*
X21856Y-30861D01*
X21856Y-30861D02*
X21899Y-30807D01*
X21899Y-30807D02*
X21951Y-30763D01*
X21951Y-30763D02*
X22010Y-30730D01*
X22010Y-30730D02*
X22075Y-30709D01*
X22075Y-30709D02*
X22143Y-30701D01*
X22143Y-30701D02*
X22210Y-30706D01*
X22210Y-30706D02*
X22276Y-30724D01*
X22276Y-30724D02*
X22337Y-30755D01*
X22337Y-30755D02*
X22391Y-30797D01*
X22391Y-30797D02*
X22436Y-30849D01*
X22436Y-30849D02*
X22469Y-30908D01*
X22469Y-30908D02*
X22491Y-30973D01*
X22491Y-30973D02*
X22499Y-31041D01*
X22499Y-31041D02*
X22500Y-31050D01*
X21500Y-30050D02*
X21493Y-30117D01*
X21493Y-30117D02*
X21473Y-30183D01*
X21473Y-30183D02*
X21441Y-30243D01*
X21441Y-30243D02*
X21398Y-30296D01*
X21398Y-30296D02*
X21345Y-30340D01*
X21345Y-30340D02*
X21285Y-30372D01*
X21285Y-30372D02*
X21220Y-30392D01*
X21220Y-30392D02*
X21152Y-30399D01*
X21152Y-30399D02*
X21085Y-30393D01*
X21085Y-30393D02*
X21019Y-30374D01*
X21019Y-30374D02*
X20959Y-30342D01*
X20959Y-30342D02*
X20906Y-30300D01*
X20906Y-30300D02*
X20862Y-30247D01*
X20862Y-30247D02*
X20829Y-30187D01*
X20829Y-30187D02*
X20808Y-30122D01*
X20808Y-30122D02*
X20801Y-30054D01*
X20801Y-30054D02*
X20806Y-29987D01*
X20806Y-29987D02*
X20825Y-29922D01*
X20825Y-29922D02*
X20856Y-29861D01*
X20856Y-29861D02*
X20899Y-29807D01*
X20899Y-29807D02*
X20951Y-29763D01*
X20951Y-29763D02*
X21010Y-29730D01*
X21010Y-29730D02*
X21075Y-29709D01*
X21075Y-29709D02*
X21143Y-29701D01*
X21143Y-29701D02*
X21210Y-29706D01*
X21210Y-29706D02*
X21276Y-29724D01*
X21276Y-29724D02*
X21337Y-29755D01*
X21337Y-29755D02*
X21391Y-29797D01*
X21391Y-29797D02*
X21436Y-29849D01*
X21436Y-29849D02*
X21469Y-29908D01*
X21469Y-29908D02*
X21491Y-29973D01*
X21491Y-29973D02*
X21499Y-30041D01*
X21499Y-30041D02*
X21500Y-30050D01*
X21500Y-31050D02*
X21493Y-31117D01*
X21493Y-31117D02*
X21473Y-31183D01*
X21473Y-31183D02*
X21441Y-31243D01*
X21441Y-31243D02*
X21398Y-31296D01*
X21398Y-31296D02*
X21345Y-31340D01*
X21345Y-31340D02*
X21285Y-31372D01*
X21285Y-31372D02*
X21220Y-31392D01*
X21220Y-31392D02*
X21152Y-31399D01*
X21152Y-31399D02*
X21085Y-31393D01*
X21085Y-31393D02*
X21019Y-31374D01*
X21019Y-31374D02*
X20959Y-31342D01*
X20959Y-31342D02*
X20906Y-31300D01*
X20906Y-31300D02*
X20862Y-31247D01*
X20862Y-31247D02*
X20829Y-31187D01*
X20829Y-31187D02*
X20808Y-31122D01*
X20808Y-31122D02*
X20801Y-31054D01*
X20801Y-31054D02*
X20806Y-30987D01*
X20806Y-30987D02*
X20825Y-30922D01*
X20825Y-30922D02*
X20856Y-30861D01*
X20856Y-30861D02*
X20899Y-30807D01*
X20899Y-30807D02*
X20951Y-30763D01*
X20951Y-30763D02*
X21010Y-30730D01*
X21010Y-30730D02*
X21075Y-30709D01*
X21075Y-30709D02*
X21143Y-30701D01*
X21143Y-30701D02*
X21210Y-30706D01*
X21210Y-30706D02*
X21276Y-30724D01*
X21276Y-30724D02*
X21337Y-30755D01*
X21337Y-30755D02*
X21391Y-30797D01*
X21391Y-30797D02*
X21436Y-30849D01*
X21436Y-30849D02*
X21469Y-30908D01*
X21469Y-30908D02*
X21491Y-30973D01*
X21491Y-30973D02*
X21499Y-31041D01*
X21499Y-31041D02*
X21500Y-31050D01*
X39400Y-11250D02*
X39387Y-11376D01*
X39387Y-11376D02*
X39350Y-11497D01*
X39350Y-11497D02*
X39291Y-11609D01*
X39291Y-11609D02*
X39211Y-11708D01*
X39211Y-11708D02*
X39113Y-11788D01*
X39113Y-11788D02*
X39001Y-11849D01*
X39001Y-11849D02*
X38880Y-11886D01*
X38880Y-11886D02*
X38754Y-11899D01*
X38754Y-11899D02*
X38629Y-11888D01*
X38629Y-11888D02*
X38507Y-11852D01*
X38507Y-11852D02*
X38395Y-11793D01*
X38395Y-11793D02*
X38296Y-11714D01*
X38296Y-11714D02*
X38214Y-11617D01*
X38214Y-11617D02*
X38153Y-11506D01*
X38153Y-11506D02*
X38115Y-11385D01*
X38115Y-11385D02*
X38101Y-11259D01*
X38101Y-11259D02*
X38111Y-11133D01*
X38111Y-11133D02*
X38146Y-11011D01*
X38146Y-11011D02*
X38204Y-10898D01*
X38204Y-10898D02*
X38283Y-10799D01*
X38283Y-10799D02*
X38380Y-10717D01*
X38380Y-10717D02*
X38490Y-10655D01*
X38490Y-10655D02*
X38611Y-10616D01*
X38611Y-10616D02*
X38737Y-10601D01*
X38737Y-10601D02*
X38862Y-10610D01*
X38862Y-10610D02*
X38985Y-10644D01*
X38985Y-10644D02*
X39098Y-10702D01*
X39098Y-10702D02*
X39198Y-10780D01*
X39198Y-10780D02*
X39281Y-10876D01*
X39281Y-10876D02*
X39343Y-10986D01*
X39343Y-10986D02*
X39383Y-11106D01*
X39383Y-11106D02*
X39399Y-11232D01*
X39399Y-11232D02*
X39400Y-11250D01*
X11900Y-11250D02*
X11887Y-11376D01*
X11887Y-11376D02*
X11850Y-11497D01*
X11850Y-11497D02*
X11791Y-11609D01*
X11791Y-11609D02*
X11711Y-11708D01*
X11711Y-11708D02*
X11613Y-11788D01*
X11613Y-11788D02*
X11501Y-11849D01*
X11501Y-11849D02*
X11380Y-11886D01*
X11380Y-11886D02*
X11254Y-11899D01*
X11254Y-11899D02*
X11129Y-11888D01*
X11129Y-11888D02*
X11007Y-11852D01*
X11007Y-11852D02*
X10895Y-11793D01*
X10895Y-11793D02*
X10796Y-11714D01*
X10796Y-11714D02*
X10714Y-11617D01*
X10714Y-11617D02*
X10653Y-11506D01*
X10653Y-11506D02*
X10615Y-11385D01*
X10615Y-11385D02*
X10601Y-11259D01*
X10601Y-11259D02*
X10611Y-11133D01*
X10611Y-11133D02*
X10646Y-11011D01*
X10646Y-11011D02*
X10704Y-10898D01*
X10704Y-10898D02*
X10783Y-10799D01*
X10783Y-10799D02*
X10880Y-10717D01*
X10880Y-10717D02*
X10990Y-10655D01*
X10990Y-10655D02*
X11111Y-10616D01*
X11111Y-10616D02*
X11237Y-10601D01*
X11237Y-10601D02*
X11362Y-10610D01*
X11362Y-10610D02*
X11485Y-10644D01*
X11485Y-10644D02*
X11598Y-10702D01*
X11598Y-10702D02*
X11698Y-10780D01*
X11698Y-10780D02*
X11781Y-10876D01*
X11781Y-10876D02*
X11843Y-10986D01*
X11843Y-10986D02*
X11883Y-11106D01*
X11883Y-11106D02*
X11899Y-11232D01*
X11899Y-11232D02*
X11900Y-11250D01*
X11900Y-31250D02*
X11887Y-31376D01*
X11887Y-31376D02*
X11850Y-31497D01*
X11850Y-31497D02*
X11791Y-31609D01*
X11791Y-31609D02*
X11711Y-31708D01*
X11711Y-31708D02*
X11613Y-31788D01*
X11613Y-31788D02*
X11501Y-31849D01*
X11501Y-31849D02*
X11380Y-31886D01*
X11380Y-31886D02*
X11254Y-31899D01*
X11254Y-31899D02*
X11129Y-31888D01*
X11129Y-31888D02*
X11007Y-31852D01*
X11007Y-31852D02*
X10895Y-31793D01*
X10895Y-31793D02*
X10796Y-31714D01*
X10796Y-31714D02*
X10714Y-31617D01*
X10714Y-31617D02*
X10653Y-31506D01*
X10653Y-31506D02*
X10615Y-31385D01*
X10615Y-31385D02*
X10601Y-31259D01*
X10601Y-31259D02*
X10611Y-31133D01*
X10611Y-31133D02*
X10646Y-31011D01*
X10646Y-31011D02*
X10704Y-30898D01*
X10704Y-30898D02*
X10783Y-30799D01*
X10783Y-30799D02*
X10880Y-30717D01*
X10880Y-30717D02*
X10990Y-30655D01*
X10990Y-30655D02*
X11111Y-30616D01*
X11111Y-30616D02*
X11237Y-30601D01*
X11237Y-30601D02*
X11362Y-30610D01*
X11362Y-30610D02*
X11485Y-30644D01*
X11485Y-30644D02*
X11598Y-30702D01*
X11598Y-30702D02*
X11698Y-30780D01*
X11698Y-30780D02*
X11781Y-30876D01*
X11781Y-30876D02*
X11843Y-30986D01*
X11843Y-30986D02*
X11883Y-31106D01*
X11883Y-31106D02*
X11899Y-31232D01*
X11899Y-31232D02*
X11900Y-31250D01*
X39400Y-31250D02*
X39387Y-31376D01*
X39387Y-31376D02*
X39350Y-31497D01*
X39350Y-31497D02*
X39291Y-31609D01*
X39291Y-31609D02*
X39211Y-31708D01*
X39211Y-31708D02*
X39113Y-31788D01*
X39113Y-31788D02*
X39001Y-31849D01*
X39001Y-31849D02*
X38880Y-31886D01*
X38880Y-31886D02*
X38754Y-31899D01*
X38754Y-31899D02*
X38629Y-31888D01*
X38629Y-31888D02*
X38507Y-31852D01*
X38507Y-31852D02*
X38395Y-31793D01*
X38395Y-31793D02*
X38296Y-31714D01*
X38296Y-31714D02*
X38214Y-31617D01*
X38214Y-31617D02*
X38153Y-31506D01*
X38153Y-31506D02*
X38115Y-31385D01*
X38115Y-31385D02*
X38101Y-31259D01*
X38101Y-31259D02*
X38111Y-31133D01*
X38111Y-31133D02*
X38146Y-31011D01*
X38146Y-31011D02*
X38204Y-30898D01*
X38204Y-30898D02*
X38283Y-30799D01*
X38283Y-30799D02*
X38380Y-30717D01*
X38380Y-30717D02*
X38490Y-30655D01*
X38490Y-30655D02*
X38611Y-30616D01*
X38611Y-30616D02*
X38737Y-30601D01*
X38737Y-30601D02*
X38862Y-30610D01*
X38862Y-30610D02*
X38985Y-30644D01*
X38985Y-30644D02*
X39098Y-30702D01*
X39098Y-30702D02*
X39198Y-30780D01*
X39198Y-30780D02*
X39281Y-30876D01*
X39281Y-30876D02*
X39343Y-30986D01*
X39343Y-30986D02*
X39383Y-31106D01*
X39383Y-31106D02*
X39399Y-31232D01*
X39399Y-31232D02*
X39400Y-31250D01*
M02*
