G04 (created by PCBnew (20090216-final)) date Thu 28 Oct 2010 04:25:38 PM PDT*
G01*
G70*
G90*
%MOIN*%
G04 Gerber Fmt 3.4, Leading zero omitted, Abs format*
%FSLAX34Y34*%
G04 APERTURE LIST*
%ADD10C,0.009000*%
%ADD11C,0.050000*%
%ADD12R,0.070000X0.070000*%
%ADD13C,0.070000*%
%ADD14C,0.060000*%
%ADD15R,0.060000X0.060000*%
%ADD16C,0.120000*%
%ADD17R,0.065000X0.065000*%
%ADD18C,0.065000*%
%ADD19C,0.130000*%
%ADD20C,0.025000*%
%ADD21C,0.045000*%
%ADD22C,0.015000*%
%ADD23C,0.010000*%
%ADD24R,0.055100X0.017700*%
%ADD25R,0.017700X0.055100*%
%ADD26R,0.035000X0.055000*%
%ADD27R,0.055000X0.035000*%
%ADD28R,0.086600X0.098400*%
%ADD29R,0.078700X0.019700*%
%ADD30C,0.005000*%
%ADD31C,0.012000*%
%ADD32C,0.008100*%
%ADD33C,0.006000*%
%ADD34C,0.007900*%
%ADD35C,0.008000*%
%ADD36R,0.090000X0.090000*%
%ADD37C,0.090000*%
%ADD38C,0.080000*%
%ADD39R,0.080000X0.080000*%
%ADD40C,0.140000*%
%ADD41R,0.085000X0.085000*%
%ADD42C,0.085000*%
%ADD43C,0.150000*%
%ADD44R,0.075100X0.037700*%
%ADD45R,0.037700X0.075100*%
%ADD46R,0.055000X0.075000*%
%ADD47R,0.075000X0.055000*%
%ADD48R,0.106600X0.118400*%
%ADD49R,0.098700X0.039700*%
G04 APERTURE END LIST*
G54D10*
X40000Y-10000D02*
X40000Y-32500D01*
X10000Y-32500D02*
X40000Y-32500D01*
X10000Y-10000D02*
X40000Y-10000D01*
X10000Y-10000D02*
X10000Y-32500D01*
G54D44*
X22519Y-17753D03*
X22519Y-17438D03*
X22519Y-18068D03*
X22519Y-18383D03*
X22519Y-18698D03*
X22519Y-19013D03*
X22519Y-19328D03*
X22519Y-19643D03*
X22519Y-22162D03*
X22519Y-21847D03*
X22519Y-21532D03*
X22519Y-21217D03*
X22519Y-20902D03*
X22519Y-20587D03*
X22519Y-20272D03*
X22519Y-19957D03*
G54D45*
X27912Y-16768D03*
X27597Y-16768D03*
X27282Y-16768D03*
X26967Y-16768D03*
X26652Y-16768D03*
X26337Y-16768D03*
X26022Y-16768D03*
X23188Y-16768D03*
X23503Y-16768D03*
X23818Y-16768D03*
X24133Y-16768D03*
X24448Y-16768D03*
X24763Y-16768D03*
X25078Y-16768D03*
X25393Y-16768D03*
X25707Y-16768D03*
X25707Y-22831D03*
X25393Y-22831D03*
X25078Y-22831D03*
X24763Y-22831D03*
X24448Y-22831D03*
X24133Y-22831D03*
X23818Y-22831D03*
X23503Y-22831D03*
X23188Y-22831D03*
X26022Y-22831D03*
X26337Y-22831D03*
X26652Y-22831D03*
X26967Y-22831D03*
X27282Y-22831D03*
X27597Y-22831D03*
X27912Y-22831D03*
G54D44*
X28581Y-19957D03*
X28581Y-20272D03*
X28581Y-20587D03*
X28581Y-20902D03*
X28581Y-21217D03*
X28581Y-21532D03*
X28581Y-21847D03*
X28581Y-22162D03*
X28581Y-19643D03*
X28581Y-19328D03*
X28581Y-19013D03*
X28581Y-18698D03*
X28581Y-18383D03*
X28581Y-18068D03*
X28581Y-17438D03*
X28581Y-17753D03*
G54D13*
X24905Y-12000D03*
X26825Y-12000D03*
G54D36*
X37600Y-19250D03*
G54D37*
X38600Y-19250D03*
X37600Y-20250D03*
X38600Y-20250D03*
X37600Y-21250D03*
X38600Y-21250D03*
X37600Y-22250D03*
X38600Y-22250D03*
X37600Y-23250D03*
X38600Y-23250D03*
G54D36*
X35250Y-30050D03*
G54D37*
X35250Y-31050D03*
X34250Y-30050D03*
X34250Y-31050D03*
X33250Y-30050D03*
X33250Y-31050D03*
X32250Y-30050D03*
X32250Y-31050D03*
X31250Y-30050D03*
X31250Y-31050D03*
G54D36*
X25150Y-30050D03*
G54D37*
X25150Y-31050D03*
X24150Y-30050D03*
X24150Y-31050D03*
X23150Y-30050D03*
X23150Y-31050D03*
X22150Y-30050D03*
X22150Y-31050D03*
X21150Y-30050D03*
X21150Y-31050D03*
G54D38*
X17220Y-11114D03*
X17220Y-12886D03*
X19780Y-11114D03*
X19780Y-12886D03*
X13220Y-11114D03*
X13220Y-12886D03*
X15780Y-11114D03*
X15780Y-12886D03*
G54D39*
X32000Y-12500D03*
G54D38*
X32000Y-11500D03*
X33000Y-12500D03*
X33000Y-11500D03*
X34000Y-12500D03*
X34000Y-11500D03*
X35000Y-12500D03*
X35000Y-11500D03*
X36000Y-12500D03*
X36000Y-11500D03*
G54D46*
X14075Y-20000D03*
X13325Y-20000D03*
X14075Y-21500D03*
X13325Y-21500D03*
X17075Y-17775D03*
X16325Y-17775D03*
X17075Y-16740D03*
X16325Y-16740D03*
X19515Y-14595D03*
X20265Y-14595D03*
X15810Y-14565D03*
X16560Y-14565D03*
X12175Y-20000D03*
X11425Y-20000D03*
X12175Y-21500D03*
X11425Y-21500D03*
G54D47*
X27550Y-24375D03*
X27550Y-25125D03*
X28750Y-24375D03*
X28750Y-25125D03*
G54D46*
X28475Y-15520D03*
X29225Y-15520D03*
X22555Y-24440D03*
X23305Y-24440D03*
G54D47*
X29665Y-22340D03*
X29665Y-23090D03*
G54D46*
X26855Y-14250D03*
X27605Y-14250D03*
X24875Y-14250D03*
X24125Y-14250D03*
X30955Y-19665D03*
X31705Y-19665D03*
G54D47*
X14300Y-15175D03*
X14300Y-14425D03*
G54D48*
X10867Y-17904D03*
X10867Y-14596D03*
X12954Y-17904D03*
X12954Y-14596D03*
G54D49*
X13052Y-15620D03*
X13052Y-15935D03*
X13052Y-16250D03*
X13052Y-16565D03*
X13052Y-16880D03*
G54D13*
X12166Y-15561D03*
X12166Y-16939D03*
G54D40*
X12600Y-28250D03*
X12600Y-24250D03*
G54D41*
X14600Y-26250D03*
G54D42*
X14600Y-27250D03*
G54D40*
X16600Y-28250D03*
G54D43*
X38750Y-11250D03*
X11250Y-11250D03*
X11250Y-31250D03*
X38750Y-31250D03*
G54D47*
X29840Y-19320D03*
X29840Y-18570D03*
M02*
